<?xml version="1.0" encoding="utf-8"?>
<!-- Generator: Adobe Illustrator 16.0.0, SVG Export Plug-In . SVG Version: 6.00 Build 0)  -->
<!DOCTYPE svg PUBLIC "-//W3C//DTD SVG 1.1//EN" "http://www.w3.org/Graphics/SVG/1.1/DTD/svg11.dtd">
<svg version="1.1" id="Layer_1" xmlns="http://www.w3.org/2000/svg" xmlns:xlink="http://www.w3.org/1999/xlink" x="0px" y="0px"
	 width="53.957px" height="76.041px" viewBox="0 0 53.957 76.041" enable-background="new 0 0 53.957 76.041" xml:space="preserve">
<g>
	<path fill-rule="evenodd" clip-rule="evenodd" fill="#1873B6" d="M26.729,76.041c-1.252-0.358-2.503-0.725-3.759-1.074
		c-5.888-1.636-11.777-3.271-17.669-4.896c-0.281-0.079-0.386-0.194-0.411-0.489c-0.182-2.177-0.385-4.352-0.581-6.527
		c-0.279-3.102-0.558-6.204-0.833-9.307c-0.217-2.421-0.426-4.842-0.643-7.261c-0.302-3.398-0.61-6.798-0.914-10.196
		c-0.265-2.975-0.526-5.948-0.792-8.921c-0.249-2.794-0.502-5.587-0.751-8.382c-0.091-1.016-0.176-2.033-0.265-3.051
		c-0.015-0.166-0.028-0.336-0.06-0.5c-0.098-0.486-0.101-0.484,0.378-0.484c17.68-0.002,35.357-0.002,53.035-0.002
		c0.544,0,0.539,0.018,0.442,0.543c-0.189,1.044-0.22,2.105-0.317,3.158c-0.291,3.115-0.563,6.232-0.839,9.348
		c-0.245,2.74-0.483,5.483-0.729,8.227c-0.271,3.038-0.545,6.076-0.818,9.113c-0.218,2.434-0.432,4.867-0.649,7.299
		c-0.276,3.079-0.554,6.154-0.826,9.23c-0.222,2.473-0.44,4.944-0.654,7.416c-0.057,0.662-0.047,0.664-0.685,0.84
		c-6.961,1.929-13.922,3.854-20.882,5.785c-0.106,0.029-0.235,0.023-0.313,0.131C27.04,76.041,26.885,76.041,26.729,76.041z
		 M10.67,32.486c0.081,0.151,0.225,0.101,0.346,0.101c5.313,0.002,10.624,0,15.937-0.002c0.001,2.253,0.003,4.505,0.006,6.758
		c-0.142,0.005-0.284,0.018-0.425,0.018c-2.389,0-4.779,0.007-7.168-0.011c-0.36-0.002-0.43,0.102-0.396,0.438
		c0.199,2.094,0.382,4.189,0.568,6.284c0.105,0.181,0.281,0.093,0.42,0.093c2.195,0.008,4.391,0.01,6.586-0.002
		c0.302,0,0.428,0.049,0.426,0.395c-0.014,3.436-0.009,6.871-0.01,10.307c-0.051-0.007-0.103-0.004-0.151-0.018
		c-2.356-0.635-4.713-1.275-7.073-1.902c-0.248-0.064-0.278-0.203-0.295-0.416c-0.131-1.568-0.273-3.139-0.406-4.71
		c-0.016-0.2-0.045-0.333-0.307-0.332c-2.081,0.011-4.163,0.011-6.243,0.002c-0.246-0.002-0.277,0.103-0.255,0.306
		c0.051,0.475,0.095,0.95,0.138,1.426c0.253,2.83,0.513,5.662,0.753,8.494c0.025,0.293,0.125,0.415,0.403,0.49
		c2.441,0.668,4.88,1.346,7.318,2.024c2.039,0.568,4.079,1.142,6.117,1.714c0.002,2.353,0.007,4.706-0.004,7.059
		c-0.002,0.332,0.087,0.389,0.392,0.301c1.076-0.314,2.158-0.607,3.239-0.907c3.193-0.887,6.385-1.769,9.579-2.655
		c1.441-0.4,2.883-0.801,4.324-1.195c0.209-0.059,0.327-0.145,0.337-0.392c0.023-0.475,0.094-0.947,0.137-1.421
		c0.087-0.987,0.165-1.978,0.253-2.965c0.12-1.334,0.249-2.666,0.367-3.998c0.089-0.988,0.164-1.979,0.252-2.966
		c0.121-1.358,0.25-2.717,0.371-4.077c0.088-0.975,0.164-1.951,0.252-2.926c0.118-1.308,0.25-2.615,0.367-3.92
		c0.088-0.99,0.163-1.979,0.25-2.967c0.121-1.359,0.251-2.717,0.373-4.076c0.088-0.975,0.162-1.951,0.251-2.926
		c0.118-1.295,0.249-2.589,0.365-3.883c0.091-1.001,0.164-2.002,0.253-3.003c0.121-1.386,0.248-2.771,0.375-4.155
		c0.093-1,0.18-2.002,0.295-2.996c0.04-0.348-0.08-0.41-0.396-0.41c-7.072,0.006-14.146,0.007-21.221-0.002
		c-0.315,0-0.417,0.079-0.415,0.408c0.013,1.939,0.004,3.879,0.003,5.816c-0.142,0.009-0.283,0.019-0.426,0.019
		c-5.324,0.003-10.649,0.007-15.976-0.008c-0.388-0.001-0.472,0.106-0.435,0.475c0.202,2.082,0.384,4.167,0.573,6.253
		C10.684,32.444,10.676,32.465,10.67,32.486z"/>
	<path fill-rule="evenodd" clip-rule="evenodd" fill="#1A1919" d="M42.249,0c0.005,0.865,0.004,1.732,0.022,2.596
		c0.005,0.266-0.142,0.25-0.32,0.25c-1.216-0.002-2.433-0.002-3.648,0c-0.122,0-0.252-0.034-0.41,0.054
		c0.53,0.579,1.048,1.146,1.568,1.712c0.938,1.016,1.873,2.031,2.814,3.045c0.12,0.131,0.192,0.258,0.189,0.445
		c-0.011,0.633-0.013,1.266,0,1.899c0.004,0.219-0.063,0.29-0.285,0.29c-3.025-0.006-6.052-0.006-9.078,0.002
		c-0.241,0-0.27-0.1-0.267-0.299c0.008-0.75,0.014-1.501-0.003-2.252C32.825,7.49,32.9,7.42,33.155,7.424
		c1.254,0.013,2.508,0.006,3.762,0.006c0.143,0,0.283,0,0.416,0c0.063-0.137-0.045-0.178-0.098-0.235
		c-1.383-1.504-2.764-3.007-4.154-4.503c-0.181-0.195-0.246-0.391-0.249-0.654C32.819,1.357,32.907,0.674,32.783,0
		C35.938,0,39.093,0,42.249,0z"/>
	<path fill-rule="evenodd" clip-rule="evenodd" fill="#1B1A1A" d="M30.998,0c-0.005,0.825-0.022,1.652-0.008,2.479
		c0.005,0.285-0.065,0.377-0.362,0.372c-1.203-0.017-2.406-0.008-3.606-0.008c-0.124,0-0.249,0-0.476,0
		c0.536,0.588,1.005,1.107,1.48,1.623c0.98,1.063,1.961,2.127,2.947,3.186c0.122,0.131,0.182,0.262,0.18,0.447
		c-0.011,0.633-0.013,1.267,0,1.9c0.004,0.209-0.049,0.293-0.277,0.293c-3.024-0.008-6.049-0.008-9.072,0
		c-0.236,0-0.275-0.099-0.273-0.301c0.01-0.75,0.017-1.501-0.002-2.25c-0.006-0.268,0.092-0.318,0.332-0.318
		c1.254,0.011,2.508,0.006,3.761,0.006c0.139,0,0.277,0,0.442,0C26.012,7.217,25.87,7.119,25.759,7
		c-1.328-1.443-2.656-2.891-3.995-4.326c-0.174-0.186-0.239-0.371-0.234-0.62C21.542,1.369,21.532,0.685,21.531,0
		C24.686,0,27.842,0,30.998,0z"/>
	<path fill-rule="evenodd" clip-rule="evenodd" fill="#191818" d="M19.825,0c-0.102,0.809-0.024,1.619-0.044,2.431
		c-0.011,0.52-0.002,0.52-0.509,0.52c-1.316,0-2.636,0.007-3.954-0.004c-0.272-0.004-0.384,0.04-0.378,0.352
		c0.021,1.226,0.018,2.454,0.001,3.683c-0.003,0.287,0.1,0.334,0.356,0.331c1.368-0.011,2.738,0.005,4.107-0.013
		c0.313-0.006,0.389,0.089,0.381,0.389c-0.021,0.75-0.016,1.498-0.002,2.248c0.005,0.254-0.041,0.359-0.332,0.357
		c-2.546-0.012-5.091-0.008-7.637-0.002c-0.221,0-0.318-0.037-0.318-0.291c0.008-3.297,0.007-6.592,0.007-9.886
		c0-0.038,0.012-0.077,0.018-0.114C14.289,0,17.055,0,19.825,0z"/>
	<path fill-rule="evenodd" clip-rule="evenodd" fill="#35A9DB" d="M26.958,25.686c0.001-1.938,0.01-3.877-0.003-5.816
		c-0.002-0.329,0.1-0.408,0.415-0.408c7.074,0.009,14.148,0.008,21.221,0.002c0.316,0,0.437,0.063,0.396,0.41
		c-0.115,0.994-0.202,1.996-0.295,2.996c-0.127,1.385-0.254,2.77-0.375,4.155c-0.089,1.001-0.162,2.002-0.253,3.003
		c-0.116,1.294-0.247,2.588-0.365,3.883c-0.089,0.975-0.163,1.951-0.251,2.926c-0.122,1.359-0.252,2.717-0.373,4.076
		c-0.087,0.988-0.162,1.977-0.25,2.967c-0.117,1.305-0.249,2.612-0.367,3.92c-0.088,0.975-0.164,1.951-0.252,2.926
		c-0.121,1.36-0.25,2.719-0.371,4.077c-0.088,0.987-0.163,1.978-0.252,2.966c-0.118,1.332-0.247,2.664-0.367,3.998
		c-0.088,0.987-0.166,1.978-0.253,2.965c-0.043,0.474-0.113,0.946-0.137,1.421c-0.01,0.247-0.128,0.333-0.337,0.392
		c-1.441,0.395-2.883,0.795-4.324,1.195c-3.194,0.887-6.386,1.769-9.579,2.655c-1.081,0.3-2.163,0.593-3.239,0.907
		c-0.305,0.088-0.394,0.031-0.392-0.301c0.011-2.353,0.006-4.706,0.004-7.059c0.056-0.027,0.112-0.049,0.168-0.076
		c0.077-0.016,0.153-0.026,0.228-0.047c2.439-0.674,4.877-1.351,7.315-2.025c1.941-0.537,3.883-1.071,5.825-1.609
		c0.171-0.047,0.338-0.069,0.358-0.324c0.092-1.185,0.203-2.367,0.309-3.55c0.161-1.839,0.317-3.679,0.482-5.517
		c0.198-2.186,0.402-4.37,0.599-6.555c0.169-1.878,0.322-3.756,0.488-5.634c0.174-1.955,0.354-3.908,0.532-5.862
		c0.12-1.324,0.246-2.648,0.36-3.972c0.087-1.003,0.156-2.007,0.234-3.009c-0.117-0.125-0.268-0.062-0.402-0.062
		c-2.452-0.004-4.905-0.002-7.359-0.004C33.049,25.694,30.005,25.689,26.958,25.686z"/>
	<path fill-rule="evenodd" clip-rule="evenodd" fill="#EAEAEB" d="M27.127,63.865c-0.057,0.027-0.113,0.049-0.169,0.076
		c-2.038-0.572-4.078-1.146-6.117-1.714c-2.438-0.679-4.877-1.356-7.318-2.024c-0.278-0.075-0.378-0.197-0.403-0.49
		c-0.24-2.832-0.5-5.664-0.753-8.494c-0.043-0.476-0.087-0.951-0.138-1.426c-0.022-0.203,0.009-0.308,0.255-0.306
		c2.08,0.009,4.162,0.009,6.243-0.002c0.262-0.001,0.291,0.132,0.307,0.332c0.133,1.571,0.275,3.142,0.406,4.71
		c0.017,0.213,0.047,0.352,0.295,0.416c2.36,0.627,4.717,1.268,7.073,1.902c0.049,0.014,0.101,0.011,0.151,0.018
		c-0.002,0.015-0.004,0.029-0.002,0.047c0.002,2.181,0.001,4.361,0.008,6.543C26.965,63.603,26.874,63.809,27.127,63.865z"/>
	<path fill-rule="evenodd" clip-rule="evenodd" fill="#E9EAEB" d="M26.958,25.686c3.048,0.004,6.092,0.009,9.139,0.011
		c2.454,0.002,4.907,0,7.359,0.004c0.135,0,0.285-0.063,0.402,0.062c-5.49,0-10.981,0.004-16.473-0.006
		c-0.344,0-0.433,0.092-0.431,0.432c0.017,2.081,0.009,4.162,0.009,6.241c-4.559,0.001-9.115,0.005-13.675,0.005
		c-0.864,0-1.731-0.007-2.594-0.01c-0.189-2.086-0.371-4.171-0.573-6.253c-0.037-0.368,0.047-0.476,0.435-0.475
		c5.326,0.015,10.651,0.011,15.976,0.008C26.674,25.704,26.816,25.694,26.958,25.686z"/>
	<path fill-rule="evenodd" clip-rule="evenodd" fill="#37A9DB" d="M26.959,56.863c0.001-3.436-0.004-6.871,0.01-10.307
		c0.002-0.346-0.124-0.395-0.426-0.395c-2.195,0.012-4.391,0.01-6.586,0.002c-0.139,0-0.314,0.088-0.42-0.093
		c0.064,0.009,0.128,0.026,0.191,0.026c2.411,0,4.823-0.005,7.234-0.007c0.155,0.007,0.309,0.019,0.464,0.019
		c2.441,0.002,4.883,0.002,7.325,0.002c0.538,0,0.538,0,0.505,0.551c-0.003,0.027-0.003,0.053-0.005,0.076
		c-0.232,2.582-0.467,5.166-0.695,7.746c-0.022,0.26-0.1,0.402-0.387,0.479c-2.408,0.634-4.81,1.294-7.213,1.946
		C26.956,56.893,26.958,56.878,26.959,56.863z"/>
	<path fill-rule="evenodd" clip-rule="evenodd" fill="#35A9DB" d="M26.958,39.343c-0.003-2.253-0.005-4.505-0.006-6.758
		c0.007-0.022,0.008-0.042,0.003-0.065c3.18,0,6.361-0.002,9.54-0.002c-0.204,2.277-0.406,4.553-0.61,6.83
		C32.909,39.345,29.934,39.344,26.958,39.343z"/>
	<path fill-rule="evenodd" clip-rule="evenodd" fill="#E9EAEB" d="M26.958,39.343c2.976,0.001,5.95,0.002,8.927,0.005
		c-0.132,0.125-0.295,0.068-0.443,0.068c-2.674,0.004-5.349,0.01-8.023-0.006c-0.382-0.002-0.466,0.114-0.463,0.479
		c0.016,2.068,0.008,4.135,0.008,6.202c-2.411,0.002-4.823,0.007-7.234,0.007c-0.063,0-0.127-0.018-0.191-0.026
		c-0.187-2.095-0.369-4.19-0.568-6.284c-0.033-0.336,0.036-0.439,0.396-0.438c2.389,0.018,4.779,0.011,7.168,0.011
		C26.674,39.36,26.817,39.348,26.958,39.343z"/>
	<path fill-rule="evenodd" clip-rule="evenodd" fill="#97C3DE" d="M36.496,32.518c-3.179,0-6.36,0.002-9.54,0.002
		c-0.142-0.004-0.284-0.01-0.426-0.01c-5.119-0.002-10.238-0.002-15.356-0.002c-0.168,0-0.335-0.015-0.503-0.021
		c0.006-0.021,0.014-0.042,0.024-0.063c0.862,0.003,1.729,0.01,2.594,0.01c4.56,0,9.116-0.004,13.675-0.005
		c3.033,0.002,6.065,0.005,9.099,0.011C36.207,32.439,36.374,32.371,36.496,32.518z"/>
	<path fill-rule="evenodd" clip-rule="evenodd" fill="#0D65B0" d="M10.67,32.486c0.168,0.007,0.335,0.021,0.503,0.021
		c5.118,0,10.237,0,15.356,0.002c0.142,0,0.284,0.006,0.426,0.01c0.005,0.023,0.004,0.043-0.003,0.065
		c-5.313,0.002-10.624,0.004-15.937,0.002C10.895,32.587,10.751,32.638,10.67,32.486z"/>
	<path fill-rule="evenodd" clip-rule="evenodd" fill="#FEFFFF" d="M36.496,32.518c-0.122-0.146-0.289-0.078-0.434-0.078
		c-3.033-0.006-6.065-0.009-9.099-0.011c0-2.079,0.008-4.16-0.009-6.241c-0.002-0.34,0.087-0.432,0.431-0.432
		c5.491,0.01,10.982,0.006,16.473,0.006c-0.078,1.002-0.147,2.006-0.234,3.009c-0.114,1.323-0.24,2.647-0.36,3.972
		c-0.179,1.954-0.358,3.907-0.532,5.862c-0.166,1.878-0.319,3.756-0.488,5.634c-0.196,2.185-0.4,4.369-0.599,6.555
		c-0.165,1.838-0.321,3.678-0.482,5.517c-0.105,1.183-0.217,2.365-0.309,3.55c-0.021,0.255-0.188,0.277-0.358,0.324
		c-1.942,0.538-3.884,1.072-5.825,1.609c-2.438,0.675-4.876,1.352-7.315,2.025c-0.074,0.021-0.15,0.031-0.228,0.047
		c-0.253-0.057-0.161-0.263-0.161-0.412c-0.007-2.182-0.006-4.362-0.008-6.543c2.403-0.652,4.805-1.313,7.213-1.946
		c0.287-0.077,0.364-0.22,0.387-0.479c0.229-2.58,0.463-5.164,0.695-7.746c0.002-0.023,0.002-0.049,0.005-0.076
		c0.033-0.551,0.033-0.551-0.505-0.551c-2.442,0-4.884,0-7.325-0.002c-0.155,0-0.309-0.012-0.464-0.019
		c0-2.067,0.008-4.134-0.008-6.202c-0.003-0.364,0.081-0.48,0.463-0.479c2.675,0.016,5.35,0.01,8.023,0.006
		c0.148,0,0.312,0.057,0.443-0.068C36.089,37.07,36.292,34.795,36.496,32.518z"/>
</g>
</svg>
