<?xml version="1.0" encoding="utf-8"?>
<!-- Generator: Adobe Illustrator 16.0.0, SVG Export Plug-In . SVG Version: 6.00 Build 0)  -->
<!DOCTYPE svg PUBLIC "-//W3C//DTD SVG 1.1//EN" "http://www.w3.org/Graphics/SVG/1.1/DTD/svg11.dtd">
<svg version="1.1" id="Layer_1" xmlns="http://www.w3.org/2000/svg" xmlns:xlink="http://www.w3.org/1999/xlink" x="0px" y="0px"
	 width="52.085px" height="73.535px" viewBox="0 0 52.085 73.535" enable-background="new 0 0 52.085 73.535" xml:space="preserve">
<g>
	<path fill-rule="evenodd" clip-rule="evenodd" fill="#030303" d="M37.735,0c-0.038,0.068-0.018,0.143-0.018,0.216
		c-0.002,3.167-0.005,6.337,0.002,9.503c0,0.167-0.043,0.211-0.21,0.209c-0.974-0.008-1.95-0.008-2.924,0
		c-0.157,0-0.188-0.047-0.188-0.193c0.006-1.484,0.004-2.967,0.004-4.449c0-0.067,0-0.133,0-0.248
		c-0.065,0.091-0.1,0.141-0.137,0.195c-0.679,1.051-1.36,2.1-2.041,3.153c-0.124,0.192-0.124,0.192-0.245,0.007
		c-0.69-1.066-1.381-2.134-2.072-3.201c-0.027-0.045-0.059-0.087-0.115-0.176c0,0.115,0,0.178,0,0.242
		c0,1.488-0.002,2.979,0.004,4.465c0,0.154-0.021,0.207-0.193,0.207c-0.968-0.01-1.936-0.008-2.903-0.002
		c-0.116,0-0.159-0.025-0.159-0.15c0.004-3.23,0.002-6.459,0.004-9.688c0-0.029,0.008-0.061,0.012-0.09c1.154,0,2.305,0,3.458,0
		c0.701,1.153,1.403,2.31,2.115,3.48c0.715-1.176,1.413-2.327,2.114-3.48C35.407,0,36.57,0,37.735,0z"/>
	<path fill-rule="evenodd" clip-rule="evenodd" fill="#040404" d="M14.495,0c0.002,0.687,0.004,1.371,0.004,2.058
		c0.002,2.556-0.002,5.11,0.004,7.665c0,0.171-0.045,0.207-0.208,0.205c-0.981-0.006-1.962-0.006-2.942,0
		C11.216,9.93,11.18,9.9,11.182,9.76c0.007-0.992,0-1.984,0.007-2.979c0.002-0.139-0.031-0.184-0.178-0.182
		c-0.895,0.008-1.789,0.008-2.684,0C8.187,6.598,8.158,6.639,8.158,6.772c0.006,0.979-0.002,1.961,0.009,2.94
		C8.169,9.9,8.113,9.93,7.942,9.93c-0.97-0.01-1.936-0.008-2.905-0.002C4.876,9.93,4.825,9.9,4.825,9.723
		c0.006-3.168,0.004-6.334,0.004-9.504c0-0.072-0.004-0.146-0.004-0.219c1.112,0,2.229,0,3.346,0
		C8.167,1.057,8.167,2.117,8.16,3.174c-0.002,0.13,0.079,0.098,0.145,0.098c0.907,0.002,1.812-0.002,2.716,0.004
		c0.146,0.003,0.168-0.043,0.168-0.172C11.184,2.068,11.184,1.035,11.184,0C12.29,0,13.393,0,14.495,0z"/>
	<path fill-rule="evenodd" clip-rule="evenodd" fill="#040303" d="M25.085,0c0.004,0.98,0.006,1.962,0.008,2.941
		c0.003,0.355,0,0.355-0.348,0.355c-0.797,0-1.594,0.006-2.393-0.004c-0.143,0-0.177,0.037-0.177,0.18
		c0.004,2.086,0,4.168,0.008,6.25c0,0.178-0.055,0.207-0.214,0.205c-0.974-0.006-1.947-0.008-2.924,0.002
		c-0.169,0-0.197-0.051-0.197-0.205c0.006-2.076,0.002-4.153,0.01-6.232c0.002-0.165-0.043-0.201-0.203-0.199
		c-0.852,0.01-1.703,0-2.555,0.008c-0.139,0.002-0.172-0.039-0.172-0.176c0.006-1.043,0.002-2.083,0-3.125
		C18.983,0,22.033,0,25.085,0z"/>
	<path fill-rule="evenodd" clip-rule="evenodd" fill="#060606" d="M42.701,0c-0.033,0.057-0.019,0.121-0.019,0.182
		c0,2.084,0.002,4.166-0.004,6.25c0,0.154,0.028,0.203,0.197,0.202c1.428-0.007,2.856,0,4.285-0.007
		c0.143,0,0.181,0.035,0.181,0.182c-0.008,0.981-0.008,1.961,0,2.941c0.003,0.15-0.042,0.178-0.181,0.178
		c-2.543-0.004-5.088-0.004-7.633,0c-0.15,0.002-0.175-0.047-0.175-0.183c0.004-3.249,0-6.495,0-9.745C40.47,0,41.584,0,42.701,0z"
		/>
	<path fill-rule="evenodd" clip-rule="evenodd" fill="#E44F26" d="M26.051,14.453c8.604,0,17.21,0,25.814-0.004
		c0.186,0,0.234,0.037,0.216,0.225c-0.114,1.164-0.216,2.33-0.32,3.496c-0.089,1.015-0.181,2.025-0.271,3.037
		c-0.106,1.189-0.214,2.379-0.319,3.57c-0.103,1.159-0.204,2.317-0.309,3.478c-0.104,1.169-0.209,2.341-0.315,3.511
		c-0.09,1.019-0.181,2.041-0.271,3.059c-0.106,1.178-0.212,2.353-0.316,3.531c-0.092,1.014-0.182,2.025-0.271,3.04
		c-0.106,1.188-0.214,2.376-0.32,3.566c-0.104,1.159-0.204,2.319-0.31,3.478c-0.104,1.172-0.21,2.344-0.313,3.516
		c-0.092,1.018-0.182,2.035-0.271,3.053c-0.105,1.18-0.212,2.355-0.317,3.533c-0.09,1.016-0.18,2.025-0.271,3.038
		c-0.104,1.19-0.211,2.378-0.317,3.569c-0.069,0.756-0.141,1.512-0.196,2.27c-0.012,0.162-0.061,0.229-0.22,0.272
		c-4.543,1.254-9.085,2.513-13.626,3.771c-2.474,0.687-4.949,1.373-7.422,2.061c-0.07,0.018-0.127,0.018-0.196-0.001
		c-6.124-1.705-12.249-3.403-18.376-5.106c-0.888-0.246-1.776-0.498-2.668-0.738c-0.115-0.03-0.141-0.08-0.149-0.186
		c-0.155-1.759-0.315-3.511-0.469-5.27c-0.13-1.446-0.255-2.895-0.383-4.34c-0.141-1.58-0.287-3.158-0.428-4.738
		c-0.128-1.447-0.253-2.892-0.381-4.338c-0.141-1.579-0.288-3.16-0.428-4.738c-0.129-1.447-0.253-2.893-0.382-4.341
		c-0.141-1.579-0.287-3.159-0.428-4.739c-0.128-1.446-0.252-2.891-0.383-4.338c-0.152-1.713-0.31-3.426-0.463-5.143
		c-0.128-1.443-0.252-2.891-0.383-4.337c-0.139-1.573-0.283-3.149-0.426-4.72c-0.053-0.611-0.1-1.223-0.16-1.832
		c-0.017-0.148,0.03-0.168,0.16-0.168c1.963,0.004,3.924,0.004,5.887,0.004C12.716,14.453,19.385,14.453,26.051,14.453z
		 M26.043,55.451c-0.063,0.023-0.118-0.004-0.178-0.02c-2.324-0.63-4.649-1.256-6.974-1.88c-0.112-0.028-0.148-0.079-0.157-0.181
		c-0.077-0.879-0.155-1.759-0.232-2.637c-0.065-0.749-0.136-1.5-0.197-2.25c-0.013-0.122-0.041-0.173-0.184-0.173
		c-2.069,0.004-4.142,0.004-6.214,0c-0.159,0-0.176,0.053-0.161,0.188c0.049,0.475,0.092,0.95,0.135,1.427
		c0.114,1.305,0.228,2.61,0.344,3.915c0.131,1.495,0.271,2.989,0.396,4.483c0.017,0.172,0.067,0.246,0.24,0.295
		c4.385,1.21,8.766,2.428,13.146,3.646c0.054,0.076,0.037,0.164,0.037,0.248c0,2.109,0,4.219-0.004,6.324
		c0,0.156,0.028,0.184,0.181,0.137c0.451-0.137,0.905-0.26,1.355-0.385c1.764-0.484,3.528-0.968,5.291-1.457
		c1.868-0.516,3.732-1.041,5.603-1.559c1.563-0.435,3.126-0.865,4.69-1.297c0.088-0.023,0.122-0.064,0.133-0.162
		c0.02-0.164,0.026-0.328,0.041-0.492c0.042-0.504,0.094-1.006,0.14-1.508c0.028-0.334,0.05-0.666,0.082-1.002
		c0.045-0.483,0.094-0.967,0.136-1.452c0.031-0.335,0.054-0.669,0.082-1.003c0.045-0.507,0.096-1.016,0.143-1.525
		c0.026-0.314,0.051-0.63,0.08-0.945c0.047-0.496,0.096-0.994,0.141-1.49c0.025-0.322,0.051-0.643,0.077-0.965
		c0.047-0.507,0.096-1.016,0.143-1.525c0.026-0.316,0.051-0.632,0.079-0.945c0.045-0.498,0.096-0.994,0.141-1.491
		c0.03-0.333,0.049-0.669,0.08-1.001c0.044-0.479,0.098-0.956,0.141-1.434c0.03-0.338,0.044-0.681,0.079-1.021
		c0.057-0.52,0.105-1.037,0.143-1.563c0.022-0.303,0.049-0.605,0.077-0.908c0.049-0.51,0.096-1.02,0.143-1.526
		c0.026-0.315,0.051-0.632,0.082-0.947c0.045-0.497,0.094-0.992,0.139-1.489c0.028-0.32,0.051-0.645,0.079-0.965
		c0.045-0.515,0.096-1.027,0.141-1.543c0.03-0.322,0.053-0.644,0.081-0.967c0.045-0.488,0.096-0.979,0.139-1.469
		c0.033-0.33,0.051-0.658,0.082-0.986c0.047-0.514,0.094-1.028,0.143-1.542c0.026-0.31,0.051-0.619,0.077-0.929
		c0.047-0.498,0.096-0.992,0.141-1.49c0.03-0.321,0.051-0.643,0.079-0.965c0.047-0.514,0.096-1.029,0.143-1.543
		c0.029-0.309,0.051-0.619,0.08-0.929c0.047-0.502,0.096-1.005,0.141-1.508c0.028-0.327,0.051-0.655,0.079-0.983
		c0.045-0.516,0.096-1.029,0.143-1.544c0.026-0.309,0.051-0.62,0.077-0.929c0.047-0.502,0.094-1.004,0.143-1.507
		c0.033-0.345,0.063-0.69,0.106-1.034c0.026-0.225,0.01-0.258-0.216-0.258c-6.95,0-13.899,0.002-20.85-0.006
		c-0.199,0-0.226,0.066-0.226,0.24c0.004,1.998,0.004,3.998,0.004,5.996c0,0.31,0.034,0.275-0.273,0.277c-5.287,0-10.576,0-15.867,0
		c-0.073,0-0.159-0.037-0.222,0.043c0.055,0.584,0.107,1.172,0.16,1.756c0.092,1.037,0.186,2.071,0.277,3.109
		c0.092,1.024,0.182,2.049,0.273,3.072c0.092,1.043,0.188,2.086,0.279,3.127c0.079,0.886,0.156,1.77,0.236,2.654
		c0.092,1.036,0.188,2.072,0.278,3.109c0.08,0.889,0.163,1.779,0.234,2.67c0.013,0.167,0.062,0.214,0.236,0.214
		c4.709-0.007,9.421-0.005,14.132-0.005c0.075,0,0.146,0.005,0.22,0.009c0.052,0.075,0.035,0.164,0.035,0.249
		C26.043,48.688,26.043,52.07,26.043,55.451z"/>
	<path fill-rule="evenodd" clip-rule="evenodd" fill="#F1662A" d="M9.681,25.342c0.063-0.08,0.148-0.043,0.222-0.043
		c5.291,0,10.58,0,15.867,0c0.308-0.002,0.273,0.032,0.273-0.277c0-1.998,0-3.998-0.004-5.996c0-0.174,0.026-0.24,0.226-0.24
		c6.95,0.008,13.899,0.006,20.85,0.006c0.226,0,0.242,0.033,0.216,0.258c-0.043,0.344-0.073,0.689-0.106,1.034
		c-0.049,0.503-0.096,1.005-0.143,1.507c-0.026,0.309-0.051,0.62-0.077,0.929c-0.047,0.515-0.098,1.028-0.143,1.544
		c-0.028,0.328-0.051,0.656-0.079,0.983c-0.045,0.503-0.094,1.006-0.141,1.508c-0.029,0.31-0.051,0.62-0.08,0.929
		c-0.047,0.514-0.096,1.029-0.143,1.543c-0.028,0.322-0.049,0.644-0.079,0.965c-0.045,0.498-0.094,0.992-0.141,1.49
		c-0.026,0.31-0.051,0.619-0.077,0.929c-0.049,0.514-0.096,1.028-0.143,1.542c-0.031,0.328-0.049,0.656-0.082,0.986
		c-0.043,0.489-0.094,0.98-0.139,1.469c-0.028,0.323-0.051,0.645-0.081,0.967c-0.045,0.516-0.096,1.028-0.141,1.543
		c-0.028,0.32-0.051,0.645-0.079,0.965c-0.045,0.497-0.094,0.992-0.139,1.489c-0.031,0.315-0.056,0.632-0.082,0.947
		c-0.047,0.507-0.094,1.017-0.143,1.526c-0.028,0.303-0.055,0.605-0.077,0.908c-0.037,0.525-0.086,1.043-0.143,1.563
		c-0.035,0.341-0.049,0.684-0.079,1.021c-0.043,0.478-0.097,0.955-0.141,1.434c-0.031,0.332-0.05,0.668-0.08,1.001
		c-0.045,0.497-0.096,0.993-0.141,1.491c-0.028,0.313-0.053,0.629-0.079,0.945c-0.047,0.51-0.096,1.019-0.143,1.525
		c-0.026,0.322-0.052,0.643-0.077,0.965c-0.045,0.496-0.094,0.994-0.141,1.49c-0.029,0.315-0.054,0.631-0.08,0.945
		c-0.047,0.51-0.098,1.019-0.143,1.525c-0.028,0.334-0.051,0.668-0.082,1.003c-0.042,0.485-0.091,0.969-0.136,1.452
		c-0.032,0.336-0.054,0.668-0.082,1.002c-0.046,0.502-0.098,1.004-0.14,1.508c-0.015,0.164-0.021,0.328-0.041,0.492
		c-0.011,0.098-0.045,0.139-0.133,0.162c-1.564,0.432-3.127,0.862-4.69,1.297c-1.87,0.518-3.734,1.043-5.603,1.559
		c-1.763,0.489-3.527,0.973-5.291,1.457c-0.45,0.125-0.904,0.248-1.355,0.385c-0.152,0.047-0.181,0.02-0.181-0.137
		c0.004-2.105,0.004-4.215,0.004-6.324c0-0.084,0.017-0.172-0.037-0.248l-0.004-0.016c0.03-0.004,0.063-0.002,0.09-0.008
		c4.282-1.187,8.563-2.375,12.844-3.561c0.456-0.126,0.456-0.126,0.497-0.601c0.002-0.017,0.002-0.034,0.004-0.054
		c0.106-1.164,0.215-2.328,0.318-3.494c0.092-1.03,0.18-2.062,0.271-3.092c0.116-1.301,0.236-2.598,0.354-3.898
		c0.114-1.305,0.227-2.609,0.343-3.914c0.145-1.625,0.291-3.245,0.436-4.867c0.021-0.234,0.019-0.234-0.226-0.234
		c-4.914,0-9.829,0-14.745,0.002c-0.06,0-0.12,0.004-0.182,0.006c-0.073-0.002-0.148-0.004-0.22-0.004c-2.706,0-5.411,0-8.117,0
		c-0.073,0-0.145-0.012-0.218-0.016c0.085-0.006,0.171-0.016,0.257-0.016c2.697,0,5.398-0.002,8.099,0.004
		c0.177,0,0.242-0.029,0.24-0.227c-0.008-2.068-0.004-4.139-0.004-6.209c0-0.072,0.008-0.148-0.035-0.213l-0.006-0.016
		c0.075,0.003,0.149,0.008,0.222,0.008c5.11,0,10.221,0,15.332,0c0.028,0,0.06-0.005,0.09,0c0.1,0.014,0.135-0.021,0.143-0.127
		c0.053-0.623,0.114-1.244,0.169-1.866c0.131-1.438,0.251-2.878,0.388-4.316c0.018-0.192-0.029-0.216-0.202-0.216
		c-5.323,0.004-10.647,0.004-15.974,0.004c-0.053,0-0.107,0.005-0.163,0.01c-0.049-0.002-0.098-0.007-0.148-0.007
		c-5.33-0.002-10.662-0.002-15.991,0C9.803,25.329,9.743,25.338,9.681,25.342z"/>
	<path fill-rule="evenodd" clip-rule="evenodd" fill="#EBEBEB" d="M9.681,25.342c0.063-0.004,0.122-0.013,0.186-0.013
		c5.329-0.002,10.661-0.002,15.991,0c0.051,0,0.1,0.005,0.148,0.007c0,2.17-0.002,4.335-0.004,6.504l0.006,0.016
		c-0.042-0.002-0.085-0.008-0.128-0.008c-2.969,0-5.936,0-8.903,0c-0.043,0-0.084,0.006-0.129,0.008
		c-0.067,0.059-0.019,0.12-0.002,0.18c0.002,0.102,0.002,0.195,0.011,0.295c0.169,1.912,0.338,3.824,0.516,5.735
		c0.012,0.149-0.029,0.313,0.079,0.45c0.073,0.004,0.145,0.016,0.218,0.016c2.706,0,5.411,0,8.117,0c0.071,0,0.146,0.002,0.22,0.004
		c0,2.168-0.002,4.34-0.004,6.506l0.006,0.017c-0.073-0.004-0.145-0.009-0.22-0.009c-4.711,0-9.423-0.002-14.132,0.005
		c-0.175,0-0.224-0.047-0.236-0.214c-0.071-0.891-0.154-1.781-0.234-2.67c-0.091-1.037-0.187-2.073-0.278-3.109
		c-0.08-0.885-0.157-1.769-0.236-2.654c-0.092-1.041-0.188-2.084-0.279-3.127c-0.092-1.023-0.182-2.048-0.273-3.072
		c-0.092-1.038-0.186-2.072-0.277-3.109C9.788,26.514,9.735,25.926,9.681,25.342z"/>
	<path fill-rule="evenodd" clip-rule="evenodd" fill="#EBEBEB" d="M26.006,62.266c-4.38-1.219-8.761-2.437-13.146-3.646
		c-0.173-0.049-0.224-0.123-0.24-0.295c-0.124-1.494-0.265-2.988-0.396-4.483c-0.116-1.305-0.229-2.61-0.344-3.915
		c-0.043-0.477-0.086-0.952-0.135-1.427c-0.015-0.135,0.002-0.188,0.161-0.188c2.072,0.004,4.145,0.004,6.214,0
		c0.143,0,0.171,0.051,0.184,0.173c0.062,0.75,0.132,1.501,0.197,2.25c0.077,0.878,0.155,1.758,0.232,2.637
		c0.009,0.102,0.045,0.152,0.157,0.181c2.324,0.624,4.649,1.25,6.974,1.88c0.06,0.016,0.114,0.043,0.178,0.02l-0.004,0.014
		c-0.052,0.078-0.033,0.159-0.033,0.238c-0.002,2.182-0.002,4.364-0.004,6.547L26.006,62.266z"/>
	<path fill-rule="evenodd" clip-rule="evenodd" fill="#F1662A" d="M26.043,55.451c0-3.381,0-6.764,0-10.145
		c0-0.085,0.017-0.174-0.035-0.249l-0.006-0.017c0.075,0.002,0.149,0.008,0.222,0.008c2.533,0,5.063,0,7.594,0
		c0.037,0,0.076,0.003,0.11-0.002c0.094-0.008,0.128,0.018,0.112,0.122c-0.027,0.2-0.037,0.405-0.056,0.606
		c-0.077,0.879-0.154,1.756-0.233,2.634c-0.092,1.04-0.186,2.072-0.279,3.11c-0.056,0.616-0.112,1.232-0.166,1.849
		c-0.01,0.104-0.042,0.157-0.156,0.182c-0.27,0.062-0.531,0.141-0.797,0.214c-2.104,0.568-4.209,1.137-6.316,1.705L26.043,55.451z"
		/>
	<path fill-rule="evenodd" clip-rule="evenodd" fill="#FFFFFE" d="M26.036,55.469c2.107-0.568,4.212-1.137,6.316-1.705
		c0.266-0.073,0.527-0.152,0.797-0.214c0.114-0.024,0.146-0.077,0.156-0.182c0.054-0.616,0.11-1.232,0.166-1.849
		c0.094-1.038,0.188-2.07,0.279-3.11c0.079-0.878,0.156-1.755,0.233-2.634c0.019-0.201,0.028-0.406,0.056-0.606
		c0.016-0.104-0.019-0.13-0.112-0.122c-0.034,0.005-0.073,0.002-0.11,0.002c-2.53,0-5.061,0-7.594,0
		c-0.072,0-0.146-0.006-0.222-0.008c0.002-2.166,0.004-4.338,0.004-6.506c0.062-0.002,0.122-0.006,0.182-0.006
		c4.916-0.002,9.831-0.002,14.745-0.002c0.244,0,0.246,0,0.226,0.234c-0.145,1.622-0.291,3.242-0.436,4.867
		c-0.116,1.305-0.229,2.609-0.343,3.914c-0.118,1.301-0.238,2.598-0.354,3.898c-0.091,1.03-0.179,2.062-0.271,3.092
		c-0.104,1.166-0.212,2.33-0.318,3.494c-0.002,0.02-0.002,0.037-0.004,0.054c-0.041,0.475-0.041,0.475-0.497,0.601
		c-4.28,1.186-8.562,2.374-12.844,3.561c-0.026,0.006-0.06,0.004-0.09,0.008c0.002-2.183,0.002-4.365,0.004-6.547
		C26.006,55.624,25.987,55.543,26.036,55.469z"/>
	<path fill-rule="evenodd" clip-rule="evenodd" fill="#FFFFFF" d="M26.002,31.84c0.002-2.169,0.004-4.334,0.004-6.504
		c0.056-0.005,0.11-0.01,0.163-0.01c5.326,0,10.65,0,15.974-0.004c0.173,0,0.22,0.023,0.202,0.216
		c-0.137,1.438-0.257,2.878-0.388,4.316c-0.055,0.622-0.116,1.243-0.169,1.866c-0.008,0.105-0.043,0.141-0.143,0.127
		c-0.03-0.005-0.062,0-0.09,0c-5.111,0-10.222,0-15.332,0C26.151,31.848,26.077,31.843,26.002,31.84z"/>
	<path fill-rule="evenodd" clip-rule="evenodd" fill="#E44F26" d="M16.848,31.855c0.045-0.002,0.086-0.008,0.129-0.008
		c2.968,0,5.935,0,8.903,0c0.043,0,0.086,0.006,0.128,0.008c0.043,0.064,0.035,0.141,0.035,0.213c0,2.07-0.004,4.141,0.004,6.209
		c0.002,0.197-0.063,0.227-0.24,0.227c-2.7-0.006-5.401-0.004-8.099-0.004c-0.086,0-0.172,0.01-0.257,0.016
		c-0.108-0.137-0.067-0.301-0.079-0.45c-0.178-1.911-0.347-3.823-0.516-5.735c-0.009-0.1-0.009-0.193-0.011-0.295
		C16.848,31.978,16.848,31.916,16.848,31.855z"/>
	<path fill-rule="evenodd" clip-rule="evenodd" fill="#F1662A" d="M16.848,31.855c0,0.061,0,0.122-0.002,0.18
		C16.829,31.976,16.78,31.914,16.848,31.855z"/>
</g>
</svg>
