<?xml version="1.0" encoding="utf-8"?>
<!-- Generator: Adobe Illustrator 16.0.0, SVG Export Plug-In . SVG Version: 6.00 Build 0)  -->
<!DOCTYPE svg PUBLIC "-//W3C//DTD SVG 1.1//EN" "http://www.w3.org/Graphics/SVG/1.1/DTD/svg11.dtd">
<svg version="1.1" id="Layer_1" xmlns="http://www.w3.org/2000/svg" xmlns:xlink="http://www.w3.org/1999/xlink" x="0px" y="0px"
	 width="64.101px" height="81.641px" viewBox="0 0 64.101 81.641" enable-background="new 0 0 64.101 81.641" xml:space="preserve">
<g>
	<g>
		<path fill-rule="evenodd" clip-rule="evenodd" fill="#171F2B" d="M16.725,13.745c-1.429,0-2.858,0.079-4.278-0.021
			c-1.984-0.137-3.293-1.286-3.556-3.231c-0.464-3.404,0.354-6.507,2.987-8.811c2.135-1.863,4.71-2.143,7.339-1.018
			c1.984,0.848,3.07,3.238,2.585,5.484c-0.33,1.52-0.835,2.99-1.392,4.441c-0.161,0.422-0.057,0.51,0.362,0.517
			c0.98,0.017,0.982,0.036,0.736,0.971c-0.146,0.562-0.129,1.337-0.491,1.622c-0.369,0.289-1.118,0.094-1.699,0.105
			c-0.432,0.008-0.866,0.006-1.298,0.006c-0.432,0.002-0.864,0-1.296,0C16.725,13.79,16.725,13.768,16.725,13.745z M15.362,11.063
			c0.54,0,0.995-0.016,1.449,0.006c0.306,0.013,0.462-0.074,0.546-0.395c0.405-1.586,0.861-3.16,1.249-4.752
			c0.274-1.123-0.167-2.154-1.037-2.637c-1.632-0.902-3.782-0.16-4.495,1.561c-0.525,1.264-0.827,2.582-0.963,3.943
			c-0.117,1.143,0.36,1.859,1.469,2.162C14.197,11.118,14.824,11.037,15.362,11.063z"/>
		<path fill-rule="evenodd" clip-rule="evenodd" fill="#1A202C" d="M40.107,9.485c-0.907,0-1.817-0.016-2.725,0.006
			c-0.315,0.01-0.77-0.207-0.813,0.424c-0.039,0.576,0.128,1.01,0.717,1.126c0.525,0.104,1.07,0.137,1.607,0.151
			c1.211,0.034,2.423,0.06,3.633,0.043c0.444-0.008,0.51,0.134,0.41,0.518c-0.146,0.563-0.268,1.135-0.375,1.707
			c-0.043,0.218-0.11,0.352-0.367,0.348c-2.114-0.026-4.235,0.2-6.344-0.092c-1.519-0.213-2.482-1.283-2.389-2.793
			c0.112-1.84,0.475-3.645,1.284-5.315c0.792-1.638,2.288-2.329,3.969-2.7c1.051-0.232,2.104-0.199,3.136,0.121
			c1.51,0.465,2.339,1.656,2.243,3.234c-0.058,0.973-0.273,1.92-0.452,2.877c-0.063,0.341-0.229,0.35-0.485,0.348
			C42.142,9.481,41.124,9.485,40.107,9.485z M37.146,7.093c1.121,0,2.176,0.002,3.233,0c0.63-0.001,0.797-0.232,0.577-0.825
			c-0.127-0.334-0.377-0.563-0.726-0.684C38.864,5.112,37.71,5.652,37.146,7.093z"/>
		<path fill-rule="evenodd" clip-rule="evenodd" fill="#181E2B" d="M28.202,13.768c-0.976,0-1.956,0.072-2.919-0.018
			c-1.697-0.159-2.651-1.395-2.447-3.093c0.281-2.359,0.795-4.683,1.266-7.009c0.081-0.398,0.224-0.594,0.674-0.553
			c0.538,0.047,1.086,0.054,1.622-0.002c0.564-0.057,0.623,0.189,0.57,0.658c-0.153,1.38-0.568,2.702-0.835,4.059
			c-0.172,0.875-0.229,1.754-0.2,2.645c0.013,0.475,0.188,0.68,0.705,0.639c0.646-0.052,1.3-0.037,1.95-0.002
			c0.393,0.02,0.505-0.146,0.58-0.5c0.506-2.343,1.045-4.678,1.534-7.021c0.084-0.395,0.236-0.487,0.597-0.473
			c0.65,0.025,1.301,0.018,1.95,0.002c0.283-0.004,0.367,0.058,0.298,0.369c-0.711,3.315-1.414,6.633-2.099,9.952
			c-0.069,0.339-0.22,0.394-0.52,0.39c-0.909-0.016-1.817-0.006-2.727-0.006C28.202,13.793,28.202,13.779,28.202,13.768z"/>
		<path fill-rule="evenodd" clip-rule="evenodd" fill="#1A212C" d="M52.955,13.76c0.801-1.523,0.626-2.98,0.204-4.444
			c-0.23-0.788-0.452-1.575-0.685-2.361c-0.12-0.396-0.069-0.592,0.428-0.562c0.711,0.045,1.43,0.037,2.142,0.002
			c0.372-0.018,0.552,0.104,0.636,0.457c0.087,0.377,0.211,0.741,0.319,1.117c0.269,0.016,0.304-0.221,0.403-0.363
			c1.305-1.881,2.61-3.763,3.894-5.658c0.229-0.342,0.459-0.502,0.882-0.484c0.946,0.036,1.889,0.011,2.924,0.011
			c-0.739,1.378-1.636,2.533-2.536,3.684c-1.663,2.124-3.453,4.159-4.623,6.626c-0.184,0.392-0.409,0.779-0.499,1.192
			c-0.148,0.694-0.538,0.852-1.189,0.799C54.524,13.715,53.791,13.76,52.955,13.76z"/>
		<path fill-rule="evenodd" clip-rule="evenodd" fill="#1B212D" d="M50.047,3.035c1.208,0.044,2.421-0.077,3.627,0.072
			c0.979,0.122,1.907,1.522,1.638,2.448c-0.082,0.283-0.32,0.168-0.486,0.17c-1.818,0.007-3.635,0.018-5.451-0.006
			c-0.424-0.006-0.593,0.105-0.68,0.531c-0.469,2.304-0.984,4.599-1.447,6.904c-0.1,0.494-0.272,0.689-0.79,0.648
			c-0.604-0.049-1.214-0.035-1.817-0.004c-0.381,0.019-0.428-0.105-0.354-0.448c0.617-2.845,1.216-5.694,1.823-8.542
			c0.008-0.041,0.031-0.082,0.039-0.123c0.118-0.541,0.036-1.277,0.439-1.563c0.365-0.258,1.039-0.082,1.577-0.086
			C48.794,3.03,49.421,3.035,50.047,3.035z"/>
		<path fill-rule="evenodd" clip-rule="evenodd" fill="#19202B" d="M7.756,6.385c-0.733,3.172-1.283,6.318-2.223,9.373
			c-0.546,1.771-1.5,2.441-3.342,2.463c-0.564,0.004-1.126-0.033-1.688-0.033c-0.416,0.001-0.605-0.096-0.448-0.576
			c0.179-0.53,0.297-1.082,0.394-1.635c0.064-0.373,0.248-0.537,0.603-0.503c1,0.103,1.431-0.487,1.754-1.322
			c0.528-1.362,0.767-2.781,1.022-4.204C4.02,8.885,4.234,7.831,4.586,6.805c0.11-0.324,0.261-0.436,0.597-0.428
			C6.025,6.401,6.864,6.385,7.756,6.385z"/>
		<path fill-rule="evenodd" clip-rule="evenodd" fill="#252A35" d="M6.369,5.541c-1.568,0-1.568,0-1.208-1.501
			c0.043-0.189,0.104-0.377,0.13-0.566C5.333,3.159,5.48,3.042,5.808,3.055c0.714,0.025,1.427,0.023,2.14,0.001
			C8.321,3.043,8.48,3.143,8.357,3.531C8.312,3.674,8.285,3.825,8.255,3.973C7.946,5.541,7.946,5.541,6.369,5.541z"/>
	</g>
	<path fill-rule="evenodd" clip-rule="evenodd" fill="#E5BF2D" d="M23.245,28.016c0.062-0.113,0.169-0.075,0.261-0.075
		c1.804-0.002,3.608-0.002,5.41,0C29.007,27.941,25.219,28.018,23.245,28.016z"/>
	<path fill-rule="evenodd" clip-rule="evenodd" fill="#FED81E" d="M33.328,28.059c0.003,0.783,0.005,1.566,0.005,2.348
		c0,6.789,0,13.579,0,20.367c0,0.147-0.002,0.293-0.005,0.439c-0.057,0.029-0.096,0.008-0.1-0.054
		c-0.006-0.077-0.002-0.155-0.002-0.235c0-7.514,0-15.025,0.002-22.539C33.228,28.276,33.147,28.121,33.328,28.059z"/>
	<g>
		<path fill-rule="evenodd" clip-rule="evenodd" fill="#E5C02E" d="M23.198,31.711c0,0.127,0.005,0.254,0.005,0.382
			c0.002,9.829,0.002,19.656-0.007,29.485c0,0.084,0.108,0.232-0.079,0.271c0.002-0.146,0.008-0.293,0.008-0.439
			c0-9.771,0-19.543,0.004-29.314C23.128,31.967,23.062,31.819,23.198,31.711z"/>
		<path fill-rule="evenodd" clip-rule="evenodd" fill="#0D6AAD" d="M57.881,20.379c-8.877-0.004-17.75-0.002-26.627-0.002
			c-8.873,0-17.751,0-26.626,0c-0.077,0-0.156,0.009-0.236-0.002c-0.193-0.025-0.216,0.054-0.199,0.232
			c0.169,1.859,0.326,3.721,0.487,5.58c0.134,1.541,0.267,3.078,0.399,4.615c0.124,1.414,0.248,2.826,0.368,4.238
			c0.108,1.305,0.212,2.611,0.326,3.915c0.184,2.124,0.375,4.245,0.561,6.37c0.11,1.264,0.21,2.531,0.319,3.797
			c0.163,1.89,0.336,3.778,0.502,5.667c0.13,1.499,0.248,3.001,0.379,4.499c0.162,1.893,0.338,3.779,0.499,5.668
			c0.13,1.502,0.244,3.001,0.377,4.502c0.163,1.907,0.342,3.816,0.501,5.726c0.017,0.177,0.069,0.251,0.24,0.298
			c3.391,0.943,6.774,1.895,10.165,2.842c3.901,1.094,7.808,2.186,11.711,3.282c0.146,0.041,0.279,0.047,0.428,0.007
			c2.989-0.844,5.982-1.682,8.974-2.518c4.29-1.203,8.581-2.405,12.874-3.6c0.214-0.061,0.287-0.154,0.304-0.375
			c0.075-1.063,0.175-2.123,0.267-3.186c0.161-1.84,0.322-3.68,0.481-5.521c0.113-1.305,0.215-2.61,0.33-3.916
			c0.181-2.083,0.37-4.167,0.55-6.252c0.132-1.528,0.253-3.059,0.385-4.587c0.222-2.562,0.452-5.121,0.675-7.685
			c0.145-1.674,0.283-3.35,0.43-5.023c0.191-2.23,0.389-4.46,0.58-6.691c0.18-2.074,0.354-4.148,0.534-6.223
			c0.149-1.744,0.306-3.485,0.454-5.229C58.337,20.274,58.352,20.379,57.881,20.379z M52.951,25.577
			c-0.069,0.627-0.116,1.258-0.173,1.886c-0.073,0.774-0.155,1.546-0.227,2.318c-0.049,0.544-0.079,1.086-0.128,1.63
			c-0.069,0.764-0.151,1.527-0.223,2.291c-0.049,0.531-0.081,1.064-0.13,1.597c-0.069,0.803-0.151,1.605-0.223,2.408
			c-0.044,0.514-0.085,1.026-0.128,1.54c-0.073,0.842-0.153,1.684-0.227,2.524c-0.047,0.522-0.079,1.048-0.126,1.569
			c-0.073,0.764-0.153,1.527-0.224,2.292c-0.047,0.511-0.084,1.024-0.129,1.54c-0.075,0.84-0.152,1.682-0.227,2.524
			c-0.047,0.521-0.081,1.046-0.126,1.567c-0.069,0.786-0.122,1.57-0.22,2.351c-0.065,0.511-0.088,1.026-0.133,1.54
			c-0.073,0.824-0.154,1.645-0.227,2.466c-0.045,0.534-0.077,1.067-0.126,1.599c-0.071,0.793-0.15,1.587-0.224,2.379
			c-0.047,0.514-0.082,1.028-0.127,1.541c-0.075,0.801-0.152,1.605-0.228,2.406c-0.045,0.504-0.082,1.01-0.124,1.512
			c-0.076,0.852-0.157,1.703-0.229,2.553c-0.047,0.543-0.09,1.088-0.125,1.629c-0.012,0.254-0.081,0.501-0.066,0.757
			c0.008,0.159-0.141,0.192-0.266,0.226c-1.57,0.42-3.14,0.838-4.708,1.263c-1.936,0.523-3.869,1.054-5.805,1.579
			c-2.196,0.6-4.395,1.189-6.589,1.797c-0.313,0.086-0.236-0.105-0.236-0.256c-0.002-3.807-0.002-7.613-0.002-11.418
			c0-4.725,0-9.45,0-14.178c0-8.491,0-16.983,0-25.477c0-0.398,0-0.398,0.391-0.398c6.986,0,13.971,0,20.957,0
			C52.971,25.133,52.994,25.178,52.951,25.577z"/>
		<path fill-rule="evenodd" clip-rule="evenodd" fill="#4095D1" d="M52.578,25.133c-6.986,0-13.971,0-20.957,0
			c-0.391,0-0.391,0-0.391,0.398c0,8.493,0,16.985,0,25.477c0,4.728,0,9.453,0,14.178c0,3.805,0,7.611,0.002,11.418
			c0,0.15-0.076,0.342,0.236,0.256c2.194-0.607,4.393-1.197,6.589-1.797c1.936-0.525,3.869-1.056,5.805-1.579
			c1.568-0.425,3.138-0.843,4.708-1.263c0.125-0.033,0.273-0.066,0.266-0.226c-0.015-0.256,0.055-0.503,0.066-0.757
			c0.035-0.541,0.078-1.086,0.125-1.629c0.071-0.85,0.152-1.701,0.229-2.553c0.042-0.502,0.079-1.008,0.124-1.512
			c0.075-0.801,0.152-1.605,0.228-2.406c0.045-0.513,0.08-1.027,0.127-1.541c0.073-0.792,0.152-1.586,0.224-2.379
			c0.049-0.531,0.081-1.064,0.126-1.599c0.072-0.821,0.153-1.642,0.227-2.466c0.045-0.514,0.067-1.029,0.133-1.54
			c0.098-0.78,0.15-1.564,0.22-2.351c0.045-0.521,0.079-1.046,0.126-1.567c0.074-0.843,0.151-1.685,0.227-2.524
			c0.045-0.516,0.082-1.029,0.129-1.54c0.07-0.765,0.15-1.528,0.224-2.292c0.047-0.521,0.079-1.047,0.126-1.569
			c0.073-0.841,0.153-1.683,0.227-2.524c0.043-0.514,0.084-1.026,0.128-1.54c0.071-0.803,0.153-1.605,0.223-2.408
			c0.049-0.532,0.081-1.065,0.13-1.597c0.071-0.764,0.153-1.527,0.223-2.291c0.049-0.544,0.079-1.086,0.128-1.63
			c0.071-0.772,0.153-1.544,0.227-2.318c0.057-0.628,0.104-1.259,0.173-1.886C52.994,25.178,52.971,25.133,52.578,25.133z"/>
		<g>
			<path fill="#FFFEFD" d="M43.591,65.222c0.886-0.692,0.843-2.579,1.201-3.94c0.598-2.279,0.596-2.32-1.799-2.363
				c-1.013-0.018-1.266-0.23-0.872-1.26c1.351-3.524,2.581-7.094,3.382-10.794c1.18-5.458-1.467-11.272-6.289-13.335
				c-2.701-1.153-5.381-1.697-7.967-1.6c0,2.348,0,4.694,0,7.041c1.348-0.049,2.717,0.245,3.963,0.935
				c2.111,1.169,3.187,3.677,2.521,6.409c-0.943,3.869-2.05,7.697-3.042,11.552c-0.195,0.776-0.582,0.993-1.324,0.958
				c-0.685-0.031-1.379-0.029-2.117-0.021c0,2.182,0,4.363,0,6.544C31.883,65.338,42.699,65.922,43.591,65.222z"/>
			<path fill="#F2F2F2" d="M29.844,58.813c-1.308-0.066-2.832,0.132-4.334-0.275c-2.691-0.734-3.854-2.477-3.571-5.254
				c0.332-3.311,1.067-6.514,2.343-9.587c1.192-2.868,4.024-4.618,6.966-4.726c0-2.347,0-4.693,0-7.041
				c-3.522,0.135-6.874,1.465-9.869,4.081c-6.407,5.597-8.392,13.138-7.266,21.413c0.645,4.733,3.818,7.527,8.646,7.859
				c2.819,0.193,5.653,0.104,8.489,0.063c0-2.181,0-4.362,0-6.544C30.8,58.808,30.341,58.813,29.844,58.813z"/>
		</g>
	</g>
</g>
</svg>
