<?xml version="1.0" encoding="utf-8"?>
<!-- Generator: Adobe Illustrator 16.0.0, SVG Export Plug-In . SVG Version: 6.00 Build 0)  -->
<!DOCTYPE svg PUBLIC "-//W3C//DTD SVG 1.1//EN" "http://www.w3.org/Graphics/SVG/1.1/DTD/svg11.dtd">
<svg version="1.1" id="Layer_1" xmlns="http://www.w3.org/2000/svg" xmlns:xlink="http://www.w3.org/1999/xlink" x="0px" y="0px"
	 width="54.13px" height="76.174px" viewBox="0 0 54.13 76.174" enable-background="new 0 0 54.13 76.174" xml:space="preserve">
<g>
	<path fill-rule="evenodd" clip-rule="evenodd" fill="#E9C753" d="M27.068,14.909c8.876,0,17.752,0,26.628,0.002
		c0.469,0,0.458-0.105,0.413,0.428c-0.148,1.744-0.307,3.486-0.457,5.229c-0.182,2.076-0.355,4.15-0.532,6.227
		c-0.194,2.229-0.39,4.459-0.581,6.688c-0.146,1.676-0.284,3.352-0.431,5.028c-0.224,2.561-0.451,5.12-0.675,7.682
		c-0.131,1.529-0.252,3.061-0.385,4.588c-0.18,2.086-0.369,4.17-0.551,6.253c-0.112,1.304-0.217,2.61-0.33,3.914
		c-0.157,1.843-0.32,3.683-0.48,5.523c-0.092,1.062-0.189,2.124-0.268,3.185c-0.016,0.225-0.088,0.315-0.304,0.376
		c-4.292,1.194-8.583,2.397-12.872,3.598c-2.993,0.839-5.984,1.676-8.975,2.518c-0.149,0.04-0.281,0.036-0.431-0.007
		c-3.903-1.095-7.808-2.188-11.711-3.279c-3.388-0.949-6.774-1.9-10.163-2.843c-0.173-0.048-0.225-0.12-0.241-0.3
		c-0.159-1.908-0.336-3.816-0.502-5.725c-0.13-1.5-0.247-3.001-0.375-4.501c-0.163-1.889-0.337-3.777-0.501-5.668
		c-0.129-1.499-0.248-3.001-0.379-4.501c-0.166-1.889-0.336-3.777-0.502-5.666c-0.108-1.268-0.209-2.532-0.319-3.797
		c-0.185-2.125-0.376-4.246-0.561-6.369c-0.112-1.306-0.215-2.611-0.325-3.918c-0.119-1.412-0.245-2.824-0.368-4.236
		c-0.134-1.538-0.267-3.078-0.4-4.617C0.332,18.86,0.173,17,0.005,15.139c-0.017-0.178,0.007-0.259,0.2-0.232
		c0.078,0.012,0.156,0.002,0.237,0.002C9.314,14.909,18.192,14.909,27.068,14.909z M19.057,26.198
		c-0.014,0.017-0.032,0.031-0.047,0.045c-0.133,0.107-0.068,0.256-0.068,0.383c-0.002,9.771-0.002,19.546-0.002,29.317
		c0,0.146-0.007,0.294-0.011,0.44c-0.065-0.013-0.136-0.02-0.2-0.037c-3.262-0.891-6.522-1.779-9.784-2.674
		c-0.329-0.089-0.329-0.089-0.329,0.247c0,1.851,0.006,3.698-0.01,5.548c-0.002,0.291,0.09,0.398,0.362,0.471
		c5.226,1.416,10.446,2.842,15.668,4.262c0.349,0.098,0.352,0.096,0.352-0.268c0-9.953,0-19.904-0.003-29.854
		c0-2.623,0-5.247-0.002-7.869c-0.053-0.121-0.162-0.084-0.253-0.084c-1.804-0.002-3.606-0.002-5.409,0
		C19.229,26.125,19.121,26.086,19.057,26.198z M27.043,45.542c0,4.727,0,9.451,0,14.178c0,3.805,0,7.613,0,11.418
		c0,0.153-0.072,0.343,0.238,0.256c2.194-0.605,4.392-1.199,6.59-1.795c1.936-0.528,3.868-1.059,5.804-1.58
		c1.569-0.426,3.139-0.843,4.71-1.263c0.123-0.036,0.273-0.067,0.266-0.228c-0.014-0.256,0.053-0.502,0.068-0.754
		c0.031-0.545,0.074-1.088,0.121-1.629c0.072-0.852,0.152-1.701,0.229-2.555c0.043-0.504,0.08-1.006,0.126-1.512
		c0.073-0.802,0.153-1.604,0.226-2.407c0.045-0.513,0.083-1.028,0.128-1.541c0.072-0.792,0.151-1.583,0.226-2.378
		c0.047-0.531,0.077-1.065,0.124-1.6c0.073-0.82,0.152-1.643,0.228-2.465c0.045-0.514,0.068-1.029,0.131-1.541
		c0.098-0.781,0.15-1.565,0.221-2.347c0.045-0.524,0.08-1.05,0.127-1.573c0.072-0.84,0.15-1.682,0.225-2.521
		c0.045-0.515,0.082-1.029,0.129-1.541c0.07-0.764,0.153-1.527,0.224-2.291c0.049-0.524,0.081-1.048,0.126-1.57
		c0.074-0.841,0.153-1.684,0.228-2.523c0.045-0.514,0.083-1.027,0.128-1.541c0.072-0.805,0.152-1.604,0.225-2.408
		c0.047-0.531,0.08-1.064,0.131-1.597c0.068-0.765,0.15-1.528,0.219-2.292c0.051-0.543,0.08-1.088,0.131-1.629
		c0.068-0.773,0.151-1.546,0.224-2.32c0.06-0.627,0.104-1.257,0.173-1.885c0.046-0.398,0.021-0.443-0.373-0.443
		c-6.984,0-13.971,0-20.957,0c-0.391,0-0.391,0-0.391,0.398C27.043,28.555,27.043,37.049,27.043,45.542z"/>
	<path fill-rule="evenodd" clip-rule="evenodd" fill="#0B0B0B" d="M31.534,0.009c1.486,0,2.975,0.006,4.464-0.007
		C36.228,0,36.317,0.043,36.311,0.303c-0.02,0.713-0.015,1.427,0,2.141c0.002,0.211-0.06,0.26-0.262,0.259
		c-2.104-0.009-4.208,0-6.312-0.011c-0.219,0-0.321,0.037-0.292,0.283c0.026,0.203,0.021,0.412,0.003,0.615
		c-0.021,0.223,0.04,0.292,0.278,0.289c1.32-0.012,2.641-0.006,3.963-0.006c0.792,0,1.586,0.008,2.379-0.004
		c0.195-0.004,0.242,0.059,0.242,0.248c-0.009,1.928-0.009,3.855-0.002,5.783c0.002,0.188-0.038,0.252-0.24,0.252
		c-3.032-0.006-6.064-0.006-9.098,0c-0.193,0-0.225-0.064-0.223-0.238c0.01-0.732,0.015-1.467-0.002-2.201
		c-0.005-0.232,0.074-0.266,0.28-0.266c2.103,0.008,4.208,0.002,6.312,0.012c0.23,0,0.307-0.057,0.283-0.289
		c-0.023-0.201-0.021-0.411-0.002-0.613c0.021-0.224-0.041-0.294-0.277-0.291c-1.264,0.014-2.525,0.006-3.789,0.006
		c-0.84,0-1.681-0.006-2.523,0.004c-0.205,0.004-0.286-0.025-0.283-0.264c0.012-1.918,0.01-3.836,0.002-5.754
		c-0.002-0.217,0.067-0.256,0.266-0.254C28.52,0.013,30.027,0.009,31.534,0.009z"/>
	<path fill-rule="evenodd" clip-rule="evenodd" fill="#0A0A0A" d="M25.283,5.098c0,1.595-0.005,3.189,0.006,4.784
		c0,0.224-0.058,0.272-0.276,0.271c-2.2-0.008-4.401-0.008-6.604,0c-0.224,0-0.298-0.045-0.292-0.287
		c0.02-0.715,0.016-1.428,0.002-2.143c-0.006-0.219,0.051-0.277,0.273-0.275c1.31,0.012,2.621,0,3.932,0.012
		c0.223,0.002,0.27-0.059,0.268-0.273c-0.008-2.29,0-4.578-0.012-6.867c-0.002-0.277,0.08-0.322,0.326-0.316
		C23.601,0.02,24.297,0.022,24.991,0c0.255-0.006,0.298,0.079,0.296,0.314C25.278,1.909,25.283,3.503,25.283,5.098z"/>
	<path fill-rule="evenodd" clip-rule="evenodd" fill="#FFDC41" d="M27.043,45.542c0-8.492,0-16.986,0-25.479
		c0-0.398,0-0.398,0.391-0.398c6.986,0,13.973,0,20.957,0c0.394,0,0.419,0.045,0.373,0.443c-0.068,0.628-0.113,1.258-0.173,1.885
		c-0.072,0.774-0.155,1.547-0.224,2.32c-0.051,0.541-0.08,1.086-0.131,1.629c-0.068,0.764-0.15,1.527-0.219,2.292
		c-0.051,0.532-0.084,1.065-0.131,1.597c-0.072,0.805-0.152,1.604-0.225,2.408c-0.045,0.514-0.083,1.027-0.128,1.541
		c-0.074,0.84-0.153,1.683-0.228,2.523c-0.045,0.522-0.077,1.046-0.126,1.57c-0.07,0.764-0.153,1.527-0.224,2.291
		c-0.047,0.512-0.084,1.026-0.129,1.541c-0.074,0.84-0.152,1.682-0.225,2.521c-0.047,0.523-0.082,1.049-0.127,1.573
		c-0.07,0.781-0.123,1.565-0.221,2.347c-0.063,0.512-0.086,1.027-0.131,1.541c-0.075,0.822-0.154,1.645-0.228,2.465
		c-0.047,0.534-0.077,1.068-0.124,1.6c-0.074,0.795-0.153,1.586-0.226,2.378c-0.045,0.513-0.083,1.028-0.128,1.541
		c-0.072,0.804-0.152,1.605-0.226,2.407c-0.046,0.506-0.083,1.008-0.126,1.512c-0.076,0.854-0.156,1.703-0.229,2.555
		c-0.047,0.541-0.09,1.084-0.121,1.629c-0.016,0.252-0.082,0.498-0.068,0.754c0.008,0.16-0.143,0.191-0.266,0.228
		c-1.571,0.42-3.141,0.837-4.71,1.263c-1.936,0.521-3.868,1.052-5.804,1.58c-2.198,0.596-4.396,1.189-6.59,1.795
		c-0.311,0.087-0.238-0.103-0.238-0.256c0-3.805,0-7.613,0-11.418C27.043,54.993,27.043,50.268,27.043,45.542z M46.123,26.217
		c-0.057-0.139-0.18-0.092-0.279-0.092c-5.466-0.002-10.932-0.002-16.398,0c-0.1,0-0.223-0.049-0.287,0.08
		c0.006,0.018,0,0.031-0.017,0.037c-0.183,0.063-0.101,0.217-0.101,0.326c-0.004,7.514-0.004,15.026-0.002,22.541
		c0,0.076-0.004,0.156,0.004,0.236c0.004,0.06,0.039,0.083,0.1,0.055c1.516-0.231,3.031-0.463,4.547-0.695
		c1.633-0.25,3.264-0.503,4.895-0.764c0.191-0.031,0.237,0.001,0.213,0.196c-0.061,0.493-0.098,0.991-0.152,1.486
		c-0.203,1.887-0.416,3.771-0.605,5.658c-0.027,0.247-0.104,0.345-0.34,0.407c-2.754,0.754-5.502,1.518-8.256,2.271
		c-0.227,0.062-0.301,0.154-0.299,0.396c0.012,1.88,0.014,3.758-0.002,5.636c-0.001,0.29,0.09,0.286,0.311,0.224
		c1.741-0.487,3.482-0.971,5.227-1.453c2.738-0.757,5.479-1.516,8.221-2.27c0.162-0.044,0.242-0.107,0.258-0.289
		c0.039-0.545,0.1-1.088,0.15-1.635c0.129-1.41,0.254-2.822,0.385-4.233c0.162-1.763,0.332-3.522,0.496-5.284
		c0.146-1.568,0.289-3.135,0.432-4.705c0.092-1.012,0.182-2.023,0.273-3.036c0.012-0.124,0.031-0.232-0.168-0.2
		c-0.676,0.115-1.352,0.213-2.028,0.313c-2.009,0.303-4.019,0.603-6.028,0.904c-0.059-0.074-0.141-0.063-0.215-0.053
		c-0.309,0.039-0.625,0.059-0.922,0.139c-0.281,0.077-0.334-0.012-0.334-0.271c0.004-3.178,0.006-6.355-0.002-9.533
		c0-0.261,0.068-0.328,0.328-0.326c1.543,0.011,3.088,0.006,4.633,0.006c1.711,0,3.422,0,5.134-0.004
		c0.104,0,0.271,0.082,0.299-0.128C45.77,30.179,45.946,28.198,46.123,26.217z"/>
	<path fill-rule="evenodd" clip-rule="evenodd" fill="#FFFEFD" d="M19.01,26.243c0.015-0.014,0.033-0.028,0.049-0.045
		c1.975,0.004,3.95,0.008,5.924,0.012c0.002,2.622,0.002,5.246,0.002,7.869c0.003,9.949,0.003,19.9,0.003,29.854
		c0,0.363-0.003,0.365-0.352,0.268c-5.222-1.42-10.442-2.846-15.668-4.262c-0.272-0.072-0.364-0.18-0.362-0.471
		c0.016-1.85,0.01-3.697,0.01-5.548c0-0.336,0-0.336,0.329-0.247c3.262,0.895,6.522,1.783,9.784,2.674
		c0.064,0.018,0.135,0.024,0.2,0.037c0.188-0.039,0.081-0.188,0.081-0.27c0.006-9.83,0.006-19.659,0.006-29.49
		C19.016,26.497,19.012,26.37,19.01,26.243z"/>
	<path fill-rule="evenodd" clip-rule="evenodd" fill="#E5C02E" d="M19.01,26.243c0.002,0.127,0.006,0.254,0.006,0.381
		c0,9.831,0,19.66-0.006,29.49c0,0.082,0.107,0.23-0.081,0.27c0.004-0.146,0.011-0.294,0.011-0.44c0-9.771,0-19.546,0.002-29.317
		C18.941,26.499,18.877,26.35,19.01,26.243z"/>
	<path fill-rule="evenodd" clip-rule="evenodd" fill="#E5BF2D" d="M24.982,26.209c-1.974-0.004-3.949-0.008-5.924-0.012
		c0.063-0.111,0.17-0.072,0.262-0.072c1.803-0.002,3.605-0.002,5.409,0C24.82,26.125,24.93,26.088,24.982,26.209z"/>
	<path fill-rule="evenodd" clip-rule="evenodd" fill="#FFFFFE" d="M36.67,42.329c2.01-0.302,4.02-0.602,6.028-0.904
		c0.677-0.1,1.353-0.197,2.028-0.313c0.199-0.032,0.18,0.076,0.168,0.2c-0.092,1.013-0.182,2.024-0.273,3.036
		c-0.143,1.57-0.285,3.137-0.432,4.705c-0.164,1.762-0.334,3.521-0.496,5.284c-0.131,1.411-0.256,2.823-0.385,4.233
		c-0.051,0.547-0.111,1.09-0.15,1.635c-0.016,0.182-0.096,0.245-0.258,0.289c-2.742,0.754-5.482,1.513-8.221,2.27
		c-1.744,0.482-3.485,0.966-5.227,1.453c-0.221,0.063-0.312,0.066-0.311-0.224c0.016-1.878,0.014-3.756,0.002-5.636
		c-0.002-0.242,0.072-0.335,0.299-0.396c2.754-0.754,5.502-1.518,8.256-2.271c0.236-0.063,0.313-0.16,0.34-0.407
		c0.189-1.888,0.402-3.771,0.605-5.658c0.055-0.495,0.092-0.993,0.152-1.486c0.024-0.195-0.021-0.228-0.213-0.196
		c-1.631,0.261-3.262,0.514-4.895,0.764c-1.516,0.232-3.031,0.464-4.547,0.695c0-0.146,0.004-0.294,0.004-0.442
		c0-6.788,0-13.577,0-20.367c0-0.782-0.004-1.565-0.005-2.349c0.017-0.006,0.022-0.02,0.017-0.037c0.047,0,0.098-0.004,0.146-0.004
		c5.52,0,11.037,0,16.556,0c0.088,0,0.177,0.011,0.263,0.016c-0.177,1.98-0.354,3.962-0.532,5.94c-3.394,0.002-6.786,0.009-10.179,0
		c-0.25,0-0.326,0.054-0.326,0.319c0.009,3.266,0.008,6.531,0.008,9.795c0,0.038,0.001,0.08-0.002,0.117
		c-0.014,0.151,0.052,0.186,0.191,0.162C35.744,42.473,36.208,42.401,36.67,42.329z"/>
	<path fill-rule="evenodd" clip-rule="evenodd" fill="#FED81E" d="M29.142,26.243c0.001,0.783,0.005,1.566,0.005,2.349
		c0,6.79,0,13.579,0,20.367c0,0.148-0.004,0.296-0.004,0.442c-0.061,0.028-0.096,0.005-0.1-0.055
		c-0.008-0.08-0.004-0.16-0.004-0.236c-0.002-7.515-0.002-15.027,0.002-22.541C29.041,26.459,28.959,26.305,29.142,26.243z"/>
	<path fill-rule="evenodd" clip-rule="evenodd" fill="#FEDE50" d="M36.67,42.329c-0.462,0.072-0.926,0.145-1.387,0.223
		c-0.14,0.023-0.205-0.011-0.191-0.162c0.003-0.037,0.002-0.079,0.002-0.117c0-3.264,0.001-6.529-0.008-9.795
		c0-0.266,0.076-0.319,0.326-0.319c3.393,0.009,6.785,0.002,10.179,0c-0.028,0.21-0.194,0.128-0.299,0.128
		c-1.712,0.004-3.423,0.004-5.134,0.004c-1.545,0-3.09,0.005-4.633-0.006c-0.26-0.002-0.328,0.065-0.328,0.326
		c0.008,3.178,0.006,6.355,0.002,9.533c0,0.26,0.053,0.349,0.334,0.271c0.297-0.08,0.613-0.1,0.922-0.139
		C36.529,42.266,36.611,42.254,36.67,42.329z"/>
	<path fill-rule="evenodd" clip-rule="evenodd" fill="#FDD801" d="M46.123,26.217c-0.086-0.005-0.175-0.016-0.263-0.016
		c-5.519,0-11.036,0-16.556,0c-0.049,0-0.1,0.004-0.146,0.004c0.064-0.129,0.188-0.08,0.287-0.08c5.467-0.002,10.933-0.002,16.398,0
		C45.943,26.125,46.066,26.079,46.123,26.217z"/>
</g>
</svg>
