<?xml version="1.0" encoding="utf-8"?>
<!-- Generator: Adobe Illustrator 16.0.0, SVG Export Plug-In . SVG Version: 6.00 Build 0)  -->
<!DOCTYPE svg PUBLIC "-//W3C//DTD SVG 1.1//EN" "http://www.w3.org/Graphics/SVG/1.1/DTD/svg11.dtd">
<svg version="1.1" id="Layer_1" xmlns="http://www.w3.org/2000/svg" xmlns:xlink="http://www.w3.org/1999/xlink" x="0px" y="0px"
	 width="1861.244px" height="1079.945px" viewBox="0 0 1861.244 1079.945" enable-background="new 0 0 1861.244 1079.945"
	 xml:space="preserve">
<g>
	<rect opacity="0.5" fill="#948EC5" width="32.441" height="1079.945"/>
	<rect x="73.152" opacity="0.5" fill="#948EC5" width="32.441" height="1079.945"/>
	<rect x="146.304" opacity="0.5" fill="#948EC5" width="32.441" height="1079.945"/>
	<rect x="219.457" opacity="0.5" fill="#948EC5" width="32.441" height="1079.945"/>
	<rect x="292.608" opacity="0.5" fill="#948EC5" width="32.441" height="1079.945"/>
	<rect x="365.761" opacity="0.5" fill="#948EC5" width="32.441" height="1079.945"/>
	<rect x="438.913" opacity="0.5" fill="#948EC5" width="32.441" height="1079.945"/>
	<rect x="512.065" opacity="0.5" fill="#948EC5" width="32.441" height="1079.945"/>
	<rect x="585.217" opacity="0.5" fill="#948EC5" width="32.441" height="1079.945"/>
	<rect x="658.369" opacity="0.5" fill="#948EC5" width="32.441" height="1079.945"/>
	<rect x="731.521" opacity="0.5" fill="#948EC5" width="32.441" height="1079.945"/>
	<rect x="804.673" opacity="0.5" fill="#948EC5" width="32.441" height="1079.945"/>
	<rect x="877.825" opacity="0.5" fill="#948EC5" width="32.441" height="1079.945"/>
	<rect x="950.978" opacity="0.5" fill="#948EC5" width="32.441" height="1079.945"/>
	<rect x="1024.13" opacity="0.5" fill="#948EC5" width="32.441" height="1079.945"/>
	<rect x="1097.281" opacity="0.5" fill="#948EC5" width="32.441" height="1079.945"/>
	<rect x="1170.434" opacity="0.5" fill="#948EC5" width="32.441" height="1079.945"/>
	<rect x="1243.586" opacity="0.5" fill="#948EC5" width="32.441" height="1079.945"/>
	<rect x="1316.738" opacity="0.5" fill="#948EC5" width="32.441" height="1079.945"/>
	<rect x="1389.89" opacity="0.5" fill="#948EC5" width="32.441" height="1079.945"/>
	<rect x="1463.042" opacity="0.5" fill="#948EC5" width="32.441" height="1079.945"/>
	<rect x="1536.194" opacity="0.5" fill="#948EC5" width="32.441" height="1079.945"/>
	<rect x="1609.347" opacity="0.5" fill="#948EC5" width="32.441" height="1079.945"/>
	<rect x="1682.498" opacity="0.5" fill="#948EC5" width="32.441" height="1079.945"/>
	<rect x="1755.65" opacity="0.5" fill="#948EC5" width="32.441" height="1079.945"/>
	<rect x="1828.803" opacity="0.5" fill="#948EC5" width="32.441" height="1079.945"/>
</g>
</svg>
