<?xml version="1.0" encoding="utf-8"?>
<!-- Generator: Adobe Illustrator 16.0.0, SVG Export Plug-In . SVG Version: 6.00 Build 0)  -->
<!DOCTYPE svg PUBLIC "-//W3C//DTD SVG 1.1//EN" "http://www.w3.org/Graphics/SVG/1.1/DTD/svg11.dtd">
<svg version="1.1" id="Layer_1" xmlns="http://www.w3.org/2000/svg" xmlns:xlink="http://www.w3.org/1999/xlink" x="0px" y="0px"
	 width="1959.122px" height="1079.945px" viewBox="0 0 1959.122 1079.945" enable-background="new 0 0 1959.122 1079.945"
	 xml:space="preserve">
<g>
	<rect x="0" y="0" opacity="0.5" fill="#948EC5" enable-background="new    " width="32.44" height="1079.945"/>
</g>
<g>
	<rect x="63.5" y="0" opacity="0.5" fill="#948EC5" enable-background="new    " width="32.44" height="1079.945"/>
</g>
<g>
	<rect x="127" y="0" opacity="0.5" fill="#948EC5" enable-background="new    " width="32.44" height="1079.945"/>
</g>
<g>
	<rect x="190.5" y="0" opacity="0.5" fill="#948EC5" enable-background="new    " width="32.44" height="1079.945"/>
</g>
<g>
	<rect x="254" y="0" opacity="0.5" fill="#948EC5" enable-background="new    " width="32.44" height="1079.945"/>
</g>
<g>
	<rect x="317.5" y="0" opacity="0.5" fill="#948EC5" enable-background="new    " width="32.44" height="1079.945"/>
</g>
<g>
	<rect x="381" y="0" opacity="0.5" fill="#948EC5" enable-background="new    " width="32.44" height="1079.945"/>
</g>
<g>
	<rect x="444.5" y="0" opacity="0.5" fill="#948EC5" enable-background="new    " width="32.44" height="1079.945"/>
</g>
<g>
	<rect x="508" y="0" opacity="0.5" fill="#948EC5" enable-background="new    " width="32.44" height="1079.945"/>
</g>
<g>
	<rect x="571.5" y="0" opacity="0.5" fill="#948EC5" enable-background="new    " width="32.44" height="1079.945"/>
</g>
<g>
	<rect x="635" y="0" opacity="0.5" fill="#948EC5" enable-background="new    " width="32.44" height="1079.945"/>
</g>
<g>
	<rect x="698.5" y="0" opacity="0.5" fill="#948EC5" enable-background="new    " width="32.44" height="1079.945"/>
</g>
<g>
	<rect x="762" y="0" opacity="0.5" fill="#948EC5" enable-background="new    " width="32.44" height="1079.945"/>
</g>
<g>
	<rect x="825.5" y="0" opacity="0.5" fill="#948EC5" enable-background="new    " width="32.44" height="1079.945"/>
</g>
<g>
	<rect x="889" y="0" opacity="0.5" fill="#948EC5" enable-background="new    " width="32.44" height="1079.945"/>
</g>
<g>
	<rect x="952.5" y="0" opacity="0.5" fill="#948EC5" enable-background="new    " width="32.44" height="1079.945"/>
</g>
<g>
	<rect x="1016" y="0" opacity="0.5" fill="#948EC5" enable-background="new    " width="32.44" height="1079.945"/>
</g>
<g>
	<rect x="1079.5" y="0" opacity="0.5" fill="#948EC5" enable-background="new    " width="32.44" height="1079.945"/>
</g>
<g>
	<rect x="1143" y="0" opacity="0.5" fill="#948EC5" enable-background="new    " width="32.44" height="1079.945"/>
</g>
<g>
	<rect x="1206.5" y="0" opacity="0.5" fill="#948EC5" enable-background="new    " width="32.44" height="1079.945"/>
</g>
<g>
	<rect x="1270" y="0" opacity="0.5" fill="#948EC5" enable-background="new    " width="32.44" height="1079.945"/>
</g>
<g>
	<rect x="1333.5" y="0" opacity="0.5" fill="#948EC5" enable-background="new    " width="32.44" height="1079.945"/>
</g>
<g>
	<rect x="1397" y="0" opacity="0.5" fill="#948EC5" enable-background="new    " width="32.44" height="1079.945"/>
</g>
<g>
	<rect x="1460.5" y="0" opacity="0.5" fill="#948EC5" enable-background="new    " width="32.44" height="1079.945"/>
</g>
<g>
	<rect x="1524" y="0" opacity="0.5" fill="#948EC5" enable-background="new    " width="32.44" height="1079.945"/>
</g>
<g>
	<rect x="1587.5" y="0" opacity="0.5" fill="#948EC5" enable-background="new    " width="32.44" height="1079.945"/>
</g>
<g>
	<rect x="1651" y="0" opacity="0.5" fill="#948EC5" enable-background="new    " width="32.44" height="1079.945"/>
</g>
<g>
	<rect x="1714.5" y="0" opacity="0.5" fill="#948EC5" enable-background="new    " width="32.44" height="1079.945"/>
</g>
<g>
	<rect x="1778" y="0" opacity="0.5" fill="#948EC5" enable-background="new    " width="32.44" height="1079.945"/>
</g>
<g>
	<rect x="1841.5" y="0" opacity="0.5" fill="#948EC5" enable-background="new    " width="32.44" height="1079.945"/>
</g>
<g>
	<rect x="1905" y="0" opacity="0.5" fill="#948EC5" enable-background="new    " width="32.44" height="1079.945"/>
</g>
</svg>
