<?xml version="1.0" encoding="utf-8"?>
<!-- Generator: Adobe Illustrator 16.0.0, SVG Export Plug-In . SVG Version: 6.00 Build 0)  -->
<!DOCTYPE svg PUBLIC "-//W3C//DTD SVG 1.1//EN" "http://www.w3.org/Graphics/SVG/1.1/DTD/svg11.dtd">
<svg version="1.1" id="Layer_1" xmlns="http://www.w3.org/2000/svg" xmlns:xlink="http://www.w3.org/1999/xlink" x="0px" y="0px"
	 width="33px" height="33px" viewBox="0 0 33 33" enable-background="new 0 0 33 33" xml:space="preserve">
<g>
	<circle fill="#FBDCEA" cx="16.5" cy="16.5" r="16.5"/>
	<g>
		<defs>
			<circle id="SVGID_1_" cx="16.5" cy="16.5" r="16.5"/>
		</defs>
		<clipPath id="SVGID_2_">
			<use xlink:href="#SVGID_1_"  overflow="visible"/>
		</clipPath>
		<g clip-path="url(#SVGID_2_)">
			<g>
				<path fill="#735DA8" d="M-2.124,13.725c6.606-0.227,14.348,2.521,19.748,6.182c5.719,3.878,9.336,10.076,12.529,16.03
					c0.305,0.568,1.168,0.063,0.863-0.505c-3.214-5.991-6.767-11.7-12.221-15.904c-2.958-2.28-6.468-3.747-10.003-4.863
					c-3.418-1.079-7.309-2.063-10.917-1.939C-2.767,12.747-2.769,13.747-2.124,13.725L-2.124,13.725z"/>
			</g>
		</g>
		<g clip-path="url(#SVGID_2_)">
			<g>
				<path fill="#735DA8" d="M-0.397,11.844c0.766,0.351,1.148,0.966,1.649,1.609c0.396,0.508,1.098-0.205,0.707-0.707
					c-0.555-0.713-1.002-1.376-1.851-1.766C-0.474,10.714-0.982,11.575-0.397,11.844L-0.397,11.844z"/>
			</g>
		</g>
		<g clip-path="url(#SVGID_2_)">
			<g>
				<path fill="#735DA8" d="M2.346,11.984c0.483,0.438,0.92,0.917,1.168,1.529c0.238,0.59,1.206,0.333,0.964-0.266
					c-0.316-0.782-0.803-1.407-1.425-1.971C2.576,10.846,1.867,11.55,2.346,11.984L2.346,11.984z"/>
			</g>
		</g>
		<g clip-path="url(#SVGID_2_)">
			<g>
				<path fill="#735DA8" d="M5.08,12.734c0.411,0.435,0.666,0.973,0.872,1.529c0.221,0.6,1.188,0.341,0.964-0.266
					c-0.266-0.723-0.595-1.406-1.128-1.971C5.344,11.558,4.638,12.266,5.08,12.734L5.08,12.734z"/>
			</g>
		</g>
		<g clip-path="url(#SVGID_2_)">
			<g>
				<path fill="#735DA8" d="M8.002,13.524c0.374,0.52,0.609,1.103,0.859,1.688c0.253,0.591,1.114,0.081,0.863-0.505
					c-0.25-0.585-0.486-1.167-0.859-1.688C8.493,12.5,7.625,12.999,8.002,13.524L8.002,13.524z"/>
			</g>
		</g>
		<g clip-path="url(#SVGID_2_)">
			<g>
				<path fill="#735DA8" d="M10.999,14.504c0.225,0.558,0.427,1.12,0.562,1.707c0.145,0.628,1.108,0.362,0.965-0.266
					c-0.135-0.587-0.338-1.149-0.563-1.707C11.725,13.648,10.757,13.906,10.999,14.504L10.999,14.504z"/>
			</g>
		</g>
		<g clip-path="url(#SVGID_2_)">
			<g>
				<path fill="#735DA8" d="M13.486,15.477c0.271,0.572,0.404,1.194,0.491,1.818c0.089,0.637,1.053,0.365,0.965-0.266
					c-0.101-0.718-0.281-1.401-0.593-2.057C14.073,14.39,13.212,14.897,13.486,15.477L13.486,15.477z"/>
			</g>
		</g>
		<g clip-path="url(#SVGID_2_)">
			<g>
				<path fill="#735DA8" d="M16.373,16.941c0.108,0.529,0.167,1.057,0.19,1.596c0.028,0.642,1.028,0.645,1,0
					c-0.027-0.627-0.101-1.246-0.226-1.861C17.209,16.044,16.245,16.312,16.373,16.941L16.373,16.941z"/>
			</g>
		</g>
		<g clip-path="url(#SVGID_2_)">
			<g>
				<path fill="#735DA8" d="M18.937,18.545c0.109,0.653,0.154,1.312,0.211,1.971c0.055,0.638,1.056,0.643,1,0
					c-0.064-0.748-0.123-1.495-0.246-2.236C19.795,17.644,18.832,17.915,18.937,18.545L18.937,18.545z"/>
			</g>
		</g>
		<g clip-path="url(#SVGID_2_)">
			<g>
				<path fill="#735DA8" d="M21.354,20.357c0.258,0.729,0.384,1.469,0.336,2.242c-0.039,0.645,0.961,0.641,1,0
					c0.053-0.852-0.087-1.705-0.371-2.508C22.104,19.488,21.138,19.748,21.354,20.357L21.354,20.357z"/>
			</g>
		</g>
		<g clip-path="url(#SVGID_2_)">
			<g>
				<path fill="#735DA8" d="M23.979,22.648c0.195,1.047,0.347,2.091,0.357,3.158c0.007,0.645,1.007,0.645,1,0
					c-0.012-1.155-0.182-2.291-0.393-3.424C24.825,21.749,23.861,22.019,23.979,22.648L23.979,22.648z"/>
			</g>
		</g>
		<g clip-path="url(#SVGID_2_)">
			<g>
				<path fill="#735DA8" d="M26.522,26.557c-0.021,0.675-0.044,1.349-0.104,2.021c-0.057,0.643,0.944,0.637,1,0
					c0.06-0.673,0.083-1.347,0.104-2.021C27.542,25.912,26.542,25.914,26.522,26.557L26.522,26.557z"/>
			</g>
		</g>
		<g clip-path="url(#SVGID_2_)">
			<g>
				<path fill="#735DA8" d="M1.447,13.105c-0.608,0.381-1.167,0.827-1.695,1.313c-0.475,0.438,0.234,1.143,0.707,0.707
					c0.466-0.43,0.955-0.819,1.493-1.156C2.496,13.627,1.995,12.762,1.447,13.105L1.447,13.105z"/>
			</g>
		</g>
		<g clip-path="url(#SVGID_2_)">
			<g>
				<path fill="#735DA8" d="M3.564,14.097c-0.402,0.536-0.809,1.069-1.234,1.586c-0.406,0.494,0.297,1.206,0.707,0.707
					c0.48-0.583,0.937-1.185,1.391-1.789C4.815,14.086,3.946,13.588,3.564,14.097L3.564,14.097z"/>
			</g>
		</g>
		<g clip-path="url(#SVGID_2_)">
			<g>
				<path fill="#735DA8" d="M6.252,14.246c-0.483,0.559-0.87,1.188-1.328,1.766c-0.396,0.5,0.307,1.212,0.707,0.707
					c0.458-0.578,0.846-1.208,1.328-1.766C7.378,14.468,6.674,13.757,6.252,14.246L6.252,14.246z"/>
			</g>
		</g>
		<g clip-path="url(#SVGID_2_)">
			<g>
				<path fill="#735DA8" d="M8.752,15.262c-0.392,0.332-0.774,0.674-1.172,1c-0.499,0.409,0.213,1.112,0.707,0.707
					c0.397-0.326,0.78-0.668,1.172-1C9.952,15.551,9.24,14.847,8.752,15.262L8.752,15.262z"/>
			</g>
		</g>
		<g clip-path="url(#SVGID_2_)">
			<g>
				<path fill="#735DA8" d="M11.627,15.934c-0.521,0.538-1.119,0.993-1.641,1.531c-0.449,0.463,0.257,1.171,0.707,0.707
					c0.521-0.538,1.119-0.993,1.641-1.531C12.783,16.178,12.076,15.47,11.627,15.934L11.627,15.934z"/>
			</g>
		</g>
		<g clip-path="url(#SVGID_2_)">
			<g>
				<path fill="#735DA8" d="M14.557,17.48c-0.744,0.407-1.464,0.855-2.188,1.297c-0.55,0.335-0.048,1.2,0.504,0.863
					c0.725-0.441,1.444-0.89,2.188-1.297C15.627,18.034,15.122,17.17,14.557,17.48L14.557,17.48z"/>
			</g>
		</g>
		<g clip-path="url(#SVGID_2_)">
			<g>
				<path fill="#735DA8" d="M17.166,19.313c-0.568,0.269-1.151,0.503-1.688,0.834c-0.549,0.337-0.047,1.202,0.504,0.863
					c0.537-0.33,1.12-0.565,1.688-0.834C18.253,19.9,17.745,19.038,17.166,19.313L17.166,19.313z"/>
			</g>
		</g>
		<g clip-path="url(#SVGID_2_)">
			<g>
				<path fill="#735DA8" d="M20.348,21.409c-0.788,0.308-1.587,0.588-2.375,0.896c-0.594,0.232-0.336,1.199,0.266,0.964
					c0.788-0.308,1.587-0.588,2.375-0.896C21.207,22.141,20.949,21.173,20.348,21.409L20.348,21.409z"/>
			</g>
		</g>
		<g clip-path="url(#SVGID_2_)">
			<g>
				<path fill="#735DA8" d="M22.931,23.825c-1.003,0.243-1.96,0.617-2.917,1c-0.591,0.236-0.334,1.204,0.266,0.964
					c0.957-0.382,1.914-0.757,2.917-1C23.823,24.637,23.557,23.673,22.931,23.825L22.931,23.825z"/>
			</g>
		</g>
		<g clip-path="url(#SVGID_2_)">
			<g>
				<path fill="#735DA8" d="M25.209,26.516c-0.906-0.041-1.761,0.294-2.611,0.559c-0.613,0.191-0.352,1.156,0.266,0.964
					c0.764-0.237,1.533-0.56,2.346-0.523C25.854,27.544,25.852,26.544,25.209,26.516L25.209,26.516z"/>
			</g>
		</g>
		<g clip-path="url(#SVGID_2_)">
			<g>
				<path fill="#735DA8" d="M27.313,29.287c-0.958-0.008-1.933-0.102-2.841,0.268c-0.589,0.239-0.332,1.207,0.266,0.964
					c0.828-0.336,1.702-0.239,2.575-0.232C27.959,30.292,27.958,29.292,27.313,29.287L27.313,29.287z"/>
			</g>
		</g>
		<g clip-path="url(#SVGID_2_)">
			<g>
				<path fill="#735DA8" d="M2.295,4.447c3.047-1.395,7.159-0.884,10.422-0.661c3.785,0.258,7.517,1.051,11.145,2.135
					c7.13,2.13,13.698,5.867,18.369,11.741c0.401,0.505,1.104-0.208,0.707-0.707C38.116,10.89,31.418,7.27,24.129,4.957
					c-3.98-1.263-8.13-1.947-12.289-2.23C8.593,2.505,4.821,2.197,1.791,3.584C1.205,3.852,1.713,4.714,2.295,4.447L2.295,4.447z"/>
			</g>
		</g>
		<g clip-path="url(#SVGID_2_)">
			<g>
				<path fill="#735DA8" d="M7.65,2.266c0.378,0.163,0.942,0.301,1.196,0.649C9.222,3.43,10.09,2.932,9.709,2.41
					C9.316,1.871,8.747,1.658,8.155,1.402C7.569,1.149,7.06,2.011,7.65,2.266L7.65,2.266z"/>
			</g>
		</g>
		<g clip-path="url(#SVGID_2_)">
			<g>
				<path fill="#735DA8" d="M10.502,2.063c0.258,0.258,0.475,0.54,0.688,0.836c0.372,0.519,1.24,0.021,0.863-0.505
					c-0.261-0.364-0.525-0.722-0.844-1.039C10.752,0.9,10.045,1.607,10.502,2.063L10.502,2.063z"/>
			</g>
		</g>
		<g clip-path="url(#SVGID_2_)">
			<g>
				<path fill="#735DA8" d="M12.768,1.836c0.203,0.439,0.534,0.815,0.699,1.271c0.219,0.602,1.186,0.342,0.965-0.266
					c-0.198-0.545-0.56-0.988-0.801-1.51C13.36,0.747,12.499,1.255,12.768,1.836L12.768,1.836z"/>
			</g>
		</g>
		<g clip-path="url(#SVGID_2_)">
			<g>
				<path fill="#735DA8" d="M15.607,2.264c0.184,0.477,0.36,0.957,0.531,1.438c0.215,0.603,1.182,0.343,0.965-0.266
					c-0.172-0.481-0.348-0.961-0.531-1.438C16.343,1.402,15.376,1.661,15.607,2.264L15.607,2.264z"/>
			</g>
		</g>
		<g clip-path="url(#SVGID_2_)">
			<g>
				<path fill="#735DA8" d="M18.67,3.029c0.099,0.331,0.195,0.66,0.313,0.984c0.219,0.601,1.186,0.342,0.965-0.266
					c-0.118-0.324-0.215-0.654-0.313-0.984C19.451,2.147,18.486,2.41,18.67,3.029L18.67,3.029z"/>
			</g>
		</g>
		<g clip-path="url(#SVGID_2_)">
			<g>
				<path fill="#735DA8" d="M21.764,3.592c0.092,0.386,0.178,0.773,0.281,1.156c0.169,0.622,1.134,0.357,0.965-0.266
					c-0.104-0.383-0.19-0.77-0.281-1.156C22.58,2.699,21.615,2.965,21.764,3.592L21.764,3.592z"/>
			</g>
		</g>
		<g clip-path="url(#SVGID_2_)">
			<g>
				<path fill="#735DA8" d="M24.779,4.404c0.218,0.587,0.437,1.172,0.691,1.745c0.262,0.588,1.123,0.079,0.863-0.505
					c-0.219-0.493-0.402-1-0.59-1.505C25.521,3.54,24.555,3.798,24.779,4.404L24.779,4.404z"/>
			</g>
		</g>
		<g clip-path="url(#SVGID_2_)">
			<g>
				<path fill="#735DA8" d="M28.018,5.446c0.258,0.608,0.55,1.203,0.793,1.818c0.234,0.592,1.202,0.334,0.965-0.266
					c-0.275-0.695-0.603-1.369-0.895-2.057C28.63,4.349,27.769,4.859,28.018,5.446L28.018,5.446z"/>
			</g>
		</g>
		<g clip-path="url(#SVGID_2_)">
			<g>
				<path fill="#735DA8" d="M9.363,2.524C8.665,2.79,7.761,3.228,7.377,3.91C7.06,4.473,7.924,4.977,8.24,4.415
					c0.248-0.44,0.94-0.755,1.389-0.927C10.226,3.261,9.967,2.294,9.363,2.524L9.363,2.524z"/>
			</g>
		</g>
		<g clip-path="url(#SVGID_2_)">
			<g>
				<path fill="#735DA8" d="M11.502,2.793c-0.406,0.505-1.094,0.842-1.316,1.471c-0.216,0.609,0.75,0.869,0.964,0.266
					c0.054-0.151,0.356-0.338,0.475-0.441c0.211-0.184,0.408-0.369,0.584-0.588C12.608,3.002,11.906,2.29,11.502,2.793L11.502,2.793
					z"/>
			</g>
		</g>
		<g clip-path="url(#SVGID_2_)">
			<g>
				<path fill="#735DA8" d="M13.861,3.199c-0.414,0.453-0.859,0.864-1.234,1.351c-0.394,0.511,0.477,1.008,0.863,0.505
					c0.32-0.417,0.725-0.762,1.078-1.149C15.003,3.432,14.298,2.723,13.861,3.199L13.861,3.199z"/>
			</g>
		</g>
		<g clip-path="url(#SVGID_2_)">
			<g>
				<path fill="#735DA8" d="M16.314,3.668c-0.396,0.472-0.823,0.92-1.125,1.46c-0.314,0.564,0.549,1.068,0.863,0.505
					c0.261-0.468,0.627-0.85,0.969-1.258C17.433,3.884,16.729,3.173,16.314,3.668L16.314,3.668z"/>
			</g>
		</g>
		<g clip-path="url(#SVGID_2_)">
			<g>
				<path fill="#735DA8" d="M19.346,4.168c-0.482,0.438-0.972,0.837-1.359,1.367c-0.382,0.521,0.486,1.019,0.863,0.505
					c0.331-0.452,0.792-0.791,1.203-1.165C20.531,4.44,19.821,3.735,19.346,4.168L19.346,4.168z"/>
			</g>
		</g>
		<g clip-path="url(#SVGID_2_)">
			<g>
				<path fill="#735DA8" d="M22.619,4.934c-0.519,0.382-1.043,0.754-1.461,1.25c-0.413,0.49,0.291,1.201,0.707,0.707
					c0.364-0.432,0.806-0.76,1.258-1.094C23.637,5.418,23.139,4.55,22.619,4.934L22.619,4.934z"/>
			</g>
		</g>
		<g clip-path="url(#SVGID_2_)">
			<g>
				<path fill="#735DA8" d="M25.994,6.105c-0.441,0.209-0.865,0.439-1.266,0.719c-0.525,0.365-0.026,1.232,0.504,0.863
					c0.401-0.279,0.825-0.51,1.266-0.719C27.081,6.693,26.573,5.831,25.994,6.105L25.994,6.105z"/>
			</g>
		</g>
		<g clip-path="url(#SVGID_2_)">
			<g>
				<path fill="#745DA8" d="M29.416,7.199c-0.511,0.217-1.011,0.445-1.484,0.734c-0.55,0.335-0.048,1.201,0.504,0.863
					c0.475-0.29,0.975-0.517,1.484-0.734C30.512,7.811,30.002,6.949,29.416,7.199L29.416,7.199z"/>
			</g>
		</g>
	</g>
</g>
</svg>
