<?xml version="1.0" encoding="utf-8"?>
<!-- Generator: Adobe Illustrator 16.0.0, SVG Export Plug-In . SVG Version: 6.00 Build 0)  -->
<!DOCTYPE svg PUBLIC "-//W3C//DTD SVG 1.1//EN" "http://www.w3.org/Graphics/SVG/1.1/DTD/svg11.dtd">
<svg version="1.1" id="Layer_1" xmlns="http://www.w3.org/2000/svg" xmlns:xlink="http://www.w3.org/1999/xlink" x="0px" y="0px"
	 width="198.593px" height="496.855px" viewBox="0 0 198.593 496.855" enable-background="new 0 0 198.593 496.855"
	 xml:space="preserve">
<g>
	<path fill="#8469AE" d="M48.503,450.694c-20.762-14.605,122.84-435.359,122.84-435.359c-11.001-3.258-11.499-6.064-11.499-6.064
		c-0.416-4.748,1.868-7.307,4.885-8.65l-1.213-0.352c-4.03-1.162-8.356,1.555-9.661,6.068c-1.306,4.516,0.903,9.123,4.934,10.287
		l6.991,2.021c-0.615,1.492-1.197,3.121-1.719,4.926C159.519,35.226,85.878,223.88,81.383,235.56
		c-18.589,48.299-36.714,97.033-56.402,144.848c-5.268,12.791-9.487,26.006-14.963,38.734c-6.696,15.561-12.48,30.141-8.946,46.93
		c2.695,12.799,11.283,23.549,22.312,28.336c18.124,7.869,36.644-4.162,45.625-22.787c2.272-4.715,4.178-9.764,5.739-14.861
		C66.198,457.536,56.675,456.442,48.503,450.694z"/>
	<path fill="#EFB2D1" d="M193.286,8.876L164.729,0.62c-3.017,1.344-5.301,3.902-4.885,8.65c0,0,0.498,2.807,11.499,6.064
		c0,0-143.602,420.754-122.84,435.359c8.172,5.748,17.694,6.842,26.244,6.064c1.005-3.279,1.871-6.576,2.594-9.822
		c10.629-47.727,25.445-93.762,34.568-141.781c5.951-31.324,63.021-245.387,69.074-276.691c0.522-1.807,0.899-3.494,1.177-5.084
		l6.396,1.85c4.03,1.164,8.355-1.553,9.66-6.068C199.523,14.646,197.314,10.04,193.286,8.876z"/>
</g>
</svg>
