<?xml version="1.0" encoding="utf-8"?>
<!-- Generator: Adobe Illustrator 16.0.0, SVG Export Plug-In . SVG Version: 6.00 Build 0)  -->
<!DOCTYPE svg PUBLIC "-//W3C//DTD SVG 1.1//EN" "http://www.w3.org/Graphics/SVG/1.1/DTD/svg11.dtd">
<svg version="1.1" id="Layer_1" xmlns="http://www.w3.org/2000/svg" xmlns:xlink="http://www.w3.org/1999/xlink" x="0px" y="0px"
	 width="83.77px" height="83.5px" viewBox="0 0 83.77 83.5" enable-background="new 0 0 83.77 83.5" xml:space="preserve">
<g>
	<path fill="#CC468F" d="M28.013,78.113c0,2.977-2.412,5.387-5.387,5.387H5.388C2.412,83.5,0,81.09,0,78.113V60.875
		c0-2.977,2.412-5.387,5.388-5.387h17.238c2.975,0,5.387,2.41,5.387,5.387V78.113z"/>
	<path fill="#5D6AB2" d="M56.026,78.113c0,2.977-2.412,5.387-5.388,5.387H33.399c-2.975,0-5.387-2.41-5.387-5.387V60.875
		c0-2.977,2.412-5.387,5.387-5.387h17.239c2.976,0,5.388,2.41,5.388,5.387V78.113z"/>
	<path fill="#2D2C7A" d="M83.77,78.113c0,2.977-2.412,5.387-5.388,5.387H61.144c-2.975,0-5.387-2.41-5.387-5.387V60.875
		c0-2.977,2.412-5.387,5.387-5.387h17.238c2.976,0,5.388,2.41,5.388,5.387V78.113z"/>
	<path fill="#948EC5" d="M28.013,50.369c0,2.977-2.412,5.389-5.387,5.389H5.388C2.412,55.758,0,53.346,0,50.369V33.131
		c0-2.975,2.412-5.387,5.388-5.387h17.238c2.975,0,5.387,2.412,5.387,5.387V50.369z"/>
	<path fill="#DB77B0" d="M56.026,50.369c0,2.977-2.412,5.389-5.388,5.389H33.399c-2.975,0-5.387-2.412-5.387-5.389V33.131
		c0-2.975,2.412-5.387,5.387-5.387h17.239c2.976,0,5.388,2.412,5.388,5.387V50.369z"/>
	<path fill="#FBD8E7" d="M28.013,22.627c0,2.975-2.412,5.387-5.387,5.387H5.388C2.412,28.014,0,25.602,0,22.627V5.387
		C0,2.412,2.412,0,5.388,0h17.238c2.975,0,5.387,2.412,5.387,5.387V22.627z"/>
</g>
</svg>
