<?xml version="1.0" encoding="utf-8"?>
<!-- Generator: Adobe Illustrator 16.0.0, SVG Export Plug-In . SVG Version: 6.00 Build 0)  -->
<!DOCTYPE svg PUBLIC "-//W3C//DTD SVG 1.1//EN" "http://www.w3.org/Graphics/SVG/1.1/DTD/svg11.dtd">
<svg version="1.1" id="Layer_1" xmlns="http://www.w3.org/2000/svg" xmlns:xlink="http://www.w3.org/1999/xlink" x="0px" y="0px"
	 width="122.753px" height="104.174px" viewBox="0 0 122.753 104.174" enable-background="new 0 0 122.753 104.174"
	 xml:space="preserve">
<g>
	<g>
		<path fill="#5D6AB2" d="M6.457,104.145c0.101,0.008,0.199,0.029,0.304,0.029h11.034c0.092,0,0.178-0.02,0.269-0.027h-1.181V34.766
			h1.553v69.344c1.658-0.301,2.92-1.746,2.92-3.494V29.967H6.457V104.145z M13.001,34.766h1.553v69.381h-1.553V34.766z
			 M9.117,34.766h1.553v69.381H9.117V34.766z"/>
		<rect x="9.117" y="34.766" fill="#54459C" width="1.553" height="69.381"/>
		<rect x="13.001" y="34.766" fill="#54459C" width="1.553" height="69.381"/>
		<path fill="#54459C" d="M16.883,34.766v69.381h1.181c0.124-0.01,0.251-0.014,0.372-0.037V34.766H16.883z"/>
		<path fill="#2D2C7A" d="M22.132,25L5.873,24.975c-0.094,0-0.181,0.02-0.272,0.025c-1.836,0.143-3.287,1.662-3.287,3.533v71.195
			c0,1.861,1.434,3.371,3.255,3.529V29.08h0.032h16.531h0.032v74.178c1.821-0.158,3.256-1.668,3.256-3.529V28.533
			C25.42,26.662,23.968,25.143,22.132,25z"/>
		<polygon fill="#FBD8E7" points="19.362,89.277 8.935,89.277 8.935,85.135 19.362,85.135 16.559,87.205 		"/>
	</g>
	<g>
		<path fill="#5D6AB2" d="M31.303,104.145c0.104,0.008,0.2,0.029,0.305,0.029h11.035c0.092,0,0.177-0.02,0.268-0.027h-1.181V34.766
			h1.553v69.344c1.658-0.301,2.92-1.746,2.92-3.494V29.967H31.303V104.145z M37.847,34.766h1.553v69.381h-1.553V34.766z
			 M33.965,34.766h1.554v69.381h-1.554V34.766z"/>
		<rect x="33.965" y="34.766" fill="#54459C" width="1.554" height="69.381"/>
		<rect x="37.847" y="34.766" fill="#54459C" width="1.553" height="69.381"/>
		<path fill="#54459C" d="M41.729,34.766v69.381h1.181c0.125-0.01,0.251-0.014,0.372-0.037V34.766H41.729z"/>
		<path fill="#2D2C7A" d="M46.979,25l-16.259-0.025c-0.095,0-0.183,0.02-0.273,0.025c-1.837,0.143-3.286,1.662-3.286,3.533v71.195
			c0,1.861,1.432,3.371,3.253,3.529V29.08h0.033h16.532h0.031v74.178c1.822-0.158,3.255-1.668,3.255-3.529V28.533
			C50.266,26.662,48.815,25.143,46.979,25z"/>
		<polygon fill="#FBD8E7" points="44.17,78.256 33.744,78.256 33.744,74.115 44.17,74.115 41.37,76.184 		"/>
		<polygon fill="#FBD8E7" points="44.17,64.17 33.744,64.17 33.744,60.027 44.17,60.027 41.37,62.098 		"/>
	</g>
	<g>
		<path fill="#5D6AB2" d="M56.445,104.145c0.101,0.008,0.201,0.029,0.304,0.029h11.035c0.092,0,0.178-0.02,0.268-0.027h-1.181
			V34.766h1.554v69.344c1.658-0.301,2.918-1.746,2.918-3.494V29.967H56.445V104.145z M62.989,34.766h1.553v69.381h-1.553V34.766z
			 M59.106,34.766h1.554v69.381h-1.554V34.766z"/>
		<rect x="59.106" y="34.766" fill="#54459C" width="1.554" height="69.381"/>
		<rect x="62.989" y="34.766" fill="#54459C" width="1.553" height="69.381"/>
		<path fill="#54459C" d="M66.871,34.766v69.381h1.181c0.124-0.01,0.251-0.014,0.373-0.037V34.766H66.871z"/>
		<path fill="#2D2C7A" d="M72.12,25l-16.259-0.025c-0.092,0-0.18,0.02-0.271,0.025c-1.837,0.143-3.287,1.662-3.287,3.533v71.195
			c0,1.861,1.432,3.371,3.255,3.529V29.08h0.032h16.53h0.033v74.178c1.821-0.158,3.255-1.668,3.255-3.529V28.533
			C75.408,26.662,73.958,25.143,72.12,25z"/>
		<polygon fill="#FBD8E7" points="69.387,48.789 58.961,48.789 58.961,44.648 69.387,44.648 66.585,46.719 		"/>
	</g>
	<g>
		<rect x="0.033" y="6.814" fill="#54459C" width="69.383" height="1.555"/>
		<rect x="0.033" y="10.697" fill="#54459C" width="69.383" height="1.553"/>
		<path fill="#54459C" d="M69.416,14.58H0.033v1.18c0.009,0.125,0.016,0.252,0.037,0.373h69.346V14.58z"/>
		<path fill="#5D6AB2" d="M0.03,4.143C0.023,4.246,0,4.344,0,4.449v11.033c0,0.092,0.021,0.178,0.027,0.268v-1.182H69.41v1.553
			H0.064c0.304,1.66,1.748,2.92,3.493,2.92h70.65V4.143H0.03z M69.41,10.686v1.555H0.027v-1.555H69.41z M69.41,6.805v1.553H0.027
			V6.805H69.41z"/>
		<path fill="#2D2C7A" d="M79.174,19.818L79.2,3.561c0-0.094-0.02-0.18-0.026-0.273C79.032,1.451,77.513,0,75.641,0H4.445
			C2.586,0,1.076,1.434,0.918,3.256h74.176v0.031v16.531v0.033H0.918c0.158,1.822,1.668,3.256,3.527,3.256h71.195
			C77.513,23.107,79.032,21.656,79.174,19.818z"/>
		<polygon fill="#FBD8E7" points="14.898,17.047 14.898,6.621 19.041,6.621 19.041,17.047 16.971,14.248 		"/>
	</g>
	<g>
		<path fill="#5D6AB2" d="M106.241,101.521c0.099-0.027,0.201-0.041,0.297-0.074l10.364-3.789c0.086-0.031,0.16-0.078,0.243-0.117
			l-1.109,0.404L92.226,32.777l1.457-0.529l23.799,65.131c1.454-0.854,2.143-2.643,1.545-4.283L94.78,26.738l-13.995,5.113
			L106.241,101.521z M88.578,34.111l1.459-0.533l23.812,65.168l-1.459,0.535L88.578,34.111z M84.933,35.443l1.457-0.533
			l23.812,65.168l-1.46,0.533L84.933,35.443z"/>
		
			<rect x="96.79" y="33.07" transform="matrix(0.9391 -0.3437 0.3437 0.9391 -17.3444 37.6567)" fill="#54459C" width="1.552" height="69.381"/>
		
			<rect x="100.437" y="31.738" transform="matrix(0.9392 -0.3433 0.3433 0.9392 -16.6529 38.7784)" fill="#54459C" width="1.553" height="69.384"/>
		<path fill="#54459C" d="M92.226,32.777l23.811,65.168l1.109-0.404c0.111-0.051,0.23-0.1,0.336-0.162L93.683,32.248L92.226,32.777z
			"/>
		<path fill="#2D2C7A" d="M93.807,21.807l-15.282,5.553c-0.088,0.033-0.161,0.08-0.246,0.121c-1.677,0.762-2.518,2.688-1.877,4.445
			l24.434,66.869c0.639,1.748,2.504,2.676,4.268,2.197l-25.455-69.67l0.03-0.012l15.528-5.674l0.03-0.01l25.454,69.67
			c1.657-0.773,2.486-2.682,1.846-4.43L98.104,23.996C97.462,22.238,95.58,21.309,93.807,21.807z"/>
		<polygon fill="#FBD8E7" points="99.401,45.088 89.606,48.666 88.186,44.775 97.979,41.197 96.058,44.104 		"/>
	</g>
</g>
</svg>
