<?xml version="1.0" encoding="utf-8"?>
<!-- Generator: Adobe Illustrator 16.0.0, SVG Export Plug-In . SVG Version: 6.00 Build 0)  -->
<!DOCTYPE svg PUBLIC "-//W3C//DTD SVG 1.1//EN" "http://www.w3.org/Graphics/SVG/1.1/DTD/svg11.dtd">
<svg version="1.1" id="Layer_1" xmlns="http://www.w3.org/2000/svg" xmlns:xlink="http://www.w3.org/1999/xlink" x="0px" y="0px"
	 width="129.142px" height="140.722px" viewBox="0.053 0.01 129.142 140.722" enable-background="new 0.053 0.01 129.142 140.722"
	 xml:space="preserve">
<g>
	<g>
		<path fill="#FDEEF5" d="M37.906,140.691c0.137,0.011,0.276,0.041,0.417,0.041h15.192c0.128,0,0.245-0.024,0.369-0.036h-1.626
			V45.173h2.139v95.47c2.283-0.414,4.018-2.405,4.018-4.81V38.567h-20.51L37.906,140.691L37.906,140.691z M46.915,45.173h2.136
			v95.522h-2.136V45.173z M41.569,45.173h2.139v95.522h-2.139V45.173z"/>
		<rect x="41.569" y="45.173" fill="#F0AECE" width="2.139" height="95.522"/>
		<rect x="46.915" y="45.173" fill="#F0AECE" width="2.136" height="95.522"/>
		<path fill="#F0AECE" d="M52.259,45.173v95.522h1.626c0.17-0.015,0.346-0.021,0.514-0.052v-95.47H52.259z"/>
		<path fill="#5D6AB2" d="M59.486,31.729l-22.384-0.036c-0.126,0-0.248,0.025-0.374,0.036c-2.529,0.195-4.525,2.288-4.525,4.865
			v98.019c0,2.561,1.971,4.639,4.481,4.859V37.345h0.045h22.758h0.047V139.47c2.507-0.22,4.482-2.298,4.482-4.858V36.593
			C64.013,34.016,62.015,31.923,59.486,31.729z"/>
		<polygon fill="#5D6AB2" points="54.972,105.322 40.617,105.322 40.617,99.618 54.972,99.618 51.116,102.467 		"/>
	</g>
	<g>
		<path fill="#FDEEF5" d="M106.463,137.079c0.135-0.038,0.275-0.056,0.407-0.103l14.27-5.214c0.118-0.043,0.221-0.109,0.334-0.162
			l-1.527,0.558l-32.78-89.721l2.007-0.73l32.765,89.67c2.002-1.175,2.949-3.639,2.127-5.896L90.683,34.12l-19.267,7.04
			L106.463,137.079z M82.146,44.272l2.008-0.734l32.783,89.72l-2.01,0.736L82.146,44.272z M77.125,46.106l2.007-0.733l32.782,89.72
			l-2.01,0.732L77.125,46.106z"/>
		
			<rect x="93.448" y="42.842" transform="matrix(-0.9395 0.3426 -0.3426 -0.9395 214.3544 143.3345)" fill="#F0AECE" width="2.136" height="95.519"/>
		
			<rect x="98.47" y="41.011" transform="matrix(-0.9392 0.3435 -0.3435 -0.9392 223.5155 137.9517)" fill="#F0AECE" width="2.138" height="95.524"/>
		<path fill="#F0AECE" d="M87.166,42.437l32.781,89.72l1.527-0.558c0.154-0.072,0.317-0.139,0.463-0.224L89.173,41.707
			L87.166,42.437z"/>
		<path fill="#5D6AB2" d="M89.343,27.331l-21.04,7.646c-0.121,0.045-0.222,0.11-0.339,0.167c-2.309,1.05-3.465,3.699-2.583,6.12
			l33.64,92.063c0.878,2.405,3.446,3.683,5.875,3.022L69.85,40.433l0.042-0.019l21.378-7.81l0.042-0.015l35.044,95.92
			c2.281-1.066,3.423-3.692,2.541-6.101L95.26,30.347C94.374,27.925,91.785,26.645,89.343,27.331z"/>
		<polygon fill="#5D6AB2" points="101.369,70.734 87.887,75.66 85.93,70.304 99.41,65.377 96.77,69.375 		"/>
	</g>
	<g>
		<path fill="#FDEEF5" d="M6.067,140.691c0.138,0.011,0.276,0.041,0.417,0.041h15.193c0.127,0,0.245-0.024,0.369-0.036h-1.627
			V45.173h2.14v95.47c2.282-0.414,4.017-2.405,4.017-4.81V38.567H6.067V140.691z M15.076,45.173h2.137v95.522h-2.137V45.173z
			 M9.731,45.173h2.138v95.522H9.731V45.173z"/>
		<rect x="9.731" y="45.173" fill="#F0AECE" width="2.138" height="95.522"/>
		<rect x="15.076" y="45.173" fill="#F0AECE" width="2.137" height="95.522"/>
		<path fill="#F0AECE" d="M20.42,45.173v95.522h1.627c0.17-0.015,0.345-0.021,0.514-0.052v-95.47H20.42z"/>
		<path fill="#5D6AB2" d="M27.647,31.729L5.263,31.692c-0.126,0-0.247,0.025-0.373,0.036c-2.53,0.195-4.526,2.288-4.526,4.865
			v98.019c0,2.561,1.971,4.639,4.482,4.859V37.345h0.045h22.757h0.047V139.47c2.508-0.22,4.482-2.298,4.482-4.858V36.593
			C32.175,34.016,30.177,31.923,27.647,31.729z"/>
		<polygon fill="#5D6AB2" points="23.134,105.322 8.779,105.322 8.779,99.618 23.134,99.618 19.28,102.467 		"/>
	</g>
	<g>
		<path fill="#FDEEF5" d="M0.094,5.714C0.084,5.851,0.053,5.989,0.053,6.131v15.193c0,0.127,0.025,0.244,0.036,0.368v-1.625h95.522
			v2.139H0.14c0.415,2.282,2.406,4.017,4.81,4.017h97.267V5.714H0.094z M95.612,14.722v2.137H0.089v-2.137H95.612z M95.612,9.376
			v2.139H0.089V9.376H95.612z"/>
		<rect x="0.089" y="9.376" fill="#F0AECE" width="95.522" height="2.139"/>
		<rect x="0.089" y="14.722" fill="#F0AECE" width="95.522" height="2.137"/>
		<path fill="#F0AECE" d="M95.612,20.066H0.089v1.625c0.015,0.17,0.021,0.346,0.052,0.515h95.471L95.612,20.066L95.612,20.066z"/>
		<path fill="#5D6AB2" d="M109.056,27.292l0.036-22.383c0-0.126-0.025-0.248-0.036-0.373c-0.195-2.53-2.288-4.526-4.865-4.526H6.173
			c-2.561,0-4.639,1.971-4.859,4.482h102.125v0.045v22.757v0.047H1.314c0.219,2.507,2.297,4.482,4.859,4.482h98.02
			C106.768,31.821,108.861,29.823,109.056,27.292z"/>
		<polygon fill="#5D6AB2" points="35.462,22.779 35.462,8.424 41.165,8.424 41.165,22.779 38.316,18.923 		"/>
	</g>
</g>
</svg>
