<?xml version="1.0" encoding="utf-8"?>
<!-- Generator: Adobe Illustrator 16.0.0, SVG Export Plug-In . SVG Version: 6.00 Build 0)  -->
<!DOCTYPE svg PUBLIC "-//W3C//DTD SVG 1.1//EN" "http://www.w3.org/Graphics/SVG/1.1/DTD/svg11.dtd">
<svg version="1.1" id="Layer_1" xmlns="http://www.w3.org/2000/svg" xmlns:xlink="http://www.w3.org/1999/xlink" x="0px" y="0px"
	 width="62.748px" height="99.959px" viewBox="0 0 62.748 99.959" enable-background="new 0 0 62.748 99.959" xml:space="preserve">
<g>
	<path fill="#B771AF" d="M44.396,97.076c0,1.592-1.291,2.883-2.883,2.883h-4.084c-1.594,0-2.885-1.291-2.885-2.883V18.262
		c0-1.592,1.291-2.883,2.885-2.883h4.084c1.592,0,2.883,1.291,2.883,2.883V97.076z"/>
	<g>
		<path fill="#54459C" d="M62.748,97.076c0,1.592-0.815,2.883-1.819,2.883H46.066c-1.004,0-1.82-1.291-1.82-2.883V9.85
			c0-1.592,0.816-2.883,1.82-2.883h14.862c1.004,0,1.819,1.291,1.819,2.883V97.076z"/>
		<rect x="44.239" y="20.543" fill="#E972AC" width="18.449" height="5.289"/>
	</g>
	<g>
		<path fill="#812990" d="M34.603,92.75c0,3.982-3.227,7.209-7.209,7.209H7.209C3.227,99.959,0,96.732,0,92.75V7.207
			C0,3.225,3.227,0,7.209,0h20.185c3.982,0,7.209,3.225,7.209,7.207V92.75z"/>
		<rect x="4.325" y="9.129" fill="#EDA2C7" width="25.951" height="72.809"/>
		<circle fill="#723594" cx="17.302" cy="90.709" r="4.866"/>
	</g>
</g>
</svg>
