<?xml version="1.0" encoding="utf-8"?>
<!-- Generator: Adobe Illustrator 16.0.0, SVG Export Plug-In . SVG Version: 6.00 Build 0)  -->
<!DOCTYPE svg PUBLIC "-//W3C//DTD SVG 1.1//EN" "http://www.w3.org/Graphics/SVG/1.1/DTD/svg11.dtd">
<svg version="1.1" id="Layer_1" xmlns="http://www.w3.org/2000/svg" xmlns:xlink="http://www.w3.org/1999/xlink" x="0px" y="0px"
	 width="191.292px" height="187.438px" viewBox="0 0 191.292 187.438" enable-background="new 0 0 191.292 187.438"
	 xml:space="preserve">
<g>
	<rect x="0.042" y="146.646" fill="#E376AE" width="54" height="6.5"/>
	<path fill="#E376AE" d="M0.042,175.979c0,5.523,4.477,10,10,10h34c5.523,0,10-4.477,10-10v-12.833h-54V175.979z"/>
	<path fill="#E376AE" d="M54.042,9.979c0-5.522-4.477-10-10-10h-34c-5.523,0-10,4.478-10,10v126.667h54V9.979z"/>
	<rect x="0.042" y="136.646" fill="#FBD8E7" width="54" height="10"/>
	<rect x="0.042" y="153.146" fill="#FBD8E7" width="54" height="10"/>
	<path fill="#FBD8E7" d="M46.042,109.979c0,5.522-4.477,10-10,10h-18c-5.523,0-10-4.478-10-10v-73.5c0-5.522,4.477-10,10-10h18
		c5.523,0,10,4.478,10,10V109.979z"/>
	<path fill="#FBD8E7" d="M55.042,136.646v10v6.5v10v12.833c0,5.523,4.477,10,10,10h34c5.523,0,10-4.477,10-10v-12.833v-10v-6.5v-10
		V34.979h-54V136.646z"/>
	<path fill="#FBD8E7" d="M109.042,9.979c0-5.522-4.477-10-10-10h-34c-5.523,0-10,4.478-10,10v9.5h54V9.979z"/>
	<rect x="55.042" y="19.479" fill="#E376AE" width="54" height="15.5"/>
</g>
<g>
	<path fill="#FDEEF5" d="M119.613,182.729c0.208,0.059,0.41,0.15,0.618,0.191l22.937,4.357c0.191,0.036,0.377,0.028,0.571,0.046
		l-2.454-0.468l29.44-154.877l3.221,0.62l-29.42,154.787c3.575-0.018,6.809-2.744,7.554-6.644l29.974-157.702l-30.969-5.887
		L119.613,182.729z M162.653,30.449l3.227,0.612l-29.437,154.878l-3.23-0.61L162.653,30.449z M154.585,28.915l3.225,0.609
		l-29.438,154.878l-3.232-0.614L154.585,28.915z"/>
	<polygon fill="#F0AECE" points="157.81,29.524 154.585,28.915 125.14,183.788 128.373,184.402 	"/>
	
		<rect x="147.904" y="29.369" transform="matrix(0.9825 0.1864 -0.1864 0.9825 22.7944 -25.9846)" fill="#F0AECE" width="3.284" height="157.653"/>
	<path fill="#F0AECE" d="M170.725,31.979l-29.44,154.877l2.454,0.468c0.258,0.026,0.528,0.069,0.787,0.063L173.946,32.6
		L170.725,31.979z"/>
	<path fill="#5D6AB2" d="M185.779,12.265l-33.783-6.49c-0.197-0.033-0.379-0.025-0.58-0.042c-3.875-0.414-7.534,2.408-8.332,6.582
		l-30.204,158.92c-0.791,4.156,1.546,8.097,5.267,9.162l31.472-165.574l0.069,0.013l34.36,6.53l0.067,0.016l-31.477,165.575
		c3.854,0.366,7.473-2.434,8.26-6.59L191.11,21.445C191.904,17.266,189.537,13.303,185.779,12.265z"/>
	<polygon fill="#5D6AB2" points="170,64.28 148.327,60.161 150.086,50.915 171.756,55.034 165.055,58.547 	"/>
</g>
</svg>
