<?xml version="1.0" encoding="utf-8"?>
<!-- Generator: Adobe Illustrator 16.0.0, SVG Export Plug-In . SVG Version: 6.00 Build 0)  -->
<!DOCTYPE svg PUBLIC "-//W3C//DTD SVG 1.1//EN" "http://www.w3.org/Graphics/SVG/1.1/DTD/svg11.dtd">
<svg version="1.1" id="Layer_1" xmlns="http://www.w3.org/2000/svg" xmlns:xlink="http://www.w3.org/1999/xlink" x="0px" y="0px"
	 width="114.957px" height="97.556px" viewBox="0 0 114.957 97.556" enable-background="new 0 0 114.957 97.556"
	 xml:space="preserve">
<g>
	<g>
		<path fill="#5D6AB2" d="M6.047,97.53c0.095,0.008,0.186,0.026,0.285,0.026h10.334c0.086,0,0.166-0.02,0.251-0.023h-1.106V32.558
			h1.454v64.939c1.554-0.282,2.734-1.636,2.734-3.272V28.063H6.047V97.53z M12.175,32.558h1.455v64.975h-1.455V32.558z
			 M8.538,32.558h1.454v64.975H8.538V32.558z"/>
		<rect x="8.538" y="32.558" fill="#54459C" width="1.454" height="64.975"/>
		<rect x="12.175" y="32.558" fill="#54459C" width="1.455" height="64.975"/>
		<path fill="#54459C" d="M15.811,32.558v64.975h1.106c0.116-0.01,0.235-0.014,0.349-0.035V32.558H15.811z"/>
		<path fill="#2D2C7A" d="M20.726,23.411L5.5,23.388c-0.089,0-0.169,0.019-0.255,0.023c-1.719,0.133-3.078,1.557-3.078,3.309v66.672
			c0,1.743,1.343,3.156,3.048,3.306V27.232h0.03h15.481h0.029v69.467c1.706-0.146,3.049-1.562,3.049-3.304V26.72
			C23.806,24.968,22.446,23.546,20.726,23.411z"/>
		<polygon fill="#FBD8E7" points="18.132,83.606 8.368,83.606 8.368,79.727 18.132,79.727 15.508,81.666 		"/>
	</g>
	<g>
		<path fill="#5D6AB2" d="M29.315,97.53c0.097,0.008,0.187,0.026,0.286,0.026h10.334c0.087,0,0.166-0.02,0.251-0.023H39.08V32.558
			h1.454v64.939c1.552-0.282,2.734-1.636,2.734-3.272V28.063H29.315V97.53z M35.443,32.558h1.454v64.975h-1.454V32.558z
			 M31.807,32.558h1.456v64.975h-1.456V32.558z"/>
		<rect x="31.807" y="32.558" fill="#54459C" width="1.456" height="64.975"/>
		<rect x="35.443" y="32.558" fill="#54459C" width="1.454" height="64.975"/>
		<path fill="#54459C" d="M39.078,32.558v64.975h1.106c0.117-0.01,0.236-0.014,0.348-0.035V32.558H39.078z"/>
		<path fill="#2D2C7A" d="M43.994,23.411l-15.226-0.023c-0.088,0-0.171,0.019-0.255,0.023c-1.72,0.133-3.077,1.557-3.077,3.309
			v66.672c0,1.743,1.341,3.156,3.046,3.306V27.232h0.03h15.482h0.029v69.467c1.706-0.146,3.048-1.562,3.048-3.304V26.72
			C47.073,24.968,45.714,23.546,43.994,23.411z"/>
		<polygon fill="#FBD8E7" points="41.364,73.284 31.601,73.284 31.601,69.406 41.364,69.406 38.742,71.345 		"/>
		<polygon fill="#FBD8E7" points="41.364,60.095 31.601,60.095 31.601,56.212 41.364,56.212 38.742,58.155 		"/>
	</g>
	<g>
		<path fill="#5D6AB2" d="M52.859,97.53c0.095,0.008,0.189,0.026,0.285,0.026h10.335c0.085,0,0.165-0.02,0.25-0.023h-1.106V32.558
			h1.456v64.939c1.554-0.282,2.734-1.636,2.734-3.272V28.063H52.859V97.53z M58.989,32.558h1.454v64.975h-1.454V32.558z
			 M55.351,32.558h1.455v64.975h-1.455V32.558z"/>
		<rect x="55.351" y="32.558" fill="#54459C" width="1.455" height="64.975"/>
		<rect x="58.989" y="32.558" fill="#54459C" width="1.454" height="64.975"/>
		<path fill="#54459C" d="M62.623,32.558v64.975h1.106c0.116-0.01,0.235-0.014,0.35-0.035V32.558H62.623z"/>
		<path fill="#2D2C7A" d="M67.54,23.411l-15.227-0.023c-0.087,0-0.169,0.019-0.254,0.023c-1.72,0.133-3.078,1.557-3.078,3.309
			v66.672c0,1.743,1.34,3.156,3.048,3.306V27.232h0.03H67.54h0.029v69.467c1.707-0.146,3.048-1.562,3.048-3.304V26.72
			C70.618,24.968,69.261,23.546,67.54,23.411z"/>
		<polygon fill="#FBD8E7" points="64.979,45.69 55.215,45.69 55.215,41.811 64.979,41.811 62.356,43.751 		"/>
	</g>
	<g>
		<rect x="0.031" y="6.381" fill="#54459C" width="64.976" height="1.457"/>
		<rect x="0.031" y="10.017" fill="#54459C" width="64.976" height="1.455"/>
		<path fill="#54459C" d="M65.006,13.654H0.031v1.105c0.008,0.117,0.015,0.235,0.034,0.349h64.941V13.654z"/>
		<path fill="#5D6AB2" d="M0.028,3.88C0.021,3.976,0,4.068,0,4.165v10.333c0,0.087,0.021,0.168,0.024,0.251v-1.108H65v1.455H0.06
			c0.284,1.555,1.636,2.735,3.271,2.735h66.163V3.88H0.028z M65,10.007v1.457H0.024v-1.457H65z M65,6.373v1.454H0.024V6.373H65z"/>
		<path fill="#2D2C7A" d="M74.145,18.558L74.17,3.334c0-0.089-0.021-0.169-0.025-0.256C74.011,1.359,72.59,0,70.836,0H4.163
			C2.422,0,1.008,1.343,0.86,3.049h69.464v0.029v15.48v0.031H0.86c0.148,1.706,1.562,3.05,3.303,3.05h66.673
			C72.59,21.639,74.011,20.281,74.145,18.558z"/>
		<polygon fill="#FBD8E7" points="13.952,15.964 13.952,6.2 17.831,6.2 17.831,15.964 15.893,13.343 		"/>
	</g>
	<g>
		<path fill="#5D6AB2" d="M99.491,95.072c0.094-0.024,0.189-0.038,0.28-0.069l9.705-3.547c0.08-0.029,0.149-0.073,0.229-0.109
			l-1.039,0.377L86.368,30.695l1.365-0.495l22.287,60.994c1.361-0.8,2.006-2.475,1.446-4.01L88.759,25.04l-13.105,4.788
			L99.491,95.072z M82.951,31.943l1.367-0.498l22.299,61.029l-1.365,0.5L82.951,31.943z M79.538,33.191l1.365-0.498l22.298,61.028
			l-1.367,0.499L79.538,33.191z"/>
		
			<rect x="90.645" y="30.964" transform="matrix(0.9397 -0.3421 0.3421 0.9397 -16.1944 35.0891)" fill="#54459C" width="1.453" height="64.975"/>
		
			<rect x="94.056" y="29.712" transform="matrix(0.9389 -0.3441 0.3441 0.9389 -15.6154 36.4149)" fill="#54459C" width="1.453" height="64.977"/>
		<path fill="#54459C" d="M86.368,30.694l22.298,61.028l1.039-0.377c0.105-0.05,0.217-0.097,0.315-0.153L87.733,30.2L86.368,30.694z
			"/>
		<path fill="#2D2C7A" d="M87.848,20.422l-14.312,5.2c-0.082,0.031-0.152,0.075-0.231,0.113c-1.57,0.714-2.356,2.516-1.757,4.162
			L94.431,92.52c0.599,1.637,2.343,2.507,3.996,2.058L74.591,29.332l0.026-0.012l14.541-5.313l0.028-0.009l23.838,65.245
			c1.552-0.726,2.329-2.511,1.728-4.149L91.872,22.472C91.272,20.825,89.508,19.956,87.848,20.422z"/>
		<polygon fill="#FBD8E7" points="93.085,42.224 83.915,45.574 82.583,41.931 91.754,38.58 89.956,41.303 		"/>
	</g>
</g>
</svg>
