<?xml version="1.0" encoding="utf-8"?>
<!-- Generator: Adobe Illustrator 16.0.0, SVG Export Plug-In . SVG Version: 6.00 Build 0)  -->
<!DOCTYPE svg PUBLIC "-//W3C//DTD SVG 1.1//EN" "http://www.w3.org/Graphics/SVG/1.1/DTD/svg11.dtd">
<svg version="1.1" id="Layer_1" xmlns="http://www.w3.org/2000/svg" xmlns:xlink="http://www.w3.org/1999/xlink" x="0px" y="0px"
	 width="170.075px" height="166.684px" viewBox="0.042 -0.021 170.075 166.684"
	 enable-background="new 0.042 -0.021 170.075 166.684" xml:space="preserve">
<g>
	<g>
		<rect x="0.042" y="130.426" fill="#E376AE" width="48.028" height="5.781"/>
		<path fill="#E376AE" d="M0.042,156.516c0,4.912,3.982,8.894,8.894,8.894h30.24c4.912,0,8.894-3.981,8.894-8.894v-11.414H0.042
			V156.516z"/>
		<path fill="#E376AE" d="M48.07,8.873c0-4.911-3.982-8.894-8.894-8.894H8.936c-4.912,0-8.894,3.983-8.894,8.894v112.66H48.07V8.873
			z"/>
		<rect x="0.042" y="121.532" fill="#FBD8E7" width="48.028" height="8.894"/>
		<rect x="0.042" y="136.207" fill="#FBD8E7" width="48.028" height="8.895"/>
		<path fill="#FBD8E7" d="M40.955,97.815c0,4.911-3.982,8.894-8.894,8.894h-16.01c-4.912,0-8.894-3.982-8.894-8.894V32.442
			c0-4.911,3.982-8.894,8.894-8.894h16.01c4.912,0,8.894,3.983,8.894,8.894V97.815z"/>
		<path fill="#FBD8E7" d="M48.96,121.532v8.894v5.781v8.895v11.414c0,4.912,3.982,8.894,8.894,8.894h30.24
			c4.912,0,8.895-3.981,8.895-8.894v-11.414v-8.895v-5.781v-8.894V31.108H48.96V121.532z"/>
		<path fill="#FBD8E7" d="M96.989,8.873c0-4.911-3.982-8.894-8.895-8.894h-30.24c-4.912,0-8.894,3.983-8.894,8.894v8.45h48.029
			V8.873z"/>
		<rect x="48.96" y="17.323" fill="#E376AE" width="48.029" height="13.786"/>
	</g>
	<g>
		<path fill="#FDEEF5" d="M106.39,162.519c0.185,0.054,0.364,0.134,0.55,0.171l20.399,3.874c0.171,0.032,0.336,0.025,0.509,0.041
			l-2.183-0.416l26.185-137.75l2.864,0.551l-26.166,137.67c3.18-0.016,6.056-2.44,6.718-5.91l26.66-140.261l-27.544-5.236
			L106.39,162.519z M144.67,27.079l2.87,0.544l-26.182,137.751l-2.873-0.542L144.67,27.079z M137.495,25.715l2.868,0.542
			l-26.182,137.75l-2.875-0.546L137.495,25.715z"/>
		<polygon fill="#F0AECE" points="140.363,26.257 137.495,25.715 111.306,163.461 114.181,164.007 		"/>
		
			<rect x="131.562" y="26.115" transform="matrix(-0.9825 -0.1864 0.1864 -0.9825 245.7727 215.5633)" fill="#F0AECE" width="2.92" height="140.222"/>
		<path fill="#F0AECE" d="M151.85,28.44l-26.185,137.75l2.183,0.416c0.229,0.023,0.47,0.062,0.7,0.057l26.166-137.67L151.85,28.44z"
			/>
		<path fill="#5D6AB2" d="M165.239,10.906l-30.047-5.772c-0.176-0.028-0.337-0.021-0.517-0.037c-3.446-0.368-6.7,2.142-7.41,5.854
			l-26.863,141.346c-0.703,3.696,1.375,7.202,4.685,8.148l27.991-147.264l0.062,0.012L163.7,19l0.06,0.015L135.763,166.28
			c3.428,0.325,6.646-2.165,7.347-5.86l26.87-141.349C170.687,15.354,168.582,11.829,165.239,10.906z"/>
		<polygon fill="#5D6AB2" points="151.205,57.169 131.929,53.506 133.493,45.282 152.766,48.946 146.807,52.07 		"/>
	</g>
</g>
</svg>
