<?xml version="1.0" encoding="utf-8"?>
<!-- Generator: Adobe Illustrator 16.0.0, SVG Export Plug-In . SVG Version: 6.00 Build 0)  -->
<!DOCTYPE svg PUBLIC "-//W3C//DTD SVG 1.1//EN" "http://www.w3.org/Graphics/SVG/1.1/DTD/svg11.dtd">
<svg version="1.1" id="Layer_1" xmlns="http://www.w3.org/2000/svg" xmlns:xlink="http://www.w3.org/1999/xlink" x="0px" y="0px"
	 width="139.813px" height="152.333px" viewBox="0 0 139.813 152.333" enable-background="new 0 0 139.813 152.333"
	 xml:space="preserve">
<g>
	<path fill="#FDEEF5" d="M41.044,152.353c0.149,0.012,0.299,0.045,0.452,0.045h16.452c0.138,0,0.265-0.027,0.399-0.039h-1.761
		V48.917h2.317v103.385c2.471-0.449,4.35-2.605,4.35-5.209V41.763h-22.21V152.353z M50.8,48.917h2.314v103.441H50.8V48.917z
		 M45.011,48.917h2.316v103.441h-2.316V48.917z"/>
	<rect x="45.011" y="48.917" fill="#F0AECE" width="2.316" height="103.441"/>
	<rect x="50.8" y="48.917" fill="#F0AECE" width="2.314" height="103.441"/>
	<path fill="#F0AECE" d="M56.587,48.917v103.441h1.761c0.184-0.016,0.374-0.023,0.557-0.057V48.917H56.587z"/>
	<path fill="#5D6AB2" d="M64.412,34.358l-24.239-0.039c-0.137,0-0.268,0.027-0.404,0.039c-2.739,0.211-4.901,2.477-4.901,5.268
		v106.145c0,2.773,2.135,5.023,4.853,5.262V40.44h0.049h24.644h0.051v110.592c2.715-0.238,4.854-2.488,4.854-5.262V39.626
		C69.316,36.835,67.152,34.569,64.412,34.358z"/>
	<polygon fill="#5D6AB2" points="59.525,114.052 43.98,114.052 43.98,107.876 59.525,107.876 55.35,110.962 	"/>
</g>
<g>
	<path fill="#FDEEF5" d="M115.284,148.442c0.147-0.041,0.299-0.061,0.442-0.111l15.452-5.646c0.128-0.047,0.239-0.119,0.362-0.176
		l-1.654,0.604L94.388,45.954l2.173-0.791l35.481,97.104c2.168-1.273,3.194-3.941,2.304-6.385L98.197,36.948l-20.865,7.623
		L115.284,148.442z M88.951,47.942l2.174-0.795l35.501,97.158l-2.176,0.797L88.951,47.942z M83.515,49.927l2.173-0.793l35.5,97.158
		l-2.177,0.793L83.515,49.927z"/>
	
		<rect x="101.193" y="46.39" transform="matrix(0.9394 -0.3428 0.3428 0.9394 -27.4321 41.0337)" fill="#F0AECE" width="2.313" height="103.439"/>
	
		<rect x="106.63" y="44.404" transform="matrix(0.9392 -0.3434 0.3434 0.9392 -26.4567 42.8649)" fill="#F0AECE" width="2.315" height="103.442"/>
	<path fill="#F0AECE" d="M94.388,45.954l35.499,97.158l1.654-0.604c0.167-0.078,0.344-0.15,0.501-0.242L96.561,45.163L94.388,45.954
		z"/>
	<path fill="#5D6AB2" d="M96.745,29.595l-22.784,8.281c-0.131,0.049-0.24,0.119-0.367,0.18c-2.5,1.137-3.752,4.006-2.797,6.627
		l36.428,99.695c0.951,2.605,3.732,3.988,6.362,3.273L75.636,43.784l0.045-0.02l23.15-8.457l0.046-0.016l37.949,103.871
		c2.471-1.154,3.707-3.998,2.752-6.605l-36.425-99.695C102.194,30.239,99.39,28.853,96.745,29.595z"/>
	<polygon fill="#5D6AB2" points="109.769,76.597 95.168,81.931 93.049,76.132 107.648,70.796 104.787,75.126 	"/>
</g>
<g>
	<path fill="#FDEEF5" d="M6.566,152.353c0.149,0.012,0.299,0.045,0.452,0.045h16.452c0.138,0,0.266-0.027,0.399-0.039h-1.761V48.917
		h2.317v103.385c2.472-0.449,4.35-2.605,4.35-5.209V41.763H6.566V152.353z M16.322,48.917h2.314v103.441h-2.314V48.917z
		 M10.533,48.917h2.316v103.441h-2.316V48.917z"/>
	<rect x="10.533" y="48.917" fill="#F0AECE" width="2.316" height="103.441"/>
	<rect x="16.322" y="48.917" fill="#F0AECE" width="2.314" height="103.441"/>
	<path fill="#F0AECE" d="M22.109,48.917v103.441h1.761c0.185-0.016,0.374-0.023,0.557-0.057V48.917H22.109z"/>
	<path fill="#5D6AB2" d="M29.935,34.358L5.695,34.319c-0.137,0-0.268,0.027-0.404,0.039c-2.739,0.211-4.901,2.477-4.901,5.268
		v106.145c0,2.773,2.135,5.023,4.853,5.262V40.44h0.049h24.644h0.051v110.592c2.715-0.238,4.853-2.488,4.853-5.262V39.626
		C34.838,36.835,32.675,34.569,29.935,34.358z"/>
	<polygon fill="#5D6AB2" points="25.047,114.052 9.502,114.052 9.502,107.876 25.047,107.876 20.873,110.962 	"/>
</g>
<g>
	<path fill="#FDEEF5" d="M0.098,6.187C0.086,6.335,0.053,6.485,0.053,6.638v16.453c0,0.137,0.027,0.264,0.039,0.398v-1.76h103.441
		v2.316H0.148c0.449,2.471,2.605,4.35,5.209,4.35h105.33V6.187H0.098z M103.533,15.942v2.314H0.092v-2.314H103.533z M103.533,10.153
		v2.316H0.092v-2.316H103.533z"/>
	<rect x="0.092" y="10.153" fill="#F0AECE" width="103.441" height="2.316"/>
	<rect x="0.092" y="15.942" fill="#F0AECE" width="103.441" height="2.314"/>
	<path fill="#F0AECE" d="M103.533,21.729H0.092v1.76c0.016,0.184,0.023,0.375,0.057,0.557h103.385V21.729z"/>
	<path fill="#5D6AB2" d="M118.092,29.554l0.039-24.238c0-0.137-0.027-0.268-0.039-0.404c-0.211-2.74-2.477-4.902-5.268-4.902H6.68
		c-2.773,0-5.023,2.135-5.262,4.854H112.01v0.049v24.643v0.051H1.418c0.238,2.715,2.488,4.854,5.262,4.854h106.145
		C115.615,34.458,117.881,32.294,118.092,29.554z"/>
	<polygon fill="#5D6AB2" points="38.398,24.667 38.398,9.122 44.574,9.122 44.574,24.667 41.488,20.491 	"/>
</g>
</svg>
