<?xml version="1.0" encoding="utf-8"?>
<!-- Generator: Adobe Illustrator 16.0.0, SVG Export Plug-In . SVG Version: 6.00 Build 0)  -->
<!DOCTYPE svg PUBLIC "-//W3C//DTD SVG 1.1//EN" "http://www.w3.org/Graphics/SVG/1.1/DTD/svg11.dtd">
<svg version="1.1" id="Layer_1" xmlns="http://www.w3.org/2000/svg" xmlns:xlink="http://www.w3.org/1999/xlink" x="0px" y="0px"
	 width="189.377px" height="188.004px" viewBox="0 0 189.377 188.004" enable-background="new 0 0 189.377 188.004"
	 xml:space="preserve">
<g>
	<path fill="#F7BBD5" d="M121.74,131.104c-7.894,0.068-16.159-0.52-23.938-1.885c-20.695-3.635-43.572-18.617-44.849-41.527
		c-0.767-13.777,2.12-26.34,5.102-39.586c2.256-10.023,4.501-23.395-7.823-27.742c-3.824-1.348-8.011-1.922-12.226-1.867
		C14.945,35.625,0,63.068,0,94.002c0,51.916,42.086,94.002,94.002,94.002c41.956,0,77.485-27.488,89.576-65.436
		c-7.151,2.242-14.785,3.424-21.94,4.473C148.397,128.982,135.153,130.984,121.74,131.104z"/>
	<path fill="#FBD8E7" d="M94.002,0C73.021,0,53.647,6.877,38.007,18.496c4.215-0.055,8.401,0.52,12.226,1.867
		c12.324,4.348,10.079,17.719,7.823,27.742c-2.981,13.246-5.868,25.809-5.102,39.586c1.276,22.91,24.153,37.893,44.849,41.527
		c7.778,1.365,16.044,1.953,23.938,1.885c13.413-0.119,26.657-2.121,39.897-4.063c7.155-1.049,14.789-2.23,21.94-4.473
		c2.872-9.01,4.426-18.604,4.426-28.566C188.004,42.086,145.917,0,94.002,0z"/>
	<circle fill="#F0AECE" cx="92.486" cy="39.42" r="7.329"/>
	<circle fill="#F0AECE" cx="117.25" cy="26.785" r="7.328"/>
	<circle fill="#F0AECE" cx="134.433" cy="63.68" r="7.328"/>
	<path fill="none" stroke="#FFFFFF" stroke-width="15" stroke-linecap="round" stroke-miterlimit="10" d="M121.482,10.139
		c14.31,4.834,27.29,11.846,40.558,27.766"/>
	<path fill="none" stroke="#FFFFFF" stroke-width="15" stroke-linecap="round" stroke-miterlimit="10" d="M172.227,52.971
		c4.786,9.57,8.386,16.93,9.65,34.904"/>
</g>
</svg>
