<?xml version="1.0" encoding="utf-8"?>
<!-- Generator: Adobe Illustrator 16.0.0, SVG Export Plug-In . SVG Version: 6.00 Build 0)  -->
<!DOCTYPE svg PUBLIC "-//W3C//DTD SVG 1.1//EN" "http://www.w3.org/Graphics/SVG/1.1/DTD/svg11.dtd">
<svg version="1.1" id="Layer_1" xmlns="http://www.w3.org/2000/svg" xmlns:xlink="http://www.w3.org/1999/xlink" x="0px" y="0px"
	 width="338.938px" height="323.417px" viewBox="0 0 338.938 323.417" enable-background="new 0 0 338.938 323.417"
	 xml:space="preserve">
<g>
	<g>
		<path fill="#FBD8E7" d="M119.057,50.004c0.394-3.357,0.76-6.744,0.76-10.129c0-19.885-6.908-36.006-15.431-36.006
			S88.955,19.99,88.955,39.875c0,3.371,0.467,7.998,1.103,12.859h28.652C118.827,51.824,118.949,50.916,119.057,50.004z"/>
		<path fill="#FBD8E7" d="M115.75,77.146c-0.114-2.42-0.012-4.844,0.387-7.256c0.354-2.145,0.698-4.291,1.036-6.441H91.619
			c1.021,6.545,1.943,12.068,1.943,13.717c0,1.707-0.133,3.424-0.359,5.143h23.102C116.032,80.596,115.832,78.873,115.75,77.146z"/>
		<path fill="#FBD8E7" d="M133.747,140.23c-5.024-15.711-10.237-31.381-14.899-47.205H90.764c-1.317,4.359-2.889,8.643-4.234,12.736
			c-4.076,12.393-8.537,24.662-12.679,37.033c-7.138,21.326-6.46,42.973-3.622,64.992c0.87,6.756,1.85,13.494,2.837,20.232
			c0.374,2.551,1.316,5.598,1.316,8.17c0,2.76,13.433,5,30.004,5s23.039-2.107,30.004-5c0.411-5.555,1.545-11.576,2.246-17.133
			c1.671-13.232,3.644-26.488,3.648-39.857C140.289,165.863,137.8,152.906,133.747,140.23z"/>
		<path fill="#54459C" d="M118.71,52.734H90.058c0.469,3.582,1.028,7.287,1.562,10.715h25.554
			C117.732,59.885,118.252,56.313,118.71,52.734z"/>
		<path fill="#54459C" d="M118.81,92.896c-1.013-3.438-1.932-6.99-2.505-10.588H93.203c-0.471,3.584-1.369,7.174-2.439,10.717
			h28.084C118.835,92.982,118.822,92.939,118.81,92.896z"/>
	</g>
	<g>
		<path fill="#FEF3F8" d="M108.958,48.447c0,1.43-0.074,2.859-0.179,4.287h9.932c0.117-0.91,0.239-1.818,0.346-2.73
			c0.395-3.357,0.761-6.744,0.761-10.129c0-19.885-6.908-36.006-15.431-36.006c-3.824,0-7.321,3.254-10.017,8.629
			C102.5,13.52,108.958,29.223,108.958,48.447z"/>
		<path fill="#FEF3F8" d="M106.314,72.021c-0.338,2.15-0.682,4.297-1.036,6.441c-0.211,1.279-0.335,2.563-0.392,3.846h11.42
			c-0.273-1.713-0.475-3.436-0.556-5.162c-0.114-2.42-0.013-4.844,0.386-7.256c0.354-2.145,0.699-4.291,1.037-6.441h-9.613
			C107.175,66.311,106.763,69.17,106.314,72.021z"/>
		<path fill="#FEF3F8" d="M133.748,140.23c-5.024-15.711-10.237-31.381-14.899-47.205h-13.011c0.562,2.863,1.303,5.691,2.113,8.445
			c0.013,0.041,0.025,0.084,0.039,0.127c4.662,15.826,9.875,31.494,14.898,47.205c4.053,12.676,6.542,25.633,6.537,38.969
			c-0.005,13.369-1.977,26.625-3.648,39.857c-0.486,3.854-1.176,7.928-1.693,11.918c4.014-0.869,7.109-2.031,10.307-3.357
			c0.411-5.555,1.545-11.576,2.246-17.133c1.671-13.232,3.644-26.488,3.648-39.857C140.289,165.863,137.801,152.906,133.748,140.23z
			"/>
		<path fill="#8076B7" d="M108.198,58.578c-0.107,0.91-0.229,1.818-0.347,2.729c-0.092,0.715-0.195,1.428-0.291,2.143h9.613
			c0.56-3.564,1.08-7.137,1.537-10.715h-9.932C108.635,54.688,108.426,56.637,108.198,58.578z"/>
		<path fill="#8076B7" d="M104.893,85.719c0.081,1.727,0.281,3.449,0.555,5.164c0.113,0.717,0.251,1.43,0.391,2.143h13.011
			c-0.013-0.043-0.026-0.086-0.038-0.129c-1.013-3.438-1.932-6.99-2.504-10.588h-11.42
			C104.838,83.447,104.839,84.584,104.893,85.719z"/>
	</g>
</g>
<g>
	<g>
		<path fill="#FBD8E7" d="M59.521,53.93c0.46-3.918,0.887-7.867,0.887-11.816c0-23.197-8.059-42-18-42s-18,18.803-18,42
			c0,3.932,0.545,9.328,1.286,15h33.423C59.254,56.053,59.396,54.992,59.521,53.93z"/>
		<path fill="#FBD8E7" d="M55.665,85.59c-0.134-2.822-0.015-5.65,0.45-8.465c0.413-2.5,0.815-5.006,1.209-7.512H27.517
			c1.189,7.635,2.267,14.076,2.267,16c0,1.992-0.155,3.994-0.419,6h26.948C55.994,89.613,55.76,87.604,55.665,85.59z"/>
		<path fill="#FBD8E7" d="M76.658,159.178c-5.86-18.328-11.941-36.605-17.38-55.064H26.518c-1.536,5.086-3.369,10.082-4.939,14.855
			c-4.755,14.457-9.958,28.77-14.789,43.201c-8.326,24.875-7.535,50.127-4.226,75.814c1.016,7.879,2.157,15.74,3.31,23.6
			c0.437,2.977,1.535,6.531,1.535,9.529c0,3.221,15.67,5.834,35,5.834s26.875-2.459,35-5.834c0.479-6.479,1.802-13.504,2.62-19.984
			c1.949-15.436,4.25-30.898,4.256-46.494C84.289,189.078,81.386,173.965,76.658,159.178z"/>
		<path fill="#54459C" d="M59.117,57.113H25.694c0.547,4.178,1.2,8.5,1.822,12.5h29.808C57.978,65.453,58.584,61.287,59.117,57.113z
			"/>
		<path fill="#54459C" d="M59.233,103.963c-1.181-4.01-2.253-8.154-2.921-12.35H29.364c-0.55,4.178-1.598,8.367-2.847,12.5h32.761
			C59.264,104.063,59.248,104.014,59.233,103.963z"/>
	</g>
	<g>
		<path fill="#FEF3F8" d="M47.742,52.113c0,1.668-0.087,3.334-0.209,5h11.585c0.137-1.061,0.279-2.121,0.404-3.184
			c0.46-3.918,0.887-7.867,0.887-11.816c0-23.197-8.059-42-18-42c-4.461,0-8.54,3.795-11.685,10.064
			C40.209,11.369,47.742,29.686,47.742,52.113z"/>
		<path fill="#FEF3F8" d="M44.658,79.613c-0.394,2.506-0.796,5.012-1.209,7.512c-0.246,1.494-0.391,2.99-0.456,4.488h13.32
			c-0.318-2-0.553-4.01-0.647-6.023c-0.134-2.822-0.015-5.65,0.45-8.465c0.413-2.5,0.815-5.006,1.209-7.512H46.111
			C45.662,72.951,45.181,76.285,44.658,79.613z"/>
		<path fill="#FEF3F8" d="M76.659,159.178c-5.86-18.328-11.941-36.605-17.38-55.064H44.103c0.654,3.34,1.52,6.639,2.465,9.85
			c0.015,0.051,0.03,0.1,0.045,0.15c5.438,18.459,11.52,36.736,17.38,55.064c4.728,14.787,7.631,29.9,7.626,45.457
			c-0.006,15.596-2.307,31.059-4.256,46.494c-0.567,4.494-1.372,9.248-1.976,13.902c4.682-1.014,8.293-2.369,12.022-3.918
			c0.479-6.479,1.802-13.504,2.62-19.984c1.949-15.436,4.25-30.898,4.256-46.494C84.29,189.078,81.387,173.965,76.659,159.178z"/>
		<path fill="#8076B7" d="M46.855,63.93c-0.125,1.063-0.268,2.123-0.404,3.184c-0.106,0.834-0.229,1.666-0.34,2.5h11.214
			c0.653-4.16,1.26-8.326,1.793-12.5H47.533C47.365,59.391,47.121,61.666,46.855,63.93z"/>
		<path fill="#8076B7" d="M42.999,95.59c0.095,2.014,0.329,4.023,0.647,6.023c0.133,0.836,0.293,1.668,0.456,2.5h15.177
			c-0.015-0.051-0.03-0.1-0.045-0.15c-1.181-4.01-2.253-8.154-2.921-12.35h-13.32C42.936,92.939,42.937,94.266,42.999,95.59z"/>
	</g>
</g>
<g>
	<g>
		<path fill="#FBD8E7" d="M284.727,259.838c3.904-0.566,7.841-1.1,11.789-1.207c23.188-0.627,42.203,6.92,42.472,16.857
			s-18.311,18.502-41.498,19.131c-3.93,0.105-9.341-0.295-15.029-0.881l-0.904-33.41
			C282.612,260.162,283.669,259.99,284.727,259.838z"/>
		<path fill="#FBD8E7" d="M253.184,264.549c2.823,0.057,5.648-0.139,8.447-0.68c2.49-0.48,4.983-0.949,7.479-1.41l0.806,29.795
			c-7.664-0.982-14.133-1.885-16.055-1.832c-1.992,0.053-3.989,0.264-5.987,0.582l-0.729-26.939
			C249.151,264.328,251.167,264.508,253.184,264.549z"/>
		<path fill="#FBD8E7" d="M179.054,245.553c18.48,5.363,36.915,10.949,55.516,15.885l0.885,32.75
			c-5.041,1.672-9.987,3.639-14.717,5.338c-14.322,5.145-28.488,10.732-42.785,15.953c-24.641,8.996-49.904,8.889-75.672,6.275
			c-7.904-0.803-15.793-1.732-23.68-2.67c-2.988-0.355-6.57-1.359-9.569-1.277c-3.22,0.088-6.255-15.506-6.776-34.83
			c-0.523-19.322,1.73-26.932,4.883-35.145c6.465-0.654,13.451-2.166,19.907-3.16c15.378-2.365,30.772-5.084,46.362-5.512
			C148.958,238.734,164.145,241.229,179.054,245.553z"/>
		<path fill="#54459C" d="M281.556,260.328l0.904,33.41c-4.191-0.434-8.53-0.969-12.545-1.484l-0.806-29.795
			C273.249,261.693,277.397,260.973,281.556,260.328z"/>
		<path fill="#54459C" d="M234.719,261.479c4.042,1.072,8.212,2.031,12.426,2.586l0.729,26.939
			c-4.161,0.66-8.322,1.822-12.419,3.184l-0.885-32.75C234.618,261.451,234.669,261.465,234.719,261.479z"/>
	</g>
	<g>
		<path fill="#FEF3F8" d="M286.862,271.564c-1.668,0.045-3.331,0.178-4.993,0.344l-0.313-11.582c1.056-0.166,2.113-0.336,3.172-0.49
			c3.903-0.564,7.841-1.1,11.788-1.205c23.188-0.627,42.203,6.92,42.471,16.857c0.122,4.457-3.563,8.639-9.744,11.953
			C327.796,277.99,309.28,270.957,286.862,271.564z"/>
		<path fill="#FEF3F8" d="M259.455,275.391c-2.495,0.459-4.988,0.932-7.477,1.412c-1.486,0.285-2.979,0.471-4.474,0.576
			l-0.361-13.314c2.008,0.264,4.023,0.443,6.04,0.482c2.823,0.059,5.648-0.137,8.447-0.678c2.49-0.48,4.982-0.951,7.479-1.412
			l0.303,11.211C266.087,274.207,262.769,274.777,259.455,275.391z"/>
		<path fill="#FEF3F8" d="M179.053,245.553c18.481,5.361,36.916,10.947,55.516,15.885l0.411,15.172
			c-3.357-0.564-6.678-1.34-9.914-2.199c-0.05-0.012-0.101-0.025-0.15-0.041c-18.601-4.938-37.035-10.52-55.515-15.883
			c-14.91-4.326-30.097-6.82-45.647-6.395c-15.589,0.428-30.984,3.146-46.362,5.514c-4.478,0.686-9.207,1.619-13.844,2.35
			c0.888-4.707,2.146-8.355,3.592-12.125c6.464-0.654,13.45-2.166,19.906-3.16c15.378-2.365,30.773-5.084,46.362-5.51
			C148.958,238.734,164.145,241.227,179.053,245.553z"/>
		<path fill="#8076B7" d="M275.073,272.77c-1.059,0.154-2.113,0.326-3.171,0.49c-0.83,0.129-1.659,0.273-2.49,0.408l-0.303-11.211
			c4.141-0.766,8.289-1.484,12.446-2.131l0.313,11.582C279.595,272.137,277.33,272.443,275.073,272.77z"/>
		<path fill="#8076B7" d="M243.529,277.482c-2.016-0.041-4.031-0.221-6.039-0.486c-0.839-0.109-1.675-0.248-2.511-0.387
			l-0.411-15.172c0.05,0.014,0.102,0.027,0.151,0.041c4.041,1.07,8.211,2.031,12.424,2.586l0.361,13.314
			C246.181,277.473,244.854,277.508,243.529,277.482z"/>
	</g>
</g>
</svg>
