<?xml version="1.0" encoding="utf-8"?>
<!-- Generator: Adobe Illustrator 16.0.0, SVG Export Plug-In . SVG Version: 6.00 Build 0)  -->
<!DOCTYPE svg PUBLIC "-//W3C//DTD SVG 1.1//EN" "http://www.w3.org/Graphics/SVG/1.1/DTD/svg11.dtd">
<svg version="1.1" id="Layer_1" xmlns="http://www.w3.org/2000/svg" xmlns:xlink="http://www.w3.org/1999/xlink" x="0px" y="0px"
	 width="281.774px" height="268.806px" viewBox="0.216 0.113 281.774 268.806" enable-background="new 0.216 0.113 281.774 268.806"
	 xml:space="preserve">
<g>
	<g>
		<g>
			<path fill="#FBD8E7" d="M99.061,41.609c0.328-2.792,0.632-5.608,0.632-8.425c0-16.539-5.746-29.948-12.834-29.948
				c-7.089,0-12.834,13.409-12.834,29.948c0,2.804,0.388,6.653,0.917,10.696h23.832C98.87,43.123,98.971,42.368,99.061,41.609z"/>
			<path fill="#FBD8E7" d="M96.311,64.185c-0.095-2.013-0.011-4.029,0.322-6.035c0.294-1.785,0.581-3.569,0.861-5.358H76.24
				c0.849,5.444,1.615,10.038,1.615,11.409c0,1.42-0.11,2.848-0.298,4.279h19.215C96.545,67.055,96.379,65.621,96.311,64.185z"/>
			<path fill="#FBD8E7" d="M111.281,116.655c-4.18-13.067-8.515-26.101-12.393-39.263H75.529c-1.096,3.625-2.403,7.188-3.522,10.594
				c-3.39,10.307-7.1,20.511-10.546,30.801c-5.937,17.738-5.373,35.743-3.013,54.058c0.724,5.618,1.54,11.224,2.36,16.828
				c0.311,2.121,1.095,4.656,1.095,6.796c0,2.295,11.172,4.158,24.956,4.158c13.783,0,19.163-1.753,24.956-4.158
				c0.342-4.622,1.285-9.629,1.868-14.251c1.39-11.006,3.031-22.031,3.034-33.151C116.721,137.975,114.651,127.198,111.281,116.655z
				"/>
			<path fill="#54459C" d="M98.773,43.881H74.942c0.39,2.979,0.855,6.061,1.3,8.912h21.254
				C97.959,49.829,98.392,46.857,98.773,43.881z"/>
			<path fill="#54459C" d="M98.856,77.285c-0.842-2.86-1.606-5.814-2.083-8.807H77.558c-0.392,2.981-1.139,5.967-2.029,8.914h23.358
				C98.877,77.356,98.866,77.321,98.856,77.285z"/>
		</g>
		<g>
			<path fill="#FEF3F8" d="M90.662,40.314c0,1.189-0.062,2.378-0.149,3.566h8.262c0.097-0.757,0.199-1.513,0.287-2.271
				c0.329-2.792,0.633-5.608,0.633-8.425c0-16.539-5.745-29.948-12.834-29.948c-3.18,0-6.089,2.707-8.331,7.177
				C85.291,11.264,90.662,24.325,90.662,40.314z"/>
			<path fill="#FEF3F8" d="M88.463,59.922c-0.281,1.788-0.567,3.574-0.862,5.357c-0.176,1.064-0.279,2.133-0.326,3.2h9.499
				c-0.227-1.425-0.395-2.858-0.462-4.293c-0.095-2.013-0.011-4.029,0.321-6.035c0.294-1.785,0.582-3.569,0.862-5.358h-7.996
				C89.178,55.173,88.836,57.551,88.463,59.922z"/>
			<path fill="#FEF3F8" d="M111.281,116.655c-4.179-13.067-8.515-26.101-12.392-39.263H88.067c0.466,2.381,1.083,4.733,1.758,7.024
				c0.01,0.034,0.02,0.07,0.031,0.105c3.878,13.163,8.214,26.194,12.392,39.263c3.371,10.543,5.441,21.32,5.438,32.412
				c-0.004,11.119-1.645,22.146-3.035,33.15c-0.404,3.206-0.978,6.595-1.408,9.913c3.338-0.723,5.913-1.689,8.573-2.792
				c0.342-4.62,1.285-9.629,1.868-14.25c1.39-11.006,3.031-22.031,3.035-33.151C116.721,137.975,114.652,127.198,111.281,116.655z"
				/>
			<path fill="#8076B7" d="M90.03,48.741c-0.089,0.757-0.19,1.512-0.289,2.27c-0.077,0.595-0.163,1.188-0.242,1.782h7.996
				c0.465-2.964,0.899-5.936,1.279-8.912h-8.261C90.393,45.506,90.219,47.127,90.03,48.741z"/>
			<path fill="#8076B7" d="M87.281,71.316c0.068,1.436,0.234,2.868,0.461,4.294c0.094,0.597,0.209,1.189,0.326,1.783h10.822
				c-0.011-0.036-0.022-0.072-0.032-0.107c-0.842-2.86-1.607-5.814-2.083-8.806h-9.498C87.235,69.426,87.236,70.371,87.281,71.316z"
				/>
		</g>
	</g>
	<g>
		<g>
			<path fill="#FBD8E7" d="M49.543,44.876c0.382-3.259,0.738-6.544,0.738-9.828c0-19.294-6.703-34.934-14.971-34.934
				c-8.269,0-14.971,15.639-14.971,34.934c0,3.27,0.453,7.758,1.069,12.476h27.8C49.321,46.641,49.438,45.758,49.543,44.876z"/>
			<path fill="#FBD8E7" d="M46.336,71.208c-0.112-2.347-0.013-4.699,0.374-7.041c0.344-2.08,0.679-4.164,1.006-6.248H22.923
				c0.99,6.35,1.886,11.708,1.886,13.308c0,1.657-0.129,3.322-0.349,4.99h22.414C46.609,74.554,46.414,72.884,46.336,71.208z"/>
			<path fill="#FBD8E7" d="M63.797,132.415c-4.875-15.245-9.932-30.447-14.457-45.8H22.093c-1.278,4.23-2.802,8.386-4.108,12.356
				c-3.956,12.024-8.282,23.929-12.301,35.932c-6.925,20.69-6.268,41.692-3.516,63.059c0.846,6.553,1.795,13.092,2.754,19.629
				c0.363,2.477,1.277,5.433,1.277,7.925c0,2.68,13.034,4.854,29.111,4.854c16.077,0,22.353-2.045,29.111-4.854
				c0.398-5.388,1.499-11.231,2.179-16.621c1.621-12.838,3.535-25.698,3.541-38.671C70.144,157.284,67.729,144.713,63.797,132.415z"
				/>
			<path fill="#54459C" d="M49.207,47.522h-27.8c0.456,3.475,0.998,7.07,1.516,10.397h24.792
				C48.259,54.459,48.764,50.994,49.207,47.522z"/>
			<path fill="#54459C" d="M49.303,86.49c-0.982-3.335-1.874-6.782-2.43-10.272H24.459c-0.457,3.475-1.329,6.959-2.368,10.397H49.34
				C49.329,86.573,49.316,86.532,49.303,86.49z"/>
		</g>
		<g>
			<path fill="#FEF3F8" d="M39.746,43.364c0,1.387-0.073,2.773-0.174,4.158h9.636c0.114-0.882,0.231-1.764,0.335-2.647
				c0.383-3.259,0.738-6.543,0.738-9.828c0-19.294-6.704-34.934-14.971-34.934c-3.711,0-7.103,3.156-9.72,8.371
				C33.48,9.475,39.746,24.711,39.746,43.364z"/>
			<path fill="#FEF3F8" d="M37.181,66.237c-0.328,2.084-0.663,4.169-1.006,6.248c-0.204,1.243-0.325,2.487-0.379,3.733h11.079
				c-0.264-1.663-0.46-3.334-0.538-5.01c-0.112-2.347-0.013-4.699,0.374-7.041c0.343-2.08,0.677-4.164,1.006-6.248h-9.328
				C38.016,60.696,37.615,63.469,37.181,66.237z"/>
			<path fill="#FEF3F8" d="M63.798,132.415c-4.875-15.245-9.933-30.447-14.457-45.8H36.719c0.544,2.778,1.265,5.522,2.05,8.192
				c0.013,0.043,0.025,0.083,0.037,0.125c4.523,15.353,9.583,30.555,14.457,45.8c3.932,12.298,6.347,24.869,6.343,37.808
				c-0.005,12.973-1.919,25.833-3.541,38.671c-0.471,3.738-1.141,7.692-1.643,11.563c3.894-0.844,6.898-1.971,10-3.26
				c0.398-5.388,1.499-11.231,2.179-16.621c1.621-12.838,3.535-25.698,3.541-38.671C70.144,157.284,67.729,144.713,63.798,132.415z"
				/>
			<path fill="#8076B7" d="M39.008,53.193c-0.104,0.883-0.223,1.766-0.335,2.647c-0.089,0.694-0.191,1.386-0.283,2.08h9.328
				c0.542-3.46,1.047-6.925,1.491-10.397h-9.636C39.432,49.418,39.229,51.309,39.008,53.193z"/>
			<path fill="#8076B7" d="M35.801,79.526c0.079,1.675,0.274,3.346,0.538,5.01c0.11,0.695,0.244,1.387,0.379,2.079h12.623
				c-0.012-0.042-0.024-0.083-0.037-0.125c-0.982-3.335-1.874-6.782-2.43-10.272H35.796C35.748,77.321,35.749,78.425,35.801,79.526z
				"/>
		</g>
	</g>
	<g>
		<g>
			<path fill="#FBD8E7" d="M236.857,216.138c3.247-0.471,6.522-0.915,9.806-1.004c19.286-0.521,35.103,5.756,35.325,14.021
				c0.226,8.265-15.229,15.39-34.516,15.913c-3.269,0.087-7.769-0.246-12.499-0.734l-0.753-27.788
				C235.098,216.407,235.977,216.265,236.857,216.138z"/>
			<path fill="#FBD8E7" d="M210.621,220.056c2.348,0.048,4.697-0.115,7.025-0.565c2.071-0.398,4.145-0.79,6.221-1.173l0.671,24.781
				c-6.375-0.815-11.755-1.566-13.354-1.523c-1.656,0.045-3.316,0.221-4.979,0.484l-0.606-22.406
				C207.267,219.873,208.944,220.022,210.621,220.056z"/>
			<path fill="#FBD8E7" d="M148.964,204.258c15.371,4.459,30.703,9.105,46.174,13.212l0.737,27.239
				c-4.193,1.391-8.307,3.026-12.241,4.44c-11.912,4.279-23.694,8.927-35.586,13.269c-20.495,7.482-41.507,7.394-62.94,5.22
				c-6.573-0.669-13.136-1.441-19.695-2.222c-2.485-0.295-5.465-1.13-7.959-1.062c-2.678,0.073-5.203-12.896-5.636-28.97
				c-0.436-16.071,1.438-22.401,4.062-29.232c5.377-0.543,11.188-1.802,16.558-2.629c12.791-1.966,25.594-4.228,38.562-4.584
				C123.932,198.585,136.563,200.66,148.964,204.258z"/>
			<path fill="#54459C" d="M234.22,216.546l0.752,27.788c-3.486-0.36-7.095-0.805-10.435-1.234l-0.671-24.781
				C227.311,217.681,230.76,217.083,234.22,216.546z"/>
			<path fill="#54459C" d="M195.263,217.504c3.361,0.892,6.83,1.689,10.335,2.15l0.606,22.406c-3.46,0.549-6.922,1.516-10.329,2.648
				l-0.737-27.239C195.18,217.479,195.222,217.491,195.263,217.504z"/>
		</g>
		<g>
			<path fill="#FEF3F8" d="M238.632,225.891c-1.387,0.037-2.771,0.147-4.151,0.286l-0.261-9.634
				c0.878-0.138,1.757-0.278,2.638-0.407c3.246-0.469,6.521-0.914,9.805-1.002c19.286-0.521,35.103,5.756,35.324,14.021
				c0.102,3.707-2.963,7.185-8.104,9.942C272.68,231.236,257.278,225.386,238.632,225.891z"/>
			<path fill="#FEF3F8" d="M215.837,229.075c-2.075,0.382-4.148,0.774-6.22,1.175c-1.235,0.235-2.477,0.391-3.721,0.479
				l-0.301-11.074c1.671,0.22,3.347,0.368,5.024,0.401c2.348,0.049,4.697-0.114,7.025-0.564c2.071-0.398,4.144-0.791,6.221-1.175
				l0.253,9.324C221.354,228.09,218.593,228.564,215.837,229.075z"/>
			<path fill="#FEF3F8" d="M148.963,204.258c15.372,4.458,30.704,9.104,46.175,13.212l0.342,12.618
				c-2.791-0.469-5.555-1.114-8.246-1.828c-0.041-0.01-0.083-0.021-0.124-0.034c-15.472-4.106-30.804-8.749-46.175-13.211
				c-12.401-3.598-25.033-5.673-37.966-5.319c-12.966,0.356-25.771,2.617-38.562,4.587c-3.724,0.57-7.658,1.347-11.515,1.954
				c0.739-3.914,1.785-6.948,2.988-10.085c5.376-0.543,11.187-1.802,16.557-2.628c12.791-1.967,25.595-4.229,38.561-4.583
				C123.932,198.585,136.563,200.659,148.963,204.258z"/>
			<path fill="#8076B7" d="M228.827,226.894c-0.881,0.128-1.757,0.272-2.638,0.408c-0.69,0.107-1.38,0.227-2.07,0.338l-0.253-9.324
				c3.445-0.637,6.895-1.233,10.353-1.772l0.261,9.634C232.589,226.369,230.705,226.623,228.827,226.894z"/>
			<path fill="#8076B7" d="M202.59,230.814c-1.676-0.034-3.353-0.184-5.023-0.405c-0.697-0.09-1.393-0.206-2.088-0.321
				l-0.342-12.619c0.043,0.011,0.086,0.021,0.126,0.034c3.361,0.89,6.829,1.689,10.333,2.15l0.301,11.074
				C204.797,230.806,203.693,230.836,202.59,230.814z"/>
		</g>
	</g>
</g>
</svg>
