<?xml version="1.0" encoding="utf-8"?>
<!-- Generator: Adobe Illustrator 16.0.0, SVG Export Plug-In . SVG Version: 6.00 Build 0)  -->
<!DOCTYPE svg PUBLIC "-//W3C//DTD SVG 1.1//EN" "http://www.w3.org/Graphics/SVG/1.1/DTD/svg11.dtd">
<svg version="1.1" id="Layer_1" xmlns="http://www.w3.org/2000/svg" xmlns:xlink="http://www.w3.org/1999/xlink" x="0px" y="0px"
	 width="125.717px" height="70.398px" viewBox="0.075 0.073 125.717 70.398" enable-background="new 0.075 0.073 125.717 70.398"
	 xml:space="preserve">
<g>
	<path fill="#FBD8E7" d="M125.172,51.679l-10.097-35.992h-8.111l-6.023,6.582h5.641l10.098,35.992
		c0.399,0.751,0.62,1.518,0.62,2.296c0,0.639-0.154,1.267-0.422,1.886c5.655-2.475,8.915-5.371,8.915-8.468
		C125.792,53.196,125.57,52.429,125.172,51.679z"/>
	<path fill="#F0AECE" d="M116.678,58.261l-10.098-35.992h-5.641l6.023-6.582H10.795l-1.846,6.582L0.704,51.66
		c-0.406,0.758-0.629,1.528-0.629,2.315c0,9.11,28.141,16.495,62.857,16.495c22.915,0,42.961-3.219,53.945-8.027
		c0.268-0.619,0.421-1.247,0.421-1.886C117.299,59.779,117.077,59.012,116.678,58.261z"/>
	<ellipse fill="#E376AE" cx="62.932" cy="16.568" rx="52.088" ry="16.496"/>
</g>
</svg>
