<?xml version="1.0" encoding="utf-8"?>
<!-- Generator: Adobe Illustrator 16.0.0, SVG Export Plug-In . SVG Version: 6.00 Build 0)  -->
<!DOCTYPE svg PUBLIC "-//W3C//DTD SVG 1.1//EN" "http://www.w3.org/Graphics/SVG/1.1/DTD/svg11.dtd">
<svg version="1.1" id="Layer_1" xmlns="http://www.w3.org/2000/svg" xmlns:xlink="http://www.w3.org/1999/xlink" x="0px" y="0px"
	 width="151.667px" height="150.567px" viewBox="0 0 151.667 150.567" enable-background="new 0 0 151.667 150.567"
	 xml:space="preserve">
<g>
	<path fill="#F7BBD5" d="M97.498,104.997c-6.322,0.056-12.941-0.416-19.171-1.509c-16.574-2.912-34.895-14.911-35.918-33.258
		c-0.614-11.033,1.698-21.095,4.086-31.703c1.807-8.027,3.604-18.736-6.266-22.218c-3.063-1.079-6.416-1.539-9.792-1.495
		C11.969,28.531,0,50.51,0,75.284c0,41.579,33.706,75.284,75.284,75.284c33.602,0,62.056-22.015,71.739-52.406
		c-5.728,1.796-11.841,2.743-17.571,3.583C118.848,103.299,108.241,104.902,97.498,104.997z"/>
	<path fill="#FBD8E7" d="M75.284,0C58.48,0,42.965,5.508,30.439,14.813c3.375-0.044,6.728,0.417,9.792,1.495
		c9.87,3.482,8.072,14.191,6.265,22.218c-2.387,10.608-4.699,20.67-4.086,31.703c1.022,18.349,19.343,30.347,35.919,33.259
		c6.229,1.092,12.848,1.563,19.17,1.509c10.742-0.095,21.349-1.698,31.952-3.254c5.73-0.841,11.844-1.786,17.571-3.583
		c2.3-7.216,3.545-14.899,3.545-22.877C150.567,33.706,116.861,0,75.284,0z"/>
	<circle fill="#F0AECE" cx="74.069" cy="31.57" r="5.87"/>
	<circle fill="#F0AECE" cx="93.902" cy="21.451" r="5.869"/>
	<circle fill="#F0AECE" cx="107.663" cy="51" r="5.869"/>
	<path fill="none" stroke="#FFFFFF" stroke-width="12.0131" stroke-linecap="round" stroke-miterlimit="10" d="M97.291,8.12
		c11.462,3.872,21.856,9.487,32.482,22.237"/>
	<path fill="none" stroke="#FFFFFF" stroke-width="12.0131" stroke-linecap="round" stroke-miterlimit="10" d="M137.933,42.423
		c3.832,7.665,6.715,13.559,7.728,27.954"/>
</g>
</svg>
