<?xml version="1.0" encoding="utf-8"?>
<!-- Generator: Adobe Illustrator 16.0.0, SVG Export Plug-In . SVG Version: 6.00 Build 0)  -->
<!DOCTYPE svg PUBLIC "-//W3C//DTD SVG 1.1//EN" "http://www.w3.org/Graphics/SVG/1.1/DTD/svg11.dtd">
<svg version="1.1" id="Layer_1" xmlns="http://www.w3.org/2000/svg" xmlns:xlink="http://www.w3.org/1999/xlink" x="0px" y="0px"
	 width="148.021px" height="82.979px" viewBox="0 0 148.021 82.979" enable-background="new 0 0 148.021 82.979"
	 xml:space="preserve">
<g>
	<path fill="#FBD8E7" d="M147.365,60.834l-11.889-42.377h-9.55l-7.091,7.75h6.641l11.889,42.377c0.47,0.884,0.729,1.786,0.729,2.703
		c0,0.752-0.18,1.492-0.496,2.221c6.659-2.914,10.496-6.324,10.496-9.971C148.094,62.62,147.834,61.718,147.365,60.834z"/>
	<path fill="#F0AECE" d="M137.365,68.584l-11.889-42.377h-6.641l7.091-7.75H12.697l-2.174,7.75L0.815,60.813
		c-0.477,0.891-0.74,1.8-0.74,2.725c0,10.727,33.134,19.422,74.009,19.422c26.98,0,50.582-3.79,63.515-9.451
		c0.316-0.729,0.496-1.469,0.496-2.221C138.094,70.37,137.834,69.468,137.365,68.584z"/>
	<ellipse fill="#E376AE" cx="74.084" cy="19.495" rx="61.328" ry="19.422"/>
</g>
</svg>
