<?xml version="1.0" encoding="utf-8"?>
<!-- Generator: Adobe Illustrator 16.0.0, SVG Export Plug-In . SVG Version: 6.00 Build 0)  -->
<!DOCTYPE svg PUBLIC "-//W3C//DTD SVG 1.1//EN" "http://www.w3.org/Graphics/SVG/1.1/DTD/svg11.dtd">
<svg version="1.1" id="Layer_1" xmlns="http://www.w3.org/2000/svg" xmlns:xlink="http://www.w3.org/1999/xlink" x="0px" y="0px"
	 width="175.845px" height="118.333px" viewBox="0.054 0.051 175.845 118.333" enable-background="new 0.054 0.051 175.845 118.333"
	 xml:space="preserve">
<g>
	<path fill="#FBD8E7" d="M41.979,19.7c-5.097,1.035-7.955,5.792-6.495,10.809c-0.952,0.367-1.909,0.711-2.85,1.104
		C24.339,35.07,16.072,38.6,7.736,41.957c-2.1,0.845-4.065,2.104-6.379,2.399c-2.664-7.463-1.158-14.199,3.747-20.215
		c4.709-5.777,10.989-9.419,17.686-12.398c10.326-4.596,21.218-7.177,32.324-9.007C69.161,0.42,83.311-0.259,97.515,0.174
		c16.754,0.507,33.28,2.589,49.23,8.037c7.251,2.478,14.159,5.676,20.053,10.71c5.697,4.866,9.335,10.793,9.089,18.564
		c-0.074,2.333-0.372,4.663-1.362,6.833c-1.318-0.191-2.54-0.688-3.756-1.2c-2.266-0.952-4.512-1.943-6.777-2.884
		c-7.857-3.257-15.722-6.498-23.581-9.747c1.664-5.558-0.428-9.437-6.331-11.745c-0.02-0.238-0.069-0.479-0.053-0.717
		c0.266-3.747-1.73-6.262-4.845-7.678c-3.119-1.417-6.397-1.316-9.401,0.763c-1.037,0.718-1.585,1.948-2.762,2.492
		c-0.418-0.018-0.843,0.008-1.253-0.055c-6.716-1.014-13.468-1.573-20.256-1.733c-10.042-0.238-20.056,0.162-30.013,1.478
		c-2.142,0.285-4.421,0.149-6.383,1.361c-0.1-0.063-0.252-0.103-0.294-0.194c-2.282-4.91-8.389-6.594-12.931-3.613
		C42.648,12.971,41.636,16.022,41.979,19.7z"/>
	<path fill="#948EC5" d="M143.813,86.032c-0.592,0.596-1.35,0.41-2.051,0.41c-35.833,0.007-71.662,0.007-107.494,0
		c-0.701,0-1.46,0.19-2.063-0.382c7.184-7.924,11.697-17.5,16.615-26.826c2.936-5.572,5.995-11.093,9.972-16.004
		c2.55-3.144,5.384-6.063,8.758-8.328c1.04-0.7,2.121-1.338,3.231-1.917c3.663-1.912,7.539-3.357,11.755-3.674
		c4.617-0.349,9.236-0.606,13.781,0.412c6.889,1.543,12.824,4.859,17.804,9.917c1.258,1.278,2.108,2.942,3.697,3.899
		c1.773,2.763,3.691,5.445,5.29,8.306c3.388,6.063,6.611,12.217,9.897,18.337C136.049,75.847,139.528,81.213,143.813,86.032z
		 M118.039,65.31c0.979-0.244,2.005,0.948,2.364-0.961c1.177-3.052,2.937-5.581,2.144-9.04c0.395-1.007-0.261-1.046-0.979-1.107
		c-1.898-0.158-3.793-0.351-5.691-0.532c-0.729-6.059-3.456-11.059-8.068-15.018c-9.652-8.283-24.832-9.476-35.706-2.785
		c-6.279,3.861-10.786,26.212-10.637,26.8c0.999,3.975,1.976,5.798,4.839,8.766c8.386,8.692,21.694,13.448,33.16,8.828
		c8.486-3.416,14.358-9.227,16.171-18.523c1.269,0.2,1.818,0.908,1.66,2.209c-0.063,0.515,0.551,0.417,0.577,0.943
		C117.791,65.275,117.742,65.413,118.039,65.31z"/>
	<path fill="#5D6AB2" d="M117.818,43.54c-1.589-0.958-2.439-2.622-3.697-3.899c-4.979-5.058-10.915-8.374-17.804-9.917
		c-4.547-1.018-9.166-0.76-13.781-0.412c-4.217,0.317-8.093,1.761-11.755,3.674c-3.833,2-7.239,4.672-10.033,8.034
		c-0.771,0.926-1.541,1.839-2.553,2.514c-2.518,0-5.037,0.038-7.554-0.011c-4.852-0.093-8.638-3.884-8.674-8.715
		c-0.034-5.034,0.005-10.07,0.012-15.106c-0.344-3.679,0.669-6.73,3.909-8.856c4.542-2.981,10.649-1.296,12.931,3.613
		c0.042,0.09,0.194,0.13,0.294,0.193c1.057,2.985,0.566,6.082,0.545,9.125c-0.014,1.715,0.533,2.051,2.131,2.045
		c15.273-0.058,30.547-0.035,45.824-0.035c2.464,0,4.931-0.003,7.395,0.002c0.679,0.001,1.323,0.073,1.326-0.955
		c0.016-3.755-0.283-7.533,0.685-11.231c1.178-0.543,1.724-1.773,2.762-2.491c3.004-2.08,6.283-2.18,9.401-0.763
		c3.113,1.415,5.109,3.93,4.844,7.677c-0.017,0.238,0.034,0.479,0.054,0.717c-0.002,5.229,0.02,10.458-0.012,15.687
		c-0.032,5.36-3.707,9.049-9.038,9.103C122.625,43.555,120.222,43.538,117.818,43.54z"/>
	<path fill="#948EC5" d="M1.356,44.356c2.313-0.295,4.279-1.554,6.379-2.399c8.336-3.356,16.603-6.887,24.898-10.344
		c0.941-0.392,1.899-0.737,2.85-1.104c1.055,2.221,1.765,4.58,2.368,6.941c0.765,2.999-0.774,6.021-3.659,7.242
		c-7.323,3.103-14.678,6.137-22.056,9.105c-2.745,1.105-5.843-0.018-7.475-2.701C3.365,48.962,2.206,46.727,1.356,44.356z"/>
	<path fill="#948EC5" d="M140.411,30.486c7.859,3.249,15.724,6.489,23.58,9.747c2.267,0.94,4.513,1.933,6.777,2.884
		c1.215,0.512,2.438,1.009,3.757,1.201c-0.837,2.378-1.98,4.629-3.295,6.75c-1.816,2.928-4.962,3.802-8.149,2.492
		c-6.866-2.821-13.733-5.643-20.585-8.496c-4.057-1.69-5.502-4.88-4.066-9.019C139.072,34.188,139.454,32.234,140.411,30.486z"/>
	<path fill="#E376AE" d="M30.246,116.494c8.767-0.005,17.536-0.009,26.301-0.01c0.135,1.387-0.31,1.919-1.873,1.898
		c-7.497-0.097-14.997-0.096-22.493,0C30.637,118.402,30.153,117.883,30.246,116.494z"/>
	<path fill="#E376AE" d="M119.484,116.472c8.771,0.01,17.544,0.017,26.315,0.025c0.108,1.412-0.421,1.902-1.941,1.882
		c-7.505-0.091-15.013-0.096-22.517,0.003C119.766,118.405,119.339,117.855,119.484,116.472z"/>
	<path fill="#F0AECE" d="M60.124,56.529c0.191,0.294,1.131,5.032,1.248,5.354c3.238,8.898,9.619,14.178,18.521,16.419
		c11.366,2.861,21.546,0.447,29.967-7.974c2.438-2.438,4.298-5.587,5.128-9.013c0.236,0.068,0.411,0.353,0.647,0.42
		c-1.813,9.296-7.685,15.106-16.17,18.524c-11.467,4.618-24.854,1.776-33.239-6.915c-2.863-2.968-4.654-6.521-5.653-10.495
		C60.425,62.259,59.892,57.117,60.124,56.529z"/>
	<path fill="#E5E3E2" d="M104.143,53.014c3.91,0.219,7.822,0.437,11.733,0.655c1.898,0.182,3.794,0.375,5.691,0.532
		c0.718,0.06,1.373,0.099,0.979,1.107c-0.713,1.797-1.43,3.594-2.144,5.39c-2.093-0.382-3.861-1.556-5.731-2.445
		C111.132,56.573,107.46,55.141,104.143,53.014z"/>
	<path fill="#97928F" d="M120.268,65.524c-0.511-1.343,0.103-3.459,0.133-4.826c0.716-1.796,1.548-4.172,2.263-5.97
		C123.457,58.188,121.446,62.473,120.268,65.524z"/>
	<path fill="#C9C9C9" d="M120.403,60.698c-2.093-0.382-3.861-1.556-5.731-2.445c-3.539-1.681-7.21-3.112-10.528-5.241
		c-0.927,1.812-0.668,2.665,0.953,3.499c2.516,1.297,5.123,2.412,7.614,3.757c0.801,0.432,4.101,1.859,4.313,2.801
		c0.165,0.732,0.013,1.542,0.334,2.238c0.175,0.381,0.464,0.603,0.891,0.65c0.653,0.07,1.529,0.103,2.021-0.434
		C120.378,65.404,120.372,62.065,120.403,60.698z"/>
	<path fill="#5D6AB2" d="M77.259,66.991c-0.434,1.938-2.012,3.233-4.227,3.475c-2.263,0.243-4.299-0.928-5.357-3.083
		c0.723-1.252,1.792-2.062,3.162-2.513C73.508,63.987,75.473,65.208,77.259,66.991z"/>
	<path fill="#5D6AB2" d="M97.693,72.738c-0.293,2.1-2,3.492-4.413,3.599c-2.502,0.112-4.673-1.255-5.102-3.219
		c1.041-1.497,2.444-2.347,4.279-2.568C94.647,70.281,96.165,71.49,97.693,72.738z"/>
	<path fill="#5D6AB2" d="M74.924,48.932c-0.354,2.151-2.284,3.568-4.813,3.534c-2.427-0.031-4.313-1.461-4.648-3.52
		C69,45.865,71.691,45.861,74.924,48.932z"/>
	<path fill="#5D6AB2" d="M83.271,39.847c0.013-0.227,0.026-0.453,0.038-0.677c0.958-0.572,1.726-1.417,2.806-1.827
		c2.823-1.07,5.893,0.311,6.515,2.977c-2.363,3.416-6.817,3.414-9.216-0.007C83.364,40.158,83.317,40.002,83.271,39.847z"/>
	<path fill="#5D6AB2" d="M73.076,58.32c-0.56,2.179-2.271,3.354-4.847,3.326c-2.483-0.026-4.146-1.216-4.661-3.33
		C66.662,55.011,70.021,55.013,73.076,58.32z"/>
	<path fill="#5D6AB2" d="M107.324,68.067c-0.867,2.527-2.926,3.7-5.757,3.281c-2.196-0.327-3.574-1.68-3.714-3.648
		C101.992,64.758,104.325,64.85,107.324,68.067z"/>
	<path fill="#5D6AB2" d="M86.333,72.777c-0.637,2.035-2.223,2.904-4.157,3.128c-2.339,0.272-4.195-0.631-5.394-2.725
		c-0.008-0.169-0.016-0.338-0.024-0.507c0.054-0.209,0.105-0.417,0.158-0.626c0.296-0.188,0.604-0.36,0.89-0.563
		C80.875,69.312,84.038,69.79,86.333,72.777z"/>
	<path fill="#5D6AB2" d="M103.195,41.753c0.107,0.413,0.157,0.817-0.087,1.211c-0.996,1.607-2.46,2.369-4.328,2.433
		c-1.915,0.066-3.52-0.525-4.661-2.139c-0.335-0.475-0.334-1.007-0.288-1.549c0.875-0.281,1.337-1.122,2.181-1.506
		C98.833,38.911,101.075,39.976,103.195,41.753z"/>
	<path fill="#5D6AB2" d="M73.418,44.229c-0.018-0.87-1.083-1.484-0.605-2.475c3.599-2.94,6.371-2.423,9.342-0.043
		c-0.16,2.924-3.566,4.608-6.823,3.357c-0.657-0.251-1.289-0.567-1.932-0.853L73.418,44.229z"/>
	<path fill="#F0AECE" d="M77.259,66.991c-1.786-1.783-3.752-3.002-6.422-2.122c-1.37,0.452-2.439,1.261-3.162,2.513
		c-0.762-1.829-0.11-3.263,1.286-4.454c1.722-1.468,3.697-1.612,5.717-0.831c1.682,0.65,2.656,1.984,2.96,3.766
		C77.711,66.281,77.652,66.706,77.259,66.991z"/>
	<path fill="#F0AECE" d="M82.154,41.711c-2.97-2.38-5.743-2.897-9.342,0.043c-0.937-0.743-0.361-1.616-0.017-2.271
		c0.931-1.775,2.519-2.713,4.522-2.778c1.997-0.065,3.639,0.721,4.688,2.47C82.474,39.952,82.74,40.829,82.154,41.711z"/>
	<path fill="#F0AECE" d="M73.076,58.32c-3.056-3.307-6.414-3.309-9.508-0.003c-0.726-2.531,0.723-4.674,3.581-5.301
		C70.799,52.217,74.009,55.09,73.076,58.32z"/>
	<path fill="#F0AECE" d="M86.333,72.777c-2.296-2.988-5.459-3.466-8.529-1.293c-0.285,0.203-0.594,0.376-0.89,0.563
		c-0.338-0.068-0.563-0.277-0.518-0.618c0.231-1.739,1.111-3.002,2.745-3.728c1.934-0.858,4.678-0.538,6.089,0.882
		C86.375,69.73,87.19,71.06,86.333,72.777z"/>
	<path fill="#F0AECE" d="M103.195,41.753c-2.12-1.778-4.362-2.842-7.183-1.55c-0.843,0.384-1.305,1.225-2.18,1.506
		c-0.733-2.742,1.623-5.127,4.969-5.028c2.251,0.063,4.13,1.465,4.665,3.472C103.621,40.732,103.854,41.315,103.195,41.753z"/>
	<path fill="#F0AECE" d="M74.924,48.932c-3.233-3.071-5.924-3.067-9.461,0.015c-0.785-2.275,0.946-4.764,3.519-5.085
		c1.507-0.189,2.967,0.127,4.438,0.367l-0.019-0.014c0.408,1.042,1.515,1.663,1.705,2.837
		C75.208,47.695,75.372,48.343,74.924,48.932z"/>
	<path fill="#F0AECE" d="M107.324,68.067c-2.999-3.217-5.332-3.309-9.471-0.369c-0.092-0.15-0.247-0.291-0.269-0.451
		c-0.238-1.883,0.783-3.099,2.29-3.911c2.172-1.173,4.351-0.91,6.227,0.608C107.349,64.957,108.067,66.354,107.324,68.067z"/>
	<path fill="#F0AECE" d="M97.693,72.738c-1.528-1.248-3.046-2.457-5.236-2.189c-1.836,0.222-3.239,1.07-4.28,2.569
		c-0.694-1.152-0.243-2.202,0.339-3.202c1.179-2.021,4.188-2.92,6.534-1.989C97.142,68.756,98.185,70.655,97.693,72.738z"/>
	<path fill="#F0AECE" d="M92.628,40.32c-0.622-2.666-3.691-4.046-6.515-2.977c-1.079,0.41-1.848,1.253-2.806,1.827
		c-0.658-3.229,2.638-5.862,6.121-4.89C92.421,35.116,93.535,37.222,92.628,40.32z"/>
	<path fill="#AC6F42" d="M83.271,39.847c0.047,0.155,0.094,0.311,0.142,0.466C83.202,40.208,83.123,40.062,83.271,39.847z"/>
	<path fill="#FBD8E7" d="M104.143,53.014c3.91,0.219,7.822,0.437,11.733,0.655c-0.729-6.059-3.456-11.059-8.068-15.018
		c-9.652-8.283-24.832-9.476-35.706-2.785c-2.61,1.605-5.068,3.562-6.987,5.961c-1.882,2.356-3.413,5.076-4.182,8.004
		c-1.071,4.085-1.198,8.349,0.335,12.334c0.368,0.958,0.762,1.906,1.208,2.83c0.812,1.681,1.802,3.269,3,4.701
		c2.295,2.74,5.23,4.986,8.469,6.496c1.887,0.88,3.924,1.602,5.945,2.11c11.366,2.86,21.546,0.446,29.967-7.975
		c2.438-2.438,4.317-5.575,5.145-9.001c-3.14-1.936-6.639-3.129-9.909-4.814C103.475,55.677,103.215,54.826,104.143,53.014z
		 M98.801,36.68c2.251,0.063,4.13,1.465,4.665,3.472c0.154,0.58,0.388,1.163-0.272,1.601c0.107,0.413,0.156,0.817-0.087,1.211
		c-0.997,1.607-2.46,2.369-4.329,2.433c-1.914,0.066-3.519-0.525-4.661-2.139c-0.335-0.475-0.334-1.007-0.288-1.549
		C93.099,38.967,95.455,36.582,98.801,36.68z M89.43,34.281c2.991,0.835,4.105,2.941,3.198,6.041
		c-2.364,3.416-6.818,3.413-9.216-0.008c-0.21-0.105-0.289-0.251-0.142-0.465c0.013-0.227,0.026-0.453,0.038-0.677
		C82.651,35.942,85.947,33.309,89.43,34.281z M68.98,43.862c1.503-0.188,2.959,0.125,4.423,0.365c0-0.004-0.002-0.008-0.004-0.012
		c0.006,0.003,0.012,0.005,0.017,0.008c-0.02-0.866-1.08-1.48-0.603-2.469c-0.937-0.743-0.361-1.616-0.017-2.271
		c0.93-1.775,2.518-2.713,4.522-2.778c1.997-0.065,3.638,0.721,4.688,2.47c0.466,0.777,0.732,1.654,0.147,2.536
		c-0.16,2.923-3.565,4.608-6.823,3.357c-0.65-0.25-1.278-0.562-1.915-0.846c0,0.003,0.002,0.004,0.002,0.006
		c-0.005,0-0.01-0.001-0.015-0.002c0.412,1.035,1.512,1.657,1.701,2.826c0.104,0.642,0.268,1.291-0.181,1.879
		c-0.354,2.151-2.283,3.568-4.813,3.534c-2.427-0.031-4.313-1.461-4.648-3.52C64.677,46.67,66.407,44.183,68.98,43.862z
		 M63.568,58.318c-0.726-2.533,0.723-4.676,3.581-5.303c3.649-0.798,6.859,2.076,5.927,5.305c-0.56,2.179-2.271,3.354-4.847,3.326
		C65.746,61.62,64.083,60.43,63.568,58.318z M73.033,70.465c-2.262,0.243-4.298-0.928-5.356-3.083
		c-0.762-1.829-0.11-3.263,1.286-4.454c1.722-1.468,3.697-1.612,5.717-0.831c1.681,0.65,2.656,1.984,2.96,3.766
		c0.072,0.417,0.014,0.843-0.379,1.127C76.826,68.927,75.248,70.224,73.033,70.465z M86.333,72.777
		c-0.637,2.035-2.223,2.904-4.157,3.128c-2.339,0.272-4.195-0.631-5.394-2.725c-0.008-0.169-0.016-0.338-0.024-0.507
		c0.054-0.209,0.105-0.417,0.158-0.626c-0.338-0.068-0.563-0.277-0.519-0.618c0.231-1.739,1.112-3.002,2.745-3.728
		c1.934-0.858,4.678-0.538,6.09,0.882C86.375,69.73,87.19,71.06,86.333,72.777z M97.693,72.738c-0.293,2.1-2,3.492-4.413,3.599
		c-2.502,0.112-4.673-1.255-5.102-3.219c-0.694-1.151-0.243-2.202,0.339-3.2c1.18-2.022,4.187-2.921,6.534-1.991
		C97.142,68.756,98.185,70.655,97.693,72.738z M107.324,68.067c-0.867,2.527-2.926,3.7-5.757,3.281
		c-2.196-0.327-3.574-1.68-3.714-3.648c-0.092-0.151-0.247-0.293-0.269-0.452c-0.238-1.883,0.783-3.1,2.29-3.911
		c2.172-1.173,4.351-0.91,6.227,0.608C107.349,64.957,108.067,66.354,107.324,68.067z"/>
	<path fill="#FBD8E7" d="M156.786,113.383c0,1.993-1.616,3.609-3.609,3.609H23.906c-1.993,0-3.609-1.616-3.609-3.609V90.081
		c0-1.993,1.616-3.608,3.609-3.608h129.271c1.993,0,3.609,1.615,3.609,3.608V113.383L156.786,113.383z"/>
</g>
</svg>
