<?xml version="1.0" encoding="utf-8"?>
<!-- Generator: Adobe Illustrator 16.0.0, SVG Export Plug-In . SVG Version: 6.00 Build 0)  -->
<!DOCTYPE svg PUBLIC "-//W3C//DTD SVG 1.1//EN" "http://www.w3.org/Graphics/SVG/1.1/DTD/svg11.dtd">
<svg version="1.1" id="Layer_1" xmlns="http://www.w3.org/2000/svg" xmlns:xlink="http://www.w3.org/1999/xlink" x="0px" y="0px"
	 width="201.917px" height="135.874px" viewBox="0 0 201.917 135.874" enable-background="new 0 0 201.917 135.874"
	 xml:space="preserve">
<g>
	<path fill-rule="evenodd" clip-rule="evenodd" fill="#FBD8E7" d="M48.179,22.606c-5.851,1.188-9.131,6.648-7.455,12.407
		c-1.092,0.421-2.191,0.816-3.271,1.267c-9.523,3.969-19.012,8.021-28.581,11.874c-2.41,0.97-4.667,2.416-7.322,2.754
		c-3.058-8.566-1.33-16.299,4.3-23.204c5.406-6.632,12.615-10.812,20.302-14.232C38.005,8.197,50.508,5.234,63.256,3.133
		c16.125-2.658,32.368-3.438,48.672-2.941c19.232,0.582,38.202,2.972,56.512,9.226c8.323,2.844,16.253,6.515,23.018,12.294
		c6.54,5.586,10.715,12.39,10.433,21.31c-0.085,2.678-0.427,5.352-1.563,7.844c-1.514-0.22-2.917-0.79-4.312-1.378
		c-2.6-1.093-5.178-2.231-7.78-3.311c-9.019-3.739-18.046-7.459-27.068-11.188c1.909-6.379-0.491-10.832-7.268-13.482
		c-0.022-0.273-0.079-0.55-0.061-0.823c0.306-4.301-1.986-7.188-5.56-8.813c-3.58-1.626-7.344-1.511-10.792,0.876
		c-1.191,0.825-1.819,2.236-3.17,2.86c-0.48-0.02-0.968,0.009-1.438-0.063c-7.709-1.164-15.46-1.806-23.253-1.99
		c-11.526-0.273-23.021,0.186-34.451,1.696c-2.459,0.327-5.075,0.171-7.327,1.562c-0.115-0.072-0.29-0.118-0.338-0.222
		c-2.619-5.636-9.629-7.569-14.843-4.147C48.947,14.882,47.785,18.384,48.179,22.606z"/>
	<path fill-rule="evenodd" clip-rule="evenodd" fill="#948EC5" d="M165.074,98.747c-0.68,0.684-1.55,0.471-2.355,0.471
		c-41.132,0.008-82.26,0.008-123.391,0c-0.805,0-1.676,0.219-2.368-0.438c8.246-9.096,13.427-20.088,19.072-30.793
		c3.37-6.396,6.881-12.734,11.446-18.371c2.927-3.609,6.18-6.959,10.053-9.56c1.194-0.803,2.435-1.536,3.709-2.2
		c4.204-2.195,8.653-3.853,13.494-4.218c5.299-0.4,10.601-0.696,15.819,0.473c7.907,1.771,14.721,5.578,20.437,11.384
		c1.443,1.467,2.42,3.377,4.244,4.476c2.035,3.172,4.237,6.25,6.072,9.534c3.889,6.959,7.589,14.024,11.361,21.049
		C156.161,87.057,160.155,93.217,165.074,98.747z M135.487,74.961c1.123-0.281,2.301,1.088,2.713-1.104
		c1.351-3.503,3.372-6.406,2.461-10.377c0.454-1.156-0.298-1.201-1.122-1.271c-2.18-0.181-4.355-0.403-6.533-0.611
		c-0.838-6.955-3.967-12.694-9.262-17.239c-11.08-9.508-28.504-10.877-40.987-3.197c-7.207,4.432-12.381,30.089-12.21,30.764
		c1.146,4.563,2.268,6.655,5.554,10.063c9.626,9.978,24.903,15.436,38.065,10.134c9.741-3.923,16.481-10.591,18.562-21.263
		c1.456,0.229,2.088,1.042,1.906,2.536c-0.072,0.592,0.632,0.479,0.663,1.083C135.203,74.922,135.146,75.08,135.487,74.961z"/>
	<path fill-rule="evenodd" clip-rule="evenodd" fill="#5D6AB2" d="M135.234,49.971c-1.824-1.099-2.801-3.009-4.244-4.476
		c-5.716-5.806-12.529-9.612-20.437-11.384c-5.219-1.169-10.521-0.873-15.819-0.473c-4.841,0.365-9.29,2.022-13.494,4.218
		c-4.4,2.296-8.31,5.363-11.517,9.222c-0.885,1.063-1.768,2.112-2.93,2.886c-2.89-0.001-5.782,0.043-8.671-0.013
		c-5.569-0.107-9.915-4.459-9.956-10.004c-0.039-5.779,0.006-11.56,0.013-17.341c-0.395-4.223,0.768-7.725,4.487-10.166
		c5.214-3.422,12.224-1.488,14.843,4.147c0.048,0.104,0.223,0.149,0.338,0.222c1.213,3.427,0.65,6.981,0.625,10.474
		c-0.016,1.969,0.612,2.354,2.447,2.348c17.532-0.066,35.065-0.04,52.6-0.04c2.829,0,5.66-0.004,8.489,0.002
		c0.779,0.001,1.519,0.084,1.522-1.096c0.018-4.311-0.325-8.647,0.786-12.892c1.351-0.624,1.979-2.035,3.17-2.86
		c3.448-2.387,7.212-2.502,10.792-0.876c3.573,1.624,5.865,4.512,5.56,8.813c-0.019,0.273,0.038,0.55,0.061,0.823
		c-0.002,6.002,0.022,12.004-0.013,18.006c-0.037,6.153-4.256,10.387-10.375,10.449C140.752,49.989,137.993,49.969,135.234,49.971z"
		/>
	<path fill-rule="evenodd" clip-rule="evenodd" fill="#948EC5" d="M1.549,50.908c2.655-0.338,4.912-1.784,7.322-2.754
		c9.569-3.853,19.058-7.905,28.581-11.874c1.08-0.45,2.18-0.846,3.271-1.267c1.211,2.55,2.026,5.257,2.718,7.968
		c0.878,3.443-0.889,6.912-4.2,8.313c-8.406,3.562-16.849,7.045-25.318,10.452c-3.151,1.268-6.707-0.021-8.58-3.101
		C3.854,56.196,2.524,53.63,1.549,50.908z"/>
	<path fill-rule="evenodd" clip-rule="evenodd" fill="#948EC5" d="M161.167,34.987c9.022,3.729,18.05,7.449,27.068,11.188
		c2.603,1.079,5.181,2.218,7.78,3.311c1.395,0.588,2.798,1.158,4.312,1.378c-0.96,2.73-2.273,5.313-3.783,7.749
		c-2.083,3.361-5.695,4.364-9.354,2.86c-7.882-3.238-15.764-6.477-23.629-9.752c-4.656-1.94-6.316-5.602-4.668-10.353
		C159.63,39.236,160.069,36.994,161.167,34.987z"/>
	<path fill-rule="evenodd" clip-rule="evenodd" fill="#E376AE" d="M34.711,133.715c10.064-0.006,20.129-0.011,30.191-0.013
		c0.155,1.592-0.356,2.204-2.15,2.181c-8.605-0.112-17.215-0.11-25.82,0C35.16,135.905,34.604,135.309,34.711,133.715z"/>
	<path fill-rule="evenodd" clip-rule="evenodd" fill="#E376AE" d="M137.146,133.69c10.068,0.011,20.138,0.019,30.207,0.028
		c0.125,1.622-0.483,2.184-2.229,2.161c-8.614-0.104-17.232-0.11-25.845,0.003C137.47,135.908,136.98,135.277,137.146,133.69z"/>
	<path fill-rule="evenodd" clip-rule="evenodd" fill="#F0AECE" d="M69.007,64.882c0.22,0.337,1.298,5.776,1.432,6.145
		c3.717,10.214,11.042,16.275,21.26,18.848c13.047,3.284,24.732,0.513,34.398-9.153c2.8-2.799,4.935-6.413,5.887-10.345
		c0.271,0.077,0.472,0.404,0.743,0.482c-2.08,10.672-8.82,17.34-18.562,21.263c-13.162,5.302-28.529,2.039-38.154-7.938
		c-3.287-3.406-5.342-7.485-6.489-12.047C69.353,71.458,68.741,65.556,69.007,64.882z"/>
	<path fill-rule="evenodd" clip-rule="evenodd" fill="#E5E3E2" d="M119.537,60.846c4.488,0.251,8.979,0.501,13.469,0.752
		c2.178,0.208,4.354,0.431,6.533,0.611c0.824,0.069,1.576,0.114,1.122,1.271c-0.818,2.063-1.64,4.126-2.46,6.188
		c-2.402-0.439-4.432-1.787-6.578-2.807C127.559,64.932,123.345,63.288,119.537,60.846z"/>
	<path fill-rule="evenodd" clip-rule="evenodd" fill="#97928F" d="M138.047,75.207c-0.586-1.542,0.117-3.971,0.152-5.54
		c0.821-2.062,1.777-4.789,2.598-6.852C141.707,66.786,139.398,71.704,138.047,75.207z"/>
	<path fill-rule="evenodd" clip-rule="evenodd" fill="#C9C9C9" d="M138.2,69.667c-2.401-0.438-4.431-1.786-6.577-2.806
		c-4.063-1.93-8.277-3.573-12.086-6.016c-1.064,2.08-0.767,3.059,1.093,4.016c2.888,1.489,5.881,2.769,8.741,4.312
		c0.92,0.497,4.707,2.134,4.951,3.216c0.189,0.84,0.013,1.77,0.383,2.569c0.201,0.438,0.532,0.693,1.022,0.746
		c0.75,0.08,1.756,0.118,2.32-0.497C138.174,75.069,138.165,71.236,138.2,69.667z"/>
	<path fill-rule="evenodd" clip-rule="evenodd" fill="#5D6AB2" d="M88.677,76.89c-0.498,2.225-2.31,3.712-4.852,3.988
		c-2.597,0.28-4.934-1.064-6.149-3.538c0.83-1.438,2.057-2.367,3.629-2.885C84.371,73.443,86.627,74.844,88.677,76.89z"/>
	<path fill-rule="evenodd" clip-rule="evenodd" fill="#5D6AB2" d="M112.132,83.488c-0.336,2.409-2.295,4.008-5.065,4.13
		c-2.872,0.129-5.364-1.441-5.856-3.694c1.195-1.72,2.805-2.694,4.912-2.949C108.636,80.668,110.378,82.055,112.132,83.488z"/>
	<path fill-rule="evenodd" clip-rule="evenodd" fill="#5D6AB2" d="M85.996,56.161c-0.406,2.469-2.621,4.096-5.525,4.057
		c-2.786-0.036-4.951-1.677-5.336-4.04C79.196,52.64,82.285,52.636,85.996,56.161z"/>
	<path fill-rule="evenodd" clip-rule="evenodd" fill="#5D6AB2" d="M95.577,45.733c0.015-0.261,0.03-0.52,0.044-0.777
		c1.1-0.657,1.981-1.627,3.221-2.097c3.24-1.228,6.764,0.357,7.478,3.417c-2.713,3.921-7.826,3.918-10.579-0.009
		C95.685,46.09,95.631,45.911,95.577,45.733z"/>
	<path fill-rule="evenodd" clip-rule="evenodd" fill="#5D6AB2" d="M83.875,66.937c-0.643,2.501-2.608,3.85-5.564,3.818
		c-2.85-0.03-4.76-1.396-5.35-3.822C76.512,63.139,80.368,63.141,83.875,66.937z"/>
	<path fill-rule="evenodd" clip-rule="evenodd" fill="#5D6AB2" d="M123.188,78.126c-0.996,2.901-3.359,4.247-6.608,3.766
		c-2.521-0.375-4.103-1.927-4.264-4.188C117.067,74.328,119.746,74.433,123.188,78.126z"/>
	<path fill-rule="evenodd" clip-rule="evenodd" fill="#5D6AB2" d="M99.093,83.532c-0.731,2.336-2.551,3.334-4.771,3.591
		c-2.686,0.313-4.815-0.724-6.192-3.128c-0.009-0.194-0.018-0.388-0.028-0.581c0.062-0.24,0.121-0.479,0.181-0.719
		c0.34-0.216,0.693-0.414,1.021-0.646C92.828,79.555,96.458,80.103,99.093,83.532z"/>
	<path fill-rule="evenodd" clip-rule="evenodd" fill="#5D6AB2" d="M118.448,47.921c0.124,0.474,0.18,0.938-0.1,1.39
		c-1.144,1.845-2.824,2.719-4.968,2.792c-2.198,0.076-4.04-0.603-5.35-2.455c-0.385-0.545-0.384-1.156-0.331-1.778
		c1.004-0.322,1.535-1.287,2.503-1.729C113.441,44.658,116.015,45.88,118.448,47.921z"/>
	<path fill-rule="evenodd" clip-rule="evenodd" fill="#5D6AB2" d="M84.268,50.762c-0.02-0.998-1.243-1.703-0.694-2.84
		c4.131-3.375,7.313-2.782,10.723-0.05c-0.183,3.356-4.093,5.29-7.832,3.854c-0.754-0.289-1.479-0.651-2.218-0.979L84.268,50.762z"
		/>
	<path fill-rule="evenodd" clip-rule="evenodd" fill="#F0AECE" d="M88.677,76.89c-2.05-2.046-4.307-3.446-7.372-2.435
		c-1.572,0.518-2.799,1.447-3.629,2.885c-0.875-2.1-0.126-3.746,1.476-5.113c1.977-1.685,4.244-1.851,6.563-0.954
		c1.93,0.747,3.048,2.278,3.398,4.323C89.196,76.076,89.128,76.563,88.677,76.89z"/>
	<path fill-rule="evenodd" clip-rule="evenodd" fill="#F0AECE" d="M94.296,47.872c-3.41-2.732-6.592-3.325-10.723,0.05
		c-1.076-0.853-0.415-1.855-0.02-2.606c1.068-2.038,2.891-3.115,5.191-3.189c2.292-0.075,4.177,0.828,5.382,2.835
		C94.663,45.853,94.968,46.86,94.296,47.872z"/>
	<path fill-rule="evenodd" clip-rule="evenodd" fill="#F0AECE" d="M83.875,66.937c-3.508-3.796-7.363-3.798-10.914-0.004
		c-0.833-2.905,0.829-5.365,4.11-6.085C81.261,59.932,84.946,63.23,83.875,66.937z"/>
	<path fill-rule="evenodd" clip-rule="evenodd" fill="#F0AECE" d="M99.093,83.532c-2.636-3.43-6.266-3.978-9.791-1.483
		c-0.327,0.232-0.681,0.431-1.021,0.646c-0.388-0.078-0.646-0.318-0.595-0.709c0.265-1.997,1.276-3.447,3.151-4.28
		c2.22-0.985,5.37-0.617,6.99,1.012C99.14,80.034,100.076,81.561,99.093,83.532z"/>
	<path fill-rule="evenodd" clip-rule="evenodd" fill="#F0AECE" d="M118.448,47.921c-2.433-2.041-5.007-3.263-8.245-1.78
		c-0.968,0.441-1.499,1.406-2.503,1.729c-0.841-3.147,1.864-5.885,5.705-5.772c2.584,0.073,4.741,1.682,5.355,3.986
		C118.937,46.748,119.205,47.418,118.448,47.921z"/>
	<path fill-rule="evenodd" clip-rule="evenodd" fill="#F0AECE" d="M85.996,56.161c-3.711-3.525-6.8-3.521-10.861,0.017
		c-0.9-2.612,1.086-5.468,4.04-5.837c1.73-0.217,3.406,0.146,5.094,0.421l-0.021-0.015c0.469,1.196,1.739,1.909,1.957,3.257
		C86.323,54.741,86.51,55.485,85.996,56.161z"/>
	<path fill-rule="evenodd" clip-rule="evenodd" fill="#F0AECE" d="M123.188,78.126c-3.442-3.693-6.121-3.798-10.872-0.423
		c-0.106-0.172-0.283-0.335-0.308-0.518c-0.274-2.161,0.899-3.557,2.628-4.489c2.494-1.347,4.995-1.045,7.148,0.698
		C123.217,74.556,124.041,76.159,123.188,78.126z"/>
	<path fill-rule="evenodd" clip-rule="evenodd" fill="#F0AECE" d="M112.132,83.488c-1.754-1.434-3.496-2.82-6.01-2.514
		c-2.107,0.255-3.717,1.229-4.912,2.949c-0.797-1.322-0.279-2.528,0.389-3.675c1.354-2.32,4.807-3.352,7.5-2.284
		C111.5,78.917,112.697,81.096,112.132,83.488z"/>
	<path fill-rule="evenodd" clip-rule="evenodd" fill="#F0AECE" d="M106.319,46.276c-0.714-3.06-4.237-4.645-7.478-3.417
		c-1.239,0.47-2.121,1.439-3.221,2.097c-0.755-3.706,3.029-6.729,7.027-5.613C106.081,40.301,107.36,42.719,106.319,46.276z"/>
	<path fill-rule="evenodd" clip-rule="evenodd" fill="#AC6F42" d="M95.577,45.733c0.055,0.178,0.108,0.356,0.163,0.534
		C95.499,46.146,95.408,45.979,95.577,45.733z"/>
	<path fill-rule="evenodd" clip-rule="evenodd" fill="#FBD8E7" d="M119.537,60.846c4.488,0.251,8.979,0.501,13.469,0.752
		c-0.838-6.955-3.967-12.694-9.262-17.239c-11.08-9.508-28.504-10.877-40.987-3.197c-2.996,1.843-5.817,4.089-8.02,6.843
		c-2.161,2.705-3.917,5.827-4.8,9.188c-1.229,4.69-1.375,9.584,0.385,14.158c0.422,1.1,0.875,2.188,1.387,3.248
		c0.931,1.93,2.068,3.752,3.444,5.396c2.634,3.146,6.004,5.724,9.721,7.457c2.166,1.01,4.505,1.838,6.825,2.422
		c13.047,3.284,24.732,0.513,34.398-9.153c2.8-2.799,4.956-6.399,5.907-10.333c-3.605-2.222-7.621-3.592-11.375-5.526
		C118.77,63.904,118.472,62.926,119.537,60.846z M113.405,42.097c2.584,0.073,4.741,1.682,5.355,3.986
		c0.177,0.665,0.444,1.335-0.313,1.838c0.124,0.474,0.18,0.938-0.1,1.39c-1.144,1.845-2.824,2.719-4.968,2.792
		c-2.198,0.076-4.04-0.603-5.35-2.455c-0.385-0.545-0.384-1.156-0.331-1.778C106.859,44.722,109.564,41.984,113.405,42.097z
		 M102.648,39.343c3.433,0.958,4.712,3.376,3.671,6.934c-2.713,3.921-7.826,3.918-10.579-0.009
		c-0.241-0.121-0.332-0.288-0.163-0.534c0.015-0.261,0.03-0.52,0.044-0.777C94.866,41.25,98.65,38.227,102.648,39.343z
		 M79.174,50.341c1.726-0.215,3.397,0.144,5.077,0.419c0-0.004-0.003-0.009-0.005-0.013c0.007,0.003,0.014,0.006,0.02,0.009
		c-0.023-0.995-1.24-1.7-0.692-2.834c-1.076-0.853-0.415-1.855-0.02-2.606c1.068-2.038,2.891-3.115,5.191-3.189
		c2.292-0.075,4.177,0.828,5.382,2.835c0.535,0.892,0.841,1.899,0.169,2.911c-0.183,3.356-4.093,5.29-7.832,3.854
		c-0.747-0.287-1.467-0.645-2.198-0.971c0,0.003,0.002,0.004,0.002,0.006c-0.006,0-0.011-0.001-0.017-0.002
		c0.473,1.189,1.736,1.902,1.952,3.244c0.119,0.737,0.307,1.481-0.208,2.157c-0.406,2.469-2.621,4.096-5.525,4.057
		c-2.786-0.036-4.951-1.677-5.336-4.04C74.234,53.565,76.22,50.71,79.174,50.341z M72.961,66.935
		c-0.833-2.907,0.829-5.367,4.11-6.087c4.189-0.916,7.874,2.383,6.804,6.089c-0.643,2.501-2.608,3.85-5.564,3.818
		C75.461,70.725,73.551,69.359,72.961,66.935z M83.826,80.878c-2.597,0.28-4.934-1.064-6.149-3.538
		c-0.875-2.1-0.126-3.746,1.476-5.113c1.977-1.685,4.244-1.851,6.563-0.954c1.93,0.747,3.048,2.278,3.398,4.323
		c0.083,0.48,0.016,0.968-0.436,1.294C88.179,79.114,86.368,80.602,83.826,80.878z M99.093,83.532
		c-0.731,2.336-2.551,3.334-4.771,3.591c-2.686,0.313-4.815-0.724-6.192-3.128c-0.009-0.194-0.018-0.388-0.028-0.581
		c0.062-0.24,0.121-0.479,0.181-0.719c-0.388-0.078-0.646-0.318-0.595-0.709c0.265-1.997,1.276-3.447,3.151-4.28
		c2.22-0.985,5.37-0.617,6.99,1.012C99.14,80.034,100.076,81.561,99.093,83.532z M112.132,83.488
		c-0.336,2.409-2.295,4.008-5.065,4.13c-2.872,0.129-5.364-1.441-5.856-3.694c-0.797-1.322-0.279-2.528,0.389-3.675
		c1.354-2.32,4.807-3.352,7.5-2.284C111.5,78.917,112.697,81.096,112.132,83.488z M123.188,78.126
		c-0.996,2.901-3.359,4.247-6.608,3.766c-2.521-0.375-4.103-1.927-4.264-4.188c-0.106-0.172-0.283-0.335-0.308-0.518
		c-0.274-2.161,0.899-3.557,2.628-4.489c2.494-1.347,4.995-1.045,7.148,0.698C123.217,74.556,124.041,76.159,123.188,78.126z"/>
	<path fill-rule="evenodd" clip-rule="evenodd" fill="#FBD8E7" d="M179.964,130.144c0,2.288-1.855,4.142-4.143,4.142H27.433
		c-2.287,0-4.143-1.854-4.143-4.142v-26.749c0-2.288,1.855-4.142,4.143-4.142h148.389c2.287,0,4.143,1.854,4.143,4.142V130.144z"/>
</g>
</svg>
