<?xml version="1.0" encoding="utf-8"?>
<!-- Generator: Adobe Illustrator 16.0.0, SVG Export Plug-In . SVG Version: 6.00 Build 0)  -->
<!DOCTYPE svg PUBLIC "-//W3C//DTD SVG 1.1//EN" "http://www.w3.org/Graphics/SVG/1.1/DTD/svg11.dtd">
<svg version="1.1" id="Layer_1" xmlns="http://www.w3.org/2000/svg" xmlns:xlink="http://www.w3.org/1999/xlink" x="0px" y="0px"
	 width="170.968px" height="94.627px" viewBox="0.052 0.065 170.968 94.627" enable-background="new 0.052 0.065 170.968 94.627"
	 xml:space="preserve">
<g>
	<path fill="#9B9BCC" d="M9.298,75.986c0.152-2.198,1.144-4.434,2.523-6.403c5.246-7.496,11.535-14.432,17.006-21.811
		c5.722-7.716,11.017-15.646,16.361-23.55c-1.88,0.115-5.229-0.61-6.899,0.019c-1.775,0.671-2.73,3.563-3.659,4.898
		c-1.447,2.083-2.828,4.205-4.327,6.262c-6.684,9.17-14.141,17.899-22.249,26.22c-4.387,4.505-8.414,9.658-7.968,15.738
		c0.431,5.871,4.294,11.052,11.2,13.052c1.872,0.542,3.802,0.966,5.766,1.312C9.056,84.735,8.865,78.7,9.298,75.986z"/>
	<path fill="#5D6AB2" d="M169.678,50.303c-1.271-7.175-2.743-14.335-4.134-21.497c-0.352-1.816-0.576-3.659-1.007-5.467
		c-0.004-0.019-0.008-0.037-0.014-0.055l-8.504,0.127c0.278,1.812,0.546,3.622,0.831,5.431c2.055,13.031,6.485,27.063,5.263,39.81
		c-0.435,4.532-6.009,9.226-10.677,11.26c-5.016,2.188-10.442,3.704-15.88,4.97c-18.792,4.372-39.146,3.494-58.555,4.098
		c-16.72,0.522-34.117,0.157-50.662-2.248c-4.857-0.708-10.905-1.328-14.416-4.459c-2.069-1.847-2.783-4.05-2.626-6.287
		c-0.433,2.714-0.242,8.75,7.754,15.737c7.327,1.287,15.15,1.402,22.455,1.831c10.262,0.604,20.548,0.955,30.833,1.087
		c21.27,0.273,42.601-0.511,63.623-3.354c9.271-1.252,19.13-3.103,26.663-8.087C173.059,74.973,171.756,62.04,169.678,50.303z"/>
	<g>
		<path fill="#54459C" d="M88.916,16.034c0-1.97-1.507-3.566-3.365-3.566H69.625c-1.857,0-3.364,1.597-3.364,3.566v1.069h22.654
			V16.034z"/>
		<path fill="#5D6AB2" d="M66.261,17.103v7.369c0,1.971,1.507,3.566,3.364,3.566h15.925c1.858,0,3.365-1.595,3.365-3.566v-7.369
			H66.261z"/>
		<path fill="#5D6AB2" d="M62.506,24.684c0,1.88-1.438,3.405-3.212,3.405H46.764c-1.773,0-3.212-1.525-3.212-3.405v-3.631
			c0-1.88,1.438-3.405,3.212-3.405h12.529c1.773,0,3.212,1.525,3.212,3.405V24.684z"/>
		<path fill="#948EC5" d="M168.14,27.119c-0.309-1.527-1.514-2.701-3.005-2.868c-0.098-0.009-0.195-0.016-0.296-0.016h-0.167H39.459
			c-1.858,0-3.364,1.597-3.364,3.566v11.65h2.13v-9.422c0-2.116,1.62-3.832,3.617-3.832c1.997,0,3.617,1.716,3.617,3.832v9.422
			h115.862h6.884v-11.65C168.205,27.568,168.18,27.339,168.14,27.119z"/>
		<path fill="#FBD8E7" d="M129.124,39.451H36.095v51.592c0,1.97,1.506,3.567,3.364,3.567h59.314L87.931,83.117L129.124,39.451z"/>
		<polygon fill="#FBD8E7" points="168.205,39.451 161.321,39.451 145.897,39.451 168.205,63.097 		"/>
		<path fill="#F0AECE" d="M164.839,94.611c0.579,0,1.125-0.158,1.601-0.431c0.762-0.448,1.346-1.192,1.614-2.087
			c0.097-0.331,0.15-0.684,0.15-1.05V63.097l-22.308-23.646h-16.772L87.932,83.116l10.842,11.493h65.576h0.489V94.611z"/>
		<path fill="#948EC5" d="M168.14,27.119c-0.282-1.543-1.503-2.728-3.005-2.868C166.626,24.417,167.833,25.592,168.14,27.119z"/>
		<path fill="#FBD8E7" d="M166.44,94.18c0.768-0.44,1.354-1.188,1.614-2.087C167.786,92.988,167.202,93.732,166.44,94.18z"/>
		<path fill="#FFFFFF" d="M165.135,24.25c-0.121-0.014-0.243-0.02-0.367-0.02c-0.032,0-0.065,0.004-0.096,0.005h0.167
			C164.94,24.235,165.038,24.242,165.135,24.25z"/>
		<path fill="#FFFFFF" d="M168.216,27.885c0-0.263-0.026-0.519-0.076-0.766c0.04,0.22,0.063,0.449,0.063,0.683v11.65v51.592
			c0,0.366-0.053,0.719-0.148,1.05c0.104-0.35,0.162-0.722,0.162-1.109V27.885z"/>
		<path fill="#FFFFFF" d="M164.35,94.611c0.137,0.017,0.277,0.028,0.419,0.028c0.607,0,1.177-0.167,1.672-0.459
			c-0.476,0.273-1.021,0.431-1.601,0.431H164.35z"/>
		<path fill="#54459C" d="M161.723,20.805c0,0.984-0.751,1.783-1.682,1.783h-15.267c-0.93,0-1.684-0.798-1.684-1.783v-4.681
			c0-0.986,0.753-1.785,1.684-1.785h15.267c0.929,0,1.682,0.799,1.682,1.785V20.805z"/>
		<path fill="#5D6AB2" d="M165.531,21.739c0,1.248-0.957,2.261-2.131,2.261h-21.981c-1.178,0-2.131-1.013-2.131-2.261l0,0
			c0-1.248,0.954-2.259,2.131-2.259H163.4C164.574,19.48,165.531,20.491,165.531,21.739L165.531,21.739z"/>
		<g>
			<path fill="#FBD8E7" d="M54.039,34.354v0.774c0,0.041,0.009,0.078,0.012,0.118h20.332c0.002-0.04,0.011-0.077,0.011-0.118v-0.774
				H54.039z"/>
			<path fill="#FBD8E7" d="M54.107,35.603c0.09,0.354,0.284,0.664,0.544,0.892h19.127c0.262-0.229,0.453-0.537,0.545-0.892H54.107z"
				/>
			<path fill="#FBD8E7" d="M54.039,28.619v0.385h20.354v-0.385c0-0.177-0.032-0.345-0.078-0.505H54.115
				C54.07,28.274,54.039,28.441,54.039,28.619z"/>
			<path fill="#FBD8E7" d="M55.311,36.851c0.131,0.034,0.267,0.058,0.41,0.058h16.99c0.143,0,0.277-0.023,0.41-0.058H55.311z"/>
			<path fill="#FBD8E7" d="M74.175,27.757c-0.288-0.546-0.831-0.922-1.464-0.922h-16.99c-0.633,0-1.178,0.376-1.464,0.922H74.175z"
				/>
			<rect x="54.039" y="29.361" fill="#FBD8E7" width="20.354" height="0.893"/>
			<rect x="54.039" y="33.106" fill="#FBD8E7" width="20.354" height="0.891"/>
			<rect x="54.039" y="30.609" fill="#FBD8E7" width="20.354" height="0.891"/>
			<rect x="54.039" y="31.857" fill="#FBD8E7" width="20.354" height="0.892"/>
		</g>
		<path fill="#9B9BCC" d="M41.842,26.198c-1.998,0-3.617,1.716-3.617,3.833v9.42h7.233v-9.422
			C45.458,27.914,43.838,26.198,41.842,26.198z"/>
		<path fill="#FDEEF5" d="M60.314,85.04H45.458V39.451h-7.233v48.967c-0.017,0.15-0.027,0.3-0.027,0.454
			c0,2.116,1.62,3.834,3.618,3.834h0.02c0.003,0,0.004,0,0.007,0c0.002,0,0.004,0,0.007,0h18.466c1.997,0,3.618-1.718,3.618-3.834
			C63.932,86.756,62.312,85.04,60.314,85.04z"/>
		<path fill="#F0AECE" d="M127.079,3.839c-0.93-1.797-1.505-2.614-3.487-2.718h-0.698c0.046-0.095,0.072-0.205,0.072-0.321
			c0-0.404-0.311-0.735-0.693-0.735h-2.481c-0.384,0-0.694,0.331-0.694,0.735c0,0.116,0.027,0.226,0.072,0.321h-11.121
			c0.045-0.095,0.073-0.205,0.073-0.321c0-0.404-0.31-0.735-0.694-0.735h-2.481c-0.382,0-0.694,0.331-0.694,0.735
			c0,0.116,0.027,0.226,0.071,0.321h-1.302c-1.926,0-2.806,1.128-3.485,2.718L92.56,17.783c0,0.056,0.006,0.111,0.012,0.167v19.636
			h41.48V17.833c0-0.018,0.003-0.034,0.003-0.051L127.079,3.839z"/>
		<path fill="#FBD8E7" d="M94.701,18.178h37.221v-0.189c0.002-0.016,0.003-0.031,0.003-0.045l-6.26-12.513
			c-0.834-1.611-1.35-2.347-3.127-2.437h-18.461c-1.727,0-2.517,1.013-3.127,2.437l-6.259,12.513c0,0.05,0.006,0.099,0.011,0.149
			L94.701,18.178L94.701,18.178z"/>
		<g>
			<ellipse fill="#5D6AB2" cx="112.465" cy="56.808" rx="35.102" ry="37.207"/>
			<ellipse fill="#948EC5" cx="112.465" cy="56.808" rx="27.252" ry="28.886"/>
			<ellipse opacity="0.4" fill="#F0AECE" enable-background="new    " cx="112.464" cy="56.808" rx="22.542" ry="23.893"/>
			<path fill="#2D2C7A" d="M113.475,64.533c-11.777,0.866-15.089-6.206-15.982-11.107c-0.218,1.092-0.335,2.221-0.335,3.381
				c0,8.961,6.854,16.224,15.308,16.224c8.176,0,14.853-6.791,15.284-15.347C124.961,61.067,120.527,64.018,113.475,64.533z"/>
			<path fill="#54459C" d="M113.475,64.533c7.05-0.515,11.486-3.466,14.275-6.849c0.016-0.29,0.022-0.581,0.022-0.877
				c0-8.962-6.854-16.226-15.307-16.226c-7.362,0-13.506,5.508-14.974,12.845C98.386,58.329,101.698,65.399,113.475,64.533z"/>
			<path fill="#FBD8E7" d="M124.235,50.761c0.761,5.284-7.517,4.083-10.292,2.167c-1.226-0.847-2.439-2.704-2.909-4.15
				c-0.522-1.608-0.253-4.256,1.197-5.354c2.124-1.602,5.096-0.334,7.052,0.948c1.83,1.196,3.884,2.939,4.641,5.15
				C124.077,49.968,124.178,50.382,124.235,50.761z"/>
		</g>
	</g>
</g>
</svg>
