<?xml version="1.0" encoding="utf-8"?>
<!-- Generator: Adobe Illustrator 16.0.0, SVG Export Plug-In . SVG Version: 6.00 Build 0)  -->
<!DOCTYPE svg PUBLIC "-//W3C//DTD SVG 1.1//EN" "http://www.w3.org/Graphics/SVG/1.1/DTD/svg11.dtd">
<svg version="1.1" id="Layer_1" xmlns="http://www.w3.org/2000/svg" xmlns:xlink="http://www.w3.org/1999/xlink" x="0px" y="0px"
	 width="195.708px" height="108.294px" viewBox="0 0 195.708 108.294" enable-background="new 0 0 195.708 108.294"
	 xml:space="preserve">
<g>
	<path fill="#9B9BCC" d="M10.635,86.971c0.175-2.518,1.31-5.076,2.889-7.33c6.005-8.582,13.204-16.52,19.467-24.967
		c6.549-8.832,12.61-17.91,18.727-26.957c-2.152,0.131-5.985-0.699-7.897,0.021c-2.032,0.768-3.125,4.078-4.189,5.607
		c-1.656,2.385-3.237,4.813-4.953,7.168C27.029,51.01,18.492,61.002,9.212,70.527C4.19,75.684-0.42,81.582,0.091,88.541
		c0.493,6.721,4.915,12.652,12.82,14.941c2.143,0.621,4.352,1.107,6.6,1.502C10.359,96.986,10.14,90.076,10.635,86.971z"/>
	<path fill="#5D6AB2" d="M194.22,57.572c-1.454-8.213-3.139-16.41-4.731-24.607c-0.403-2.08-0.66-4.189-1.153-6.258
		c-0.006-0.021-0.01-0.043-0.016-0.063l-9.733,0.146c0.317,2.074,0.625,4.146,0.95,6.217c2.352,14.916,7.424,30.98,6.025,45.57
		c-0.498,5.188-6.879,10.559-12.221,12.889c-5.743,2.504-11.954,4.24-18.178,5.688c-21.511,5.004-44.811,4-67.028,4.691
		c-19.139,0.598-39.053,0.18-57.992-2.574c-5.56-0.809-12.483-1.52-16.501-5.105c-2.369-2.113-3.186-4.635-3.007-7.195
		c-0.495,3.105-0.276,10.016,8.876,18.014c8.387,1.473,17.342,1.605,25.704,2.096c11.747,0.691,23.521,1.094,35.294,1.244
		c24.347,0.313,48.764-0.584,72.828-3.84c10.612-1.434,21.898-3.551,30.521-9.258C198.091,85.811,196.599,71.006,194.22,57.572z"/>
	<g>
		<path fill="#54459C" d="M101.773,18.344c0-2.254-1.725-4.082-3.852-4.082H79.692c-2.126,0-3.851,1.828-3.851,4.082v1.225h25.932
			V18.344z"/>
		<path fill="#5D6AB2" d="M75.841,19.568v8.436c0,2.256,1.725,4.082,3.851,4.082h18.229c2.127,0,3.852-1.826,3.852-4.082v-8.436
			H75.841z"/>
		<path fill="#5D6AB2" d="M71.542,28.246c0,2.152-1.647,3.898-3.677,3.898H53.523c-2.03,0-3.678-1.746-3.678-3.898V24.09
			c0-2.152,1.647-3.898,3.678-3.898h14.342c2.029,0,3.677,1.746,3.677,3.898V28.246z"/>
		<path fill="#948EC5" d="M192.46,31.033c-0.354-1.748-1.733-3.092-3.44-3.283c-0.112-0.01-0.225-0.018-0.339-0.018h-0.191H45.16
			c-2.127,0-3.851,1.828-3.851,4.082V45.15h2.438V34.365c0-2.422,1.854-4.387,4.141-4.387c2.286,0,4.14,1.965,4.14,4.387V45.15
			h132.626h7.879V31.814C192.533,31.547,192.506,31.285,192.46,31.033z"/>
		<path fill="#FBD8E7" d="M147.798,45.15H41.309v59.057c0,2.254,1.724,4.082,3.851,4.082h67.896l-12.41-13.156L147.798,45.15z"/>
		<polygon fill="#FBD8E7" points="192.533,45.15 184.654,45.15 166.999,45.15 192.533,72.217 		"/>
		<path fill="#F0AECE" d="M188.681,108.289c0.663,0,1.288-0.18,1.832-0.492c0.872-0.514,1.541-1.365,1.849-2.389
			c0.11-0.379,0.171-0.783,0.171-1.201v-31.99L166.999,45.15h-19.2l-47.152,49.982l12.41,13.156h75.065H188.681z"/>
		<path fill="#948EC5" d="M192.46,31.033c-0.324-1.766-1.72-3.123-3.44-3.283C190.727,27.941,192.107,29.285,192.46,31.033z"/>
		<path fill="#FBD8E7" d="M190.513,107.797c0.879-0.504,1.55-1.359,1.849-2.389C192.054,106.432,191.385,107.283,190.513,107.797z"
			/>
		<path fill="#FFFFFF" d="M189.02,27.75c-0.138-0.016-0.278-0.023-0.42-0.023c-0.037,0-0.074,0.004-0.11,0.006h0.191
			C188.795,27.732,188.908,27.74,189.02,27.75z"/>
		<path fill="#FFFFFF" d="M192.548,31.91c0-0.301-0.031-0.594-0.088-0.877c0.046,0.252,0.072,0.514,0.072,0.781V45.15v59.057
			c0,0.418-0.061,0.822-0.171,1.201c0.12-0.4,0.187-0.826,0.187-1.27V31.91z"/>
		<path fill="#FFFFFF" d="M188.122,108.289c0.157,0.02,0.316,0.033,0.479,0.033c0.694,0,1.347-0.191,1.913-0.525
			c-0.544,0.313-1.169,0.492-1.832,0.492H188.122z"/>
		<path fill="#54459C" d="M185.115,23.805c0,1.127-0.861,2.041-1.926,2.041h-17.475c-1.064,0-1.926-0.914-1.926-2.041v-5.357
			c0-1.129,0.861-2.043,1.926-2.043h17.475c1.064,0,1.926,0.914,1.926,2.043V23.805z"/>
		<path fill="#5D6AB2" d="M189.472,24.875c0,1.428-1.094,2.588-2.439,2.588h-25.161c-1.348,0-2.439-1.16-2.439-2.588l0,0
			c0-1.428,1.092-2.586,2.439-2.586h25.161C188.378,22.289,189.472,23.447,189.472,24.875L189.472,24.875z"/>
		<g>
			<path fill="#FBD8E7" d="M61.849,39.316v0.885c0,0.047,0.011,0.09,0.014,0.135h23.273c0.002-0.045,0.013-0.088,0.013-0.135v-0.885
				H61.849z"/>
			<path fill="#FBD8E7" d="M61.928,40.744c0.104,0.406,0.325,0.76,0.623,1.021h21.895c0.299-0.262,0.519-0.615,0.624-1.021H61.928z"
				/>
			<path fill="#FBD8E7" d="M61.849,32.75v0.441h23.3V32.75c0-0.203-0.036-0.395-0.089-0.578H61.937
				C61.885,32.355,61.849,32.547,61.849,32.75z"/>
			<path fill="#FBD8E7" d="M63.306,42.174c0.15,0.039,0.306,0.066,0.469,0.066h19.448c0.163,0,0.317-0.027,0.47-0.066H63.306z"/>
			<path fill="#FBD8E7" d="M84.899,31.764c-0.329-0.625-0.951-1.055-1.676-1.055H63.775c-0.725,0-1.348,0.43-1.676,1.055H84.899z"/>
			<rect x="61.849" y="33.6" fill="#FBD8E7" width="23.3" height="1.021"/>
			<rect x="61.849" y="37.887" fill="#FBD8E7" width="23.3" height="1.02"/>
			<rect x="61.849" y="35.029" fill="#FBD8E7" width="23.3" height="1.02"/>
			<rect x="61.849" y="36.457" fill="#FBD8E7" width="23.3" height="1.021"/>
		</g>
		<path fill="#9B9BCC" d="M47.888,29.979c-2.287,0-4.141,1.965-4.141,4.387V45.15h8.28V34.365
			C52.028,31.943,50.174,29.979,47.888,29.979z"/>
		<path fill="#FDEEF5" d="M69.033,97.334H52.028V45.15h-8.28v56.051c-0.019,0.172-0.031,0.344-0.031,0.521
			c0,2.422,1.854,4.389,4.141,4.389h0.023c0.003,0,0.005,0,0.008,0s0.005,0,0.008,0h21.137c2.287,0,4.142-1.967,4.142-4.389
			C73.174,99.299,71.32,97.334,69.033,97.334z"/>
		<path fill="#F0AECE" d="M145.458,4.385c-1.065-2.057-1.724-2.992-3.992-3.111h-0.8c0.052-0.109,0.083-0.234,0.083-0.367
			c0-0.463-0.356-0.842-0.794-0.842h-2.84c-0.439,0-0.794,0.379-0.794,0.842c0,0.133,0.03,0.258,0.082,0.367h-12.73
			c0.051-0.109,0.083-0.234,0.083-0.367c0-0.463-0.354-0.842-0.794-0.842h-2.84c-0.438,0-0.795,0.379-0.795,0.842
			c0,0.133,0.031,0.258,0.082,0.367h-1.49c-2.205,0-3.213,1.291-3.991,3.111l-7.984,15.961c0,0.064,0.007,0.127,0.013,0.191v22.477
			h47.482V20.404c0-0.02,0.003-0.039,0.003-0.059L145.458,4.385z"/>
		<path fill="#FBD8E7" d="M108.395,20.799H151v-0.217c0.002-0.018,0.004-0.035,0.004-0.051l-7.165-14.324
			c-0.955-1.844-1.545-2.686-3.58-2.789h-21.131c-1.977,0-2.881,1.16-3.581,2.789l-7.164,14.324c0,0.057,0.008,0.113,0.013,0.17
			V20.799z"/>
		<g>
			<ellipse fill="#5D6AB2" cx="128.73" cy="65.018" rx="40.18" ry="42.59"/>
			<ellipse fill="#948EC5" cx="128.73" cy="65.018" rx="31.194" ry="33.066"/>
			<ellipse opacity="0.4" fill="#F0AECE" cx="128.729" cy="65.018" rx="25.803" ry="27.35"/>
			<path fill="#2D2C7A" d="M129.886,73.861c-13.482,0.99-17.273-7.104-18.296-12.715c-0.249,1.25-0.383,2.543-0.383,3.871
				c0,10.258,7.845,18.572,17.523,18.572c9.358,0,17.001-7.775,17.496-17.568C143.034,69.893,137.957,73.271,129.886,73.861z"/>
			<path fill="#54459C" d="M129.886,73.861c8.07-0.59,13.147-3.969,16.341-7.84c0.017-0.332,0.025-0.666,0.025-1.004
				c0-10.258-7.845-18.574-17.521-18.574c-8.427,0-15.46,6.305-17.141,14.703C112.613,66.758,116.404,74.852,129.886,73.861z"/>
			<path fill="#FBD8E7" d="M142.201,58.096c0.873,6.049-8.603,4.674-11.781,2.48c-1.402-0.969-2.791-3.094-3.329-4.75
				c-0.599-1.84-0.29-4.871,1.371-6.127c2.431-1.834,5.831-0.383,8.072,1.084c2.094,1.369,4.446,3.365,5.311,5.895
				C142.021,57.189,142.137,57.662,142.201,58.096z"/>
		</g>
	</g>
</g>
</svg>
