<?xml version="1.0" encoding="utf-8"?>
<!-- Generator: Adobe Illustrator 16.0.0, SVG Export Plug-In . SVG Version: 6.00 Build 0)  -->
<!DOCTYPE svg PUBLIC "-//W3C//DTD SVG 1.1//EN" "http://www.w3.org/Graphics/SVG/1.1/DTD/svg11.dtd">
<svg version="1.1" id="Layer_1" xmlns="http://www.w3.org/2000/svg" xmlns:xlink="http://www.w3.org/1999/xlink" x="0px" y="0px"
	 width="236.292px" height="140.555px" viewBox="0 0 236.292 140.555" enable-background="new 0 0 236.292 140.555"
	 xml:space="preserve">
<g>
	<path fill="#5D6AB2" d="M87.867,0.436c-6.492,0.604-12.888,1.85-18.97,3.676c-16.862,5.063-32.738,13.48-46.262,24.766
		C13.044,36.883,6.208,47.205,2.897,59.266c-4.828,17.58-3.361,37.066,2.463,54.236c1.215,3.582,2.523,7.457,4.537,10.699
		c0.857,1.383,17.512-1.211,19.252-1.301c10.661-0.551,21.622-1.039,32.245,0.375c-7.828-18.48-14.092-37.816-14.092-37.816
		C33.191,41.105,69.37,12,87.867,0.436z"/>
	<path fill="#F0AECE" d="M147.186,18.049C131.403,3.406,109.132-1.563,87.897,0.414C69.4,11.979,33.222,41.084,47.333,85.438
		c0,0,6.264,19.336,14.092,37.816c0.365,0.047,0.732,0.08,1.097,0.133c3.398,0.496,6.768,1.164,10.119,1.93
		c30.887-29.605,90.525-45.754,106.697-49.711C170.545,56.277,163.166,32.877,147.186,18.049z"/>
	<path fill="#5D6AB2" d="M223.764,89.471l-44.372-13.746c-0.019-0.037-0.036-0.08-0.054-0.119
		c-16.172,3.957-75.811,20.105-106.697,49.711c12.173,2.781,43.199,13.041,44.983,13.545c12.962,3.641,27.784,0.941,40.181-3.639
		c3.614-1.336,7.145-3.02,10.438-5.023c7.21-4.389,13.757-10.049,21.986-12.496c6.001-1.787,12.271-2.754,18.509-3.199
		c8.001-0.568,23.04-0.574,27.073-11.229C238.9,95.117,226.17,89.631,223.764,89.471z"/>
	<g>
		<path fill="#FFFFFF" d="M117.65,86.492c-0.53-11.865-0.581-23.746-0.97-35.615c-2.134,0.885-4.268,1.768-6.401,2.652
			c5.673,5.721,10.231,12.436,16.03,18.045c2.55,2.467,6.031,0.477,6.401-2.65c0.579-4.9,0.252-9.92,0.328-14.844
			c0.031-2.027,0.04-4.109,0.427-6.105c0.422-2.18-5.076-0.385-3.618,0.914c0.679,0.604,1.265,1.32,1.853,2.01
			c6.043,7.08,10.264,15.521,15.723,23.02c2.816,3.867,9.329,0.131,6.477-3.785c-3.076-4.225-5.734-8.777-8.629-13.125
			c-3.12-4.688-6.375-10.543-10.881-14.061c-5.342-4.172-8.098,1.553-8.613,6.23c-0.722,6.551,0.209,13.201-0.565,19.746
			c2.134-0.885,4.268-1.768,6.401-2.652c-5.799-5.609-10.357-12.324-16.03-18.045c-2.251-2.271-6.51-0.652-6.401,2.65
			c0.389,11.869,0.439,23.75,0.97,35.615C110.366,91.309,117.867,91.328,117.65,86.492L117.65,86.492z"/>
	</g>
</g>
</svg>
