<?xml version="1.0" encoding="utf-8"?>
<!-- Generator: Adobe Illustrator 16.0.0, SVG Export Plug-In . SVG Version: 6.00 Build 0)  -->
<!DOCTYPE svg PUBLIC "-//W3C//DTD SVG 1.1//EN" "http://www.w3.org/Graphics/SVG/1.1/DTD/svg11.dtd">
<svg version="1.1" id="Layer_1" xmlns="http://www.w3.org/2000/svg" xmlns:xlink="http://www.w3.org/1999/xlink" x="0px" y="0px"
	 width="202.646px" height="120.542px" viewBox="0 0 202.646 120.542" enable-background="new 0 0 202.646 120.542"
	 xml:space="preserve">
<g>
	<path fill="#4759A5" d="M75.355,0.374c-5.568,0.518-11.053,1.587-16.269,3.152C44.625,7.868,31.01,15.087,19.412,24.766
		C11.187,31.631,5.324,40.484,2.484,50.827C-1.656,65.904-0.398,82.615,4.597,97.34c1.042,3.072,2.164,6.396,3.891,9.176
		c0.735,1.186,15.019-1.039,16.51-1.116c9.143-0.473,18.543-0.892,27.654,0.321C45.938,89.873,40.566,73.29,40.566,73.29
		C28.465,35.252,59.492,10.291,75.355,0.374z"/>
	<path fill="#F0AECE" d="M126.228,15.479C112.692,2.921,93.592-1.341,75.381,0.355c-15.863,9.918-46.889,34.879-34.788,72.917
		c0,0,5.372,16.583,12.085,32.432c0.313,0.04,0.628,0.068,0.941,0.114c2.914,0.425,5.804,0.998,8.678,1.654
		C88.786,82.083,139.932,68.234,153.8,64.84C146.26,48.263,139.932,28.196,126.228,15.479z"/>
	<path fill="#4759A5" d="M191.902,76.731l-38.055-11.789c-0.017-0.032-0.03-0.069-0.047-0.102
		c-13.868,3.394-65.015,17.242-91.503,42.632c10.439,2.386,37.047,11.185,38.578,11.616c11.116,3.123,23.828,0.808,34.459-3.12
		c3.1-1.146,6.128-2.59,8.952-4.308c6.183-3.765,11.797-8.618,18.854-10.717c5.146-1.532,10.523-2.361,15.874-2.743
		c6.861-0.487,19.759-0.493,23.218-9.631C204.882,81.573,193.964,76.868,191.902,76.731z"/>
	<g>
		<path fill="#FFFFFF" d="M100.897,74.176c-0.454-10.175-0.498-20.364-0.832-30.543c-1.83,0.759-3.66,1.516-5.49,2.274
			c4.865,4.907,8.774,10.666,13.748,15.476c2.187,2.116,5.172,0.409,5.49-2.272c0.496-4.203,0.216-8.507,0.282-12.73
			c0.026-1.739,0.033-3.524,0.365-5.236c0.362-1.869-4.353-0.33-3.102,0.784c0.582,0.518,1.084,1.132,1.589,1.724
			c5.183,6.072,8.802,13.311,13.484,19.742c2.414,3.317,8,0.112,5.555-3.246c-2.639-3.623-4.918-7.527-7.4-11.256
			c-2.676-4.021-5.468-9.042-9.332-12.059c-4.582-3.578-6.945,1.332-7.387,5.343c-0.619,5.618,0.18,11.322-0.484,16.935
			c1.83-0.759,3.66-1.517,5.489-2.274c-4.973-4.81-8.882-10.569-13.747-15.476c-1.93-1.947-5.583-0.559-5.489,2.273
			c0.333,10.179,0.376,20.368,0.832,30.543C94.65,78.307,101.083,78.323,100.897,74.176L100.897,74.176z"/>
	</g>
</g>
</svg>
