<?xml version="1.0" encoding="utf-8"?>
<!-- Generator: Adobe Illustrator 16.0.0, SVG Export Plug-In . SVG Version: 6.00 Build 0)  -->
<!DOCTYPE svg PUBLIC "-//W3C//DTD SVG 1.1//EN" "http://www.w3.org/Graphics/SVG/1.1/DTD/svg11.dtd">
<svg version="1.1" id="Layer_1" xmlns="http://www.w3.org/2000/svg" xmlns:xlink="http://www.w3.org/1999/xlink" x="0px" y="0px"
	 width="738px" height="143px" viewBox="0 0 738 143" enable-background="new 0 0 738 143" xml:space="preserve">
<g>
	<path fill="#EEAECF" d="M351.728,58.648c0-1.633,0.098-3.238,0.271-4.814C227.938,54.48,130,62.141,130,71.5
		c0,9.486,100.668,17.232,227.166,17.689c-3.423-5.904-5.438-13.09-5.438-20.852V58.648z"/>
	<path fill="#F7C7DD" d="M552.233,105.951c-51.392,5.146-114.718,8.186-183.233,8.186c-171.761,0-311-19.09-311-42.637
		c0-23.344,136.842-42.303,306.547-42.631c4.867-4.127,10.788-6.555,17.181-6.555h255.086C569.567,8.572,474.451,0,369,0
		C165.207,0,0,32.012,0,71.5S165.207,143,369,143c74.288,0,143.445-4.256,201.346-11.574
		C559.846,127.549,552.352,117.621,552.233,105.951z"/>
	<path fill="#F8DCEA" d="M552.252,104.672H381.728c-10.16,0-19.134-6.123-24.562-15.482C230.668,88.732,130,80.986,130,71.5
		c0-9.359,97.938-17.02,221.998-17.666c1.128-10.318,5.828-19.266,12.549-24.965C194.842,29.197,58,48.156,58,71.5
		c0,23.547,139.239,42.637,311,42.637c68.516,0,131.842-3.039,183.233-8.186c4.125-0.414,8.173-0.84,12.141-1.279H552.252z"/>
	<path fill="#EFB2D1" d="M700.506,40.063c-16.551-6.539-38.102-12.518-63.692-17.748H381.728c-6.393,0-12.313,2.428-17.181,6.555
		c1.484-0.002,2.965-0.008,4.453-0.008c171.761,0,311,19.09,311,42.639c0,2.27-1.307,4.498-3.799,6.672
		c-12.221,10.66-53.254,20.008-111.827,26.5c-3.968,0.439-8.016,0.865-12.141,1.279c0.118,11.67,7.612,21.598,18.112,25.475
		c89.739-11.344,152.432-30.049,165.235-51.695c1.598-2.701,2.419-5.447,2.419-8.23C738,60.221,724.515,49.551,700.506,40.063z"/>
	<path fill="#F7C7DD" d="M369,28.861c-1.488,0-2.969,0.006-4.453,0.008c-6.721,5.699-11.421,14.646-12.549,24.965
		c5.617-0.029,11.284-0.045,17.002-0.045c131.996,0,239,7.928,239,17.711c0,2.359-6.248,4.611-17.559,6.672
		c-6.313,1.148-14.197,2.238-23.477,3.254C523.988,86.123,451.361,89.211,369,89.211c-3.969,0-7.913-0.008-11.834-0.021
		c5.428,9.359,14.401,15.482,24.562,15.482h170.524h12.122c58.573-6.492,99.606-15.84,111.827-26.5
		C678.693,75.998,680,73.77,680,71.5C680,47.951,540.761,28.861,369,28.861z"/>
	<path fill="#E376AE" d="M369,53.789c-5.718,0-11.385,0.016-17.002,0.045c-0.173,1.576-0.271,3.182-0.271,4.814v9.689
		c0,7.762,2.016,14.947,5.438,20.852c3.921,0.014,7.865,0.021,11.834,0.021c82.361,0,154.988-3.088,197.965-7.785
		c9.279-1.016,17.163-2.105,23.477-3.254C601.752,76.111,608,73.859,608,71.5C608,61.717,500.996,53.789,369,53.789z"/>
</g>
</svg>
