<?xml version="1.0" encoding="utf-8"?>
<!-- Generator: Adobe Illustrator 16.0.0, SVG Export Plug-In . SVG Version: 6.00 Build 0)  -->
<!DOCTYPE svg PUBLIC "-//W3C//DTD SVG 1.1//EN" "http://www.w3.org/Graphics/SVG/1.1/DTD/svg11.dtd">
<svg version="1.1" id="Layer_1" xmlns="http://www.w3.org/2000/svg" xmlns:xlink="http://www.w3.org/1999/xlink" x="0px" y="0px"
	 width="519.297px" height="569.02px" viewBox="0 0 519.297 569.02" enable-background="new 0 0 519.297 569.02"
	 xml:space="preserve">
<g>
	<path fill="#F9E2EE" d="M207.144,152.189c0,0-61.5-22-116.5-3.5c0,0-53,45.5-36.5,149.5c0,0,72.5,13,138,1
		C192.144,299.189,228.644,211.689,207.144,152.189z"/>
	<g>
		<defs>
			<path id="SVGID_1_" d="M207.144,152.189c0,0-61.5-22-116.5-3.5c0,0-53,45.5-36.5,149.5c0,0,72.5,13,138,1
				C192.144,299.189,228.644,211.689,207.144,152.189z"/>
		</defs>
		<clipPath id="SVGID_2_">
			<use xlink:href="#SVGID_1_"  overflow="visible"/>
		</clipPath>
		<circle clip-path="url(#SVGID_2_)" fill="#948EC5" cx="120.875" cy="72.256" r="5.999"/>
		<circle clip-path="url(#SVGID_2_)" fill="#948EC5" cx="138.317" cy="89.698" r="6"/>
		<circle clip-path="url(#SVGID_2_)" fill="#948EC5" cx="155.759" cy="107.141" r="6"/>
		<circle clip-path="url(#SVGID_2_)" fill="#948EC5" cx="173.202" cy="124.582" r="6"/>
		<circle clip-path="url(#SVGID_2_)" fill="#948EC5" cx="190.644" cy="142.024" r="6.001"/>
		<circle clip-path="url(#SVGID_2_)" fill="#948EC5" cx="208.086" cy="159.467" r="5.999"/>
		<circle clip-path="url(#SVGID_2_)" fill="#948EC5" cx="225.528" cy="176.909" r="6"/>
		<circle clip-path="url(#SVGID_2_)" fill="#948EC5" cx="242.97" cy="194.352" r="6"/>
		<circle clip-path="url(#SVGID_2_)" fill="#948EC5" cx="260.413" cy="211.793" r="6"/>
		<circle clip-path="url(#SVGID_2_)" fill="#948EC5" cx="277.854" cy="229.235" r="6.001"/>
		<circle clip-path="url(#SVGID_2_)" fill="#948EC5" cx="106.379" cy="86.752" r="6"/>
		<circle clip-path="url(#SVGID_2_)" fill="#948EC5" cx="123.821" cy="104.193" r="6"/>
		<circle clip-path="url(#SVGID_2_)" fill="#948EC5" cx="141.264" cy="121.636" r="6"/>
		<circle clip-path="url(#SVGID_2_)" fill="#948EC5" cx="158.706" cy="139.078" r="6"/>
		<circle clip-path="url(#SVGID_2_)" fill="#948EC5" cx="176.148" cy="156.521" r="6"/>
		<circle clip-path="url(#SVGID_2_)" fill="#948EC5" cx="193.59" cy="173.963" r="6"/>
		<circle clip-path="url(#SVGID_2_)" fill="#948EC5" cx="211.032" cy="191.404" r="6"/>
		<circle clip-path="url(#SVGID_2_)" fill="#948EC5" cx="228.475" cy="208.847" r="6"/>
		<circle clip-path="url(#SVGID_2_)" fill="#948EC5" cx="245.917" cy="226.289" r="6"/>
		<circle clip-path="url(#SVGID_2_)" fill="#948EC5" cx="263.359" cy="243.731" r="6"/>
		<circle clip-path="url(#SVGID_2_)" fill="#948EC5" cx="91.883" cy="101.247" r="6"/>
		<circle clip-path="url(#SVGID_2_)" fill="#948EC5" cx="109.326" cy="118.689" r="6"/>
		<circle clip-path="url(#SVGID_2_)" fill="#948EC5" cx="126.768" cy="136.132" r="6"/>
		<circle clip-path="url(#SVGID_2_)" fill="#948EC5" cx="144.21" cy="153.574" r="6"/>
		<circle clip-path="url(#SVGID_2_)" fill="#948EC5" cx="161.652" cy="171.016" r="5.999"/>
		<circle clip-path="url(#SVGID_2_)" fill="#948EC5" cx="179.094" cy="188.458" r="6"/>
		<circle clip-path="url(#SVGID_2_)" fill="#948EC5" cx="196.537" cy="205.9" r="6"/>
		<circle clip-path="url(#SVGID_2_)" fill="#948EC5" cx="213.979" cy="223.343" r="6"/>
		<circle clip-path="url(#SVGID_2_)" fill="#948EC5" cx="231.421" cy="240.785" r="6"/>
		<circle clip-path="url(#SVGID_2_)" fill="#948EC5" cx="248.863" cy="258.227" r="5.999"/>
		<circle clip-path="url(#SVGID_2_)" fill="#948EC5" cx="77.388" cy="115.743" r="6.001"/>
		<circle clip-path="url(#SVGID_2_)" fill="#948EC5" cx="94.83" cy="133.186" r="5.999"/>
		<circle clip-path="url(#SVGID_2_)" fill="#948EC5" cx="112.272" cy="150.627" r="6"/>
		<circle clip-path="url(#SVGID_2_)" fill="#948EC5" cx="129.714" cy="168.069" r="6"/>
		<circle clip-path="url(#SVGID_2_)" fill="#948EC5" cx="147.157" cy="185.512" r="6"/>
		<circle clip-path="url(#SVGID_2_)" fill="#948EC5" cx="164.599" cy="202.954" r="6.001"/>
		<circle clip-path="url(#SVGID_2_)" fill="#948EC5" cx="182.041" cy="220.396" r="5.999"/>
		<circle clip-path="url(#SVGID_2_)" fill="#948EC5" cx="199.483" cy="237.838" r="6"/>
		<circle clip-path="url(#SVGID_2_)" fill="#948EC5" cx="216.925" cy="255.28" r="6"/>
		<circle clip-path="url(#SVGID_2_)" fill="#948EC5" cx="234.368" cy="272.723" r="6"/>
		<circle clip-path="url(#SVGID_2_)" fill="#948EC5" cx="62.892" cy="130.238" r="6"/>
		<circle clip-path="url(#SVGID_2_)" fill="#948EC5" cx="80.334" cy="147.681" r="6"/>
		<circle clip-path="url(#SVGID_2_)" fill="#948EC5" cx="97.776" cy="165.123" r="6"/>
		<circle clip-path="url(#SVGID_2_)" fill="#948EC5" cx="115.219" cy="182.565" r="6"/>
		<circle clip-path="url(#SVGID_2_)" fill="#948EC5" cx="132.661" cy="200.008" r="6"/>
		<circle clip-path="url(#SVGID_2_)" fill="#948EC5" cx="150.103" cy="217.449" r="6"/>
		<circle clip-path="url(#SVGID_2_)" fill="#948EC5" cx="167.545" cy="234.892" r="6"/>
		<circle clip-path="url(#SVGID_2_)" fill="#948EC5" cx="184.987" cy="252.334" r="6"/>
		<circle clip-path="url(#SVGID_2_)" fill="#948EC5" cx="202.43" cy="269.776" r="6"/>
		<circle clip-path="url(#SVGID_2_)" fill="#948EC5" cx="219.872" cy="287.219" r="6"/>
		<circle clip-path="url(#SVGID_2_)" fill="#948EC5" cx="48.396" cy="144.734" r="5.999"/>
		<circle clip-path="url(#SVGID_2_)" fill="#948EC5" cx="65.838" cy="162.177" r="6"/>
		<circle clip-path="url(#SVGID_2_)" fill="#948EC5" cx="83.281" cy="179.619" r="6"/>
		<circle clip-path="url(#SVGID_2_)" fill="#948EC5" cx="100.723" cy="197.061" r="6"/>
		<circle clip-path="url(#SVGID_2_)" fill="#948EC5" cx="118.165" cy="214.503" r="6.001"/>
		<circle clip-path="url(#SVGID_2_)" fill="#948EC5" cx="135.607" cy="231.945" r="5.999"/>
		<circle clip-path="url(#SVGID_2_)" fill="#948EC5" cx="153.049" cy="249.388" r="6"/>
		<circle clip-path="url(#SVGID_2_)" fill="#948EC5" cx="170.492" cy="266.83" r="6"/>
		<circle clip-path="url(#SVGID_2_)" fill="#948EC5" cx="187.934" cy="284.271" r="6"/>
		<circle clip-path="url(#SVGID_2_)" fill="#948EC5" cx="205.376" cy="301.714" r="6.001"/>
		<circle clip-path="url(#SVGID_2_)" fill="#948EC5" cx="33.901" cy="159.23" r="6"/>
		<circle clip-path="url(#SVGID_2_)" fill="#948EC5" cx="51.343" cy="176.672" r="6"/>
		<circle clip-path="url(#SVGID_2_)" fill="#948EC5" cx="68.785" cy="194.114" r="6"/>
		<circle clip-path="url(#SVGID_2_)" fill="#948EC5" cx="86.227" cy="211.557" r="6"/>
		<circle clip-path="url(#SVGID_2_)" fill="#948EC5" cx="103.669" cy="228.999" r="6"/>
		<circle clip-path="url(#SVGID_2_)" fill="#948EC5" cx="121.112" cy="246.441" r="6"/>
		<circle clip-path="url(#SVGID_2_)" fill="#948EC5" cx="138.554" cy="263.883" r="6"/>
		<circle clip-path="url(#SVGID_2_)" fill="#948EC5" cx="155.996" cy="281.325" r="6"/>
		<circle clip-path="url(#SVGID_2_)" fill="#948EC5" cx="173.438" cy="298.768" r="6"/>
		<circle clip-path="url(#SVGID_2_)" fill="#948EC5" cx="190.88" cy="316.21" r="6"/>
		<circle clip-path="url(#SVGID_2_)" fill="#948EC5" cx="19.405" cy="173.726" r="6"/>
		<circle clip-path="url(#SVGID_2_)" fill="#948EC5" cx="36.847" cy="191.168" r="6"/>
		<circle clip-path="url(#SVGID_2_)" fill="#948EC5" cx="54.29" cy="208.61" r="6"/>
		<circle clip-path="url(#SVGID_2_)" fill="#948EC5" cx="71.732" cy="226.053" r="6"/>
		<circle clip-path="url(#SVGID_2_)" fill="#948EC5" cx="89.174" cy="243.494" r="5.999"/>
		<circle clip-path="url(#SVGID_2_)" fill="#948EC5" cx="106.616" cy="260.937" r="6"/>
		<circle clip-path="url(#SVGID_2_)" fill="#948EC5" cx="124.058" cy="278.379" r="6"/>
		<circle clip-path="url(#SVGID_2_)" fill="#948EC5" cx="141.5" cy="295.821" r="6"/>
		<circle clip-path="url(#SVGID_2_)" fill="#948EC5" cx="158.943" cy="313.264" r="6"/>
		<circle clip-path="url(#SVGID_2_)" fill="#948EC5" cx="176.385" cy="330.705" r="5.999"/>
		<circle clip-path="url(#SVGID_2_)" fill="#948EC5" cx="4.909" cy="188.222" r="6.001"/>
		<circle clip-path="url(#SVGID_2_)" fill="#948EC5" cx="22.352" cy="205.664" r="5.999"/>
		<circle clip-path="url(#SVGID_2_)" fill="#948EC5" cx="39.793" cy="223.105" r="6"/>
		<circle clip-path="url(#SVGID_2_)" fill="#948EC5" cx="57.236" cy="240.548" r="6"/>
		<circle clip-path="url(#SVGID_2_)" fill="#948EC5" cx="74.678" cy="257.99" r="6"/>
		<circle clip-path="url(#SVGID_2_)" fill="#948EC5" cx="92.12" cy="275.433" r="6.001"/>
		<circle clip-path="url(#SVGID_2_)" fill="#948EC5" cx="109.563" cy="292.875" r="5.999"/>
		<circle clip-path="url(#SVGID_2_)" fill="#948EC5" cx="127.004" cy="310.316" r="6"/>
		<circle clip-path="url(#SVGID_2_)" fill="#948EC5" cx="144.447" cy="327.759" r="6"/>
		<circle clip-path="url(#SVGID_2_)" fill="#948EC5" cx="161.889" cy="345.201" r="6"/>
		<circle clip-path="url(#SVGID_2_)" fill="#948EC5" cx="-9.586" cy="202.717" r="6"/>
		<circle clip-path="url(#SVGID_2_)" fill="#948EC5" cx="7.856" cy="220.159" r="6"/>
		<circle clip-path="url(#SVGID_2_)" fill="#948EC5" cx="25.298" cy="237.602" r="6"/>
		<circle clip-path="url(#SVGID_2_)" fill="#948EC5" cx="42.74" cy="255.044" r="6"/>
		<circle clip-path="url(#SVGID_2_)" fill="#948EC5" cx="60.182" cy="272.486" r="6"/>
		<circle clip-path="url(#SVGID_2_)" fill="#948EC5" cx="77.625" cy="289.928" r="6"/>
		<circle clip-path="url(#SVGID_2_)" fill="#948EC5" cx="95.067" cy="307.37" r="6"/>
		<circle clip-path="url(#SVGID_2_)" fill="#948EC5" cx="112.509" cy="324.813" r="6"/>
		<circle clip-path="url(#SVGID_2_)" fill="#948EC5" cx="129.951" cy="342.255" r="6"/>
		<circle clip-path="url(#SVGID_2_)" fill="#948EC5" cx="147.394" cy="359.697" r="6"/>
		<circle clip-path="url(#SVGID_2_)" fill="#948EC5" cx="-24.082" cy="217.213" r="5.999"/>
		<circle clip-path="url(#SVGID_2_)" fill="#948EC5" cx="-6.64" cy="234.655" r="6"/>
		<circle clip-path="url(#SVGID_2_)" fill="#948EC5" cx="10.802" cy="252.098" r="6"/>
		<circle clip-path="url(#SVGID_2_)" fill="#948EC5" cx="28.245" cy="269.539" r="6"/>
		<circle clip-path="url(#SVGID_2_)" fill="#948EC5" cx="45.687" cy="286.981" r="6"/>
		<circle clip-path="url(#SVGID_2_)" fill="#948EC5" cx="63.129" cy="304.424" r="5.999"/>
		<circle clip-path="url(#SVGID_2_)" fill="#948EC5" cx="80.571" cy="321.866" r="6"/>
		<circle clip-path="url(#SVGID_2_)" fill="#948EC5" cx="98.013" cy="339.309" r="6"/>
		<circle clip-path="url(#SVGID_2_)" fill="#948EC5" cx="115.456" cy="356.75" r="6"/>
		<circle clip-path="url(#SVGID_2_)" fill="#948EC5" cx="132.898" cy="374.192" r="6"/>
	</g>
	<g>
		<path fill="#804076" d="M256.683,364.568"/>
		<path fill="#948EC5" d="M199.893,290.475c-8.25,0-10.656,5.168-5.348,11.482l52.58,62.545c3.593,4.273,8.729,5.645,13.322,4.135
			c-19.809-22.719-33.934-55.814-41.936-78.162H199.893z"/>
		<path fill="#54459C" d="M266.43,364.502l52.58-62.545c5.309-6.314,2.902-11.482-5.348-11.482h-95.15
			c8.002,22.348,22.127,55.443,41.936,78.162C262.642,367.914,264.714,366.545,266.43,364.502z"/>
		<path fill="#2D2C7A" d="M261.454,404.229h6.458V368.07c-1.944,0.223-4.124,0.389-6.458,0.486V404.229z"/>
		<path fill="#948EC5" d="M256.776,368.652c-4.117,0-7.941-0.215-11.136-0.582v36.158h15.813v-35.672
			C259.952,368.617,258.388,368.652,256.776,368.652z"/>
		<path fill="#948EC5" d="M261.454,388.391v-24.332c-1.247,0.15-2.641,0.244-4.209,0.244c-8.958,0-13.422-2.963-13.422-2.963
			l-0.027,24.252c0,0.795,0.681,1.537,1.845,2.174v0.035c3.194,0.445,7.019,0.705,11.136,0.705
			C258.388,388.506,259.952,388.465,261.454,388.391z"/>
		<path fill="#54459C" d="M261.454,364.059v24.332c2.334-0.117,4.514-0.32,6.458-0.59v-0.035c1.164-0.637,1.846-1.379,1.846-2.174
			v-24.234C269.758,361.357,267.329,363.357,261.454,364.059z"/>
	</g>
	<path fill="#54459C" d="M395.453,314.791c-16.572-5.416-24.95-25.131-18.711-44.039l80.476-243.941
		c6.239-18.906,24.729-29.84,41.303-24.426l0,0c16.573,5.416,24.95,25.133,18.712,44.039l-80.478,243.943
		C430.516,309.273,412.027,320.207,395.453,314.791L395.453,314.791z"/>
	<path fill="#F0788E" d="M394.734,309.238c-13.93-4.553-20.339-23.043-14.313-41.307l77.731-235.621
		c6.027-18.262,22.201-29.373,36.133-24.822l0,0c13.93,4.553,20.338,23.047,14.312,41.307l-77.732,235.623
		C424.84,302.68,408.665,313.791,394.734,309.238L394.734,309.238z"/>
	<ellipse fill="#804063" cx="401.896" cy="285.371" rx="19.75" ry="19.656"/>
	<ellipse fill="#A1508B" cx="401.896" cy="285.371" rx="16.75" ry="16.672"/>
	<path fill="#804076" d="M394.562,295.637c-0.572,0.57-1.501,0.57-2.074,0l0,0c-0.571-0.57-0.571-1.494,0-2.064l16.903-16.822
		c0.573-0.57,1.501-0.57,2.073,0l0,0c0.573,0.57,0.573,1.494,0,2.064L394.562,295.637z"/>
	<path fill="#804076" d="M392.488,278.814c-0.572-0.57-0.572-1.494,0-2.064l0,0c0.573-0.57,1.501-0.57,2.073,0l16.902,16.822
		c0.574,0.57,0.574,1.494,0,2.064l0,0c-0.572,0.57-1.5,0.57-2.072,0L392.488,278.814z"/>
	<path fill="#766CB1" d="M192.33,253.516H23.796c-12.24,0-22.307,12.418-23.525,28.334h215.585
		C214.638,265.934,204.569,253.516,192.33,253.516z"/>
	<path fill="#F2B9D5" d="M0.271,281.85c-0.082,1.068-0.124,2.152-0.124,3.25c0,17.443,10.588,31.584,23.649,31.584H192.33
		c13.062,0,23.649-14.141,23.649-31.584c0-1.098-0.042-2.182-0.124-3.25H0.271z"/>
	<g>
		<defs>
			<path id="SVGID_3_" d="M0.124,281.809C0.042,282.877,0,283.961,0,285.059c0,17.443,10.588,31.582,23.649,31.582h168.534
				c13.062,0,23.649-14.139,23.649-31.582c0-1.098-0.042-2.182-0.124-3.25H0.124z"/>
		</defs>
		<clipPath id="SVGID_4_">
			<use xlink:href="#SVGID_3_"  overflow="visible"/>
		</clipPath>
		<path clip-path="url(#SVGID_4_)" fill="#EA96C0" d="M-31.155,161.172c0,2.721-1.78,4.926-3.978,4.926h-31.24
			c-2.195,0-3.976-2.205-3.976-4.926l0,0c0-2.721,1.78-4.926,3.976-4.926h31.24C-32.936,156.246-31.155,158.451-31.155,161.172
			L-31.155,161.172z"/>
		<path clip-path="url(#SVGID_4_)" fill="#EA96C0" d="M22.237,161.172c0,2.721-1.78,4.926-3.976,4.926h-31.24
			c-2.197,0-3.978-2.205-3.978-4.926l0,0c0-2.721,1.78-4.926,3.978-4.926h31.24C20.457,156.246,22.237,158.451,22.237,161.172
			L22.237,161.172z"/>
		<path clip-path="url(#SVGID_4_)" fill="#EA96C0" d="M75.631,161.172c0,2.721-1.78,4.926-3.976,4.926H40.414
			c-2.195,0-3.977-2.205-3.977-4.926l0,0c0-2.721,1.781-4.926,3.977-4.926h31.241C73.851,156.246,75.631,158.451,75.631,161.172
			L75.631,161.172z"/>
		<path clip-path="url(#SVGID_4_)" fill="#EA96C0" d="M129.024,161.172c0,2.721-1.78,4.926-3.976,4.926H93.808
			c-2.196,0-3.976-2.205-3.976-4.926l0,0c0-2.721,1.779-4.926,3.976-4.926h31.241C127.244,156.246,129.024,158.451,129.024,161.172
			L129.024,161.172z"/>
		<path clip-path="url(#SVGID_4_)" fill="#EA96C0" d="M182.418,161.172c0,2.721-1.779,4.926-3.977,4.926h-31.24
			c-2.195,0-3.977-2.205-3.977-4.926l0,0c0-2.721,1.781-4.926,3.977-4.926h31.24C180.639,156.246,182.418,158.451,182.418,161.172
			L182.418,161.172z"/>
		<path clip-path="url(#SVGID_4_)" fill="#EA96C0" d="M-31.155,202.014c0,2.723-1.78,4.928-3.978,4.928h-31.24
			c-2.195,0-3.976-2.205-3.976-4.928l0,0c0-2.721,1.78-4.926,3.976-4.926h31.24C-32.936,197.088-31.155,199.293-31.155,202.014
			L-31.155,202.014z"/>
		<path clip-path="url(#SVGID_4_)" fill="#EA96C0" d="M22.237,202.014c0,2.723-1.78,4.928-3.976,4.928h-31.24
			c-2.197,0-3.978-2.205-3.978-4.928l0,0c0-2.721,1.78-4.926,3.978-4.926h31.24C20.457,197.088,22.237,199.293,22.237,202.014
			L22.237,202.014z"/>
		<path clip-path="url(#SVGID_4_)" fill="#EA96C0" d="M75.631,202.014c0,2.723-1.78,4.928-3.976,4.928H40.414
			c-2.195,0-3.977-2.205-3.977-4.928l0,0c0-2.721,1.781-4.926,3.977-4.926h31.241C73.851,197.088,75.631,199.293,75.631,202.014
			L75.631,202.014z"/>
		<path clip-path="url(#SVGID_4_)" fill="#EA96C0" d="M129.024,202.014c0,2.723-1.78,4.928-3.976,4.928H93.808
			c-2.196,0-3.976-2.205-3.976-4.928l0,0c0-2.721,1.779-4.926,3.976-4.926h31.241C127.244,197.088,129.024,199.293,129.024,202.014
			L129.024,202.014z"/>
		<path clip-path="url(#SVGID_4_)" fill="#EA96C0" d="M182.418,202.014c0,2.723-1.779,4.928-3.977,4.928h-31.24
			c-2.195,0-3.977-2.205-3.977-4.928l0,0c0-2.721,1.781-4.926,3.977-4.926h31.24C180.639,197.088,182.418,199.293,182.418,202.014
			L182.418,202.014z"/>
		<path clip-path="url(#SVGID_4_)" fill="#EA96C0" d="M-31.155,242.857c0,2.721-1.78,4.926-3.978,4.926h-31.24
			c-2.195,0-3.976-2.205-3.976-4.926l0,0c0-2.723,1.78-4.928,3.976-4.928h31.24C-32.936,237.93-31.155,240.135-31.155,242.857
			L-31.155,242.857z"/>
		<path clip-path="url(#SVGID_4_)" fill="#EA96C0" d="M22.237,242.857c0,2.721-1.78,4.926-3.976,4.926h-31.24
			c-2.197,0-3.978-2.205-3.978-4.926l0,0c0-2.723,1.78-4.928,3.978-4.928h31.24C20.457,237.93,22.237,240.135,22.237,242.857
			L22.237,242.857z"/>
		<path clip-path="url(#SVGID_4_)" fill="#EA96C0" d="M75.631,242.857c0,2.721-1.78,4.926-3.976,4.926H40.414
			c-2.195,0-3.977-2.205-3.977-4.926l0,0c0-2.723,1.781-4.928,3.977-4.928h31.241C73.851,237.93,75.631,240.135,75.631,242.857
			L75.631,242.857z"/>
		<path clip-path="url(#SVGID_4_)" fill="#EA96C0" d="M129.024,242.857c0,2.721-1.78,4.926-3.976,4.926H93.808
			c-2.196,0-3.976-2.205-3.976-4.926l0,0c0-2.723,1.779-4.928,3.976-4.928h31.241C127.244,237.93,129.024,240.135,129.024,242.857
			L129.024,242.857z"/>
		<path clip-path="url(#SVGID_4_)" fill="#EA96C0" d="M182.418,242.857c0,2.721-1.779,4.926-3.977,4.926h-31.24
			c-2.195,0-3.977-2.205-3.977-4.926l0,0c0-2.723,1.781-4.928,3.977-4.928h31.24C180.639,237.93,182.418,240.135,182.418,242.857
			L182.418,242.857z"/>
		<path clip-path="url(#SVGID_4_)" fill="#EA96C0" d="M-31.155,283.697c0,2.723-1.78,4.928-3.978,4.928h-31.24
			c-2.195,0-3.976-2.205-3.976-4.928l0,0c0-2.721,1.78-4.926,3.976-4.926h31.24C-32.936,278.771-31.155,280.977-31.155,283.697
			L-31.155,283.697z"/>
		<path clip-path="url(#SVGID_4_)" fill="#EA96C0" d="M22.237,283.697c0,2.723-1.78,4.928-3.976,4.928h-31.24
			c-2.197,0-3.978-2.205-3.978-4.928l0,0c0-2.721,1.78-4.926,3.978-4.926h31.24C20.457,278.771,22.237,280.977,22.237,283.697
			L22.237,283.697z"/>
		<path clip-path="url(#SVGID_4_)" fill="#EA96C0" d="M75.631,283.697c0,2.723-1.78,4.928-3.976,4.928H40.414
			c-2.195,0-3.977-2.205-3.977-4.928l0,0c0-2.721,1.781-4.926,3.977-4.926h31.241C73.851,278.771,75.631,280.977,75.631,283.697
			L75.631,283.697z"/>
		<path clip-path="url(#SVGID_4_)" fill="#EA96C0" d="M129.024,283.697c0,2.723-1.78,4.928-3.976,4.928H93.808
			c-2.196,0-3.976-2.205-3.976-4.928l0,0c0-2.721,1.779-4.926,3.976-4.926h31.241C127.244,278.771,129.024,280.977,129.024,283.697
			L129.024,283.697z"/>
		<path clip-path="url(#SVGID_4_)" fill="#EA96C0" d="M182.418,283.697c0,2.723-1.779,4.928-3.977,4.928h-31.24
			c-2.195,0-3.977-2.205-3.977-4.928l0,0c0-2.721,1.781-4.926,3.977-4.926h31.24C180.639,278.771,182.418,280.977,182.418,283.697
			L182.418,283.697z"/>
		<path clip-path="url(#SVGID_4_)" fill="#EA96C0" d="M-31.155,324.541c0,2.721-1.78,4.926-3.978,4.926h-31.24
			c-2.195,0-3.976-2.205-3.976-4.926l0,0c0-2.723,1.78-4.928,3.976-4.928h31.24C-32.936,319.613-31.155,321.818-31.155,324.541
			L-31.155,324.541z"/>
		<path clip-path="url(#SVGID_4_)" fill="#EA96C0" d="M22.237,324.541c0,2.721-1.78,4.926-3.976,4.926h-31.24
			c-2.197,0-3.978-2.205-3.978-4.926l0,0c0-2.723,1.78-4.928,3.978-4.928h31.24C20.457,319.613,22.237,321.818,22.237,324.541
			L22.237,324.541z"/>
		<path clip-path="url(#SVGID_4_)" fill="#EA96C0" d="M75.631,324.541c0,2.721-1.78,4.926-3.976,4.926H40.414
			c-2.195,0-3.977-2.205-3.977-4.926l0,0c0-2.723,1.781-4.928,3.977-4.928h31.241C73.851,319.613,75.631,321.818,75.631,324.541
			L75.631,324.541z"/>
		<path clip-path="url(#SVGID_4_)" fill="#EA96C0" d="M129.024,324.541c0,2.721-1.78,4.926-3.976,4.926H93.808
			c-2.196,0-3.976-2.205-3.976-4.926l0,0c0-2.723,1.779-4.928,3.976-4.928h31.241C127.244,319.613,129.024,321.818,129.024,324.541
			L129.024,324.541z"/>
		<path clip-path="url(#SVGID_4_)" fill="#EA96C0" d="M182.418,324.541c0,2.721-1.779,4.926-3.977,4.926h-31.24
			c-2.195,0-3.977-2.205-3.977-4.926l0,0c0-2.723,1.781-4.928,3.977-4.928h31.24C180.639,319.613,182.418,321.818,182.418,324.541
			L182.418,324.541z"/>
		<path clip-path="url(#SVGID_4_)" fill="#EA96C0" d="M-8.447,181.582c0,2.721-2.053,4.926-4.586,4.926h-36.027
			c-2.533,0-4.586-2.205-4.586-4.926l0,0c0-2.721,2.053-4.926,4.586-4.926h36.027C-10.5,176.656-8.447,178.861-8.447,181.582
			L-8.447,181.582z"/>
		<path clip-path="url(#SVGID_4_)" fill="#EA96C0" d="M53.128,181.582c0,2.721-2.054,4.926-4.586,4.926H12.514
			c-2.531,0-4.586-2.205-4.586-4.926l0,0c0-2.721,2.055-4.926,4.586-4.926h36.028C51.074,176.656,53.128,178.861,53.128,181.582
			L53.128,181.582z"/>
		<path clip-path="url(#SVGID_4_)" fill="#EA96C0" d="M114.703,181.582c0,2.721-2.053,4.926-4.586,4.926H74.09
			c-2.533,0-4.586-2.205-4.586-4.926l0,0c0-2.721,2.053-4.926,4.586-4.926h36.027C112.65,176.656,114.703,178.861,114.703,181.582
			L114.703,181.582z"/>
		<path clip-path="url(#SVGID_4_)" fill="#EA96C0" d="M176.279,181.582c0,2.721-2.054,4.926-4.586,4.926h-36.029
			c-2.532,0-4.584-2.205-4.584-4.926l0,0c0-2.721,2.052-4.926,4.584-4.926h36.029C174.226,176.656,176.279,178.861,176.279,181.582
			L176.279,181.582z"/>
		<path clip-path="url(#SVGID_4_)" fill="#EA96C0" d="M237.854,181.582c0,2.721-2.053,4.926-4.585,4.926H197.24
			c-2.531,0-4.585-2.205-4.585-4.926l0,0c0-2.721,2.054-4.926,4.585-4.926h36.028C235.801,176.656,237.854,178.861,237.854,181.582
			L237.854,181.582z"/>
		<path clip-path="url(#SVGID_4_)" fill="#EA96C0" d="M-8.447,221.695c0,2.723-2.053,4.928-4.586,4.928h-36.027
			c-2.533,0-4.586-2.205-4.586-4.928l0,0c0-2.721,2.053-4.926,4.586-4.926h36.027C-10.5,216.77-8.447,218.975-8.447,221.695
			L-8.447,221.695z"/>
		<path clip-path="url(#SVGID_4_)" fill="#EA96C0" d="M53.128,221.695c0,2.723-2.054,4.928-4.586,4.928H12.514
			c-2.531,0-4.586-2.205-4.586-4.928l0,0c0-2.721,2.055-4.926,4.586-4.926h36.028C51.074,216.77,53.128,218.975,53.128,221.695
			L53.128,221.695z"/>
		<path clip-path="url(#SVGID_4_)" fill="#EA96C0" d="M114.703,221.695c0,2.723-2.053,4.928-4.586,4.928H74.09
			c-2.533,0-4.586-2.205-4.586-4.928l0,0c0-2.721,2.053-4.926,4.586-4.926h36.027C112.65,216.77,114.703,218.975,114.703,221.695
			L114.703,221.695z"/>
		<path clip-path="url(#SVGID_4_)" fill="#EA96C0" d="M176.279,221.695c0,2.723-2.054,4.928-4.586,4.928h-36.029
			c-2.532,0-4.584-2.205-4.584-4.928l0,0c0-2.721,2.052-4.926,4.584-4.926h36.029C174.226,216.77,176.279,218.975,176.279,221.695
			L176.279,221.695z"/>
		<path clip-path="url(#SVGID_4_)" fill="#EA96C0" d="M237.854,221.695c0,2.723-2.053,4.928-4.585,4.928H197.24
			c-2.531,0-4.585-2.205-4.585-4.928l0,0c0-2.721,2.054-4.926,4.585-4.926h36.028C235.801,216.77,237.854,218.975,237.854,221.695
			L237.854,221.695z"/>
		<path clip-path="url(#SVGID_4_)" fill="#EA96C0" d="M-8.447,261.811c0,2.721-2.053,4.926-4.586,4.926h-36.027
			c-2.533,0-4.586-2.205-4.586-4.926l0,0c0-2.721,2.053-4.926,4.586-4.926h36.027C-10.5,256.885-8.447,259.09-8.447,261.811
			L-8.447,261.811z"/>
		<path clip-path="url(#SVGID_4_)" fill="#EA96C0" d="M53.128,261.811c0,2.721-2.054,4.926-4.586,4.926H12.514
			c-2.531,0-4.586-2.205-4.586-4.926l0,0c0-2.721,2.055-4.926,4.586-4.926h36.028C51.074,256.885,53.128,259.09,53.128,261.811
			L53.128,261.811z"/>
		<path clip-path="url(#SVGID_4_)" fill="#EA96C0" d="M114.703,261.811c0,2.721-2.053,4.926-4.586,4.926H74.09
			c-2.533,0-4.586-2.205-4.586-4.926l0,0c0-2.721,2.053-4.926,4.586-4.926h36.027C112.65,256.885,114.703,259.09,114.703,261.811
			L114.703,261.811z"/>
		<path clip-path="url(#SVGID_4_)" fill="#EA96C0" d="M176.279,261.811c0,2.721-2.054,4.926-4.586,4.926h-36.029
			c-2.532,0-4.584-2.205-4.584-4.926l0,0c0-2.721,2.052-4.926,4.584-4.926h36.029C174.226,256.885,176.279,259.09,176.279,261.811
			L176.279,261.811z"/>
		<path clip-path="url(#SVGID_4_)" fill="#EA96C0" d="M237.854,261.811c0,2.721-2.053,4.926-4.585,4.926H197.24
			c-2.531,0-4.585-2.205-4.585-4.926l0,0c0-2.721,2.054-4.926,4.585-4.926h36.028C235.801,256.885,237.854,259.09,237.854,261.811
			L237.854,261.811z"/>
		<path clip-path="url(#SVGID_4_)" fill="#EA96C0" d="M-8.447,301.924c0,2.723-2.053,4.928-4.586,4.928h-36.027
			c-2.533,0-4.586-2.205-4.586-4.928l0,0c0-2.721,2.053-4.926,4.586-4.926h36.027C-10.5,296.998-8.447,299.203-8.447,301.924
			L-8.447,301.924z"/>
		<path clip-path="url(#SVGID_4_)" fill="#EA96C0" d="M53.128,301.924c0,2.723-2.054,4.928-4.586,4.928H12.514
			c-2.531,0-4.586-2.205-4.586-4.928l0,0c0-2.721,2.055-4.926,4.586-4.926h36.028C51.074,296.998,53.128,299.203,53.128,301.924
			L53.128,301.924z"/>
		<path clip-path="url(#SVGID_4_)" fill="#EA96C0" d="M114.703,301.924c0,2.723-2.053,4.928-4.586,4.928H74.09
			c-2.533,0-4.586-2.205-4.586-4.928l0,0c0-2.721,2.053-4.926,4.586-4.926h36.027C112.65,296.998,114.703,299.203,114.703,301.924
			L114.703,301.924z"/>
		<path clip-path="url(#SVGID_4_)" fill="#EA96C0" d="M176.279,301.924c0,2.723-2.054,4.928-4.586,4.928h-36.029
			c-2.532,0-4.584-2.205-4.584-4.928l0,0c0-2.721,2.052-4.926,4.584-4.926h36.029C174.226,296.998,176.279,299.203,176.279,301.924
			L176.279,301.924z"/>
		<path clip-path="url(#SVGID_4_)" fill="#EA96C0" d="M237.854,301.924c0,2.723-2.053,4.928-4.585,4.928H197.24
			c-2.531,0-4.585-2.205-4.585-4.928l0,0c0-2.721,2.054-4.926,4.585-4.926h36.028C235.801,296.998,237.854,299.203,237.854,301.924
			L237.854,301.924z"/>
		<path clip-path="url(#SVGID_4_)" fill="#EA96C0" d="M-8.447,342.039c0,2.723-2.053,4.926-4.586,4.926h-36.027
			c-2.533,0-4.586-2.203-4.586-4.926l0,0c0-2.721,2.053-4.926,4.586-4.926h36.027C-10.5,337.113-8.447,339.318-8.447,342.039
			L-8.447,342.039z"/>
		<path clip-path="url(#SVGID_4_)" fill="#EA96C0" d="M53.128,342.039c0,2.723-2.054,4.926-4.586,4.926H12.514
			c-2.531,0-4.586-2.203-4.586-4.926l0,0c0-2.721,2.055-4.926,4.586-4.926h36.028C51.074,337.113,53.128,339.318,53.128,342.039
			L53.128,342.039z"/>
		<path clip-path="url(#SVGID_4_)" fill="#EA96C0" d="M114.703,342.039c0,2.723-2.053,4.926-4.586,4.926H74.09
			c-2.533,0-4.586-2.203-4.586-4.926l0,0c0-2.721,2.053-4.926,4.586-4.926h36.027C112.65,337.113,114.703,339.318,114.703,342.039
			L114.703,342.039z"/>
		<path clip-path="url(#SVGID_4_)" fill="#EA96C0" d="M176.279,342.039c0,2.723-2.054,4.926-4.586,4.926h-36.029
			c-2.532,0-4.584-2.203-4.584-4.926l0,0c0-2.721,2.052-4.926,4.584-4.926h36.029C174.226,337.113,176.279,339.318,176.279,342.039
			L176.279,342.039z"/>
		<path clip-path="url(#SVGID_4_)" fill="#EA96C0" d="M237.854,342.039c0,2.723-2.053,4.926-4.585,4.926H197.24
			c-2.531,0-4.585-2.203-4.585-4.926l0,0c0-2.721,2.054-4.926,4.585-4.926h36.028C235.801,337.113,237.854,339.318,237.854,342.039
			L237.854,342.039z"/>
	</g>
	<path fill="#948EC5" d="M484.031,0.561h-13.85c14.867,7.221,27.637,20.641,24.289,45.596l-81.772,231.617
		c0,0-10.894,18.383-27.561,16.383l-220.27-2.527c3.965,12.6,15.738,21.74,29.646,21.74h206.641
		c17.162,0,31.075-13.914,31.075-31.076l82.876-250.656C515.106,14.475,501.194,0.561,484.031,0.561z"/>
	<path fill="#F2B9D5" d="M412.698,277.773l81.772-231.617c3.348-24.955-9.422-38.375-24.289-45.596h-192.79
		c-17.163,0-26.095,12.5-31.076,31.076l-82.877,250.656c0,3.254,0.503,6.389,1.43,9.336l220.27,2.527
		C401.805,296.156,412.698,277.773,412.698,277.773z"/>
	<g>
		<defs>
			<path id="SVGID_5_" d="M432.271,282.209c0,17.162-13.913,31.076-31.075,31.076H194.556c-17.162,0-31.076-13.914-31.076-31.076
				l82.877-250.656c4.981-18.576,13.913-31.076,31.076-31.076h206.64c17.163,0,31.075,13.914,31.075,31.076L432.271,282.209z"/>
		</defs>
		<clipPath id="SVGID_6_">
			<use xlink:href="#SVGID_5_"  overflow="visible"/>
		</clipPath>
		<path clip-path="url(#SVGID_6_)" fill="#EA96C0" d="M130.131,52.361c0,4.156-3.138,7.527-7.006,7.527H68.08
			c-3.869,0-7.005-3.371-7.005-7.527l0,0c0-4.158,3.136-7.527,7.005-7.527h55.045C126.993,44.834,130.131,48.203,130.131,52.361
			L130.131,52.361z"/>
		<path clip-path="url(#SVGID_6_)" fill="#EA96C0" d="M130.131,113.646c0,4.158-3.138,7.527-7.006,7.527H68.08
			c-3.869,0-7.005-3.369-7.005-7.527l0,0c0-4.156,3.136-7.525,7.005-7.525h55.045C126.993,106.121,130.131,109.49,130.131,113.646
			L130.131,113.646z"/>
		<path clip-path="url(#SVGID_6_)" fill="#EA96C0" d="M130.131,174.934c0,4.158-3.138,7.527-7.006,7.527H68.08
			c-3.869,0-7.005-3.369-7.005-7.527l0,0c0-4.156,3.136-7.527,7.005-7.527h55.045C126.993,167.406,130.131,170.777,130.131,174.934
			L130.131,174.934z"/>
		<path clip-path="url(#SVGID_6_)" fill="#EA96C0" d="M130.131,236.221c0,4.156-3.138,7.525-7.006,7.525H68.08
			c-3.869,0-7.005-3.369-7.005-7.525l0,0c0-4.158,3.136-7.527,7.005-7.527h55.045C126.993,228.693,130.131,232.063,130.131,236.221
			L130.131,236.221z"/>
		<path clip-path="url(#SVGID_6_)" fill="#EA96C0" d="M130.131,297.506c0,4.158-3.138,7.527-7.006,7.527H68.08
			c-3.869,0-7.005-3.369-7.005-7.527l0,0c0-4.156,3.136-7.525,7.005-7.525h55.045C126.993,289.98,130.131,293.35,130.131,297.506
			L130.131,297.506z"/>
		<path clip-path="url(#SVGID_6_)" fill="#EA96C0" d="M218.345,58.537c0,3.475-2.273,6.291-5.078,6.291h-39.891
			c-2.804,0-5.076-2.816-5.076-6.291l0,0c0-3.475,2.272-6.291,5.076-6.291h39.891C216.071,52.246,218.345,55.063,218.345,58.537
			L218.345,58.537z"/>
		<path clip-path="url(#SVGID_6_)" fill="#EA96C0" d="M286.521,58.537c0,3.475-2.273,6.291-5.076,6.291h-39.891
			c-2.805,0-5.078-2.816-5.078-6.291l0,0c0-3.475,2.273-6.291,5.078-6.291h39.891C284.247,52.246,286.521,55.063,286.521,58.537
			L286.521,58.537z"/>
		<path clip-path="url(#SVGID_6_)" fill="#EA96C0" d="M354.698,58.537c0,3.475-2.273,6.291-5.077,6.291h-39.892
			c-2.803,0-5.076-2.816-5.076-6.291l0,0c0-3.475,2.273-6.291,5.076-6.291h39.892C352.425,52.246,354.698,55.063,354.698,58.537
			L354.698,58.537z"/>
		<path clip-path="url(#SVGID_6_)" fill="#EA96C0" d="M422.875,58.537c0,3.475-2.273,6.291-5.077,6.291h-39.891
			c-2.805,0-5.077-2.816-5.077-6.291l0,0c0-3.475,2.272-6.291,5.077-6.291h39.891C420.602,52.246,422.875,55.063,422.875,58.537
			L422.875,58.537z"/>
		<path clip-path="url(#SVGID_6_)" fill="#EA96C0" d="M491.052,58.537c0,3.475-2.272,6.291-5.077,6.291h-39.891
			c-2.804,0-5.077-2.816-5.077-6.291l0,0c0-3.475,2.273-6.291,5.077-6.291h39.891C488.779,52.246,491.052,55.063,491.052,58.537
			L491.052,58.537z"/>
		<path clip-path="url(#SVGID_6_)" fill="#EA96C0" d="M218.345,110.688c0,3.475-2.273,6.291-5.078,6.291h-39.891
			c-2.804,0-5.076-2.816-5.076-6.291l0,0c0-3.475,2.272-6.291,5.076-6.291h39.891C216.071,104.396,218.345,107.213,218.345,110.688
			L218.345,110.688z"/>
		<path clip-path="url(#SVGID_6_)" fill="#EA96C0" d="M286.521,110.688c0,3.475-2.273,6.291-5.076,6.291h-39.891
			c-2.805,0-5.078-2.816-5.078-6.291l0,0c0-3.475,2.273-6.291,5.078-6.291h39.891C284.247,104.396,286.521,107.213,286.521,110.688
			L286.521,110.688z"/>
		<path clip-path="url(#SVGID_6_)" fill="#EA96C0" d="M354.698,110.688c0,3.475-2.273,6.291-5.077,6.291h-39.892
			c-2.803,0-5.076-2.816-5.076-6.291l0,0c0-3.475,2.273-6.291,5.076-6.291h39.892C352.425,104.396,354.698,107.213,354.698,110.688
			L354.698,110.688z"/>
		<path clip-path="url(#SVGID_6_)" fill="#EA96C0" d="M422.875,110.688c0,3.475-2.273,6.291-5.077,6.291h-39.891
			c-2.805,0-5.077-2.816-5.077-6.291l0,0c0-3.475,2.272-6.291,5.077-6.291h39.891C420.602,104.396,422.875,107.213,422.875,110.688
			L422.875,110.688z"/>
		<path clip-path="url(#SVGID_6_)" fill="#EA96C0" d="M491.052,110.688c0,3.475-2.272,6.291-5.077,6.291h-39.891
			c-2.804,0-5.077-2.816-5.077-6.291l0,0c0-3.475,2.273-6.291,5.077-6.291h39.891C488.779,104.396,491.052,107.213,491.052,110.688
			L491.052,110.688z"/>
		<path clip-path="url(#SVGID_6_)" fill="#EA96C0" d="M218.345,162.838c0,3.475-2.273,6.291-5.078,6.291h-39.891
			c-2.804,0-5.076-2.816-5.076-6.291l0,0c0-3.475,2.272-6.291,5.076-6.291h39.891C216.071,156.547,218.345,159.363,218.345,162.838
			L218.345,162.838z"/>
		<path clip-path="url(#SVGID_6_)" fill="#EA96C0" d="M286.521,162.838c0,3.475-2.273,6.291-5.076,6.291h-39.891
			c-2.805,0-5.078-2.816-5.078-6.291l0,0c0-3.475,2.273-6.291,5.078-6.291h39.891C284.247,156.547,286.521,159.363,286.521,162.838
			L286.521,162.838z"/>
		<path clip-path="url(#SVGID_6_)" fill="#EA96C0" d="M354.698,162.838c0,3.475-2.273,6.291-5.077,6.291h-39.892
			c-2.803,0-5.076-2.816-5.076-6.291l0,0c0-3.475,2.273-6.291,5.076-6.291h39.892C352.425,156.547,354.698,159.363,354.698,162.838
			L354.698,162.838z"/>
		<path clip-path="url(#SVGID_6_)" fill="#EA96C0" d="M422.875,162.838c0,3.475-2.273,6.291-5.077,6.291h-39.891
			c-2.805,0-5.077-2.816-5.077-6.291l0,0c0-3.475,2.272-6.291,5.077-6.291h39.891C420.602,156.547,422.875,159.363,422.875,162.838
			L422.875,162.838z"/>
		<path clip-path="url(#SVGID_6_)" fill="#EA96C0" d="M491.052,162.838c0,3.475-2.272,6.291-5.077,6.291h-39.891
			c-2.804,0-5.077-2.816-5.077-6.291l0,0c0-3.475,2.273-6.291,5.077-6.291h39.891C488.779,156.547,491.052,159.363,491.052,162.838
			L491.052,162.838z"/>
		<path clip-path="url(#SVGID_6_)" fill="#EA96C0" d="M218.345,214.988c0,3.475-2.273,6.291-5.078,6.291h-39.891
			c-2.804,0-5.076-2.816-5.076-6.291l0,0c0-3.475,2.272-6.291,5.076-6.291h39.891C216.071,208.697,218.345,211.514,218.345,214.988
			L218.345,214.988z"/>
		<path clip-path="url(#SVGID_6_)" fill="#EA96C0" d="M286.521,214.988c0,3.475-2.273,6.291-5.076,6.291h-39.891
			c-2.805,0-5.078-2.816-5.078-6.291l0,0c0-3.475,2.273-6.291,5.078-6.291h39.891C284.247,208.697,286.521,211.514,286.521,214.988
			L286.521,214.988z"/>
		<path clip-path="url(#SVGID_6_)" fill="#EA96C0" d="M354.698,214.988c0,3.475-2.273,6.291-5.077,6.291h-39.892
			c-2.803,0-5.076-2.816-5.076-6.291l0,0c0-3.475,2.273-6.291,5.076-6.291h39.892C352.425,208.697,354.698,211.514,354.698,214.988
			L354.698,214.988z"/>
		<path clip-path="url(#SVGID_6_)" fill="#EA96C0" d="M422.875,214.988c0,3.475-2.273,6.291-5.077,6.291h-39.891
			c-2.805,0-5.077-2.816-5.077-6.291l0,0c0-3.475,2.272-6.291,5.077-6.291h39.891C420.602,208.697,422.875,211.514,422.875,214.988
			L422.875,214.988z"/>
		<path clip-path="url(#SVGID_6_)" fill="#EA96C0" d="M491.052,214.988c0,3.475-2.272,6.291-5.077,6.291h-39.891
			c-2.804,0-5.077-2.816-5.077-6.291l0,0c0-3.475,2.273-6.291,5.077-6.291h39.891C488.779,208.697,491.052,211.514,491.052,214.988
			L491.052,214.988z"/>
		<path clip-path="url(#SVGID_6_)" fill="#EA96C0" d="M218.345,267.139c0,3.475-2.273,6.291-5.078,6.291h-39.891
			c-2.804,0-5.076-2.816-5.076-6.291l0,0c0-3.475,2.272-6.291,5.076-6.291h39.891C216.071,260.848,218.345,263.664,218.345,267.139
			L218.345,267.139z"/>
		<path clip-path="url(#SVGID_6_)" fill="#EA96C0" d="M286.521,267.139c0,3.475-2.273,6.291-5.076,6.291h-39.891
			c-2.805,0-5.078-2.816-5.078-6.291l0,0c0-3.475,2.273-6.291,5.078-6.291h39.891C284.247,260.848,286.521,263.664,286.521,267.139
			L286.521,267.139z"/>
		<path clip-path="url(#SVGID_6_)" fill="#EA96C0" d="M354.698,267.139c0,3.475-2.273,6.291-5.077,6.291h-39.892
			c-2.803,0-5.076-2.816-5.076-6.291l0,0c0-3.475,2.273-6.291,5.076-6.291h39.892C352.425,260.848,354.698,263.664,354.698,267.139
			L354.698,267.139z"/>
		<path clip-path="url(#SVGID_6_)" fill="#EA96C0" d="M422.875,267.139c0,3.475-2.273,6.291-5.077,6.291h-39.891
			c-2.805,0-5.077-2.816-5.077-6.291l0,0c0-3.475,2.272-6.291,5.077-6.291h39.891C420.602,260.848,422.875,263.664,422.875,267.139
			L422.875,267.139z"/>
		<path clip-path="url(#SVGID_6_)" fill="#EA96C0" d="M491.052,267.139c0,3.475-2.272,6.291-5.077,6.291h-39.891
			c-2.804,0-5.077-2.816-5.077-6.291l0,0c0-3.475,2.273-6.291,5.077-6.291h39.891C488.779,260.848,491.052,263.664,491.052,267.139
			L491.052,267.139z"/>
		<path clip-path="url(#SVGID_6_)" fill="#EA96C0" d="M247.34,84.598c0,3.475-2.621,6.291-5.855,6.291h-46.003
			c-3.234,0-5.855-2.816-5.855-6.291l0,0c0-3.475,2.621-6.289,5.855-6.289h46.003C244.719,78.309,247.34,81.123,247.34,84.598
			L247.34,84.598z"/>
		<path clip-path="url(#SVGID_6_)" fill="#EA96C0" d="M325.964,84.598c0,3.475-2.622,6.291-5.855,6.291h-46.003
			c-3.233,0-5.855-2.816-5.855-6.291l0,0c0-3.475,2.622-6.289,5.855-6.289h46.003C323.342,78.309,325.964,81.123,325.964,84.598
			L325.964,84.598z"/>
		<path clip-path="url(#SVGID_6_)" fill="#EA96C0" d="M404.589,84.598c0,3.475-2.622,6.291-5.856,6.291H352.73
			c-3.235,0-5.856-2.816-5.856-6.291l0,0c0-3.475,2.621-6.289,5.856-6.289h46.002C401.967,78.309,404.589,81.123,404.589,84.598
			L404.589,84.598z"/>
		<path clip-path="url(#SVGID_6_)" fill="#EA96C0" d="M483.213,84.598c0,3.475-2.622,6.291-5.855,6.291h-46.005
			c-3.233,0-5.854-2.816-5.854-6.291l0,0c0-3.475,2.62-6.289,5.854-6.289h46.005C480.591,78.309,483.213,81.123,483.213,84.598
			L483.213,84.598z"/>
		<path clip-path="url(#SVGID_6_)" fill="#EA96C0" d="M561.836,84.598c0,3.475-2.621,6.291-5.854,6.291h-46.004
			c-3.232,0-5.854-2.816-5.854-6.291l0,0c0-3.475,2.622-6.289,5.854-6.289h46.004C559.215,78.309,561.836,81.123,561.836,84.598
			L561.836,84.598z"/>
		<path clip-path="url(#SVGID_6_)" fill="#EA96C0" d="M247.34,135.818c0,3.475-2.621,6.291-5.855,6.291h-46.003
			c-3.234,0-5.855-2.816-5.855-6.291l0,0c0-3.475,2.621-6.289,5.855-6.289h46.003C244.719,129.529,247.34,132.344,247.34,135.818
			L247.34,135.818z"/>
		<path clip-path="url(#SVGID_6_)" fill="#EA96C0" d="M325.964,135.818c0,3.475-2.622,6.291-5.855,6.291h-46.003
			c-3.233,0-5.855-2.816-5.855-6.291l0,0c0-3.475,2.622-6.289,5.855-6.289h46.003C323.342,129.529,325.964,132.344,325.964,135.818
			L325.964,135.818z"/>
		<path clip-path="url(#SVGID_6_)" fill="#EA96C0" d="M404.589,135.818c0,3.475-2.622,6.291-5.856,6.291H352.73
			c-3.235,0-5.856-2.816-5.856-6.291l0,0c0-3.475,2.621-6.289,5.856-6.289h46.002C401.967,129.529,404.589,132.344,404.589,135.818
			L404.589,135.818z"/>
		<path clip-path="url(#SVGID_6_)" fill="#EA96C0" d="M483.213,135.818c0,3.475-2.622,6.291-5.855,6.291h-46.005
			c-3.233,0-5.854-2.816-5.854-6.291l0,0c0-3.475,2.62-6.289,5.854-6.289h46.005C480.591,129.529,483.213,132.344,483.213,135.818
			L483.213,135.818z"/>
		<path clip-path="url(#SVGID_6_)" fill="#EA96C0" d="M561.836,135.818c0,3.475-2.621,6.291-5.854,6.291h-46.004
			c-3.232,0-5.854-2.816-5.854-6.291l0,0c0-3.475,2.622-6.289,5.854-6.289h46.004C559.215,129.529,561.836,132.344,561.836,135.818
			L561.836,135.818z"/>
		<path clip-path="url(#SVGID_6_)" fill="#EA96C0" d="M247.34,187.041c0,3.475-2.621,6.289-5.855,6.289h-46.003
			c-3.234,0-5.855-2.814-5.855-6.289l0,0c0-3.475,2.621-6.291,5.855-6.291h46.003C244.719,180.75,247.34,183.566,247.34,187.041
			L247.34,187.041z"/>
		<path clip-path="url(#SVGID_6_)" fill="#EA96C0" d="M325.964,187.041c0,3.475-2.622,6.289-5.855,6.289h-46.003
			c-3.233,0-5.855-2.814-5.855-6.289l0,0c0-3.475,2.622-6.291,5.855-6.291h46.003C323.342,180.75,325.964,183.566,325.964,187.041
			L325.964,187.041z"/>
		<path clip-path="url(#SVGID_6_)" fill="#EA96C0" d="M404.589,187.041c0,3.475-2.622,6.289-5.856,6.289H352.73
			c-3.235,0-5.856-2.814-5.856-6.289l0,0c0-3.475,2.621-6.291,5.856-6.291h46.002C401.967,180.75,404.589,183.566,404.589,187.041
			L404.589,187.041z"/>
		<path clip-path="url(#SVGID_6_)" fill="#EA96C0" d="M483.213,187.041c0,3.475-2.622,6.289-5.855,6.289h-46.005
			c-3.233,0-5.854-2.814-5.854-6.289l0,0c0-3.475,2.62-6.291,5.854-6.291h46.005C480.591,180.75,483.213,183.566,483.213,187.041
			L483.213,187.041z"/>
		<path clip-path="url(#SVGID_6_)" fill="#EA96C0" d="M561.836,187.041c0,3.475-2.621,6.289-5.854,6.289h-46.004
			c-3.232,0-5.854-2.814-5.854-6.289l0,0c0-3.475,2.622-6.291,5.854-6.291h46.004C559.215,180.75,561.836,183.566,561.836,187.041
			L561.836,187.041z"/>
		<path clip-path="url(#SVGID_6_)" fill="#EA96C0" d="M247.34,238.262c0,3.475-2.621,6.289-5.855,6.289h-46.003
			c-3.234,0-5.855-2.814-5.855-6.289l0,0c0-3.475,2.621-6.291,5.855-6.291h46.003C244.719,231.971,247.34,234.787,247.34,238.262
			L247.34,238.262z"/>
		<path clip-path="url(#SVGID_6_)" fill="#EA96C0" d="M325.964,238.262c0,3.475-2.622,6.289-5.855,6.289h-46.003
			c-3.233,0-5.855-2.814-5.855-6.289l0,0c0-3.475,2.622-6.291,5.855-6.291h46.003C323.342,231.971,325.964,234.787,325.964,238.262
			L325.964,238.262z"/>
		<path clip-path="url(#SVGID_6_)" fill="#EA96C0" d="M404.589,238.262c0,3.475-2.622,6.289-5.856,6.289H352.73
			c-3.235,0-5.856-2.814-5.856-6.289l0,0c0-3.475,2.621-6.291,5.856-6.291h46.002C401.967,231.971,404.589,234.787,404.589,238.262
			L404.589,238.262z"/>
		<path clip-path="url(#SVGID_6_)" fill="#EA96C0" d="M483.213,238.262c0,3.475-2.622,6.289-5.855,6.289h-46.005
			c-3.233,0-5.854-2.814-5.854-6.289l0,0c0-3.475,2.62-6.291,5.854-6.291h46.005C480.591,231.971,483.213,234.787,483.213,238.262
			L483.213,238.262z"/>
		<path clip-path="url(#SVGID_6_)" fill="#EA96C0" d="M561.836,238.262c0,3.475-2.621,6.289-5.854,6.289h-46.004
			c-3.232,0-5.854-2.814-5.854-6.289l0,0c0-3.475,2.622-6.291,5.854-6.291h46.004C559.215,231.971,561.836,234.787,561.836,238.262
			L561.836,238.262z"/>
		<path clip-path="url(#SVGID_6_)" fill="#EA96C0" d="M247.34,289.482c0,3.475-2.621,6.291-5.855,6.291h-46.003
			c-3.234,0-5.855-2.816-5.855-6.291l0,0c0-3.475,2.621-6.291,5.855-6.291h46.003C244.719,283.191,247.34,286.008,247.34,289.482
			L247.34,289.482z"/>
		<path clip-path="url(#SVGID_6_)" fill="#EA96C0" d="M325.964,289.482c0,3.475-2.622,6.291-5.855,6.291h-46.003
			c-3.233,0-5.855-2.816-5.855-6.291l0,0c0-3.475,2.622-6.291,5.855-6.291h46.003C323.342,283.191,325.964,286.008,325.964,289.482
			L325.964,289.482z"/>
		<path clip-path="url(#SVGID_6_)" fill="#EA96C0" d="M404.589,289.482c0,3.475-2.622,6.291-5.856,6.291H352.73
			c-3.235,0-5.856-2.816-5.856-6.291l0,0c0-3.475,2.621-6.291,5.856-6.291h46.002C401.967,283.191,404.589,286.008,404.589,289.482
			L404.589,289.482z"/>
		<path clip-path="url(#SVGID_6_)" fill="#EA96C0" d="M483.213,289.482c0,3.475-2.622,6.291-5.855,6.291h-46.005
			c-3.233,0-5.854-2.816-5.854-6.291l0,0c0-3.475,2.62-6.291,5.854-6.291h46.005C480.591,283.191,483.213,286.008,483.213,289.482
			L483.213,289.482z"/>
		<path clip-path="url(#SVGID_6_)" fill="#EA96C0" d="M561.836,289.482c0,3.475-2.621,6.291-5.854,6.291h-46.004
			c-3.232,0-5.854-2.816-5.854-6.291l0,0c0-3.475,2.622-6.291,5.854-6.291h46.004C559.215,283.191,561.836,286.008,561.836,289.482
			L561.836,289.482z"/>
		<path clip-path="url(#SVGID_6_)" fill="#EA96C0" d="M287.511-198.215c0,3.477-2.273,6.291-5.078,6.291h-39.891
			c-2.804,0-5.076-2.814-5.076-6.291l0,0c0-3.473,2.272-6.289,5.076-6.289h39.891C285.237-204.504,287.511-201.688,287.511-198.215
			L287.511-198.215z"/>
		<path clip-path="url(#SVGID_6_)" fill="#EA96C0" d="M355.687-198.215c0,3.477-2.273,6.291-5.076,6.291H310.72
			c-2.805,0-5.078-2.814-5.078-6.291l0,0c0-3.473,2.273-6.289,5.078-6.289h39.891C353.413-204.504,355.687-201.688,355.687-198.215
			L355.687-198.215z"/>
		<path clip-path="url(#SVGID_6_)" fill="#EA96C0" d="M423.864-198.215c0,3.477-2.273,6.291-5.077,6.291h-39.892
			c-2.803,0-5.076-2.814-5.076-6.291l0,0c0-3.473,2.273-6.289,5.076-6.289h39.892C421.591-204.504,423.864-201.688,423.864-198.215
			L423.864-198.215z"/>
		<path clip-path="url(#SVGID_6_)" fill="#EA96C0" d="M492.041-198.215c0,3.477-2.273,6.291-5.077,6.291h-39.891
			c-2.805,0-5.077-2.814-5.077-6.291l0,0c0-3.473,2.272-6.289,5.077-6.289h39.891C489.768-204.504,492.041-201.688,492.041-198.215
			L492.041-198.215z"/>
		<path clip-path="url(#SVGID_6_)" fill="#EA96C0" d="M560.218-198.215c0,3.477-2.272,6.291-5.077,6.291H515.25
			c-2.804,0-5.077-2.814-5.077-6.291l0,0c0-3.473,2.273-6.289,5.077-6.289h39.891C557.945-204.504,560.218-201.688,560.218-198.215
			L560.218-198.215z"/>
		<path clip-path="url(#SVGID_6_)" fill="#EA96C0" d="M287.511-146.063c0,3.475-2.273,6.289-5.078,6.289h-39.891
			c-2.804,0-5.076-2.814-5.076-6.289l0,0c0-3.475,2.272-6.291,5.076-6.291h39.891C285.237-152.354,287.511-149.537,287.511-146.063
			L287.511-146.063z"/>
		<path clip-path="url(#SVGID_6_)" fill="#EA96C0" d="M355.687-146.063c0,3.475-2.273,6.289-5.076,6.289H310.72
			c-2.805,0-5.078-2.814-5.078-6.289l0,0c0-3.475,2.273-6.291,5.078-6.291h39.891C353.413-152.354,355.687-149.537,355.687-146.063
			L355.687-146.063z"/>
		<path clip-path="url(#SVGID_6_)" fill="#EA96C0" d="M423.864-146.063c0,3.475-2.273,6.289-5.077,6.289h-39.892
			c-2.803,0-5.076-2.814-5.076-6.289l0,0c0-3.475,2.273-6.291,5.076-6.291h39.892C421.591-152.354,423.864-149.537,423.864-146.063
			L423.864-146.063z"/>
		<path clip-path="url(#SVGID_6_)" fill="#EA96C0" d="M492.041-146.063c0,3.475-2.273,6.289-5.077,6.289h-39.891
			c-2.805,0-5.077-2.814-5.077-6.289l0,0c0-3.475,2.272-6.291,5.077-6.291h39.891C489.768-152.354,492.041-149.537,492.041-146.063
			L492.041-146.063z"/>
		<path clip-path="url(#SVGID_6_)" fill="#EA96C0" d="M560.218-146.063c0,3.475-2.272,6.289-5.077,6.289H515.25
			c-2.804,0-5.077-2.814-5.077-6.289l0,0c0-3.475,2.273-6.291,5.077-6.291h39.891C557.945-152.354,560.218-149.537,560.218-146.063
			L560.218-146.063z"/>
		<path clip-path="url(#SVGID_6_)" fill="#EA96C0" d="M287.511-93.912c0,3.475-2.273,6.289-5.078,6.289h-39.891
			c-2.804,0-5.076-2.814-5.076-6.289l0,0c0-3.475,2.272-6.291,5.076-6.291h39.891C285.237-100.203,287.511-97.387,287.511-93.912
			L287.511-93.912z"/>
		<path clip-path="url(#SVGID_6_)" fill="#EA96C0" d="M355.687-93.912c0,3.475-2.273,6.289-5.076,6.289H310.72
			c-2.805,0-5.078-2.814-5.078-6.289l0,0c0-3.475,2.273-6.291,5.078-6.291h39.891C353.413-100.203,355.687-97.387,355.687-93.912
			L355.687-93.912z"/>
		<path clip-path="url(#SVGID_6_)" fill="#EA96C0" d="M423.864-93.912c0,3.475-2.273,6.289-5.077,6.289h-39.892
			c-2.803,0-5.076-2.814-5.076-6.289l0,0c0-3.475,2.273-6.291,5.076-6.291h39.892C421.591-100.203,423.864-97.387,423.864-93.912
			L423.864-93.912z"/>
		<path clip-path="url(#SVGID_6_)" fill="#EA96C0" d="M492.041-93.912c0,3.475-2.273,6.289-5.077,6.289h-39.891
			c-2.805,0-5.077-2.814-5.077-6.289l0,0c0-3.475,2.272-6.291,5.077-6.291h39.891C489.768-100.203,492.041-97.387,492.041-93.912
			L492.041-93.912z"/>
		<path clip-path="url(#SVGID_6_)" fill="#EA96C0" d="M560.218-93.912c0,3.475-2.272,6.289-5.077,6.289H515.25
			c-2.804,0-5.077-2.814-5.077-6.289l0,0c0-3.475,2.273-6.291,5.077-6.291h39.891C557.945-100.203,560.218-97.387,560.218-93.912
			L560.218-93.912z"/>
		<path clip-path="url(#SVGID_6_)" fill="#EA96C0" d="M287.511-41.764c0,3.475-2.273,6.291-5.078,6.291h-39.891
			c-2.804,0-5.076-2.816-5.076-6.291l0,0c0-3.475,2.272-6.291,5.076-6.291h39.891C285.237-48.055,287.511-45.238,287.511-41.764
			L287.511-41.764z"/>
		<path clip-path="url(#SVGID_6_)" fill="#EA96C0" d="M355.687-41.764c0,3.475-2.273,6.291-5.076,6.291H310.72
			c-2.805,0-5.078-2.816-5.078-6.291l0,0c0-3.475,2.273-6.291,5.078-6.291h39.891C353.413-48.055,355.687-45.238,355.687-41.764
			L355.687-41.764z"/>
		<path clip-path="url(#SVGID_6_)" fill="#EA96C0" d="M423.864-41.764c0,3.475-2.273,6.291-5.077,6.291h-39.892
			c-2.803,0-5.076-2.816-5.076-6.291l0,0c0-3.475,2.273-6.291,5.076-6.291h39.892C421.591-48.055,423.864-45.238,423.864-41.764
			L423.864-41.764z"/>
		<path clip-path="url(#SVGID_6_)" fill="#EA96C0" d="M492.041-41.764c0,3.475-2.273,6.291-5.077,6.291h-39.891
			c-2.805,0-5.077-2.816-5.077-6.291l0,0c0-3.475,2.272-6.291,5.077-6.291h39.891C489.768-48.055,492.041-45.238,492.041-41.764
			L492.041-41.764z"/>
		<path clip-path="url(#SVGID_6_)" fill="#EA96C0" d="M560.218-41.764c0,3.475-2.272,6.291-5.077,6.291H515.25
			c-2.804,0-5.077-2.816-5.077-6.291l0,0c0-3.475,2.273-6.291,5.077-6.291h39.891C557.945-48.055,560.218-45.238,560.218-41.764
			L560.218-41.764z"/>
		<path clip-path="url(#SVGID_6_)" fill="#EA96C0" d="M287.511,10.387c0,3.475-2.273,6.291-5.078,6.291h-39.891
			c-2.804,0-5.076-2.816-5.076-6.291l0,0c0-3.475,2.272-6.291,5.076-6.291h39.891C285.237,4.096,287.511,6.912,287.511,10.387
			L287.511,10.387z"/>
		<path clip-path="url(#SVGID_6_)" fill="#EA96C0" d="M355.687,10.387c0,3.475-2.273,6.291-5.076,6.291H310.72
			c-2.805,0-5.078-2.816-5.078-6.291l0,0c0-3.475,2.273-6.291,5.078-6.291h39.891C353.413,4.096,355.687,6.912,355.687,10.387
			L355.687,10.387z"/>
		<path clip-path="url(#SVGID_6_)" fill="#EA96C0" d="M423.864,10.387c0,3.475-2.273,6.291-5.077,6.291h-39.892
			c-2.803,0-5.076-2.816-5.076-6.291l0,0c0-3.475,2.273-6.291,5.076-6.291h39.892C421.591,4.096,423.864,6.912,423.864,10.387
			L423.864,10.387z"/>
		<path clip-path="url(#SVGID_6_)" fill="#EA96C0" d="M492.041,10.387c0,3.475-2.273,6.291-5.077,6.291h-39.891
			c-2.805,0-5.077-2.816-5.077-6.291l0,0c0-3.475,2.272-6.291,5.077-6.291h39.891C489.768,4.096,492.041,6.912,492.041,10.387
			L492.041,10.387z"/>
		<path clip-path="url(#SVGID_6_)" fill="#EA96C0" d="M560.218,10.387c0,3.475-2.272,6.291-5.077,6.291H515.25
			c-2.804,0-5.077-2.816-5.077-6.291l0,0c0-3.475,2.273-6.291,5.077-6.291h39.891C557.945,4.096,560.218,6.912,560.218,10.387
			L560.218,10.387z"/>
		<path clip-path="url(#SVGID_6_)" fill="#EA96C0" d="M316.506-172.152c0,3.475-2.621,6.291-5.855,6.291h-46.003
			c-3.234,0-5.855-2.816-5.855-6.291l0,0c0-3.475,2.621-6.291,5.855-6.291h46.003C313.885-178.443,316.506-175.627,316.506-172.152
			L316.506-172.152z"/>
		<path clip-path="url(#SVGID_6_)" fill="#EA96C0" d="M395.13-172.152c0,3.475-2.622,6.291-5.855,6.291h-46.003
			c-3.233,0-5.855-2.816-5.855-6.291l0,0c0-3.475,2.622-6.291,5.855-6.291h46.003C392.508-178.443,395.13-175.627,395.13-172.152
			L395.13-172.152z"/>
		<path clip-path="url(#SVGID_6_)" fill="#EA96C0" d="M473.755-172.152c0,3.475-2.622,6.291-5.856,6.291h-46.002
			c-3.235,0-5.856-2.816-5.856-6.291l0,0c0-3.475,2.621-6.291,5.856-6.291h46.002C471.133-178.443,473.755-175.627,473.755-172.152
			L473.755-172.152z"/>
		<path clip-path="url(#SVGID_6_)" fill="#EA96C0" d="M552.379-172.152c0,3.475-2.622,6.291-5.855,6.291h-46.005
			c-3.233,0-5.854-2.816-5.854-6.291l0,0c0-3.475,2.62-6.291,5.854-6.291h46.005C549.757-178.443,552.379-175.627,552.379-172.152
			L552.379-172.152z"/>
		<path clip-path="url(#SVGID_6_)" fill="#EA96C0" d="M631.002-172.152c0,3.475-2.621,6.291-5.854,6.291h-46.004
			c-3.232,0-5.854-2.816-5.854-6.291l0,0c0-3.475,2.622-6.291,5.854-6.291h46.004C628.381-178.443,631.002-175.627,631.002-172.152
			L631.002-172.152z"/>
		<path clip-path="url(#SVGID_6_)" fill="#EA96C0" d="M316.506-120.932c0,3.475-2.621,6.291-5.855,6.291h-46.003
			c-3.234,0-5.855-2.816-5.855-6.291l0,0c0-3.475,2.621-6.291,5.855-6.291h46.003C313.885-127.223,316.506-124.406,316.506-120.932
			L316.506-120.932z"/>
		<path clip-path="url(#SVGID_6_)" fill="#EA96C0" d="M395.13-120.932c0,3.475-2.622,6.291-5.855,6.291h-46.003
			c-3.233,0-5.855-2.816-5.855-6.291l0,0c0-3.475,2.622-6.291,5.855-6.291h46.003C392.508-127.223,395.13-124.406,395.13-120.932
			L395.13-120.932z"/>
		<path clip-path="url(#SVGID_6_)" fill="#EA96C0" d="M473.755-120.932c0,3.475-2.622,6.291-5.856,6.291h-46.002
			c-3.235,0-5.856-2.816-5.856-6.291l0,0c0-3.475,2.621-6.291,5.856-6.291h46.002C471.133-127.223,473.755-124.406,473.755-120.932
			L473.755-120.932z"/>
		<path clip-path="url(#SVGID_6_)" fill="#EA96C0" d="M552.379-120.932c0,3.475-2.622,6.291-5.855,6.291h-46.005
			c-3.233,0-5.854-2.816-5.854-6.291l0,0c0-3.475,2.62-6.291,5.854-6.291h46.005C549.757-127.223,552.379-124.406,552.379-120.932
			L552.379-120.932z"/>
		<path clip-path="url(#SVGID_6_)" fill="#EA96C0" d="M631.002-120.932c0,3.475-2.621,6.291-5.854,6.291h-46.004
			c-3.232,0-5.854-2.816-5.854-6.291l0,0c0-3.475,2.622-6.291,5.854-6.291h46.004C628.381-127.223,631.002-124.406,631.002-120.932
			L631.002-120.932z"/>
		<path clip-path="url(#SVGID_6_)" fill="#EA96C0" d="M316.506-69.711c0,3.475-2.621,6.291-5.855,6.291h-46.003
			c-3.234,0-5.855-2.816-5.855-6.291l0,0c0-3.475,2.621-6.291,5.855-6.291h46.003C313.885-76.002,316.506-73.186,316.506-69.711
			L316.506-69.711z"/>
		<path clip-path="url(#SVGID_6_)" fill="#EA96C0" d="M395.13-69.711c0,3.475-2.622,6.291-5.855,6.291h-46.003
			c-3.233,0-5.855-2.816-5.855-6.291l0,0c0-3.475,2.622-6.291,5.855-6.291h46.003C392.508-76.002,395.13-73.186,395.13-69.711
			L395.13-69.711z"/>
		<path clip-path="url(#SVGID_6_)" fill="#EA96C0" d="M473.755-69.711c0,3.475-2.622,6.291-5.856,6.291h-46.002
			c-3.235,0-5.856-2.816-5.856-6.291l0,0c0-3.475,2.621-6.291,5.856-6.291h46.002C471.133-76.002,473.755-73.186,473.755-69.711
			L473.755-69.711z"/>
		<path clip-path="url(#SVGID_6_)" fill="#EA96C0" d="M552.379-69.711c0,3.475-2.622,6.291-5.855,6.291h-46.005
			c-3.233,0-5.854-2.816-5.854-6.291l0,0c0-3.475,2.62-6.291,5.854-6.291h46.005C549.757-76.002,552.379-73.186,552.379-69.711
			L552.379-69.711z"/>
		<path clip-path="url(#SVGID_6_)" fill="#EA96C0" d="M631.002-69.711c0,3.475-2.621,6.291-5.854,6.291h-46.004
			c-3.232,0-5.854-2.816-5.854-6.291l0,0c0-3.475,2.622-6.291,5.854-6.291h46.004C628.381-76.002,631.002-73.186,631.002-69.711
			L631.002-69.711z"/>
		<path clip-path="url(#SVGID_6_)" fill="#EA96C0" d="M316.506-18.49c0,3.475-2.621,6.291-5.855,6.291h-46.003
			c-3.234,0-5.855-2.816-5.855-6.291l0,0c0-3.475,2.621-6.289,5.855-6.289h46.003C313.885-24.779,316.506-21.965,316.506-18.49
			L316.506-18.49z"/>
		<path clip-path="url(#SVGID_6_)" fill="#EA96C0" d="M395.13-18.49c0,3.475-2.622,6.291-5.855,6.291h-46.003
			c-3.233,0-5.855-2.816-5.855-6.291l0,0c0-3.475,2.622-6.289,5.855-6.289h46.003C392.508-24.779,395.13-21.965,395.13-18.49
			L395.13-18.49z"/>
		<path clip-path="url(#SVGID_6_)" fill="#EA96C0" d="M473.755-18.49c0,3.475-2.622,6.291-5.856,6.291h-46.002
			c-3.235,0-5.856-2.816-5.856-6.291l0,0c0-3.475,2.621-6.289,5.856-6.289h46.002C471.133-24.779,473.755-21.965,473.755-18.49
			L473.755-18.49z"/>
		<path clip-path="url(#SVGID_6_)" fill="#EA96C0" d="M552.379-18.49c0,3.475-2.622,6.291-5.855,6.291h-46.005
			c-3.233,0-5.854-2.816-5.854-6.291l0,0c0-3.475,2.62-6.289,5.854-6.289h46.005C549.757-24.779,552.379-21.965,552.379-18.49
			L552.379-18.49z"/>
		<path clip-path="url(#SVGID_6_)" fill="#EA96C0" d="M631.002-18.49c0,3.475-2.621,6.291-5.854,6.291h-46.004
			c-3.232,0-5.854-2.816-5.854-6.291l0,0c0-3.475,2.622-6.289,5.854-6.289h46.004C628.381-24.779,631.002-21.965,631.002-18.49
			L631.002-18.49z"/>
		<path clip-path="url(#SVGID_6_)" fill="#EA96C0" d="M316.506,32.73c0,3.477-2.621,6.291-5.855,6.291h-46.003
			c-3.234,0-5.855-2.814-5.855-6.291l0,0c0-3.473,2.621-6.289,5.855-6.289h46.003C313.885,26.441,316.506,29.258,316.506,32.73
			L316.506,32.73z"/>
		<path clip-path="url(#SVGID_6_)" fill="#EA96C0" d="M395.13,32.73c0,3.477-2.622,6.291-5.855,6.291h-46.003
			c-3.233,0-5.855-2.814-5.855-6.291l0,0c0-3.473,2.622-6.289,5.855-6.289h46.003C392.508,26.441,395.13,29.258,395.13,32.73
			L395.13,32.73z"/>
		<path clip-path="url(#SVGID_6_)" fill="#EA96C0" d="M473.755,32.73c0,3.477-2.622,6.291-5.856,6.291h-46.002
			c-3.235,0-5.856-2.814-5.856-6.291l0,0c0-3.473,2.621-6.289,5.856-6.289h46.002C471.133,26.441,473.755,29.258,473.755,32.73
			L473.755,32.73z"/>
		<path clip-path="url(#SVGID_6_)" fill="#EA96C0" d="M552.379,32.73c0,3.477-2.622,6.291-5.855,6.291h-46.005
			c-3.233,0-5.854-2.814-5.854-6.291l0,0c0-3.473,2.62-6.289,5.854-6.289h46.005C549.757,26.441,552.379,29.258,552.379,32.73
			L552.379,32.73z"/>
		<path clip-path="url(#SVGID_6_)" fill="#EA96C0" d="M631.002,32.73c0,3.477-2.621,6.291-5.854,6.291h-46.004
			c-3.232,0-5.854-2.814-5.854-6.291l0,0c0-3.473,2.622-6.289,5.854-6.289h46.004C628.381,26.441,631.002,29.258,631.002,32.73
			L631.002,32.73z"/>
	</g>
	<path fill="#54459C" d="M182.286,315.285c-16.572-5.443-24.95-25.252-18.711-44.248l80.476-245.104
		c6.239-18.996,24.729-29.982,41.303-24.541l0,0c16.573,5.441,24.95,25.252,18.712,44.248l-80.478,245.104
		C217.349,309.74,198.86,320.727,182.286,315.285L182.286,315.285z"/>
	<path fill="#F0AECE" d="M184.507,307.525c-11.708-3.844-17.095-19.459-12.03-34.883l79.335-240.98
		c5.065-15.424,18.659-24.807,30.368-20.963l0,0c11.708,3.844,17.094,19.461,12.029,34.883l-79.335,240.984
		C209.81,301.988,196.215,311.369,184.507,307.525L184.507,307.525z"/>
	<circle fill="#5D6AB2" cx="192.729" cy="281.725" r="17.75"/>
	<circle fill="#2D2C7A" cx="192.729" cy="281.725" r="13.054"/>
	<path fill="#FBD8E7" d="M187.013,289.764c-0.445,0.445-1.169,0.445-1.616,0l0,0c-0.445-0.447-0.445-1.17,0-1.617l13.174-13.174
		c0.446-0.445,1.169-0.445,1.615,0l0,0c0.446,0.447,0.446,1.172,0,1.617L187.013,289.764z"/>
	<path fill="#FBD8E7" d="M185.396,276.59c-0.445-0.445-0.445-1.17,0-1.617l0,0c0.447-0.445,1.171-0.445,1.616,0l13.173,13.174
		c0.447,0.447,0.447,1.17,0,1.617l0,0c-0.446,0.445-1.169,0.445-1.615,0L185.396,276.59z"/>
	<g>
		<path fill="#948EC5" d="M313.821,409.004H190.775c-25.358,0-45.916,20.557-45.916,45.916v53.881
			c-0.009,0.223-0.034,0.443-0.034,0.67s0.025,0.447,0.034,0.67v0.734c0.012,0,0.024,0,0.037-0.002
			c0.017,0.184,0.051,0.361,0.073,0.543v-29.467c0-6.906,7.245-12.504,16.184-12.504c8.318,0,10.829,4.852,11.738,11.09v-10.678
			c0-17.313,2.762-33.945,20.071-33.945l106.533,0.867c28.869,0,30.476-0.416,30.476,33.078v41.781h0.037v-29.689
			c0-6.906,4.645-12.504,13.582-12.504c8.689,0,15.758,5.295,16.146,11.934V454.92C359.737,429.561,339.18,409.004,313.821,409.004z
			"/>
		<path fill="#766CB1" d="M172.892,480.535c-0.909-6.238-3.42-11.09-11.738-11.09c-8.938,0-16.184,5.598-16.184,12.504v29.467v2.457
			c0,6.904,7.245,12.502,16.184,12.502c8.938,0,11.848-5.598,11.848-12.502v-31.924C173.001,481.471,172.959,481,172.892,480.535z"
			/>
		<path fill="#766CB1" d="M359.737,481.379c-0.389-6.639-7.457-11.934-16.146-11.934c-8.938,0-13.582,5.598-13.582,12.504v29.689
			v3.102c0,6.904,4.645,11.635,13.582,11.635c8.938,0,16.184-5.598,16.184-12.502v-31.924
			C359.774,481.756,359.748,481.568,359.737,481.379z"/>
		<path fill="#F0ADCD" d="M259.667,404.238h-16.552c-7.183,0-13.005,5.822-13.005,13.004v14.449c0,7.182,5.822,13.004,13.005,13.004
			h22.119v-21.094C264.996,413.266,262.511,407.479,259.667,404.238z"/>
		<path fill="#54459C" d="M269.701,404.238h-10.034c2.844,3.24,5.329,9.027,5.567,19.363v21.094h4.467
			c7.182,0,13.004-5.822,13.004-13.004v-14.449C282.705,410.061,276.883,404.238,269.701,404.238z"/>
		<g>
			<path fill="#316CB5" d="M172.282,547.811c-3.148,0.209-4.829-3.355-4.829-3.355c0.782-17.473-4.022-26.031-7.776-30.01
				l-3.072-2.316h-6.703c-7.581,0-13.723,5.697-13.723,12.729v24.498c0,7.031,6.142,12.729,13.723,12.729h25.974
				c5.87,0,10.876-7.586,12.835-14.273H172.282z"/>
			<path fill="#4C78BC" d="M175.875,512.129h-18.897c0.734,0.492,1.672,1.225,2.699,2.316c3.754,3.979,8.559,12.537,7.776,30.01
				c0,0,1.681,3.564,4.829,3.355h16.428c0.572-1.945,0.887-3.82,0.887-5.404v-5.426v-5.436
				C189.597,524.514,183.456,512.129,175.875,512.129z"/>
			<g>
				<path fill-rule="evenodd" clip-rule="evenodd" fill="#948EC5" d="M161.208,545.512c0,9.092-7.348,16.467-16.411,16.467l0,0
					c-9.063,0-16.41-7.375-16.41-16.467v-16.969c0-9.094,7.348-16.467,16.41-16.467l0,0c9.063,0,16.411,7.373,16.411,16.467V545.512
					z"/>
				<path fill-rule="evenodd" clip-rule="evenodd" fill="#CDA9CB" d="M157.124,543.398c0,6.83-5.52,12.369-12.327,12.369l0,0
					c-6.806,0-12.325-5.539-12.325-12.369v-12.744c0-6.83,5.52-12.367,12.325-12.367l0,0c6.808,0,12.327,5.537,12.327,12.367
					V543.398z"/>
				<ellipse fill-rule="evenodd" clip-rule="evenodd" fill="#775085" cx="142.893" cy="536.889" rx="3.509" ry="4.076"/>
			</g>
			<path fill="none" d="M155.489,511.291l1.115,0.838h0.373C156.077,511.525,155.489,511.291,155.489,511.291z"/>
			<path fill="#4C78BC" d="M156.978,512.129h-0.373l3.072,2.316C158.649,513.354,157.712,512.621,156.978,512.129z"/>
		</g>
		<g>
			<path fill="#316CB5" d="M358.675,547.811c-3.147,0.209-4.828-3.355-4.828-3.355c0.782-17.473-4.022-26.031-7.776-30.01
				l-3.073-2.316h-6.703c-7.58,0-13.723,5.697-13.723,12.729v24.498c0,7.031,6.143,12.729,13.723,12.729h25.975
				c5.87,0,10.875-7.586,12.834-14.273H358.675z"/>
			<path fill="#4C78BC" d="M362.269,512.129h-18.897c0.734,0.492,1.671,1.225,2.699,2.316c3.754,3.979,8.559,12.537,7.776,30.01
				c0,0,1.681,3.564,4.828,3.355h16.428c0.572-1.945,0.888-3.82,0.888-5.404v-5.426v-5.436
				C375.99,524.514,369.849,512.129,362.269,512.129z"/>
			<g>
				<path fill-rule="evenodd" clip-rule="evenodd" fill="#948EC5" d="M347.601,545.512c0,9.092-7.348,16.467-16.41,16.467l0,0
					c-9.063,0-16.41-7.375-16.41-16.467v-16.969c0-9.094,7.348-16.467,16.41-16.467l0,0c9.063,0,16.41,7.373,16.41,16.467V545.512z"
					/>
				<path fill-rule="evenodd" clip-rule="evenodd" fill="#CDA9CB" d="M343.517,543.398c0,6.83-5.52,12.369-12.326,12.369l0,0
					c-6.806,0-12.326-5.539-12.326-12.369v-12.744c0-6.83,5.521-12.367,12.326-12.367l0,0c6.807,0,12.326,5.537,12.326,12.367
					V543.398z"/>
				<ellipse fill-rule="evenodd" clip-rule="evenodd" fill="#775085" cx="329.285" cy="536.889" rx="3.509" ry="4.076"/>
			</g>
			<path fill="none" d="M341.883,511.291l1.114,0.838h0.374C342.471,511.525,341.883,511.291,341.883,511.291z"/>
			<path fill="#4C78BC" d="M343.371,512.129h-0.374l3.073,2.316C345.042,513.354,344.105,512.621,343.371,512.129z"/>
		</g>
		<g>
			<path fill="#948EC5" d="M264.204,414.4c-5.323-0.564-13.738,0.193-15.488,10.109v70.801c0,0,0.122,12.496-8.959,9.674v12
				c0,8.379,6.792,15.17,15.171,15.17c8.38,0,15.172-6.791,15.172-15.17v-90.598C270.1,421.506,267.785,417.176,264.204,414.4z"/>
			<path fill="#C0BDDF" d="M248.716,495.311V424.51c1.75-9.916,10.165-10.674,15.488-10.109c-2.565-1.988-5.777-3.184-9.276-3.184
				c-8.379,0-15.171,6.791-15.171,15.17v78.598C248.838,507.807,248.716,495.311,248.716,495.311z"/>
		</g>
		<g>
			<path fill="#6887C4" d="M267.646,554.746c-3.148,0.209-4.828-3.355-4.828-3.355c0.781-17.473-4.022-26.031-7.776-30.01
				l-3.073-2.316h-6.703c-7.581,0-13.723,5.697-13.723,12.729v24.498c0,7.031,6.142,12.729,13.723,12.729h25.974
				c5.87,0,10.876-7.586,12.835-14.273H267.646z"/>
			<path fill="#7792CA" d="M271.238,519.064h-18.896c0.733,0.492,1.671,1.225,2.699,2.316c3.754,3.979,8.558,12.537,7.776,30.01
				c0,0,1.68,3.564,4.828,3.355h16.428c0.572-1.945,0.887-3.82,0.887-5.404v-5.426v-5.436
				C284.96,531.449,278.819,519.064,271.238,519.064z"/>
			<path fill-rule="evenodd" clip-rule="evenodd" fill="#C0BDDF" d="M256.571,552.447c0,9.092-7.348,16.467-16.411,16.467l0,0
				c-9.063,0-16.41-7.375-16.41-16.467v-16.969c0-9.094,7.348-16.467,16.41-16.467l0,0c9.063,0,16.411,7.373,16.411,16.467V552.447z
				"/>
			<path fill-rule="evenodd" clip-rule="evenodd" fill="#E5E3E5" d="M252.487,550.334c0,6.83-5.52,12.369-12.327,12.369l0,0
				c-6.806,0-12.325-5.539-12.325-12.369V537.59c0-6.83,5.52-12.367,12.325-12.367l0,0c6.808,0,12.327,5.537,12.327,12.367V550.334z
				"/>
			<ellipse fill-rule="evenodd" clip-rule="evenodd" fill="#91739C" cx="238.256" cy="543.824" rx="3.509" ry="4.076"/>
			<path fill="none" d="M250.854,518.227l1.114,0.838h0.374C251.44,518.461,250.854,518.227,250.854,518.227z"/>
			<path fill="#7792CA" d="M252.342,519.064h-0.374l3.073,2.316C254.013,520.289,253.075,519.557,252.342,519.064z"/>
		</g>
	</g>
</g>
</svg>
