<?xml version="1.0" encoding="utf-8"?>
<!-- Generator: Adobe Illustrator 16.0.0, SVG Export Plug-In . SVG Version: 6.00 Build 0)  -->
<!DOCTYPE svg PUBLIC "-//W3C//DTD SVG 1.1//EN" "http://www.w3.org/Graphics/SVG/1.1/DTD/svg11.dtd">
<svg version="1.1" xmlns="http://www.w3.org/2000/svg" xmlns:xlink="http://www.w3.org/1999/xlink" x="0px" y="0px" width="132px"
	 height="174.053px" viewBox="0 0 132 174.053" enable-background="new 0 0 132 174.053" xml:space="preserve">
<g id="Layer_1">
	<g>
		<g>
			<path fill="#FFFFFF" stroke="#000000" stroke-width="5" stroke-miterlimit="10" d="M119.5,2.5h-107c-5.523,0-10,4.477-10,10
				v125.668h20.999c5.523,0,10,4.477,10,10v23.307c0.333,0.011,0.665,0.025,1.001,0.025h85c5.523,0,10-4.477,10-10v-149
				C129.5,6.977,125.023,2.5,119.5,2.5z"/>
			<path fill="#D8D8D8" stroke="#000000" stroke-width="5" stroke-miterlimit="10" d="M23.499,138.168H2.5v1.332
				c0,17.338,13.79,31.444,30.999,31.975v-23.307C33.499,142.645,29.022,138.168,23.499,138.168z"/>
		</g>
		<g>
			<path fill="none" stroke="#000000" stroke-width="5" stroke-linecap="round" stroke-linejoin="round" stroke-miterlimit="10" d="
				M58.533,89.655l-20.719-20.72l20.719-20.719"/>
			<path fill="none" stroke="#000000" stroke-width="5" stroke-linecap="round" stroke-linejoin="round" stroke-miterlimit="10" d="
				M77.606,48.217l20.719,20.721L77.606,89.656"/>
		</g>
	</g>
</g>
<g id="Layer_2">
</g>
<g id="Layer_3">
</g>
</svg>
