<?xml version="1.0" encoding="utf-8"?>
<!-- Generator: Adobe Illustrator 16.0.0, SVG Export Plug-In . SVG Version: 6.00 Build 0)  -->
<!DOCTYPE svg PUBLIC "-//W3C//DTD SVG 1.1//EN" "http://www.w3.org/Graphics/SVG/1.1/DTD/svg11.dtd">
<svg version="1.1" id="Layer_1" xmlns="http://www.w3.org/2000/svg" xmlns:xlink="http://www.w3.org/1999/xlink" x="0px" y="0px"
	 width="715.722px" height="408.447px" viewBox="22.464 7.487 715.722 408.447"
	 enable-background="new 22.464 7.487 715.722 408.447" xml:space="preserve">
<g>
	<rect x="98.043" y="222.845" fill="#EFB2D1" width="546.451" height="192.389"/>
	<rect x="98.043" y="222.845" fill="#E376AE" width="546.451" height="25.179"/>
	<rect x="98.043" y="58.154" fill="#EFB2D1" width="546.451" height="156.421"/>
	<rect x="98.043" y="58.154" fill="#E376AE" width="546.451" height="25.178"/>
	<path fill="#5D6AB2" d="M636.594,27.641v382.405c0,3.237,6.598,5.87,14.756,5.888V21.752
		C643.194,21.771,636.594,24.4,636.594,27.641z"/>
	<path fill="#382F81" d="M651.433,21.75c-0.027,0-0.057,0.002-0.085,0.002v394.18c0.028,0,0.058,0.002,0.085,0.002
		c8.196,0,14.843-2.638,14.843-5.89V27.641C666.276,24.387,659.63,21.75,651.433,21.75z"/>
	<path fill="#382F81" d="M93.707,27.641v382.405c0,3.237,6.6,5.87,14.759,5.888V21.752C100.307,21.771,93.707,24.4,93.707,27.641z"
		/>
	<path fill="#5D6AB2" d="M108.549,21.75c-0.029,0-0.059,0.002-0.085,0.002v394.18c0.026,0,0.056,0.002,0.085,0.002
		c8.195,0,14.841-2.638,14.841-5.89V27.641C123.39,24.387,116.744,21.75,108.549,21.75z"/>
	<path fill="#F0AECE" d="M738.186,38.588c0-2.96-0.755-5.75-2.063-8.236H24.526c-1.309,2.487-2.062,5.276-2.062,8.236
		c0,2.769,0.658,5.387,1.813,7.75H378.01c-0.052,0.299-0.091,0.604-0.091,0.916c0,2.895,2.349,5.246,5.245,5.246
		c2.896,0,5.246-2.351,5.246-5.246c0-0.313-0.039-0.617-0.092-0.916h348.053C737.528,43.974,738.186,41.355,738.186,38.588z"/>
	<path fill="#54459C" d="M655.656,46.338c0.021-0.232,0.036-0.47,0.036-0.708c0-3.795-3.075-6.87-6.87-6.87
		c-3.794,0-6.869,3.075-6.869,6.87c0,0.238,0.014,0.476,0.037,0.708H239.858c-0.437-2.459-2.57-4.33-5.154-4.33
		c-2.584,0-4.721,1.871-5.154,4.33H24.277c0.778,1.588,1.776,3.065,2.976,4.379c3.679,4.036,9.151,6.603,15.271,6.603h675.602
		c6.12,0,11.594-2.567,15.271-6.603c1.198-1.312,2.196-2.791,2.975-4.379H655.656z"/>
	<path fill="#FBD8E7" d="M736.123,30.352c-3.268-6.213-10.088-10.499-17.998-10.499H42.523c-7.91,0-14.73,4.286-17.998,10.499H94.6
		c-0.071,0.404-0.116,0.819-0.116,1.247c0,4.002,3.244,7.247,7.246,7.247s7.245-3.244,7.245-7.247c0-0.427-0.044-0.842-0.115-1.247
		H736.123z"/>
	<path fill="#5D6AB2" d="M647.796,214.927c0-0.016-0.002-0.029-0.002-0.045c-0.018-4.222-2.63-7.637-5.852-7.637H116.991
		c-3.219,0-5.833,3.415-5.849,7.637c0,0.016-0.002,0.029-0.002,0.045c0,4.242,2.622,7.682,5.851,7.682h524.951
		C645.174,222.609,647.796,219.169,647.796,214.927z"/>
	<g>
		<path fill="#F0AECE" d="M314.535,10.774c0-1.815-1.471-3.288-3.286-3.288H203.443c-1.815,0-3.287,1.473-3.287,3.288v4.157h114.38
			L314.535,10.774L314.535,10.774z"/>
		<path fill="#948EC5" d="M200.156,14.931v1.758c0,1.815,1.472,3.287,3.287,3.287H311.25c1.814,0,3.286-1.471,3.286-3.287v-1.758
			H200.156z"/>
	</g>
</g>
</svg>
