<?xml version="1.0" encoding="utf-8"?>
<!-- Generator: Adobe Illustrator 16.0.0, SVG Export Plug-In . SVG Version: 6.00 Build 0)  -->
<!DOCTYPE svg PUBLIC "-//W3C//DTD SVG 1.1//EN" "http://www.w3.org/Graphics/SVG/1.1/DTD/svg11.dtd">
<svg version="1.1" id="Layer_1" xmlns="http://www.w3.org/2000/svg" xmlns:xlink="http://www.w3.org/1999/xlink" x="0px" y="0px"
	 width="641.309px" height="393.035px" viewBox="0.14 0.034 641.309 393.035" enable-background="new 0.14 0.034 641.309 393.035"
	 xml:space="preserve">
<g>
	<path fill="#EFB2D1" d="M226.83,46.031v323.669c0,9.693,8.088,17.554,18.068,17.554h266.253V46.031H226.83z"/>
	<path fill="#E376AE" d="M596.268,28.155H252.134c-9.655,0-17.483,7.731-17.483,17.272v6.06h275.124v335.756h86.493
		c9.653,0,17.483-7.734,17.483-17.272V51.487v-6.06C613.751,35.886,605.921,28.155,596.268,28.155z"/>
	<g>
		<path fill="#54459C" d="M613.827,25.285c-6.013,0-10.887,4.836-10.887,10.801v345.529c0,5.964,4.874,10.801,10.887,10.801
			c1.922,0,4.645-0.495,6.211-1.363V26.648C618.472,25.782,615.748,25.285,613.827,25.285z"/>
	</g>
	<rect x="16.351" y="276.043" fill="#EFB2D1" width="222.893" height="111.275"/>
	<rect x="21.643" y="279.64" fill="#E376AE" width="207.01" height="16.772"/>
	<rect x="21.643" y="157.262" fill="#EFB2D1" width="207.01" height="104.185"/>
	<rect x="21.643" y="157.262" fill="#E376AE" width="207.01" height="16.771"/>
	<rect x="21.643" y="34.883" fill="#EFB2D1" width="207.01" height="104.185"/>
	<rect x="21.643" y="34.883" fill="#E376AE" width="207.01" height="16.771"/>
	<circle fill="#54459C" cx="135.948" cy="24.279" r="5.061"/>
	<circle fill="#54459C" cx="627.304" cy="24.279" r="5.061"/>
	<rect x="27.36" y="159.487" fill="none" width="201.063" height="99.127"/>
	<rect x="27.36" y="159.487" fill="none" width="201.063" height="99.127"/>
	<polygon fill="none" points="27.36,35.81 27.36,137.791 32.354,137.791 27.36,137.791 27.36,137.822 228.422,137.822 
		228.422,35.81 35.345,35.81 	"/>
	<polyline fill="none" points="32.354,137.791 22.296,137.791 22.296,35.81 35.345,35.81 	"/>
	<rect x="22.296" y="159.487" fill="#E5837A" width="5.063" height="99.151"/>
	<rect x="27.36" y="159.487" fill="none" width="201.063" height="99.127"/>
	<path fill="#F0AECE" d="M22.296,392.071c1.628-0.656,3.093-1.66,4.151-3.113c0.443-0.608,0.912-1.556,0.912-2.332V280.294h-5.063
		V392.071z"/>
	<rect x="22.296" y="159.492" fill="#F0AECE" width="5.063" height="99.108"/>
	<rect x="22.267" y="35.81" fill="#F0AECE" width="5.063" height="102.01"/>
	<path fill="#F0AECE" d="M245.214,35.81v11.535c-1.003-0.619-2.183-0.983-3.45-0.983c-3.642,0-6.596,2.954-6.596,6.595
		c0,3.643,2.953,6.597,6.596,6.597c1.267,0,2.447-0.364,3.45-0.982v168.678c-0.411-0.139-0.845-0.229-1.304-0.229
		c-2.286,0-4.139,1.853-4.139,4.141c0,2.285,1.853,4.14,4.139,4.14c0.459,0,0.893-0.095,1.304-0.229v156.344
		c0.952-0.401,1.865-0.886,2.7-1.493c0.892-0.648,2.172-2.097,2.172-3.296V35.81H245.214z"/>
	<path fill="#E63E92" d="M132.573,258.528v-0.033c-0.112,0.02-0.229,0.023-0.343,0.033H132.573z"/>
	<path fill="#E63E92" d="M155.436,258.528v-0.033c-0.111,0.02-0.228,0.023-0.343,0.033H155.436z"/>
	<path fill="#E63E92" d="M178.571,258.528v-0.033c-0.112,0.02-0.229,0.023-0.344,0.033H178.571z"/>
	<path fill="#E63E92" d="M115.635,177.532h0.034c-0.019-0.111-0.024-0.228-0.034-0.341V177.532z"/>
	<path fill="#382F81" d="M14.488,386.604c0,1.943-1.956,3.52-4.371,3.52l0,0c-2.415,0-4.371-1.576-4.371-3.52V38.072
		c0-1.941,1.957-3.519,4.371-3.519l0,0c2.415,0,4.371,1.577,4.371,3.519V386.604z"/>
	<path fill="#89471F" d="M70.398,133.936c0.02,0.007,0.038,0.012,0.059,0.018c-0.018,0.016-0.03,0.035-0.047,0.038
		c-0.02,0.002-0.04-0.01-0.059-0.016C70.365,133.962,70.38,133.949,70.398,133.936z"/>
	<path fill="#F0AECE" d="M620.037,26.648V90.08c-0.665-0.262-1.388-0.411-2.146-0.411c-3.219,0-5.828,2.589-5.828,5.781
		c0,3.193,2.609,5.78,5.828,5.78c0.758,0,1.48-0.147,2.146-0.41v232.911c-1.246-0.698-2.682-1.102-4.216-1.102
		c-4.741,0-8.588,3.814-8.588,8.519c0,4.706,3.847,8.521,8.588,8.521c1.533,0,2.97-0.404,4.216-1.103v42.487
		c3.339-1.845,5.6-5.379,5.6-9.438V36.086C625.637,32.026,623.376,28.492,620.037,26.648z"/>
	<path fill="#F0AECE" d="M641.448,17.932c0-4.045-1.352-7.766-3.608-10.769H3.747C1.49,10.166,0.14,13.887,0.14,17.932
		c0,2.181,0.411,4.26,1.125,6.193h639.064C641.04,22.193,641.448,20.112,641.448,17.932z"/>
	<path fill="#54459C" d="M1.198,24.03c0.968,2.619,2.509,4.957,4.496,6.841v355.753c0,5.003,8.067,6.58,11.767,6.437
		c1.629-0.063,3.304-0.375,4.834-0.99V280.294h5.063v-0.016h201.063c0,0,0,106.302,0,106.346c0,2.774,3.968,4.508,6.084,5.212
		c3.431,1.138,7.353,0.991,10.709-0.423V35.81h4.872h1.914h371.407c7.745,0,14.327-4.91,16.854-11.781H1.198z M228.422,258.614
		H27.36v-99.127h201.063L228.422,258.614L228.422,258.614z M228.422,137.822H27.36v-0.031h-5.063V35.81h5.063h7.986h193.077
		L228.422,137.822L228.422,137.822z"/>
	<path fill="#FBD8E7" d="M637.759,7.239c-3.279-4.365-8.484-7.205-14.365-7.205H18.031c-5.884,0-11.087,2.839-14.366,7.205h20.589
		c-0.04,0.232-0.072,0.466-0.072,0.708c0,2.223,1.802,4.024,4.026,4.024c2.223,0,4.025-1.802,4.025-4.024
		c0-0.242-0.031-0.477-0.072-0.708h155.971c-0.299,0.822-0.508,1.702-0.472,2.627c0.268,6.898,5.897,7.666,7.668,7.666
		c4.236,0,7.667-3.432,7.667-7.666c0-0.925-0.172-1.805-0.472-2.627H637.759z"/>
</g>
</svg>
