<?xml version="1.0" encoding="utf-8"?>
<!-- Generator: Adobe Illustrator 16.0.0, SVG Export Plug-In . SVG Version: 6.00 Build 0)  -->
<!DOCTYPE svg PUBLIC "-//W3C//DTD SVG 1.1//EN" "http://www.w3.org/Graphics/SVG/1.1/DTD/svg11.dtd">
<svg version="1.1" id="Layer_1" xmlns="http://www.w3.org/2000/svg" xmlns:xlink="http://www.w3.org/1999/xlink" x="0px" y="0px"
	 width="697px" height="426.583px" viewBox="0 0 697 426.583" enable-background="new 0 0 697 426.583" xml:space="preserve">
<g>
	<path fill="#EFB2D1" d="M246.504,50.024v351.759c0,10.535,8.791,19.077,19.636,19.077H555.5V50.024H246.504z"/>
	<path fill="#E376AE" d="M648.004,30.595h-374c-10.493,0-19,8.403-19,18.771v6.586h299v364.894h94c10.493,0,19-8.405,19-18.771
		V55.952v-6.586C667.004,38.998,658.497,30.595,648.004,30.595z"/>
	<g>
		<path fill="#54459C" d="M667.088,27.476c-6.535,0-11.833,5.255-11.833,11.739V414.73c0,6.482,5.298,11.739,11.833,11.739
			c2.088,0,5.046-0.54,6.749-1.482V28.958C672.134,28.016,669.176,27.476,667.088,27.476z"/>
	</g>
	<rect x="17.759" y="299.997" fill="#EFB2D1" width="242.237" height="120.932"/>
	<rect x="23.509" y="303.907" fill="#E376AE" width="224.976" height="18.227"/>
	<rect x="23.509" y="170.907" fill="#EFB2D1" width="224.976" height="113.227"/>
	<rect x="23.509" y="170.907" fill="#E376AE" width="224.976" height="18.227"/>
	<rect x="23.509" y="37.907" fill="#EFB2D1" width="224.976" height="113.227"/>
	<rect x="23.509" y="37.907" fill="#E376AE" width="224.976" height="18.227"/>
	<circle fill="#54459C" cx="147.734" cy="26.384" r="5.5"/>
	<circle fill="#54459C" cx="681.734" cy="26.384" r="5.5"/>
	<rect x="29.722" y="173.325" fill="none" width="218.513" height="107.729"/>
	<rect x="29.722" y="173.325" fill="none" width="218.513" height="107.729"/>
	<polygon fill="none" points="29.722,38.915 29.722,149.747 35.15,149.747 29.722,149.747 29.722,149.78 248.234,149.78 
		248.234,38.915 38.401,38.915 	"/>
	<polyline fill="none" points="35.15,149.747 24.219,149.747 24.219,38.915 38.401,38.915 	"/>
	<rect x="24.219" y="173.325" fill="#E5837A" width="5.503" height="107.756"/>
	<rect x="29.722" y="173.325" fill="none" width="218.513" height="107.729"/>
	<path fill="#F0AECE" d="M24.219,426.093c1.77-0.713,3.361-1.803,4.512-3.383c0.481-0.662,0.991-1.691,0.991-2.535V304.616h-5.503
		V426.093z"/>
	<rect x="24.219" y="173.331" fill="#F0AECE" width="5.503" height="107.709"/>
	<rect x="24.188" y="38.915" fill="#F0AECE" width="5.503" height="110.863"/>
	<path fill="#F0AECE" d="M266.484,38.915v12.537c-1.092-0.674-2.373-1.068-3.75-1.068c-3.958,0-7.167,3.209-7.167,7.166
		c0,3.959,3.209,7.168,7.167,7.168c1.377,0,2.658-0.395,3.75-1.068v183.318c-0.448-0.15-0.919-0.25-1.417-0.25
		c-2.485,0-4.5,2.014-4.5,4.5c0,2.484,2.015,4.5,4.5,4.5c0.498,0,0.969-0.102,1.417-0.25V425.38
		c1.034-0.436,2.026-0.963,2.934-1.623c0.968-0.705,2.361-2.279,2.361-3.582V38.915H266.484z"/>
	<path fill="#E63E92" d="M144.066,280.962v-0.037c-0.121,0.023-0.248,0.027-0.372,0.037H144.066z"/>
	<path fill="#E63E92" d="M168.913,280.962v-0.037c-0.121,0.023-0.247,0.027-0.372,0.037H168.913z"/>
	<path fill="#E63E92" d="M194.056,280.962v-0.037c-0.122,0.023-0.249,0.027-0.373,0.037H194.056z"/>
	<path fill="#E63E92" d="M125.658,192.937h0.037c-0.021-0.121-0.028-0.248-0.037-0.371V192.937z"/>
	<path fill="#382F81" d="M15.734,420.153c0,2.111-2.126,3.824-4.75,3.824l0,0c-2.623,0-4.75-1.713-4.75-3.824V41.374
		c0-2.111,2.127-3.824,4.75-3.824l0,0c2.624,0,4.75,1.713,4.75,3.824V420.153z"/>
	<path fill-rule="evenodd" clip-rule="evenodd" fill="#89471F" d="M76.495,145.556c0.021,0.008,0.041,0.014,0.063,0.02
		c-0.019,0.016-0.032,0.037-0.052,0.041c-0.02,0.002-0.043-0.012-0.064-0.018C76.46,145.585,76.477,145.571,76.495,145.556z"/>
	<path fill="#F0AECE" d="M673.837,28.958v68.937c-0.723-0.284-1.508-0.446-2.332-0.446c-3.497,0-6.333,2.813-6.333,6.283
		c0,3.471,2.836,6.282,6.333,6.282c0.824,0,1.609-0.161,2.332-0.446v253.125c-1.354-0.76-2.915-1.198-4.582-1.198
		c-5.153,0-9.333,4.145-9.333,9.258c0,5.115,4.18,9.26,9.333,9.26c1.667,0,3.228-0.439,4.582-1.199v46.175
		c3.628-2.005,6.085-5.846,6.085-10.257V39.215C679.922,34.802,677.465,30.963,673.837,28.958z"/>
	<path fill="#F0AECE" d="M697.106,19.485c0-4.396-1.469-8.439-3.922-11.703H4.061C1.608,11.046,0.14,15.089,0.14,19.485
		c0,2.371,0.447,4.631,1.224,6.732H695.89C696.663,24.116,697.106,21.854,697.106,19.485z"/>
	<path fill="#54459C" d="M1.29,26.112c1.052,2.846,2.727,5.387,4.887,7.436v386.627c0,5.438,8.768,7.152,12.788,6.994
		c1.771-0.068,3.59-0.406,5.254-1.076V304.616h5.503v-0.016h218.513c0,0,0,115.527,0,115.574c0,3.016,4.312,4.9,6.611,5.664
		c3.729,1.238,7.991,1.078,11.639-0.459V38.915h5.295h2.08h403.64c8.419,0,15.572-5.336,18.317-12.803H1.29z M248.234,281.054
		H29.722V173.325h218.513V281.054z M248.234,149.78H29.722v-0.033h-5.503V38.915h5.503h8.68h209.833V149.78z"/>
	<path fill="#FBD8E7" d="M693.096,7.864c-3.563-4.744-9.22-7.83-15.612-7.83H19.584c-6.393,0-12.049,3.086-15.612,7.83h22.376
		c-0.044,0.252-0.077,0.506-0.077,0.77c0,2.416,1.959,4.375,4.375,4.375s4.375-1.959,4.375-4.375c0-0.264-0.033-0.518-0.077-0.77
		h169.506c-0.325,0.893-0.551,1.85-0.512,2.854c0.291,7.498,6.408,8.332,8.333,8.332c4.603,0,8.333-3.73,8.333-8.332
		c0-1.004-0.187-1.961-0.512-2.854H693.096z"/>
</g>
</svg>
