<?xml version="1.0" encoding="utf-8"?>
<!-- Generator: Adobe Illustrator 16.0.0, SVG Export Plug-In . SVG Version: 6.00 Build 0)  -->
<!DOCTYPE svg PUBLIC "-//W3C//DTD SVG 1.1//EN" "http://www.w3.org/Graphics/SVG/1.1/DTD/svg11.dtd">
<svg version="1.1" id="Layer_1" xmlns="http://www.w3.org/2000/svg" xmlns:xlink="http://www.w3.org/1999/xlink" x="0px" y="0px"
	 width="689.084px" height="393.246px" viewBox="22.464 7.486 689.084 393.246"
	 enable-background="new 22.464 7.486 689.084 393.246" xml:space="preserve">
<g>
	<rect x="95.23" y="214.83" fill="#EFB2D1" width="526.113" height="185.229"/>
	<rect x="95.23" y="214.83" fill="#E376AE" width="526.113" height="24.241"/>
	<rect x="95.23" y="56.268" fill="#EFB2D1" width="526.113" height="150.599"/>
	<rect x="95.23" y="56.268" fill="#E376AE" width="526.113" height="24.241"/>
	<path fill="#5D6AB2" d="M613.737,26.891v368.172c0,3.116,6.353,5.651,14.206,5.669V21.221
		C620.091,21.24,613.737,23.771,613.737,26.891z"/>
	<path fill="#382F81" d="M628.023,21.219c-0.026,0-0.055,0.002-0.081,0.002V400.73c0.026,0,0.055,0.002,0.081,0.002
		c7.892,0,14.291-2.539,14.291-5.671V26.891C642.314,23.759,635.916,21.219,628.023,21.219z"/>
	<path fill="#382F81" d="M91.055,26.891v368.172c0,3.116,6.354,5.651,14.209,5.669V21.221C97.41,21.24,91.055,23.771,91.055,26.891z
		"/>
	<path fill="#5D6AB2" d="M105.344,21.219c-0.027,0-0.056,0.002-0.082,0.002V400.73c0.025,0,0.054,0.002,0.082,0.002
		c7.891,0,14.29-2.539,14.29-5.671V26.891C119.634,23.759,113.235,21.219,105.344,21.219z"/>
	<path fill="#F0AECE" d="M711.548,37.43c0-2.85-0.727-5.536-1.985-7.929H24.449c-1.261,2.394-1.986,5.079-1.986,7.929
		c0,2.667,0.634,5.188,1.746,7.461h340.567c-0.051,0.289-0.088,0.582-0.088,0.882c0,2.788,2.262,5.051,5.05,5.051
		s5.051-2.263,5.051-5.051c0-0.301-0.038-0.593-0.089-0.882H709.8C710.914,42.616,711.548,40.094,711.548,37.43z"/>
	<path fill="#54459C" d="M632.089,44.891c0.021-0.223,0.035-0.452,0.035-0.682c0-3.653-2.961-6.613-6.614-6.613
		c-3.652,0-6.613,2.96-6.613,6.613c0,0.229,0.014,0.459,0.035,0.682H231.767c-0.421-2.367-2.475-4.168-4.962-4.168
		s-4.545,1.801-4.962,4.168H24.21c0.749,1.53,1.71,2.952,2.865,4.216c3.542,3.886,8.811,6.357,14.703,6.357h650.457
		c5.892,0,11.163-2.472,14.703-6.357c1.153-1.263,2.114-2.687,2.863-4.216H632.089z"/>
	<path fill="#FBD8E7" d="M709.562,29.501c-3.147-5.981-9.714-10.108-17.328-10.108H41.777c-7.616,0-14.182,4.127-17.328,10.108
		h67.467c-0.068,0.388-0.112,0.788-0.112,1.201c0,3.853,3.124,6.978,6.977,6.978s6.976-3.124,6.976-6.978
		c0-0.412-0.042-0.812-0.111-1.201H709.562z"/>
	<path fill="#5D6AB2" d="M624.522,207.207c0-0.017-0.003-0.028-0.003-0.044c-0.017-4.065-2.531-7.353-5.634-7.353H113.473
		c-3.099,0-5.616,3.288-5.631,7.353c0,0.016-0.001,0.027-0.001,0.044c0,4.083,2.524,7.396,5.633,7.396h505.413
		C621.998,214.602,624.522,211.29,624.522,207.207z"/>
	<g>
		<path fill="#F0AECE" d="M303.664,10.652c0-1.748-1.416-3.166-3.164-3.166H196.707c-1.748,0-3.165,1.418-3.165,3.166v4.002h110.123
			L303.664,10.652L303.664,10.652z"/>
		<path fill="#948EC5" d="M193.542,14.654v1.692c0,1.747,1.417,3.165,3.165,3.165h103.794c1.747,0,3.164-1.417,3.164-3.165v-1.692
			H193.542L193.542,14.654z"/>
	</g>
</g>
</svg>
