<?xml version="1.0" encoding="utf-8"?>
<!-- Generator: Adobe Illustrator 16.0.0, SVG Export Plug-In . SVG Version: 6.00 Build 0)  -->
<!DOCTYPE svg PUBLIC "-//W3C//DTD SVG 1.1//EN" "http://www.w3.org/Graphics/SVG/1.1/DTD/svg11.dtd">
<svg version="1.1" id="Layer_1" xmlns="http://www.w3.org/2000/svg" xmlns:xlink="http://www.w3.org/1999/xlink" x="0px" y="0px"
	 width="716.25px" height="408.834px" viewBox="0 0 716.25 408.834" enable-background="new 0 0 716.25 408.834"
	 xml:space="preserve">
<rect x="75.606" y="215.523" fill="#EFB2D1" width="546.9" height="192.547"/>
<rect x="75.606" y="215.523" fill="#E376AE" width="546.9" height="25.199"/>
<rect x="75.606" y="50.697" fill="#EFB2D1" width="546.9" height="156.549"/>
<rect x="75.606" y="50.697" fill="#E376AE" width="546.9" height="25.199"/>
<path fill="#5D6AB2" d="M614.6,20.158v382.72c0,3.241,6.604,5.875,14.769,5.893V14.265C621.205,14.283,614.6,16.914,614.6,20.158z"
	/>
<path fill="#382F81" d="M629.452,14.263c-0.028,0-0.057,0.002-0.085,0.002v394.504c0.028,0,0.057,0.002,0.085,0.002
	c8.203,0,14.854-2.641,14.854-5.895V20.158C644.307,16.902,637.656,14.263,629.452,14.263z"/>
<path fill="#382F81" d="M71.267,20.158v382.72c0,3.241,6.605,5.875,14.77,5.893V14.265C77.872,14.283,71.267,16.914,71.267,20.158z"
	/>
<path fill="#5D6AB2" d="M86.12,14.263c-0.029,0-0.058,0.002-0.085,0.002v394.504c0.027,0,0.056,0.002,0.085,0.002
	c8.202,0,14.854-2.641,14.854-5.895V20.158C100.974,16.902,94.323,14.263,86.12,14.263z"/>
<path fill="#F0AECE" d="M716.276,31.115c0-2.963-0.756-5.754-2.064-8.244H2.029c-1.31,2.49-2.064,5.281-2.064,8.244
	c0,2.771,0.658,5.391,1.815,7.756h354.024c-0.053,0.299-0.092,0.604-0.092,0.916c0,2.898,2.351,5.25,5.25,5.25
	c2.898,0,5.25-2.352,5.25-5.25c0-0.313-0.039-0.617-0.092-0.916h348.339C715.617,36.505,716.276,33.884,716.276,31.115z"/>
<path fill="#54459C" d="M633.678,38.871c0.022-0.232,0.036-0.47,0.036-0.709c0-3.797-3.078-6.875-6.875-6.875
	c-3.798,0-6.875,3.078-6.875,6.875c0,0.239,0.013,0.477,0.036,0.709H217.537c-0.437-2.461-2.572-4.334-5.158-4.334
	s-4.724,1.873-5.158,4.334H1.78c0.778,1.59,1.777,3.068,2.978,4.383c3.683,4.039,9.158,6.609,15.283,6.609h676.159
	c6.125,0,11.602-2.57,15.283-6.609c1.199-1.313,2.198-2.793,2.977-4.383H633.678z"/>
<path fill="#FBD8E7" d="M714.211,22.871c-3.27-6.217-10.096-10.506-18.012-10.506H20.04c-7.916,0-14.742,4.289-18.012,10.506H72.16
	c-0.071,0.406-0.115,0.821-0.115,1.248c0,4.006,3.246,7.252,7.251,7.252s7.251-3.246,7.251-7.252c0-0.427-0.044-0.842-0.115-1.248
	H714.211z"/>
<path fill="#5D6AB2" d="M625.811,207.599c0-0.017-0.002-0.029-0.002-0.045c-0.018-4.226-2.632-7.644-5.855-7.644H94.57
	c-3.222,0-5.838,3.418-5.854,7.644c0,0.016-0.002,0.028-0.002,0.045c0,4.246,2.624,7.688,5.856,7.688h525.383
	C623.188,215.287,625.811,211.845,625.811,207.599z"/>
<g>
	<path fill="#F0AECE" d="M292.277,3.278c0-1.817-1.473-3.29-3.289-3.29H181.093c-1.816,0-3.289,1.473-3.289,3.29v4.16h114.474
		L292.277,3.278L292.277,3.278z"/>
	<path fill="#948EC5" d="M177.804,7.438v1.76c0,1.817,1.473,3.29,3.289,3.29h107.896c1.816,0,3.289-1.473,3.289-3.29v-1.76H177.804z
		"/>
</g>
</svg>
