<?xml version="1.0" encoding="utf-8"?>
<!-- Generator: Adobe Illustrator 16.0.0, SVG Export Plug-In . SVG Version: 6.00 Build 0)  -->
<!DOCTYPE svg PUBLIC "-//W3C//DTD SVG 1.1//EN" "http://www.w3.org/Graphics/SVG/1.1/DTD/svg11.dtd">
<svg version="1.1" id="Layer_1" xmlns="http://www.w3.org/2000/svg" xmlns:xlink="http://www.w3.org/1999/xlink" x="0px" y="0px"
	 width="674.467px" height="413.357px" viewBox="0.14 0.034 674.467 413.357" enable-background="new 0.14 0.034 674.467 413.357"
	 xml:space="preserve">
<g>
	<path fill="#EFB2D1" d="M238.551,48.41v340.404c0,10.194,8.507,18.461,19.002,18.461h280.02V48.41H238.551z"/>
	<path fill="#E376AE" d="M627.09,29.609H265.163c-10.154,0-18.387,8.131-18.387,18.165v6.373h289.349v353.116h90.965
		c10.153,0,18.387-8.135,18.387-18.166V54.147v-6.373C645.477,37.74,637.243,29.609,627.09,29.609z"/>
	<g>
		<path fill="#54459C" d="M645.558,26.591c-6.324,0-11.45,5.085-11.45,11.359v363.394c0,6.272,5.126,11.36,11.45,11.36
			c2.021,0,4.884-0.522,6.531-1.435V28.024C650.442,27.113,647.578,26.591,645.558,26.591z"/>
	</g>
	<rect x="17.19" y="290.313" fill="#EFB2D1" width="234.417" height="117.029"/>
	<rect x="22.755" y="294.097" fill="#E376AE" width="217.713" height="17.64"/>
	<rect x="22.755" y="165.391" fill="#EFB2D1" width="217.713" height="109.573"/>
	<rect x="22.755" y="165.391" fill="#E376AE" width="217.713" height="17.639"/>
	<rect x="22.755" y="36.684" fill="#EFB2D1" width="217.713" height="109.572"/>
	<rect x="22.755" y="36.684" fill="#E376AE" width="217.713" height="17.639"/>
	<circle fill="#54459C" cx="142.969" cy="25.533" r="5.322"/>
	<circle fill="#54459C" cx="659.731" cy="25.533" r="5.322"/>
	<rect x="28.767" y="167.731" fill="none" width="211.459" height="104.252"/>
	<rect x="28.767" y="167.731" fill="none" width="211.459" height="104.252"/>
	<polygon fill="none" points="28.767,37.66 28.767,144.914 34.02,144.914 28.767,144.914 28.767,144.946 240.225,144.946 
		240.225,37.66 37.165,37.66 	"/>
	<polyline fill="none" points="34.02,144.914 23.442,144.914 23.442,37.66 37.165,37.66 	"/>
	<rect x="23.442" y="167.731" fill="#E5837A" width="5.325" height="104.278"/>
	<rect x="28.767" y="167.731" fill="none" width="211.459" height="104.252"/>
	<path fill="#F0AECE" d="M23.442,412.34c1.712-0.689,3.253-1.745,4.366-3.273c0.466-0.641,0.959-1.637,0.959-2.453V294.784h-5.325
		V412.34z"/>
	<rect x="23.442" y="167.737" fill="#F0AECE" width="5.325" height="104.232"/>
	<rect x="23.411" y="37.66" fill="#F0AECE" width="5.325" height="107.284"/>
	<path fill="#F0AECE" d="M257.885,37.66v12.132c-1.056-0.652-2.296-1.034-3.629-1.034c-3.83,0-6.936,3.106-6.936,6.935
		c0,3.831,3.105,6.938,6.936,6.938c1.333,0,2.573-0.383,3.629-1.034v177.4c-0.433-0.146-0.889-0.241-1.371-0.241
		c-2.404,0-4.354,1.948-4.354,4.354c0,2.403,1.95,4.354,4.354,4.354c0.482,0,0.938-0.1,1.371-0.242V411.65
		c1.001-0.423,1.961-0.932,2.84-1.571c0.937-0.682,2.284-2.205,2.284-3.466V37.66H257.885z"/>
	<path fill="#E63E92" d="M139.42,271.893v-0.035c-0.117,0.021-0.24,0.025-0.36,0.035H139.42z"/>
	<path fill="#E63E92" d="M163.465,271.893v-0.035c-0.117,0.021-0.239,0.025-0.36,0.035H163.465z"/>
	<path fill="#E63E92" d="M187.796,271.893v-0.035c-0.118,0.021-0.241,0.025-0.361,0.035H187.796z"/>
	<path fill="#E63E92" d="M121.607,186.71h0.035c-0.02-0.117-0.026-0.24-0.035-0.359V186.71z"/>
	<path fill="#382F81" d="M15.23,406.591c0,2.044-2.057,3.701-4.597,3.701l0,0c-2.539,0-4.597-1.657-4.597-3.701V40.039
		c0-2.042,2.058-3.701,4.597-3.701l0,0c2.54,0,4.597,1.658,4.597,3.701V406.591z"/>
	<path fill="#89471F" d="M74.031,140.859c0.02,0.008,0.04,0.013,0.061,0.019c-0.018,0.016-0.031,0.036-0.05,0.04
		c-0.02,0.002-0.042-0.011-0.062-0.017C73.996,140.886,74.012,140.873,74.031,140.859z"/>
	<path fill="#F0AECE" d="M652.088,28.024v66.712c-0.699-0.275-1.459-0.432-2.256-0.432c-3.384,0-6.129,2.723-6.129,6.08
		c0,3.359,2.745,6.08,6.129,6.08c0.797,0,1.557-0.156,2.256-0.432v244.954c-1.31-0.735-2.82-1.159-4.433-1.159
		c-4.987,0-9.032,4.011-9.032,8.959c0,4.949,4.045,8.961,9.032,8.961c1.612,0,3.123-0.425,4.433-1.16v44.685
		c3.512-1.94,5.89-5.657,5.89-9.926V37.95C657.978,33.68,655.6,29.964,652.088,28.024z"/>
	<path fill="#F0AECE" d="M674.607,18.857c0-4.254-1.421-8.167-3.795-11.325H3.934C1.56,10.69,0.14,14.603,0.14,18.857
		c0,2.294,0.433,4.481,1.184,6.514H673.43C674.178,23.339,674.607,21.15,674.607,18.857z"/>
	<path fill="#54459C" d="M1.253,25.27c1.018,2.754,2.639,5.213,4.729,7.195v374.147c0,5.262,8.484,6.92,12.375,6.769
		c1.713-0.066,3.474-0.394,5.084-1.042V294.784h5.325v-0.016h211.459c0,0,0,111.798,0,111.844c0,2.918,4.173,4.741,6.398,5.481
		c3.609,1.197,7.733,1.042,11.263-0.444V37.66h5.124h2.013h390.61c8.146,0,15.068-5.164,17.726-12.39H1.253z M240.225,271.983
		H28.767V167.731h211.459L240.225,271.983L240.225,271.983z M240.225,144.946H28.767v-0.032h-5.325V37.66h5.325h8.399h203.06
		L240.225,144.946L240.225,144.946z"/>
	<path fill="#FBD8E7" d="M670.727,7.611c-3.449-4.591-8.924-7.577-15.108-7.577H18.956c-6.187,0-11.66,2.986-15.108,7.577h21.653
		c-0.042,0.244-0.075,0.49-0.075,0.745c0,2.338,1.896,4.233,4.234,4.233c2.338,0,4.234-1.896,4.234-4.233
		c0-0.255-0.032-0.501-0.075-0.745h164.035c-0.315,0.864-0.534,1.79-0.497,2.763c0.282,7.255,6.202,8.062,8.064,8.062
		c4.455,0,8.064-3.609,8.064-8.062c0-0.973-0.181-1.899-0.496-2.763H670.727z"/>
</g>
</svg>
