<?xml version="1.0" encoding="utf-8"?>
<!-- Generator: Adobe Illustrator 16.0.0, SVG Export Plug-In . SVG Version: 6.00 Build 0)  -->
<!DOCTYPE svg PUBLIC "-//W3C//DTD SVG 1.1//EN" "http://www.w3.org/Graphics/SVG/1.1/DTD/svg11.dtd">
<svg version="1.1" id="Layer_1" xmlns="http://www.w3.org/2000/svg" xmlns:xlink="http://www.w3.org/1999/xlink" x="0px" y="0px"
	 width="121.682px" height="161.841px" viewBox="0 0 121.682 161.841" enable-background="new 0 0 121.682 161.841"
	 xml:space="preserve">
<g>
	<path fill="#948EC5" d="M50.818,67.989h51.865c2.783,0,5.129,0.508,7.029,1.52c1.9,1.016,3.482,2.346,4.75,3.99
		c1.264,1.647,2.184,3.452,2.754,5.414c0.57,1.965,0.855,3.895,0.855,5.795c0,1.899-0.285,3.8-0.855,5.699s-1.457,3.643-2.66,5.225
		c-1.205,1.585-2.787,2.85-4.75,3.8c-1.965,0.949-4.34,1.425-7.123,1.425H50.818v22.228c0,2.28,0.379,3.771,1.139,4.465
		c0.76,0.698,2.215,1.045,4.371,1.045h49.965c2.785,0,5.158,0.476,7.125,1.425c1.961,0.95,3.543,2.218,4.748,3.8
		c1.203,1.585,2.09,3.357,2.66,5.319c0.57,1.966,0.855,3.895,0.855,5.795c0,1.899-0.285,3.865-0.855,5.89
		c-0.57,2.027-1.49,3.864-2.754,5.51c-1.268,1.647-2.85,2.977-4.75,3.989c-1.9,1.012-4.244,1.52-7.029,1.52H41.508
		c-5.699,0-10.449-0.54-14.248-1.614c-3.801-1.075-6.84-2.817-9.119-5.225c-2.279-2.404-3.895-5.51-4.846-9.31
		c-0.949-3.8-1.424-8.422-1.424-13.869V38.922c0-5.444,0.475-10.069,1.424-13.869c0.951-3.8,2.566-6.901,4.846-9.31
		c2.279-2.404,5.318-4.146,9.119-5.225c3.799-1.074,8.549-1.614,14.248-1.614h62.885c2.785,0,5.131,0.508,7.029,1.52
		c1.9,1.016,3.482,2.346,4.75,3.99c1.266,1.647,2.186,3.484,2.756,5.509c0.568,2.027,0.854,3.99,0.854,5.89
		c0,1.9-0.285,3.832-0.854,5.795c-0.57,1.965-1.459,3.737-2.66,5.319c-1.205,1.585-2.787,2.85-4.75,3.8
		c-1.965,0.95-4.34,1.425-7.125,1.425H56.328c-2.156,0-3.611,0.351-4.371,1.045c-0.76,0.697-1.139,2.185-1.139,4.465V67.989z"/>
	<path fill="#F4C6DD" d="M38.947,59.085h51.865c2.785,0,5.131,0.508,7.029,1.52c1.9,1.016,3.482,2.346,4.75,3.99
		c1.266,1.647,2.186,3.452,2.756,5.414c0.568,1.965,0.854,3.895,0.854,5.795c0,1.899-0.285,3.8-0.854,5.699
		c-0.57,1.899-1.459,3.643-2.66,5.225c-1.205,1.585-2.787,2.85-4.75,3.8c-1.965,0.949-4.34,1.425-7.125,1.425H38.947v22.228
		c0,2.28,0.381,3.771,1.141,4.465c0.76,0.698,2.215,1.045,4.369,1.045h49.965c2.785,0,5.16,0.476,7.125,1.425
		c1.963,0.95,3.545,2.218,4.75,3.8c1.201,1.585,2.09,3.357,2.66,5.319c0.57,1.966,0.854,3.895,0.854,5.795
		c0,1.899-0.283,3.865-0.854,5.89c-0.57,2.027-1.49,3.864-2.756,5.51c-1.268,1.647-2.85,2.977-4.748,3.989
		c-1.9,1.012-4.246,1.52-7.031,1.52H29.639c-5.699,0-10.449-0.54-14.25-1.614c-3.799-1.075-6.838-2.817-9.119-5.225
		c-2.279-2.404-3.895-5.51-4.844-9.31S0,128.366,0,122.919V30.018c0-5.444,0.477-10.069,1.426-13.869S3.99,9.247,6.27,6.839
		c2.281-2.404,5.32-4.146,9.119-5.225C19.189,0.54,23.939,0,29.639,0h62.885c2.783,0,5.129,0.508,7.029,1.52
		c1.9,1.016,3.482,2.346,4.75,3.99c1.264,1.647,2.184,3.484,2.754,5.509c0.57,2.027,0.855,3.99,0.855,5.89
		c0,1.9-0.285,3.832-0.855,5.795c-0.57,1.965-1.457,3.737-2.66,5.319c-1.205,1.585-2.787,2.85-4.75,3.8
		c-1.965,0.95-4.34,1.425-7.123,1.425H44.457c-2.154,0-3.609,0.351-4.369,1.045c-0.76,0.697-1.141,2.185-1.141,4.465V59.085z"/>
	<path fill="#FFFFFF" d="M92.525,16.547H55.832c-3.279,0-5.936-2.657-5.936-5.937s2.656-5.937,5.936-5.937h36.693
		c3.279,0,5.938,2.657,5.938,5.937S95.805,16.547,92.525,16.547z"/>
	<path fill="#FFFFFF" d="M45.609,11.271c0,3.688-2.99,6.68-6.68,6.68c-3.686,0-6.678-2.992-6.678-6.68s2.992-6.679,6.678-6.679
		C42.619,4.593,45.609,7.584,45.609,11.271z"/>
</g>
</svg>
