<?xml version="1.0" encoding="utf-8"?>
<!-- Generator: Adobe Illustrator 16.0.0, SVG Export Plug-In . SVG Version: 6.00 Build 0)  -->
<!DOCTYPE svg PUBLIC "-//W3C//DTD SVG 1.1//EN" "http://www.w3.org/Graphics/SVG/1.1/DTD/svg11.dtd">
<svg version="1.1" id="Layer_1" xmlns="http://www.w3.org/2000/svg" xmlns:xlink="http://www.w3.org/1999/xlink" x="0px" y="0px"
	 width="138.875px" height="179.375px" viewBox="0 0 138.875 179.375" enable-background="new 0 0 138.875 179.375"
	 xml:space="preserve">
<g>
	<path fill-rule="evenodd" clip-rule="evenodd" fill="#948EC5" d="M113.006,11.9c1.724,0.342,2.816,1.675,4.02,2.734
		c10.698,9.412,17.941,20.931,20.59,35.035c2.963,15.782,0.66,30.706-7.819,44.54c-3.892,6.348-8.662,11.876-14.514,16.477
		c-0.35,0.274-0.592,0.686-0.881,1.034c-1.636,0.525-2.879,1.645-4.132,2.75c-0.654,0.304-1.336,0.559-1.959,0.916
		c-12.386,7.106-25.609,10.001-39.817,7.934c-19.579-2.85-34.498-12.862-44.794-29.636c-6.578-10.718-9.265-22.529-8.614-35.093
		c0.557-10.731,3.633-20.657,9.48-29.699c1.782,1.308,2.892,2.924,2.502,5.276c-0.056,0.342-0.281,0.995,0.145,1.04
		c1.512,0.159,0.859,0.996,0.556,1.631c-1.852,3.87-1.455,8.095-1.958,12.175c-0.044,0.357-0.194,0.855,0.243,1.059
		c0.555,0.261,0.791-0.308,1.104-0.596c1.165-1.069,1.662-2.514,2.07-3.97c0.412-1.476,1.211-2.549,2.555-3.322
		c1.82-1.048,3.733-2.034,5.284-3.411c1.051-0.934,2.029-1.309,3.313-1.265c0.679-0.035,1.357-0.069,2.038-0.105l0.057,0.113
		c-0.047,0.45-0.001,0.874,0.338,1.215c0.055,0.391,0.108,0.779,0.16,1.168c0.013,1.472,0.025,2.942,0.036,4.413
		c0.015,0.128,0.03,0.258,0.045,0.386c0.162,0.106,0.325,0.213,0.487,0.319c0.251-0.044,0.502-0.089,0.753-0.133
		c1.657-0.034,1.15,1.325,1.41,2.19c-0.052,0.912-0.102,1.824-0.152,2.736c-0.337,1.318-0.675,2.637-1.012,3.955
		c-0.261,0.714-0.076,1.365,0.285,1.988c0.086,0.156,0.175,0.312,0.261,0.468c0.118,0.154,0.237,0.307,0.356,0.46
		c-0.021,0.083-0.006,0.158,0.048,0.226c0.047,0.854,0.119,1.707,0.136,2.561c0.025,1.374,0.421,2.588,1.45,3.542
		c0.274,0.256,0.569,0.685,0.981,0.396c0.198-0.14,0.228-0.565,0.272-0.87c0.337-2.284-0.49-4.118-2.199-5.603
		c0.021-0.438-0.238-0.732-0.521-1.015c-0.104-0.717-0.206-1.436-0.31-2.153c0.403-1.126,0.807-2.253,1.209-3.378
		c0.182-0.262,0.362-0.522,0.543-0.784c0.411,0.062,0.821,0.122,1.232,0.183c1.183,1.482,2.558,2.84,3.206,4.679
		c0.192,0.547,0.502,0.693,1.035,0.635c3.555-0.392,5.429-3.688,3.948-6.987c-0.296-0.658-0.672-1.28-0.967-1.939
		c-0.377-0.841-1.433-1.712-0.396-2.629c1.104-0.977,2.335-2.258,3.954-1.756c3.047,0.945,5.929,0.104,8.846-0.433
		c2.491-0.457,3.896-2.534,5.738-3.979c1.775-1.392,1.695-3.227,1.587-5.064c-0.051-0.878-0.711-1.705-0.853-2.593
		c-0.185-1.166,1.551-1.107,1.672-2.302c-0.969-0.021-2.012-0.094-2.149-1.264c-0.153-1.297,1.103-1.224,1.851-1.652
		c1.422-0.814,2.315,0.3,3.456,0.77c1.61,0.663,3.126,2.49,3.035,4.178c-0.024,0.465-0.539,1.076,0.239,1.347
		c0.645,0.224,1.32,0.104,1.877-0.305c0.594-0.437,0.34-1.008,0.244-1.607c-0.16-1.004-1.909-1.705-0.714-2.894
		c0.776-0.77,1.819-1.278,2.767-1.864c0.707-0.437,1.514-0.36,2.306-0.346c0.783,0.014,1.614,0.139,2.288-0.378
		c2.185-1.67,4.602-3.184,4.697-6.393c0.686,0.255,0.92,0.816,1.104,1.474c0.135,0.484-0.127,1.472,0.708,1.292
		c0.81-0.175,0.485-1.024,0.322-1.652c-0.305-1.182-0.975-1.611-2.139-1.098c-0.193-0.957-0.701-1.521-1.753-1.483
		c-0.685,0.025-1.28-0.285-1.834-0.643c-0.569-0.37-0.661-0.835-0.028-1.224c2.295-1.406,4.675-2.395,7.449-1.503
		c1.576,0.506,3.072,0.893,4.63-0.37c1.029-0.837,2.703-0.133,3.416,0.343c0.906,0.605-0.631,1.373-1.115,2.043
		c-0.973,1.344-0.524,3.873,0.928,4.905c0.463,0.328,0.746,0.186,0.878-0.27c0.371-1.287,1.274-2.511,0.488-3.95
		c-0.625-1.145-0.165-1.546,1.023-1.489C111.282,13.442,112.616,13.598,113.006,11.9z M84.985,77.471
		c1.159,0.897,3.368,1.403,3.03,3.004c-0.595,2.812,1.724,2.709,2.933,3.709c0.545,0.451,1.195,0.271,1.816-0.145
		c2.439-1.628,2.721-1.56,4.406,1.008c0.514,0.783,1.078,1.336,2.388,1.217c-0.729-1.096-1.637-1.835-1.645-2.931
		c-0.019-2.434-1.562-3.781-3.394-4.911c-1.06-0.654-2.278-1.068-3.281-1.792c-2.162-1.562-4.201-1.576-6.246,0.138
		c-0.8-0.636-1.243-1.421-1.331-2.481c-0.101-1.211-1.006-1.592-2.09-1.524c-0.649,0.039-0.988,0.454-0.567,1.061
		C82.052,75.333,82.707,77.296,84.985,77.471z M91.545,87.113c-1.135,0.798-1.221,1.701-1.525,2.465
		c-1.919,4.791-2.59,4.945-6.373,1.482c-0.914-0.838-1.566-1.662-0.567-2.836c0.639-0.747,0.248-1.119-0.436-1.5
		c-2.28-1.271-4.837-0.907-6.562,1.02c-0.703,0.786-1.463,1.288-2.319,0.385c-1.27-1.338-2.456-0.775-3.432,0.184
		c-1.459,1.434-3.726,1.678-4.908,3.537c-0.267,0.419-1.185,0.517-1.821,0.585c-0.975,0.104-1.965,0.047-2.948,0.072
		c-2.179,0.06-3.885,1.255-3.66,2.718c0.328,2.12,0.364,4.321,1.431,6.282c0.384,0.708,0.632,1.48,0.445,2.278
		c-0.354,1.511,0.651,2.139,1.713,1.915c2.388-0.5,4.771,0.188,7.204-0.489c3.121-0.868,6.443-0.99,9.138,1.452
		c0.817,0.741,1.439,1.505,2.686,0.952c0.6-0.266,0.989,0.016,1.041,0.725c0.135,1.842,1.537,1.815,2.91,2.243
		c3.363,1.049,6.031-2.363,9.33-1.223c0.109,0.038,0.333-0.188,0.476-0.319c1.305-1.207,2.625-2.4,3.424-4.036
		c0.554-1.133,0.735-2.344-0.011-3.388c-1.261-1.765-1.361-4.125-3.044-5.672c-0.477-0.439-0.657-1.2-0.541-1.849
		C93.66,91.512,91.214,89.823,91.545,87.113z M54.175,66.764c0.085,3.054,3.263,5.975,6.356,5.824
		c0.246-0.012,0.649-0.1,0.705-0.251c0.873-2.379,4.349-3.536,3.212-6.866c-0.204-0.599,0.107-1.208,0.588-1.583
		c0.883-0.689,0.754-1.313,0.159-2.141c-0.734-1.023-1.341-0.396-1.986,0.01c-2.616,1.648-5.187,3.385-8.382,3.762
		C54.16,65.597,54.141,66.214,54.175,66.764z M40.554,58.495c1.679,2.438,2.875,4.82,3.595,7.411
		c0.553,1.994,1.574,3.731,2.872,5.314c0.549,0.67,1.192,1.866,2.11,0.88c0.701-0.753,1.404-2.077,0.039-3.08
		c-0.686-0.504-1.167-1.219-1.234-1.941c-0.177-1.894-1.514-2.952-2.613-4.226c-0.896-1.038-1.683-2.168-2.504-3.271
		C42.354,58.957,41.932,58.287,40.554,58.495z M91.424,33.016c0.646-0.09,1.291-0.226,1.94-0.259
		c2.081-0.105,3.931-2.11,3.847-4.203c-0.02-0.513-0.238-0.893-0.715-1.07c-0.366-0.137-0.705,0.037-0.752,0.403
		c-0.346,2.739-2.797,2.793-4.609,3.671c-0.395,0.191-1.254-0.01-0.991,0.83C90.302,32.893,90.85,33.131,91.424,33.016z
		 M65.974,75.341c0.603-1.275,0.995-2.85,2.03-0.683c0.079,0.167,0.462,0.327,0.635,0.273c0.176-0.058,0.404-0.41,0.369-0.586
		c-0.254-1.297-0.631-2.553-1.758-3.401c-0.343-0.26-0.728-0.328-1.062,0.016c-0.926,0.949-1.04,2.066-0.63,3.277
		C65.641,74.482,65.74,74.721,65.974,75.341z M57.704,77.463c-0.665-0.818-1.252-1.862-2.359-1.903
		c-1.665-0.058-3.018-0.803-4.399-1.553c-0.396-0.213-0.904-0.63-1.212-0.125c-0.382,0.63,0.314,0.891,0.727,1.146
		C52.664,76.395,55.156,76.945,57.704,77.463z M72.257,48.255c-0.897,0.035-2.139,2.404-1.858,3.404
		c0.139,0.495,0.268,1.147,0.878,1.174c0.614,0.025,0.437-0.683,0.639-1.05c0.313-0.569,0.707-1.102,0.961-1.695
		C73.221,49.287,73.171,48.558,72.257,48.255z M76.086,60.946c-0.102-0.504-0.166-1.241-0.877-0.915
		c-0.735,0.338-2.238-0.369-2.104,1.25c0.059,0.691,0.033,1.965,1.021,1.784C74.999,62.906,76.022,62.211,76.086,60.946z
		 M99.446,25.043c-0.316-0.566-0.901-0.854-1.519-1.037c-0.745-0.222-0.936,0.375-0.963,0.888c-0.044,0.786,0.589,0.937,1.204,0.964
		C98.715,25.882,99.208,25.736,99.446,25.043z"/>
	<path fill-rule="evenodd" clip-rule="evenodd" fill="#54459C" d="M95.954,17.01c-0.096,3.209-2.513,4.723-4.697,6.393
		c-0.674,0.517-1.505,0.392-2.288,0.378c-0.792-0.015-1.599-0.091-2.306,0.346c-0.947,0.586-1.99,1.095-2.767,1.864
		c-1.195,1.188,0.554,1.89,0.714,2.894c0.096,0.6,0.35,1.171-0.244,1.607c-0.557,0.408-1.232,0.528-1.877,0.305
		c-0.778-0.271-0.264-0.882-0.239-1.347c0.091-1.688-1.425-3.515-3.035-4.178c-1.141-0.47-2.034-1.584-3.456-0.77
		c-0.748,0.429-2.004,0.355-1.851,1.652c0.138,1.17,1.181,1.242,2.149,1.264c-0.121,1.194-1.856,1.136-1.672,2.302
		c0.142,0.888,0.802,1.715,0.853,2.593c0.108,1.838,0.188,3.673-1.587,5.064c-1.843,1.444-3.247,3.521-5.738,3.979
		c-2.917,0.536-5.799,1.378-8.846,0.433c-1.619-0.502-2.85,0.779-3.954,1.756c-1.037,0.917,0.019,1.788,0.396,2.629
		c0.295,0.659,0.671,1.281,0.967,1.939c1.48,3.299-0.394,6.596-3.948,6.987c-0.533,0.059-0.843-0.088-1.035-0.635
		c-0.648-1.839-2.023-3.196-3.206-4.679c-0.295-0.841-0.692-0.99-1.232-0.183c-0.181,0.262-0.361,0.522-0.543,0.783
		c-0.319-0.192-0.639-0.384-0.958-0.575c0.051-0.912,0.101-1.824,0.151-2.736c0.966-0.73,0.664-1.601,0.12-2.343
		c-0.47-0.64-1.086-0.582-1.529,0.152c-0.251,0.044-0.502,0.089-0.753,0.133c-0.162-0.106-0.325-0.213-0.487-0.319
		c-0.015-0.128-0.03-0.258-0.044-0.386c0.807-1.479,0.89-2.949-0.037-4.413c-0.052-0.389-0.105-0.777-0.16-1.168
		c0.437-0.558,0.293-0.954-0.338-1.215l-0.057-0.112c-0.741-1.158-1.378-0.298-2.038,0.104c-1.284-0.044-2.263,0.331-3.313,1.265
		c-1.551,1.377-3.464,2.363-5.284,3.411c-1.344,0.773-2.143,1.847-2.555,3.322c-0.408,1.456-0.905,2.9-2.07,3.97
		c-0.313,0.288-0.55,0.856-1.104,0.596c-0.438-0.203-0.287-0.701-0.243-1.059c0.503-4.08,0.106-8.305,1.958-12.175
		c0.304-0.635,0.956-1.472-0.556-1.631c-0.426-0.045-0.2-0.698-0.145-1.04c0.39-2.353-0.72-3.969-2.502-5.276
		c-0.005-0.125-0.005-0.249-0.001-0.373c0.941-1.311,2.282-2.397,2.347-4.199c0.986-0.225,1.458-1.043,2.056-1.738
		c8.106-9.438,18.01-16.14,29.938-19.851C65.887,0.56,72.999-0.239,80.27,0.09c0.273,0.686-0.958,0.655-0.661,1.429
		c2.521,0.007,4.8,1.38,7.355,1.245c0.272-0.015,0.655,0.212,0.824,0.445c0.877,1.207,2.153,1.268,3.387,1.061
		c1.757-0.296,3.354,0.215,5.028,0.539c3.321,0.641,6.217,2.735,9.701,2.756c1.367,0.529,2.874,0.558,4.164,1.447
		c1.026,0.709,1.951,1.437,2.596,2.502c0.123,0.136,0.247,0.271,0.371,0.408l-0.029-0.022c-0.391,1.698-1.725,1.542-2.976,1.485
		c-1.188-0.057-1.648,0.345-1.023,1.489c0.786,1.439-0.117,2.663-0.488,3.95c-0.132,0.455-0.415,0.598-0.878,0.27
		c-1.452-1.032-1.9-3.562-0.928-4.905c0.484-0.67,2.021-1.438,1.115-2.043c-0.713-0.476-2.387-1.18-3.416-0.343
		c-1.558,1.263-3.054,0.876-4.63,0.37c-2.774-0.892-5.154,0.097-7.449,1.503c-0.633,0.389-0.541,0.854,0.028,1.224
		c0.554,0.357,1.149,0.668,1.834,0.643c1.052-0.038,1.56,0.526,1.753,1.483C95.95,17.026,95.954,17.01,95.954,17.01z"/>
	<path fill-rule="evenodd" clip-rule="evenodd" fill="#5D6AB2" d="M96.885,172.5c0.637,1.095,0.613,2.323,0.715,3.526
		c-13.016,0.029-26.03,0.059-39.046,0.079c-0.785,0.001-1.57-0.082-2.354-0.126c-0.051-1.197,0.163-2.349,0.609-3.459
		C70.168,172.513,83.528,172.505,96.885,172.5z"/>
	<path fill-rule="evenodd" clip-rule="evenodd" fill="#54459C" d="M56.2,175.979c0.784,0.044,1.569,0.127,2.354,0.126
		c13.016-0.021,26.03-0.05,39.046-0.079c0.486,0.177,1.043,0.258,1.446,0.549c0.769,0.556,1.453,1.435,1.242,2.313
		c-0.229,0.956-1.342,0.518-2.058,0.519c-13.938,0.025-27.877,0.039-41.814-0.023c-0.953-0.005-2.616,0.822-2.816-0.682
		C53.409,177.272,54.637,176.239,56.2,175.979z"/>
	<path fill-rule="evenodd" clip-rule="evenodd" fill="#5D6AB2" d="M79.837,160.395c-1.968,0.195-3.935,0.228-5.902-0.022
		c-0.022-7.164-0.046-14.329-0.068-21.493c1.997-0.275,3.996-0.249,5.993-0.024C79.852,146.035,79.844,153.214,79.837,160.395z"/>
	<path fill-rule="evenodd" clip-rule="evenodd" fill="#948EC5" d="M96.885,172.5c-13.357,0.006-26.717,0.014-40.076,0.021
		c0.146-0.866,0.304-1.728,0.965-2.385c12.757-0.004,25.515-0.008,38.273-0.012C96.627,170.809,96.876,171.613,96.885,172.5z"/>
	<path fill-rule="evenodd" clip-rule="evenodd" fill="#5D6AB2" d="M16.501,14.159c-0.71,1.366-1.659,2.562-2.667,3.713
		c-2.119-1.665-3.876-3.707-5.766-5.606C6.981,11.17,6.924,9.9,8.039,8.78c1.147-1.154,2.372-0.935,3.457,0.136
		C13.217,10.613,15.076,12.179,16.501,14.159z"/>
	<path fill-rule="evenodd" clip-rule="evenodd" fill="#5D6AB2" d="M119.066,116.736c-1.045,1.297-2.544,1.993-3.871,2.918
		c-1.642-1.729-3.283-3.457-4.925-5.185c1.253-1.104,2.496-2.224,4.132-2.749C115.956,113.391,117.511,115.064,119.066,116.736z"/>
	<path fill-rule="evenodd" clip-rule="evenodd" fill="#5D6AB2" d="M19.393,23.581c0.688-1.448,1.625-2.717,2.773-3.834
		c1.581,1.523,3.163,3.048,4.745,4.572c-0.064,1.803-1.405,2.89-2.347,4.2C22.84,26.872,21.117,25.228,19.393,23.581z"/>
	<path fill-rule="evenodd" clip-rule="evenodd" fill="#5D6AB2" d="M120.91,125.098c1.217-1.037,2.423-2.09,3.885-2.787
		c0.882,0.874,1.782,1.73,2.641,2.628c1.346,1.406,1.427,2.64,0.228,3.739c-1.307,1.2-2.519,0.746-3.616-0.345
		C122.983,127.274,121.954,126.178,120.91,125.098z"/>
	<path fill-rule="evenodd" clip-rule="evenodd" fill="#F0AECE" d="M94.997,167.829c-3.247-4.7-7.739-7.108-13.455-7.226
		c-0.57-0.076-1.141-0.153-1.711-0.23l0.007,0.022c-1.968,0.195-3.935,0.228-5.902-0.022l0.028-0.028
		c-0.568,0.088-1.136,0.175-1.714,0.263c-0.579,0.034-1.169,0.061-1.76,0.104c-5.546,0.413-11.462,4.797-12.716,9.424
		c12.757-0.003,25.515-0.007,38.273-0.011C95.979,169.23,95.474,168.52,94.997,167.829z"/>
	<path fill-rule="evenodd" clip-rule="evenodd" fill="#C2DDDD" d="M113.036,11.922c-0.124-0.137-0.248-0.272-0.371-0.408
		C112.788,11.65,112.912,11.786,113.036,11.922z"/>
	<path fill-rule="evenodd" clip-rule="evenodd" fill="#54459C" d="M128.554,114.251c-1.615-1.844-3.757-1.976-5.749-0.359
		c-1.217,0.986-2.266,2.194-3.739,2.844c-1.045,1.297-2.544,1.993-3.871,2.918c-8.005,5.451-16.848,8.887-26.347,10.517
		c-13.614,2.337-26.943,1.09-39.568-4.63C27.277,115.57,13.704,98.545,8.903,74.922C5.35,57.436,8.8,40.958,17.911,25.653
		c0.433-0.727,0.986-1.382,1.482-2.072c0.688-1.448,1.625-2.717,2.773-3.834c0.734-1.652,2.188-2.757,3.199-4.197
		c1.16-1.654,0.849-3.984-0.689-5.302c-1.648-1.412-3.395-1.257-5.042,0.403c-1.105,1.115-1.849,2.553-3.133,3.508
		c-0.71,1.366-1.659,2.562-2.667,3.713c-0.358,0.62-0.692,1.258-1.078,1.86C8.07,27.056,4.536,34.875,2.541,43.362
		C2.32,44.028,2,44.672,2.1,45.409c-0.051,0.27-0.103,0.54-0.154,0.81c-0.29,0.359-0.342,0.768-0.243,1.204
		c-0.078,0.276-0.156,0.552-0.236,0.827c-0.097,0.109-0.113,0.229-0.05,0.36c-0.022,0.204-0.045,0.408-0.067,0.612
		c-0.294,0.973-0.632,1.939-0.464,2.984c-0.022,0.352-0.045,0.702-0.067,1.054c-0.33,0.648-0.372,1.334-0.271,2.04
		c-0.021,0.27-0.042,0.538-0.063,0.808c-0.62,5.185-0.597,10.355,0.357,15.505c0.014,0.22,0.027,0.44,0.04,0.66
		c-0.163,1.052,0.15,2.029,0.463,3.01c0.023,0.199,0.046,0.4,0.068,0.601c0.118,1.806,0.593,3.535,1.128,5.252
		c4.029,16.101,12.648,29.324,25.293,39.939c11.089,9.308,23.841,14.99,38.226,16.9c2.598,0.344,5.206,0.605,7.808,0.904
		c1.997-0.275,3.996-0.249,5.993-0.024c0.573-0.103,1.145-0.268,1.723-0.299c6.984-0.386,13.745-1.861,20.368-4.066
		c6.761-2.249,12.931-5.674,18.959-9.392c1.217-1.037,2.423-2.09,3.885-2.787c0.776-1.177,2.032-1.827,3.034-2.757
		C129.776,117.744,130.047,115.958,128.554,114.251z"/>
	<path fill-rule="evenodd" clip-rule="evenodd" fill="#54459C" d="M91.545,87.113c-0.331,2.71,2.114,4.399,1.649,6.983
		c-0.116,0.648,0.064,1.409,0.541,1.849c1.683,1.547,1.783,3.907,3.044,5.672c0.746,1.044,0.564,2.255,0.011,3.388
		c-0.799,1.636-2.119,2.829-3.424,4.036c-0.143,0.132-0.366,0.357-0.476,0.319c-3.299-1.141-5.967,2.271-9.33,1.223
		c-1.373-0.428-2.775-0.401-2.91-2.243c-0.052-0.709-0.441-0.99-1.041-0.725c-1.246,0.553-1.868-0.211-2.686-0.952
		c-2.694-2.442-6.017-2.32-9.138-1.452c-2.433,0.678-4.816-0.011-7.204,0.489c-1.062,0.224-2.067-0.404-1.713-1.915
		c0.187-0.798-0.062-1.57-0.445-2.278c-1.066-1.961-1.103-4.162-1.431-6.282c-0.225-1.463,1.481-2.658,3.66-2.718
		c0.983-0.025,1.974,0.032,2.948-0.072c0.637-0.068,1.555-0.166,1.821-0.585c1.183-1.859,3.449-2.104,4.908-3.537
		c0.976-0.959,2.162-1.521,3.432-0.184c0.856,0.903,1.616,0.401,2.319-0.385c1.725-1.927,4.281-2.29,6.562-1.02
		c0.684,0.381,1.074,0.753,0.436,1.5c-0.999,1.174-0.347,1.998,0.567,2.836c3.783,3.463,4.454,3.309,6.373-1.482
		C90.325,88.814,90.411,87.911,91.545,87.113z"/>
	<path fill-rule="evenodd" clip-rule="evenodd" fill="#54459C" d="M54.175,66.764c-0.034-0.55-0.016-1.167,0.652-1.245
		c3.195-0.377,5.766-2.113,8.382-3.762c0.646-0.405,1.252-1.033,1.986-0.01c0.595,0.827,0.724,1.451-0.159,2.141
		c-0.48,0.375-0.792,0.984-0.588,1.583c1.137,3.33-2.339,4.487-3.212,6.866c-0.056,0.151-0.459,0.239-0.705,0.251
		C57.438,72.739,54.26,69.818,54.175,66.764z"/>
	<path fill-rule="evenodd" clip-rule="evenodd" fill="#54459C" d="M84.993,76.768c2.045-1.714,4.084-1.699,6.246-0.138
		c1.003,0.724,2.222,1.138,3.281,1.792c1.832,1.13,3.375,2.478,3.394,4.911c0.008,1.096,0.915,1.835,1.645,2.931
		c-1.31,0.119-1.874-0.434-2.388-1.217c-1.686-2.567-1.967-2.636-4.406-1.008c-0.621,0.415-1.271,0.596-1.816,0.145
		c-1.209-1-3.527-0.897-2.933-3.709c0.338-1.601-1.871-2.106-3.03-3.004C84.988,77.238,84.991,77.002,84.993,76.768z"/>
	<path fill-rule="evenodd" clip-rule="evenodd" fill="#54459C" d="M40.554,58.495c1.378-0.208,1.8,0.462,2.265,1.088
		c0.821,1.103,1.608,2.232,2.504,3.271c1.1,1.273,2.437,2.332,2.613,4.226c0.067,0.723,0.549,1.438,1.234,1.941
		c1.365,1.003,0.662,2.327-0.039,3.08c-0.918,0.986-1.562-0.21-2.11-0.88c-1.298-1.583-2.319-3.32-2.872-5.314
		C43.429,63.315,42.233,60.933,40.554,58.495z"/>
	<path fill-rule="evenodd" clip-rule="evenodd" fill="#54459C" d="M91.424,33.016c-0.574,0.115-1.122-0.123-1.28-0.628
		c-0.263-0.84,0.597-0.639,0.991-0.83c1.813-0.878,4.264-0.932,4.609-3.671c0.047-0.366,0.386-0.54,0.752-0.403
		c0.477,0.178,0.695,0.558,0.715,1.07c0.084,2.093-1.766,4.098-3.847,4.203C92.715,32.791,92.071,32.926,91.424,33.016z"/>
	<path fill-rule="evenodd" clip-rule="evenodd" fill="#54459C" d="M46.13,56.934c1.71,1.484,2.537,3.318,2.2,5.603
		c-0.045,0.305-0.074,0.73-0.272,0.87c-0.412,0.289-0.707-0.14-0.981-0.396c-1.029-0.954-1.425-2.168-1.45-3.542
		c-0.017-0.854-0.089-1.707-0.136-2.56C45.704,56.917,45.917,56.926,46.13,56.934z"/>
	<path fill-rule="evenodd" clip-rule="evenodd" fill="#54459C" d="M65.974,75.341c-0.234-0.62-0.333-0.859-0.415-1.104
		c-0.41-1.211-0.296-2.328,0.63-3.277c0.334-0.344,0.719-0.275,1.062-0.016c1.127,0.849,1.504,2.104,1.758,3.401
		c0.035,0.176-0.193,0.528-0.369,0.586c-0.173,0.054-0.556-0.106-0.635-0.273C66.969,72.492,66.577,74.066,65.974,75.341z"/>
	<path fill-rule="evenodd" clip-rule="evenodd" fill="#54459C" d="M57.704,77.463c-2.548-0.519-5.04-1.068-7.244-2.435
		c-0.412-0.256-1.108-0.517-0.727-1.146c0.308-0.505,0.816-0.088,1.212,0.125c1.382,0.75,2.734,1.495,4.399,1.553
		C56.452,75.601,57.039,76.645,57.704,77.463z"/>
	<path fill-rule="evenodd" clip-rule="evenodd" fill="#54459C" d="M84.993,76.768c-0.002,0.234-0.005,0.47-0.008,0.703
		c-2.278-0.175-2.933-2.138-3.98-3.648c-0.421-0.606-0.082-1.021,0.567-1.061c1.084-0.067,1.989,0.313,2.09,1.524
		C83.75,75.347,84.193,76.132,84.993,76.768z"/>
	<path fill-rule="evenodd" clip-rule="evenodd" fill="#54459C" d="M72.257,48.255c0.914,0.303,0.964,1.031,0.619,1.833
		c-0.254,0.594-0.647,1.126-0.961,1.695c-0.202,0.367-0.024,1.075-0.639,1.05c-0.61-0.026-0.739-0.679-0.878-1.174
		C70.119,50.66,71.36,48.291,72.257,48.255z"/>
	<path fill-rule="evenodd" clip-rule="evenodd" fill="#54459C" d="M76.086,60.946c-0.064,1.266-1.088,1.96-1.959,2.119
		c-0.988,0.181-0.963-1.093-1.021-1.784c-0.135-1.619,1.368-0.912,2.104-1.25C75.92,59.705,75.985,60.442,76.086,60.946z"/>
	<path fill-rule="evenodd" clip-rule="evenodd" fill="#54459C" d="M99.446,25.043c-0.238,0.692-0.73,0.839-1.277,0.814
		c-0.615-0.027-1.248-0.178-1.204-0.964c0.027-0.513,0.218-1.109,0.963-0.888C98.544,24.19,99.129,24.477,99.446,25.043z"/>
	<path fill-rule="evenodd" clip-rule="evenodd" fill="#54459C" d="M95.954,17.01c0,0-0.004,0.016-0.005,0.016
		c1.164-0.514,1.834-0.084,2.139,1.098c0.163,0.628,0.487,1.478-0.322,1.652c-0.835,0.18-0.573-0.808-0.708-1.292
		C96.874,17.827,96.639,17.265,95.954,17.01z"/>
	<path fill-rule="evenodd" clip-rule="evenodd" fill="#54459C" d="M45.552,49.812c0.319,0.191,0.639,0.383,0.958,0.575
		c-0.402,1.126-0.806,2.253-1.208,3.379c-0.253,0.001-0.507,0.001-0.762,0.001C44.877,52.449,45.215,51.13,45.552,49.812z"/>
	<path fill-rule="evenodd" clip-rule="evenodd" fill="#54459C" d="M42.973,39.9c0.927,1.464,0.844,2.935,0.037,4.413
		C42.999,42.842,42.986,41.372,42.973,39.9z"/>
	<path fill-rule="evenodd" clip-rule="evenodd" fill="#54459C" d="M44.294,44.885c0.443-0.734,1.06-0.792,1.529-0.152
		c0.544,0.742,0.846,1.612-0.12,2.343C45.445,46.21,45.952,44.851,44.294,44.885z"/>
	<path fill-rule="evenodd" clip-rule="evenodd" fill="#54459C" d="M44.541,53.767c0.255,0,0.509,0,0.762-0.001
		c0.103,0.718,0.205,1.437,0.308,2.154c-0.057,0.254-0.111,0.509-0.167,0.763c-0.119-0.153-0.238-0.306-0.356-0.46
		c-0.086-0.156-0.175-0.312-0.261-0.468C44.464,55.132,44.28,54.481,44.541,53.767z"/>
	<path fill-rule="evenodd" clip-rule="evenodd" fill="#54459C" d="M40.38,37.509c0.66-0.402,1.297-1.263,2.038-0.104
		C41.738,37.44,41.059,37.474,40.38,37.509z"/>
	<path fill-rule="evenodd" clip-rule="evenodd" fill="#54459C" d="M47.053,49.604c0.54-0.808,0.938-0.658,1.232,0.183
		C47.875,49.726,47.464,49.666,47.053,49.604z"/>
	<path fill-rule="evenodd" clip-rule="evenodd" fill="#54459C" d="M42.475,37.517c0.631,0.261,0.774,0.657,0.338,1.215
		C42.474,38.391,42.428,37.967,42.475,37.517z"/>
	<path fill-rule="evenodd" clip-rule="evenodd" fill="#54459C" d="M45.443,56.683c0.056-0.254,0.11-0.509,0.167-0.763
		c0.283,0.281,0.543,0.576,0.521,1.014c-0.214-0.008-0.428-0.017-0.641-0.024C45.437,56.841,45.421,56.766,45.443,56.683z"/>
	<path fill-rule="evenodd" clip-rule="evenodd" fill="#54459C" d="M44.826,55.755c0.086,0.156,0.175,0.312,0.261,0.468
		C45,56.067,44.912,55.912,44.826,55.755z"/>
	<path fill-rule="evenodd" clip-rule="evenodd" fill="#54459C" d="M43.054,44.699c0.162,0.106,0.325,0.213,0.487,0.319
		C43.379,44.912,43.216,44.805,43.054,44.699z"/>
</g>
</svg>
