<?xml version="1.0" encoding="utf-8"?>
<!-- Generator: Adobe Illustrator 16.0.0, SVG Export Plug-In . SVG Version: 6.00 Build 0)  -->
<!DOCTYPE svg PUBLIC "-//W3C//DTD SVG 1.1//EN" "http://www.w3.org/Graphics/SVG/1.1/DTD/svg11.dtd">
<svg version="1.1" id="Layer_1" xmlns="http://www.w3.org/2000/svg" xmlns:xlink="http://www.w3.org/1999/xlink" x="0px" y="0px"
	 width="128.511px" height="166.298px" viewBox="0.064 0.019 128.511 166.298" enable-background="new 0.064 0.019 128.511 166.298"
	 xml:space="preserve">
<g>
	<path fill="#948EC5" d="M104.646,11.021c1.598,0.317,2.608,1.551,3.723,2.532c9.907,8.715,16.613,19.382,19.065,32.442
		c2.746,14.614,0.611,28.434-7.238,41.244c-3.605,5.877-8.021,10.997-13.439,15.257c-0.325,0.254-0.549,0.637-0.816,0.958
		c-1.516,0.486-2.666,1.523-3.827,2.547c-0.604,0.28-1.237,0.518-1.814,0.848c-11.469,6.58-23.712,9.261-36.868,7.347
		c-18.13-2.639-31.945-11.909-41.479-27.443c-6.091-9.925-8.579-20.862-7.977-32.496c0.516-9.937,3.364-19.128,8.778-27.501
		c1.65,1.211,2.678,2.708,2.317,4.886c-0.052,0.317-0.26,0.921,0.134,0.963c1.4,0.147,0.795,0.922,0.515,1.51
		c-1.715,3.583-1.348,7.496-1.813,11.274c-0.041,0.331-0.179,0.792,0.225,0.98c0.514,0.242,0.733-0.285,1.022-0.552
		c1.079-0.99,1.539-2.328,1.917-3.676c0.382-1.367,1.122-2.36,2.366-3.076c1.685-0.971,3.457-1.884,4.893-3.159
		c0.974-0.865,1.879-1.212,3.068-1.171c0.629-0.032,1.256-0.064,1.887-0.098l0.053,0.105c-0.043,0.417,0,0.81,0.313,1.125
		c0.051,0.362,0.1,0.722,0.148,1.082c0.012,1.363,0.023,2.724,0.034,4.086c0.013,0.119,0.027,0.239,0.042,0.357
		c0.149,0.098,0.3,0.197,0.451,0.295c0.232-0.041,0.465-0.082,0.697-0.123c1.534-0.031,1.064,1.227,1.306,2.028
		c-0.048,0.844-0.095,1.689-0.141,2.534c-0.313,1.22-0.625,2.441-0.938,3.662c-0.242,0.661-0.07,1.264,0.264,1.841
		c0.08,0.145,0.162,0.289,0.242,0.434c0.109,0.143,0.219,0.284,0.33,0.426c-0.02,0.077-0.005,0.146,0.044,0.209
		c0.043,0.791,0.11,1.58,0.126,2.373c0.023,1.272,0.39,2.396,1.343,3.28c0.254,0.237,0.527,0.634,0.908,0.367
		c0.183-0.13,0.211-0.523,0.252-0.806c0.312-2.115-0.454-3.813-2.036-5.188c0.019-0.406-0.221-0.678-0.483-0.94
		c-0.096-0.664-0.19-1.33-0.287-1.994c0.374-1.042,0.748-2.086,1.12-3.128c0.169-0.243,0.335-0.483,0.503-0.726
		c0.38,0.058,0.76,0.113,1.141,0.169c1.095,1.373,2.368,2.63,2.968,4.333c0.178,0.507,0.465,0.642,0.958,0.588
		c3.292-0.363,5.027-3.415,3.656-6.47c-0.274-0.609-0.622-1.185-0.896-1.795c-0.349-0.779-1.327-1.586-0.366-2.435
		c1.022-0.905,2.162-2.091,3.661-1.626c2.821,0.875,5.49,0.097,8.191-0.401c2.306-0.423,3.608-2.347,5.312-3.685
		c1.644-1.289,1.57-2.988,1.47-4.689c-0.047-0.813-0.658-1.579-0.79-2.401c-0.172-1.08,1.436-1.025,1.548-2.132
		c-0.897-0.02-1.863-0.087-1.989-1.171c-0.141-1.201,1.021-1.133,1.715-1.529c1.318-0.754,2.143,0.278,3.2,0.713
		c1.489,0.614,2.895,2.306,2.811,3.869c-0.021,0.43-0.5,0.996,0.22,1.247c0.599,0.208,1.223,0.097,1.737-0.282
		c0.552-0.405,0.316-0.934,0.227-1.488c-0.148-0.93-1.768-1.579-0.66-2.68c0.718-0.713,1.684-1.184,2.563-1.726
		c0.653-0.405,1.401-0.333,2.135-0.32c0.726,0.013,1.495,0.128,2.119-0.351c2.023-1.546,4.263-2.948,4.35-5.919
		c0.637,0.236,0.852,0.756,1.021,1.365c0.125,0.448-0.117,1.363,0.655,1.196c0.75-0.162,0.449-0.948,0.298-1.53
		c-0.282-1.094-0.902-1.491-1.98-1.017c-0.179-0.886-0.648-1.409-1.624-1.373c-0.635,0.023-1.185-0.264-1.698-0.596
		c-0.526-0.343-0.611-0.773-0.025-1.133c2.125-1.302,4.329-2.219,6.898-1.392c1.459,0.469,2.845,0.827,4.287-0.343
		c0.952-0.775,2.502-0.123,3.163,0.317c0.838,0.561-0.585,1.271-1.032,1.892c-0.902,1.245-0.486,3.586,0.859,4.542
		c0.429,0.304,0.69,0.172,0.813-0.25c0.344-1.192,1.18-2.325,0.452-3.658c-0.579-1.06-0.153-1.432,0.947-1.378
		C103.05,12.448,104.285,12.593,104.646,11.021z M78.699,71.739c1.074,0.831,3.12,1.299,2.807,2.782
		c-0.552,2.604,1.596,2.508,2.715,3.435c0.506,0.417,1.107,0.251,1.682-0.134c2.259-1.508,2.52-1.445,4.08,0.933
		c0.477,0.725,0.998,1.237,2.213,1.127c-0.676-1.015-1.518-1.699-1.525-2.714c-0.018-2.254-1.446-3.501-3.143-4.548
		c-0.982-0.605-2.109-0.989-3.039-1.659c-2.001-1.447-3.889-1.459-5.783,0.128c-0.742-0.589-1.15-1.316-1.232-2.297
		c-0.094-1.122-0.933-1.475-1.937-1.411c-0.6,0.036-0.913,0.42-0.523,0.982C75.984,69.759,76.591,71.577,78.699,71.739z
		 M84.774,80.667c-1.051,0.739-1.131,1.575-1.413,2.283c-1.775,4.437-2.397,4.58-5.9,1.373c-0.847-0.776-1.449-1.54-0.524-2.626
		c0.593-0.692,0.23-1.036-0.404-1.389c-2.112-1.177-4.479-0.84-6.076,0.944c-0.651,0.728-1.355,1.192-2.147,0.356
		c-1.176-1.239-2.275-0.718-3.179,0.17c-1.351,1.328-3.45,1.554-4.545,3.275c-0.247,0.389-1.097,0.48-1.686,0.542
		c-0.903,0.097-1.819,0.043-2.73,0.066c-2.018,0.055-3.597,1.162-3.389,2.517c0.303,1.964,0.337,4.001,1.325,5.818
		c0.356,0.655,0.585,1.369,0.412,2.109c-0.328,1.398,0.603,1.98,1.586,1.773c2.211-0.463,4.418,0.174,6.671-0.453
		c2.89-0.803,5.966-0.917,8.461,1.345c0.757,0.687,1.332,1.394,2.487,0.882c0.557-0.246,0.915,0.014,0.964,0.671
		c0.126,1.705,1.424,1.68,2.695,2.077c3.113,0.971,5.585-2.188,8.64-1.134c0.101,0.036,0.308-0.174,0.441-0.294
		c1.208-1.118,2.431-2.224,3.17-3.738c0.514-1.049,0.681-2.17-0.011-3.137c-1.168-1.635-1.26-3.819-2.819-5.252
		c-0.441-0.407-0.606-1.111-0.501-1.713C86.733,84.74,84.468,83.176,84.774,80.667z M50.17,61.824
		c0.079,2.828,3.022,5.532,5.886,5.393c0.228-0.011,0.601-0.093,0.653-0.232c0.809-2.203,4.027-3.274,2.974-6.357
		c-0.188-0.555,0.1-1.119,0.545-1.466c0.817-0.639,0.698-1.216,0.147-1.982c-0.68-0.947-1.242-0.367-1.839,0.009
		c-2.422,1.526-4.803,3.135-7.762,3.484C50.156,60.744,50.139,61.314,50.17,61.824z M37.558,54.167
		c1.554,2.258,2.662,4.463,3.329,6.862c0.512,1.847,1.458,3.456,2.66,4.921c0.508,0.62,1.104,1.728,1.954,0.814
		c0.649-0.697,1.3-1.923,0.036-2.852c-0.635-0.467-1.081-1.128-1.143-1.797c-0.164-1.754-1.402-2.733-2.42-3.913
		c-0.829-0.961-1.558-2.007-2.319-3.029C39.224,54.595,38.833,53.975,37.558,54.167z M84.662,30.574
		c0.599-0.083,1.195-0.209,1.796-0.24c1.928-0.097,3.641-1.954,3.563-3.892c-0.019-0.476-0.221-0.827-0.662-0.991
		c-0.34-0.126-0.653,0.034-0.696,0.374c-0.32,2.536-2.59,2.586-4.269,3.399c-0.365,0.177-1.161-0.009-0.917,0.769
		C83.624,30.46,84.131,30.68,84.662,30.574z M61.096,69.766c0.558-1.181,0.921-2.639,1.879-0.632
		c0.073,0.155,0.428,0.303,0.588,0.253c0.163-0.054,0.374-0.38,0.341-0.542c-0.235-1.201-0.584-2.364-1.628-3.15
		c-0.318-0.24-0.674-0.303-0.983,0.015c-0.857,0.879-0.963,1.913-0.583,3.034C60.788,68.971,60.879,69.192,61.096,69.766z
		 M53.438,71.731c-0.616-0.758-1.159-1.724-2.184-1.762c-1.542-0.054-2.795-0.744-4.074-1.438c-0.367-0.197-0.837-0.583-1.123-0.116
		c-0.354,0.584,0.291,0.825,0.673,1.062C48.771,70.742,51.078,71.251,53.438,71.731z M66.914,44.685
		c-0.831,0.032-1.98,2.226-1.721,3.152c0.13,0.458,0.25,1.062,0.814,1.087c0.568,0.023,0.405-0.633,0.592-0.972
		c0.29-0.527,0.655-1.021,0.89-1.57C67.806,45.641,67.76,44.966,66.914,44.685z M70.459,56.437
		c-0.094-0.467-0.153-1.149-0.812-0.847c-0.68,0.313-2.073-0.341-1.948,1.157c0.054,0.64,0.031,1.82,0.945,1.652
		C69.453,58.251,70.399,57.608,70.459,56.437z M92.09,23.191c-0.292-0.524-0.834-0.791-1.405-0.96
		c-0.69-0.205-0.868,0.347-0.894,0.822c-0.04,0.728,0.547,0.868,1.115,0.893C91.414,23.968,91.87,23.833,92.09,23.191z"/>
	<path fill="#54459C" d="M88.857,15.753c-0.09,2.971-2.327,4.373-4.35,5.919c-0.624,0.479-1.394,0.363-2.119,0.35
		c-0.732-0.013-1.48-0.084-2.135,0.321c-0.877,0.542-1.843,1.014-2.562,1.726c-1.107,1.1,0.513,1.75,0.659,2.68
		c0.09,0.555,0.325,1.084-0.226,1.488c-0.516,0.377-1.141,0.489-1.738,0.282c-0.72-0.251-0.244-0.817-0.221-1.247
		c0.084-1.563-1.319-3.255-2.811-3.869c-1.056-0.435-1.883-1.467-3.2-0.713c-0.691,0.397-1.855,0.329-1.713,1.53
		c0.127,1.083,1.093,1.15,1.99,1.17c-0.112,1.105-1.718,1.052-1.548,2.132c0.132,0.822,0.743,1.588,0.791,2.401
		c0.099,1.702,0.173,3.401-1.471,4.689c-1.706,1.337-3.006,3.26-5.313,3.684c-2.701,0.497-5.37,1.276-8.191,0.401
		c-1.5-0.465-2.639,0.721-3.662,1.625c-0.96,0.85,0.018,1.656,0.367,2.435c0.273,0.61,0.621,1.187,0.895,1.795
		c1.371,3.055-0.365,6.108-3.656,6.47c-0.493,0.055-0.78-0.082-0.958-0.588c-0.6-1.703-1.874-2.959-2.969-4.333
		c-0.273-0.779-0.641-0.917-1.141-0.169c-0.167,0.243-0.334,0.483-0.502,0.725c-0.296-0.178-0.592-0.355-0.887-0.532
		c0.047-0.845,0.093-1.689,0.14-2.534c0.895-0.676,0.615-1.482,0.111-2.169c-0.436-0.593-1.006-0.539-1.416,0.141
		c-0.232,0.041-0.465,0.083-0.697,0.123c-0.15-0.098-0.301-0.197-0.451-0.295c-0.014-0.119-0.028-0.239-0.041-0.357
		c0.747-1.37,0.824-2.731-0.034-4.086c-0.048-0.36-0.097-0.719-0.148-1.082c0.405-0.517,0.271-0.883-0.313-1.125l-0.053-0.104
		c-0.686-1.072-1.276-0.275-1.887,0.097c-1.189-0.041-2.095,0.306-3.068,1.171c-1.436,1.275-3.208,2.188-4.893,3.159
		c-1.245,0.716-1.984,1.71-2.366,3.076c-0.378,1.349-0.838,2.686-1.917,3.676c-0.29,0.267-0.51,0.793-1.022,0.552
		c-0.405-0.188-0.266-0.649-0.225-0.98c0.466-3.778,0.098-7.691,1.813-11.274c0.282-0.588,0.885-1.363-0.515-1.51
		c-0.395-0.042-0.185-0.646-0.134-0.963c0.361-2.179-0.667-3.675-2.317-4.885c-0.004-0.116-0.004-0.231-0.001-0.346
		c0.871-1.214,2.113-2.219,2.173-3.888c0.913-0.208,1.35-0.966,1.904-1.609c7.506-8.739,16.677-14.945,27.722-18.382
		c6.462-2.009,13.048-2.749,19.78-2.445c0.253,0.635-0.886,0.607-0.611,1.324c2.334,0.006,4.445,1.277,6.81,1.153
		c0.252-0.014,0.607,0.196,0.764,0.412c0.812,1.118,1.993,1.174,3.136,0.983c1.628-0.274,3.105,0.199,4.656,0.499
		c3.073,0.594,5.757,2.532,8.982,2.552c1.266,0.49,2.66,0.517,3.855,1.34c0.95,0.656,1.807,1.33,2.404,2.317
		c0.114,0.125,0.229,0.25,0.344,0.377l-0.026-0.021c-0.363,1.573-1.599,1.428-2.758,1.375c-1.1-0.053-1.524,0.319-0.945,1.378
		c0.728,1.333-0.107,2.466-0.451,3.658c-0.123,0.421-0.385,0.554-0.813,0.251c-1.344-0.956-1.76-3.3-0.86-4.542
		c0.448-0.62,1.871-1.332,1.033-1.892c-0.661-0.441-2.211-1.093-3.163-0.317c-1.444,1.169-2.83,0.811-4.289,0.342
		c-2.567-0.826-4.771,0.09-6.896,1.392c-0.586,0.36-0.501,0.79,0.025,1.133c0.514,0.331,1.063,0.619,1.698,0.596
		c0.975-0.035,1.445,0.487,1.622,1.373C88.854,15.767,88.857,15.753,88.857,15.753z"/>
	<path fill="#5D6AB2" d="M89.719,159.734c0.59,1.015,0.568,2.15,0.662,3.265c-12.053,0.027-24.103,0.055-36.155,0.074
		c-0.727,0-1.454-0.076-2.18-0.118c-0.047-1.108,0.15-2.176,0.564-3.202C64.979,159.747,77.35,159.739,89.719,159.734z"/>
	<path fill="#54459C" d="M52.045,162.955c0.726,0.042,1.453,0.118,2.18,0.118c12.053-0.02,24.103-0.047,36.156-0.074
		c0.449,0.165,0.966,0.24,1.338,0.51c0.713,0.515,1.346,1.329,1.15,2.142c-0.211,0.885-1.244,0.479-1.906,0.479
		c-12.905,0.023-25.813,0.036-38.718-0.019c-0.883-0.006-2.423,0.76-2.608-0.633C49.461,164.152,50.598,163.196,52.045,162.955z"/>
	<path fill="#5D6AB2" d="M73.933,148.525c-1.822,0.181-3.644,0.212-5.464-0.02c-0.02-6.634-0.043-13.269-0.063-19.902
		c1.847-0.253,3.7-0.23,5.547-0.021C73.946,135.229,73.939,141.876,73.933,148.525z"/>
	<path fill="#948EC5" d="M89.719,159.734c-12.369,0.006-24.739,0.013-37.109,0.02c0.135-0.803,0.281-1.602,0.894-2.208
		c11.813-0.005,23.627-0.009,35.44-0.013C89.48,158.168,89.711,158.913,89.719,159.734z"/>
	<path fill="#5D6AB2" d="M15.285,13.113c-0.658,1.265-1.537,2.372-2.47,3.438c-1.962-1.542-3.589-3.433-5.339-5.191
		c-1.006-1.015-1.06-2.191-0.027-3.229c1.062-1.068,2.197-0.865,3.201,0.126C12.243,9.829,13.965,11.279,15.285,13.113z"/>
	<path fill="#5D6AB2" d="M110.259,108.098c-0.968,1.201-2.356,1.845-3.585,2.702c-1.521-1.602-3.04-3.201-4.561-4.802
		c1.161-1.023,2.312-2.06,3.827-2.545C107.379,105,108.819,106.55,110.259,108.098z"/>
	<path fill="#5D6AB2" d="M17.962,21.837c0.637-1.341,1.505-2.516,2.568-3.55c1.464,1.41,2.929,2.822,4.394,4.233
		c-0.06,1.669-1.301,2.676-2.173,3.889C21.154,24.885,19.559,23.362,17.962,21.837z"/>
	<path fill="#5D6AB2" d="M111.966,115.841c1.127-0.961,2.244-1.936,3.598-2.581c0.817,0.811,1.65,1.603,2.445,2.435
		c1.246,1.302,1.322,2.444,0.212,3.461c-1.21,1.111-2.334,0.691-3.348-0.319C113.885,117.855,112.933,116.841,111.966,115.841z"/>
	<path fill="#E28DB9" d="M87.971,155.409c-3.007-4.353-7.166-6.582-12.459-6.69c-0.527-0.071-1.057-0.143-1.584-0.214l0.006,0.021
		c-1.822,0.18-3.645,0.211-5.465-0.021l0.026-0.025c-0.525,0.082-1.052,0.161-1.587,0.242c-0.536,0.033-1.082,0.059-1.629,0.097
		c-5.136,0.383-10.614,4.443-11.775,8.728c11.813-0.004,23.627-0.007,35.44-0.011C88.88,156.707,88.413,156.049,87.971,155.409z"/>
	<path fill="#C2DDDD" d="M104.675,11.041c-0.114-0.127-0.229-0.252-0.344-0.377C104.445,10.789,104.561,10.915,104.675,11.041z"/>
	<path fill="#54459C" d="M119.045,105.797c-1.496-1.709-3.479-1.83-5.324-0.332c-1.127,0.912-2.098,2.031-3.462,2.633
		c-0.968,1.202-2.356,1.845-3.585,2.702c-7.413,5.048-15.601,8.23-24.397,9.739c-12.605,2.165-24.948,1.011-36.639-4.287
		c-20.375-9.233-32.943-24.999-37.389-46.874c-3.29-16.192-0.095-31.45,8.342-45.623c0.401-0.673,0.913-1.28,1.372-1.918
		c0.637-1.341,1.505-2.516,2.568-3.55c0.68-1.53,2.026-2.553,2.962-3.887c1.074-1.531,0.786-3.689-0.637-4.909
		c-1.526-1.308-3.145-1.164-4.669,0.373c-1.023,1.032-1.712,2.364-2.901,3.249c-0.657,1.265-1.536,2.372-2.469,3.438
		c-0.332,0.574-0.641,1.165-0.999,1.722c-4.339,6.782-7.611,14.022-9.459,21.881c-0.206,0.617-0.501,1.213-0.409,1.896
		c-0.047,0.25-0.095,0.5-0.143,0.75c-0.269,0.333-0.316,0.711-0.225,1.115c-0.073,0.255-0.145,0.511-0.219,0.766
		c-0.089,0.101-0.104,0.212-0.046,0.333c-0.021,0.189-0.042,0.378-0.062,0.567c-0.272,0.901-0.585,1.795-0.43,2.763
		c-0.021,0.326-0.042,0.65-0.062,0.976c-0.306,0.6-0.345,1.235-0.251,1.889c-0.02,0.25-0.039,0.498-0.059,0.748
		c-0.574,4.801-0.552,9.589,0.331,14.357c0.013,0.204,0.025,0.408,0.037,0.611C0.671,67.9,0.96,68.805,1.25,69.713
		c0.021,0.184,0.042,0.37,0.063,0.557c0.109,1.672,0.549,3.273,1.044,4.863c3.73,14.908,11.711,27.153,23.421,36.982
		c10.268,8.619,22.076,13.88,35.397,15.649c2.406,0.318,4.82,0.56,7.23,0.836c1.849-0.254,3.7-0.23,5.549-0.021
		c0.53-0.097,1.061-0.25,1.596-0.276c6.467-0.359,12.728-1.724,18.86-3.766c6.261-2.083,11.974-5.254,17.556-8.697
		c1.127-0.961,2.244-1.937,3.598-2.581c0.719-1.089,1.882-1.691,2.81-2.552C120.176,109.031,120.427,107.377,119.045,105.797z"/>
	<path fill="#54459C" d="M84.774,80.667c-0.307,2.509,1.958,4.073,1.526,6.466c-0.106,0.601,0.059,1.305,0.501,1.713
		c1.559,1.434,1.651,3.617,2.819,5.253c0.691,0.967,0.522,2.088,0.01,3.137c-0.74,1.516-1.962,2.62-3.171,3.737
		c-0.132,0.122-0.338,0.33-0.439,0.294c-3.057-1.056-5.527,2.104-8.64,1.134c-1.271-0.397-2.57-0.37-2.694-2.076
		c-0.049-0.657-0.409-0.916-0.965-0.672c-1.153,0.513-1.73-0.195-2.488-0.881c-2.494-2.261-5.572-2.147-8.461-1.345
		c-2.253,0.628-4.459-0.011-6.671,0.453c-0.983,0.207-1.914-0.375-1.586-1.773c0.173-0.741-0.058-1.454-0.413-2.11
		c-0.987-1.815-1.021-3.852-1.325-5.816c-0.208-1.354,1.372-2.461,3.39-2.518c0.91-0.022,1.828,0.03,2.73-0.065
		c0.589-0.063,1.439-0.154,1.686-0.543c1.095-1.722,3.194-1.948,4.545-3.275c0.904-0.888,2-1.409,3.179-0.171
		c0.791,0.837,1.495,0.372,2.146-0.356c1.598-1.785,3.964-2.121,6.078-0.945c0.633,0.353,0.992,0.697,0.403,1.389
		c-0.926,1.087-0.322,1.852,0.524,2.625c3.503,3.207,4.125,3.065,5.901-1.372C83.645,82.242,83.725,81.406,84.774,80.667z"/>
	<path fill="#54459C" d="M50.17,61.824c-0.031-0.51-0.015-1.081,0.604-1.153c2.958-0.349,5.339-1.957,7.762-3.484
		c0.598-0.375,1.159-0.956,1.839-0.009c0.551,0.765,0.67,1.343-0.147,1.982c-0.444,0.347-0.733,0.911-0.545,1.466
		c1.053,3.083-2.166,4.155-2.974,6.357c-0.052,0.14-0.425,0.222-0.653,0.232C53.192,67.356,50.249,64.652,50.17,61.824z"/>
	<path fill="#54459C" d="M78.707,71.088c1.894-1.587,3.782-1.574,5.783-0.128c0.93,0.67,2.059,1.054,3.038,1.659
		c1.697,1.047,3.126,2.295,3.144,4.548c0.008,1.015,0.848,1.699,1.523,2.714c-1.213,0.11-1.734-0.402-2.211-1.127
		c-1.563-2.377-1.821-2.441-4.08-0.933c-0.575,0.384-1.176,0.552-1.681,0.134c-1.12-0.926-3.267-0.831-2.718-3.435
		c0.313-1.482-1.732-1.95-2.805-2.782C78.703,71.522,78.705,71.304,78.707,71.088z"/>
	<path fill="#54459C" d="M37.558,54.167c1.276-0.192,1.667,0.428,2.097,1.008c0.761,1.021,1.49,2.066,2.319,3.029
		c1.019,1.179,2.258,2.159,2.42,3.913c0.062,0.67,0.508,1.332,1.143,1.797c1.264,0.929,0.613,2.155-0.036,2.852
		c-0.85,0.913-1.447-0.194-1.954-0.815c-1.202-1.466-2.147-3.074-2.66-4.921C40.22,58.63,39.112,56.425,37.558,54.167z"/>
	<path fill="#54459C" d="M84.662,30.574c-0.531,0.106-1.038-0.114-1.185-0.582c-0.244-0.778,0.554-0.592,0.917-0.769
		c1.679-0.813,3.948-0.863,4.269-3.399c0.043-0.339,0.356-0.5,0.696-0.374c0.441,0.165,0.644,0.517,0.662,0.991
		c0.077,1.938-1.636,3.794-3.563,3.892C85.857,30.365,85.261,30.491,84.662,30.574z"/>
	<path fill="#54459C" d="M42.721,52.722c1.583,1.374,2.349,3.072,2.037,5.188c-0.042,0.282-0.069,0.676-0.252,0.805
		c-0.381,0.268-0.654-0.129-0.908-0.366c-0.953-0.883-1.32-2.007-1.343-3.28c-0.016-0.792-0.083-1.581-0.126-2.371
		C42.326,52.706,42.523,52.714,42.721,52.722z"/>
	<path fill="#54459C" d="M61.096,69.766c-0.217-0.574-0.309-0.795-0.384-1.022c-0.38-1.121-0.274-2.155,0.583-3.034
		c0.31-0.318,0.666-0.254,0.983-0.015c1.043,0.787,1.393,1.949,1.628,3.15c0.032,0.163-0.179,0.489-0.341,0.542
		c-0.161,0.05-0.515-0.098-0.588-0.253C62.018,67.128,61.654,68.585,61.096,69.766z"/>
	<path fill="#54459C" d="M53.438,71.731c-2.36-0.481-4.667-0.989-6.708-2.255c-0.381-0.237-1.026-0.479-0.673-1.062
		c0.286-0.467,0.756-0.081,1.123,0.116c1.28,0.695,2.532,1.385,4.074,1.438C52.279,70.007,52.822,70.974,53.438,71.731z"/>
	<path fill="#54459C" d="M78.707,71.088c-0.002,0.216-0.004,0.435-0.008,0.651c-2.108-0.162-2.715-1.98-3.685-3.378
		c-0.39-0.561-0.076-0.945,0.525-0.982c1.004-0.063,1.841,0.29,1.935,1.411C77.557,69.772,77.967,70.499,78.707,71.088z"/>
	<path fill="#54459C" d="M66.914,44.685c0.847,0.281,0.893,0.955,0.574,1.697c-0.235,0.55-0.6,1.042-0.89,1.57
		c-0.187,0.339-0.022,0.995-0.592,0.972c-0.564-0.024-0.684-0.629-0.812-1.087C64.934,46.912,66.083,44.718,66.914,44.685z"/>
	<path fill="#54459C" d="M70.459,56.437c-0.06,1.172-1.007,1.815-1.813,1.962c-0.915,0.167-0.892-1.012-0.946-1.652
		c-0.125-1.499,1.268-0.844,1.949-1.157C70.306,55.288,70.365,55.97,70.459,56.437z"/>
	<path fill="#54459C" d="M92.09,23.191c-0.22,0.641-0.676,0.777-1.182,0.754c-0.569-0.025-1.156-0.165-1.115-0.893
		c0.025-0.475,0.203-1.027,0.892-0.823C91.255,22.401,91.797,22.667,92.09,23.191z"/>
	<path fill="#54459C" d="M88.857,15.753c0,0-0.004,0.014-0.005,0.014c1.078-0.476,1.698-0.078,1.98,1.017
		c0.151,0.581,0.451,1.369-0.299,1.529c-0.771,0.167-0.529-0.748-0.654-1.196C89.709,16.509,89.491,15.989,88.857,15.753z"/>
	<path fill="#54459C" d="M42.186,46.127c0.295,0.177,0.591,0.354,0.887,0.532c-0.373,1.043-0.747,2.086-1.119,3.129
		c-0.234,0.001-0.47,0.001-0.706,0.001C41.561,48.568,41.873,47.347,42.186,46.127z"/>
	<path fill="#54459C" d="M39.797,36.948c0.858,1.355,0.781,2.718,0.035,4.086C39.821,39.672,39.809,38.312,39.797,36.948z"/>
	<path fill="#54459C" d="M41.021,41.564c0.41-0.68,0.981-0.733,1.416-0.141c0.504,0.687,0.784,1.493-0.111,2.169
		C42.086,42.792,42.556,41.533,41.021,41.564z"/>
	<path fill="#54459C" d="M41.249,49.789c0.236,0,0.471,0,0.706-0.001c0.095,0.665,0.189,1.331,0.285,1.995
		c-0.052,0.235-0.103,0.472-0.154,0.707c-0.11-0.142-0.22-0.283-0.33-0.426c-0.08-0.145-0.162-0.289-0.242-0.434
		C41.178,51.053,41.007,50.45,41.249,49.789z"/>
	<path fill="#54459C" d="M37.396,34.734c0.611-0.373,1.202-1.169,1.887-0.097C38.653,34.67,38.025,34.702,37.396,34.734z"/>
	<path fill="#54459C" d="M43.576,45.934c0.5-0.748,0.869-0.609,1.141,0.169C44.336,46.047,43.956,45.992,43.576,45.934z"/>
	<path fill="#54459C" d="M39.336,34.742c0.584,0.242,0.716,0.608,0.313,1.125C39.335,35.551,39.293,35.158,39.336,34.742z"/>
	<path fill="#54459C" d="M42.084,52.489c0.052-0.235,0.102-0.472,0.154-0.707c0.262,0.26,0.503,0.534,0.483,0.939
		c-0.198-0.007-0.396-0.016-0.594-0.022C42.079,52.635,42.064,52.566,42.084,52.489z"/>
	<path fill="#54459C" d="M41.513,51.63c0.08,0.145,0.162,0.289,0.242,0.434C41.674,51.919,41.593,51.775,41.513,51.63z"/>
	<path fill="#54459C" d="M39.873,41.392c0.149,0.098,0.301,0.197,0.451,0.295C40.173,41.589,40.022,41.49,39.873,41.392z"/>
</g>
</svg>
