<?xml version="1.0" encoding="utf-8"?>
<!-- Generator: Adobe Illustrator 16.0.0, SVG Export Plug-In . SVG Version: 6.00 Build 0)  -->
<!DOCTYPE svg PUBLIC "-//W3C//DTD SVG 1.1//EN" "http://www.w3.org/Graphics/SVG/1.1/DTD/svg11.dtd">
<svg version="1.1" id="Layer_1" xmlns="http://www.w3.org/2000/svg" xmlns:xlink="http://www.w3.org/1999/xlink" x="0px" y="0px"
	 width="120.16px" height="161.842px" viewBox="0 0 120.16 161.842" enable-background="new 0 0 120.16 161.842"
	 xml:space="preserve">
<g>
	<path fill="#948EC5" d="M11.869,161.842V38.923c0-5.444,0.476-10.069,1.425-13.869c0.95-3.8,2.565-6.901,4.845-9.31
		c2.28-2.404,5.319-4.146,9.119-5.225c3.8-1.074,8.55-1.614,14.249-1.614h63.265c2.784,0,5.13,0.508,7.029,1.52
		c1.9,1.016,3.482,2.346,4.75,3.99c1.265,1.647,2.185,3.484,2.755,5.509c0.569,2.027,0.854,3.99,0.854,5.89
		c0,1.9-0.285,3.832-0.854,5.795c-0.57,1.965-1.458,3.737-2.66,5.319c-1.205,1.585-2.787,2.85-4.75,3.8
		c-1.965,0.95-4.34,1.425-7.124,1.425H56.516c-2.155,0-3.609,0.351-4.369,1.045c-0.761,0.697-1.141,2.185-1.141,4.465V71.6h48.826
		c2.784,0,5.13,0.508,7.029,1.52c1.899,1.016,3.482,2.346,4.75,3.99c1.265,1.647,2.185,3.485,2.755,5.51
		c0.569,2.027,0.854,3.989,0.854,5.89c0,1.899-0.285,3.832-0.854,5.794c-0.57,1.965-1.458,3.737-2.66,5.319
		c-1.205,1.586-2.787,2.85-4.75,3.8c-1.965,0.95-4.34,1.425-7.124,1.425H51.006v56.995H11.869z"/>
	<path fill="#F4C6DD" d="M0,152.937V30.018c0-5.444,0.476-10.069,1.425-13.869c0.95-3.8,2.565-6.901,4.845-9.31
		c2.28-2.404,5.319-4.146,9.119-5.225C19.188,0.54,23.938,0,29.638,0h63.265c2.784,0,5.13,0.508,7.029,1.52
		c1.9,1.016,3.482,2.346,4.75,3.99c1.265,1.647,2.185,3.484,2.755,5.509c0.569,2.027,0.854,3.99,0.854,5.89
		c0,1.9-0.285,3.832-0.854,5.795c-0.57,1.965-1.458,3.737-2.66,5.319c-1.205,1.585-2.787,2.85-4.75,3.8
		c-1.965,0.95-4.34,1.425-7.124,1.425H44.646c-2.155,0-3.609,0.351-4.369,1.045c-0.761,0.697-1.141,2.185-1.141,4.465v23.938h48.826
		c2.784,0,5.13,0.508,7.029,1.52c1.899,1.016,3.482,2.346,4.75,3.99c1.265,1.647,2.185,3.485,2.755,5.51
		c0.569,2.027,0.854,3.989,0.854,5.89c0,1.899-0.285,3.832-0.854,5.794c-0.57,1.965-1.458,3.737-2.66,5.319
		c-1.205,1.586-2.787,2.85-4.75,3.8c-1.965,0.95-4.34,1.425-7.124,1.425H39.137v56.995H0z"/>
	<path fill="#FFFFFF" d="M92.72,17.371H56.026c-3.279,0-5.937-2.657-5.937-5.937s2.657-5.937,5.937-5.937H92.72
		c3.279,0,5.937,2.657,5.937,5.937S95.999,17.371,92.72,17.371z"/>
	<circle fill="#FFFFFF" cx="39.125" cy="12.096" r="6.679"/>
</g>
</svg>
