<?xml version="1.0" encoding="utf-8"?>
<!-- Generator: Adobe Illustrator 16.0.0, SVG Export Plug-In . SVG Version: 6.00 Build 0)  -->
<!DOCTYPE svg PUBLIC "-//W3C//DTD SVG 1.1//EN" "http://www.w3.org/Graphics/SVG/1.1/DTD/svg11.dtd">
<svg version="1.1" id="Layer_1" xmlns="http://www.w3.org/2000/svg" xmlns:xlink="http://www.w3.org/1999/xlink" x="0px" y="0px"
	 width="229.008px" height="230.313px" viewBox="0 0 229.008 230.313" enable-background="new 0 0 229.008 230.313"
	 xml:space="preserve">
<g>
	<g>
		<polygon fill="none" stroke="#5D6AB2" stroke-width="2.7029" stroke-miterlimit="10" points="31.527,146.425 114.504,2.703 
			197.481,146.425 		"/>
		<circle fill="#2D2C7A" cx="114.768" cy="7.444" r="2.54"/>
		<path fill="#958E8C" d="M114.769,4.902c-0.881,0-1.656,0.45-2.111,1.131c0.432-0.343,0.973-0.556,1.566-0.556
			c1.403,0,2.54,1.137,2.54,2.539c0,0.523-0.158,1.007-0.429,1.411c0.588-0.467,0.973-1.178,0.973-1.984
			C117.308,6.041,116.171,4.902,114.769,4.902z"/>
		<rect x="0" y="70.512" fill="#5D6AB2" width="229.008" height="159.801"/>
		<polygon fill="#FBD8E7" points="226.016,227.286 226.016,73.542 57.406,73.542 224.814,227.286 		"/>
		<polygon fill="#948EC5" points="57.406,73.542 2.991,73.542 2.991,227.286 224.814,227.286 		"/>
		<g>
			<g>
				<defs>
					<rect id="SVGID_1_" x="2.991" y="73.542" width="223.025" height="153.744"/>
				</defs>
				<clipPath id="SVGID_2_">
					<use xlink:href="#SVGID_1_"  overflow="visible"/>
				</clipPath>
				<g clip-path="url(#SVGID_2_)">
					<line fill="none" x1="1.012" y1="71.608" x2="19.156" y2="89.569"/>
					<line fill="none" x1="228.28" y1="71.302" x2="210.276" y2="89.147"/>
					<line fill="none" x1="0.444" y1="229.455" x2="18.994" y2="214.533"/>
					<line fill="none" x1="228.28" y1="229.882" x2="209.944" y2="214.469"/>
				</g>
			</g>
		</g>
		<polygon fill="#FFFFFF" points="210.913,88.441 73.629,88.441 210.913,214.52 		"/>
		<polygon fill="#FBD8E7" points="73.629,88.441 18.097,88.441 18.097,215.603 210.913,215.603 210.913,214.52 		"/>
	</g>
	<path fill="#FEF3F8" d="M225.942,213.921c0,2.115-1.713,3.829-3.829,3.829l0,0c-2.115,0-3.829-1.714-3.829-3.829V85.982
		c0-2.116,1.714-3.829,3.829-3.829l0,0c2.116,0,3.829,1.713,3.829,3.829V213.921z"/>
</g>
</svg>
