<?xml version="1.0" encoding="utf-8"?>
<!-- Generator: Adobe Illustrator 16.0.0, SVG Export Plug-In . SVG Version: 6.00 Build 0)  -->
<!DOCTYPE svg PUBLIC "-//W3C//DTD SVG 1.1//EN" "http://www.w3.org/Graphics/SVG/1.1/DTD/svg11.dtd">
<svg version="1.1" id="Layer_1" xmlns="http://www.w3.org/2000/svg" xmlns:xlink="http://www.w3.org/1999/xlink" x="0px" y="0px"
	 width="229.008px" height="230.313px" viewBox="0.794 0 229.008 230.313" enable-background="new 0.794 0 229.008 230.313"
	 xml:space="preserve">
<g>
	<g>
		<g>
			<polygon fill="none" stroke="#5D6AB2" stroke-width="2.7029" stroke-miterlimit="10" points="32.321,146.425 115.298,2.703 
				198.274,146.425 			"/>
			<circle fill="#2D2C7A" cx="115.563" cy="7.444" r="2.54"/>
			<path fill="#958E8C" d="M115.563,4.902c-0.88,0-1.656,0.45-2.11,1.132c0.432-0.344,0.973-0.557,1.565-0.557
				c1.403,0,2.54,1.137,2.54,2.539c0,0.523-0.158,1.007-0.429,1.411c0.588-0.467,0.974-1.178,0.974-1.984
				C118.103,6.041,116.965,4.902,115.563,4.902z"/>
			<rect x="0.794" y="70.512" fill="#5D6AB2" width="229.008" height="159.801"/>
			<polygon fill="#FBD8E7" points="226.81,227.286 226.81,73.542 58.2,73.542 225.608,227.286 			"/>
			<polygon fill="#948EC5" points="58.2,73.542 3.785,73.542 3.785,227.286 225.608,227.286 			"/>
			<g>
				<g>
					<g>
						<defs>
							<rect id="SVGID_1_" x="3.785" y="73.542" width="223.024" height="153.744"/>
						</defs>
						<clipPath id="SVGID_2_">
							<use xlink:href="#SVGID_1_"  overflow="visible"/>
						</clipPath>
						<g clip-path="url(#SVGID_2_)">
							<line fill="none" x1="1.806" y1="71.608" x2="19.95" y2="89.569"/>
							<line fill="none" x1="229.073" y1="71.302" x2="211.069" y2="89.147"/>
							<line fill="none" x1="1.238" y1="229.455" x2="19.788" y2="214.533"/>
							<line fill="none" x1="229.073" y1="229.882" x2="210.737" y2="214.469"/>
						</g>
					</g>
				</g>
			</g>
			<polygon fill="#FFFFFF" points="211.707,88.441 74.423,88.441 211.707,214.52 			"/>
			<polygon fill="#FBD8E7" points="74.423,88.441 18.891,88.441 18.891,215.603 211.707,215.603 211.707,214.52 			"/>
		</g>
		<path fill="#FEF3F8" d="M226.735,213.921c0,2.115-1.713,3.829-3.828,3.829l0,0c-2.115,0-3.829-1.714-3.829-3.829V85.982
			c0-2.115,1.714-3.829,3.829-3.829l0,0c2.115,0,3.828,1.713,3.828,3.829V213.921z"/>
	</g>
	<g>
		<g>
			<path fill="#F0ADCD" d="M103.604,114.074c-0.285-0.484-0.658-0.91-1.034-1.359c-0.678-0.809-1.356-1.617-2.037-2.422
				c-0.163-0.191-0.328-0.385-0.492-0.58c-0.41-0.486-1.078-0.486-1.49,0c0,0-3.625,4.297-3.631,4.303
				c-0.405,0.48-0.521,1.254-0.521,1.904v48.16c0,0.752,0.516,1.365,1.151,1.365h7.419c0.638,0,1.153-0.613,1.153-1.365v-48.16
				C104.121,115.26,103.924,114.612,103.604,114.074z"/>
			<path fill="#F0ADCD" d="M104.339,169.582c0,0.225-0.261,0.404-0.58,0.404H94.76c-0.32,0-0.58-0.18-0.58-0.404l1.741-2.918
				c0-0.225,0.26-0.404,0.58-0.404h5.516c0.32,0,0.58,0.18,0.58,0.404L104.339,169.582z"/>
		</g>
		<path fill="#F0ADCD" d="M123.836,103.031c-0.577-0.82-1.327-1.551-2.086-2.313c-1.364-1.377-2.733-2.75-4.104-4.119
			c-0.328-0.33-0.661-0.656-0.99-0.986c-0.829-0.83-2.174-0.83-3.003,0c0,0-7.306,7.307-7.318,7.318
			c-0.814,0.816-1.051,2.133-1.051,3.242v54.281c0,1.281,1.04,2.322,2.322,2.322h14.949c1.282,0,2.321-1.041,2.321-2.322v-54.281
			C124.876,105.047,124.479,103.948,123.836,103.031z"/>
		<g>
			<path fill="#938DC4" d="M104.438,182.002c0,7.072-5.152,16.809-5.152,16.809s-5.152-9.736-5.152-16.809
				c0-7.074,2.306-8.807,5.152-8.807C102.131,173.196,104.438,174.928,104.438,182.002z"/>
			<path fill="#938DC4" d="M104.385,179.53c0.069,5.115-4.986,12.189-4.986,12.189s-5.248-7.008-5.317-12.121
				c-0.069-5.117,2.221-6.383,5.066-6.4C101.992,173.178,104.315,174.414,104.385,179.53z"/>
			<path fill="#938DC4" d="M102.68,177.846c0.051,3.738-3.303,8.906-3.303,8.906s-3.493-5.123-3.543-8.863
				c-0.051-3.736,1.469-4.662,3.359-4.674C101.084,173.201,102.628,174.108,102.68,177.846z"/>
			<path fill="#938DC4" d="M101.138,175.739c0.027,2.041-1.802,4.863-1.802,4.863s-1.907-2.797-1.935-4.838s0.802-2.545,1.834-2.551
				C100.267,173.205,101.11,173.699,101.138,175.739z"/>
		</g>
		<g>
			<path fill="#F0ADCD" d="M135.727,114.074c-0.285-0.484-0.658-0.91-1.034-1.359c-0.678-0.809-1.356-1.617-2.037-2.422
				c-0.163-0.191-0.328-0.385-0.492-0.58c-0.41-0.486-1.078-0.486-1.49,0c0,0-3.626,4.297-3.631,4.303
				c-0.405,0.48-0.521,1.254-0.521,1.904v48.16c0,0.752,0.516,1.365,1.151,1.365h7.419c0.638,0,1.153-0.613,1.153-1.365v-48.16
				C136.244,115.26,136.047,114.612,135.727,114.074z"/>
			<path fill="#F0ADCD" d="M136.462,169.582c0,0.225-0.261,0.404-0.58,0.404h-8.999c-0.321,0-0.58-0.18-0.58-0.404l1.742-2.918
				c0-0.225,0.259-0.404,0.579-0.404h5.516c0.319,0,0.581,0.18,0.581,0.404L136.462,169.582z"/>
		</g>
		<g>
			<path fill="#938DC4" d="M136.561,182.002c0,7.072-5.151,16.809-5.151,16.809s-5.152-9.736-5.152-16.809
				c0-7.074,2.307-8.807,5.152-8.807C134.254,173.196,136.561,174.928,136.561,182.002z"/>
			<path fill="#938DC4" d="M136.508,179.53c0.069,5.115-4.986,12.189-4.986,12.189s-5.247-7.008-5.316-12.121
				c-0.07-5.117,2.22-6.383,5.065-6.4C134.115,173.178,136.438,174.414,136.508,179.53z"/>
			<path fill="#938DC4" d="M134.802,177.846c0.052,3.738-3.302,8.906-3.302,8.906s-3.492-5.123-3.543-8.863
				c-0.051-3.736,1.469-4.662,3.359-4.674C133.207,173.201,134.751,174.108,134.802,177.846z"/>
			<path fill="#938DC4" d="M133.261,175.739c0.028,2.041-1.802,4.863-1.802,4.863s-1.907-2.797-1.935-4.838s0.801-2.545,1.834-2.551
				C132.39,173.205,133.233,173.699,133.261,175.739z"/>
		</g>
		<g>
			<path fill="#938DC4" d="M121.66,182.92c0,10.576-6.114,25.129-6.114,25.129s-6.115-14.553-6.115-25.129
				c0-10.572,2.738-13.16,6.115-13.16S121.66,172.348,121.66,182.92z"/>
			<path fill="#938DC4" d="M121.599,179.229c0.082,7.646-5.918,18.219-5.918,18.219s-6.229-10.473-6.312-18.119
				s2.634-9.539,6.012-9.568C118.758,169.733,121.516,171.584,121.599,179.229z"/>
			<path fill="#938DC4" d="M119.573,176.711c0.062,5.586-3.918,13.313-3.918,13.313s-4.146-7.658-4.206-13.246
				c-0.061-5.59,1.743-6.973,3.988-6.99C117.68,169.77,119.513,171.123,119.573,176.711z"/>
			<path fill="#938DC4" d="M117.743,173.563c0.034,3.049-2.138,7.266-2.138,7.266s-2.263-4.18-2.296-7.229
				c-0.032-3.051,0.951-3.807,2.178-3.816C116.711,169.774,117.711,170.512,117.743,173.563z"/>
		</g>
		<g>
			<path fill="#FAD7E6" d="M120.867,120.416c-0.371-0.574-0.854-1.082-1.344-1.615c-0.88-0.961-1.762-1.918-2.645-2.875
				c-0.213-0.23-0.426-0.459-0.638-0.689c-0.535-0.578-1.402-0.578-1.936,0c0,0-4.709,5.102-4.718,5.111
				c-0.523,0.568-0.676,1.486-0.676,2.264v37.891c0,0.895,0.67,1.621,1.497,1.621h3.315c0.151,1.051,1.087,1.791,1.5,1.791
				c0.414,0,1.35-0.74,1.501-1.791h3.316c0.826,0,1.497-0.727,1.497-1.621v-37.891C121.539,121.824,121.282,121.057,120.867,120.416
				z"/>
			<g>
				<path fill="#FAD7E6" d="M108.997,134.137c0,0-4.354,8.127-11.998,12.578c0,0-4.741,2.807-5.128,7.063h18.384l0.677-19.352
					L108.997,134.137z"/>
				<polyline fill="#FAD7E6" points="110.176,158.03 109.016,157.887 91.87,155.756 91.87,153.77 110.018,153.77 110.018,157.352 
									"/>
			</g>
			<g>
				<path fill="#FAD7E6" d="M121.6,134.137c0,0,4.353,8.127,11.997,12.578c0,0,4.742,2.807,5.129,7.063h-18.385l-0.678-19.352
					L121.6,134.137z"/>
				<polyline fill="#FAD7E6" points="120.421,158.03 121.58,157.887 138.726,155.756 138.726,153.77 120.578,153.77 
					120.578,157.352 				"/>
			</g>
		</g>
	</g>
</g>
</svg>
