<?xml version="1.0" encoding="utf-8"?>
<!-- Generator: Adobe Illustrator 16.0.0, SVG Export Plug-In . SVG Version: 6.00 Build 0)  -->
<!DOCTYPE svg PUBLIC "-//W3C//DTD SVG 1.1//EN" "http://www.w3.org/Graphics/SVG/1.1/DTD/svg11.dtd">
<svg version="1.1" id="Layer_1" xmlns="http://www.w3.org/2000/svg" xmlns:xlink="http://www.w3.org/1999/xlink" x="0px" y="0px"
	 width="229.008px" height="230.313px" viewBox="0 0 229.008 230.313" enable-background="new 0 0 229.008 230.313"
	 xml:space="preserve">
<g>
	<g>
		<polygon fill="none" stroke="#5D6AB2" stroke-width="2.7029" stroke-miterlimit="10" points="31.527,146.425 114.504,2.703 
			197.48,146.425 		"/>
		<circle fill="#2D2C7A" cx="114.768" cy="7.444" r="2.54"/>
		<path fill="#958E8C" d="M114.769,4.902c-0.881,0-1.656,0.45-2.111,1.132c0.432-0.344,0.973-0.557,1.566-0.557
			c1.403,0,2.54,1.137,2.54,2.539c0,0.523-0.158,1.007-0.429,1.411c0.588-0.467,0.974-1.178,0.974-1.984
			C117.309,6.041,116.171,4.902,114.769,4.902z"/>
		<rect y="70.512" fill="#5D6AB2" width="229.008" height="159.801"/>
		<polygon fill="#FBD8E7" points="226.016,227.286 226.016,73.542 57.406,73.542 224.814,227.286 		"/>
		<polygon fill="#948EC5" points="57.406,73.542 2.991,73.542 2.991,227.286 224.814,227.286 		"/>
		<g>
			<g>
				<g>
					<defs>
						<rect id="SVGID_1_" x="2.991" y="73.542" width="223.024" height="153.744"/>
					</defs>
					<clipPath id="SVGID_2_">
						<use xlink:href="#SVGID_1_"  overflow="visible"/>
					</clipPath>
					<g clip-path="url(#SVGID_2_)">
						<line fill="none" x1="1.012" y1="71.608" x2="19.156" y2="89.569"/>
						<line fill="none" x1="228.279" y1="71.302" x2="210.275" y2="89.147"/>
						<line fill="none" x1="0.444" y1="229.455" x2="18.994" y2="214.533"/>
						<line fill="none" x1="228.279" y1="229.882" x2="209.943" y2="214.469"/>
					</g>
				</g>
			</g>
		</g>
		<polygon fill="#FFFFFF" points="210.913,88.441 73.629,88.441 210.913,214.52 		"/>
		<polygon fill="#FBD8E7" points="73.629,88.441 18.097,88.441 18.097,215.603 210.913,215.603 210.913,214.52 		"/>
	</g>
	<path fill="#FEF3F8" d="M225.941,213.921c0,2.115-1.713,3.829-3.828,3.829l0,0c-2.115,0-3.829-1.714-3.829-3.829V85.982
		c0-2.115,1.714-3.829,3.829-3.829l0,0c2.115,0,3.828,1.713,3.828,3.829V213.921z"/>
</g>
<path fill-rule="evenodd" clip-rule="evenodd" fill="#948EC5" d="M126.356,114.309c0.02-0.002-0.559-1.506-0.634-1.645
	c-0.274-0.498-0.596-0.975-0.985-1.393c-1.372-1.461-3.13-1.971-5.012-2.436c-1.797-0.445-3.595-0.898-5.393-1.332
	c-4.806-1.16-8.121,0.443-9.709,5.078c-0.113,0.582-0.227,1.164-0.339,1.746c4.785,0,9.57-0.002,14.357-0.004
	c0.17-1.271,0.678-2.48,0.938-3.734c0.047-0.23,0.086-0.459,0.113-0.691c-0.027,0.232-0.066,0.461-0.113,0.691
	c-0.261,1.254-0.769,2.463-0.938,3.734C121.214,114.319,123.785,114.315,126.356,114.309z"/>
<path fill="#FFB6D2" d="M149.929,187.74c0-1.912,0-10.92-0.004-12.832c-0.018-7.818,0.025-23.105-0.002-30.922
	c-0.025-6.463-0.893-13.295-4.523-18.684c-2.838-4.215-6.442-7.949-11.117-9.705c-4.493-1.688-9.445-1.41-14.135-1.41
	c-7.796,0-15.592,0.014-23.389,0.014c-12.844,0-18.688,8.355-18.688,18.664v51.094v1.541l-0.029,4.602
	c0,4.123,2.78,7.465,6.822,7.465c1.658,0,3.183-0.568,4.41-1.516c1.444-1.115,2.469-2.762,2.794-4.656
	c0.34,1.977,1.438,3.686,2.983,4.801c1.194,0.861,2.647,1.371,4.22,1.371c1.918,0,3.659-0.758,4.965-1.988
	c1.15-1.086,1.957-2.541,2.239-4.184c0.281,1.643,1.088,3.098,2.239,4.184c1.305,1.23,3.046,1.988,4.964,1.988
	s3.659-0.758,4.964-1.988c1.151-1.086,1.958-2.541,2.239-4.184c0.282,1.643,1.089,3.098,2.239,4.184
	c1.306,1.23,3.046,1.988,4.964,1.988c1.519,0,2.929-0.471,4.098-1.275c1.611-1.113,2.758-2.863,3.106-4.896
	c0.391,2.271,1.779,4.191,3.697,5.26c1.041,0.582,2.236,0.912,3.505,0.912c4.043,0,7.32-3.342,7.32-7.465"/>
<g>
	<path fill-rule="evenodd" clip-rule="evenodd" fill="#FFD4E1" d="M108.611,129.08c0.039,1.654-1.365,3.061-3.062,3.064
		c-1.626,0.002-2.939-1.232-3.021-2.842c-0.084-1.658,1.26-3.145,2.87-3.174C107.017,126.1,108.574,127.531,108.611,129.08z"/>
	<path fill-rule="evenodd" clip-rule="evenodd" fill="#FFD4E1" d="M137.672,132.145c-1.596,0.012-2.992-1.32-3.049-2.91
		c-0.062-1.697,1.254-3.08,2.959-3.107c1.723-0.029,3.127,1.354,3.094,3.051C140.648,130.754,139.252,132.131,137.672,132.145z"/>
</g>
<path fill-rule="evenodd" clip-rule="evenodd" fill="#FFD4E1" d="M92.646,152.377c0.031-1.941,0.054-3.879,0.095-5.818
	c0.102-4.645,3.665-8.279,8.333-8.295c13.233-0.047,26.468-0.043,39.702-0.002c4.671,0.014,8.257,3.596,8.335,8.273
	c0.049,2.873,0.264,5.76-0.295,8.613c-1.854,4.143-5.053,5.803-9.567,5.758c-12.535-0.125-25.07-0.078-37.605-0.023
	c-4.236,0.02-6.956-2.072-8.611-5.744C92.664,154.324,92.762,153.303,92.646,152.377z"/>
<path fill-rule="evenodd" clip-rule="evenodd" fill="#D7819C" d="M145.45,149.041c0,0.344-0.279,0.621-0.621,0.621h-42.555
	c-0.344,0-0.622-0.277-0.622-0.621l0,0c0-0.344,0.278-0.623,0.622-0.623h42.555C145.171,148.418,145.45,148.698,145.45,149.041
	L145.45,149.041z"/>
<path fill-rule="evenodd" clip-rule="evenodd" fill="none" stroke="#FFD4E1" stroke-width="1.5067" stroke-linecap="round" stroke-miterlimit="10" d="
	M97.491,163.324v8.012c0,3.723-3.228,6.736-7.209,6.736l0,0c-3.981,0-7.208-3.014-7.208-6.736v-8.012"/>
</svg>
