<?xml version="1.0" encoding="utf-8"?>
<!-- Generator: Adobe Illustrator 16.0.0, SVG Export Plug-In . SVG Version: 6.00 Build 0)  -->
<!DOCTYPE svg PUBLIC "-//W3C//DTD SVG 1.1//EN" "http://www.w3.org/Graphics/SVG/1.1/DTD/svg11.dtd">
<svg version="1.1" id="Layer_1" xmlns="http://www.w3.org/2000/svg" xmlns:xlink="http://www.w3.org/1999/xlink" x="0px" y="0px"
	 width="229.008px" height="230.313px" viewBox="0 0 229.008 230.313" enable-background="new 0 0 229.008 230.313"
	 xml:space="preserve">
<g>
	<g>
		<polygon fill="none" stroke="#5D6AB2" stroke-width="2.7029" stroke-miterlimit="10" points="31.527,146.426 114.504,2.703 
			197.48,146.426 		"/>
		<circle fill="#2D2C7A" cx="114.768" cy="7.444" r="2.54"/>
		<path fill="#958E8C" d="M114.769,4.902c-0.881,0-1.656,0.45-2.111,1.131c0.432-0.343,0.973-0.556,1.566-0.556
			c1.403,0,2.54,1.137,2.54,2.539c0,0.522-0.158,1.007-0.429,1.411c0.588-0.467,0.974-1.179,0.974-1.984
			C117.309,6.041,116.171,4.902,114.769,4.902z"/>
		<rect y="70.513" fill="#5D6AB2" width="229.008" height="159.8"/>
		<polygon fill="#FBD8E7" points="226.016,227.286 226.016,73.543 57.406,73.543 224.814,227.286 		"/>
		<polygon fill="#948EC5" points="57.406,73.543 2.991,73.543 2.991,227.286 224.814,227.286 		"/>
		<g>
			<g>
				<g>
					<defs>
						<rect id="SVGID_1_" x="2.991" y="73.543" width="223.024" height="153.743"/>
					</defs>
					<clipPath id="SVGID_2_">
						<use xlink:href="#SVGID_1_"  overflow="visible"/>
					</clipPath>
					<g clip-path="url(#SVGID_2_)">
						<line fill="none" x1="1.012" y1="71.608" x2="19.156" y2="89.569"/>
						<line fill="none" x1="228.279" y1="71.303" x2="210.275" y2="89.147"/>
						<line fill="none" x1="0.444" y1="229.456" x2="18.994" y2="214.534"/>
						<line fill="none" x1="228.279" y1="229.883" x2="209.943" y2="214.469"/>
					</g>
				</g>
			</g>
		</g>
		<polygon fill="#FFFFFF" points="210.913,88.441 73.629,88.441 210.913,214.52 		"/>
		<polygon fill="#FBD8E7" points="73.629,88.441 18.097,88.441 18.097,215.604 210.913,215.604 210.913,214.52 		"/>
	</g>
	<path fill="#FEF3F8" d="M225.941,213.922c0,2.113-1.713,3.828-3.828,3.828l0,0c-2.115,0-3.829-1.715-3.829-3.828V85.982
		c0-2.116,1.714-3.829,3.829-3.829l0,0c2.115,0,3.828,1.713,3.828,3.829V213.922z"/>
</g>
<g>
	<path fill-rule="evenodd" clip-rule="evenodd" fill="#EFCADE" d="M94.564,171.119c-0.001-7.429-0.002-14.858-0.002-22.281
		c0.008-0.928,0.016-1.861,0.024-2.795c0,0,0.088-0.085,0.088-0.084c0.583,0.197,1.165,0.396,1.748,0.594
		c7.967,5.219,16.447,9.551,24.696,14.28c0.906,0.52,1.529,0.142,2.119-0.524c1.322-1.49,2.705-2.928,3.963-4.471
		c2.691-3.311,5.816-6.25,8.301-9.734c0.266-0.078,0.533-0.154,0.799-0.231c7.375,7.771,10.902,16.896,9.732,27.67
		c-6.16,0.016-12.318,0.029-18.477,0.045c-3.236-4.685-7.447-4.678-10.703,0.019c-3.294-0.022-6.591-0.098-9.885-0.034
		c-1.097,0.02-2.716-0.673-3.181,0.523c-0.401,1.028,0.601,2.305,1.261,3.352c0.151,0.237,0.424,0.396,0.641,0.592
		c2.042,4.7,5.311,8.399,9.921,10.507c2.3,1.051,3.161,2.14,2.503,4.476c-1.008,1.775-2.302,0.141-3.45,0.292
		c-6.581-3.41-11.097-8.749-14.301-15.313c-0.937-2.794-1.96-5.476-5.817-4.456c0.005-0.808,0.011-1.615,0.017-2.42L94.564,171.119z
		"/>
	<path fill-rule="evenodd" clip-rule="evenodd" fill="#EFCADE" d="M93.395,125.56c-6.647-0.08-13.264,0.587-19.897,0.816
		c-0.909,0.031-1.904,0.42-2.091-1.146c-0.187-1.571,0.335-2.062,1.866-2.121c5.753-0.224,11.5-0.664,17.254-0.786
		c2.156-0.045,2.516-0.857,2.367-2.747c-0.351-4.413-0.556-8.841-0.764-13.264c-0.215-4.569,1.708-7.736,5.333-8.929
		c3.902-1.283,7.249,0.146,9.866,4.213c0.118,0.184,0.263,0.349,0.392,0.519c0.57-0.109,0.569-0.611,0.736-0.986
		c1.595-3.548,4.954-5.495,8.526-4.944c3.828,0.59,6.561,3.514,6.848,7.576c0.285,4.049,0.422,8.109,0.582,12.166
		c0.178,4.587,0.156,4.601,4.777,4.357c5.16-0.272,10.318-0.575,15.477-0.854c1.08-0.059,2.188-0.386,2.285,1.439
		c0.09,1.728-0.867,1.697-2.039,1.757c-5.971,0.298-11.943,0.62-17.912,0.948c-0.584,0.032-1.164,0.164-1.744,0.25
		c-0.73,0.034-1.461,0.067-2.191,0.1c-1.035-0.137-2.066-0.124-3.084,0.145c-5.595,0.296-11.191,0.59-16.787,0.885
		C99.917,124.986,96.645,125.08,93.395,125.56z"/>
	<path fill-rule="evenodd" clip-rule="evenodd" fill="#F9F8F7" d="M103.195,124.953c5.596-0.295,11.191-0.589,16.787-0.885
		c1.047,0.363,2.084,0.477,3.084-0.145c0.73-0.032,1.461-0.065,2.191-0.1c-0.453,2.102,0.666,2.844,2.541,3.041
		c2.828,0.299,5.646,0.675,8.473,0.994c0.859,0.098,2.004-0.022,2.057,1.096c0.049,0.998-0.465,1.969-1.59,2.416
		c-1.92,0.761-3.916,0.41-5.879,0.469c-1.668,0.051-3.318,0.09-4.76,1.092c-0.629-0.617-1.268-1.225-1.883-1.854
		c-2.949-3.012-5.115-3.21-8.431-0.54c-0.807,0.65-1.06,0.219-1.606-0.167c-2.314-1.636-4.906-1.684-6.666,0.123
		c-3.101,3.186-5.229,7.057-7.598,11.184c4.223-0.652,8.073-1.195,11.848-2.222c1.483-0.403,2.534-2.015,3.704-2.073
		c1.173-0.059,2.388,1.37,3.907,1.655c3.717,0.694,7.484,0.688,11.223,1.034c1.486,1.903,3.809,3.049,4.85,5.355l0.035,0.192
		c-12.863,0.003-25.726,0.005-38.589,0.009c-0.732-0.025-1.464-0.05-2.196-0.074c-0.184-0.373-0.367-0.747-0.55-1.12
		c0.281-3.077,0.054-6.137-0.293-9.194C99.354,135.023,103.032,130.973,103.195,124.953z"/>
	<path fill-rule="evenodd" clip-rule="evenodd" fill="#EAA0C3" d="M118.11,193.02c0.66-2.336-0.201-3.425-2.501-4.476
		c-4.61-2.107-7.878-5.807-9.919-10.507c3.717-0.014,7.433-0.028,11.149-0.042c3.258,4.709,7.564,4.706,10.738-0.006
		c5.781,0.035,11.563,0.072,17.344,0.108c-2.045,6.213-6.844,9.501-12.564,11.801c-1,0.401-2.031,0.725-3.271,1.164
		c0.346-0.123,2.041,3.14,2.225,3.509c0.609,1.221,1.109,2.498,1.506,3.804c0.395,1.305,0.699,2.631,0.961,3.965
		c0.275,1.393,0.57,2.64,0.611,4.045c0.047,1.591,0.133,2.944-1.924,3.04c-1.619,0.073-2.457-1.168-2.672-2.666
		c-0.041-0.288-0.105-0.574-0.158-0.859c-0.254-4.157-1.23-8.081-3.711-11.522c-1.076-1.494-2.223-2.611-4.352-1.83
		C120.505,192.939,119.271,192.877,118.11,193.02z"/>
	<path fill-rule="evenodd" clip-rule="evenodd" fill="#EAA0C3" d="M100.361,177.999c3.204,6.564,7.72,11.903,14.301,15.313
		c-0.914,0.683-3.053-0.833-2.989,1.475c0.153,5.613-3.855,10.736-9.016,12.646c-1.685,0.623-3.442,1.022-5.2,1.38
		c-1.066,0.217-2.048,0.318-2.679-0.73c-0.516-0.855-0.94-2.586-0.025-3.354c0.996-0.838,2.532-0.541,3.722-0.787
		c1.488-0.307,2.975-0.918,4.294-1.662c2.712-1.528,4.204-3.809,4.383-6.966c0.068-1.194-0.343-1.503-1.491-1.469
		c-3.247,0.096-6.497,0.041-9.744,0.128c-1.153,0.029-1.555-0.354-1.539-1.511c0.07-4.796,0.072-9.594,0.099-14.392
		C96.439,178.046,98.4,178.022,100.361,177.999z"/>
	<path fill-rule="evenodd" clip-rule="evenodd" fill="#EAA0C3" d="M130.597,140.072c-3.738-0.346-7.506-0.34-11.223-1.034
		c-1.52-0.285-2.734-1.714-3.907-1.655c-1.169,0.059-2.22,1.67-3.704,2.073c-3.774,1.026-7.625,1.569-11.848,2.222
		c2.37-4.127,4.497-7.998,7.598-11.184c1.759-1.807,4.351-1.759,6.666-0.123c0.546,0.386,0.799,0.817,1.606,0.167
		c3.315-2.67,5.481-2.472,8.431,0.54c0.615,0.629,1.254,1.236,1.883,1.854c1.418,1.857,2.857,3.696,4.232,5.584
		C130.636,138.931,131.604,139.376,130.597,140.072z"/>
	<path fill-rule="evenodd" clip-rule="evenodd" fill="#EAA0C3" d="M103.195,124.953c-0.163,6.021-3.84,10.07-9.342,10.287
		c-0.153-3.227-0.305-6.453-0.458-9.68C96.645,125.08,99.917,124.986,103.195,124.953z"/>
	<path fill-rule="evenodd" clip-rule="evenodd" fill="#5D6AB2" d="M144.921,178.098c-5.781-0.036-11.563-0.073-17.344-0.108
		c0.357-1.47,0.385-2.938-0.021-4.403c6.158-0.016,12.316-0.029,18.477-0.045C145.956,175.132,145.72,176.684,144.921,178.098z"/>
	<path fill-rule="evenodd" clip-rule="evenodd" fill="#5D6AB2" d="M100.361,177.999c-1.961,0.023-3.922,0.048-5.884,0.071
		c-0.219-1.512-0.354-3.024,0.066-4.528C98.401,172.523,99.425,175.205,100.361,177.999z"/>
	<path fill-rule="evenodd" clip-rule="evenodd" fill="#5D6AB2" d="M94.146,144.434c-1.885,0.296-2.925-0.604-3.648-2.292
		c-0.364-0.85-1.244-1.45-2.157-1.826c-0.738-0.304-1.63-0.865-2.273-0.281c-0.68,0.618-0.062,1.496,0.202,2.241
		c0.598,1.69,2.209,2.417,3.506,3.501c-0.5,0.304-0.882,0.525-1.255,0.76c-1.6,1.006-2.519,2.445-2.718,4.327
		c-0.046,0.438,0.196,0.741,0.636,0.692c1.955-0.221,3.667-1.065,4.411-2.895c0.607-1.494,1.573-1.887,2.949-1.92
		c1.06,0.402,0.46,1.411,0.763,2.096c0.008-0.928,0.016-1.861,0.024-2.795c0,0,0.088-0.085,0.088-0.085
		c0.006-0.135,0.014-0.269,0.022-0.403C94.513,145.181,94.329,144.807,94.146,144.434z"/>
	<path fill-rule="evenodd" clip-rule="evenodd" fill="#F29233" d="M136.3,145.872c-0.266,0.077-0.533,0.153-0.799,0.23
		c-0.006-0.161-0.012-0.322-0.02-0.482l-0.035-0.192C135.731,145.576,136.015,145.724,136.3,145.872z"/>
	<path fill-rule="evenodd" clip-rule="evenodd" fill="#F9F5F3" d="M127.556,173.586c0.406,1.465,0.379,2.934,0.021,4.403
		c-3.174,4.712-7.48,4.715-10.738,0.006c-0.389-1.465-0.273-2.93,0.014-4.391C120.108,168.909,124.319,168.902,127.556,173.586z"/>
	<path fill-rule="evenodd" clip-rule="evenodd" fill="#5D6AB2" d="M116.853,173.605c-0.287,1.461-0.402,2.926-0.014,4.391
		c-3.716,0.014-7.432,0.028-11.149,0.042c-0.218-0.195-0.492-0.354-0.643-0.592c-0.66-1.047-1.662-2.323-1.261-3.352
		c0.465-1.196,2.084-0.504,3.181-0.523C110.261,173.507,113.558,173.583,116.853,173.605z"/>
	<path fill-rule="evenodd" clip-rule="evenodd" fill="#5D6AB2" d="M135.481,145.62c-12.863,0.003-25.726,0.005-38.589,0.009
		c-0.732-0.025-1.464-0.05-2.196-0.074c-0.008,0.135-0.016,0.269-0.022,0.404c0.583,0.197,1.165,0.396,1.749,0.594
		c7.967,5.219,16.446,9.551,24.696,14.28c0.906,0.52,1.529,0.142,2.119-0.524c1.322-1.49,2.705-2.928,3.963-4.471
		c2.691-3.311,5.816-6.25,8.301-9.735C135.495,145.941,135.489,145.78,135.481,145.62z"/>
	<path fill-rule="evenodd" clip-rule="evenodd" fill="#FBDBDE" d="M123.065,123.923c-1,0.621-2.037,0.508-3.084,0.145
		C120.999,123.799,122.03,123.787,123.065,123.923z"/>
</g>
</svg>
