<?xml version="1.0" encoding="utf-8"?>
<!-- Generator: Adobe Illustrator 16.0.0, SVG Export Plug-In . SVG Version: 6.00 Build 0)  -->
<!DOCTYPE svg PUBLIC "-//W3C//DTD SVG 1.1//EN" "http://www.w3.org/Graphics/SVG/1.1/DTD/svg11.dtd">
<svg version="1.1" id="Layer_1" xmlns="http://www.w3.org/2000/svg" xmlns:xlink="http://www.w3.org/1999/xlink" x="0px" y="0px"
	 width="214.395px" height="139.152px" viewBox="0 0 214.395 139.152" enable-background="new 0 0 214.395 139.152"
	 xml:space="preserve">
<g>
	<g>
		<path fill="#FBD8E7" d="M86.061,2.596H8.531c-4.099,0-7.419,3.322-7.419,7.42v121.67c0,4.1,3.32,7.42,7.419,7.42h65.537
			c0.408,0.029,0.818,0.047,1.233,0.047s0.826-0.018,1.234-0.047c9.462-0.637,16.943-8.508,16.943-18.131V10.016
			C93.479,5.918,90.157,2.596,86.061,2.596z"/>
		<g>
			<path fill="#4769B2" d="M94.591,15.949c0,1.027-0.83,1.855-1.854,1.855H1.854C0.831,17.805,0,16.977,0,15.949l0,0
				c0-1.021,0.831-1.854,1.854-1.854h90.883C93.761,14.096,94.591,14.928,94.591,15.949L94.591,15.949z"/>
			<path fill="#4769B2" d="M22.347,16.629c-1.024,0-1.855-0.83-1.855-1.855V3.281c0-1.023,0.831-1.855,1.855-1.855l0,0
				c1.024,0,1.854,0.832,1.854,1.855v11.492C24.201,15.799,23.371,16.629,22.347,16.629L22.347,16.629z"/>
			<path fill="#4769B2" d="M71.064,16.629c-1.024,0-1.854-0.83-1.854-1.855V3.281c0-1.023,0.83-1.855,1.854-1.855l0,0
				c1.024,0,1.856,0.832,1.856,1.855v11.492C72.921,15.799,72.089,16.629,71.064,16.629L71.064,16.629z"/>
		</g>
		<path fill="#4769B2" d="M67.328,1.359c0,0.752-0.61,1.361-1.361,1.361h-7.542c-0.752,0-1.361-0.609-1.361-1.361l0,0
			C57.063,0.611,57.673,0,58.425,0h7.542C66.718,0,67.328,0.611,67.328,1.359L67.328,1.359z"/>
		<path fill="#4769B2" d="M94.281,115.365c0,0.547-0.61,0.99-1.36,0.99H80.062c-0.75,0-1.36-0.443-1.36-0.99l0,0
			c0-0.547,0.61-0.988,1.36-0.988h12.859C93.671,114.377,94.281,114.818,94.281,115.365L94.281,115.365z"/>
		<path fill="#4769B2" d="M94.281,119.715c0,0.549-0.61,0.99-1.36,0.99H80.062c-0.75,0-1.36-0.441-1.36-0.99l0,0
			c0-0.545,0.61-0.986,1.36-0.986h12.859C93.671,118.729,94.281,119.17,94.281,119.715L94.281,119.715z"/>
		<path fill="#4769B2" d="M93.54,124.068c0,0.547-0.609,0.988-1.36,0.988H80.062c-0.75,0-1.36-0.441-1.36-0.988l0,0
			c0-0.547,0.61-0.99,1.36-0.99H92.18C92.931,123.078,93.54,123.521,93.54,124.068L93.54,124.068z"/>
		<path fill="#4769B2" d="M92.798,128.418c0,0.547-0.609,0.99-1.359,0.99H80.062c-0.75,0-1.36-0.443-1.36-0.99l0,0
			c0-0.545,0.61-0.988,1.36-0.988h11.377C92.188,127.43,92.798,127.873,92.798,128.418L92.798,128.418z"/>
		<path fill="#4769B2" d="M89.829,132.77c0,0.547-0.609,0.988-1.359,0.988h-8.408c-0.75,0-1.36-0.441-1.36-0.988l0,0
			c0-0.547,0.61-0.99,1.36-0.99h8.408C89.22,131.779,89.829,132.223,89.829,132.77L89.829,132.77z"/>
		<path fill="#4769B2" d="M88.842,73.078c0,4.096-3.322,7.416-7.419,7.416H13.166c-4.097,0-7.418-3.32-7.418-7.416V28.316
			c0-4.098,3.321-7.42,7.418-7.42h68.257c4.097,0,7.419,3.322,7.419,7.42V73.078z"/>
		<path fill="#F0AECE" d="M85.379,71.213c0,3.754-3.044,6.801-6.801,6.801H16.012c-3.757,0-6.802-3.047-6.802-6.801V30.182
			c0-3.758,3.045-6.801,6.802-6.801h62.566c3.757,0,6.801,3.043,6.801,6.801V71.213z"/>
		<g>
			<defs>
				<path id="SVGID_1_" d="M85.379,71.213c0,3.754-3.044,6.801-6.801,6.801H16.012c-3.757,0-6.802-3.047-6.802-6.801V30.182
					c0-3.758,3.045-6.801,6.802-6.801h62.566c3.757,0,6.801,3.043,6.801,6.801V71.213z"/>
			</defs>
			<clipPath id="SVGID_2_">
				<use xlink:href="#SVGID_1_"  overflow="visible"/>
			</clipPath>
			<g clip-path="url(#SVGID_2_)">
				
					<rect x="-31.249" y="40.777" transform="matrix(0.7071 -0.7071 0.7071 0.7071 -23.8704 34.8074)" fill="#F5CDE1" width="122.661" height="10.881"/>
				
					<rect x="-23.118" y="52.99" transform="matrix(0.7071 -0.7071 0.7071 0.7071 -27.2387 42.9392)" fill="#F5CDE1" width="122.661" height="2.719"/>
			</g>
		</g>
		<g>
			<path fill="#F0AECE" d="M37.836,96.256l-8.277,0.359l0.36-8.277c0-1.4-1.138-2.539-2.542-2.539h-3.555
				c-1.402,0-2.542,1.139-2.542,2.539l0.362,8.277l-8.277-0.359c-1.403,0-2.541,1.139-2.541,2.543v3.555
				c0,1.402,1.138,2.541,2.541,2.541l8.277-0.361l-0.362,8.281c0,1.4,1.14,2.537,2.542,2.537h3.555c1.404,0,2.542-1.137,2.542-2.537
				l-0.36-8.281l8.277,0.361c1.403,0,2.541-1.139,2.541-2.541v-3.555C40.377,97.395,39.239,96.256,37.836,96.256z"/>
			<path fill="#54459C" d="M26.403,96.525c0,0.332-0.296,0.6-0.666,0.6l0,0c-0.367,0-0.668-0.268-0.668-0.6v-7.238
				c0-0.332,0.301-0.6,0.668-0.6l0,0c0.37,0,0.666,0.268,0.666,0.6V96.525z"/>
			<path fill="#54459C" d="M26.403,111.551c0,0.332-0.296,0.602-0.666,0.602l0,0c-0.367,0-0.668-0.27-0.668-0.602v-7.238
				c0-0.33,0.301-0.598,0.668-0.598l0,0c0.37,0,0.666,0.268,0.666,0.598V111.551z"/>
			<path fill="#54459C" d="M29.633,101.088c-0.333,0-0.602-0.299-0.602-0.666l0,0c0-0.371,0.269-0.668,0.602-0.668h7.238
				c0.331,0,0.599,0.297,0.599,0.668l0,0c0,0.367-0.268,0.666-0.599,0.666H29.633z"/>
			<path fill="#54459C" d="M14.606,101.088c-0.333,0-0.602-0.299-0.602-0.666l0,0c0-0.371,0.269-0.668,0.602-0.668h7.238
				c0.332,0,0.6,0.297,0.6,0.668l0,0c0,0.367-0.268,0.666-0.6,0.666H14.606z"/>
		</g>
		<circle fill="#54459C" cx="42.536" cy="86.432" r="1.577"/>
		<g>
			<circle fill="#948EC5" cx="77.722" cy="100.575" r="4.509"/>
			<circle fill="#948EC5" cx="60.274" cy="100.575" r="4.509"/>
			<circle fill="#948EC5" cx="68.998" cy="109.297" r="4.508"/>
			<circle fill="#948EC5" cx="68.998" cy="91.852" r="4.508"/>
		</g>
		<g>
			<path fill="#948EC5" d="M38.72,124.135c-0.521,0.52-1.368,0.52-1.888,0l0,0c-0.522-0.523-0.522-1.369,0-1.889l3.778-3.779
				c0.521-0.521,1.365-0.521,1.888,0l0,0c0.521,0.521,0.521,1.367,0,1.889L38.72,124.135z"/>
			<path fill="#948EC5" d="M45.176,124.135c-0.522,0.52-1.368,0.52-1.889,0l0,0c-0.521-0.523-0.521-1.369,0-1.889l3.777-3.779
				c0.521-0.521,1.367-0.521,1.888,0l0,0c0.524,0.521,0.524,1.367,0,1.889L45.176,124.135z"/>
		</g>
	</g>
	<g>
		<path fill="#F0AECE" d="M214.367,125.246c0,7.459-6.047,13.502-13.504,13.502H59.086c-7.457,0-13.5-6.043-13.5-13.502V73.598
			c0-7.455,6.043-13.5,13.5-13.5h141.777c7.457,0,13.504,6.045,13.504,13.5V125.246z"/>
		<path fill="#FBD8E7" d="M209.604,123.002c0,6.811-6.391,12.328-13.363,12.328H63.709c-6.971,0-13.363-5.518-13.363-12.328V75.844
			c0-6.811,6.393-12.33,13.363-12.33H196.24c6.973,0,13.363,5.52,13.363,12.33V123.002z"/>
		<g>
			<path fill="#4769B2" d="M214.375,73.309c-0.084-3.396-1.424-6.475-3.572-8.803c-2.467-2.672-5.988-4.355-9.912-4.355h-10.34
				c-0.891,0.281-1.545,1.119-1.545,2.123c0,1.027,0.684,1.883,1.607,2.143h4.713c0.51,0,1.014,0.033,1.508,0.09
				c6.275,0.699,11.252,5.697,11.916,11.982c0.047,0.471,0.08,0.947,0.08,1.432v2.186c0.295,1.271,1.422,2.219,2.775,2.219
				c1.367,0,2.508-0.965,2.789-2.256v-6.414C214.395,73.537,214.379,73.426,214.375,73.309z"/>
			<path fill="#4769B2" d="M201.174,138.762c3.398-0.088,6.477-1.428,8.805-3.576c2.672-2.467,4.354-5.988,4.354-9.91v-10.342
				c-0.281-0.891-1.119-1.543-2.121-1.543c-1.027,0-1.883,0.684-2.143,1.607v4.713c0,0.51-0.037,1.012-0.09,1.508
				c-0.699,6.277-5.695,11.25-11.984,11.914c-0.471,0.049-0.947,0.08-1.43,0.08h-2.188c-1.271,0.297-2.221,1.422-2.221,2.777
				c0,1.367,0.967,2.508,2.26,2.789h6.414C200.945,138.779,201.059,138.762,201.174,138.762z"/>
			<path fill="#4769B2" d="M45.574,125.637c0.086,3.396,1.424,6.477,3.574,8.803c2.467,2.672,5.988,4.357,9.91,4.357H69.4
				c0.891-0.281,1.543-1.121,1.543-2.125c0-1.027-0.682-1.881-1.605-2.143h-4.715c-0.51,0-1.012-0.033-1.508-0.09
				c-6.275-0.697-11.25-5.693-11.912-11.98c-0.051-0.473-0.082-0.949-0.082-1.432v-2.186c-0.295-1.273-1.422-2.221-2.775-2.221
				c-1.369,0-2.51,0.965-2.787,2.258v6.414C45.559,125.408,45.568,125.521,45.574,125.637z"/>
			<path fill="#4769B2" d="M58.744,60.066c-3.396,0.088-6.477,1.428-8.805,3.576c-2.67,2.467-4.354,5.988-4.354,9.91v10.342
				c0.281,0.891,1.119,1.543,2.123,1.543c1.027,0,1.881-0.682,2.143-1.605v-4.713c0-0.51,0.035-1.014,0.088-1.508
				c0.699-6.277,5.697-11.252,11.984-11.916c0.471-0.049,0.947-0.08,1.43-0.08h2.188c1.273-0.297,2.221-1.424,2.221-2.775
				c0-1.369-0.969-2.506-2.26-2.787H59.09C58.975,60.053,58.859,60.064,58.744,60.066z"/>
		</g>
		<path fill="#948EC5" d="M181.225,128.984c0,2.016-1.631,3.648-3.645,3.648H82.369c-2.014,0-3.645-1.633-3.645-3.648V72.467
			c0-2.014,1.631-3.645,3.645-3.645h95.211c2.014,0,3.645,1.631,3.645,3.645V128.984z"/>
		<path fill="#F0AECE" d="M177.396,125.824c0,1.789-1.51,3.238-3.373,3.238H85.926c-1.863,0-3.375-1.449-3.375-3.238V75.629
			c0-1.789,1.512-3.238,3.375-3.238h88.098c1.863,0,3.373,1.449,3.373,3.238V125.824z"/>
		<g>
			<defs>
				<path id="SVGID_3_" d="M177.396,125.824c0,1.789-1.51,3.238-3.373,3.238H85.926c-1.863,0-3.375-1.449-3.375-3.238V75.629
					c0-1.789,1.512-3.238,3.375-3.238h88.098c1.863,0,3.373,1.449,3.373,3.238V125.824z"/>
			</defs>
			<clipPath id="SVGID_4_">
				<use xlink:href="#SVGID_3_"  overflow="visible"/>
			</clipPath>
		</g>
		<path fill="#54459C" d="M78.674,129.381c0,1.23-0.994,2.227-2.225,2.227h-2.412c-1.23,0-2.225-0.996-2.225-2.227v-3.77
			c0-1.229,0.994-2.227,2.225-2.227h2.412c1.23,0,2.225,0.998,2.225,2.227V129.381z"/>
		<path fill="#54459C" d="M76.311,72.35c0,0.408-0.334,0.742-0.742,0.742h-7.42c-0.41,0-0.742-0.334-0.742-0.742l0,0
			c0-0.41,0.332-0.742,0.742-0.742h7.42C75.977,71.607,76.311,71.939,76.311,72.35L76.311,72.35z"/>
		<circle fill="#54459C" cx="187.192" cy="123.355" r="1.794"/>
		<path fill="#54459C" d="M188.934,72.842l-1.336,0.059l0.059-1.336c0-0.225-0.182-0.408-0.41-0.408h-0.572
			c-0.225,0-0.408,0.184-0.408,0.408l0.057,1.336l-1.334-0.059c-0.227,0-0.412,0.184-0.412,0.408v0.574
			c0,0.229,0.186,0.412,0.412,0.412l1.334-0.059l-0.057,1.334c0,0.225,0.184,0.41,0.408,0.41h0.572c0.229,0,0.41-0.186,0.41-0.41
			l-0.059-1.334l1.336,0.059c0.227,0,0.41-0.184,0.41-0.412V73.25C189.344,73.025,189.16,72.842,188.934,72.842z"/>
		<g>
			<path fill="#F0AECE" d="M73.148,103.953l-5.369,0.232l0.232-5.367c0-0.91-0.738-1.646-1.646-1.646h-2.309
				c-0.906,0-1.646,0.736-1.646,1.646l0.234,5.367l-5.367-0.232c-0.912,0-1.648,0.736-1.648,1.646v2.307
				c0,0.91,0.736,1.648,1.648,1.648l5.367-0.234l-0.234,5.369c0,0.91,0.74,1.646,1.646,1.646h2.309c0.908,0,1.646-0.736,1.646-1.646
				l-0.232-5.369l5.369,0.234c0.908,0,1.646-0.738,1.646-1.648V105.6C74.795,104.689,74.057,103.953,73.148,103.953z"/>
			<path fill="#54459C" d="M65.732,104.127c0,0.217-0.191,0.391-0.432,0.391l0,0c-0.24,0-0.432-0.174-0.432-0.391v-4.693
				c0-0.215,0.191-0.387,0.432-0.387l0,0c0.24,0,0.432,0.172,0.432,0.387V104.127z"/>
			<path fill="#54459C" d="M65.732,113.873c0,0.215-0.191,0.389-0.432,0.389l0,0c-0.24,0-0.432-0.174-0.432-0.389v-4.693
				c0-0.217,0.191-0.389,0.432-0.389l0,0c0.24,0,0.432,0.172,0.432,0.389V113.873z"/>
			<path fill="#54459C" d="M67.826,107.086c-0.217,0-0.389-0.193-0.389-0.432l0,0c0-0.242,0.172-0.436,0.389-0.436h4.695
				c0.215,0,0.389,0.193,0.389,0.436l0,0c0,0.238-0.174,0.432-0.389,0.432H67.826z"/>
			<path fill="#54459C" d="M58.082,107.086c-0.215,0-0.389-0.193-0.389-0.432l0,0c0-0.242,0.174-0.436,0.389-0.436h4.695
				c0.215,0,0.387,0.193,0.387,0.436l0,0c0,0.238-0.172,0.432-0.387,0.432H58.082z"/>
		</g>
		<g>
			<path fill="#54459C" d="M71.982,84.773c0,3.742-3.031,6.771-6.77,6.771s-6.771-3.029-6.771-6.771
				c0-3.736,3.033-6.768,6.771-6.768S71.982,81.037,71.982,84.773z"/>
			<path fill="#948EC5" d="M70.799,84.773c0,3.088-2.5,5.588-5.586,5.588s-5.586-2.5-5.586-5.588c0-3.082,2.5-5.582,5.586-5.582
				S70.799,81.691,70.799,84.773z"/>
			<path fill="#B2B0D8" d="M70.18,84.773c0,2.746-2.225,4.969-4.967,4.969c-2.746,0-4.967-2.223-4.967-4.969
				c0-2.74,2.221-4.965,4.967-4.965C67.955,79.809,70.18,82.033,70.18,84.773z"/>
		</g>
		<g>
			<circle fill="#F0AECE" cx="203.303" cy="88.176" r="3.58"/>
			<circle fill="#F0AECE" cx="189.443" cy="88.176" r="3.58"/>
			<circle fill="#F0AECE" cx="196.373" cy="95.105" r="3.58"/>
			<circle fill="#F0AECE" cx="196.373" cy="81.246" r="3.58"/>
		</g>
		<g>
			<circle fill="#54459C" cx="196.373" cy="112.721" r="6.77"/>
			<path fill="#948EC5" d="M201.957,112.721c0,3.084-2.498,5.584-5.582,5.584c-3.088,0-5.588-2.5-5.588-5.584s2.5-5.586,5.588-5.586
				C199.459,107.135,201.957,109.637,201.957,112.721z"/>
			<path fill="#B2B0D8" d="M201.34,112.721c0,2.744-2.223,4.967-4.965,4.967c-2.746,0-4.969-2.223-4.969-4.967
				s2.223-4.967,4.969-4.967C199.117,107.754,201.34,109.977,201.34,112.721z"/>
		</g>
	</g>
</g>
<path fill="#F0AECE" d="M85.926,72.391c-1.863,0-3.375,1.449-3.375,3.238v27.664l30.901-30.902H85.926z"/>
<polygon fill="#F5CDE1" points="113.452,72.391 82.551,103.293 82.551,123.361 133.522,72.391 "/>
<polygon fill="#F5CDE1" points="143.926,72.391 87.254,129.063 93.613,129.063 150.285,72.391 "/>
</svg>
