<?xml version="1.0" encoding="utf-8"?>
<!-- Generator: Adobe Illustrator 16.0.0, SVG Export Plug-In . SVG Version: 6.00 Build 0)  -->
<!DOCTYPE svg PUBLIC "-//W3C//DTD SVG 1.1//EN" "http://www.w3.org/Graphics/SVG/1.1/DTD/svg11.dtd">
<svg version="1.1" id="Layer_1" xmlns="http://www.w3.org/2000/svg" xmlns:xlink="http://www.w3.org/1999/xlink" x="0px" y="0px"
	 width="203.03px" height="131.778px" viewBox="0 0 203.03 131.778" enable-background="new 0 0 203.03 131.778"
	 xml:space="preserve">
<g>
	<g>
		<g>
			<path fill="#FBD8E7" d="M81.499,2.459H8.078c-3.881,0-7.026,3.146-7.026,7.027v115.221c0,3.882,3.145,7.026,7.026,7.026h62.063
				c0.387,0.028,0.775,0.045,1.168,0.045s0.783-0.017,1.169-0.045c8.96-0.603,16.044-8.057,16.044-17.17V9.486
				C88.524,5.604,85.378,2.459,81.499,2.459z"/>
			<g>
				<path fill="#4769B2" d="M89.577,15.104c0,0.973-0.786,1.757-1.756,1.757H1.756C0.787,16.862,0,16.077,0,15.104l0,0
					c0-0.966,0.787-1.755,1.755-1.755h86.066C88.791,13.349,89.577,14.137,89.577,15.104L89.577,15.104z"/>
				<path fill="#4769B2" d="M21.162,15.747c-0.97,0-1.756-0.786-1.756-1.756V3.107c0-0.969,0.786-1.756,1.756-1.756l0,0
					c0.97,0,1.756,0.787,1.756,1.756V13.99C22.919,14.961,22.133,15.747,21.162,15.747L21.162,15.747z"/>
				<path fill="#4769B2" d="M67.297,15.747c-0.969,0-1.755-0.786-1.755-1.756V3.107c0-0.969,0.786-1.756,1.755-1.756l0,0
					c0.97,0,1.758,0.787,1.758,1.756V13.99C69.056,14.961,68.268,15.747,67.297,15.747L67.297,15.747z"/>
			</g>
			<path fill="#4769B2" d="M63.76,1.287c0,0.712-0.578,1.29-1.289,1.29h-7.143c-0.712,0-1.289-0.577-1.289-1.29l0,0
				C54.038,0.579,54.616,0,55.328,0h7.143C63.182,0,63.76,0.579,63.76,1.287L63.76,1.287z"/>
			<path fill="#4769B2" d="M89.283,109.251c0,0.518-0.577,0.938-1.287,0.938H75.819c-0.71,0-1.288-0.42-1.288-0.938l0,0
				c0-0.519,0.577-0.937,1.288-0.937h12.178C88.706,108.314,89.283,108.732,89.283,109.251L89.283,109.251z"/>
			<path fill="#4769B2" d="M89.283,113.37c0,0.521-0.577,0.938-1.287,0.938H75.819c-0.71,0-1.288-0.417-1.288-0.938l0,0
				c0-0.517,0.577-0.934,1.288-0.934h12.178C88.706,112.436,89.283,112.853,89.283,113.37L89.283,113.37z"/>
			<path fill="#4769B2" d="M88.582,117.492c0,0.519-0.577,0.937-1.288,0.937H75.819c-0.71,0-1.288-0.418-1.288-0.937l0,0
				c0-0.518,0.577-0.938,1.288-0.938h11.476C88.006,116.554,88.582,116.974,88.582,117.492L88.582,117.492z"/>
			<path fill="#4769B2" d="M87.88,121.611c0,0.519-0.577,0.938-1.287,0.938H75.819c-0.71,0-1.288-0.419-1.288-0.938l0,0
				c0-0.516,0.577-0.935,1.288-0.935h10.774C87.302,120.677,87.88,121.095,87.88,121.611L87.88,121.611z"/>
			<path fill="#4769B2" d="M85.068,125.733c0,0.518-0.577,0.935-1.287,0.935h-7.962c-0.71,0-1.288-0.417-1.288-0.935l0,0
				c0-0.518,0.577-0.938,1.288-0.938h7.962C84.491,124.795,85.068,125.216,85.068,125.733L85.068,125.733z"/>
			<path fill="#4769B2" d="M84.133,69.205c0,3.879-3.146,7.022-7.025,7.022H12.469c-3.88,0-7.025-3.144-7.025-7.022v-42.39
				c0-3.88,3.145-7.026,7.025-7.026h64.639c3.879,0,7.025,3.146,7.025,7.026V69.205z"/>
			<path fill="#F0AECE" d="M80.854,67.438c0,3.555-2.882,6.441-6.44,6.441h-59.25c-3.558,0-6.441-2.887-6.441-6.441V28.583
				c0-3.56,2.884-6.441,6.441-6.441h59.25c3.558,0,6.44,2.882,6.44,6.441V67.438z"/>
			<g>
				<g>
					<defs>
						<path id="SVGID_1_" d="M80.854,67.438c0,3.555-2.882,6.441-6.44,6.441h-59.25c-3.558,0-6.441-2.887-6.441-6.441V28.583
							c0-3.56,2.884-6.441,6.441-6.441h59.25c3.558,0,6.44,2.882,6.44,6.441V67.438z"/>
					</defs>
					<clipPath id="SVGID_2_">
						<use xlink:href="#SVGID_1_"  overflow="visible"/>
					</clipPath>
					<g clip-path="url(#SVGID_2_)">
						
							<rect x="-29.594" y="38.616" transform="matrix(-0.7071 0.7071 -0.7071 -0.7071 79.5771 54.5734)" fill="#F5CDE1" width="116.159" height="10.303"/>
						
							<rect x="-21.893" y="50.182" transform="matrix(-0.7071 0.7071 -0.7071 -0.7071 98.1692 62.2754)" fill="#F5CDE1" width="116.159" height="2.575"/>
					</g>
				</g>
			</g>
			<g>
				<path fill="#F0AECE" d="M35.831,91.154l-7.838,0.34l0.341-7.838c0-1.326-1.078-2.405-2.407-2.405h-3.367
					c-1.327,0-2.407,1.079-2.407,2.405l0.343,7.838l-7.839-0.34c-1.328,0-2.406,1.079-2.406,2.408v3.367
					c0,1.327,1.079,2.406,2.406,2.406l7.839-0.342l-0.343,7.842c0,1.325,1.08,2.402,2.407,2.402h3.367
					c1.329,0,2.407-1.077,2.407-2.402l-0.341-7.842l7.838,0.342c1.328,0,2.406-1.079,2.406-2.406v-3.367
					C38.237,92.233,37.159,91.154,35.831,91.154z"/>
				<path fill="#54459C" d="M25.003,91.409c0,0.314-0.28,0.568-0.631,0.568l0,0c-0.347,0-0.632-0.254-0.632-0.568v-6.854
					c0-0.314,0.286-0.567,0.632-0.567l0,0c0.351,0,0.631,0.253,0.631,0.567V91.409z"/>
				<path fill="#54459C" d="M25.003,105.639c0,0.313-0.28,0.569-0.631,0.569l0,0c-0.347,0-0.632-0.256-0.632-0.569v-6.855
					c0-0.313,0.286-0.566,0.632-0.566l0,0c0.351,0,0.631,0.254,0.631,0.566V105.639z"/>
				<path fill="#54459C" d="M28.063,95.73c-0.315,0-0.571-0.283-0.571-0.631l0,0c0-0.351,0.255-0.633,0.571-0.633h6.854
					c0.313,0,0.567,0.282,0.567,0.633l0,0c0,0.348-0.253,0.631-0.567,0.631H28.063z"/>
				<path fill="#54459C" d="M13.832,95.73c-0.315,0-0.57-0.283-0.57-0.631l0,0c0-0.351,0.254-0.633,0.57-0.633h6.854
					c0.314,0,0.568,0.282,0.568,0.633l0,0c0,0.348-0.253,0.631-0.568,0.631H13.832z"/>
			</g>
			<circle fill="#54459C" cx="40.282" cy="81.851" r="1.494"/>
			<g>
				<circle fill="#948EC5" cx="73.603" cy="95.244" r="4.27"/>
				<circle fill="#948EC5" cx="57.079" cy="95.244" r="4.27"/>
				<circle fill="#948EC5" cx="65.341" cy="103.504" r="4.269"/>
				<circle fill="#948EC5" cx="65.341" cy="86.984" r="4.269"/>
			</g>
			<g>
				<path fill="#948EC5" d="M36.668,117.556c-0.494,0.491-1.295,0.491-1.788,0l0,0c-0.495-0.496-0.495-1.297,0-1.79l3.577-3.579
					c0.494-0.492,1.293-0.492,1.789,0l0,0c0.493,0.494,0.493,1.295,0,1.79L36.668,117.556z"/>
				<path fill="#948EC5" d="M42.781,117.556c-0.495,0.491-1.295,0.491-1.789,0l0,0c-0.494-0.496-0.494-1.297,0-1.79l3.576-3.579
					c0.494-0.492,1.295-0.492,1.789,0l0,0c0.496,0.494,0.496,1.295,0,1.79L42.781,117.556z"/>
			</g>
		</g>
		<g>
			<path fill="#F0AECE" d="M203.006,118.607c0,7.064-5.728,12.787-12.789,12.787H55.954c-7.062,0-12.784-5.723-12.784-12.787v-48.91
				c0-7.06,5.723-12.785,12.784-12.785h134.263c7.062,0,12.789,5.725,12.789,12.785V118.607z"/>
			<path fill="#FBD8E7" d="M198.494,116.482c0,6.451-6.052,11.675-12.655,11.675H60.332c-6.602,0-12.655-5.225-12.655-11.675V71.825
				c0-6.451,6.054-11.677,12.655-11.677h125.506c6.604,0,12.655,5.227,12.655,11.677L198.494,116.482L198.494,116.482z"/>
			<g>
				<path fill="#4769B2" d="M203.013,69.424c-0.079-3.216-1.349-6.132-3.383-8.337c-2.336-2.53-5.671-4.124-9.387-4.124h-9.792
					c-0.844,0.266-1.463,1.06-1.463,2.01c0,0.973,0.647,1.783,1.521,2.029h4.464c0.482,0,0.96,0.031,1.428,0.085
					c5.942,0.662,10.655,5.396,11.284,11.348c0.045,0.445,0.076,0.896,0.076,1.355v2.07c0.279,1.203,1.347,2.102,2.627,2.102
					c1.295,0,2.375-0.914,2.642-2.137v-6.074C203.031,69.639,203.017,69.535,203.013,69.424z"/>
				<path fill="#4769B2" d="M190.512,131.408c3.217-0.084,6.133-1.354,8.338-3.387c2.53-2.336,4.123-5.671,4.123-9.385v-9.794
					c-0.266-0.845-1.06-1.461-2.008-1.461c-0.974,0-1.783,0.647-2.03,1.521v4.463c0,0.483-0.035,0.959-0.085,1.429
					c-0.662,5.943-5.393,10.653-11.349,11.281c-0.446,0.048-0.897,0.076-1.354,0.076h-2.072c-1.204,0.282-2.104,1.348-2.104,2.63
					c0,1.295,0.916,2.375,2.141,2.642h6.074C190.294,131.424,190.403,131.408,190.512,131.408z"/>
				<path fill="#4769B2" d="M43.158,118.978c0.083,3.216,1.349,6.134,3.385,8.336c2.336,2.53,5.671,4.126,9.385,4.126h9.793
					c0.844-0.266,1.461-1.061,1.461-2.013c0-0.972-0.646-1.781-1.519-2.028h-4.465c-0.483,0-0.959-0.032-1.429-0.086
					c-5.942-0.66-10.654-5.392-11.28-11.345c-0.049-0.448-0.078-0.898-0.078-1.356v-2.07c-0.279-1.205-1.348-2.103-2.628-2.103
					c-1.296,0-2.376,0.913-2.639,2.138v6.074C43.144,118.761,43.153,118.868,43.158,118.978z"/>
				<path fill="#4769B2" d="M55.631,56.883c-3.217,0.083-6.134,1.352-8.339,3.387c-2.528,2.336-4.123,5.67-4.123,9.385v9.794
					c0.266,0.843,1.06,1.461,2.01,1.461c0.972,0,1.781-0.646,2.029-1.521v-4.463c0-0.482,0.033-0.96,0.083-1.428
					c0.662-5.945,5.396-10.656,11.349-11.285c0.446-0.046,0.897-0.076,1.354-0.076h2.073c1.205-0.281,2.103-1.349,2.103-2.628
					c0-1.296-0.917-2.373-2.14-2.639h-6.072C55.849,56.87,55.739,56.881,55.631,56.883z"/>
			</g>
			<path fill="#948EC5" d="M171.619,122.148c0,1.908-1.544,3.454-3.451,3.454H78.004c-1.908,0-3.452-1.547-3.452-3.454V68.626
				c0-1.907,1.544-3.451,3.452-3.451h90.165c1.907,0,3.451,1.544,3.451,3.451V122.148z"/>
			<path fill="#F0AECE" d="M167.993,119.155c0,1.694-1.43,3.066-3.194,3.066H81.372c-1.765,0-3.196-1.372-3.196-3.066V71.62
				c0-1.694,1.432-3.065,3.196-3.065H164.8c1.765,0,3.194,1.372,3.194,3.065L167.993,119.155L167.993,119.155z"/>
			<path fill="#54459C" d="M74.504,122.523c0,1.165-0.941,2.109-2.107,2.109h-2.283c-1.166,0-2.108-0.943-2.108-2.109v-3.569
				c0-1.165,0.941-2.109,2.108-2.109h2.283c1.165,0,2.107,0.944,2.107,2.109V122.523z"/>
			<path fill="#54459C" d="M72.266,68.515c0,0.386-0.316,0.702-0.703,0.702h-7.026c-0.389,0-0.703-0.316-0.703-0.702l0,0
				c0-0.388,0.314-0.703,0.703-0.703h7.026C71.95,67.812,72.266,68.126,72.266,68.515L72.266,68.515z"/>
			<circle fill="#54459C" cx="177.27" cy="116.817" r="1.699"/>
			<path fill="#54459C" d="M178.92,68.981l-1.266,0.057l0.056-1.265c0-0.214-0.172-0.387-0.388-0.387h-0.541
				c-0.213,0-0.387,0.174-0.387,0.387l0.053,1.265l-1.263-0.057c-0.215,0-0.39,0.175-0.39,0.387v0.543
				c0,0.218,0.176,0.391,0.39,0.391l1.263-0.056l-0.053,1.264c0,0.213,0.174,0.387,0.387,0.387h0.541
				c0.217,0,0.388-0.176,0.388-0.387l-0.056-1.264l1.266,0.056c0.215,0,0.389-0.174,0.389-0.391v-0.543
				C179.309,69.155,179.135,68.981,178.92,68.981z"/>
			<g>
				<path fill="#F0AECE" d="M69.271,98.443l-5.084,0.22l0.22-5.082c0-0.862-0.699-1.56-1.56-1.56h-2.186
					c-0.858,0-1.558,0.697-1.558,1.56l0.221,5.082l-5.083-0.22c-0.864,0-1.56,0.697-1.56,1.56v2.184c0,0.862,0.696,1.562,1.56,1.562
					l5.083-0.222l-0.221,5.084c0,0.862,0.7,1.559,1.558,1.559h2.186c0.86,0,1.56-0.696,1.56-1.559l-0.22-5.084l5.084,0.222
					c0.86,0,1.559-0.699,1.559-1.562v-2.183C70.831,99.14,70.132,98.443,69.271,98.443z"/>
				<path fill="#54459C" d="M62.248,98.608c0,0.206-0.18,0.37-0.409,0.37l0,0c-0.228,0-0.409-0.164-0.409-0.37v-4.444
					c0-0.203,0.18-0.367,0.409-0.367l0,0c0.228,0,0.409,0.164,0.409,0.367V98.608z"/>
				<path fill="#54459C" d="M62.248,107.838c0,0.203-0.18,0.369-0.409,0.369l0,0c-0.228,0-0.409-0.166-0.409-0.369v-4.444
					c0-0.206,0.18-0.369,0.409-0.369l0,0c0.228,0,0.409,0.163,0.409,0.369V107.838z"/>
				<path fill="#54459C" d="M64.232,101.41c-0.207,0-0.369-0.183-0.369-0.409l0,0c0-0.229,0.163-0.412,0.369-0.412h4.445
					c0.204,0,0.369,0.183,0.369,0.412l0,0c0,0.226-0.166,0.409-0.369,0.409H64.232z"/>
				<path fill="#54459C" d="M55.004,101.41c-0.203,0-0.369-0.183-0.369-0.409l0,0c0-0.229,0.166-0.412,0.369-0.412h4.446
					c0.204,0,0.367,0.183,0.367,0.412l0,0c0,0.226-0.163,0.409-0.367,0.409H55.004z"/>
			</g>
			<g>
				<path fill="#54459C" d="M68.167,80.28c0,3.544-2.87,6.411-6.411,6.411c-3.541,0-6.413-2.867-6.413-6.411
					c0-3.538,2.873-6.41,6.413-6.41C65.296,73.87,68.167,76.742,68.167,80.28z"/>
				<path fill="#948EC5" d="M67.047,80.28c0,2.924-2.368,5.292-5.29,5.292s-5.29-2.368-5.29-5.292c0-2.919,2.367-5.286,5.29-5.286
					S67.047,77.361,67.047,80.28z"/>
				<path fill="#B2B0D8" d="M66.46,80.28c0,2.601-2.106,4.705-4.704,4.705c-2.601,0-4.704-2.104-4.704-4.705
					c0-2.595,2.103-4.702,4.704-4.702C64.354,75.579,66.46,77.685,66.46,80.28z"/>
			</g>
			<g>
				<circle fill="#F0AECE" cx="192.528" cy="83.503" r="3.39"/>
				<circle fill="#F0AECE" cx="179.402" cy="83.503" r="3.39"/>
				<circle fill="#F0AECE" cx="185.965" cy="90.064" r="3.391"/>
				<circle fill="#F0AECE" cx="185.965" cy="76.94" r="3.39"/>
			</g>
			<g>
				<circle fill="#54459C" cx="185.965" cy="106.747" r="6.411"/>
				<path fill="#948EC5" d="M191.253,106.747c0,2.921-2.366,5.288-5.286,5.288c-2.924,0-5.292-2.367-5.292-5.288
					s2.368-5.29,5.292-5.29C188.887,101.457,191.253,103.826,191.253,106.747z"/>
				<path fill="#B2B0D8" d="M190.668,106.747c0,2.598-2.104,4.704-4.701,4.704c-2.601,0-4.706-2.106-4.706-4.704
					c0-2.599,2.105-4.704,4.706-4.704C188.564,102.043,190.668,104.148,190.668,106.747z"/>
			</g>
		</g>
	</g>
	<path fill="#F0AECE" d="M81.372,68.554c-1.765,0-3.196,1.372-3.196,3.065v26.198l29.264-29.264H81.372z"/>
	<polygon fill="#F5CDE1" points="107.439,68.554 78.176,97.818 78.176,116.823 126.445,68.554 	"/>
	<polygon fill="#F5CDE1" points="136.298,68.554 82.63,122.222 88.651,122.222 142.32,68.554 	"/>
</g>
</svg>
