<?xml version="1.0" encoding="utf-8"?>
<!-- Generator: Adobe Illustrator 16.0.0, SVG Export Plug-In . SVG Version: 6.00 Build 0)  -->
<!DOCTYPE svg PUBLIC "-//W3C//DTD SVG 1.1//EN" "http://www.w3.org/Graphics/SVG/1.1/DTD/svg11.dtd">
<svg version="1.1" id="Layer_1" xmlns="http://www.w3.org/2000/svg" xmlns:xlink="http://www.w3.org/1999/xlink" x="0px" y="0px"
	 width="222.475px" height="149.859px" viewBox="0 0 222.475 149.859" enable-background="new 0 0 222.475 149.859"
	 xml:space="preserve">
<g>
	<path fill="#2D2C7A" d="M132.977,86.279c0,0,2.776,0.77,14.686,6.457c-0.104-0.643,5.723-10.68,12.063-22.697
		c-4.275-2.242-8.791-4.484-13.537-6.678C142.038,71.705,137.433,80.057,132.977,86.279z"/>
	<path fill="#2D2C7A" d="M91.668,65.725c0,0,0.983-1.625,18.421,5.82c-0.223-0.561,4.01-8.799,8.771-19.113
		c-5.614-1.898-11.423-3.648-17.398-5.197C98.486,54.025,95.157,60.611,91.668,65.725z"/>
	<path fill="#2D2C7A" d="M131.463,16.807l-17.438-4.473c0,0-0.869,3.031-2.403,7.762c5.424,1.297,11.569,2.924,18.136,4.932
		C130.64,21.967,131.248,19.17,131.463,16.807z"/>
	<path fill="#2D2C7A" d="M166.072,107.715c0,0,2.778,0.77,14.688,6.457c-0.107-0.66,6.038-11.223,12.57-23.666
		c-3.546-2.494-7.806-5.365-12.702-8.441C176.145,91.287,171.018,100.811,166.072,107.715z"/>
	<path fill="#2D2C7A" d="M174.848,35.531l-14.073-5.021c0,0-0.769,1.969-2.111,5.221c4.69,2.086,9.377,4.365,13.976,6.859
		C173.608,39.994,174.371,37.604,174.848,35.531z"/>
	<path fill="#948EC5" d="M173.6,136.779l-8.849,1.717l-9.324-1.748l-5.925-2.721l-74.066-32.234l-9.324-1.75l-8.062,0.098
		l-3.313-2.07C39.336,91.549,17.027,58.789,4.48,38.762l-0.552,2.023c0,0-1.77-0.121-2.469,1.131C0.758,43.166,0,47.285,0,47.285
		s8.628,35.865,44.515,54.994l3.728,7.502l1.648,1.891l4.301,0.086l7.717-1.863l19.829,3.949l2.868,0.057l61.425,28.6l0.704,2.713
		l16.199,4.045l12.812,0.602l12.382-3.123l2.471-1.129l0.241-3.537l0.213-2.105l-1.011-4.24l0.205-0.41l-3.835-0.797L173.6,136.779z
		"/>
	<path fill="#FBD8E7" d="M215.811,97.285c-0.043,0.021-0.077,0.057-0.122,0.074c-0.671,0.264-1.288-0.102-1.383-0.814l-0.022-0.176
		c-0.409-0.219-0.744-0.375-0.953-0.461c0.209,0.086,0.544,0.242,0.953,0.461l-0.68-5.232l-5.076,1.994
		c-0.67,0.264-1.288-0.102-1.38-0.814c-0.094-0.715,0.374-1.508,1.045-1.77l5.073-1.994l-0.703-5.41
		c-0.092-0.713,0.376-1.506,1.047-1.77c0.67-0.264,1.287,0.104,1.382,0.818l0.703,5.406l4.007-1.574
		c-0.104-1.158-0.244-2.34-0.423-3.543c-1.695-2.211-4.646-3.73-5.51-4.092c0.863,0.361,3.814,1.881,5.51,4.092
		c-0.525-3.52-1.386-7.227-2.647-11.123c-1.687-1.645-3.863-2.756-4.586-3.057c0.723,0.301,2.899,1.412,4.586,3.057
		c-0.69-2.131-1.494-4.313-2.438-6.555l-1.986-0.246c-0.272-0.447-1.818-2.953-4.472-6.734c-0.634,2.477-1.628,5.35-2.869,8.461
		c-3.802-3.926-7.957-7.564-12.36-10.936c0.877-2.15,1.365-3.402,1.365-3.402l12.98,4.631
		c-11.113-15.578-38.306-48.756-71.45-53.928c0,0-25.965-9.223-61.307,6.756c0,0-8.42-0.848-14.119,5.533
		c0,0-6.7,14.037-10.574,13.703l-5.161-7.531c0,0-1.13-2.469-3.6-1.338c0,0-23.664,10.145-36.072,18.664L4.48,38.762
		C17.027,58.789,39.336,91.549,54.737,98.07l3.313,2.07l8.062-0.098l9.324,1.75l74.066,32.234l5.925,2.721l9.324,1.748l8.849-1.717
		l12.812-2.262l3.835,0.797l0.588-1.176l1.86-0.215l2.593,1.064c0,0,2.304-0.344,5.088-2.967c-1.468-2.711-5.141-4.613-6.123-5.023
		c0.982,0.41,4.655,2.313,6.123,5.023c0.518-0.488,1.05-1.045,1.589-1.703c0,0,1.958-1.463,4.581-4.344
		c-1.058-3.168-5.41-5.439-6.493-5.893c1.083,0.453,5.436,2.725,6.493,5.893c2.976-3.27,6.803-8.367,9.605-15.244
		c-1.357-2.857-5.241-4.879-6.256-5.301c1.015,0.422,4.898,2.443,6.256,5.301c1.258-3.086,2.311-6.529,2.983-10.328
		C218.285,99.131,216.988,98.066,215.811,97.285z M183.328,58.66c0.881-0.348,1.696,0.135,1.818,1.072l0.926,7.115l6.68-2.623
		c0.881-0.346,1.693,0.135,1.816,1.076c0.123,0.938-0.492,1.98-1.375,2.326l-6.679,2.625l0.926,7.117
		c0.122,0.939-0.494,1.982-1.376,2.328c-0.882,0.348-1.697-0.135-1.818-1.074l-0.926-7.115l-6.68,2.625
		c-0.882,0.346-1.695-0.135-1.818-1.074c-0.122-0.939,0.493-1.984,1.376-2.332l6.679-2.623l-0.925-7.115
		C181.83,60.049,182.445,59.006,183.328,58.66z M160.774,30.51l14.073,5.021c-0.477,2.072-1.239,4.463-2.209,7.059
		c-4.599-2.494-9.285-4.773-13.976-6.859C160.006,32.479,160.774,30.51,160.774,30.51z M151.226,41.137
		c0.881-0.35,1.695,0.133,1.818,1.072l0.926,7.117l6.68-2.625c0.881-0.346,1.694,0.137,1.817,1.076
		c0.122,0.939-0.493,1.98-1.376,2.328l-6.68,2.625l0.926,7.115c0.123,0.939-0.493,1.982-1.374,2.328
		c-0.883,0.348-1.697-0.135-1.819-1.074l-0.925-7.115l-6.681,2.625c-0.882,0.346-1.695-0.135-1.817-1.074
		c-0.123-0.939,0.492-1.982,1.375-2.33l6.68-2.625l-0.926-7.115C149.727,42.525,150.343,41.48,151.226,41.137z M114.025,12.334
		l17.438,4.473c-0.215,2.363-0.823,5.16-1.705,8.221c-6.566-2.008-12.712-3.635-18.136-4.932
		C113.156,15.365,114.025,12.334,114.025,12.334z M98.16,18.766c0.883-0.35,1.697,0.133,1.818,1.07l0.926,7.117l6.68-2.623
		c0.883-0.348,1.695,0.133,1.816,1.072c0.125,0.941-0.492,1.984-1.375,2.33l-6.678,2.623l0.926,7.117
		c0.121,0.939-0.494,1.982-1.376,2.328c-0.883,0.348-1.696-0.133-1.819-1.072l-0.926-7.117l-6.679,2.625
		c-0.882,0.346-1.696-0.133-1.817-1.072c-0.123-0.941,0.492-1.984,1.375-2.332l6.68-2.625l-0.926-7.115
		C96.663,20.152,97.279,19.111,98.16,18.766z M82.153,33.383c-0.882,0.346-1.696-0.135-1.818-1.074l-0.926-7.117l-6.679,2.625
		c-0.883,0.348-1.697-0.135-1.819-1.074s0.493-1.98,1.376-2.328l6.68-2.625l-0.926-7.115c-0.123-0.941,0.492-1.984,1.376-2.33
		c0.881-0.346,1.695,0.135,1.818,1.074l0.926,7.117l6.68-2.625c0.881-0.348,1.694,0.135,1.816,1.074
		c0.123,0.939-0.492,1.982-1.376,2.33l-6.679,2.623l0.926,7.115C83.651,31.994,83.035,33.035,82.153,33.383z M110.089,71.545
		c-17.438-7.445-18.421-5.82-18.421-5.82c3.489-5.113,6.818-11.699,9.794-18.49c5.976,1.549,11.784,3.299,17.398,5.197
		C114.099,62.746,109.866,70.984,110.089,71.545z M119.049,46.424c-0.883,0.346-1.697-0.137-1.818-1.076l-0.926-7.115l-6.679,2.625
		c-0.883,0.348-1.697-0.135-1.819-1.074c-0.123-0.939,0.493-1.982,1.375-2.328l6.68-2.625l-0.926-7.117
		c-0.123-0.939,0.493-1.982,1.377-2.328c0.881-0.348,1.695,0.135,1.816,1.074l0.926,7.117l6.68-2.625
		c0.883-0.348,1.696,0.135,1.818,1.074s-0.493,1.982-1.376,2.328l-6.679,2.625l0.926,7.115
		C120.547,45.033,119.931,46.076,119.049,46.424z M125.477,47.535c-0.122-0.938,0.492-1.982,1.375-2.328l6.679-2.625l-0.926-7.115
		c-0.121-0.941,0.495-1.984,1.378-2.33c0.881-0.346,1.695,0.135,1.818,1.074l0.926,7.115l6.678-2.623
		c0.883-0.346,1.695,0.133,1.818,1.074c0.123,0.939-0.494,1.98-1.375,2.328l-6.68,2.625l0.926,7.117
		c0.123,0.941-0.492,1.98-1.375,2.328c-0.883,0.346-1.697-0.135-1.819-1.072l-0.926-7.117l-6.679,2.625
		C126.413,48.955,125.599,48.477,125.477,47.535z M147.662,92.736c-11.909-5.688-14.686-6.457-14.686-6.457
		c4.456-6.223,9.062-14.574,13.211-22.918c4.746,2.193,9.262,4.436,13.537,6.678C153.385,82.057,147.558,92.094,147.662,92.736z
		 M159.326,63.906c-0.123-0.941,0.492-1.984,1.376-2.33l6.679-2.625l-0.926-7.117c-0.122-0.941,0.493-1.98,1.376-2.328
		c0.881-0.348,1.696,0.133,1.817,1.072l0.927,7.119l6.679-2.625c0.882-0.346,1.697,0.133,1.818,1.074
		c0.122,0.938-0.493,1.98-1.375,2.328l-6.68,2.625l0.926,7.115c0.122,0.939-0.494,1.982-1.376,2.328s-1.696-0.133-1.817-1.072
		l-0.926-7.117l-6.68,2.625C160.262,65.324,159.447,64.846,159.326,63.906z M180.76,114.172
		c-11.909-5.688-14.688-6.457-14.688-6.457c4.945-6.904,10.072-16.428,14.556-25.65c4.896,3.076,9.156,5.947,12.702,8.441
		C186.798,102.949,180.652,113.512,180.76,114.172z M199.743,87.775l-0.926-7.113l-6.68,2.625c-0.882,0.346-1.696-0.137-1.818-1.076
		s0.493-1.982,1.376-2.328l6.68-2.625l-0.926-7.117c-0.123-0.939,0.492-1.982,1.375-2.33c0.882-0.346,1.696,0.135,1.818,1.076
		l0.926,7.117l6.68-2.625c0.882-0.348,1.695,0.135,1.817,1.074c0.123,0.939-0.493,1.982-1.376,2.328l-6.679,2.625l0.926,7.115
		c0.123,0.939-0.493,1.982-1.376,2.33C200.68,89.197,199.865,88.715,199.743,87.775z M211.802,118.533
		c-0.822-3.357-5.485-5.787-6.61-6.258C206.316,112.746,210.979,115.176,211.802,118.533z"/>
	<path fill="#54459C" d="M90.657,18.984c-0.122-0.939-0.936-1.422-1.816-1.074l-6.68,2.625l-0.926-7.117
		c-0.123-0.939-0.938-1.42-1.818-1.074c-0.884,0.346-1.499,1.389-1.376,2.33l0.926,7.115l-6.68,2.625
		c-0.883,0.348-1.498,1.389-1.376,2.328s0.937,1.422,1.819,1.074l6.679-2.625l0.926,7.117c0.122,0.939,0.937,1.42,1.818,1.074
		c0.882-0.348,1.498-1.389,1.375-2.33l-0.926-7.115l6.679-2.623C90.165,20.967,90.78,19.924,90.657,18.984z"/>
	<path fill="#54459C" d="M109.4,25.402c-0.121-0.939-0.934-1.42-1.816-1.072l-6.68,2.623l-0.926-7.117
		c-0.121-0.938-0.936-1.42-1.818-1.07c-0.881,0.346-1.497,1.387-1.375,2.326l0.926,7.115l-6.68,2.625
		c-0.883,0.348-1.498,1.391-1.375,2.332c0.121,0.939,0.936,1.418,1.817,1.072l6.679-2.625l0.926,7.117
		c0.123,0.939,0.937,1.42,1.819,1.072c0.882-0.346,1.497-1.389,1.376-2.328l-0.926-7.117l6.678-2.623
		C108.908,27.387,109.525,26.344,109.4,25.402z"/>
	<path fill="#54459C" d="M127.553,32.025c-0.122-0.939-0.936-1.422-1.818-1.074l-6.68,2.625l-0.926-7.117
		c-0.121-0.939-0.936-1.422-1.816-1.074c-0.884,0.346-1.5,1.389-1.377,2.328l0.926,7.117l-6.68,2.625
		c-0.882,0.346-1.498,1.389-1.375,2.328c0.122,0.939,0.937,1.422,1.819,1.074l6.679-2.625l0.926,7.115
		c0.121,0.939,0.936,1.422,1.818,1.076c0.882-0.348,1.498-1.391,1.375-2.33l-0.926-7.115l6.679-2.625
		C127.06,34.008,127.675,32.965,127.553,32.025z"/>
	<path fill="#54459C" d="M145.223,39.777c-0.123-0.941-0.936-1.42-1.818-1.074l-6.678,2.623l-0.926-7.115
		c-0.123-0.939-0.938-1.42-1.818-1.074c-0.883,0.346-1.499,1.389-1.378,2.33l0.926,7.115l-6.679,2.625
		c-0.883,0.346-1.497,1.391-1.375,2.328c0.122,0.941,0.937,1.42,1.818,1.076l6.679-2.625l0.926,7.117
		c0.122,0.938,0.937,1.418,1.819,1.072c0.883-0.348,1.498-1.387,1.375-2.328l-0.926-7.117l6.68-2.625
		C144.729,41.758,145.346,40.717,145.223,39.777z"/>
	<path fill="#54459C" d="M162.467,47.777c-0.123-0.939-0.937-1.422-1.817-1.076l-6.68,2.625l-0.926-7.117
		c-0.123-0.939-0.938-1.422-1.818-1.072c-0.883,0.344-1.499,1.389-1.376,2.328l0.926,7.115l-6.68,2.625
		c-0.883,0.348-1.498,1.391-1.375,2.33c0.122,0.939,0.936,1.42,1.817,1.074l6.681-2.625l0.925,7.115
		c0.122,0.939,0.937,1.422,1.819,1.074c0.881-0.346,1.497-1.389,1.374-2.328l-0.926-7.115l6.68-2.625
		C161.974,49.758,162.589,48.717,162.467,47.777z"/>
	<path fill="#54459C" d="M179.072,56.146c-0.121-0.941-0.937-1.42-1.818-1.074l-6.679,2.625l-0.927-7.119
		c-0.121-0.939-0.937-1.42-1.817-1.072c-0.883,0.348-1.498,1.387-1.376,2.328l0.926,7.117l-6.679,2.625
		c-0.884,0.346-1.499,1.389-1.376,2.33c0.121,0.939,0.936,1.418,1.818,1.072l6.68-2.625l0.926,7.117
		c0.121,0.939,0.936,1.418,1.817,1.072s1.498-1.389,1.376-2.328l-0.926-7.115l6.68-2.625
		C178.579,58.127,179.194,57.084,179.072,56.146z"/>
	<path fill="#54459C" d="M194.568,65.301c-0.123-0.941-0.936-1.422-1.816-1.076l-6.68,2.623l-0.926-7.115
		c-0.122-0.938-0.938-1.42-1.818-1.072c-0.883,0.346-1.498,1.389-1.376,2.328l0.925,7.115l-6.679,2.623
		c-0.883,0.348-1.498,1.393-1.376,2.332c0.123,0.939,0.937,1.42,1.818,1.074l6.68-2.625l0.926,7.115
		c0.121,0.939,0.937,1.422,1.818,1.074c0.882-0.346,1.498-1.389,1.376-2.328l-0.926-7.117l6.679-2.625
		C194.076,67.281,194.691,66.238,194.568,65.301z"/>
	<path fill="#54459C" d="M210.065,74.453c-0.122-0.939-0.936-1.422-1.817-1.074l-6.68,2.625l-0.926-7.117
		c-0.122-0.941-0.937-1.422-1.818-1.076c-0.883,0.348-1.498,1.391-1.375,2.33l0.926,7.117l-6.68,2.625
		c-0.883,0.346-1.498,1.389-1.376,2.328s0.937,1.422,1.818,1.076l6.68-2.625l0.926,7.113c0.122,0.939,0.937,1.422,1.817,1.076
		c0.883-0.348,1.499-1.391,1.376-2.33l-0.926-7.115l6.679-2.625C209.572,76.436,210.188,75.393,210.065,74.453z"/>
	<path fill="#54459C" d="M221.005,84.801l-1.124,0.482l-4.224,1.805l-0.741-6.201c-0.1-0.82-0.75-1.24-1.457-0.938
		s-1.2,1.211-1.104,2.029l0.741,6.203l-5.347,2.289c-0.708,0.299-1.201,1.209-1.102,2.029c0.097,0.816,0.748,1.236,1.454,0.936
		l5.351-2.289l0.717,6.002l0.023,0.201c0.1,0.818,0.75,1.238,1.457,0.936c0.048-0.021,0.084-0.063,0.129-0.086
		c0.633-0.357,1.063-1.178,0.973-1.943l-0.74-6.201l4.059-1.736l1.289-0.551c0.707-0.303,1.201-1.213,1.103-2.027
		C222.364,84.918,221.712,84.498,221.005,84.801z"/>
</g>
</svg>
