<?xml version="1.0" encoding="utf-8"?>
<!-- Generator: Adobe Illustrator 16.0.0, SVG Export Plug-In . SVG Version: 6.00 Build 0)  -->
<!DOCTYPE svg PUBLIC "-//W3C//DTD SVG 1.1//EN" "http://www.w3.org/Graphics/SVG/1.1/DTD/svg11.dtd">
<svg version="1.1" id="Layer_1" xmlns="http://www.w3.org/2000/svg" xmlns:xlink="http://www.w3.org/1999/xlink" x="0px" y="0px"
	 width="201.069px" height="135.443px" viewBox="0 0 201.069 135.443" enable-background="new 0 0 201.069 135.443"
	 xml:space="preserve">
<g>
	<path fill="#2D2C7A" d="M120.183,77.978c0,0,2.51,0.695,13.273,5.836c-0.094-0.581,5.173-9.652,10.902-20.514
		c-3.863-2.026-7.945-4.052-12.234-6.036C128.372,64.806,124.21,72.355,120.183,77.978z"/>
	<path fill="#2D2C7A" d="M82.849,59.402c0,0,0.888-1.469,16.648,5.259c-0.202-0.507,3.624-7.952,7.927-17.273
		c-5.073-1.716-10.324-3.297-15.724-4.697C89.01,48.827,86.002,54.78,82.849,59.402z"/>
	<path fill="#2D2C7A" d="M118.815,15.19l-15.76-4.043c0,0-0.786,2.739-2.171,7.016c4.902,1.172,10.456,2.643,16.391,4.457
		C118.072,19.853,118.621,17.325,118.815,15.19z"/>
	<path fill="#2D2C7A" d="M150.094,97.351c0,0,2.511,0.696,13.275,5.836c-0.098-0.596,5.457-10.143,11.36-21.39
		c-3.204-2.253-7.056-4.848-11.479-7.628C159.198,82.504,154.564,91.112,150.094,97.351z"/>
	<path fill="#2D2C7A" d="M158.026,32.113l-12.719-4.538c0,0-0.695,1.779-1.907,4.719c4.238,1.885,8.475,3.945,12.631,6.198
		C156.905,36.146,157.595,33.986,158.026,32.113z"/>
	<path fill="#948EC5" d="M156.898,123.62l-7.997,1.551l-8.427-1.579l-5.355-2.459l-66.94-29.134l-8.427-1.581l-7.286,0.089
		l-2.995-1.871C35.552,82.741,15.388,53.133,4.049,35.033L3.55,36.861c0,0-1.599-0.109-2.231,1.022C0.685,39.013,0,42.736,0,42.736
		S7.798,75.15,40.232,92.439l3.37,6.779l1.489,1.709l3.887,0.078l6.976-1.684l17.92,3.569l2.592,0.052l55.515,25.848l0.637,2.452
		l14.641,3.655l11.58,0.545l11.19-2.823l2.232-1.02l0.219-3.197l0.192-1.902l-0.914-3.832l0.186-0.37l-3.466-0.721L156.898,123.62z"
		/>
	<path fill="#FBD8E7" d="M195.048,87.926c-0.039,0.019-0.07,0.051-0.111,0.066c-0.605,0.238-1.164-0.093-1.249-0.736l-0.02-0.158
		c-0.37-0.198-0.673-0.339-0.861-0.417c0.188,0.078,0.491,0.219,0.861,0.417l-0.615-4.729l-4.588,1.802
		c-0.605,0.239-1.164-0.092-1.247-0.735c-0.085-0.646,0.338-1.363,0.944-1.601l4.585-1.801l-0.635-4.89
		c-0.084-0.645,0.34-1.361,0.945-1.601c0.605-0.238,1.164,0.095,1.25,0.74l0.635,4.886l3.622-1.423
		c-0.095-1.047-0.221-2.114-0.383-3.202c-1.531-1.998-4.198-3.372-4.979-3.698c0.78,0.326,3.447,1.7,4.979,3.698
		c-0.474-3.182-1.253-6.532-2.392-10.053c-1.525-1.487-3.492-2.491-4.146-2.764c0.653,0.273,2.62,1.276,4.146,2.764
		c-0.624-1.926-1.351-3.898-2.204-5.924l-1.794-0.222c-0.247-0.404-1.645-2.669-4.043-6.086c-0.572,2.238-1.471,4.835-2.592,7.647
		c-3.438-3.548-7.191-6.836-11.172-9.884c0.793-1.943,1.234-3.075,1.234-3.075l11.73,4.185
		c-10.044-14.079-34.62-44.065-64.576-48.739c0,0-23.466-8.336-55.408,6.106c0,0-7.609-0.766-12.761,5.001
		c0,0-6.055,12.687-9.557,12.385l-4.664-6.807c0,0-1.022-2.231-3.254-1.209c0,0-21.387,9.168-32.602,16.869l-0.081,0.295
		c11.34,18.1,31.503,47.708,45.422,53.602l2.995,1.871l7.286-0.089l8.427,1.581l66.94,29.134l5.355,2.459l8.427,1.58l7.997-1.552
		l11.58-2.044l3.466,0.72l0.531-1.063l1.681-0.195l2.344,0.962c0,0,2.082-0.311,4.599-2.681c-1.326-2.45-4.646-4.17-5.534-4.541
		c0.888,0.371,4.208,2.092,5.534,4.541c0.468-0.441,0.949-0.945,1.437-1.54c0,0,1.77-1.322,4.14-3.926
		c-0.956-2.863-4.89-4.916-5.868-5.326c0.979,0.409,4.912,2.463,5.868,5.326c2.689-2.956,6.148-7.562,8.681-13.777
		c-1.226-2.582-4.736-4.409-5.654-4.791c0.918,0.382,4.428,2.208,5.654,4.791c1.138-2.789,2.089-5.901,2.696-9.334
		C197.284,89.594,196.111,88.632,195.048,87.926z M165.691,53.016c0.796-0.314,1.532,0.122,1.643,0.969l0.836,6.431l6.038-2.371
		c0.796-0.313,1.53,0.122,1.641,0.972c0.111,0.848-0.443,1.79-1.242,2.102l-6.036,2.373l0.837,6.433
		c0.11,0.849-0.447,1.792-1.244,2.104c-0.797,0.314-1.534-0.122-1.643-0.971l-0.837-6.431l-6.037,2.373
		c-0.797,0.313-1.532-0.122-1.644-0.97c-0.109-0.849,0.445-1.793,1.243-2.108l6.037-2.371l-0.836-6.431
		C164.336,54.271,164.892,53.329,165.691,53.016z M145.306,27.575l12.719,4.538c-0.431,1.873-1.12,4.034-1.996,6.379
		c-4.156-2.253-8.392-4.313-12.631-6.198C144.612,29.354,145.306,27.575,145.306,27.575z M136.676,37.179
		c0.797-0.317,1.532,0.12,1.644,0.968l0.837,6.433l6.037-2.373c0.796-0.313,1.531,0.124,1.643,0.973
		c0.11,0.848-0.446,1.789-1.244,2.104l-6.036,2.373l0.836,6.431c0.111,0.848-0.445,1.791-1.241,2.104
		c-0.798,0.315-1.534-0.122-1.645-0.97l-0.836-6.431l-6.038,2.373c-0.798,0.313-1.532-0.122-1.643-0.971
		c-0.111-0.849,0.445-1.791,1.243-2.106l6.037-2.372l-0.837-6.431C135.322,38.434,135.878,37.49,136.676,37.179z M103.054,11.147
		l15.76,4.043c-0.193,2.135-0.743,4.663-1.541,7.43c-5.934-1.814-11.488-3.285-16.391-4.457
		C102.269,13.886,103.054,11.147,103.054,11.147z M88.717,16.961c0.798-0.317,1.533,0.12,1.643,0.967l0.836,6.432l6.038-2.371
		c0.798-0.314,1.531,0.12,1.641,0.969c0.113,0.851-0.444,1.793-1.243,2.106l-6.035,2.371l0.836,6.432
		c0.109,0.849-0.446,1.791-1.243,2.104c-0.798,0.315-1.532-0.12-1.644-0.968l-0.838-6.433l-6.036,2.373
		c-0.797,0.313-1.533-0.12-1.643-0.969c-0.11-0.85,0.445-1.792,1.243-2.107l6.038-2.373l-0.836-6.431
		C87.364,18.213,87.919,17.272,88.717,16.961z M74.249,30.171c-0.797,0.313-1.532-0.122-1.643-0.97l-0.837-6.433l-6.037,2.373
		c-0.798,0.314-1.533-0.122-1.644-0.971c-0.11-0.848,0.445-1.789,1.244-2.104l6.037-2.373l-0.836-6.431
		c-0.111-0.85,0.444-1.792,1.244-2.105c0.796-0.313,1.531,0.122,1.643,0.97l0.837,6.433l6.037-2.373
		c0.796-0.314,1.531,0.122,1.641,0.971c0.111,0.848-0.444,1.791-1.244,2.106l-6.036,2.371l0.837,6.431
		C75.603,28.916,75.047,29.857,74.249,30.171z M99.497,64.661c-15.761-6.728-16.648-5.259-16.648-5.259
		c3.153-4.622,6.162-10.574,8.852-16.711c5.401,1.4,10.65,2.981,15.724,4.697C103.121,56.709,99.295,64.155,99.497,64.661z
		 M107.595,41.957c-0.798,0.313-1.534-0.124-1.644-0.972l-0.836-6.431l-6.036,2.373c-0.798,0.314-1.534-0.122-1.645-0.971
		c-0.111-0.848,0.446-1.791,1.243-2.104l6.037-2.373l-0.837-6.433c-0.111-0.848,0.446-1.791,1.245-2.103
		c0.796-0.315,1.532,0.122,1.642,0.97l0.837,6.433l6.037-2.373c0.799-0.314,1.533,0.122,1.644,0.971
		c0.11,0.848-0.446,1.791-1.244,2.104l-6.036,2.373l0.837,6.431C108.949,40.7,108.392,41.643,107.595,41.957z M113.405,42.962
		c-0.11-0.848,0.445-1.791,1.243-2.104l6.036-2.372l-0.837-6.431c-0.109-0.85,0.447-1.793,1.245-2.105
		c0.796-0.313,1.532,0.122,1.644,0.97l0.837,6.431l6.035-2.371c0.799-0.313,1.532,0.12,1.644,0.971
		c0.111,0.848-0.447,1.789-1.243,2.104l-6.037,2.372l0.837,6.433c0.111,0.85-0.444,1.789-1.242,2.104
		c-0.798,0.313-1.534-0.122-1.645-0.969l-0.837-6.432l-6.036,2.373C114.251,44.245,113.515,43.813,113.405,42.962z M133.455,83.814
		c-10.763-5.142-13.273-5.836-13.273-5.836c4.027-5.624,8.19-13.172,11.94-20.713c4.289,1.982,8.37,4.009,12.234,6.036
		C138.628,74.163,133.362,83.234,133.455,83.814z M143.997,57.758c-0.111-0.851,0.444-1.793,1.244-2.106l6.036-2.373l-0.837-6.432
		c-0.11-0.85,0.445-1.789,1.243-2.104c0.797-0.314,1.532,0.121,1.642,0.969l0.839,6.435l6.036-2.373
		c0.797-0.313,1.534,0.12,1.643,0.971c0.11,0.847-0.445,1.789-1.242,2.104l-6.037,2.373l0.836,6.43
		c0.11,0.849-0.445,1.792-1.243,2.104c-0.797,0.313-1.532-0.12-1.642-0.968l-0.837-6.433l-6.038,2.373
		C144.843,59.039,144.107,58.608,143.997,57.758z M163.369,103.187c-10.764-5.141-13.275-5.836-13.275-5.836
		c4.47-6.239,9.103-14.848,13.156-23.182c4.424,2.78,8.275,5.375,11.479,7.628C168.826,93.045,163.271,102.592,163.369,103.187z
		 M180.527,79.33l-0.838-6.429l-6.037,2.373c-0.797,0.313-1.533-0.124-1.644-0.973c-0.11-0.848,0.445-1.791,1.243-2.104l6.038-2.373
		l-0.837-6.431c-0.111-0.85,0.444-1.792,1.243-2.106c0.797-0.313,1.532,0.122,1.643,0.973l0.837,6.432l6.037-2.372
		c0.798-0.314,1.532,0.123,1.643,0.971c0.111,0.849-0.446,1.792-1.244,2.104l-6.036,2.373l0.837,6.431
		c0.111,0.848-0.445,1.791-1.244,2.105C181.372,80.615,180.636,80.179,180.527,79.33z M191.425,107.129
		c-0.744-3.033-4.958-5.23-5.975-5.655C186.466,101.898,190.681,104.095,191.425,107.129z"/>
	<path fill="#54459C" d="M81.934,17.157c-0.109-0.849-0.845-1.285-1.641-0.971l-6.037,2.373l-0.837-6.433
		c-0.111-0.848-0.848-1.283-1.643-0.97c-0.8,0.313-1.355,1.255-1.244,2.105l0.836,6.431l-6.037,2.373
		c-0.799,0.315-1.354,1.256-1.244,2.104c0.11,0.849,0.846,1.285,1.644,0.971l6.037-2.373l0.837,6.433
		c0.11,0.848,0.846,1.283,1.643,0.97c0.798-0.314,1.354-1.255,1.243-2.105l-0.837-6.431l6.036-2.371
		C81.49,18.949,82.046,18.007,81.934,17.157z"/>
	<path fill="#54459C" d="M98.874,22.958c-0.109-0.849-0.844-1.284-1.641-0.969l-6.038,2.371l-0.836-6.432
		c-0.11-0.848-0.846-1.284-1.643-0.967c-0.797,0.313-1.353,1.253-1.243,2.102l0.836,6.431l-6.038,2.373
		c-0.798,0.315-1.354,1.258-1.243,2.107c0.11,0.849,0.847,1.282,1.643,0.969l6.036-2.373l0.838,6.433
		c0.111,0.848,0.846,1.283,1.644,0.968c0.797-0.313,1.353-1.255,1.243-2.104l-0.836-6.432l6.035-2.371
		C98.43,24.753,98.988,23.81,98.874,22.958z"/>
	<path fill="#54459C" d="M115.281,28.944c-0.11-0.849-0.846-1.285-1.644-0.971l-6.037,2.372l-0.837-6.432
		c-0.109-0.848-0.846-1.285-1.642-0.97c-0.799,0.313-1.355,1.255-1.245,2.104l0.837,6.432l-6.037,2.373
		c-0.797,0.313-1.354,1.256-1.243,2.104c0.11,0.849,0.847,1.285,1.645,0.971l6.036-2.373l0.836,6.431
		c0.109,0.848,0.847,1.285,1.644,0.972c0.797-0.314,1.354-1.257,1.243-2.105l-0.837-6.431l6.036-2.373
		C114.835,30.736,115.392,29.793,115.281,28.944z"/>
	<path fill="#54459C" d="M131.251,35.95c-0.111-0.851-0.846-1.283-1.644-0.971l-6.035,2.371l-0.837-6.431
		c-0.111-0.848-0.848-1.283-1.644-0.97c-0.798,0.312-1.354,1.255-1.245,2.105l0.837,6.431l-6.036,2.372
		c-0.798,0.313-1.354,1.258-1.243,2.104c0.11,0.851,0.848,1.283,1.644,0.973l6.036-2.373l0.837,6.432
		c0.11,0.848,0.847,1.282,1.645,0.969c0.798-0.314,1.354-1.253,1.242-2.104l-0.837-6.433l6.037-2.372
		C130.804,37.74,131.363,36.799,131.251,35.95z"/>
	<path fill="#54459C" d="M146.836,43.18c-0.111-0.849-0.848-1.285-1.643-0.973l-6.037,2.373l-0.837-6.433
		c-0.111-0.848-0.848-1.285-1.644-0.968c-0.798,0.311-1.354,1.255-1.243,2.104l0.837,6.431l-6.037,2.372
		c-0.798,0.315-1.354,1.258-1.243,2.106c0.11,0.849,0.846,1.283,1.643,0.971l6.038-2.373l0.836,6.431
		c0.11,0.848,0.848,1.285,1.645,0.97c0.796-0.313,1.353-1.255,1.241-2.104l-0.836-6.431l6.036-2.373
		C146.39,44.97,146.947,44.03,146.836,43.18z"/>
	<path fill="#54459C" d="M161.843,50.744c-0.108-0.851-0.847-1.283-1.643-0.971l-6.036,2.373l-0.839-6.435
		c-0.109-0.848-0.846-1.283-1.642-0.969c-0.798,0.315-1.354,1.254-1.243,2.104l0.837,6.432l-6.036,2.373
		c-0.8,0.313-1.355,1.255-1.244,2.106c0.109,0.849,0.846,1.282,1.643,0.969l6.037-2.373l0.838,6.433
		c0.109,0.848,0.846,1.281,1.642,0.968c0.796-0.312,1.354-1.255,1.243-2.104l-0.836-6.43l6.037-2.373
		C161.398,52.534,161.953,51.592,161.843,50.744z"/>
	<path fill="#54459C" d="M175.848,59.019c-0.11-0.851-0.845-1.286-1.641-0.973l-6.038,2.371l-0.836-6.431
		c-0.11-0.848-0.848-1.283-1.643-0.969c-0.799,0.312-1.354,1.255-1.244,2.104l0.836,6.431l-6.037,2.371
		c-0.798,0.314-1.353,1.259-1.243,2.107c0.111,0.849,0.847,1.284,1.644,0.97l6.037-2.373l0.837,6.431
		c0.109,0.849,0.847,1.285,1.643,0.971c0.797-0.312,1.354-1.255,1.244-2.104l-0.837-6.432l6.036-2.373
		C175.405,60.808,175.959,59.865,175.848,59.019z"/>
	<path fill="#54459C" d="M189.855,67.29c-0.11-0.848-0.846-1.285-1.643-0.971l-6.037,2.372l-0.837-6.432
		c-0.11-0.851-0.847-1.286-1.643-0.973c-0.799,0.314-1.354,1.257-1.243,2.106l0.837,6.431l-6.038,2.373
		c-0.798,0.313-1.354,1.256-1.243,2.104c0.11,0.849,0.848,1.286,1.644,0.973l6.037-2.373l0.838,6.429
		c0.109,0.849,0.846,1.285,1.641,0.973c0.799-0.314,1.355-1.258,1.244-2.105l-0.837-6.431l6.036-2.373
		C189.408,69.082,189.966,68.139,189.855,67.29z"/>
	<path fill="#54459C" d="M199.742,76.642l-1.017,0.436l-3.817,1.631l-0.669-5.604c-0.092-0.741-0.678-1.121-1.317-0.848
		c-0.639,0.273-1.085,1.094-0.998,1.834l0.67,5.606l-4.832,2.069c-0.64,0.271-1.086,1.093-0.997,1.833
		c0.089,0.738,0.677,1.117,1.314,0.847l4.837-2.069l0.647,5.425l0.021,0.182c0.091,0.739,0.678,1.118,1.317,0.846
		c0.043-0.019,0.075-0.057,0.116-0.077c0.572-0.323,0.961-1.064,0.88-1.757l-0.669-5.604l3.668-1.569l1.165-0.498
		c0.639-0.274,1.086-1.096,0.997-1.832C200.97,76.748,200.381,76.368,199.742,76.642z"/>
</g>
</svg>
