<?xml version="1.0" encoding="utf-8"?>
<!-- Generator: Adobe Illustrator 16.0.0, SVG Export Plug-In . SVG Version: 6.00 Build 0)  -->
<!DOCTYPE svg PUBLIC "-//W3C//DTD SVG 1.1//EN" "http://www.w3.org/Graphics/SVG/1.1/DTD/svg11.dtd">
<svg version="1.1" id="Layer_1" xmlns="http://www.w3.org/2000/svg" xmlns:xlink="http://www.w3.org/1999/xlink" x="0px" y="0px"
	 width="170.995px" height="53.779px" viewBox="0 0 170.995 53.779" enable-background="new 0 0 170.995 53.779"
	 xml:space="preserve">
<g>
	<path fill="#557EBF" d="M21.356,19.159v5.756H35.11c-0.421,3.227-1.497,5.59-3.134,7.25c-2.012,2.012-5.146,4.211-10.62,4.211
		c-8.468,0-15.088-6.83-15.088-15.298s6.62-15.3,15.088-15.3c4.562,0,7.906,1.802,10.362,4.116l4.047-4.046
		C32.351,2.526,27.767,0,21.356,0C9.754,0,0,9.452,0,21.055s9.754,21.052,21.356,21.052c6.27,0,10.994-2.058,14.689-5.895
		c3.79-3.789,4.984-9.146,4.984-13.451c0-1.333-0.094-2.571-0.306-3.602H21.356z"/>
	<path fill="#EA4535" d="M58.222,14.481c-7.509,0-13.637,5.708-13.637,13.59c0,7.813,6.128,13.593,13.637,13.593
		c7.511,0,13.64-5.757,13.64-13.593C71.861,20.189,65.732,14.481,58.222,14.481 M58.222,36.306c-4.117,0-7.673-3.392-7.673-8.234
		c0-4.888,3.556-8.232,7.673-8.232s7.674,3.345,7.674,8.232C65.896,32.914,62.339,36.306,58.222,36.306"/>
	<path fill="#557EBF" d="M125.077,17.522h-0.211c-1.333-1.593-3.907-3.041-7.158-3.041c-6.783,0-12.702,5.918-12.702,13.59
		c0,7.625,5.919,13.593,12.702,13.593c3.251,0,5.825-1.45,7.158-3.089h0.211v1.895c0,5.194-2.784,7.977-7.252,7.977
		c-3.648,0-5.918-2.62-6.854-4.844l-5.193,2.154c1.498,3.602,5.451,8.022,12.047,8.022c6.994,0,12.912-4.119,12.912-14.151V15.181
		h-5.66V17.522z M118.224,36.306c-4.117,0-7.252-3.511-7.252-8.234c0-4.795,3.135-8.232,7.252-8.232c4.069,0,7.251,3.507,7.251,8.28
		C125.498,32.866,122.293,36.306,118.224,36.306"/>
	<path fill="#F9BC15" d="M88.633,14.481c-7.511,0-13.64,5.708-13.64,13.59c0,7.813,6.129,13.593,13.64,13.593
		c7.507,0,13.638-5.757,13.638-13.593C102.271,20.189,96.14,14.481,88.633,14.481 M88.633,36.306c-4.117,0-7.674-3.392-7.674-8.234
		c0-4.888,3.557-8.232,7.674-8.232c4.116,0,7.671,3.345,7.671,8.232C96.304,32.914,92.749,36.306,88.633,36.306"/>
	<rect x="135.416" y="0.563" fill="#36A852" width="5.871" height="41.101"/>
	<path fill="#EA4535" d="M159.415,36.306c-3.04,0-5.192-1.38-6.596-4.117l18.176-7.508l-0.607-1.544
		c-1.123-3.041-4.586-8.655-11.627-8.655c-6.993,0-12.818,5.496-12.818,13.59c0,7.625,5.753,13.593,13.473,13.593
		c6.224,0,9.825-3.813,11.322-6.013l-4.631-3.088C164.562,34.81,162.456,36.306,159.415,36.306z M158.996,19.579
		c2.407,0,4.466,1.242,5.146,2.996l-12.281,5.074C151.86,21.944,155.908,19.579,158.996,19.579"/>
</g>
</svg>
