<?xml version="1.0" encoding="utf-8"?>
<!-- Generator: Adobe Illustrator 16.0.0, SVG Export Plug-In . SVG Version: 6.00 Build 0)  -->
<!DOCTYPE svg PUBLIC "-//W3C//DTD SVG 1.1//EN" "http://www.w3.org/Graphics/SVG/1.1/DTD/svg11.dtd">
<svg version="1.1" id="Layer_1" xmlns="http://www.w3.org/2000/svg" xmlns:xlink="http://www.w3.org/1999/xlink" x="0px" y="0px"
	 width="321.794px" height="604.302px" viewBox="0.227 -0.04 321.794 604.302" enable-background="new 0.227 -0.04 321.794 604.302"
	 xml:space="preserve">
<g>
	<path fill="#E9B1CE" d="M172.633,580.589c-19.159-0.645-39.82-4.731-60.623-12.227c-15.443-5.566-30.987-12.488-44.635-21.667
		c-19.882-13.373-38.937-33.642-48.737-55.762c-7.577-17.102-5.524-36.854,1.517-54.184c-1.257,1.714-2.496,3.441-3.702,5.193
		C2.438,462.304-5.415,490.93,5.032,514.516c9.801,22.12,28.856,42.388,48.737,55.763c13.648,9.178,29.191,16.1,44.634,21.665
		c20.804,7.497,41.465,11.584,60.624,12.229c26.937-6.114,47.683-21.298,56.497-45.755c0.201-0.555,0.389-1.139,0.582-1.711
		C205.378,568.627,190.344,576.569,172.633,580.589z"/>
	<path fill="#F5C6DD" d="M180.28,271.821c-15.65-5.64-30.379-9.442-43.679-10.903c-7.341,0.521-13.5,5.506-18.028,10.704
		c-4.925,5.65-7.919,11.553-8.389,12.238c-3.883,5.667-5.683,12.746-7.571,19.261c-2.405,8.298-4.545,16.667-6.644,25.044
		c-1.867,7.457-3.854,14.851-6.588,21.946c-2.073,5.379-4.573,10.582-7.782,15.51c-7.019,10.772-16.091,20.003-24.931,29.263
		c-12.786,13.39-25.549,26.915-36.514,41.864c-7.041,17.329-9.092,37.081-1.517,54.184c9.801,22.12,28.856,42.388,48.737,55.762
		c13.647,9.179,29.191,16.101,44.634,21.667c20.804,7.496,41.465,11.583,60.623,12.227c17.71-4.02,32.746-11.962,43.473-23.882
		c2.664-7.893,4.675-17.288,5.399-25.418c1.835-20.612,0.498-41.312-0.958-61.896c-0.902-12.771-2.003-25.666-0.537-38.44
		c1.557-13.548,6.992-25.827,12.822-38.011c3.729-7.792,7.419-15.603,10.857-23.526c2.63-6.06,5.659-12.473,6.395-19.121
		C259.363,314.717,228.833,289.317,180.28,271.821z"/>
	<path fill="#53459B" d="M253.759,67.458l-4.693-1.691l0.091-0.25c0.799-2.218-0.354-4.665-2.57-5.465
		c-2.22-0.799-4.667,0.354-5.466,2.57l-1.104,3.058c-0.799,2.218,0.354,4.667,2.572,5.465c2.218,0.799,4.666-0.351,5.465-2.568
		l0.089-0.25l4.694,1.691L253.759,67.458z"/>
	<path fill="#53459B" d="M260.408,44.102l-4.696-1.689l0.093-0.25c0.798-2.218-0.352-4.665-2.571-5.466
		c-2.22-0.799-4.667,0.352-5.465,2.569l-1.103,3.06c-0.799,2.218,0.352,4.667,2.571,5.465c2.218,0.801,4.666-0.351,5.464-2.57
		l0.092-0.248l4.692,1.692L260.408,44.102z"/>
	<path fill="#53459B" d="M267.054,20.747l-4.692-1.688l0.088-0.252c0.8-2.218-0.351-4.665-2.568-5.463
		c-2.219-0.801-4.667,0.352-5.466,2.571l-1.102,3.058c-0.8,2.218,0.352,4.667,2.569,5.465c2.22,0.799,4.666-0.353,5.465-2.571
		l0.091-0.25l4.692,1.692L267.054,20.747z"/>
	<path fill="#53459B" d="M289.528,80.346l4.693,1.69l0.091-0.248c0.799-2.219,3.244-3.369,5.464-2.57
		c2.218,0.8,3.37,3.248,2.569,5.465l-1.102,3.059c-0.8,2.217-3.246,3.368-5.465,2.569c-2.218-0.799-3.371-3.247-2.571-5.465
		l0.091-0.248l-4.692-1.691L289.528,80.346z"/>
	<path fill="#53459B" d="M299.168,59.321l4.694,1.692l0.092-0.251c0.799-2.218,3.246-3.368,5.464-2.569
		c2.221,0.801,3.37,3.245,2.571,5.465l-1.103,3.058c-0.799,2.217-3.247,3.37-5.466,2.571c-2.219-0.799-3.368-3.248-2.568-5.466
		l0.09-0.247l-4.694-1.692L299.168,59.321z"/>
	<path fill="#53459B" d="M308.945,37.093l4.695,1.69l0.089-0.248c0.8-2.218,3.247-3.37,5.468-2.57c2.216,0.8,3.369,3.247,2.57,5.465
		l-1.104,3.06c-0.801,2.215-3.246,3.367-5.466,2.568c-2.218-0.8-3.369-3.247-2.57-5.465l0.091-0.25l-4.693-1.689L308.945,37.093z"/>
	<path fill="#EFA6CA" d="M318.926,18.391l0.029-0.071l-0.013-0.005c0.656-2.703-9.169-8.606-22.188-13.3
		c-13.021-4.69-24.354-6.408-25.573-3.911L271.169,1.1l-0.022,0.077c-0.005,0.008-0.012,0.019-0.016,0.029
		c-0.011,0.028-0.013,0.058-0.02,0.087l-23.347,78.143l0.021,0.008l0.791,11.07l30.745,11.079l7.671-8.021l0.022,0.008
		l31.862-75.077c0.012-0.027,0.029-0.052,0.038-0.08C318.922,18.415,318.922,18.402,318.926,18.391z"/>
	<circle fill="#54459C" cx="276.542" cy="23.846" r="4.534"/>
	<circle fill="#FFFFFF" cx="276.543" cy="23.845" r="3.023"/>
	<circle fill="#54459C" cx="299.653" cy="32.174" r="4.535"/>
	<circle fill="#FFFFFF" cx="299.655" cy="32.174" r="3.024"/>
	<circle fill="#54459C" cx="260.349" cy="68.787" r="4.535"/>
	<circle fill="#FFFFFF" cx="260.376" cy="68.718" r="3.024"/>
	<circle fill="#54459C" cx="283.46" cy="77.115" r="4.534"/>
	<circle fill="#FFFFFF" cx="283.486" cy="77.045" r="3.023"/>
	<circle fill="#54459C" cx="290.854" cy="55.034" r="4.535"/>
	<circle fill="#FFFFFF" cx="290.878" cy="54.965" r="3.024"/>
	<circle fill="#54459C" cx="268.881" cy="47.116" r="4.535"/>
	<circle fill="#FFFFFF" cx="268.853" cy="47.027" r="3.023"/>
	<path fill="#54459C" d="M214.834,268.813c-31.023-11.177-58.426-15.157-78.232-7.896c13.3,1.459,28.028,5.264,43.679,10.903
		c48.553,17.496,79.084,42.896,69.805,78.472c-0.735,6.649-3.765,13.063-6.395,19.121c-3.438,7.924-7.129,15.736-10.857,23.527
		c-5.83,12.185-11.266,24.464-12.822,38.011c-1.466,12.774-0.365,25.67,0.537,38.44c1.455,20.585,2.793,41.285,0.957,61.896
		c-0.777,8.719-3.021,18.916-5.979,27.129c-8.814,24.457-29.561,39.641-56.498,45.755c43.195,1.452,78.749-14.619,91.051-48.761
		c2.961-8.215,5.204-18.411,5.98-27.13c1.837-20.613,0.501-41.312-0.956-61.896c-0.904-12.771-2.004-25.666-0.537-38.438
		c1.557-13.552,6.992-25.828,12.822-38.014c3.727-7.793,7.418-15.602,10.856-23.526c2.629-6.058,5.66-12.473,6.396-19.119
		C293.919,311.71,263.388,286.309,214.834,268.813z"/>
	<path fill="#E99EC5" d="M92.533,484.764c0,0-12.48-6.711-19.724-10.582l-5.975,16.581l20.016,12.514l0.256,0.093l5.981-18.409
		L92.533,484.764z"/>
	<path fill="#F8D5D8" d="M100.568,494.001c-1.57-0.565-3.304,0.248-3.87,1.821c-0.566,1.568,0.249,3.302,1.82,3.867
		c1.57,0.566,3.304-0.247,3.87-1.817C102.952,496.299,102.139,494.567,100.568,494.001z M98.876,498.694
		c-1.02-0.367-1.549-1.494-1.182-2.515c0.367-1.02,1.494-1.551,2.514-1.182c1.021,0.367,1.549,1.493,1.183,2.514
		C101.023,498.533,99.897,499.062,98.876,498.694z"/>
	<path fill="#F8D5D8" d="M107.607,496.538c-1.571-0.565-3.303,0.247-3.869,1.818c-0.566,1.572,0.248,3.305,1.819,3.87
		c1.57,0.566,3.303-0.248,3.87-1.82C109.993,498.835,109.179,497.104,107.607,496.538z M105.916,501.229
		c-1.02-0.368-1.549-1.492-1.182-2.513c0.368-1.021,1.493-1.55,2.514-1.185c1.022,0.369,1.551,1.495,1.183,2.516
		C108.063,501.069,106.938,501.599,105.916,501.229z"/>
	<path fill="#F8D5D8" d="M114.647,499.074c-1.57-0.565-3.303,0.251-3.869,1.819c-0.566,1.571,0.248,3.305,1.82,3.869
		c1.571,0.567,3.303-0.247,3.869-1.819C117.033,501.372,116.217,499.641,114.647,499.074z M112.958,503.766
		c-1.021-0.367-1.551-1.493-1.183-2.514c0.368-1.02,1.493-1.549,2.514-1.184c1.021,0.368,1.549,1.495,1.184,2.516
		C115.104,503.606,113.978,504.134,112.958,503.766z"/>
	<path fill="#F8D5D8" d="M121.689,501.61c-1.572-0.565-3.304,0.248-3.871,1.819c-0.565,1.572,0.248,3.306,1.82,3.87
		c1.57,0.565,3.303-0.248,3.869-1.819C124.074,503.909,123.259,502.177,121.689,501.61z M119.996,506.302
		c-1.021-0.367-1.549-1.491-1.182-2.513c0.367-1.021,1.492-1.552,2.513-1.184s1.551,1.495,1.183,2.516
		C122.144,506.142,121.018,506.671,119.996,506.302z"/>
	<polygon fill="#FBD8E7" points="167.566,508.259 144.908,503.131 93.087,484.961 87.107,503.37 139.009,522.073 162.408,525.201 
		168.405,508.561 	"/>
	<path fill="#E376AE" d="M144.908,503.131l22.658,5.128L72.83,474.124l-0.021,0.059c7.243,3.871,19.724,10.582,19.724,10.582
		L144.908,503.131z"/>
	<circle fill="#54459C" cx="151.056" cy="410.236" r="34.317"/>
	<circle fill="none" stroke="#53459B" stroke-width="0.907" stroke-miterlimit="10" cx="151.057" cy="410.236" r="39.909"/>
	
		<rect x="94.866" y="494.097" transform="matrix(-0.9408 -0.339 0.339 -0.9408 63.7817 1003.415)" fill="#FFFFFF" width="49.323" height="4.08"/>
	<path fill="#FFFFFF" d="M128.727,504.147c-1.57-0.564-3.303,0.248-3.869,1.819c-0.567,1.571,0.248,3.305,1.819,3.869
		c1.571,0.566,3.303-0.249,3.87-1.818C131.112,506.445,130.298,504.715,128.727,504.147z M127.038,508.84
		c-1.022-0.367-1.551-1.492-1.183-2.513c0.367-1.021,1.493-1.552,2.513-1.184c1.021,0.368,1.55,1.493,1.183,2.515
		C129.183,508.678,128.058,509.206,127.038,508.84z"/>
	<path fill="#FFFFFF" d="M135.768,506.683c-1.57-0.566-3.303,0.248-3.87,1.82c-0.566,1.569,0.248,3.303,1.82,3.87
		c1.57,0.564,3.303-0.25,3.869-1.819C138.153,508.982,137.339,507.251,135.768,506.683z M134.077,511.378
		c-1.021-0.369-1.55-1.493-1.182-2.514c0.367-1.021,1.493-1.553,2.514-1.184c1.02,0.367,1.55,1.492,1.182,2.513
		C136.223,511.216,135.097,511.744,134.077,511.378z"/>
	<circle fill="none" stroke="#53459B" stroke-width="1.8141" stroke-miterlimit="10" cx="151.057" cy="410.237" r="37.037"/>
	<path fill="none" d="M145.808,424.526c5.414-15.023-1.205-31.452-14.892-38.753c-4.549,3.556-8.185,8.39-10.288,14.222
		c-5.414,15.024,1.204,31.454,14.891,38.754C140.067,435.192,143.705,430.359,145.808,424.526z"/>
	<path fill="#FFFFFF" d="M121.709,502.113c-1.57-0.564-3.303,0.248-3.869,1.82c-0.567,1.571,0.248,3.303,1.818,3.869
		c1.571,0.565,3.304-0.249,3.871-1.818C124.096,504.411,123.281,502.678,121.709,502.113z M120.019,506.806
		c-1.022-0.368-1.55-1.494-1.182-2.515c0.367-1.021,1.493-1.551,2.514-1.182c1.021,0.365,1.549,1.492,1.182,2.513
		C122.166,506.643,121.04,507.174,120.019,506.806z"/>
	<path fill="#FFFFFF" d="M114.167,499.166c-1.571-0.566-3.303,0.248-3.869,1.818c-0.567,1.57,0.248,3.304,1.819,3.868
		c1.57,0.567,3.303-0.247,3.87-1.818C116.552,501.464,115.737,499.731,114.167,499.166z M112.475,503.857
		c-1.021-0.366-1.551-1.493-1.184-2.513c0.368-1.021,1.493-1.551,2.515-1.183c1.021,0.365,1.55,1.493,1.183,2.513
		C114.622,503.695,113.496,504.224,112.475,503.857z"/>
	<path fill="#FFFFFF" d="M107.562,496.493c-1.57-0.567-3.304,0.247-3.869,1.818c-0.567,1.572,0.247,3.304,1.819,3.87
		c1.57,0.565,3.303-0.249,3.87-1.82C109.946,498.791,109.131,497.058,107.562,496.493z M105.871,501.186
		c-1.021-0.369-1.551-1.495-1.183-2.517c0.367-1.02,1.493-1.55,2.514-1.181c1.021,0.366,1.55,1.493,1.184,2.514
		C108.017,501.023,106.891,501.552,105.871,501.186z"/>
	<path fill="#FFFFFF" d="M100.73,493.795c-1.57-0.565-3.303,0.247-3.869,1.818c-0.567,1.571,0.248,3.303,1.819,3.871
		c1.571,0.564,3.303-0.251,3.871-1.82C103.117,496.092,102.302,494.359,100.73,493.795z M99.041,498.487
		c-1.022-0.367-1.551-1.495-1.183-2.515c0.368-1.021,1.493-1.55,2.515-1.182c1.021,0.366,1.549,1.492,1.182,2.513
		S100.061,498.853,99.041,498.487z"/>
	<polygon fill="#EFA6CA" points="275.94,107.348 246.928,96.894 140.751,375.511 180.005,389.654 	"/>
	<circle fill="#FFFFFF" cx="229.901" cy="189.299" r="2.494"/>
	<circle fill="#FFFFFF" cx="207.418" cy="251.699" r="2.495"/>
	<circle fill="#FFFFFF" cx="181.948" cy="322.384" r="2.494"/>
	<circle fill="#FFFFFF" cx="175.185" cy="341.157" r="2.495"/>
	<circle fill="#FFFFFF" cx="185.632" cy="287.075" r="2.495"/>
	<circle fill="#FFFFFF" cx="202.415" cy="293.122" r="2.495"/>
	<circle fill="#FFFFFF" cx="210.079" cy="219.233" r="2.494"/>
	<circle fill="#FFFFFF" cx="226.86" cy="225.282" r="2.494"/>
	<polyline fill="none" stroke="#FFFFFF" stroke-width="0.907" stroke-miterlimit="10" points="134.58,508.586 274.838,98.594 
		281.374,78.893 	"/>
	<polyline fill="none" stroke="#FFFFFF" stroke-width="0.907" stroke-miterlimit="10" points="127.86,506.164 270.714,97.107 
		288.817,54.219 	"/>
	<polyline fill="none" stroke="#FFFFFF" stroke-width="0.907" stroke-miterlimit="10" points="120.87,504.267 266.446,95.569 
		297.464,33.232 	"/>
	<polyline fill="none" stroke="#FFFFFF" stroke-width="0.907" stroke-miterlimit="10" points="100.056,496.145 253.225,91.066 
		259.846,72.865 	"/>
	<polyline fill="none" stroke="#FFFFFF" stroke-width="0.907" stroke-miterlimit="10" points="106.775,498.568 257.13,92.214 
		269.867,50.847 	"/>
	<polyline fill="none" stroke="#FFFFFF" stroke-width="0.907" stroke-miterlimit="10" points="113.367,501.565 261.489,93.945 
		277.303,27.091 	"/>
</g>
</svg>
