<?xml version="1.0" encoding="utf-8"?>
<!-- Generator: Adobe Illustrator 16.0.0, SVG Export Plug-In . SVG Version: 6.00 Build 0)  -->
<!DOCTYPE svg PUBLIC "-//W3C//DTD SVG 1.1//EN" "http://www.w3.org/Graphics/SVG/1.1/DTD/svg11.dtd">
<svg version="1.1" id="Layer_1" xmlns="http://www.w3.org/2000/svg" xmlns:xlink="http://www.w3.org/1999/xlink" x="0px" y="0px"
	 width="355.042px" height="666.25px" viewBox="0 0 355.042 666.25" enable-background="new 0 0 355.042 666.25"
	 xml:space="preserve">
<g>
	<path fill="#E9B1CE" d="M190.303,640.097c-21.123-0.711-43.901-5.217-66.836-13.48c-17.026-6.137-34.163-13.768-49.209-23.887
		c-21.92-14.744-42.928-37.09-53.732-61.477c-8.353-18.855-6.091-40.631,1.672-59.738c-1.386,1.891-2.752,3.795-4.082,5.727
		C2.664,509.69-5.993,541.249,5.525,567.253c10.805,24.387,31.813,46.732,53.732,61.477c15.046,10.119,32.183,17.75,49.209,23.887
		c22.936,8.264,45.714,12.77,66.836,13.48c29.698-6.74,52.571-23.48,62.288-50.443c0.221-0.611,0.428-1.256,0.641-1.887
		C226.405,626.909,209.829,635.665,190.303,640.097z"/>
	<path fill="#F5C6DD" d="M198.733,299.683c-17.254-6.217-33.492-10.41-48.155-12.02c-8.094,0.574-14.884,6.07-19.876,11.801
		c-5.43,6.23-8.731,12.738-9.249,13.492c-4.281,6.248-6.265,14.053-8.347,21.236c-2.651,9.148-5.011,18.375-7.324,27.611
		c-2.059,8.221-4.249,16.373-7.264,24.197c-2.285,5.928-5.041,11.666-8.579,17.098c-7.738,11.877-17.74,22.053-27.487,32.262
		c-14.096,14.762-28.167,29.674-40.255,46.154c-7.763,19.107-10.024,40.883-1.672,59.738c10.805,24.387,31.813,46.732,53.732,61.477
		c15.046,10.119,32.183,17.75,49.209,23.887c22.936,8.264,45.714,12.77,66.836,13.48c19.525-4.432,36.102-13.188,47.928-26.33
		c2.938-8.701,5.154-19.059,5.953-28.023c2.023-22.725,0.549-45.545-1.057-68.24c-0.994-14.08-2.207-28.297-0.592-42.379
		c1.717-14.938,7.709-28.475,14.137-41.908c4.111-8.59,8.18-17.201,11.971-25.938c2.898-6.68,6.238-13.75,7.049-21.08
		C285.922,346.976,252.262,318.972,198.733,299.683z"/>
	<path fill="#53459B" d="M279.743,74.376l-5.174-1.865l0.1-0.275c0.881-2.445-0.389-5.143-2.834-6.025
		c-2.447-0.881-5.145,0.389-6.025,2.834l-1.217,3.371c-0.881,2.445,0.389,5.145,2.836,6.025c2.445,0.881,5.145-0.387,6.025-2.832
		l0.098-0.275l5.176,1.865L279.743,74.376z"/>
	<path fill="#53459B" d="M287.073,48.626l-5.176-1.863l0.1-0.275c0.881-2.445-0.387-5.143-2.834-6.025
		c-2.447-0.881-5.145,0.387-6.025,2.832l-1.215,3.373c-0.881,2.445,0.387,5.145,2.834,6.025c2.445,0.883,5.145-0.387,6.025-2.834
		l0.1-0.273l5.174,1.865L287.073,48.626z"/>
	<path fill="#53459B" d="M294.401,22.878l-5.174-1.863l0.098-0.277c0.881-2.445-0.387-5.143-2.832-6.023
		c-2.447-0.883-5.145,0.387-6.027,2.834l-1.213,3.371c-0.883,2.445,0.387,5.145,2.832,6.025c2.447,0.881,5.145-0.389,6.025-2.834
		l0.1-0.275l5.174,1.865L294.401,22.878z"/>
	<path fill="#53459B" d="M319.178,88.585l5.174,1.863l0.1-0.273c0.881-2.447,3.578-3.715,6.025-2.834
		c2.445,0.881,3.715,3.58,2.832,6.025l-1.215,3.373c-0.881,2.443-3.578,3.713-6.025,2.832c-2.445-0.881-3.715-3.58-2.834-6.025
		l0.1-0.273l-5.174-1.865L319.178,88.585z"/>
	<path fill="#53459B" d="M329.807,65.405l5.176,1.865l0.1-0.277c0.881-2.445,3.578-3.713,6.025-2.832
		c2.447,0.883,3.715,3.578,2.834,6.025l-1.215,3.371c-0.881,2.445-3.58,3.715-6.027,2.834c-2.445-0.881-3.713-3.58-2.832-6.025
		l0.1-0.273l-5.176-1.865L329.807,65.405z"/>
	<path fill="#53459B" d="M340.586,40.899l5.176,1.863l0.098-0.273c0.881-2.445,3.58-3.715,6.027-2.834
		c2.445,0.883,3.715,3.58,2.834,6.025l-1.215,3.373c-0.883,2.443-3.58,3.713-6.027,2.832c-2.445-0.881-3.715-3.58-2.834-6.025
		l0.1-0.275l-5.174-1.863L340.586,40.899z"/>
	<path fill="#EFA6CA" d="M351.59,20.28l0.033-0.078l-0.016-0.006c0.725-2.979-10.107-9.488-24.461-14.662
		c-14.355-5.172-26.85-7.066-28.193-4.313l-0.014-0.004l-0.025,0.084c-0.006,0.01-0.014,0.021-0.018,0.033
		c-0.012,0.031-0.014,0.064-0.021,0.096l-25.74,86.152l0.025,0.01l0.871,12.205l33.896,12.213l8.457-8.842l0.025,0.008
		l35.127-82.771c0.014-0.029,0.033-0.057,0.043-0.088C351.586,20.306,351.586,20.292,351.59,20.28z"/>
	<circle fill="#54459C" cx="304.862" cy="26.294" r="4.999"/>
	<circle fill="#FFFFFF" cx="304.863" cy="26.293" r="3.333"/>
	<circle fill="#54459C" cx="330.341" cy="35.475" r="5"/>
	<circle fill="#FFFFFF" cx="330.342" cy="35.475" r="3.334"/>
	<circle fill="#54459C" cx="287.009" cy="75.842" r="5"/>
	<circle fill="#FFFFFF" cx="287.038" cy="75.764" r="3.334"/>
	<circle fill="#54459C" cx="312.489" cy="85.023" r="4.999"/>
	<circle fill="#FFFFFF" cx="312.517" cy="84.945" r="3.333"/>
	<circle fill="#54459C" cx="320.64" cy="60.678" r="5"/>
	<circle fill="#FFFFFF" cx="320.668" cy="60.602" r="3.334"/>
	<circle fill="#54459C" cx="296.416" cy="51.949" r="5"/>
	<circle fill="#FFFFFF" cx="296.384" cy="51.851" r="3.333"/>
	<path fill="#54459C" d="M236.829,296.368c-34.203-12.322-64.414-16.711-86.25-8.705c14.663,1.609,30.901,5.803,48.155,12.02
		c53.529,19.289,87.189,47.293,76.959,86.516c-0.811,7.33-4.15,14.4-7.049,21.08c-3.791,8.736-7.859,17.348-11.971,25.938
		c-6.428,13.434-12.42,26.971-14.137,41.908c-1.615,14.082-0.402,28.299,0.592,42.379c1.605,22.695,3.08,45.516,1.057,68.24
		c-0.857,9.613-3.332,20.855-6.594,29.91c-9.717,26.963-32.59,43.703-62.288,50.443c47.622,1.602,86.819-16.117,100.383-53.758
		c3.264-9.055,5.738-20.297,6.594-29.91c2.025-22.725,0.551-45.545-1.055-68.24c-0.996-14.08-2.209-28.297-0.592-42.379
		c1.717-14.939,7.709-28.475,14.137-41.908c4.109-8.592,8.178-17.201,11.969-25.939c2.898-6.678,6.24-13.75,7.051-21.078
		C324.02,343.661,290.36,315.657,236.829,296.368z"/>
	<path fill="#E99EC5" d="M101.993,534.452c0,0-13.759-7.4-21.745-11.666l-6.587,18.279l22.067,13.797l0.282,0.102l6.595-20.297
		L101.993,534.452z"/>
	<path fill="#F8D5D8" d="M110.852,544.634c-1.732-0.623-3.642,0.275-4.266,2.008c-0.624,1.73,0.274,3.641,2.006,4.264
		c1.732,0.625,3.642-0.273,4.266-2.004C113.48,547.167,112.584,545.259,110.852,544.634z M108.987,549.808
		c-1.125-0.404-1.708-1.646-1.303-2.771s1.646-1.709,2.771-1.303c1.125,0.404,1.708,1.646,1.304,2.771
		C111.354,549.63,110.112,550.214,108.987,549.808z"/>
	<path fill="#F8D5D8" d="M118.613,547.431c-1.732-0.623-3.642,0.273-4.266,2.006s0.273,3.643,2.006,4.266
		c1.731,0.625,3.641-0.273,4.266-2.006C121.243,549.964,120.345,548.056,118.613,547.431z M116.748,552.604
		c-1.124-0.406-1.708-1.646-1.303-2.771s1.646-1.709,2.771-1.305c1.127,0.406,1.71,1.648,1.304,2.773
		C119.115,552.427,117.875,553.011,116.748,552.604z"/>
	<path fill="#F8D5D8" d="M126.374,550.228c-1.731-0.623-3.642,0.275-4.265,2.006c-0.624,1.732,0.273,3.643,2.006,4.266
		c1.732,0.625,3.642-0.273,4.266-2.006C129.004,552.761,128.105,550.853,126.374,550.228z M124.511,555.401
		c-1.126-0.404-1.71-1.646-1.304-2.771s1.646-1.709,2.772-1.305c1.125,0.406,1.708,1.648,1.304,2.773
		C126.877,555.224,125.636,555.806,124.511,555.401z"/>
	<path fill="#F8D5D8" d="M134.137,553.024c-1.732-0.623-3.642,0.273-4.267,2.006c-0.623,1.732,0.274,3.643,2.007,4.266
		c1.731,0.623,3.641-0.273,4.265-2.006C136.767,555.558,135.868,553.649,134.137,553.024z M132.271,558.198
		c-1.125-0.406-1.708-1.646-1.303-2.771s1.646-1.711,2.771-1.305s1.71,1.648,1.304,2.773
		C134.639,558.021,133.398,558.603,132.271,558.198z"/>
	<polygon fill="#FBD8E7" points="184.717,560.354 159.736,554.7 102.605,534.667 96.011,554.964 153.233,575.583 179.03,579.032 
		185.641,560.687 	"/>
	<path fill="#E376AE" d="M159.736,554.7l24.981,5.654L80.271,522.72l-0.023,0.066c7.986,4.266,21.745,11.666,21.745,11.666
		L159.736,554.7z"/>
	<circle fill="#54459C" cx="166.514" cy="452.285" r="37.834"/>
	<circle fill="none" stroke="#53459B" stroke-miterlimit="10" cx="166.515" cy="452.285" r="44"/>
	
		<rect x="104.563" y="544.733" transform="matrix(0.9408 0.339 -0.339 0.9408 193.2296 -12.2747)" fill="#FFFFFF" width="54.376" height="4.499"/>
	<path fill="#FFFFFF" d="M141.897,555.821c-1.731-0.623-3.642,0.273-4.265,2.006c-0.625,1.732,0.273,3.643,2.005,4.266
		s3.642-0.275,4.267-2.006C144.527,558.354,143.629,556.446,141.897,555.821z M140.034,560.995c-1.126-0.406-1.71-1.646-1.304-2.771
		c0.405-1.125,1.646-1.711,2.771-1.305s1.709,1.646,1.304,2.773C142.4,560.817,141.159,561.399,140.034,560.995z"/>
	<path fill="#FFFFFF" d="M149.659,558.618c-1.731-0.625-3.642,0.273-4.266,2.006c-0.624,1.73,0.273,3.641,2.007,4.266
		c1.731,0.623,3.641-0.275,4.265-2.006C152.289,561.151,151.392,559.243,149.659,558.618z M147.795,563.792
		c-1.125-0.406-1.709-1.646-1.303-2.771c0.405-1.127,1.646-1.711,2.771-1.305s1.709,1.646,1.304,2.771
		C150.161,563.614,148.92,564.196,147.795,563.792z"/>
	<circle fill="none" stroke="#53459B" stroke-width="2" stroke-miterlimit="10" cx="166.515" cy="452.286" r="40.833"/>
	<path fill="none" d="M160.728,468.04c5.969-16.564-1.328-34.676-16.418-42.725c-5.015,3.92-9.024,9.25-11.342,15.68
		c-5.968,16.564,1.328,34.676,16.417,42.725C154.399,479.798,158.41,474.47,160.728,468.04z"/>
	<path fill="#FFFFFF" d="M134.16,553.579c-1.731-0.623-3.641,0.273-4.265,2.006c-0.625,1.732,0.273,3.641,2.005,4.266
		c1.732,0.623,3.642-0.275,4.267-2.006C136.791,556.112,135.893,554.202,134.16,553.579z M132.297,558.753
		c-1.127-0.406-1.71-1.648-1.304-2.773c0.405-1.125,1.646-1.709,2.772-1.303c1.125,0.404,1.708,1.646,1.303,2.771
		S133.422,559.157,132.297,558.753z"/>
	<path fill="#FFFFFF" d="M125.844,550.329c-1.732-0.625-3.642,0.273-4.266,2.004c-0.625,1.732,0.273,3.643,2.006,4.266
		c1.731,0.625,3.641-0.273,4.266-2.006C128.474,552.862,127.575,550.952,125.844,550.329z M123.979,555.501
		c-1.126-0.404-1.71-1.646-1.304-2.771c0.405-1.125,1.646-1.709,2.772-1.303c1.126,0.404,1.709,1.646,1.304,2.771
		C126.346,555.323,125.105,555.907,123.979,555.501z"/>
	<path fill="#FFFFFF" d="M118.562,547.382c-1.731-0.625-3.642,0.273-4.265,2.004c-0.625,1.734,0.273,3.643,2.005,4.268
		c1.731,0.623,3.642-0.275,4.267-2.008C121.191,549.915,120.293,548.005,118.562,547.382z M116.698,552.556
		c-1.126-0.406-1.71-1.648-1.304-2.773c0.405-1.125,1.646-1.709,2.771-1.303c1.126,0.404,1.709,1.646,1.305,2.771
		C119.064,552.376,117.823,552.96,116.698,552.556z"/>
	<path fill="#FFFFFF" d="M111.031,544.407c-1.731-0.623-3.641,0.273-4.265,2.006c-0.625,1.732,0.273,3.641,2.005,4.266
		c1.732,0.623,3.642-0.275,4.267-2.006C113.662,546.94,112.764,545.03,111.031,544.407z M109.168,549.581
		c-1.127-0.406-1.71-1.648-1.304-2.773c0.405-1.125,1.646-1.709,2.772-1.303c1.125,0.404,1.708,1.646,1.303,2.771
		S110.293,549.985,109.168,549.581z"/>
	<polygon fill="#EFA6CA" points="304.198,118.354 272.213,106.829 155.154,414.001 198.43,429.593 	"/>
	<circle fill="#FFFFFF" cx="253.441" cy="208.705" r="2.75"/>
	<circle fill="#FFFFFF" cx="228.653" cy="277.5" r="2.751"/>
	<circle fill="#FFFFFF" cx="200.573" cy="355.429" r="2.75"/>
	<circle fill="#FFFFFF" cx="193.116" cy="376.126" r="2.75"/>
	<circle fill="#FFFFFF" cx="204.635" cy="316.501" r="2.75"/>
	<circle fill="#FFFFFF" cx="223.137" cy="323.167" r="2.75"/>
	<circle fill="#FFFFFF" cx="231.585" cy="241.707" r="2.75"/>
	<circle fill="#FFFFFF" cx="250.087" cy="248.375" r="2.75"/>
	<polyline fill="none" stroke="#FFFFFF" stroke-miterlimit="10" points="148.35,560.714 302.983,108.704 310.188,86.983 	"/>
	<polyline fill="none" stroke="#FFFFFF" stroke-miterlimit="10" points="140.941,558.044 298.436,107.063 318.395,59.78 	"/>
	<polyline fill="none" stroke="#FFFFFF" stroke-miterlimit="10" points="133.235,555.954 293.731,105.368 327.928,36.642 	"/>
	<polyline fill="none" stroke="#FFFFFF" stroke-miterlimit="10" points="110.287,546.999 279.155,100.403 286.454,80.337 	"/>
	<polyline fill="none" stroke="#FFFFFF" stroke-miterlimit="10" points="117.695,549.669 283.461,101.669 297.502,56.062 	"/>
	<polyline fill="none" stroke="#FFFFFF" stroke-miterlimit="10" points="124.963,552.974 288.266,103.577 305.7,29.872 	"/>
</g>
</svg>
