<?xml version="1.0" encoding="utf-8"?>
<!-- Generator: Adobe Illustrator 16.0.0, SVG Export Plug-In . SVG Version: 6.00 Build 0)  -->
<!DOCTYPE svg PUBLIC "-//W3C//DTD SVG 1.1//EN" "http://www.w3.org/Graphics/SVG/1.1/DTD/svg11.dtd">
<svg version="1.1" id="Layer_1" xmlns="http://www.w3.org/2000/svg" xmlns:xlink="http://www.w3.org/1999/xlink" x="0px" y="0px"
	 width="340.541px" height="80.135px" viewBox="0 0 340.541 80.135" enable-background="new 0 0 340.541 80.135"
	 xml:space="preserve">
<g>
	<g>
		<path fill="#FFFEF5" stroke="#010101" stroke-width="5.7147" stroke-miterlimit="10" d="M107.399,40.067
			c0,20.549-16.661,37.21-37.21,37.21H40.065c-20.548,0-37.208-16.661-37.208-37.21l0,0c0-20.549,16.66-37.21,37.208-37.21h30.123
			C90.738,2.857,107.399,19.518,107.399,40.067L107.399,40.067z"/>
		<path fill="#FFFEF5" stroke="#010101" stroke-width="5.7147" stroke-linecap="round" stroke-miterlimit="10" d="M29.895,43.577
			c-0.168,1.17-7.02,21.057,12.199,33.09"/>
		<path fill="#FFFEF5" stroke="#010101" stroke-width="5.7147" stroke-linecap="round" stroke-miterlimit="10" d="M63.482,43.577
			c-0.166,1.17-7.018,21.057,12.202,33.09"/>
	</g>
	<g>
		<path fill="#FFFEF5" stroke="#010101" stroke-width="5.7147" stroke-miterlimit="10" d="M337.684,40.067
			c0,20.549-16.661,37.21-37.21,37.21h-30.122c-20.55,0-37.209-16.661-37.209-37.21l0,0c0-20.549,16.66-37.21,37.209-37.21h30.122
			C321.022,2.857,337.684,19.518,337.684,40.067L337.684,40.067z"/>
		<path fill="#FFFEF5" stroke="#010101" stroke-width="5.7147" stroke-linecap="round" stroke-miterlimit="10" d="M260.178,43.577
			c-0.168,1.17-7.021,21.057,12.199,33.09"/>
		<path fill="#FFFEF5" stroke="#010101" stroke-width="5.7147" stroke-linecap="round" stroke-miterlimit="10" d="M293.768,43.577
			c-0.167,1.17-7.019,21.057,12.199,33.09"/>
	</g>
</g>
</svg>
