<?xml version="1.0" encoding="utf-8"?>
<!-- Generator: Adobe Illustrator 16.0.0, SVG Export Plug-In . SVG Version: 6.00 Build 0)  -->
<!DOCTYPE svg PUBLIC "-//W3C//DTD SVG 1.1//EN" "http://www.w3.org/Graphics/SVG/1.1/DTD/svg11.dtd">
<svg version="1.1" id="Layer_1" xmlns="http://www.w3.org/2000/svg" xmlns:xlink="http://www.w3.org/1999/xlink" x="0px" y="0px"
	 width="51.387px" height="162.601px" viewBox="0 0 51.387 162.601" enable-background="new 0 0 51.387 162.601"
	 xml:space="preserve">
<g>
	<path fill="#948EC5" d="M11.871,27.902c0-6.584,1.961-11.399,5.889-14.438c3.924-3.04,8.549-4.56,13.869-4.56
		c5.318,0,9.941,1.52,13.869,4.56c3.924,3.039,5.889,7.854,5.889,14.438v134.698H11.871V27.902z"/>
	<path fill="#F4C6DD" d="M0,18.998C0,12.414,1.963,7.599,5.891,4.56C9.814,1.52,14.439,0,19.758,0c5.32,0,9.941,1.52,13.869,4.56
		c3.924,3.039,5.891,7.854,5.891,14.438v134.698H0V18.998z"/>
	<path fill="#FFFFFF" d="M27.525,107.189c-3.279,0-5.938-2.657-5.938-5.937V20.195c0-3.279,2.658-5.937,5.938-5.937
		s5.936,2.657,5.936,5.937v81.058C33.461,104.532,30.805,107.189,27.525,107.189z"/>
	<circle fill="#FFFFFF" cx="27.525" cy="118.816" r="6.68"/>
</g>
</svg>
