<?xml version="1.0" encoding="utf-8"?>
<!-- Generator: Adobe Illustrator 16.0.0, SVG Export Plug-In . SVG Version: 6.00 Build 0)  -->
<!DOCTYPE svg PUBLIC "-//W3C//DTD SVG 1.1//EN" "http://www.w3.org/Graphics/SVG/1.1/DTD/svg11.dtd">
<svg version="1.1" id="Layer_1" xmlns="http://www.w3.org/2000/svg" xmlns:xlink="http://www.w3.org/1999/xlink" x="0px" y="0px"
	 width="106.258px" height="66.854px" viewBox="0 0 106.258 66.854" enable-background="new 0 0 106.258 66.854"
	 xml:space="preserve">
<g>
	<path fill="#FFFFFF" d="M101.11,2.131c-4.219-1.358-9.829,0.771-13.966,1.783c-8.368,2.048-16.931,2.935-25.401,4.354
		c-7.584,1.269-15.324-0.111-22.9,1.249c-5.91,1.061-11.322,3.881-15.328,8.723l-7.004,0.012l-0.712,33.596h6.304
		c8.093,6.831,20.078,6.334,30.662,7.166c10.584,0.834,28.171,5.831,34.475,6.081c6.303,0.25,7.938,0,8.793-4
		c0.857-4-3.502-5.416-3.502-5.416l-22.489-6.154c4.067-1.734,6.196-9.084,2.182-12.018c-1.003-0.732-2.104-1.102-3.272-1.412
		l-0.013-0.204c2.699,0.428,5.723,0.596,7.347-1.985c1.12-1.777,1.244-3.974,1.694-5.986c0.935-4.178-3.269-5.225-3.269-5.225
		l-4.808-1.531c1.723-0.462,3.431-0.996,5.149-1.483c5.445-1.545,10.906-3.036,16.333-4.645c3.775-1.117,11.45-2.136,12.892-7.43
		C104.881,5.382,103.164,2.794,101.11,2.131z"/>
	<g>
		<path d="M3,57.344c-1.658,0-3-1.342-3-3V17.013c0-1.657,1.342-3,3-3h11.832c1.656,0,3,1.343,3,3v37.331c0,1.658-1.344,3-3,3H3z"/>
		
			<path fill="none" stroke="#000000" stroke-width="3.3823" stroke-linecap="round" stroke-linejoin="round" stroke-miterlimit="10" d="
			M16.678,18.251l7.004-0.012c4.006-4.842,9.418-7.662,15.328-8.723c7.576-1.36,15.316,0.02,22.9-1.249
			c8.471-1.419,17.033-2.306,25.401-4.354c4.137-1.013,9.747-3.142,13.966-1.783c2.054,0.663,3.771,3.251,3.166,5.474
			c-1.441,5.294-9.116,6.313-12.892,7.43c-5.427,1.608-10.888,3.1-16.333,4.645c-1.719,0.487-3.427,1.021-5.149,1.483"/>
		
			<path fill="none" stroke="#000000" stroke-width="3.3823" stroke-linecap="round" stroke-linejoin="round" stroke-miterlimit="10" d="
			M61.024,21.329l13.853,1.365c0,0,4.203,1.047,3.269,5.225c-0.45,2.013-0.574,4.209-1.694,5.986
			c-2.029,3.225-6.243,2.16-9.28,1.656c-3.151-0.523-6.3-1.084-9.448-1.637c-0.74-0.131-1.484-0.238-2.223-0.381"/>
		
			<path fill="none" stroke="#000000" stroke-width="3.3823" stroke-linecap="round" stroke-linejoin="round" stroke-miterlimit="10" d="
			M69.117,36.094c1.168,0.311,2.27,0.68,3.272,1.412c4.015,2.934,1.886,10.283-2.182,12.018"/>
		
			<path fill="none" stroke="#000000" stroke-width="3.3823" stroke-linecap="round" stroke-linejoin="round" stroke-miterlimit="10" d="
			M58.689,46.513l34.008,9.165c0,0,4.359,1.416,3.502,5.416c-0.855,4-2.49,4.25-8.793,4c-6.304-0.25-23.891-5.247-34.475-6.081
			c-10.584-0.832-22.569-0.335-30.662-7.166h-6.304"/>
		
			<path fill="none" stroke="#000000" stroke-width="3.3823" stroke-linecap="round" stroke-linejoin="round" stroke-miterlimit="10" d="
			M63.009,15.388c0,0,0.233,4.125-10.039,16.187"/>
		
			<path fill="none" stroke="#000000" stroke-width="3.3823" stroke-linecap="round" stroke-linejoin="round" stroke-miterlimit="10" d="
			M49.063,23.845c1,6,4.183,8.598,7.488,12.744c2.041,2.559,3.332,7.234-0.405,9.105c-2.143,1.074-5.082,0.256-7.208-0.475
			c-4.553-1.563-10.5-5.875-15.384-20.896"/>
		
			<path fill="none" stroke="#000000" stroke-width="3.3823" stroke-linecap="round" stroke-linejoin="round" stroke-miterlimit="10" d="
			M40.287,40.282c0,0-5.835,1.084-11.283-1.166"/>
	</g>
</g>
</svg>
