<?xml version="1.0" encoding="utf-8"?>
<!-- Generator: Adobe Illustrator 16.0.0, SVG Export Plug-In . SVG Version: 6.00 Build 0)  -->
<!DOCTYPE svg PUBLIC "-//W3C//DTD SVG 1.1//EN" "http://www.w3.org/Graphics/SVG/1.1/DTD/svg11.dtd">
<svg version="1.1" id="Layer_1" xmlns="http://www.w3.org/2000/svg" xmlns:xlink="http://www.w3.org/1999/xlink" x="0px" y="0px"
	 width="118.427px" height="165.83px" viewBox="0 0 118.427 165.83" enable-background="new 0 0 118.427 165.83"
	 xml:space="preserve">
<g>
	<path fill="#948EC5" d="M79.291,27.712c0-3.164,0.538-5.951,1.615-8.358c1.074-2.405,2.5-4.37,4.274-5.89
		c1.772-1.521,3.83-2.66,6.175-3.42c2.342-0.76,4.845-1.14,7.504-1.14c5.32,0,9.909,1.52,13.774,4.56
		c3.862,3.039,5.794,7.789,5.794,14.248v80.363c0,10.387-1.52,19.254-4.56,26.598c-3.039,7.348-7.189,13.332-12.443,17.954
		c-5.258,4.625-11.337,7.979-18.238,10.069c-6.905,2.09-14.22,3.134-21.943,3.134c-4.055,0-8.297-0.317-12.729-0.949
		c-4.435-0.636-8.709-1.681-12.823-3.135c-4.117-1.455-7.95-3.354-11.494-5.699c-3.548-2.343-6.524-5.225-8.93-8.645
		c-1.268-1.772-2.185-3.734-2.755-5.89c-0.569-2.152-0.76-4.305-0.569-6.46c0.189-2.151,0.76-4.179,1.71-6.079
		c0.949-1.899,2.374-3.482,4.274-4.75c2.784-2.151,5.824-3.387,9.119-3.704c3.292-0.314,6.395-0.095,9.31,0.665
		c1.771,0.508,3.259,1.234,4.464,2.185c1.203,0.95,2.5,1.87,3.896,2.755c1.264,0.76,2.374,1.425,3.324,1.995
		c0.95,0.569,1.995,1.045,3.135,1.425s2.404,0.665,3.8,0.854c1.393,0.19,3.164,0.285,5.319,0.285c5.444,0,9.975-1.805,13.584-5.415
		c3.609-3.609,5.414-9.784,5.414-18.523V27.712z"/>
	<path fill="#F4C6DD" d="M67.42,18.808c0-3.164,0.538-5.951,1.615-8.358c1.074-2.405,2.5-4.37,4.274-5.89
		c1.772-1.521,3.83-2.66,6.175-3.42C81.827,0.38,84.33,0,86.989,0c5.32,0,9.909,1.52,13.774,4.56
		c3.862,3.039,5.794,7.789,5.794,14.248v80.363c0,10.387-1.52,19.254-4.56,26.598c-3.039,7.348-7.189,13.332-12.443,17.954
		c-5.258,4.625-11.337,7.979-18.238,10.069c-6.905,2.09-14.22,3.134-21.943,3.134c-4.055,0-8.297-0.317-12.729-0.949
		c-4.435-0.636-8.709-1.681-12.823-3.135c-4.117-1.455-7.95-3.354-11.494-5.699c-3.548-2.343-6.524-5.225-8.93-8.645
		c-1.268-1.772-2.185-3.734-2.755-5.89c-0.569-2.152-0.76-4.305-0.569-6.46c0.189-2.151,0.76-4.179,1.71-6.079
		c0.949-1.899,2.374-3.482,4.274-4.75c2.784-2.151,5.824-3.387,9.119-3.704c3.292-0.314,6.395-0.095,9.31,0.665
		c1.771,0.508,3.259,1.234,4.464,2.185c1.203,0.95,2.5,1.87,3.896,2.755c1.264,0.76,2.374,1.425,3.324,1.995
		c0.95,0.569,1.995,1.045,3.135,1.425s2.404,0.665,3.8,0.854c1.393,0.19,3.164,0.285,5.319,0.285c5.444,0,9.975-1.805,13.584-5.415
		c3.609-3.609,5.414-9.784,5.414-18.523V18.808z"/>
	<path fill="#FFFFFF" d="M93.17,107.189c-3.279,0-5.937-2.657-5.937-5.937V20.195c0-3.279,2.657-5.937,5.937-5.937
		s5.937,2.657,5.937,5.937v81.058C99.107,104.532,96.45,107.189,93.17,107.189z"/>
	<circle fill="#FFFFFF" cx="90.187" cy="119.064" r="6.679"/>
</g>
</svg>
