<?xml version="1.0" encoding="utf-8"?>
<!-- Generator: Adobe Illustrator 16.0.0, SVG Export Plug-In . SVG Version: 6.00 Build 0)  -->
<!DOCTYPE svg PUBLIC "-//W3C//DTD SVG 1.1//EN" "http://www.w3.org/Graphics/SVG/1.1/DTD/svg11.dtd">
<svg version="1.1" id="Layer_1" xmlns="http://www.w3.org/2000/svg" xmlns:xlink="http://www.w3.org/1999/xlink" x="0px" y="0px"
	 width="44.67px" height="74.961px" viewBox="0 0 44.67 74.961" enable-background="new 0 0 44.67 74.961" xml:space="preserve">
<g>
	<path fill="#AA7AB5" d="M0.037,4.988v64.418C0.014,69.504,0,69.598,0,69.695c0,1.9,4.272,3.564,10.673,4.49V4.988H0.037z"/>
	<path fill="#F0AECE" d="M44.652,69.529V4.988H10.673v69.197c3.395,0.49,7.388,0.775,11.662,0.775c4.974,0,9.566-0.385,13.276-1.031
		l4.852-1.16c2.643-0.865,4.207-1.926,4.207-3.074C44.67,69.639,44.658,69.584,44.652,69.529z"/>
	<ellipse fill="#8469AE" cx="22.335" cy="5.268" rx="22.335" ry="5.264"/>
	<path fill="#633695" d="M23.142,0.697L23.142,0.697C33.365,0.791,41.465,3.02,41.465,5.258c0,2.236-8.1,4.484-18.323,4.576l0,0
		c11.282-0.092,20.298-2.102,20.298-4.566C43.439,2.799,34.424,0.791,23.142,0.697z"/>
	<path fill="#633695" d="M21.877,0.697L21.877,0.697C11.654,0.791,3.553,3.02,3.553,5.258c0,2.236,8.102,4.484,18.324,4.576l0,0
		C10.595,9.742,1.579,7.732,1.579,5.268C1.579,2.799,10.595,0.791,21.877,0.697z"/>
	<g>
		<circle fill="#FBD8E7" cx="24.42" cy="34.549" r="2.248"/>
		<path fill="#FBD8E7" d="M22.442,40.301c0,1.242-1.007,2.25-2.249,2.25c-1.24,0-2.249-1.008-2.249-2.25
			c0-1.238,1.009-2.246,2.249-2.246C21.436,38.055,22.442,39.063,22.442,40.301z"/>
		<path fill="#FBD8E7" d="M30.623,40.301c0,1.242-1.006,2.25-2.248,2.25c-1.241,0-2.248-1.008-2.248-2.25
			c0-1.238,1.007-2.246,2.248-2.246C29.617,38.055,30.623,39.063,30.623,40.301z"/>
	</g>
	<path fill="#FBD8E7" d="M37.809,17.235c-1.449,0-2.625,1.176-2.625,2.625v54.138c0.141-0.022,0.289-0.044,0.428-0.068l4.822-1.153
		V19.86C40.434,18.411,39.258,17.235,37.809,17.235z"/>
</g>
</svg>
