<?xml version="1.0" encoding="utf-8"?>
<!-- Generator: Adobe Illustrator 16.0.0, SVG Export Plug-In . SVG Version: 6.00 Build 0)  -->
<!DOCTYPE svg PUBLIC "-//W3C//DTD SVG 1.1//EN" "http://www.w3.org/Graphics/SVG/1.1/DTD/svg11.dtd">
<svg version="1.1" id="Layer_1" xmlns="http://www.w3.org/2000/svg" xmlns:xlink="http://www.w3.org/1999/xlink" x="0px" y="0px"
	 width="114.461px" height="162.602px" viewBox="0 0 114.461 162.602" enable-background="new 0 0 114.461 162.602"
	 xml:space="preserve">
<g>
	<path fill="#948EC5" d="M41.507,162.602c-5.699,0-10.449-0.54-14.249-1.614c-3.8-1.075-6.839-2.817-9.119-5.225
		c-2.279-2.404-3.895-5.51-4.845-9.31c-0.949-3.8-1.425-8.422-1.425-13.869V28.283c0-3.164,0.538-5.952,1.615-8.359
		c1.074-2.404,2.532-4.432,4.369-6.079c1.835-1.645,3.957-2.88,6.365-3.705c2.404-0.822,4.874-1.234,7.409-1.234
		c2.532,0,5.002,0.412,7.409,1.234c2.404,0.825,4.527,2.061,6.364,3.705c1.835,1.647,3.292,3.675,4.37,6.079
		c1.074,2.407,1.614,5.195,1.614,8.359v95.562c0,2.28,0.38,3.771,1.141,4.465c0.76,0.698,2.214,1.045,4.369,1.045h42.177
		c2.784,0,5.159,0.476,7.124,1.425c1.962,0.95,3.545,2.218,4.75,3.8c1.202,1.585,2.09,3.357,2.659,5.319
		c0.57,1.966,0.855,3.895,0.855,5.795c0,1.899-0.285,3.865-0.855,5.89c-0.569,2.027-1.49,3.864-2.755,5.51
		c-1.268,1.647-2.85,2.977-4.749,3.989c-1.9,1.012-4.245,1.52-7.029,1.52H41.507z"/>
	<path fill="#F4C6DD" d="M29.638,153.696c-5.699,0-10.449-0.54-14.249-1.614c-3.8-1.075-6.839-2.817-9.119-5.225
		c-2.279-2.404-3.895-5.51-4.845-9.31C0.476,133.748,0,129.126,0,123.679V19.378c0-3.164,0.538-5.952,1.615-8.359
		c1.074-2.404,2.532-4.432,4.369-6.079c1.835-1.645,3.957-2.88,6.365-3.705C14.754,0.412,17.224,0,19.759,0
		c2.532,0,5.002,0.412,7.409,1.234c2.404,0.825,4.527,2.061,6.364,3.705c1.835,1.647,3.292,3.675,4.37,6.079
		c1.074,2.407,1.614,5.195,1.614,8.359v95.562c0,2.28,0.38,3.771,1.141,4.465c0.76,0.698,2.214,1.045,4.369,1.045h42.177
		c2.784,0,5.159,0.476,7.124,1.425c1.962,0.95,3.545,2.218,4.75,3.8c1.202,1.585,2.09,3.357,2.659,5.319
		c0.57,1.966,0.855,3.895,0.855,5.795c0,1.899-0.285,3.865-0.855,5.89c-0.569,2.027-1.49,3.864-2.755,5.51
		c-1.268,1.647-2.85,2.977-4.749,3.989c-1.9,1.012-4.245,1.52-7.029,1.52H29.638z"/>
	<path fill="#FFFFFF" d="M25.281,82.699c-3.279,0-5.937-2.657-5.937-5.937V23.659c0-3.279,2.657-5.937,5.937-5.937
		s5.937,2.657,5.937,5.937v53.104C31.218,80.042,28.561,82.699,25.281,82.699z"/>
	<circle fill="#FFFFFF" cx="25.282" cy="94.327" r="6.679"/>
</g>
</svg>
