<?xml version="1.0" encoding="utf-8"?>
<!-- Generator: Adobe Illustrator 16.0.0, SVG Export Plug-In . SVG Version: 6.00 Build 0)  -->
<!DOCTYPE svg PUBLIC "-//W3C//DTD SVG 1.1//EN" "http://www.w3.org/Graphics/SVG/1.1/DTD/svg11.dtd">
<svg version="1.1" id="Layer_1" xmlns="http://www.w3.org/2000/svg" xmlns:xlink="http://www.w3.org/1999/xlink" x="0px" y="0px"
	 width="678.316px" height="140.591px" viewBox="0 0 678.316 140.591" enable-background="new 0 0 678.316 140.591"
	 xml:space="preserve">
<g>
	<path fill="#948EC5" d="M498.989,77.599c-43.813,0-85.675-8.883-117.874-25.013C351.376,37.688,333.619,18.031,333.619,0h3.904
		c0,16.522,16.949,34.875,45.34,49.097c31.666,15.861,72.908,24.6,116.125,24.6c43.279,0,88.177-8.98,123.182-24.636
		C654.884,34.429,674.413,16.089,674.413,0h3.903c0,17.674-20.393,37.345-54.553,52.623
		C588.278,68.497,542.799,77.599,498.989,77.599z"/>
	<g>
		<path fill="#F0AECE" d="M395.854,60.815c-2.614,2.155-4.439,6.969-4.439,12.577c0,7.612,3.359,13.783,7.501,13.783
			c2.313,0,4.38-1.926,5.756-4.951c-2.103-0.438-4.597-1.411-7.38-3.343C391.148,74.614,393.861,65.546,395.854,60.815z"/>
	</g>
	<g>
		<path fill="#FBD8E7" d="M398.917,59.608c-1.092,0-2.127,0.438-3.063,1.208c-1.993,4.73-4.706,13.797,1.438,18.067
			c2.784,1.933,5.279,2.905,7.381,3.342c1.089-2.393,1.745-5.47,1.745-8.832C406.416,65.779,403.06,59.608,398.917,59.608z"/>
	</g>
	<circle fill="#F7ECEE" cx="399.179" cy="59.753" r="1.692"/>
	<path fill="#5D6AB2" d="M64.343,77.807C26.497,60.257,3.904,37.578,3.904,17.146H0C0,39.139,23.44,63.14,62.7,81.349
		c42.609,19.76,98.014,30.644,156.012,30.644c0.448,0,0.898-0.009,1.348-0.009c-1.82-1.297-3.621-2.604-5.398-3.921
		C158.697,107.57,105.455,96.874,64.343,77.807z"/>
	<path fill="#948EC5" d="M452.035,17.146c0,19.912-26.027,42.577-69.624,60.627c-46.521,19.265-106.188,30.314-163.7,30.314
		c-1.352,0-2.702-0.012-4.051-0.024c1.778,1.317,3.58,2.624,5.399,3.921c57.589-0.172,117.231-11.302,163.846-30.602
		c21.685-8.979,39.72-19.444,52.155-30.265c13.006-11.316,19.878-23.063,19.878-33.971H452.035z"/>
	<g>
		<path fill="#F0AECE" d="M16.813,55.872c-2.615,2.153-4.44,6.968-4.44,12.576c0,7.613,3.357,13.784,7.5,13.784
			c2.313,0,4.38-1.928,5.757-4.952c-2.104-0.438-4.599-1.411-7.382-3.344C12.106,69.669,14.819,60.603,16.813,55.872z"/>
	</g>
	<g>
		<path fill="#FBD8E7" d="M19.874,54.666c-1.091,0-2.126,0.438-3.061,1.208c-1.995,4.73-4.707,13.797,1.436,18.065
			c2.783,1.936,5.279,2.907,7.382,3.344c1.088-2.392,1.743-5.471,1.743-8.832C27.375,60.836,24.018,54.666,19.874,54.666z"/>
	</g>
	<circle fill="#F7ECEE" cx="20.267" cy="54.549" r="1.692"/>
	<g>
		<path fill="#F0AECE" d="M64.112,84.628c-2.614,2.154-4.44,6.968-4.44,12.576c0,7.612,3.358,13.783,7.501,13.783
			c2.315,0,4.381-1.927,5.758-4.952c-2.104-0.438-4.6-1.411-7.382-3.342C59.405,98.426,62.118,89.358,64.112,84.628z"/>
	</g>
	<g>
		<path fill="#FBD8E7" d="M67.173,83.419c-1.091,0-2.125,0.438-3.06,1.209c-1.995,4.731-4.707,13.797,1.437,18.066
			c2.782,1.934,5.278,2.905,7.382,3.343c1.088-2.394,1.743-5.471,1.743-8.832C74.674,89.591,71.317,83.419,67.173,83.419z"/>
	</g>
	<circle fill="#F7ECEE" cx="67.632" cy="83.435" r="1.691"/>
	<g>
		<path fill="#F0AECE" d="M116.908,102.504c-2.614,2.151-4.44,6.969-4.44,12.577c0,7.612,3.358,13.784,7.501,13.784
			c2.313,0,4.38-1.928,5.757-4.953c-2.104-0.44-4.601-1.412-7.382-3.344C112.201,116.3,114.914,107.234,116.908,102.504z"/>
	</g>
	<g>
		<path fill="#FBD8E7" d="M119.97,101.296c-1.092,0-2.127,0.438-3.062,1.208c-1.995,4.73-4.707,13.796,1.437,18.064
			c2.782,1.936,5.278,2.907,7.382,3.344c1.088-2.393,1.744-5.47,1.744-8.831C127.47,107.467,124.113,101.296,119.97,101.296z"/>
	</g>
	<circle fill="#F7ECEE" cx="119.941" cy="101.392" r="1.692"/>
	<g>
		<path fill="#F0AECE" d="M169.379,111.043c-2.614,2.152-4.44,6.969-4.44,12.575c0,7.613,3.358,13.784,7.501,13.784
			c2.314,0,4.38-1.927,5.757-4.952c-2.104-0.438-4.6-1.411-7.382-3.344C164.672,124.84,167.385,115.773,169.379,111.043z"/>
	</g>
	<g>
		<path fill="#FBD8E7" d="M172.441,109.835c-1.093,0-2.127,0.438-3.062,1.208c-1.995,4.73-4.707,13.796,1.437,18.064
			c2.781,1.936,5.278,2.908,7.382,3.344c1.088-2.393,1.743-5.472,1.743-8.831C179.942,116.006,176.584,109.835,172.441,109.835z"/>
	</g>
	<circle fill="#F7ECEE" cx="172.51" cy="109.2" r="1.692"/>
	<g>
		<path fill="#F0AECE" d="M225.626,114.231c-2.615,2.153-4.44,6.969-4.44,12.576c0,7.612,3.357,13.784,7.5,13.784
			c2.313,0,4.38-1.929,5.757-4.952c-2.104-0.438-4.599-1.41-7.382-3.344C220.918,128.03,223.631,118.961,225.626,114.231z"/>
	</g>
	<g>
		<path fill="#FBD8E7" d="M228.687,113.022c-1.092,0-2.126,0.44-3.061,1.209c-1.995,4.731-4.708,13.798,1.436,18.066
			c2.783,1.934,5.279,2.906,7.382,3.343c1.088-2.392,1.744-5.472,1.744-8.833C236.188,119.193,232.83,113.022,228.687,113.022z"/>
	</g>
	<circle fill="#F7ECEE" cx="228.461" cy="112.844" r="1.693"/>
	<g>
		<path fill="#F0AECE" d="M285.66,108.687c-2.615,2.151-4.44,6.968-4.44,12.574c0,7.614,3.358,13.785,7.5,13.785
			c2.314,0,4.381-1.928,5.757-4.953c-2.104-0.438-4.598-1.409-7.382-3.342C280.951,122.482,283.665,113.416,285.66,108.687z"/>
	</g>
	<g>
		<path fill="#FBD8E7" d="M288.72,107.477c-1.091,0-2.126,0.437-3.06,1.21c-1.994,4.729-4.708,13.795,1.436,18.063
			c2.783,1.936,5.278,2.904,7.382,3.343c1.088-2.391,1.744-5.469,1.744-8.832C296.221,113.648,292.865,107.477,288.72,107.477z"/>
	</g>
	<circle fill="#F7ECEE" cx="288.837" cy="107.378" r="1.692"/>
	<g>
		<path fill="#F0AECE" d="M346.929,94.386c-2.615,2.155-4.44,6.97-4.44,12.576c0,7.613,3.357,13.784,7.5,13.784
			c2.314,0,4.381-1.927,5.756-4.952c-2.103-0.438-4.599-1.41-7.382-3.342C342.222,108.186,344.935,99.117,346.929,94.386z"/>
	</g>
	<g>
		<path fill="#FBD8E7" d="M349.99,93.179c-1.091,0-2.125,0.439-3.06,1.207c-1.995,4.731-4.707,13.799,1.436,18.067
			c2.782,1.933,5.279,2.904,7.381,3.343c1.089-2.392,1.745-5.471,1.745-8.832C357.491,99.35,354.135,93.179,349.99,93.179z"/>
	</g>
	<circle fill="#F7ECEE" cx="350.254" cy="93.324" r="1.691"/>
	<g>
		<path fill="#F0AECE" d="M400.409,73.7c-2.613,2.153-4.438,6.969-4.438,12.574c0,7.614,3.357,13.785,7.5,13.785
			c2.314,0,4.382-1.928,5.757-4.953c-2.104-0.438-4.598-1.408-7.38-3.342C395.703,87.496,398.416,78.43,400.409,73.7z"/>
	</g>
	<g>
		<path fill="#FBD8E7" d="M403.47,72.491c-1.091,0-2.126,0.438-3.063,1.208c-1.993,4.731-4.705,13.797,1.438,18.067
			c2.783,1.934,5.277,2.904,7.381,3.34c1.089-2.391,1.745-5.469,1.745-8.832C410.972,78.661,407.615,72.491,403.47,72.491z"/>
	</g>
	<circle fill="#F7ECEE" cx="403.863" cy="71.986" r="1.692"/>
	<g>
		<path fill="#F0AECE" d="M449.985,29.587c-2.614,2.155-4.439,6.968-4.439,12.577c0,7.612,3.357,13.783,7.5,13.783
			c2.313,0,4.381-1.926,5.757-4.952c-2.104-0.438-4.6-1.411-7.382-3.342C445.278,43.384,447.991,34.316,449.985,29.587z"/>
	</g>
	<g>
		<path fill="#FBD8E7" d="M453.047,28.379c-1.092,0-2.126,0.438-3.062,1.208c-1.994,4.73-4.707,13.798,1.437,18.066
			c2.783,1.933,5.279,2.905,7.383,3.342c1.087-2.393,1.743-5.47,1.743-8.832C460.548,34.55,457.191,28.379,453.047,28.379z"/>
	</g>
	<circle fill="#F7ECEE" cx="453.309" cy="28.524" r="1.692"/>
	<g>
		<path fill="#F0AECE" d="M342.961,28.025c-2.615,2.155-4.44,6.968-4.44,12.576c0,7.613,3.357,13.783,7.5,13.783
			c2.315,0,4.381-1.927,5.756-4.952c-2.102-0.438-4.598-1.41-7.382-3.341C338.254,41.823,340.967,32.755,342.961,28.025z"/>
	</g>
	<g>
		<path fill="#FBD8E7" d="M346.022,26.819c-1.092,0-2.126,0.438-3.061,1.207c-1.994,4.73-4.707,13.798,1.436,18.067
			c2.784,1.933,5.28,2.904,7.382,3.342c1.089-2.393,1.745-5.469,1.745-8.833C353.523,32.989,350.166,26.819,346.022,26.819z"/>
	</g>
	<circle fill="#F7ECEE" cx="346.87" cy="26.963" r="1.692"/>
	<g>
		<path fill="#F0AECE" d="M458.052,75.39c-2.615,2.152-4.439,6.969-4.439,12.575c0,7.614,3.357,13.785,7.499,13.785
			c2.315,0,4.382-1.93,5.757-4.953c-2.102-0.438-4.598-1.41-7.381-3.343C453.345,89.187,456.058,80.121,458.052,75.39z"/>
	</g>
	<g>
		<path fill="#FBD8E7" d="M461.113,74.181c-1.091,0-2.125,0.441-3.061,1.209c-1.994,4.732-4.708,13.797,1.436,18.065
			c2.784,1.935,5.279,2.907,7.382,3.343c1.09-2.392,1.745-5.47,1.745-8.832C468.614,80.353,465.259,74.181,461.113,74.181z"/>
	</g>
	<circle fill="#F7ECEE" cx="461.375" cy="74.328" r="1.692"/>
	<g>
		<path fill="#F0AECE" d="M519.989,76.691c-2.613,2.154-4.438,6.968-4.438,12.577c0,7.611,3.357,13.783,7.5,13.783
			c2.313,0,4.381-1.927,5.757-4.952c-2.104-0.438-4.6-1.41-7.382-3.343C515.283,90.49,517.995,81.422,519.989,76.691z"/>
	</g>
	<g>
		<path fill="#FBD8E7" d="M523.051,75.482c-1.092,0-2.125,0.439-3.062,1.208c-1.994,4.731-4.706,13.797,1.438,18.067
			c2.782,1.933,5.278,2.905,7.382,3.342c1.089-2.392,1.743-5.471,1.743-8.832C530.552,81.655,527.195,75.482,523.051,75.482z"/>
	</g>
	<circle fill="#F7ECEE" cx="523.314" cy="75.628" r="1.692"/>
	<g>
		<path fill="#F0AECE" d="M580.105,67.063c-2.614,2.153-4.439,6.969-4.439,12.574c0,7.615,3.357,13.786,7.5,13.786
			c2.314,0,4.382-1.93,5.757-4.953c-2.102-0.438-4.598-1.408-7.382-3.343C575.398,80.859,578.112,71.794,580.105,67.063z"/>
	</g>
	<g>
		<path fill="#FBD8E7" d="M583.167,65.854c-1.091,0-2.125,0.438-3.062,1.209c-1.993,4.73-4.706,13.796,1.438,18.066
			c2.783,1.935,5.278,2.905,7.381,3.342c1.089-2.392,1.745-5.47,1.745-8.833C590.67,72.024,587.312,65.854,583.167,65.854z"/>
	</g>
	<circle fill="#F7ECEE" cx="583.43" cy="66" r="1.692"/>
	<g>
		<path fill="#F0AECE" d="M637.097,44.68c-2.613,2.155-4.439,6.969-4.439,12.577c0,7.612,3.359,13.784,7.5,13.784
			c2.314,0,4.382-1.926,5.759-4.953c-2.104-0.438-4.6-1.41-7.383-3.341C632.392,58.479,635.104,49.412,637.097,44.68z"/>
	</g>
	<g>
		<path fill="#FBD8E7" d="M640.16,43.474c-1.092,0-2.127,0.438-3.063,1.207c-1.994,4.731-4.705,13.799,1.438,18.067
			c2.783,1.933,5.279,2.906,7.382,3.342c1.087-2.392,1.745-5.469,1.745-8.832C647.662,49.646,644.303,43.474,640.16,43.474z"/>
	</g>
	<circle fill="#F7ECEE" cx="640.424" cy="43.619" r="1.692"/>
</g>
</svg>
