<?xml version="1.0" encoding="utf-8"?>
<!-- Generator: Adobe Illustrator 16.0.0, SVG Export Plug-In . SVG Version: 6.00 Build 0)  -->
<!DOCTYPE svg PUBLIC "-//W3C//DTD SVG 1.1//EN" "http://www.w3.org/Graphics/SVG/1.1/DTD/svg11.dtd">
<svg version="1.1" id="Layer_1" xmlns="http://www.w3.org/2000/svg" xmlns:xlink="http://www.w3.org/1999/xlink" x="0px" y="0px"
	 width="796.117px" height="165.007px" viewBox="0 0 796.117 165.007" enable-background="new 0 0 796.117 165.007"
	 xml:space="preserve">
<g>
	<path fill="#948EC5" d="M585.647,91.076c-51.422,0-100.554-10.426-138.345-29.357C412.398,44.233,391.557,21.162,391.557,0h4.582
		c0,19.391,19.893,40.932,53.214,57.624c37.165,18.616,85.569,28.871,136.292,28.871c50.796,0,103.49-10.539,144.574-28.914
		C768.615,40.408,791.536,18.883,791.536,0h4.581c0,20.743-23.934,43.831-64.027,61.761
		C690.442,80.392,637.065,91.076,585.647,91.076z"/>
	<g>
		<path fill="#F0AECE" d="M464.601,71.377c-3.068,2.529-5.211,8.179-5.211,14.761c0,8.935,3.942,16.177,8.804,16.177
			c2.716,0,5.141-2.261,6.756-5.812c-2.468-0.514-5.396-1.655-8.662-3.923C459.077,87.572,462.261,76.929,464.601,71.377z"/>
	</g>
	<g>
		<path fill="#FBD8E7" d="M468.195,69.96c-1.281,0-2.496,0.514-3.594,1.417c-2.34,5.552-5.523,16.194,1.687,21.205
			c3.267,2.268,6.196,3.409,8.663,3.921c1.277-2.807,2.047-6.419,2.047-10.365C476.997,77.203,473.058,69.96,468.195,69.96z"/>
	</g>
	<circle fill="#F7ECEE" cx="468.503" cy="70.13" r="1.986"/>
	<path fill="#5D6AB2" d="M75.517,91.319C31.098,70.721,4.582,44.104,4.582,20.123H0C0,45.936,27.51,74.105,73.59,95.476
		c50.008,23.192,115.036,35.966,183.105,35.966c0.526,0,1.055-0.01,1.582-0.011c-2.136-1.521-4.25-3.054-6.336-4.602
		C186.258,126.252,123.769,113.697,75.517,91.319z"/>
	<path fill="#948EC5" d="M530.538,20.123c0,23.37-30.547,49.971-81.715,71.157c-54.601,22.61-124.63,35.579-192.129,35.579
		c-1.587,0-3.171-0.015-4.755-0.029c2.087,1.547,4.201,3.08,6.337,4.601c67.591-0.201,137.591-13.263,192.301-35.916
		c25.45-10.539,46.617-22.821,61.213-35.521c15.263-13.281,23.33-27.069,23.33-39.871H530.538z"/>
	<g>
		<path fill="#F0AECE" d="M19.733,65.575c-3.069,2.527-5.211,8.178-5.211,14.76c0,8.935,3.941,16.177,8.803,16.177
			c2.716,0,5.141-2.262,6.757-5.812c-2.469-0.514-5.398-1.656-8.664-3.924C14.209,81.768,17.392,71.127,19.733,65.575z"/>
	</g>
	<g>
		<path fill="#FBD8E7" d="M23.326,64.159c-1.281,0-2.496,0.514-3.593,1.417c-2.341,5.552-5.524,16.193,1.686,21.203
			c3.265,2.271,6.195,3.412,8.664,3.924c1.277-2.807,2.046-6.421,2.046-10.365C32.129,71.401,28.189,64.159,23.326,64.159z"/>
	</g>
	<circle fill="#F7ECEE" cx="23.787" cy="64.022" r="1.986"/>
	<g>
		<path fill="#F0AECE" d="M75.246,99.325c-3.069,2.529-5.212,8.179-5.212,14.761c0,8.934,3.941,16.177,8.804,16.177
			c2.716,0,5.141-2.262,6.757-5.812c-2.469-0.515-5.398-1.656-8.664-3.923C69.721,115.52,72.906,104.877,75.246,99.325z"/>
	</g>
	<g>
		<path fill="#FBD8E7" d="M78.839,97.907c-1.281,0-2.496,0.515-3.592,1.418c-2.341,5.553-5.525,16.194,1.686,21.205
			c3.266,2.269,6.195,3.409,8.664,3.922c1.277-2.808,2.046-6.42,2.046-10.365C87.642,105.15,83.702,97.907,78.839,97.907z"/>
	</g>
	<circle fill="#F7ECEE" cx="79.377" cy="97.925" r="1.985"/>
	<g>
		<path fill="#F0AECE" d="M137.212,120.306c-3.069,2.526-5.211,8.179-5.211,14.761c0,8.935,3.941,16.178,8.803,16.178
			c2.715,0,5.141-2.262,6.757-5.813c-2.469-0.516-5.399-1.657-8.664-3.924C131.687,136.498,134.871,125.857,137.212,120.306z"/>
	</g>
	<g>
		<path fill="#FBD8E7" d="M140.805,118.888c-1.282,0-2.496,0.515-3.593,1.418c-2.341,5.552-5.525,16.192,1.686,21.202
			c3.265,2.271,6.195,3.411,8.664,3.924c1.277-2.807,2.047-6.42,2.047-10.365C149.608,126.131,145.668,118.888,140.805,118.888z"/>
	</g>
	<circle fill="#F7ECEE" cx="140.77" cy="119" r="1.986"/>
	<g>
		<path fill="#F0AECE" d="M198.795,130.327c-3.069,2.527-5.211,8.18-5.211,14.761c0,8.934,3.941,16.177,8.803,16.177
			c2.716,0,5.141-2.261,6.757-5.812c-2.469-0.515-5.399-1.656-8.664-3.924C193.27,146.521,196.454,135.879,198.795,130.327z"/>
	</g>
	<g>
		<path fill="#FBD8E7" d="M202.388,128.91c-1.282,0-2.496,0.514-3.593,1.417c-2.341,5.553-5.525,16.193,1.686,21.203
			c3.265,2.271,6.195,3.413,8.664,3.924c1.277-2.808,2.046-6.421,2.046-10.365C211.192,136.153,207.251,128.91,202.388,128.91z"/>
	</g>
	<circle fill="#F7ECEE" cx="202.468" cy="128.164" r="1.986"/>
	<g>
		<path fill="#F0AECE" d="M264.809,134.069c-3.069,2.527-5.211,8.179-5.211,14.76c0,8.935,3.941,16.178,8.803,16.178
			c2.715,0,5.141-2.264,6.757-5.812c-2.469-0.514-5.398-1.655-8.664-3.924C259.284,150.264,262.468,139.621,264.809,134.069z"/>
	</g>
	<g>
		<path fill="#FBD8E7" d="M268.402,132.65c-1.281,0-2.496,0.517-3.593,1.419c-2.341,5.553-5.525,16.194,1.686,21.204
			c3.266,2.27,6.195,3.411,8.664,3.924c1.277-2.808,2.047-6.422,2.047-10.367C277.206,139.893,273.265,132.65,268.402,132.65z"/>
	</g>
	<circle fill="#F7ECEE" cx="268.137" cy="132.441" r="1.986"/>
	<g>
		<path fill="#F0AECE" d="M335.269,127.562c-3.068,2.526-5.211,8.178-5.211,14.759c0,8.937,3.942,16.179,8.803,16.179
			c2.716,0,5.142-2.263,6.757-5.814c-2.469-0.515-5.397-1.653-8.664-3.922C329.743,143.754,332.928,133.112,335.269,127.562z"/>
	</g>
	<g>
		<path fill="#FBD8E7" d="M338.861,126.142c-1.28,0-2.495,0.513-3.592,1.42c-2.34,5.551-5.525,16.192,1.686,21.201
			c3.266,2.271,6.195,3.409,8.664,3.923c1.277-2.806,2.047-6.419,2.047-10.365C347.665,133.385,343.725,126.142,338.861,126.142z"/>
	</g>
	<circle fill="#F7ECEE" cx="338.998" cy="126.027" r="1.986"/>
	<g>
		<path fill="#F0AECE" d="M407.179,110.778c-3.069,2.529-5.211,8.18-5.211,14.761c0,8.934,3.941,16.177,8.803,16.177
			c2.716,0,5.142-2.261,6.756-5.812c-2.468-0.514-5.397-1.655-8.664-3.922C401.655,126.974,404.839,116.33,407.179,110.778z"/>
	</g>
	<g>
		<path fill="#FBD8E7" d="M410.771,109.362c-1.28,0-2.495,0.514-3.592,1.416c-2.34,5.553-5.524,16.195,1.686,21.205
			c3.266,2.269,6.195,3.409,8.663,3.923c1.278-2.807,2.048-6.42,2.048-10.366C419.576,116.604,415.636,109.362,410.771,109.362z"/>
	</g>
	<circle fill="#F7ECEE" cx="411.081" cy="109.531" r="1.985"/>
	<g>
		<path fill="#F0AECE" d="M469.947,86.499c-3.068,2.527-5.21,8.179-5.21,14.758c0,8.937,3.941,16.179,8.803,16.179
			c2.716,0,5.142-2.263,6.756-5.813c-2.468-0.514-5.396-1.653-8.662-3.923C464.423,102.691,467.607,92.05,469.947,86.499z"/>
	</g>
	<g>
		<path fill="#FBD8E7" d="M473.54,85.079c-1.281,0-2.496,0.515-3.594,1.419c-2.34,5.552-5.523,16.193,1.687,21.204
			c3.267,2.27,6.195,3.41,8.663,3.921c1.278-2.806,2.048-6.419,2.048-10.365C482.344,92.322,478.404,85.079,473.54,85.079z"/>
	</g>
	<circle fill="#F7ECEE" cx="474" cy="84.487" r="1.986"/>
	<g>
		<path fill="#F0AECE" d="M528.132,34.725c-3.068,2.529-5.21,8.179-5.21,14.761c0,8.934,3.941,16.177,8.802,16.177
			c2.716,0,5.142-2.261,6.757-5.812c-2.469-0.514-5.398-1.656-8.664-3.922C522.608,50.919,525.791,40.276,528.132,34.725z"/>
	</g>
	<g>
		<path fill="#FBD8E7" d="M531.725,33.308c-1.281,0-2.495,0.514-3.593,1.417c-2.341,5.552-5.524,16.195,1.687,21.204
			c3.266,2.269,6.195,3.41,8.664,3.923c1.276-2.808,2.046-6.42,2.046-10.366C540.529,40.55,536.589,33.308,531.725,33.308z"/>
	</g>
	<circle fill="#F7ECEE" cx="532.034" cy="33.478" r="1.986"/>
	<g>
		<path fill="#F0AECE" d="M402.521,32.892c-3.069,2.529-5.211,8.178-5.211,14.76c0,8.935,3.941,16.177,8.803,16.177
			c2.717,0,5.142-2.261,6.756-5.812c-2.467-0.514-5.397-1.655-8.664-3.922C396.997,49.086,400.181,38.444,402.521,32.892z"/>
	</g>
	<g>
		<path fill="#FBD8E7" d="M406.114,31.476c-1.281,0-2.495,0.514-3.593,1.417c-2.34,5.552-5.524,16.195,1.686,21.205
			c3.266,2.268,6.196,3.409,8.664,3.922c1.278-2.808,2.048-6.419,2.048-10.366C414.918,38.718,410.978,31.476,406.114,31.476z"/>
	</g>
	<circle fill="#F7ECEE" cx="407.11" cy="31.645" r="1.986"/>
	<g>
		<path fill="#F0AECE" d="M537.6,88.483c-3.068,2.526-5.21,8.179-5.21,14.758c0,8.937,3.941,16.18,8.802,16.18
			c2.717,0,5.142-2.264,6.757-5.813c-2.467-0.514-5.397-1.655-8.663-3.923C532.076,104.676,535.26,94.035,537.6,88.483z"/>
	</g>
	<g>
		<path fill="#FBD8E7" d="M541.193,87.064c-1.28,0-2.494,0.517-3.593,1.419c-2.34,5.553-5.525,16.192,1.686,21.203
			c3.267,2.271,6.196,3.412,8.664,3.923c1.278-2.807,2.048-6.42,2.048-10.365C549.997,94.307,546.058,87.064,541.193,87.064z"/>
	</g>
	<circle fill="#F7ECEE" cx="541.501" cy="87.236" r="1.986"/>
	<g>
		<path fill="#F0AECE" d="M610.294,90.01c-3.068,2.529-5.21,8.179-5.21,14.761c0,8.934,3.941,16.177,8.802,16.177
			c2.716,0,5.142-2.262,6.757-5.813c-2.469-0.514-5.398-1.655-8.664-3.922C604.77,106.204,607.953,95.562,610.294,90.01z"/>
	</g>
	<g>
		<path fill="#FBD8E7" d="M613.887,88.592c-1.281,0-2.494,0.515-3.593,1.417c-2.341,5.553-5.524,16.194,1.687,21.205
			c3.266,2.269,6.195,3.41,8.663,3.923c1.278-2.808,2.047-6.421,2.047-10.366C622.692,95.835,618.751,88.592,613.887,88.592z"/>
	</g>
	<circle fill="#F7ECEE" cx="614.197" cy="88.762" r="1.986"/>
	<g>
		<path fill="#F0AECE" d="M680.85,78.709c-3.068,2.527-5.21,8.179-5.21,14.758c0,8.937,3.941,16.18,8.802,16.18
			c2.717,0,5.142-2.264,6.757-5.814c-2.467-0.513-5.397-1.653-8.664-3.923C675.326,94.902,678.51,84.262,680.85,78.709z"/>
	</g>
	<g>
		<path fill="#FBD8E7" d="M684.443,77.291c-1.28,0-2.494,0.514-3.593,1.419c-2.34,5.552-5.523,16.192,1.688,21.203
			c3.265,2.271,6.194,3.41,8.662,3.923c1.278-2.807,2.048-6.42,2.048-10.367C693.248,84.533,689.308,77.291,684.443,77.291z"/>
	</g>
	<circle fill="#F7ECEE" cx="684.752" cy="77.462" r="1.986"/>
	<g>
		<path fill="#F0AECE" d="M747.74,52.44c-3.068,2.529-5.211,8.179-5.211,14.761c0,8.934,3.943,16.177,8.804,16.177
			c2.715,0,5.142-2.26,6.757-5.812c-2.469-0.514-5.397-1.655-8.664-3.922C742.217,68.635,745.401,57.993,747.74,52.44z"/>
	</g>
	<g>
		<path fill="#FBD8E7" d="M751.334,51.024c-1.281,0-2.496,0.514-3.594,1.417c-2.34,5.552-5.523,16.195,1.687,21.205
			c3.267,2.268,6.196,3.41,8.663,3.922c1.277-2.808,2.049-6.419,2.049-10.366C760.139,58.267,756.198,51.024,751.334,51.024z"/>
	</g>
	<circle fill="#F7ECEE" cx="751.644" cy="51.194" r="1.986"/>
</g>
</svg>
