<?xml version="1.0" encoding="utf-8"?>
<!-- Generator: Adobe Illustrator 16.0.0, SVG Export Plug-In . SVG Version: 6.00 Build 0)  -->
<!DOCTYPE svg PUBLIC "-//W3C//DTD SVG 1.1//EN" "http://www.w3.org/Graphics/SVG/1.1/DTD/svg11.dtd">
<svg version="1.1" id="Layer_1" xmlns="http://www.w3.org/2000/svg" xmlns:xlink="http://www.w3.org/1999/xlink" x="0px" y="0px"
	 width="161.25px" height="239.667px" viewBox="0 0 161.25 239.667" enable-background="new 0 0 161.25 239.667"
	 xml:space="preserve">
<g>
	<ellipse fill="#FBD8E7" cx="92.097" cy="216.962" rx="19.183" ry="22.641"/>
	<line fill="none" stroke="#E9ABC8" stroke-width="4" stroke-miterlimit="10" x1="92.096" y1="0.053" x2="92.096" y2="142.032"/>
	<path fill="#F0AECE" d="M67.645,224.499c-7.188,0-10.704-7.295-7.812-16.211l27.006-83.285c2.891-8.916,7.623-8.916,10.514,0
		l27.006,83.285c2.893,8.916-0.625,16.211-7.813,16.211H67.645z"/>
	<ellipse fill="#FBD8E7" cx="149.396" cy="128.792" rx="6.907" ry="8.152"/>
	<line fill="none" stroke="#E9ABC8" stroke-width="4" stroke-miterlimit="10" x1="149.395" y1="0.084" x2="149.395" y2="101.806"/>
	<path fill="#F0AECE" d="M140.59,131.505c-2.59,0-3.855-2.627-2.814-5.838l9.727-29.994c1.041-3.211,2.746-3.211,3.787,0
		l9.727,29.994c1.041,3.211-0.225,5.838-2.814,5.838H140.59z"/>
	<ellipse fill="#FBD8E7" cx="23.238" cy="94.442" rx="13.122" ry="15.486"/>
	<line fill="none" stroke="#E9ABC8" stroke-width="4" stroke-miterlimit="10" x1="23.238" y1="0.068" x2="23.238" y2="43.187"/>
	<path fill="#F0AECE" d="M6.512,99.597c-4.917,0-7.322-4.99-5.345-11.088l18.475-56.973c1.978-6.1,5.215-6.1,7.191,0l18.475,56.973
		c1.978,6.098-0.427,11.088-5.344,11.088H6.512z"/>
</g>
</svg>
