<?xml version="1.0" encoding="utf-8"?>
<!-- Generator: Adobe Illustrator 16.0.0, SVG Export Plug-In . SVG Version: 6.00 Build 0)  -->
<!DOCTYPE svg PUBLIC "-//W3C//DTD SVG 1.1//EN" "http://www.w3.org/Graphics/SVG/1.1/DTD/svg11.dtd">
<svg version="1.1" id="Layer_1" xmlns="http://www.w3.org/2000/svg" xmlns:xlink="http://www.w3.org/1999/xlink" x="0px" y="0px"
	 width="868.829px" height="180.078px" viewBox="0 0 868.829 180.078" enable-background="new 0 0 868.829 180.078"
	 xml:space="preserve">
<g>
	<path fill="#948EC5" d="M639.134,99.395c-56.118,0-109.737-11.379-150.979-32.039C450.062,48.273,427.319,23.094,427.319,0h5
		c0,21.162,21.71,44.67,58.074,62.887c40.561,20.316,93.385,31.508,148.74,31.508c55.436,0,112.943-11.502,157.779-31.555
		c41.9-18.742,66.916-42.232,66.916-62.84h5c0,22.637-26.121,47.834-69.875,67.402C753.5,87.734,695.248,99.395,639.134,99.395z"/>
	<g>
		<path fill="#F0AECE" d="M507.034,77.896c-3.349,2.76-5.687,8.926-5.687,16.109c0,9.75,4.302,17.654,9.607,17.654
			c2.964,0,5.611-2.467,7.374-6.342c-2.694-0.561-5.891-1.807-9.455-4.281C501.005,95.57,504.48,83.955,507.034,77.896z"/>
	</g>
	<g>
		<path fill="#FBD8E7" d="M510.955,76.35c-1.398,0-2.723,0.561-3.921,1.547c-2.554,6.059-6.029,17.674,1.84,23.141
			c3.564,2.475,6.761,3.721,9.455,4.281c1.394-3.064,2.234-7.006,2.234-11.313C520.563,84.254,516.263,76.35,510.955,76.35z"/>
	</g>
	<circle fill="#F7ECEE" cx="511.292" cy="76.535" r="2.167"/>
	<path fill="#5D6AB2" d="M82.414,99.66C33.939,77.18,5,48.133,5,21.961H0c0,28.17,30.022,58.912,80.311,82.234
		c54.575,25.311,125.542,39.25,199.828,39.25c0.574,0,1.151-0.01,1.727-0.012c-2.332-1.658-4.639-3.332-6.916-5.02
		C203.269,137.783,135.074,124.082,82.414,99.66z"/>
	<path fill="#948EC5" d="M578.993,21.961c0,25.504-33.337,54.535-89.178,77.656c-59.588,24.676-136.013,38.828-209.677,38.828
		c-1.732,0-3.461-0.016-5.189-0.031c2.277,1.688,4.584,3.361,6.916,5.02c73.763-0.219,150.157-14.473,209.863-39.195
		c27.774-11.502,50.875-24.906,66.803-38.766c16.657-14.494,25.462-29.541,25.462-43.512H578.993z"/>
	<g>
		<path fill="#F0AECE" d="M21.535,71.564c-3.349,2.758-5.687,8.926-5.687,16.109c0,9.75,4.302,17.654,9.607,17.654
			c2.964,0,5.611-2.467,7.374-6.342c-2.694-0.561-5.891-1.807-9.455-4.283C15.506,89.236,18.981,77.623,21.535,71.564z"/>
	</g>
	<g>
		<path fill="#FBD8E7" d="M25.456,70.018c-1.398,0-2.723,0.561-3.921,1.547c-2.554,6.059-6.029,17.672,1.84,23.139
			c3.564,2.477,6.761,3.723,9.455,4.283c1.394-3.064,2.234-7.008,2.234-11.313C35.064,77.922,30.764,70.018,25.456,70.018z"/>
	</g>
	<circle fill="#F7ECEE" cx="25.96" cy="69.869" r="2.167"/>
	<g>
		<path fill="#F0AECE" d="M82.118,108.396c-3.349,2.76-5.687,8.926-5.687,16.109c0,9.75,4.302,17.654,9.607,17.654
			c2.964,0,5.611-2.467,7.374-6.342c-2.694-0.561-5.891-1.807-9.455-4.281C76.089,126.07,79.564,114.455,82.118,108.396z"/>
	</g>
	<g>
		<path fill="#FBD8E7" d="M86.039,106.85c-1.398,0-2.723,0.561-3.921,1.547c-2.554,6.059-6.029,17.674,1.84,23.141
			c3.564,2.475,6.761,3.721,9.455,4.281c1.394-3.064,2.234-7.006,2.234-11.313C95.647,114.754,91.347,106.85,86.039,106.85z"/>
	</g>
	<circle fill="#F7ECEE" cx="86.626" cy="106.869" r="2.167"/>
	<g>
		<path fill="#F0AECE" d="M149.743,131.293c-3.349,2.758-5.687,8.926-5.687,16.109c0,9.75,4.302,17.654,9.607,17.654
			c2.964,0,5.611-2.467,7.374-6.342c-2.694-0.561-5.891-1.807-9.455-4.283C143.714,148.965,147.189,137.352,149.743,131.293z"/>
	</g>
	<g>
		<path fill="#FBD8E7" d="M153.664,129.746c-1.398,0-2.723,0.561-3.921,1.547c-2.554,6.059-6.029,17.672,1.84,23.139
			c3.564,2.477,6.761,3.723,9.455,4.283c1.394-3.064,2.234-7.008,2.234-11.313C163.272,137.65,158.972,129.746,153.664,129.746z"/>
	</g>
	<circle fill="#F7ECEE" cx="153.626" cy="129.869" r="2.167"/>
	<g>
		<path fill="#F0AECE" d="M216.951,142.23c-3.349,2.758-5.687,8.926-5.687,16.109c0,9.75,4.302,17.654,9.607,17.654
			c2.964,0,5.611-2.467,7.374-6.342c-2.694-0.561-5.891-1.807-9.455-4.283C210.922,159.902,214.397,148.289,216.951,142.23z"/>
	</g>
	<g>
		<path fill="#FBD8E7" d="M220.872,140.684c-1.398,0-2.723,0.561-3.921,1.547c-2.554,6.059-6.029,17.672,1.84,23.139
			c3.564,2.477,6.761,3.723,9.455,4.283c1.394-3.064,2.234-7.008,2.234-11.313C230.48,148.588,226.18,140.684,220.872,140.684z"/>
	</g>
	<circle fill="#F7ECEE" cx="220.959" cy="139.869" r="2.167"/>
	<g>
		<path fill="#F0AECE" d="M288.994,146.314c-3.349,2.758-5.687,8.926-5.687,16.107c0,9.752,4.302,17.656,9.607,17.656
			c2.964,0,5.611-2.469,7.374-6.342c-2.694-0.561-5.891-1.807-9.455-4.283C282.965,163.986,286.44,152.373,288.994,146.314z"/>
	</g>
	<g>
		<path fill="#FBD8E7" d="M292.915,144.766c-1.398,0-2.723,0.563-3.921,1.549c-2.554,6.059-6.029,17.672,1.84,23.139
			c3.564,2.477,6.761,3.723,9.455,4.283c1.394-3.064,2.234-7.008,2.234-11.314C302.523,152.67,298.223,144.766,292.915,144.766z"/>
	</g>
	<circle fill="#F7ECEE" cx="292.626" cy="144.537" r="2.167"/>
	<g>
		<path fill="#F0AECE" d="M365.889,139.211c-3.349,2.758-5.687,8.926-5.687,16.107c0,9.752,4.302,17.656,9.607,17.656
			c2.964,0,5.611-2.469,7.374-6.344c-2.694-0.561-5.891-1.805-9.455-4.281C359.859,156.883,363.335,145.27,365.889,139.211z"/>
	</g>
	<g>
		<path fill="#FBD8E7" d="M369.81,137.662c-1.398,0-2.723,0.561-3.921,1.549c-2.554,6.059-6.029,17.672,1.84,23.139
			c3.564,2.477,6.761,3.721,9.455,4.281c1.394-3.063,2.234-7.006,2.234-11.313C379.418,145.566,375.117,137.662,369.81,137.662z"/>
	</g>
	<circle fill="#F7ECEE" cx="369.959" cy="137.537" r="2.167"/>
	<g>
		<path fill="#F0AECE" d="M444.367,120.896c-3.349,2.76-5.687,8.926-5.687,16.109c0,9.75,4.302,17.654,9.607,17.654
			c2.964,0,5.611-2.467,7.374-6.342c-2.694-0.561-5.891-1.807-9.455-4.281C438.338,138.57,441.813,126.955,444.367,120.896z"/>
	</g>
	<g>
		<path fill="#FBD8E7" d="M448.288,119.35c-1.398,0-2.723,0.561-3.921,1.547c-2.554,6.059-6.029,17.674,1.84,23.141
			c3.564,2.475,6.761,3.721,9.455,4.281c1.394-3.064,2.234-7.006,2.234-11.313C457.896,127.254,453.596,119.35,448.288,119.35z"/>
	</g>
	<circle fill="#F7ECEE" cx="448.625" cy="119.535" r="2.167"/>
	<g>
		<path fill="#F0AECE" d="M512.868,94.398c-3.349,2.758-5.687,8.926-5.687,16.107c0,9.752,4.302,17.656,9.607,17.656
			c2.964,0,5.611-2.469,7.374-6.344c-2.694-0.561-5.891-1.805-9.455-4.281C506.839,112.07,510.314,100.457,512.868,94.398z"/>
	</g>
	<g>
		<path fill="#FBD8E7" d="M516.789,92.85c-1.398,0-2.723,0.561-3.921,1.549c-2.554,6.059-6.029,17.672,1.84,23.139
			c3.564,2.477,6.761,3.721,9.455,4.281c1.394-3.063,2.234-7.006,2.234-11.313C526.397,100.754,522.097,92.85,516.789,92.85z"/>
	</g>
	<circle fill="#F7ECEE" cx="517.292" cy="92.203" r="2.167"/>
	<g>
		<path fill="#F0AECE" d="M576.367,37.896c-3.349,2.76-5.687,8.926-5.687,16.109c0,9.75,4.302,17.654,9.607,17.654
			c2.964,0,5.611-2.467,7.374-6.342c-2.694-0.561-5.891-1.807-9.455-4.281C570.338,55.57,573.813,43.955,576.367,37.896z"/>
	</g>
	<g>
		<path fill="#FBD8E7" d="M580.288,36.35c-1.398,0-2.723,0.561-3.921,1.547c-2.554,6.059-6.029,17.674,1.84,23.141
			c3.564,2.475,6.761,3.721,9.455,4.281c1.394-3.064,2.234-7.006,2.234-11.313C589.896,44.254,585.596,36.35,580.288,36.35z"/>
	</g>
	<circle fill="#F7ECEE" cx="580.625" cy="36.535" r="2.167"/>
	<g>
		<path fill="#F0AECE" d="M439.284,35.896c-3.349,2.76-5.687,8.926-5.687,16.109c0,9.75,4.302,17.654,9.607,17.654
			c2.964,0,5.611-2.467,7.374-6.342c-2.694-0.561-5.891-1.807-9.455-4.281C433.255,53.57,436.73,41.955,439.284,35.896z"/>
	</g>
	<g>
		<path fill="#FBD8E7" d="M443.205,34.35c-1.398,0-2.723,0.561-3.921,1.547c-2.554,6.059-6.029,17.674,1.84,23.141
			c3.564,2.475,6.761,3.721,9.455,4.281c1.394-3.064,2.234-7.006,2.234-11.313C452.813,42.254,448.513,34.35,443.205,34.35z"/>
	</g>
	<circle fill="#F7ECEE" cx="444.292" cy="34.535" r="2.167"/>
	<g>
		<path fill="#F0AECE" d="M586.7,96.564c-3.349,2.758-5.687,8.926-5.687,16.107c0,9.752,4.302,17.656,9.607,17.656
			c2.964,0,5.611-2.469,7.374-6.342c-2.694-0.561-5.891-1.807-9.455-4.283C580.671,114.236,584.146,102.623,586.7,96.564z"/>
	</g>
	<g>
		<path fill="#FBD8E7" d="M590.621,95.016c-1.398,0-2.723,0.563-3.921,1.549c-2.554,6.059-6.029,17.672,1.84,23.139
			c3.564,2.477,6.761,3.723,9.455,4.283c1.394-3.064,2.234-7.008,2.234-11.314C600.229,102.92,595.929,95.016,590.621,95.016z"/>
	</g>
	<circle fill="#F7ECEE" cx="590.958" cy="95.203" r="2.167"/>
	<g>
		<path fill="#F0AECE" d="M666.033,98.23c-3.349,2.76-5.687,8.926-5.687,16.109c0,9.75,4.302,17.654,9.607,17.654
			c2.964,0,5.611-2.467,7.374-6.342c-2.694-0.561-5.891-1.807-9.455-4.281C660.004,115.904,663.479,104.289,666.033,98.23z"/>
	</g>
	<g>
		<path fill="#FBD8E7" d="M669.954,96.684c-1.398,0-2.723,0.561-3.921,1.547c-2.554,6.059-6.029,17.674,1.84,23.141
			c3.564,2.475,6.761,3.721,9.455,4.281c1.394-3.064,2.234-7.006,2.234-11.313C679.563,104.588,675.262,96.684,669.954,96.684z"/>
	</g>
	<circle fill="#F7ECEE" cx="670.291" cy="96.869" r="2.167"/>
	<g>
		<path fill="#F0AECE" d="M743.033,85.898c-3.349,2.758-5.687,8.926-5.687,16.107c0,9.752,4.302,17.656,9.607,17.656
			c2.964,0,5.611-2.469,7.374-6.344c-2.694-0.561-5.891-1.805-9.455-4.281C737.004,103.57,740.479,91.957,743.033,85.898z"/>
	</g>
	<g>
		<path fill="#FBD8E7" d="M746.954,84.35c-1.398,0-2.723,0.561-3.921,1.549c-2.554,6.059-6.029,17.672,1.84,23.139
			c3.564,2.477,6.761,3.721,9.455,4.281c1.394-3.063,2.234-7.006,2.234-11.313C756.563,92.254,752.262,84.35,746.954,84.35z"/>
	</g>
	<circle fill="#F7ECEE" cx="747.291" cy="84.537" r="2.167"/>
	<g>
		<path fill="#F0AECE" d="M816.033,57.23c-3.349,2.76-5.687,8.926-5.687,16.109c0,9.75,4.302,17.654,9.607,17.654
			c2.964,0,5.611-2.467,7.374-6.342c-2.694-0.561-5.891-1.807-9.455-4.281C810.004,74.904,813.479,63.289,816.033,57.23z"/>
	</g>
	<g>
		<path fill="#FBD8E7" d="M819.954,55.684c-1.398,0-2.723,0.561-3.921,1.547c-2.554,6.059-6.029,17.674,1.84,23.141
			c3.564,2.475,6.761,3.721,9.455,4.281c1.394-3.064,2.234-7.006,2.234-11.313C829.563,63.588,825.262,55.684,819.954,55.684z"/>
	</g>
	<circle fill="#F7ECEE" cx="820.291" cy="55.869" r="2.167"/>
</g>
</svg>
