<?xml version="1.0" encoding="utf-8"?>
<!-- Generator: Adobe Illustrator 16.0.0, SVG Export Plug-In . SVG Version: 6.00 Build 0)  -->
<!DOCTYPE svg PUBLIC "-//W3C//DTD SVG 1.1//EN" "http://www.w3.org/Graphics/SVG/1.1/DTD/svg11.dtd">
<svg version="1.1" id="Layer_1" xmlns="http://www.w3.org/2000/svg" xmlns:xlink="http://www.w3.org/1999/xlink" x="0px" y="0px"
	 width="463.234px" height="603.445px" viewBox="0 0 463.234 603.445" enable-background="new 0 0 463.234 603.445"
	 xml:space="preserve">
<g id="Layer_1_1_">
</g>
<g id="Layer_2">
</g>
<g>
	<path stroke="#000000" stroke-width="5.5086" stroke-miterlimit="10" d="M449.657,577.258
		c-38.597-74.129-99.263-120.796-209.265-142.764c-112.412,0-204.139,55.51-209.264,142.764H449.657z"/>
	<path fill="#FFFFFF" stroke="#000000" stroke-width="6" stroke-miterlimit="10" d="M431.142,206.464
		c-11.124-52.27-48.147-100.966-95.603-125.433c-24.03-12.391-49.813-20.664-76.77-23.328c-25.995-2.567-52.45-0.148-77.735,7.728
		c-13.353,4.158-26.995,9.747-39.144,16.726c-34.293,19.704-63.084,49.537-77.947,86.482c-12.101,30.082-4.74,61.576-17.098,91.561
		c-2.555,6.195-6.162,11.692-7.962,18.085c-13.457,47.795,16.437,93.146,56.019,117.323c12.259,7.487,25.947,14.569,39.502,19.384
		c17.076,6.066,36.05,11.266,54.104,13.271c4.252,0.473,8.528,0.866,12.816,1.188c0,0,0,8.543,0,8.57c0,0,0,0.091,0.007,0.091
		c0.082,7.164,8.442,9.958,18.752,9.958c10.36,0,18.762-2.85,18.762-10.063c0-0.102-0.02-0.197-0.022-0.297v-7.512
		c19.236-0.726,39.099-3.362,57.683-8.217c16.39-4.282,32.931-11.043,47.47-19.795c38.639-23.255,68.009-61.621,80.679-104.939
		C433.215,267.975,437.56,236.617,431.142,206.464z"/>
	<path fill="#F9C6D3" d="M228.659,280.705c0,2.093-1.696,3.789-3.789,3.789h-40.286c-2.094,0-3.79-1.696-3.79-3.789l0,0
		c0-2.093,1.697-3.789,3.79-3.789h40.286C226.963,276.916,228.659,278.612,228.659,280.705L228.659,280.705z"/>
	<g>
		<ellipse fill="#FEEEEE" cx="126.144" cy="272.46" rx="37.75" ry="29.5"/>
		<ellipse fill="#FEEEEE" cx="288.144" cy="272.46" rx="37.75" ry="29.5"/>
	</g>
	<path fill="#3A3A3A" stroke="#000000" stroke-width="6" stroke-miterlimit="10" d="M338.651,18.531
		C302.918,4.992,263.271,0.619,225.423,4.19c-33.68,3.179-69.187,9.488-99.075,26.078c-46.462,25.789-83.109,71.724-89.68,125.763
		c-0.002,0.019-6.38,42.397,1.597,62.446h53.183l14.111-49.018l2.375,46.726h139.871l5.85-62.446l3.724,63.019l101.877-0.175
		c-0.04,13.918,2.961,30.951,3.119,31.839c-0.82-4.618,10.019-8.366,13.067-9.462c11.326-4.062,29.388,0.543,36.131,11.42
		c15.013,24.211-2.713,55.832-24.942,68.411l-7.668,4.334l-4,3c0,0-12.154,63.204-12.166,63.25
		c0.77-3.692,76.683-25.577,94.88-141.11c2.314-14.701,3.104-30.028,2.188-44.895c-0.872-14.137-3.171-28.217-6.206-42.045
		C440.305,100.486,397.99,41.019,338.651,18.531z"/>
</g>
</svg>
