<?xml version="1.0" encoding="utf-8"?>
<!-- Generator: Adobe Illustrator 16.0.0, SVG Export Plug-In . SVG Version: 6.00 Build 0)  -->
<!DOCTYPE svg PUBLIC "-//W3C//DTD SVG 1.1//EN" "http://www.w3.org/Graphics/SVG/1.1/DTD/svg11.dtd">
<svg version="1.1" id="Layer_1" xmlns="http://www.w3.org/2000/svg" xmlns:xlink="http://www.w3.org/1999/xlink" x="0px" y="0px"
	 width="435.025px" height="580.01px" viewBox="0 0 435.025 580.01" enable-background="new 0 0 435.025 580.01"
	 xml:space="preserve">
<g>
	<path stroke="#000000" stroke-width="5.5086" stroke-miterlimit="10" d="M421.448,577.256
		c-38.597-74.129-99.263-120.796-209.265-142.762c-112.412,0-204.138,55.508-209.263,142.762H421.448z"/>
	<path fill="#FFFDF4" stroke="#000000" stroke-width="6" stroke-miterlimit="10" d="M402.932,206.464
		c-11.124-52.27-48.148-100.966-95.602-125.433c-24.031-12.391-49.814-20.664-76.769-23.328c-25.995-2.569-52.45-0.15-77.736,7.726
		c-13.352,4.16-26.995,9.747-39.143,16.726c-34.293,19.704-63.084,49.537-77.947,86.482c-12.101,30.082-4.741,61.578-17.098,91.561
		c-2.554,6.195-6.162,11.692-7.962,18.085c-13.457,47.795,16.437,93.146,56.019,117.323c12.258,7.487,25.947,14.569,39.502,19.384
		c17.076,6.066,36.049,11.264,54.103,13.271c4.252,0.473,8.529,0.866,12.817,1.189c0,0,0,8.543,0,8.57c0,0,0,0.091,0.007,0.091
		c0.082,7.164,8.443,9.958,18.752,9.958c10.361,0,18.761-2.85,18.761-10.063c0-0.1-0.019-0.197-0.022-0.297v-7.51
		c19.236-0.726,39.098-3.364,57.682-8.217c16.389-4.282,32.93-11.043,47.469-19.795c38.639-23.255,68.009-61.621,80.679-104.939
		C405.004,267.975,409.35,236.617,402.932,206.464z"/>
	<path fill="#F9C6D3" d="M200.449,280.705c0,2.093-1.696,3.789-3.789,3.789h-40.286c-2.093,0-3.79-1.696-3.79-3.789l0,0
		c0-2.093,1.697-3.789,3.79-3.789h40.286C198.753,276.916,200.449,278.612,200.449,280.705L200.449,280.705z"/>
	<g>
		<ellipse fill="#FEEEEE" cx="97.934" cy="272.46" rx="37.75" ry="29.5"/>
		<ellipse fill="#FEEEEE" cx="259.934" cy="272.46" rx="37.75" ry="29.5"/>
	</g>
	<path fill="#3A3A3A" stroke="#000000" stroke-width="6" stroke-miterlimit="10" d="M310.441,18.531
		C274.708,4.992,235.062,0.619,197.213,4.19c-33.68,3.179-69.186,9.488-99.076,26.078C51.675,56.058,15.027,101.992,8.458,156.031
		c-0.002,0.019-6.38,42.397,1.596,62.446h53.183l14.111-49.016l2.375,46.724h139.871l5.85-62.446l3.723,63.019l101.877-0.175
		c-0.04,13.918,2.961,30.951,3.119,31.839c-0.821-4.62,10.018-8.368,13.068-9.462c11.326-4.062,29.387,0.543,36.131,11.42
		c15.012,24.211-2.713,55.83-24.943,68.411l-7.668,4.334l-4,3c0,0-12.155,63.204-12.166,63.25
		c0.769-3.694,76.682-25.579,94.879-141.112c2.316-14.701,3.106-30.028,2.19-44.893c-0.872-14.137-3.171-28.217-6.206-42.045
		C412.095,100.486,369.781,41.019,310.441,18.531z"/>
</g>
</svg>
