<?xml version="1.0" encoding="utf-8"?>
<!-- Generator: Adobe Illustrator 16.0.0, SVG Export Plug-In . SVG Version: 6.00 Build 0)  -->
<!DOCTYPE svg PUBLIC "-//W3C//DTD SVG 1.1//EN" "http://www.w3.org/Graphics/SVG/1.1/DTD/svg11.dtd">
<svg version="1.1" id="Layer_1" xmlns="http://www.w3.org/2000/svg" xmlns:xlink="http://www.w3.org/1999/xlink" x="0px" y="0px"
	 width="68.544px" height="94.648px" viewBox="0 0 68.544 94.648" enable-background="new 0 0 68.544 94.648" xml:space="preserve">
<g>
	<path fill="#948EC5" d="M11.823,86.199L5.39,92.633c-1.109,1.109-0.733,2.016,0.835,2.016H64.22c1.569,0,1.945-0.906,0.837-2.016
		l-6.405-6.404C57.544,85.121,12.934,85.09,11.823,86.199z"/>
	<polygon fill="#54459C" points="55.347,82.926 15.052,82.969 11.479,86.543 58.965,86.543 	"/>
	<path fill="#54459C" d="M63.578,0H4.966C2.226,0,0,2.225,0,4.967V78.48c0,2.742,2.226,4.965,4.966,4.965h58.612
		c2.74,0,4.966-2.223,4.966-4.965V4.967C68.544,2.225,66.318,0,63.578,0z"/>
	<path fill="#948EC5" d="M62.317,1.793H6.225c-2.624,0-4.753,2.127-4.753,4.754V76.9c0,2.627,2.129,4.754,4.753,4.754h56.093
		c2.626,0,4.755-2.127,4.755-4.754V6.547C67.072,3.92,64.943,1.793,62.317,1.793z"/>
	<path fill="#FBD9E7" d="M58.457,7.291h-48.37c-2.264,0-4.1,1.834-4.1,4.098v60.67c0,2.264,1.836,4.098,4.1,4.098h48.37
		c2.264,0,4.1-1.834,4.1-4.098v-60.67C62.557,9.125,60.721,7.291,58.457,7.291z"/>
	<g>
		<defs>
			<path id="SVGID_1_" d="M58.457,7.291h-48.37c-2.264,0-4.1,1.834-4.1,4.098v60.67c0,2.264,1.836,4.098,4.1,4.098h48.37
				c2.264,0,4.1-1.834,4.1-4.098v-60.67C62.557,9.125,60.721,7.291,58.457,7.291z"/>
		</defs>
		<clipPath id="SVGID_2_">
			<use xlink:href="#SVGID_1_"  overflow="visible"/>
		</clipPath>
		<g clip-path="url(#SVGID_2_)">
			
				<rect x="-8.264" y="29.946" transform="matrix(0.7071 0.7071 -0.7071 0.7071 37.573 -19.6459)" fill="#FEF3F8" width="101.53" height="11.171"/>
			
				<rect x="-18.01" y="43.258" transform="matrix(0.7071 0.7071 -0.7071 0.7071 41.6105 -9.8982)" fill="#FEF3F8" width="101.528" height="4.042"/>
		</g>
	</g>
</g>
</svg>
