<?xml version="1.0" encoding="utf-8"?>
<!-- Generator: Adobe Illustrator 16.0.0, SVG Export Plug-In . SVG Version: 6.00 Build 0)  -->
<!DOCTYPE svg PUBLIC "-//W3C//DTD SVG 1.1//EN" "http://www.w3.org/Graphics/SVG/1.1/DTD/svg11.dtd">
<svg version="1.1" id="Layer_1" xmlns="http://www.w3.org/2000/svg" xmlns:xlink="http://www.w3.org/1999/xlink" x="0px" y="0px"
	 width="325.76px" height="271.184px" viewBox="0 0 325.76 271.184" enable-background="new 0 0 325.76 271.184"
	 xml:space="preserve">
<g>
	<path fill="#2D2C7A" d="M242.946,271.183h-165c-6.793,0-12.302-6.599-12.302-14.739l0,0c0-8.141,5.508-14.741,12.302-14.741h165
		c6.794,0,20.391,6.494,20.391,14.635"/>
	<rect x="139.408" y="217.175" fill="#2D2C7A" width="37.823" height="36.617"/>
	<path fill="#2D2C7A" d="M141.601,229.05h123.326c42.292-0.019,56.182-18.523,59.733-33.633L290.129,38.76
		c0-13.91-11.284-25.187-25.202-25.187L59.24,0.139C45.321,0.139,2.454,10.797,0,38.76v165.105
		c0,13.908,11.286,25.185,25.204,25.185h102.823H141.601z"/>
	<path fill="#312763" d="M254.256,271.183h-165c-6.793,0-12.301-6.599-12.301-14.739l0,0c0-8.141,5.508-14.741,12.301-14.741h165
		c6.794,0,20.391,6.494,20.391,14.635"/>
	<path fill="#54459C" d="M300.556,0H60.833C46.915,0,35.629,11.188,35.629,24.987v163.805c0,13.801,11.286,24.988,25.204,24.988
		h102.824v40.012h13.574V213.78h123.326c13.918,0,25.204-11.188,25.204-24.988V24.987C325.76,11.188,314.474,0,300.556,0z"/>
	<path fill="#FBD8E7" d="M296.521,8.594H64.523c-11.718,0-21.219,10.616-21.219,23.712v148.59c0,13.099,9.5,23.713,21.219,23.713
		h107.513v41.974H98.021c-6.793,0-12.301,5.507-12.301,12.299c0,6.795,5.507,12.302,12.301,12.302h165.001
		c6.794,0,12.301-5.507,12.301-12.302c0-6.792-5.507-12.299-12.301-12.299H189.01v-41.974h107.511
		c11.72,0,21.221-10.615,21.221-23.713V32.306C317.742,19.21,308.241,8.594,296.521,8.594z"/>
	<g>
		<path fill="#948EC5" d="M273.534,130.102c0-17.728,0-77.11,0-106.998H73.326c-8.433,0-15.271,7.64-15.271,17.066v112.684h196.816
			C254.871,152.853,273.534,154.116,273.534,130.102z"/>
		<path fill="#FCD7D8" d="M99.34,35.81H72.053c-2.343,0-4.242,2.123-4.242,4.742v0.142v1.913v28.58c0,2.618,1.898,4.739,4.242,4.739
			h1.839c2.343,0,4.242-2.121,4.242-4.739V47.345H99.34c2.344,0,4.242-2.121,4.242-4.738v-2.055
			C103.583,37.933,101.683,35.81,99.34,35.81z"/>
		<ellipse fill="#FCD7D8" cx="72.976" cy="86.096" rx="5.156" ry="4.939"/>
		<path fill="#5D6AB2" d="M288.665,23.122h-15.131c0,29.889,0,89.271,0,106.996c0,24.016-18.663,22.753-18.663,22.753H58.054v19.292
			c0,9.426,6.839,17.065,15.271,17.065h215.339c8.437,0,15.272-7.64,15.272-17.065V40.188
			C303.935,30.762,297.101,23.122,288.665,23.122z"/>
	</g>
	<path fill="#F0AECE" d="M169.189,258.892c0,6.788-5.571,12.291-12.443,12.291H98.212c-6.873,0-12.442-5.503-12.442-12.291l0,0
		c0-6.792,5.57-12.293,12.442-12.293h58.534C163.619,246.599,169.189,252.1,169.189,258.892L169.189,258.892z"/>
	<g>
		<path fill="#7B70B4" d="M146.124,258.53c0,4.567-3.703,8.271-8.271,8.271l0,0c-4.568,0-8.271-3.704-8.271-8.271l0,0
			c0-4.568,3.703-8.271,8.271-8.271l0,0C142.421,250.259,146.124,253.962,146.124,258.53L146.124,258.53z"/>
		<path fill="#534EA1" d="M142.978,258.53c0,2.831-2.294,5.125-5.125,5.125l0,0c-2.831,0-5.125-2.294-5.125-5.125l0,0
			c0-2.832,2.295-5.127,5.125-5.127l0,0C140.684,253.403,142.978,255.698,142.978,258.53L142.978,258.53z"/>
	</g>
	<g>
		<path fill="#7B70B4" d="M236.471,258.53c0,4.567-3.703,8.271-8.271,8.271l0,0c-4.568,0-8.271-3.704-8.271-8.271l0,0
			c0-4.568,3.703-8.271,8.271-8.271l0,0C232.768,250.259,236.471,253.962,236.471,258.53L236.471,258.53z"/>
		<path fill="#534EA1" d="M233.326,258.53c0,2.831-2.295,5.125-5.125,5.125l0,0c-2.831,0-5.125-2.294-5.125-5.125l0,0
			c0-2.832,2.294-5.127,5.125-5.127l0,0C231.031,253.403,233.326,255.698,233.326,258.53L233.326,258.53z"/>
	</g>
	<path fill="#F0AECE" d="M58.022,145.418c0,3.747-3.3,6.786-7.37,6.786l0,0c-4.07,0-7.37-3.039-7.37-6.786V47.011
		c0-3.748,3.299-6.787,7.37-6.787l0,0c4.07,0,7.37,3.039,7.37,6.787V145.418z"/>
	<path fill="#F0AECE" d="M58.039,181.153c0,3.887-3.289,7.036-7.353,7.036l0,0c-4.061,0-7.351-3.149-7.351-7.036v-14.065
		c0-3.886,3.291-7.036,7.351-7.036l0,0c4.064,0,7.353,3.15,7.353,7.036V181.153z"/>
</g>
</svg>
