<?xml version="1.0" encoding="utf-8"?>
<!-- Generator: Adobe Illustrator 16.0.0, SVG Export Plug-In . SVG Version: 6.00 Build 0)  -->
<!DOCTYPE svg PUBLIC "-//W3C//DTD SVG 1.1//EN" "http://www.w3.org/Graphics/SVG/1.1/DTD/svg11.dtd">
<svg version="1.1" id="Layer_1" xmlns="http://www.w3.org/2000/svg" xmlns:xlink="http://www.w3.org/1999/xlink" x="0px" y="0px"
	 width="312.761px" height="260.361px" viewBox="0 0 312.761 260.361" enable-background="new 0 0 312.761 260.361"
	 xml:space="preserve">
<g>
	<path fill="#2D2C7A" d="M233.25,260.361H74.835c-6.522,0-11.811-6.335-11.811-14.15l0,0c0-7.816,5.288-14.152,11.811-14.152H233.25
		c6.522,0,19.578,6.234,19.578,14.051"/>
	<rect x="133.845" y="208.508" fill="#2D2C7A" width="36.313" height="35.156"/>
	<path fill="#2D2C7A" d="M135.95,219.909h118.405c40.604-0.019,53.939-17.784,57.35-32.291L278.551,37.213
		c0-13.355-10.834-24.182-24.196-24.182L56.875,0.134C43.512,0.134,2.356,10.366,0,37.213v158.516
		c0,13.354,10.836,24.181,24.198,24.181h98.719H135.95z"/>
	<path fill="#312763" d="M244.11,260.361H85.694c-6.522,0-11.81-6.335-11.81-14.15l0,0c0-7.816,5.288-14.152,11.81-14.152H244.11
		c6.522,0,19.577,6.234,19.577,14.051"/>
	<path fill="#54459C" d="M288.562,0H58.406C45.043,0,34.207,10.741,34.207,23.99v157.269c0,13.25,10.836,23.99,24.198,23.99h98.72
		v38.416h13.033v-38.416h118.404c13.362,0,24.198-10.741,24.198-23.99V23.99C312.76,10.741,301.924,0,288.562,0z"/>
	<path fill="#FBD8E7" d="M284.688,8.251H61.948c-11.25,0-20.372,10.192-20.372,22.766v142.66c0,12.577,9.121,22.767,20.372,22.767
		h103.223v40.3H94.109c-6.522,0-11.81,5.287-11.81,11.808c0,6.523,5.287,11.811,11.81,11.811h158.417
		c6.522,0,11.81-5.287,11.81-11.811c0-6.521-5.287-11.808-11.81-11.808h-71.059v-40.3h103.221c11.252,0,20.375-10.19,20.375-22.767
		V31.017C305.063,18.444,295.94,8.251,284.688,8.251z"/>
	<g>
		<path fill="#948EC5" d="M262.618,124.91c0-17.02,0-74.032,0-102.728H70.4c-8.097,0-14.662,7.335-14.662,16.385v108.187H244.7
			C244.7,146.753,262.618,147.965,262.618,124.91z"/>
		<path fill="#FCD7D8" d="M95.376,34.381H69.177c-2.249,0-4.073,2.039-4.073,4.553v0.136v1.837v27.439
			c0,2.514,1.823,4.55,4.073,4.55h1.766c2.249,0,4.073-2.037,4.073-4.55v-22.89h20.36c2.25,0,4.073-2.037,4.073-4.549v-1.973
			C99.449,36.419,97.625,34.381,95.376,34.381z"/>
		<ellipse fill="#FCD7D8" cx="70.064" cy="82.66" rx="4.95" ry="4.742"/>
		<path fill="#5D6AB2" d="M277.146,22.199h-14.527c0,28.696,0,85.708,0,102.727c0,23.057-17.918,21.845-17.918,21.845H55.737v18.522
			c0,9.05,6.566,16.383,14.662,16.383h206.746c8.1,0,14.662-7.334,14.662-16.383V38.584
			C291.806,29.534,285.244,22.199,277.146,22.199z"/>
	</g>
	<path fill="#F0AECE" d="M162.437,248.561c0,6.517-5.348,11.8-11.946,11.8H94.293c-6.599,0-11.946-5.283-11.946-11.8l0,0
		c0-6.521,5.348-11.803,11.946-11.803h56.198C157.09,236.758,162.437,242.039,162.437,248.561L162.437,248.561z"/>
	<g>
		<path fill="#7B70B4" d="M140.293,248.212c0,4.386-3.555,7.941-7.941,7.941l0,0c-4.385,0-7.941-3.556-7.941-7.941l0,0
			c0-4.385,3.556-7.94,7.941-7.94l0,0C136.738,240.272,140.293,243.827,140.293,248.212L140.293,248.212z"/>
		<path fill="#534EA1" d="M137.272,248.212c0,2.719-2.203,4.921-4.92,4.921l0,0c-2.718,0-4.921-2.202-4.921-4.921l0,0
			c0-2.719,2.204-4.922,4.921-4.922l0,0C135.07,243.29,137.272,245.493,137.272,248.212L137.272,248.212z"/>
	</g>
	<g>
		<path fill="#7B70B4" d="M227.034,248.212c0,4.386-3.556,7.941-7.94,7.941l0,0c-4.387,0-7.941-3.556-7.941-7.941l0,0
			c0-4.385,3.555-7.94,7.941-7.94l0,0C223.479,240.272,227.034,243.827,227.034,248.212L227.034,248.212z"/>
		<path fill="#534EA1" d="M224.015,248.212c0,2.719-2.204,4.921-4.92,4.921l0,0c-2.719,0-4.921-2.202-4.921-4.921l0,0
			c0-2.719,2.202-4.922,4.921-4.922l0,0C221.811,243.29,224.015,245.493,224.015,248.212L224.015,248.212z"/>
	</g>
	<path fill="#F0AECE" d="M55.706,139.615c0,3.598-3.168,6.515-7.076,6.515l0,0c-3.907,0-7.076-2.917-7.076-6.515v-94.48
		c0-3.599,3.168-6.516,7.076-6.516l0,0c3.908,0,7.076,2.917,7.076,6.516V139.615z"/>
	<path fill="#F0AECE" d="M55.723,173.923c0,3.733-3.158,6.756-7.06,6.756l0,0c-3.899,0-7.058-3.022-7.058-6.756V160.42
		c0-3.73,3.16-6.755,7.058-6.755l0,0c3.902,0,7.06,3.024,7.06,6.755V173.923z"/>
</g>
</svg>
