<?xml version="1.0" encoding="utf-8"?>
<!-- Generator: Adobe Illustrator 16.0.0, SVG Export Plug-In . SVG Version: 6.00 Build 0)  -->
<!DOCTYPE svg PUBLIC "-//W3C//DTD SVG 1.1//EN" "http://www.w3.org/Graphics/SVG/1.1/DTD/svg11.dtd">
<svg version="1.1" id="Layer_1" xmlns="http://www.w3.org/2000/svg" xmlns:xlink="http://www.w3.org/1999/xlink" x="0px" y="0px"
	 width="383.999px" height="319.666px" viewBox="0 0 383.999 319.666" enable-background="new 0 0 383.999 319.666"
	 xml:space="preserve">
<g>
	<path fill="#2D2C7A" d="M286.38,319.666H91.88c-8.008,0-14.5-7.779-14.5-17.375l0,0c0-9.596,6.492-17.375,14.5-17.375h194.5
		c8.008,0,24.036,7.654,24.036,17.25"/>
	<rect x="164.331" y="256" fill="#2D2C7A" width="44.584" height="43.166"/>
	<path fill="#2D2C7A" d="M166.916,270H312.29c49.853-0.023,66.228-21.836,70.415-39.648L342,45.689C342,29.293,328.697,16,312.29,16
		L69.83,0.164C53.423,0.164,2.893,12.727,0,45.689v194.623C0,256.707,13.303,270,29.71,270h121.206H166.916z"/>
	<path fill="#312763" d="M299.713,319.666h-194.5c-8.008,0-14.5-7.779-14.5-17.375l0,0c0-9.596,6.492-17.375,14.5-17.375h194.5
		c8.008,0,24.036,7.654,24.036,17.25"/>
	<path fill="#54459C" d="M354.289,0H71.709c-16.407,0-29.71,13.188-29.71,29.455v193.09c0,16.268,13.303,29.455,29.71,29.455
		h121.206v47.166h16V252h145.374c16.407,0,29.71-13.188,29.71-29.455V29.455C383.999,13.188,370.696,0,354.289,0z"/>
	<path fill="#FBD8E7" d="M349.534,10.131H76.058c-13.813,0-25.012,12.514-25.012,27.951v175.156
		c0,15.438,11.199,27.951,25.012,27.951h126.734v49.477h-87.246c-8.008,0-14.5,6.492-14.5,14.5s6.492,14.5,14.5,14.5h194.5
		c8.008,0,14.5-6.492,14.5-14.5s-6.492-14.5-14.5-14.5h-87.244v-49.477h126.732c13.814,0,25.014-12.514,25.014-27.951V38.082
		C374.548,22.645,363.349,10.131,349.534,10.131z"/>
	<g>
		<path fill="#948EC5" d="M322.437,153.361c0-20.896,0-90.895,0-126.127H86.435c-9.941,0-18.002,9.006-18.002,20.117V180.18h232.004
			C300.437,180.18,322.437,181.67,322.437,153.361z"/>
		<path fill="#FCD7D8" d="M117.101,42.213H84.935c-2.762,0-5,2.502-5,5.588v0.168v2.254v33.691c0,3.086,2.238,5.586,5,5.586h2.168
			c2.762,0,5-2.5,5-5.586V55.809h24.998c2.762,0,5-2.5,5-5.586v-2.422C122.101,44.715,119.862,42.213,117.101,42.213z"/>
		<ellipse fill="#FCD7D8" cx="86.022" cy="101.488" rx="6.078" ry="5.822"/>
		<path fill="#5D6AB2" d="M340.272,27.256h-17.836c0,35.232,0,105.23,0,126.125c0,28.309-22,26.82-22,26.82H68.433v22.742
			c0,11.109,8.061,20.115,18.002,20.115h253.838c9.943,0,18.002-9.006,18.002-20.115V47.373
			C358.274,36.262,350.216,27.256,340.272,27.256z"/>
	</g>
	<path fill="#F0AECE" d="M199.437,305.176c0,8.002-6.566,14.49-14.667,14.49h-68.999c-8.101,0-14.667-6.488-14.667-14.49l0,0
		c0-8.004,6.566-14.49,14.667-14.49h68.999C192.87,290.686,199.437,297.172,199.437,305.176L199.437,305.176z"/>
	<g>
		<path fill="#7B70B4" d="M172.248,304.75c0,5.385-4.365,9.75-9.75,9.75l0,0c-5.385,0-9.75-4.365-9.75-9.75l0,0
			c0-5.385,4.365-9.75,9.75-9.75l0,0C167.883,295,172.248,299.365,172.248,304.75L172.248,304.75z"/>
		<path fill="#534EA1" d="M168.54,304.75c0,3.336-2.705,6.041-6.042,6.041l0,0c-3.337,0-6.042-2.705-6.042-6.041l0,0
			c0-3.338,2.705-6.043,6.042-6.043l0,0C165.835,298.707,168.54,301.412,168.54,304.75L168.54,304.75z"/>
	</g>
	<g>
		<path fill="#7B70B4" d="M278.748,304.75c0,5.385-4.365,9.75-9.75,9.75l0,0c-5.385,0-9.75-4.365-9.75-9.75l0,0
			c0-5.385,4.365-9.75,9.75-9.75l0,0C274.383,295,278.748,299.365,278.748,304.75L278.748,304.75z"/>
		<path fill="#534EA1" d="M275.04,304.75c0,3.336-2.705,6.041-6.042,6.041l0,0c-3.337,0-6.042-2.705-6.042-6.041l0,0
			c0-3.338,2.705-6.043,6.042-6.043l0,0C272.335,298.707,275.04,301.412,275.04,304.75L275.04,304.75z"/>
	</g>
	<path fill="#F0AECE" d="M68.395,171.416c0,4.418-3.89,8-8.688,8l0,0c-4.798,0-8.687-3.582-8.687-8v-116c0-4.418,3.889-8,8.687-8
		l0,0c4.798,0,8.688,3.582,8.688,8V171.416z"/>
	<path fill="#F0AECE" d="M68.415,213.541c0,4.58-3.878,8.293-8.668,8.293l0,0c-4.786,0-8.665-3.713-8.665-8.293v-16.582
		c0-4.58,3.879-8.293,8.665-8.293l0,0c4.79,0,8.668,3.713,8.668,8.293V213.541z"/>
</g>
</svg>
