<?xml version="1.0" encoding="utf-8"?>
<!-- Generator: Adobe Illustrator 16.0.0, SVG Export Plug-In . SVG Version: 6.00 Build 0)  -->
<!DOCTYPE svg PUBLIC "-//W3C//DTD SVG 1.1//EN" "http://www.w3.org/Graphics/SVG/1.1/DTD/svg11.dtd">
<svg version="1.1" xmlns="http://www.w3.org/2000/svg" xmlns:xlink="http://www.w3.org/1999/xlink" x="0px" y="0px"
	 width="183.49px" height="127.494px" viewBox="0 0 183.49 127.494" enable-background="new 0 0 183.49 127.494"
	 xml:space="preserve">
<g id="Layer_1">
	
		<path fill="#FFFFFF" stroke="#000000" stroke-width="5" stroke-linecap="round" stroke-linejoin="round" stroke-miterlimit="10" d="
		M180.99,114.994c0,5.523-4.477,10-10,10H12.5c-5.523,0-10-4.477-10-10V12.5c0-5.523,4.477-10,10-10h158.49c5.523,0,10,4.477,10,10
		V114.994z"/>
	<g>
		<path stroke="#000000" stroke-width="2.0541" stroke-linecap="round" stroke-linejoin="round" stroke-miterlimit="10" d="
			M86.646,87.413l9.102,9.103l-9.102,9.103V87.413z"/>
		<g>
			<path d="M71.523,77.547c0,1.631-1.322,2.953-2.953,2.953l0,0c-1.631,0-2.953-1.322-2.953-2.953V31.57
				c0-1.631,1.322-2.953,2.953-2.953l0,0c1.631,0,2.953,1.322,2.953,2.953V77.547z"/>
			<path d="M105.049,71.641c0,1.631-1.322,2.953-2.953,2.953l0,0c-1.631,0-2.953-1.322-2.953-2.953V34.752
				c0-1.631,1.322-2.953,2.953-2.953l0,0c1.631,0,2.953,1.322,2.953,2.953V71.641z"/>
			<path d="M116.225,77.547c0,1.631-1.322,2.953-2.953,2.953l0,0c-1.631,0-2.953-1.322-2.953-2.953V22.483
				c0-1.631,1.322-2.953,2.953-2.953l0,0c1.631,0,2.953,1.322,2.953,2.953V77.547z"/>
			<path d="M82.699,62.327c0,1.631-1.322,2.953-2.953,2.953l0,0c-1.631,0-2.953-1.322-2.953-2.953V43.613
				c0-1.631,1.322-2.953,2.953-2.953l0,0c1.631,0,2.953,1.322,2.953,2.953V62.327z"/>
			<path d="M93.875,62.327c0,1.631-1.322,2.953-2.953,2.953l0,0c-1.631,0-2.953-1.322-2.953-2.953v-9.626
				c0-1.631,1.322-2.953,2.953-2.953l0,0c1.631,0,2.953,1.322,2.953,2.953V62.327z"/>
			<path d="M54.441,43.614c0-1.631,1.322-2.953,2.953-2.953l0,0c1.631,0,2.953,1.322,2.953,2.953v18.713
				c0,1.631-1.322,2.953-2.953,2.953l0,0c-1.631,0-2.953-1.322-2.953-2.953V43.614z"/>
			<path d="M43.268,43.614c0-1.631,1.322-2.953,2.953-2.953l0,0c1.631,0,2.953,1.322,2.953,2.953v9.626
				c0,1.631-1.322,2.953-2.953,2.953l0,0c-1.631,0-2.953-1.322-2.953-2.953V43.614z"/>
			<path d="M127.949,62.327c0,1.631-1.322,2.953-2.953,2.953l0,0c-1.631,0-2.953-1.322-2.953-2.953V43.613
				c0-1.631,1.322-2.953,2.953-2.953l0,0c1.631,0,2.953,1.322,2.953,2.953V62.327z"/>
			<path d="M139.125,62.327c0,1.631-1.322,2.953-2.953,2.953l0,0c-1.631,0-2.953-1.322-2.953-2.953v-9.626
				c0-1.631,1.322-2.953,2.953-2.953l0,0c1.631,0,2.953,1.322,2.953,2.953V62.327z"/>
		</g>
	</g>
</g>
<g id="Layer_2">
</g>
<g id="Layer_3">
</g>
</svg>
