<?xml version="1.0" encoding="utf-8"?>
<!-- Generator: Adobe Illustrator 16.0.0, SVG Export Plug-In . SVG Version: 6.00 Build 0)  -->
<!DOCTYPE svg PUBLIC "-//W3C//DTD SVG 1.1//EN" "http://www.w3.org/Graphics/SVG/1.1/DTD/svg11.dtd">
<svg version="1.1" id="Layer_1" xmlns="http://www.w3.org/2000/svg" xmlns:xlink="http://www.w3.org/1999/xlink" x="0px" y="0px"
	 width="136.31px" height="164.979px" viewBox="0 0 136.31 164.979" enable-background="new 0 0 136.31 164.979"
	 xml:space="preserve">
<g>
	<path fill="#948EC5" d="M101.732,102.756V26.952c0-5.824,1.74-10.288,5.225-13.394c3.482-3.103,7.505-4.654,12.064-4.654
		s8.579,1.552,12.063,4.654c3.482,3.105,5.225,7.569,5.225,13.394v119.69c0,2.915-0.569,5.447-1.71,7.599
		c-1.14,2.155-2.597,3.99-4.369,5.51c-1.775,1.52-3.771,2.723-5.984,3.609c-2.218,0.885-4.402,1.393-6.555,1.521
		c-4.56,0.38-9.247-0.351-14.059-2.185c-4.815-1.835-8.425-4.779-10.829-8.835L46.447,71.789v90.812H11.87V28.282
		c0-2.912,0.57-5.51,1.71-7.789c1.14-2.28,2.627-4.21,4.465-5.795c1.835-1.582,3.895-2.817,6.175-3.704
		c2.279-0.885,4.494-1.455,6.649-1.71c4.56-0.505,9.182,0.189,13.868,2.09c4.685,1.899,8.232,4.877,10.64,8.929L101.732,102.756z"/>
	<path fill="#F4C6DD" d="M89.862,93.852V18.048c0-5.824,1.74-10.288,5.225-13.394C98.569,1.552,102.592,0,107.151,0
		s8.579,1.552,12.063,4.654c3.482,3.105,5.225,7.569,5.225,13.394v119.69c0,2.915-0.569,5.447-1.71,7.599
		c-1.14,2.155-2.597,3.99-4.369,5.51c-1.775,1.52-3.771,2.723-5.984,3.609c-2.218,0.885-4.402,1.393-6.555,1.521
		c-4.56,0.38-9.247-0.351-14.059-2.185c-4.815-1.835-8.425-4.779-10.829-8.835L34.577,62.885v90.812H0V19.378
		c0-2.912,0.57-5.51,1.71-7.789c1.14-2.28,2.627-4.21,4.465-5.795C8.01,4.212,10.069,2.977,12.35,2.09
		c2.279-0.885,4.494-1.455,6.649-1.71c4.56-0.505,9.182,0.189,13.868,2.09c4.685,1.899,8.232,4.877,10.64,8.929L89.862,93.852z"/>
	<path fill="#FFFFFF" d="M112.122,104.797c-3.279,0-5.937-2.657-5.937-5.937V17.803c0-3.279,2.657-5.937,5.937-5.937
		s5.937,2.657,5.937,5.937V98.86C118.059,102.14,115.401,104.797,112.122,104.797z"/>
	<circle fill="#FFFFFF" cx="112.122" cy="116.424" r="6.679"/>
</g>
</svg>
