<?xml version="1.0" encoding="utf-8"?>
<!-- Generator: Adobe Illustrator 16.0.0, SVG Export Plug-In . SVG Version: 6.00 Build 0)  -->
<!DOCTYPE svg PUBLIC "-//W3C//DTD SVG 1.1//EN" "http://www.w3.org/Graphics/SVG/1.1/DTD/svg11.dtd">
<svg version="1.1" id="Layer_1" xmlns="http://www.w3.org/2000/svg" xmlns:xlink="http://www.w3.org/1999/xlink" x="0px" y="0px"
	 width="104.322px" height="22.258px" viewBox="-33.828 1.587 104.322 22.258"
	 enable-background="new -33.828 1.587 104.322 22.258" xml:space="preserve">
<g>
	<g>
		
			<path fill="none" stroke="#000000" stroke-width="3.7038" stroke-linecap="round" stroke-linejoin="round" stroke-miterlimit="10" d="
			M-22.974,21.443l-9.002-9l9.002-9.003"/>
		
			<line fill="none" stroke="#000000" stroke-width="3.3406" stroke-linecap="round" stroke-linejoin="round" stroke-miterlimit="10" x1="-31.289" y1="12.543" x2="-13.655" y2="12.543"/>
	</g>
	<g>
		
			<path fill="none" stroke="#000000" stroke-width="3.7038" stroke-linecap="round" stroke-linejoin="round" stroke-miterlimit="10" d="
			M18.887,3.439l9.002,9.002l-9.002,9.001"/>
		
			<line fill="none" stroke="#000000" stroke-width="3.3406" stroke-linecap="round" stroke-linejoin="round" stroke-miterlimit="10" x1="27.202" y1="12.34" x2="9.567" y2="12.34"/>
	</g>
	<g>
		
			<path fill="none" stroke="#000000" stroke-width="3.4093" stroke-linecap="round" stroke-linejoin="round" stroke-miterlimit="10" d="
			M68.789,13.621c0,4.704-3.813,8.519-8.519,8.519c-4.704,0-8.517-3.814-8.517-8.519s3.813-8.519,8.517-8.519
			c2.03,0,3.895,0.711,5.357,1.896"/>
		<path d="M66.814,3.17c0.745-0.744,1.355-0.493,1.355,0.564v4.159c0,1.055-0.862,1.919-1.92,1.919h-4.158
			c-1.055,0-1.308-0.609-0.562-1.358L66.814,3.17z"/>
	</g>
</g>
</svg>
