<?xml version="1.0" encoding="utf-8"?>
<!-- Generator: Adobe Illustrator 16.0.0, SVG Export Plug-In . SVG Version: 6.00 Build 0)  -->
<!DOCTYPE svg PUBLIC "-//W3C//DTD SVG 1.1//EN" "http://www.w3.org/Graphics/SVG/1.1/DTD/svg11.dtd">
<svg version="1.1" id="Layer_1" xmlns="http://www.w3.org/2000/svg" xmlns:xlink="http://www.w3.org/1999/xlink" x="0px" y="0px"
	 width="1482.035px" height="731.225px" viewBox="0 0 1482.035 731.225" enable-background="new 0 0 1482.035 731.225"
	 xml:space="preserve">
<g>
	<g>
		<path d="M1350.035,0c72.901,0,132,59.1,132,132v67.482h-19.642v-55.863c0-72.9-59.099-132-132-132h-46.039V0H1350.035z"/>
	</g>
	<g>
		<path fill="#D41F2E" stroke="#000000" stroke-width="4" stroke-miterlimit="10" d="M151.642,11.619c-72.901,0-132,59.1-132,132
			v453.605c0,72.9,59.099,132,132,132h127.508V11.619H151.642z"/>
		<circle fill="none" stroke="#000000" stroke-width="4" stroke-miterlimit="10" cx="151.779" cy="417.869" r="33.465"/>
		<path d="M140.255,430.687c-4.94,0-6.962-3.5-4.492-7.779l11.524-19.96c2.471-4.28,6.514-4.28,8.983,0l11.524,19.96
			c2.471,4.279,0.449,7.779-4.491,7.779H140.255z"/>
		<circle fill="none" stroke="#000000" stroke-width="4" stroke-miterlimit="10" cx="151.779" cy="547.253" r="33.465"/>
		<path d="M163.303,534.436c4.94,0,6.962,3.5,4.492,7.779l-11.524,19.96c-2.471,4.28-6.514,4.28-8.983,0l-11.524-19.96
			c-2.471-4.28-0.449-7.779,4.491-7.779H163.303z"/>
		<circle fill="none" stroke="#000000" stroke-width="4" stroke-miterlimit="10" cx="216.471" cy="482.561" r="33.465"/>
		<path d="M203.653,471.037c0-4.94,3.5-6.962,7.779-4.492l19.96,11.524c4.28,2.471,4.28,6.514,0,8.983l-19.96,11.524
			c-4.279,2.471-7.779,0.449-7.779-4.491V471.037z"/>
		<circle fill="none" stroke="#000000" stroke-width="4" stroke-miterlimit="10" cx="87.086" cy="482.56" r="33.465"/>
		<path d="M99.903,494.084c0,4.94-3.5,6.962-7.779,4.492l-19.96-11.524c-4.28-2.471-4.28-6.514,0-8.983l19.96-11.524
			c4.279-2.471,7.779-0.449,7.779,4.491V494.084z"/>
		<g>
			<circle cx="149.396" cy="256.644" r="72.965"/>
			<circle fill="#D41F2E" cx="149.396" cy="256.644" r="39.853"/>
			<path fill="#D41F2E" d="M155.156,206.589c25.117,2.86,44.633,24.173,44.633,50.055c0,1.556-0.081,3.093-0.22,4.612h12.945
				c0.11-1.525,0.186-3.06,0.186-4.612c0-33.019-25.284-60.12-57.544-63.031V206.589z"/>
			<path fill="#D41F2E" d="M99.222,261.256c-0.139-1.52-0.22-3.057-0.22-4.612c0-25.882,19.518-47.194,44.635-50.055v-12.977
				c-32.261,2.911-57.546,30.013-57.546,63.031c0,1.553,0.075,3.087,0.186,4.612H99.222z"/>
			<path fill="#D41F2E" d="M143.637,306.697c-19.64-2.234-35.843-15.754-41.98-33.922H88.172
				c6.663,25.354,28.651,44.48,55.465,46.898V306.697z"/>
			<path fill="#D41F2E" d="M197.135,272.775c-6.137,18.168-22.34,31.686-41.979,33.922v12.977
				c26.813-2.418,48.8-21.545,55.463-46.898H197.135z"/>
		</g>
		<path fill="#232323" stroke="#000000" stroke-width="4" stroke-miterlimit="10" d="M279.149,11.619v717.605h927.046V11.619
			H279.149z M1143.512,674.535H337.769V66.309h805.743V674.535z"/>
		<g>
			<path fill="none" stroke="#000000" stroke-width="4" stroke-miterlimit="10" d="M263.125,695.812c0,2.761-2.239,5-5,5h-42.506
				c-2.761,0-5-2.239-5-5v-40.405c0-2.762,2.239-5,5-5h42.506c2.761,0,5,2.238,5,5V695.812z"/>
			<circle cx="236.872" cy="675.609" r="13.212"/>
		</g>
		<path fill="none" stroke="#000000" stroke-width="4" stroke-miterlimit="10" d="M254.957,72.498c0,2.762-2.238,5-5,5h-74.041
			c-2.762,0-5-2.238-5-5V48.606c0-2.761,2.238-5,5-5h74.041c2.762,0,5,2.239,5,5V72.498z"/>
		<path fill="#0684BF" stroke="#000000" stroke-width="4" stroke-miterlimit="10" d="M1333.703,729.225c72.901,0,132-59.1,132-132
			V143.619c0-72.9-59.099-132-132-132h-127.508v717.605H1333.703z"/>
		<circle fill="none" stroke="#000000" stroke-width="4" stroke-miterlimit="10" cx="1333.566" cy="322.975" r="33.465"/>
		<path d="M1345.09,310.157c4.94,0,6.962,3.5,4.492,7.779l-11.524,19.96c-2.471,4.28-6.514,4.28-8.983,0l-11.524-19.96
			c-2.471-4.279-0.449-7.779,4.491-7.779H1345.09z"/>
		<circle fill="none" stroke="#000000" stroke-width="4" stroke-miterlimit="10" cx="1333.566" cy="193.591" r="33.465"/>
		<path d="M1322.042,206.408c-4.94,0-6.962-3.5-4.492-7.779l11.524-19.96c2.471-4.28,6.514-4.28,8.983,0l11.524,19.96
			c2.471,4.28,0.449,7.779-4.491,7.779H1322.042z"/>
		<circle fill="none" stroke="#000000" stroke-width="4" stroke-miterlimit="10" cx="1268.874" cy="258.283" r="33.465"/>
		<path d="M1281.691,269.807c0,4.94-3.5,6.962-7.779,4.492l-19.96-11.524c-4.28-2.471-4.28-6.514,0-8.983l19.96-11.524
			c4.279-2.471,7.779-0.449,7.779,4.491V269.807z"/>
		<circle fill="none" stroke="#000000" stroke-width="4" stroke-miterlimit="10" cx="1398.259" cy="258.284" r="33.465"/>
		<path d="M1385.441,246.76c0-4.94,3.5-6.962,7.779-4.492l19.96,11.524c4.28,2.471,4.28,6.514,0,8.983l-19.96,11.524
			c-4.279,2.471-7.779,0.449-7.779-4.491V246.76z"/>
		<g>
			<circle cx="1335.949" cy="484.2" r="72.965"/>
			<g>
				<circle fill="#0684BF" cx="1335.949" cy="484.2" r="39.853"/>
				<path fill="#0684BF" d="M1330.188,534.255c-25.117-2.86-44.633-24.173-44.633-50.055c0-1.556,0.081-3.093,0.22-4.612h-12.945
					c-0.11,1.525-0.186,3.06-0.186,4.612c0,33.019,25.284,60.12,57.544,63.031V534.255z"/>
				<path fill="#0684BF" d="M1386.123,479.588c0.139,1.52,0.22,3.057,0.22,4.612c0,25.882-19.518,47.194-44.635,50.055v12.977
					c32.261-2.911,57.546-30.013,57.546-63.031c0-1.553-0.075-3.087-0.186-4.612H1386.123z"/>
				<path fill="#0684BF" d="M1341.708,434.146c19.64,2.234,35.843,15.754,41.98,33.922h13.484
					c-6.663-25.354-28.651-44.48-55.465-46.898V434.146z"/>
				<path fill="#0684BF" d="M1288.21,468.068c6.137-18.168,22.34-31.686,41.979-33.922V421.17
					c-26.813,2.418-48.8,21.545-55.463,46.898H1288.21z"/>
			</g>
		</g>
		<g>
			<path fill="none" stroke="#000000" stroke-width="4" stroke-miterlimit="10" d="M1281.359,74.483c-2.75,0-5-2.25-5-5V59.013
				c0-2.75-2.25-5-5-5h-16.75c-2.75,0-5,2.25-5,5v10.471c0,2.75-2.25,5-5,5h-10.471c-2.75,0-5,2.25-5,5v16.75c0,2.75,2.25,5,5,5
				h10.471c2.75,0,5,2.25,5,5v10.471c0,2.75,2.25,5,5,5h16.75c2.75,0,5-2.25,5-5v-10.471c0-2.75,2.25-5,5-5h10.471
				c2.75,0,5-2.25,5-5v-16.75c0-2.75-2.25-5-5-5H1281.359z"/>
		</g>
		<circle cx="1258.414" cy="675.609" r="21.638"/>
	</g>
	<g>
		<path d="M132,0C59.099,0,0,59.1,0,132v67.482h19.642v-55.863c0-72.9,59.099-132,132-132h46.039V0H132z"/>
	</g>
</g>
</svg>
