<?xml version="1.0" encoding="utf-8"?>
<!-- Generator: Adobe Illustrator 16.0.0, SVG Export Plug-In . SVG Version: 6.00 Build 0)  -->
<!DOCTYPE svg PUBLIC "-//W3C//DTD SVG 1.1//EN" "http://www.w3.org/Graphics/SVG/1.1/DTD/svg11.dtd">
<svg version="1.1" id="Layer_1" xmlns="http://www.w3.org/2000/svg" xmlns:xlink="http://www.w3.org/1999/xlink" x="0px" y="0px"
	 width="139.158px" height="166.402px" viewBox="0 0 139.158 166.402" enable-background="new 0 0 139.158 166.402"
	 xml:space="preserve">
<g>
	<path fill="#948EC5" d="M-136.747-99.659v45.216h-39.137v-122.919c0-5.444,0.476-10.069,1.425-13.869
		c0.95-3.8,2.565-6.901,4.845-9.31c2.28-2.404,5.319-4.146,9.119-5.225c3.8-1.074,8.55-1.614,14.249-1.614h33.058
		c8.231,0,15.831,1.045,22.798,3.135c6.964,2.09,12.981,5.257,18.049,9.499c5.063,4.245,9.023,9.659,11.873,16.243
		c2.851,6.588,4.275,14.377,4.275,23.368v3.229c0,8.995-1.425,16.784-4.275,23.368c-2.85,6.588-6.81,12.002-11.873,16.244
		c-5.067,4.245-11.085,7.409-18.049,9.499c-6.967,2.09-14.566,3.135-22.798,3.135H-136.747z M-136.747-132.717h21.658
		c3.165,0,5.984-0.537,8.454-1.614c2.47-1.075,4.56-2.565,6.27-4.465s3.008-4.052,3.895-6.459c0.885-2.405,1.33-4.94,1.33-7.6v-1.33
		c0-2.66-0.445-5.192-1.33-7.6c-0.887-2.404-2.185-4.56-3.895-6.459c-1.71-1.9-3.8-3.388-6.27-4.465
		c-2.47-1.074-5.289-1.615-8.454-1.615h-16.148c-2.155,0-3.609,0.351-4.369,1.045c-0.761,0.698-1.141,2.186-1.141,4.465V-132.717z"
		/>
	<path fill="#F4C6DD" d="M-148.616-108.564v45.216h-39.137v-122.919c0-5.444,0.476-10.069,1.425-13.869
		c0.95-3.8,2.565-6.901,4.845-9.31c2.28-2.404,5.319-4.146,9.119-5.225c3.8-1.074,8.55-1.614,14.249-1.614h33.058
		c8.231,0,15.831,1.045,22.798,3.135c6.964,2.09,12.981,5.257,18.049,9.499c5.063,4.245,9.023,9.659,11.873,16.243
		c2.851,6.588,4.275,14.377,4.275,23.368v3.229c0,8.995-1.425,16.784-4.275,23.368c-2.85,6.588-6.81,12.002-11.873,16.244
		c-5.067,4.245-11.085,7.409-18.049,9.499c-6.967,2.09-14.566,3.135-22.798,3.135H-148.616z M-148.616-141.622h21.658
		c3.165,0,5.984-0.537,8.454-1.614c2.47-1.075,4.56-2.565,6.27-4.465s3.008-4.052,3.895-6.459c0.885-2.405,1.33-4.94,1.33-7.6v-1.33
		c0-2.66-0.445-5.192-1.33-7.6c-0.887-2.404-2.185-4.56-3.895-6.459c-1.71-1.9-3.8-3.388-6.27-4.465
		c-2.47-1.074-5.289-1.615-8.454-1.615h-16.148c-2.155,0-3.609,0.351-4.369,1.045c-0.761,0.698-1.141,2.186-1.141,4.465V-141.622z"
		/>
	<path fill="#FFFFFF" d="M-84.307-168.976c-2.638,0-5.045-1.77-5.741-4.44c-6.984-26.79-35.599-26.032-36.811-25.994
		c-0.074,0.003-0.149,0.005-0.225,0.005c-3.17,0-5.809-2.503-5.938-5.696c-0.133-3.269,2.394-6.028,5.662-6.172
		c13.566-0.587,41.257,5.925,48.801,34.861c0.827,3.173-1.074,6.416-4.247,7.243C-83.307-169.038-83.812-168.976-84.307-168.976z"/>
	<circle fill="#FFFFFF" cx="-81.211" cy="-157.722" r="5.937"/>
</g>
<g>
	<path fill="#948EC5" d="M11.869,66.851c0-10.892,1.962-20.043,5.89-27.453c3.924-7.409,8.991-13.361,15.198-17.858
		c6.204-4.494,13.076-7.724,20.613-9.688c7.534-1.963,14.849-2.945,21.943-2.945c6.964,0,14.216,0.982,21.753,2.945
		c7.534,1.965,14.406,5.194,20.613,9.688c6.204,4.497,11.304,10.449,15.294,17.858c3.989,7.41,5.984,16.562,5.984,27.453v41.606
		c0,10.895-1.995,20.043-5.984,27.452c-3.99,7.41-9.09,13.364-15.294,17.858c-6.207,4.498-13.079,7.728-20.613,9.689
		c-7.537,1.962-14.789,2.945-21.753,2.945c-6.967,0-14.219-0.983-21.753-2.945c-7.537-1.962-14.409-5.191-20.613-9.689
		c-6.207-4.494-11.305-10.448-15.294-17.858c-3.989-7.409-5.984-16.558-5.984-27.452V66.851z M100.401,65.711
		c0-4.18-0.73-7.79-2.185-10.829c-1.458-3.04-3.391-5.572-5.795-7.6c-2.407-2.024-5.067-3.515-7.979-4.465
		c-2.915-0.95-5.889-1.425-8.929-1.425s-6.018,0.475-8.93,1.425c-2.915,0.95-5.574,2.44-7.979,4.465
		c-2.408,2.027-4.341,4.56-5.795,7.6c-1.458,3.039-2.185,6.649-2.185,10.829v43.886c0,3.8,0.789,7.22,2.374,10.259
		c1.583,3.04,3.577,5.604,5.985,7.694c2.404,2.09,5.097,3.676,8.074,4.75c2.975,1.077,5.794,1.615,8.454,1.615
		c2.659,0,5.477-0.538,8.454-1.615c2.975-1.074,5.667-2.66,8.074-4.75c2.404-2.09,4.399-4.654,5.984-7.694
		c1.582-3.039,2.375-6.459,2.375-10.259V65.711z"/>
	<path fill="#F4C6DD" d="M0,57.945c0-10.892,1.962-20.043,5.89-27.453c3.924-7.409,8.991-13.361,15.198-17.858
		C27.292,8.14,34.164,4.91,41.701,2.945C49.235,0.982,56.55,0,63.645,0c6.964,0,14.216,0.982,21.753,2.945
		c7.534,1.965,14.406,5.194,20.613,9.688c6.204,4.497,11.304,10.449,15.294,17.858c3.989,7.41,5.984,16.562,5.984,27.453v41.606
		c0,10.895-1.995,20.043-5.984,27.452c-3.99,7.41-9.09,13.364-15.294,17.858c-6.207,4.498-13.079,7.728-20.613,9.689
		c-7.537,1.962-14.789,2.945-21.753,2.945c-6.967,0-14.219-0.983-21.753-2.945c-7.537-1.962-14.409-5.191-20.613-9.689
		c-6.207-4.494-11.305-10.448-15.294-17.858C1.995,119.595,0,110.446,0,99.552V57.945z M88.532,56.806
		c0-4.18-0.73-7.79-2.185-10.829c-1.458-3.04-3.391-5.572-5.795-7.6c-2.407-2.024-5.067-3.515-7.979-4.465
		c-2.915-0.95-5.889-1.425-8.929-1.425s-6.018,0.475-8.93,1.425c-2.915,0.95-5.574,2.44-7.979,4.465
		c-2.408,2.027-4.341,4.56-5.795,7.6c-1.458,3.039-2.185,6.649-2.185,10.829v43.886c0,3.8,0.789,7.22,2.374,10.259
		c1.583,3.04,3.577,5.604,5.985,7.694c2.404,2.09,5.097,3.676,8.074,4.75c2.975,1.077,5.794,1.615,8.454,1.615
		c2.659,0,5.477-0.538,8.454-1.615c2.975-1.074,5.667-2.66,8.074-4.75c2.404-2.09,4.399-4.654,5.984-7.694
		c1.582-3.039,2.375-6.459,2.375-10.259V56.806z"/>
	<path fill="#FFFFFF" d="M109.598,49.249c-2.638,0-5.045-1.77-5.741-4.44c-6.984-26.793-35.591-26.033-36.809-25.993
		c-3.221,0.117-6.031-2.422-6.163-5.691c-0.133-3.269,2.394-6.028,5.662-6.172c13.556-0.569,41.256,5.924,48.8,34.86
		c0.827,3.173-1.074,6.416-4.247,7.243C110.598,49.187,110.093,49.249,109.598,49.249z"/>
	<circle fill="#FFFFFF" cx="112.694" cy="60.503" r="5.938"/>
</g>
</svg>
