<?xml version="1.0" encoding="utf-8"?>
<!-- Generator: Adobe Illustrator 16.0.0, SVG Export Plug-In . SVG Version: 6.00 Build 0)  -->
<!DOCTYPE svg PUBLIC "-//W3C//DTD SVG 1.1//EN" "http://www.w3.org/Graphics/SVG/1.1/DTD/svg11.dtd">
<svg version="1.1" id="Layer_1" xmlns="http://www.w3.org/2000/svg" xmlns:xlink="http://www.w3.org/1999/xlink" x="0px" y="0px"
	 width="131.56px" height="161.842px" viewBox="0 0 131.56 161.842" enable-background="new 0 0 131.56 161.842"
	 xml:space="preserve">
<g>
	<path fill="#948EC5" d="M51.006,116.626v45.216H11.869V38.923c0-5.444,0.476-10.069,1.425-13.869c0.95-3.8,2.565-6.901,4.845-9.31
		c2.28-2.404,5.319-4.146,9.119-5.225c3.8-1.074,8.55-1.614,14.249-1.614h33.058c8.231,0,15.831,1.045,22.798,3.135
		c6.964,2.09,12.981,5.257,18.049,9.499c5.063,4.245,9.023,9.659,11.873,16.243c2.851,6.588,4.275,14.377,4.275,23.368v3.229
		c0,8.995-1.425,16.784-4.275,23.368c-2.85,6.588-6.81,12.002-11.873,16.244c-5.067,4.245-11.085,7.409-18.049,9.499
		c-6.967,2.09-14.566,3.135-22.798,3.135H51.006z M51.006,83.568h21.658c3.165,0,5.984-0.537,8.454-1.614
		c2.47-1.075,4.56-2.565,6.27-4.465s3.008-4.052,3.895-6.459c0.885-2.405,1.33-4.94,1.33-7.6v-1.33c0-2.66-0.445-5.192-1.33-7.6
		c-0.887-2.404-2.185-4.56-3.895-6.459c-1.71-1.9-3.8-3.388-6.27-4.465c-2.47-1.074-5.289-1.615-8.454-1.615H56.516
		c-2.155,0-3.609,0.351-4.369,1.045c-0.761,0.698-1.141,2.186-1.141,4.465V83.568z"/>
	<path fill="#F4C6DD" d="M39.137,107.721v45.216H0V30.018c0-5.444,0.476-10.069,1.425-13.869c0.95-3.8,2.565-6.901,4.845-9.31
		c2.28-2.404,5.319-4.146,9.119-5.225C19.188,0.54,23.938,0,29.638,0h33.058c8.231,0,15.831,1.045,22.798,3.135
		c6.964,2.09,12.981,5.257,18.049,9.499c5.063,4.245,9.023,9.659,11.873,16.243c2.851,6.588,4.275,14.377,4.275,23.368v3.229
		c0,8.995-1.425,16.784-4.275,23.368c-2.85,6.588-6.81,12.002-11.873,16.244c-5.067,4.245-11.085,7.409-18.049,9.499
		c-6.967,2.09-14.566,3.135-22.798,3.135H39.137z M39.137,74.663h21.658c3.165,0,5.984-0.537,8.454-1.614
		c2.47-1.075,4.56-2.565,6.27-4.465s3.008-4.052,3.895-6.459c0.885-2.405,1.33-4.94,1.33-7.6v-1.33c0-2.66-0.445-5.192-1.33-7.6
		c-0.887-2.404-2.185-4.56-3.895-6.459c-1.71-1.9-3.8-3.388-6.27-4.465c-2.47-1.074-5.289-1.615-8.454-1.615H44.646
		c-2.155,0-3.609,0.351-4.369,1.045c-0.761,0.698-1.141,2.186-1.141,4.465V74.663z"/>
	<path fill="#FFFFFF" d="M103.446,47.31c-2.638,0-5.045-1.77-5.741-4.44c-6.984-26.79-35.599-26.032-36.811-25.994
		c-0.074,0.003-0.149,0.005-0.225,0.005c-3.17,0-5.809-2.503-5.938-5.696c-0.133-3.269,2.394-6.028,5.662-6.172
		c13.566-0.587,41.257,5.925,48.801,34.861c0.827,3.173-1.074,6.416-4.247,7.243C104.446,47.247,103.941,47.31,103.446,47.31z"/>
	<circle fill="#FFFFFF" cx="106.542" cy="58.563" r="5.937"/>
</g>
</svg>
