<?xml version="1.0" encoding="utf-8"?>
<!-- Generator: Adobe Illustrator 16.0.0, SVG Export Plug-In . SVG Version: 6.00 Build 0)  -->
<!DOCTYPE svg PUBLIC "-//W3C//DTD SVG 1.1//EN" "http://www.w3.org/Graphics/SVG/1.1/DTD/svg11.dtd">
<svg version="1.1" id="Layer_1" xmlns="http://www.w3.org/2000/svg" xmlns:xlink="http://www.w3.org/1999/xlink" x="0px" y="0px"
	 width="223.896px" height="317.245px" viewBox="0 0 223.896 317.245" enable-background="new 0 0 223.896 317.245"
	 xml:space="preserve">
<g>
	<path fill="#FBD8E7" d="M223.897,0H11.491H0v317.245h223.896V0z"/>
	<g>
		<circle fill="#BFBCDE" cx="111.948" cy="93.881" r="49.134"/>
	</g>
	<g>
		<path fill="#FFFFFF" d="M120.604,88.242c1.533-1.955,2.454-5.412,2.454-8.117c0-6.289-4.973-11.387-11.108-11.387
			c-6.134,0-11.107,5.1-11.107,11.387c0,2.705,0.92,6.163,2.453,8.117c-7.482,4.23-12.7,12.796-12.7,23.895h42.708
			C133.304,101.038,128.084,92.472,120.604,88.242z"/>
	</g>
	<g>
		<g>
			<path fill="#5D6AB2" d="M188.889,186.729H35.007c-1.126,0-2.036-0.911-2.036-2.035s0.91-2.036,2.036-2.036h153.882
				c1.125,0,2.036,0.912,2.036,2.036C190.925,185.817,190.014,186.729,188.889,186.729z"/>
		</g>
		<g>
			<path fill="#5D6AB2" d="M188.889,207.084H35.007c-1.126,0-2.036-0.909-2.036-2.035c0-1.124,0.91-2.036,2.036-2.036h153.882
				c1.125,0,2.036,0.912,2.036,2.036C190.925,206.175,190.014,207.084,188.889,207.084z"/>
		</g>
		<g>
			<path fill="#5D6AB2" d="M188.889,227.44H35.007c-1.126,0-2.036-0.91-2.036-2.036c0-1.125,0.91-2.035,2.036-2.035h153.882
				c1.125,0,2.036,0.91,2.036,2.035S190.014,227.44,188.889,227.44z"/>
		</g>
		<g>
			<path fill="#5D6AB2" d="M188.889,247.794H35.007c-1.126,0-2.036-0.91-2.036-2.035s0.91-2.036,2.036-2.036h153.882
				c1.125,0,2.036,0.911,2.036,2.036C190.925,246.883,190.014,247.794,188.889,247.794z"/>
		</g>
		<g>
			<path fill="#5D6AB2" d="M188.889,268.149H35.007c-1.126,0-2.036-0.911-2.036-2.036c0-1.124,0.91-2.035,2.036-2.035h153.882
				c1.125,0,2.036,0.911,2.036,2.035C190.925,267.238,190.014,268.149,188.889,268.149z"/>
		</g>
	</g>
</g>
</svg>
