<?xml version="1.0" encoding="utf-8"?>
<!-- Generator: Adobe Illustrator 16.0.0, SVG Export Plug-In . SVG Version: 6.00 Build 0)  -->
<!DOCTYPE svg PUBLIC "-//W3C//DTD SVG 1.1//EN" "http://www.w3.org/Graphics/SVG/1.1/DTD/svg11.dtd">
<svg version="1.1" id="Layer_1" xmlns="http://www.w3.org/2000/svg" xmlns:xlink="http://www.w3.org/1999/xlink" x="0px" y="0px"
	 width="274.988px" height="364.02px" viewBox="0 0 274.988 364.02" enable-background="new 0 0 274.988 364.02"
	 xml:space="preserve">
<g>
	<path fill="#FBD8E7" d="M14.113,0H0l-12.506,376.51c0.085,1.688,287.503-22.777,287.495-8.99l5.005-373.01L14.113,0z"/>
	<g>
		<circle fill="#BFBCDE" cx="134.386" cy="102.494" r="71.495"/>
	</g>
	<g>
		<path fill="#FFFFFF" d="M146.997,94.289c2.23-2.843,3.569-7.875,3.569-11.81c0-9.151-7.235-16.571-16.163-16.571
			c-8.927,0-16.162,7.42-16.162,16.571c0,3.935,1.338,8.967,3.568,11.81c-10.885,6.157-18.478,18.619-18.478,34.771h62.143
			C165.476,112.908,157.882,100.447,146.997,94.289z"/>
	</g>
	<g>
		<g>
			<path fill="#5D6AB2" d="M223.038,216.531h-189c-1.382,0-2.5-1.118-2.5-2.5c0-1.381,1.118-2.5,2.5-2.5h189
				c1.381,0,2.5,1.119,2.5,2.5C225.538,215.412,224.419,216.531,223.038,216.531z"/>
		</g>
		<g>
			<path fill="#5D6AB2" d="M223.038,241.531h-189c-1.382,0-2.5-1.118-2.5-2.5c0-1.381,1.118-2.5,2.5-2.5h189
				c1.381,0,2.5,1.119,2.5,2.5C225.538,240.412,224.419,241.531,223.038,241.531z"/>
		</g>
		<g>
			<path fill="#5D6AB2" d="M223.038,266.531h-189c-1.382,0-2.5-1.118-2.5-2.5c0-1.381,1.118-2.5,2.5-2.5h189
				c1.381,0,2.5,1.119,2.5,2.5C225.538,265.412,224.419,266.531,223.038,266.531z"/>
		</g>
		<g>
			<path fill="#5D6AB2" d="M223.038,291.531h-189c-1.382,0-2.5-1.118-2.5-2.5c0-1.381,1.118-2.5,2.5-2.5h189
				c1.381,0,2.5,1.119,2.5,2.5C225.538,290.412,224.419,291.531,223.038,291.531z"/>
		</g>
		<g>
			<path fill="#5D6AB2" d="M223.038,316.531h-189c-1.382,0-2.5-1.119-2.5-2.5s1.118-2.5,2.5-2.5h189c1.381,0,2.5,1.119,2.5,2.5
				S224.419,316.531,223.038,316.531z"/>
		</g>
	</g>
</g>
</svg>
