<?xml version="1.0" encoding="utf-8"?>
<!-- Generator: Adobe Illustrator 16.0.0, SVG Export Plug-In . SVG Version: 6.00 Build 0)  -->
<!DOCTYPE svg PUBLIC "-//W3C//DTD SVG 1.1//EN" "http://www.w3.org/Graphics/SVG/1.1/DTD/svg11.dtd">
<svg version="1.1" id="Layer_1" xmlns="http://www.w3.org/2000/svg" xmlns:xlink="http://www.w3.org/1999/xlink" x="0px" y="0px"
	 width="274.989px" height="364.02px" viewBox="0 0 274.989 364.02" enable-background="new 0 0 274.989 364.02"
	 xml:space="preserve">
<g>
	<polygon fill="#5D6AB2" points="236.407,1.002 262.521,10.334 263.364,357.27 0.489,364.02 0,0 	"/>
	<path fill="#FBD8E7" d="M14.113,0H0l16.989,354.02c0.085,1.689,87.351,5.014,95.429,5.314c31.813,1.176,63.669,0.359,95.433-1.613
		c18.57-1.154,37.133-2.459,55.713-3.443c0.466-0.025,11.433-0.545,11.426-0.758L263.032,0H14.113z"/>
	<g>
		<circle fill="#BFBCDE" cx="134.386" cy="102.494" r="71.495"/>
	</g>
	<g>
		<path fill="#FFFFFF" d="M146.997,94.289c2.231-2.842,3.57-7.875,3.57-11.809c0-9.152-7.236-16.572-16.163-16.572
			s-16.163,7.42-16.163,16.572c0,3.934,1.338,8.967,3.569,11.809c-10.885,6.158-18.478,18.619-18.478,34.771h62.143
			C165.476,112.908,157.882,100.447,146.997,94.289z"/>
	</g>
	<g>
		<g>
			<path fill="#5D6AB2" d="M223.038,216.531h-189c-1.381,0-2.5-1.119-2.5-2.5s1.119-2.5,2.5-2.5h189c1.381,0,2.5,1.119,2.5,2.5
				S224.419,216.531,223.038,216.531z"/>
		</g>
		<g>
			<path fill="#5D6AB2" d="M223.038,241.531h-189c-1.381,0-2.5-1.119-2.5-2.5s1.119-2.5,2.5-2.5h189c1.381,0,2.5,1.119,2.5,2.5
				S224.419,241.531,223.038,241.531z"/>
		</g>
		<g>
			<path fill="#5D6AB2" d="M223.038,266.531h-189c-1.381,0-2.5-1.119-2.5-2.5s1.119-2.5,2.5-2.5h189c1.381,0,2.5,1.119,2.5,2.5
				S224.419,266.531,223.038,266.531z"/>
		</g>
		<g>
			<path fill="#5D6AB2" d="M223.038,291.531h-189c-1.381,0-2.5-1.119-2.5-2.5s1.119-2.5,2.5-2.5h189c1.381,0,2.5,1.119,2.5,2.5
				S224.419,291.531,223.038,291.531z"/>
		</g>
		<g>
			<path fill="#5D6AB2" d="M223.038,316.531h-189c-1.381,0-2.5-1.119-2.5-2.5s1.119-2.5,2.5-2.5h189c1.381,0,2.5,1.119,2.5,2.5
				S224.419,316.531,223.038,316.531z"/>
		</g>
	</g>
</g>
</svg>
