<?xml version="1.0" encoding="utf-8"?>
<!-- Generator: Adobe Illustrator 16.0.0, SVG Export Plug-In . SVG Version: 6.00 Build 0)  -->
<!DOCTYPE svg PUBLIC "-//W3C//DTD SVG 1.1//EN" "http://www.w3.org/Graphics/SVG/1.1/DTD/svg11.dtd">
<svg version="1.1" id="Layer_1" xmlns="http://www.w3.org/2000/svg" xmlns:xlink="http://www.w3.org/1999/xlink" x="0px" y="0px"
	 width="191.783px" height="271.741px" viewBox="0 0 191.783 271.741" enable-background="new 0 0 191.783 271.741"
	 xml:space="preserve">
<g>
	<path fill="#FBD8E7" d="M191.783,0H9.843H0v271.741h191.782L191.783,0L191.783,0z"/>
	<g>
		<circle fill="#BFBCDE" cx="95.891" cy="80.416" r="42.086"/>
	</g>
	<g>
		<path fill="#FFFFFF" d="M103.305,75.586c1.313-1.675,2.103-4.636,2.103-6.953c0-5.387-4.261-9.754-9.515-9.754
			s-9.514,4.369-9.514,9.754c0,2.317,0.788,5.279,2.101,6.953c-6.409,3.623-10.878,10.96-10.878,20.467h36.583
			C114.184,86.546,109.712,79.208,103.305,75.586z"/>
	</g>
	<g>
		<g>
			<path fill="#5D6AB2" d="M161.797,159.946H29.986c-0.964,0-1.744-0.78-1.744-1.743s0.779-1.743,1.744-1.743h131.811
				c0.964,0,1.743,0.78,1.743,1.743C163.54,159.164,162.76,159.946,161.797,159.946z"/>
		</g>
		<g>
			<path fill="#5D6AB2" d="M161.797,177.382H29.986c-0.964,0-1.744-0.779-1.744-1.744c0-0.963,0.779-1.744,1.744-1.744h131.811
				c0.964,0,1.743,0.781,1.743,1.744C163.54,176.603,162.76,177.382,161.797,177.382z"/>
		</g>
		<g>
			<path fill="#5D6AB2" d="M161.797,194.818H29.986c-0.964,0-1.744-0.78-1.744-1.744s0.779-1.742,1.744-1.742h131.811
				c0.964,0,1.743,0.778,1.743,1.742S162.76,194.818,161.797,194.818z"/>
		</g>
		<g>
			<path fill="#5D6AB2" d="M161.797,212.252H29.986c-0.964,0-1.744-0.779-1.744-1.743s0.779-1.744,1.744-1.744h131.811
				c0.964,0,1.743,0.78,1.743,1.744C163.54,211.472,162.76,212.252,161.797,212.252z"/>
		</g>
		<g>
			<path fill="#5D6AB2" d="M161.797,229.688H29.986c-0.964,0-1.744-0.781-1.744-1.744s0.779-1.743,1.744-1.743h131.811
				c0.964,0,1.743,0.78,1.743,1.743S162.76,229.688,161.797,229.688z"/>
		</g>
	</g>
</g>
</svg>
