<?xml version="1.0" encoding="utf-8"?>
<!-- Generator: Adobe Illustrator 16.0.0, SVG Export Plug-In . SVG Version: 6.00 Build 0)  -->
<!DOCTYPE svg PUBLIC "-//W3C//DTD SVG 1.1//EN" "http://www.w3.org/Graphics/SVG/1.1/DTD/svg11.dtd">
<svg version="1.1" id="Layer_1" xmlns="http://www.w3.org/2000/svg" xmlns:xlink="http://www.w3.org/1999/xlink" x="0px" y="0px"
	 width="215.46px" height="280.302px" viewBox="0 0 215.46 280.302" enable-background="new 0 0 215.46 280.302"
	 xml:space="preserve">
<g>
	<path stroke="#000000" stroke-width="2.5476" stroke-miterlimit="10" d="M6.892,267.578c17.851-34.283,45.906-55.865,96.779-66.023
		c51.988,0,94.408,25.67,96.778,66.023H6.892z"/>
	<path fill="#FFFDF4" stroke="#000000" stroke-width="4" stroke-miterlimit="10" d="M15.455,96.096
		c5.146-24.173,22.267-46.693,44.213-58.009c11.114-5.731,23.038-9.557,35.505-10.789c12.021-1.188,24.256-0.069,35.949,3.573
		c6.176,1.923,12.484,4.507,18.104,7.735c15.859,9.111,29.174,22.908,36.049,39.996c5.596,13.912,2.191,28.478,7.906,42.344
		c1.182,2.865,2.85,5.406,3.682,8.363c6.225,22.104-7.6,43.077-25.906,54.26c-5.668,3.462-12,6.737-18.27,8.963
		c-7.896,2.807-16.67,5.211-25.02,6.139c-1.967,0.218-3.945,0.4-5.928,0.55c0,0,0,3.951,0,3.964l-0.004,0.042
		c-0.038,3.313-3.905,4.604-8.672,4.604c-4.792,0-8.677-1.318-8.677-4.653c0-0.046,0.009-0.091,0.011-0.137v-3.474
		c-8.896-0.335-18.082-1.556-26.676-3.8c-7.58-1.981-15.229-5.107-21.953-9.154c-17.869-10.755-31.453-28.499-37.313-48.532
		C14.497,124.543,12.487,110.042,15.455,96.096z"/>
	<path fill="#F9C6D3" d="M109.099,130.431c0,0.968,0.783,1.752,1.752,1.752h18.631c0.968,0,1.753-0.784,1.753-1.752l0,0
		c0-0.968-0.785-1.753-1.753-1.753h-18.631C109.882,128.678,109.099,129.463,109.099,130.431L109.099,130.431z"/>
	<g>
		<path fill="#FFFDF4" stroke="#000000" stroke-width="4" stroke-miterlimit="10" d="M162.699,260.234
			c0,9.979,8.089,18.068,18.066,18.068h14.627c9.978,0,18.067-8.09,18.067-18.068l0,0c0-9.977-8.09-18.066-18.067-18.066h-14.627
			C170.788,242.167,162.699,250.257,162.699,260.234L162.699,260.234z"/>
		<path fill="#FFFDF4" stroke="#000000" stroke-width="4" stroke-linecap="round" stroke-miterlimit="10" d="M200.331,261.939
			c0.082,0.567,3.409,10.224-5.924,16.066"/>
		<path fill="#FFFDF4" stroke="#000000" stroke-width="4" stroke-linecap="round" stroke-miterlimit="10" d="M184.022,261.939
			c0.08,0.567,3.408,10.224-5.925,16.066"/>
	</g>
	<g>
		<path fill="#FFFDF4" stroke="#000000" stroke-width="4" stroke-miterlimit="10" d="M50.882,260.234
			c0,9.979,8.09,18.068,18.068,18.068h14.625c9.979,0,18.066-8.09,18.066-18.068l0,0c0-9.977-8.088-18.066-18.066-18.066H68.95
			C58.972,242.167,50.882,250.257,50.882,260.234L50.882,260.234z"/>
		<path fill="#FFFDF4" stroke="#000000" stroke-width="4" stroke-linecap="round" stroke-miterlimit="10" d="M88.516,261.939
			c0.081,0.567,3.409,10.224-5.924,16.066"/>
		<path fill="#FFFDF4" stroke="#000000" stroke-width="4" stroke-linecap="round" stroke-miterlimit="10" d="M72.206,261.939
			c0.08,0.567,3.408,10.224-5.924,16.066"/>
	</g>
	<g>
		<ellipse fill="#FEEEEE" cx="156.508" cy="126.618" rx="17.458" ry="13.644"/>
		<ellipse fill="#FEEEEE" cx="81.588" cy="126.618" rx="17.458" ry="13.644"/>
	</g>
	<g>
		<circle cx="137.215" cy="117.518" r="6.486"/>
		<circle cx="99.92" cy="117.518" r="6.486"/>
	</g>
	
		<path fill="#3A3A3A" stroke="#000000" stroke-width="4" stroke-linecap="round" stroke-linejoin="round" stroke-miterlimit="10" d="
		M58.229,9.183c16.525-6.262,34.861-8.284,52.365-6.633c15.576,1.471,31.996,4.389,45.82,12.061
		c21.487,11.928,38.436,33.17,41.474,58.162c0.001,0.008,2.95,19.607-0.737,28.88h-24.596l-6.526-22.669l-1.098,21.608h-64.688
		l-2.703-28.88l-6.321,29.145l-42.517-0.08c0.02,6.437-1.369,14.313-1.443,14.724c0.38-2.136-4.633-3.87-6.043-4.375
		c-5.238-1.878-13.59,0.251-16.709,5.28c-6.943,11.197,1.254,25.82,11.535,31.64l3.547,2.004l1.85,1.388
		c0,0,5.621,29.229,5.625,29.251c-0.354-1.709-35.463-11.829-43.877-65.261c-1.072-6.799-1.438-13.886-1.014-20.761
		c0.402-6.539,1.467-13.05,2.869-19.445C11.218,47.084,30.786,19.582,58.229,9.183z"/>
</g>
</svg>
