<?xml version="1.0" encoding="utf-8"?>
<!-- Generator: Adobe Illustrator 16.0.0, SVG Export Plug-In . SVG Version: 6.00 Build 0)  -->
<!DOCTYPE svg PUBLIC "-//W3C//DTD SVG 1.1//EN" "http://www.w3.org/Graphics/SVG/1.1/DTD/svg11.dtd">
<svg version="1.1" id="Layer_1" xmlns="http://www.w3.org/2000/svg" xmlns:xlink="http://www.w3.org/1999/xlink" x="0px" y="0px"
	 width="146.568px" height="161.842px" viewBox="0 0 146.568 161.842" enable-background="new 0 0 146.568 161.842"
	 xml:space="preserve">
<g>
	<path fill="#948EC5" d="M133.459,60.771c0,9.119-2.122,17.069-6.364,23.843c-4.245,6.777-9.784,12.319-16.624,16.624l36.098,60.604
		h-42.937l-28.498-51.105H50.816v51.105H11.869V38.923c0-5.444,0.476-10.069,1.425-13.869c0.95-3.8,2.565-6.901,4.845-9.31
		c2.28-2.404,5.319-4.146,9.119-5.225c3.8-1.074,8.55-1.614,14.249-1.614h34.957c8.231,0,15.831,0.982,22.798,2.944
		c6.965,1.966,12.981,5.005,18.049,9.119c5.064,4.117,9.024,9.28,11.874,15.484c2.85,6.207,4.274,13.554,4.274,22.038V60.771z
		 M50.816,78.629h24.697c6.46,0,11.305-1.771,14.534-5.319c3.229-3.544,4.845-7.724,4.845-12.539v-1.33
		c0-4.812-1.615-8.991-4.845-12.539c-3.229-3.544-8.074-5.319-14.534-5.319H56.326c-2.155,0-3.61,0.351-4.37,1.045
		c-0.76,0.698-1.14,2.186-1.14,4.465V78.629z"/>
	<path fill="#F4C6DD" d="M121.59,51.865c0,9.119-2.122,17.069-6.364,23.843c-4.245,6.777-9.784,12.319-16.624,16.624l36.098,60.604
		H91.763l-28.498-51.105H38.947v51.105H0V30.018c0-5.444,0.476-10.069,1.425-13.869c0.95-3.8,2.565-6.901,4.845-9.31
		c2.28-2.404,5.319-4.146,9.119-5.225C19.188,0.54,23.938,0,29.638,0h34.957c8.231,0,15.831,0.982,22.798,2.944
		c6.965,1.966,12.981,5.005,18.049,9.119c5.064,4.117,9.024,9.28,11.874,15.484c2.85,6.207,4.274,13.554,4.274,22.038V51.865z
		 M38.947,69.724h24.697c6.46,0,11.305-1.771,14.534-5.319c3.229-3.544,4.845-7.724,4.845-12.539v-1.33
		c0-4.812-1.615-8.991-4.845-12.539c-3.229-3.544-8.074-5.319-14.534-5.319H44.457c-2.155,0-3.61,0.351-4.37,1.045
		c-0.76,0.698-1.14,2.186-1.14,4.465V69.724z"/>
	<path fill="#FFFFFF" d="M108.043,46.072c-2.668,0-5.094-1.812-5.76-4.519c-6.475-26.292-32.517-25.395-33.622-25.341
		c-3.23,0.131-6.053-2.38-6.205-5.656c-0.151-3.275,2.381-6.054,5.656-6.205c12.742-0.574,38.676,5.834,45.7,34.362
		c0.784,3.185-1.161,6.4-4.345,7.185C108.99,46.016,108.513,46.072,108.043,46.072z"/>
	<circle fill="#FFFFFF" cx="110.564" cy="58.397" r="5.937"/>
</g>
</svg>
