<?xml version="1.0" encoding="utf-8"?>
<!-- Generator: Adobe Illustrator 16.0.0, SVG Export Plug-In . SVG Version: 6.00 Build 0)  -->
<!DOCTYPE svg PUBLIC "-//W3C//DTD SVG 1.1//EN" "http://www.w3.org/Graphics/SVG/1.1/DTD/svg11.dtd">
<svg version="1.1" id="Layer_1" xmlns="http://www.w3.org/2000/svg" xmlns:xlink="http://www.w3.org/1999/xlink" x="0px" y="0px"
	 width="155.5px" height="202.167px" viewBox="0 0 155.5 202.167" enable-background="new 0 0 155.5 202.167" xml:space="preserve">
<g>
	<g>
		<path fill="#7163AC" d="M62.975,191.133c0,6.064-2.787,10.98-6.225,10.98H6.299c-3.438,0-6.225-4.916-6.225-10.98V58.204
			c0-6.064,2.787-20.982,6.225-20.982l50.451,3.066c3.438,0,6.225,4.916,6.225,10.98V191.133z"/>
		<path fill="#948EC5" d="M155.54,191.133c0,6.064-4.917,10.98-10.981,10.98H55.554c-6.064,0-10.981-4.916-10.981-10.98V51.268
			c0-6.064,4.917-10.98,10.981-10.98h89.005c6.064,0,10.981,4.916,10.981,10.98V191.133z"/>
		<g>
			<defs>
				<path id="SVGID_1_" d="M155.54,191.133c0,6.064-4.917,10.98-10.981,10.98H55.554c-6.064,0-10.981-4.916-10.981-10.98V51.268
					c0-6.064,4.917-10.98,10.981-10.98h89.005c6.064,0,10.981,4.916,10.981,10.98V191.133z"/>
			</defs>
			<clipPath id="SVGID_2_">
				<use xlink:href="#SVGID_1_"  overflow="visible"/>
			</clipPath>
			<g clip-path="url(#SVGID_2_)">
				<g>
					<path fill="#7574B6" d="M-52.604,149.032c1.42,1.42,1.642,3.498,0.495,4.645l-16.302,16.303
						c-1.146,1.146-3.226,0.924-4.646-0.496l0,0c-1.421-1.42-1.644-3.5-0.497-4.646l16.303-16.303
						C-56.104,147.389-54.023,147.612-52.604,149.032L-52.604,149.032z"/>
					<path fill="#7574B6" d="M-24.742,121.168c1.42,1.42,1.643,3.502,0.496,4.646l-16.303,16.301
						c-1.145,1.148-3.226,0.926-4.646-0.494l0,0c-1.42-1.42-1.642-3.5-0.495-4.646l16.302-16.303
						C-28.242,119.528-26.162,119.749-24.742,121.168L-24.742,121.168z"/>
					<path fill="#7574B6" d="M3.12,93.307c1.42,1.42,1.643,3.5,0.497,4.645l-16.303,16.303c-1.146,1.146-3.227,0.924-4.646-0.496
						l0,0c-1.42-1.42-1.641-3.5-0.496-4.645l16.303-16.303C-0.379,91.665,1.7,91.887,3.12,93.307L3.12,93.307z"/>
					<path fill="#7574B6" d="M30.983,65.444c1.42,1.422,1.642,3.5,0.495,4.646L15.177,86.393c-1.146,1.145-3.226,0.924-4.646-0.496
						l0,0c-1.42-1.42-1.642-3.5-0.495-4.646l16.303-16.303C27.482,63.803,29.563,64.024,30.983,65.444L30.983,65.444z"/>
					<path fill="#7574B6" d="M58.845,37.583c1.421,1.42,1.643,3.5,0.496,4.645L43.038,58.53c-1.146,1.146-3.226,0.924-4.646-0.496
						l0,0c-1.42-1.42-1.642-3.5-0.496-4.645l16.303-16.303C55.346,35.94,57.426,36.163,58.845,37.583L58.845,37.583z"/>
					<path fill="#7574B6" d="M86.498,9.928c1.421,1.42,1.643,3.5,0.496,4.646L70.693,30.877c-1.147,1.145-3.227,0.924-4.646-0.498
						l0,0c-1.42-1.418-1.643-3.498-0.496-4.645L81.853,9.434C82.998,8.288,85.078,8.508,86.498,9.928L86.498,9.928z"/>
					<path fill="#7574B6" d="M114.152-17.726c1.42,1.422,1.643,3.5,0.495,4.646L98.346,3.223C97.2,4.37,95.12,4.147,93.699,2.727
						l0,0c-1.42-1.42-1.641-3.5-0.495-4.646l16.303-16.301C110.652-19.367,112.731-19.144,114.152-17.726L114.152-17.726z"/>
					<path fill="#7574B6" d="M141.806-45.378c1.42,1.42,1.642,3.5,0.495,4.645l-16.302,16.303c-1.146,1.146-3.226,0.926-4.646-0.496
						l0,0c-1.42-1.418-1.643-3.5-0.496-4.645l16.303-16.303C138.306-47.021,140.386-46.798,141.806-45.378L141.806-45.378z"/>
				</g>
				<g>
					<path fill="#7574B6" d="M-29.446,146.852c1.421,1.42,1.643,3.5,0.496,4.645l-16.302,16.303
						c-1.146,1.146-3.226,0.924-4.646-0.496l0,0c-1.419-1.42-1.641-3.5-0.496-4.645l16.303-16.303
						C-32.945,145.209-30.865,145.432-29.446,146.852L-29.446,146.852z"/>
					<path fill="#7574B6" d="M-1.584,118.991c1.42,1.42,1.643,3.498,0.496,4.645l-16.302,16.303
						c-1.146,1.146-3.226,0.924-4.646-0.496l0,0c-1.42-1.42-1.642-3.5-0.495-4.646l16.303-16.303
						C-5.084,117.348-3.004,117.571-1.584,118.991L-1.584,118.991z"/>
					<path fill="#7574B6" d="M26.279,91.127c1.42,1.42,1.642,3.5,0.495,4.645l-16.302,16.303c-1.146,1.146-3.227,0.924-4.646-0.496
						l0,0c-1.419-1.42-1.641-3.5-0.496-4.645l16.303-16.303C22.779,89.485,24.859,89.708,26.279,91.127L26.279,91.127z"/>
					<path fill="#7574B6" d="M54.141,63.264c1.421,1.422,1.643,3.5,0.496,4.646L38.334,84.213c-1.146,1.146-3.225,0.924-4.646-0.496
						l0,0c-1.419-1.42-1.642-3.5-0.496-4.646l16.303-16.303C50.641,61.624,52.722,61.846,54.141,63.264L54.141,63.264z"/>
					<path fill="#7574B6" d="M82.003,35.403c1.421,1.42,1.642,3.5,0.496,4.646L66.196,56.35c-1.146,1.146-3.225,0.926-4.646-0.496
						l0,0c-1.419-1.418-1.641-3.498-0.496-4.645l16.303-16.303C78.504,33.76,80.584,33.983,82.003,35.403L82.003,35.403z"/>
					<path fill="#7574B6" d="M109.656,7.749c1.421,1.422,1.643,3.5,0.496,4.646L93.85,28.698c-1.146,1.146-3.225,0.924-4.646-0.498
						l0,0c-1.419-1.418-1.641-3.498-0.496-4.645l16.303-16.303C106.158,6.108,108.236,6.329,109.656,7.749L109.656,7.749z"/>
					<path fill="#7574B6" d="M137.31-19.904c1.421,1.42,1.644,3.498,0.497,4.645L121.504,1.043
						c-1.146,1.146-3.226,0.924-4.646-0.496l0,0c-1.419-1.42-1.641-3.5-0.495-4.646L132.664-20.4
						C133.811-21.546,135.891-21.324,137.31-19.904L137.31-19.904z"/>
					<path fill="#7574B6" d="M164.964-47.558c1.42,1.42,1.642,3.5,0.495,4.646l-16.302,16.301c-1.146,1.146-3.226,0.926-4.646-0.494
						l0,0c-1.42-1.42-1.642-3.5-0.496-4.646l16.303-16.303C161.464-49.201,163.544-48.978,164.964-47.558L164.964-47.558z"/>
				</g>
				<g>
					<path fill="#7574B6" d="M-30.467,171.167c1.42,1.422,1.641,3.5,0.495,4.646l-16.303,16.303
						c-1.146,1.146-3.225,0.924-4.646-0.496l0,0c-1.418-1.42-1.641-3.5-0.496-4.645l16.303-16.303
						C-33.967,169.526-31.887,169.749-30.467,171.167L-30.467,171.167z"/>
					<path fill="#7574B6" d="M-2.605,143.305c1.42,1.42,1.642,3.5,0.496,4.646l-16.303,16.303c-1.146,1.145-3.226,0.924-4.646-0.496
						l0,0c-1.418-1.42-1.641-3.5-0.494-4.646l16.303-16.303C-6.105,141.665-4.025,141.885-2.605,143.305L-2.605,143.305z"/>
					<path fill="#7574B6" d="M25.258,115.442c1.42,1.422,1.641,3.502,0.495,4.646L9.45,136.391
						c-1.146,1.146-3.225,0.926-4.646-0.496l0,0c-1.419-1.42-1.642-3.5-0.496-4.645l16.303-16.303
						C21.757,113.801,23.838,114.024,25.258,115.442L25.258,115.442z"/>
					<path fill="#7574B6" d="M53.119,87.581c1.421,1.42,1.642,3.5,0.496,4.646L37.313,108.53c-1.146,1.146-3.226,0.924-4.646-0.496
						l0,0c-1.419-1.42-1.642-3.5-0.496-4.646l16.303-16.303C49.62,85.94,51.7,86.161,53.119,87.581L53.119,87.581z"/>
					<path fill="#7574B6" d="M80.981,59.719c1.421,1.42,1.643,3.5,0.496,4.646L65.175,80.667c-1.146,1.146-3.226,0.924-4.646-0.496
						l0,0c-1.42-1.42-1.643-3.5-0.496-4.645l16.303-16.303C77.482,58.077,79.562,58.299,80.981,59.719L80.981,59.719z"/>
					<path fill="#7574B6" d="M108.635,32.065c1.421,1.422,1.643,3.5,0.496,4.646L92.828,53.014
						c-1.145,1.145-3.225,0.924-4.646-0.496l0,0c-1.419-1.42-1.642-3.5-0.495-4.646l16.302-16.303
						C105.136,30.422,107.216,30.647,108.635,32.065L108.635,32.065z"/>
					<path fill="#7574B6" d="M136.289,4.411c1.42,1.422,1.641,3.5,0.496,4.646L120.482,25.36c-1.146,1.146-3.226,0.924-4.646-0.496
						l0,0c-1.419-1.42-1.641-3.5-0.496-4.645l16.303-16.303C132.789,2.77,134.869,2.991,136.289,4.411L136.289,4.411z"/>
					<path fill="#7574B6" d="M163.941-23.242c1.421,1.42,1.643,3.498,0.496,4.646L148.135-2.294
						c-1.146,1.146-3.225,0.926-4.645-0.496l0,0c-1.42-1.42-1.643-3.498-0.496-4.645l16.303-16.303
						C160.441-24.884,162.522-24.662,163.941-23.242L163.941-23.242z"/>
				</g>
				<g>
					<path fill="#7574B6" d="M-7.309,168.989c1.42,1.42,1.642,3.5,0.495,4.646l-16.302,16.303c-1.146,1.145-3.226,0.922-4.646-0.498
						l0,0c-1.42-1.42-1.643-3.498-0.497-4.645l16.303-16.303C-10.809,167.346-8.729,167.569-7.309,168.989L-7.309,168.989z"/>
					<path fill="#7574B6" d="M20.553,141.125c1.42,1.422,1.642,3.5,0.496,4.646L4.748,162.075c-1.147,1.146-3.227,0.924-4.647-0.496
						l0,0c-1.419-1.42-1.642-3.5-0.495-4.646l16.302-16.303C17.054,139.485,19.133,139.708,20.553,141.125L20.553,141.125z"/>
					<path fill="#7574B6" d="M48.416,113.264c1.42,1.42,1.642,3.498,0.495,4.646l-16.303,16.301
						c-1.145,1.146-3.225,0.924-4.646-0.496l0,0c-1.419-1.42-1.642-3.5-0.495-4.645l16.303-16.303
						C44.915,111.622,46.996,111.844,48.416,113.264L48.416,113.264z"/>
					<path fill="#7574B6" d="M76.277,85.401c1.42,1.42,1.643,3.5,0.497,4.646L60.472,106.35c-1.147,1.146-3.226,0.924-4.646-0.496
						l0,0c-1.42-1.42-1.644-3.5-0.496-4.645l16.303-16.303C72.778,83.76,74.857,83.981,76.277,85.401L76.277,85.401z"/>
					<path fill="#7574B6" d="M104.14,57.54c1.421,1.42,1.643,3.5,0.496,4.646L88.334,78.487c-1.146,1.146-3.226,0.926-4.646-0.496
						l0,0c-1.42-1.42-1.642-3.498-0.495-4.645l16.302-16.303C100.641,55.899,102.72,56.12,104.14,57.54L104.14,57.54z"/>
					<path fill="#7574B6" d="M131.794,29.885c1.42,1.422,1.642,3.5,0.496,4.646l-16.303,16.303
						c-1.146,1.145-3.226,0.924-4.646-0.496l0,0c-1.42-1.42-1.642-3.5-0.495-4.646l16.303-16.303
						C128.294,28.243,130.374,28.465,131.794,29.885L131.794,29.885z"/>
					<path fill="#7574B6" d="M159.447,2.233c1.42,1.42,1.642,3.498,0.496,4.645L143.641,23.18c-1.146,1.146-3.226,0.926-4.646-0.496
						l0,0c-1.42-1.42-1.642-3.5-0.495-4.645l16.302-16.303C155.947,0.59,158.027,0.813,159.447,2.233L159.447,2.233z"/>
					<path fill="#7574B6" d="M187.101-25.421c1.42,1.42,1.642,3.5,0.496,4.646L171.295-4.474c-1.147,1.146-3.227,0.926-4.646-0.494
						l0,0c-1.42-1.42-1.642-3.502-0.496-4.646l16.303-16.303C183.602-27.064,185.681-26.841,187.101-25.421L187.101-25.421z"/>
				</g>
				<g>
					<path fill="#7574B6" d="M-8.206,193.428c1.421,1.42,1.642,3.5,0.495,4.646l-16.303,16.303
						c-1.146,1.145-3.225,0.924-4.645-0.498l0,0c-1.421-1.418-1.643-3.498-0.497-4.645l16.303-16.303
						C-11.706,191.788-9.626,192.008-8.206,193.428L-8.206,193.428z"/>
					<path fill="#7574B6" d="M19.655,165.567c1.421,1.42,1.642,3.5,0.496,4.645L3.85,186.514c-1.146,1.146-3.227,0.926-4.646-0.494
						l0,0c-1.419-1.42-1.642-3.502-0.496-4.646l16.303-16.303C16.155,163.924,18.236,164.147,19.655,165.567L19.655,165.567z"/>
					<path fill="#7574B6" d="M47.518,137.704c1.421,1.42,1.643,3.5,0.496,4.646l-16.303,16.303
						c-1.145,1.145-3.225,0.924-4.646-0.496l0,0c-1.419-1.42-1.642-3.5-0.496-4.646l16.304-16.303
						C44.018,136.063,46.099,136.284,47.518,137.704L47.518,137.704z"/>
					<path fill="#7574B6" d="M75.381,109.842c1.42,1.42,1.641,3.5,0.496,4.646L59.574,130.79c-1.146,1.146-3.226,0.926-4.646-0.496
						l0,0c-1.42-1.42-1.643-3.498-0.496-4.646l16.303-16.301C71.881,108.2,73.961,108.422,75.381,109.842L75.381,109.842z"/>
					<path fill="#7574B6" d="M103.242,81.979c1.421,1.422,1.643,3.5,0.496,4.646l-16.302,16.303
						c-1.146,1.145-3.226,0.924-4.646-0.496l0,0c-1.419-1.42-1.642-3.5-0.496-4.645l16.303-16.303
						C99.742,80.336,101.822,80.559,103.242,81.979L103.242,81.979z"/>
					<path fill="#7574B6" d="M130.896,54.327c1.421,1.42,1.643,3.498,0.496,4.645L115.09,75.274
						c-1.146,1.146-3.226,0.926-4.646-0.496l0,0c-1.42-1.42-1.641-3.5-0.495-4.645l16.303-16.303
						C127.396,52.684,129.476,52.907,130.896,54.327L130.896,54.327z"/>
					<path fill="#7574B6" d="M158.55,26.672c1.42,1.42,1.642,3.5,0.496,4.646l-16.303,16.303c-1.146,1.145-3.226,0.924-4.646-0.498
						l0,0c-1.419-1.418-1.642-3.498-0.495-4.645l16.303-16.303C155.05,25.03,157.13,25.252,158.55,26.672L158.55,26.672z"/>
					<path fill="#7574B6" d="M186.203-0.98c1.42,1.42,1.642,3.5,0.496,4.645l-16.303,16.303c-1.146,1.146-3.225,0.924-4.646-0.496
						l0,0c-1.419-1.42-1.642-3.5-0.497-4.645l16.303-16.303C182.703-2.623,184.783-2.4,186.203-0.98L186.203-0.98z"/>
				</g>
				<g>
					<path fill="#7574B6" d="M14.951,191.249c1.422,1.42,1.643,3.5,0.496,4.646l-16.302,16.303
						c-1.146,1.146-3.225,0.924-4.646-0.496l0,0c-1.42-1.42-1.643-3.5-0.496-4.646l16.302-16.301
						C11.452,189.608,13.532,189.829,14.951,191.249L14.951,191.249z"/>
					<path fill="#7574B6" d="M42.814,163.387c1.42,1.42,1.641,3.5,0.496,4.646l-16.303,16.303c-1.146,1.145-3.226,0.924-4.646-0.498
						l0,0c-1.42-1.42-1.643-3.498-0.495-4.645l16.301-16.303C39.313,161.747,41.395,161.967,42.814,163.387L42.814,163.387z"/>
					<path fill="#7574B6" d="M70.677,135.524c1.42,1.422,1.642,3.502,0.495,4.646L54.87,156.473
						c-1.146,1.146-3.226,0.924-4.646-0.496l0,0c-1.42-1.42-1.642-3.5-0.497-4.645l16.304-16.303
						C67.176,133.883,69.256,134.106,70.677,135.524L70.677,135.524z"/>
					<path fill="#7574B6" d="M98.538,107.663c1.421,1.42,1.643,3.5,0.496,4.646L82.732,128.61c-1.146,1.146-3.226,0.926-4.646-0.496
						l0,0c-1.42-1.42-1.643-3.498-0.496-4.645l16.302-16.303C95.039,106.02,97.119,106.243,98.538,107.663L98.538,107.663z"/>
					<path fill="#7574B6" d="M126.4,79.801c1.42,1.42,1.643,3.498,0.496,4.645l-16.302,16.303c-1.146,1.145-3.226,0.924-4.646-0.496
						l0,0c-1.42-1.42-1.642-3.5-0.496-4.646l16.302-16.301C122.901,78.159,124.98,78.379,126.4,79.801L126.4,79.801z"/>
					<path fill="#7574B6" d="M154.054,52.147c1.421,1.42,1.644,3.5,0.497,4.645l-16.303,16.303
						c-1.146,1.146-3.226,0.926-4.646-0.496l0,0c-1.42-1.418-1.641-3.5-0.495-4.645l16.302-16.303
						C150.555,50.504,152.634,50.727,154.054,52.147L154.054,52.147z"/>
					<path fill="#7574B6" d="M181.708,24.493c1.421,1.42,1.642,3.5,0.496,4.646l-16.303,16.303
						c-1.146,1.145-3.226,0.924-4.646-0.496l0,0c-1.42-1.42-1.643-3.5-0.496-4.646l16.303-16.303
						C178.208,22.852,180.288,23.073,181.708,24.493L181.708,24.493z"/>
					<path fill="#7574B6" d="M209.361-3.16c1.42,1.42,1.643,3.498,0.496,4.646l-16.302,16.301c-1.146,1.146-3.226,0.924-4.646-0.496
						l0,0c-1.42-1.42-1.642-3.5-0.495-4.645l16.303-16.303C205.861-4.802,207.941-4.58,209.361-3.16L209.361-3.16z"/>
				</g>
				<g>
					<path fill="#7574B6" d="M13.93,215.565c1.421,1.42,1.643,3.5,0.496,4.646l-16.302,16.303c-1.146,1.146-3.226,0.924-4.646-0.496
						l0,0c-1.42-1.42-1.642-3.5-0.496-4.646l16.302-16.301C10.431,213.922,12.511,214.145,13.93,215.565L13.93,215.565z"/>
					<path fill="#7574B6" d="M41.792,187.704c1.421,1.42,1.642,3.5,0.496,4.645l-16.302,16.303
						c-1.146,1.146-3.226,0.926-4.646-0.496l0,0c-1.42-1.418-1.641-3.5-0.495-4.645l16.303-16.303
						C38.292,186.061,40.372,186.284,41.792,187.704L41.792,187.704z"/>
					<path fill="#7574B6" d="M69.654,159.84c1.42,1.422,1.643,3.5,0.496,4.646L53.848,180.79c-1.145,1.145-3.225,0.924-4.646-0.496
						l0,0c-1.419-1.42-1.641-3.5-0.495-4.646l16.303-16.303C66.155,158.2,68.234,158.422,69.654,159.84L69.654,159.84z"/>
					<path fill="#7574B6" d="M97.517,131.979c1.421,1.42,1.643,3.5,0.497,4.645l-16.303,16.303
						c-1.146,1.146-3.227,0.924-4.646-0.496l0,0c-1.42-1.42-1.641-3.498-0.495-4.645l16.302-16.303
						C94.018,130.336,96.098,130.559,97.517,131.979L97.517,131.979z"/>
					<path fill="#7574B6" d="M125.379,104.116c1.421,1.42,1.643,3.5,0.496,4.646l-16.303,16.303
						c-1.146,1.145-3.225,0.924-4.646-0.496l0,0c-1.42-1.42-1.642-3.5-0.495-4.646l16.303-16.303
						C121.88,102.475,123.96,102.696,125.379,104.116L125.379,104.116z"/>
					<path fill="#7574B6" d="M153.033,76.463c1.42,1.42,1.642,3.5,0.495,4.645l-16.302,16.303c-1.146,1.146-3.226,0.924-4.646-0.496
						l0,0c-1.42-1.418-1.642-3.498-0.496-4.645l16.302-16.303C149.534,74.821,151.613,75.043,153.033,76.463L153.033,76.463z"/>
					<path fill="#7574B6" d="M180.686,48.809c1.421,1.42,1.643,3.5,0.496,4.646L164.88,69.758c-1.146,1.146-3.226,0.924-4.646-0.496
						l0,0c-1.42-1.42-1.642-3.5-0.496-4.646l16.302-16.303C177.188,47.167,179.267,47.389,180.686,48.809L180.686,48.809z"/>
					<path fill="#7574B6" d="M208.339,21.155c1.421,1.422,1.643,3.5,0.497,4.646l-16.303,16.303
						c-1.146,1.146-3.226,0.924-4.646-0.496l0,0c-1.419-1.42-1.641-3.5-0.495-4.645l16.303-16.303
						C204.84,19.514,206.92,19.737,208.339,21.155L208.339,21.155z"/>
				</g>
				<g>
					<path fill="#7574B6" d="M37.088,213.385c1.421,1.422,1.643,3.5,0.496,4.646l-16.302,16.303
						c-1.146,1.146-3.226,0.924-4.646-0.496l0,0c-1.42-1.42-1.643-3.5-0.496-4.646l16.303-16.303
						C33.59,211.745,35.668,211.965,37.088,213.385L37.088,213.385z"/>
					<path fill="#7574B6" d="M64.95,185.524c1.421,1.42,1.643,3.5,0.497,4.645l-16.303,16.303c-1.146,1.146-3.226,0.926-4.646-0.494
						l0,0c-1.42-1.42-1.641-3.5-0.495-4.646l16.303-16.303C61.451,183.883,63.531,184.104,64.95,185.524L64.95,185.524z"/>
					<path fill="#7574B6" d="M92.813,157.661c1.421,1.42,1.642,3.5,0.496,4.646L77.006,178.61c-1.145,1.145-3.225,0.924-4.646-0.496
						l0,0c-1.419-1.42-1.641-3.5-0.495-4.645l16.303-16.305C89.313,156.02,91.395,156.241,92.813,157.661L92.813,157.661z"/>
					<path fill="#7574B6" d="M120.676,129.799c1.42,1.42,1.642,3.5,0.496,4.646l-16.303,16.301
						c-1.146,1.146-3.227,0.926-4.646-0.496l0,0c-1.42-1.418-1.642-3.498-0.495-4.645l16.302-16.303
						C117.176,128.157,119.256,128.379,120.676,129.799L120.676,129.799z"/>
					<path fill="#7574B6" d="M148.537,101.936c1.421,1.422,1.643,3.502,0.496,4.646l-16.303,16.303
						c-1.146,1.146-3.225,0.924-4.646-0.496l0,0c-1.419-1.42-1.642-3.5-0.495-4.646l16.302-16.301
						C145.038,100.295,147.118,100.518,148.537,101.936L148.537,101.936z"/>
					<path fill="#7574B6" d="M176.191,74.284c1.42,1.42,1.642,3.498,0.496,4.646l-16.303,16.303
						c-1.146,1.145-3.226,0.922-4.646-0.498l0,0c-1.419-1.42-1.642-3.498-0.495-4.645l16.302-16.303
						C172.692,72.641,174.771,72.864,176.191,74.284L176.191,74.284z"/>
					<path fill="#7574B6" d="M203.844,46.629c1.421,1.422,1.643,3.5,0.497,4.646l-16.303,16.303
						c-1.146,1.145-3.226,0.924-4.646-0.496l0,0c-1.42-1.42-1.641-3.5-0.496-4.646l16.303-16.303
						C200.346,44.989,202.425,45.209,203.844,46.629L203.844,46.629z"/>
					<path fill="#7574B6" d="M231.498,18.975c1.42,1.422,1.642,3.502,0.496,4.646l-16.303,16.303
						c-1.146,1.146-3.226,0.926-4.646-0.496l0,0c-1.419-1.418-1.641-3.5-0.495-4.645l16.303-16.303
						C227.998,17.334,230.078,17.557,231.498,18.975L231.498,18.975z"/>
				</g>
				<g>
					<path fill="#7574B6" d="M36.748,238.383c1.42,1.42,1.642,3.5,0.496,4.646l-16.303,16.301c-1.146,1.146-3.225,0.926-4.646-0.496
						l0,0c-1.42-1.42-1.643-3.5-0.496-4.645l16.302-16.303C33.248,236.741,35.328,236.963,36.748,238.383L36.748,238.383z"/>
					<path fill="#7574B6" d="M64.609,210.522c1.421,1.42,1.643,3.5,0.496,4.645l-16.301,16.303
						c-1.147,1.146-3.227,0.924-4.647-0.496l0,0c-1.419-1.42-1.642-3.5-0.495-4.646l16.302-16.303
						C61.11,208.879,63.189,209.102,64.609,210.522L64.609,210.522z"/>
					<path fill="#7574B6" d="M92.473,182.659c1.42,1.42,1.642,3.5,0.495,4.645l-16.303,16.303c-1.145,1.146-3.225,0.926-4.646-0.496
						l0,0c-1.419-1.418-1.642-3.5-0.495-4.645l16.303-16.303C88.972,181.016,91.053,181.239,92.473,182.659L92.473,182.659z"/>
					<path fill="#7574B6" d="M120.334,154.795c1.421,1.422,1.643,3.5,0.497,4.646l-16.303,16.303
						c-1.147,1.146-3.226,0.924-4.646-0.496l0,0c-1.42-1.42-1.643-3.5-0.496-4.646l16.303-16.303
						C116.835,153.155,118.914,153.375,120.334,154.795L120.334,154.795z"/>
					<path fill="#7574B6" d="M148.196,126.934c1.421,1.42,1.643,3.5,0.496,4.646l-16.302,16.301
						c-1.146,1.146-3.226,0.926-4.646-0.494l0,0c-1.42-1.42-1.641-3.502-0.495-4.646l16.302-16.303
						C144.697,125.292,146.776,125.514,148.196,126.934L148.196,126.934z"/>
					<path fill="#7574B6" d="M175.851,99.28c1.421,1.422,1.642,3.5,0.496,4.646l-16.303,16.303
						c-1.146,1.146-3.226,0.924-4.646-0.496l0,0c-1.419-1.42-1.642-3.5-0.495-4.645l16.303-16.303
						C172.351,97.637,174.431,97.86,175.851,99.28L175.851,99.28z"/>
					<path fill="#7574B6" d="M203.504,71.627c1.42,1.42,1.642,3.5,0.496,4.646l-16.303,16.301c-1.146,1.146-3.226,0.926-4.646-0.496
						l0,0c-1.419-1.42-1.642-3.5-0.495-4.646l16.302-16.301C200.004,69.985,202.084,70.208,203.504,71.627L203.504,71.627z"/>
					<path fill="#7574B6" d="M231.157,43.973c1.42,1.422,1.643,3.5,0.496,4.646l-16.302,16.303
						c-1.146,1.145-3.227,0.924-4.646-0.496l0,0c-1.42-1.42-1.642-3.5-0.496-4.646l16.303-16.303
						C227.658,42.331,229.737,42.553,231.157,43.973L231.157,43.973z"/>
				</g>
				<g>
					<path fill="#7574B6" d="M59.907,236.204c1.42,1.42,1.642,3.5,0.495,4.646L44.1,257.151c-1.146,1.146-3.225,0.926-4.645-0.496
						l0,0c-1.421-1.42-1.644-3.498-0.497-4.645l16.303-16.303C56.406,234.561,58.486,234.784,59.907,236.204L59.907,236.204z"/>
					<path fill="#7574B6" d="M87.768,208.342c1.421,1.42,1.643,3.5,0.497,4.645L71.962,229.29c-1.146,1.146-3.226,0.924-4.646-0.496
						l0,0c-1.42-1.42-1.642-3.5-0.496-4.645l16.303-16.303C84.269,206.7,86.348,206.922,87.768,208.342L87.768,208.342z"/>
					<path fill="#7574B6" d="M115.631,180.479c1.42,1.42,1.643,3.5,0.496,4.646l-16.303,16.303
						c-1.146,1.145-3.226,0.924-4.646-0.496l0,0c-1.42-1.42-1.642-3.502-0.496-4.646l16.303-16.303
						C112.131,178.836,114.211,179.059,115.631,180.479L115.631,180.479z"/>
					<path fill="#7574B6" d="M143.494,152.616c1.42,1.422,1.641,3.502,0.495,4.646l-16.302,16.303
						c-1.146,1.146-3.226,0.924-4.646-0.496l0,0c-1.42-1.42-1.643-3.5-0.496-4.646l16.303-16.301
						C139.993,150.975,142.073,151.196,143.494,152.616L143.494,152.616z"/>
					<path fill="#7574B6" d="M171.355,124.754c1.42,1.42,1.642,3.5,0.496,4.646l-16.303,16.303
						c-1.146,1.145-3.226,0.924-4.646-0.498l0,0c-1.42-1.42-1.641-3.498-0.495-4.645l16.302-16.303
						C167.855,123.112,169.936,123.334,171.355,124.754L171.355,124.754z"/>
					<path fill="#7574B6" d="M199.008,97.102c1.422,1.42,1.644,3.498,0.496,4.645l-16.302,16.303
						c-1.146,1.145-3.226,0.924-4.646-0.496l0,0c-1.42-1.42-1.642-3.5-0.495-4.646l16.302-16.301
						C195.509,95.459,197.589,95.682,199.008,97.102L199.008,97.102z"/>
					<path fill="#7574B6" d="M226.663,69.448c1.419,1.42,1.642,3.5,0.495,4.645l-16.302,16.303
						c-1.146,1.146-3.226,0.926-4.646-0.496l0,0c-1.42-1.42-1.642-3.5-0.495-4.645l16.303-16.303
						C223.163,67.805,225.242,68.028,226.663,69.448L226.663,69.448z"/>
					<path fill="#7574B6" d="M254.316,41.793c1.42,1.42,1.642,3.5,0.495,4.646L238.51,62.743c-1.146,1.146-3.227,0.924-4.646-0.496
						l0,0c-1.419-1.42-1.642-3.5-0.496-4.646l16.303-16.301C250.816,40.153,252.896,40.374,254.316,41.793L254.316,41.793z"/>
				</g>
				<g>
					<path fill="#7574B6" d="M58.885,260.52c1.42,1.42,1.642,3.5,0.496,4.646l-16.303,16.303c-1.146,1.145-3.226,0.924-4.646-0.498
						l0,0c-1.419-1.418-1.641-3.498-0.495-4.645l16.302-16.303C55.385,258.879,57.465,259.1,58.885,260.52L58.885,260.52z"/>
					<path fill="#7574B6" d="M86.746,232.657c1.421,1.422,1.643,3.5,0.497,4.646L70.94,253.606
						c-1.146,1.145-3.226,0.924-4.646-0.496l0,0c-1.421-1.42-1.643-3.5-0.496-4.646l16.303-16.303
						C83.247,231.016,85.327,231.239,86.746,232.657L86.746,232.657z"/>
					<path fill="#7574B6" d="M114.609,204.795c1.42,1.42,1.642,3.498,0.496,4.645l-16.304,16.305
						c-1.146,1.145-3.224,0.922-4.645-0.498l0,0c-1.42-1.42-1.642-3.498-0.497-4.645l16.304-16.303
						C111.109,203.153,113.189,203.375,114.609,204.795L114.609,204.795z"/>
					<path fill="#7574B6" d="M142.472,176.932c1.42,1.42,1.642,3.502,0.495,4.646l-16.303,16.303
						c-1.145,1.146-3.225,0.924-4.646-0.496l0,0c-1.419-1.42-1.642-3.5-0.495-4.645l16.303-16.303
						C138.972,175.292,141.052,175.514,142.472,176.932L142.472,176.932z"/>
					<path fill="#7574B6" d="M170.334,149.071c1.42,1.42,1.642,3.5,0.496,4.646l-16.303,16.301
						c-1.146,1.146-3.226,0.926-4.646-0.496l0,0c-1.42-1.418-1.643-3.5-0.495-4.645l16.301-16.303
						C166.835,147.43,168.914,147.651,170.334,149.071L170.334,149.071z"/>
					<path fill="#7574B6" d="M197.986,121.418c1.42,1.42,1.643,3.498,0.497,4.645l-16.303,16.303
						c-1.146,1.145-3.226,0.924-4.646-0.496l0,0c-1.42-1.42-1.642-3.5-0.496-4.646l16.302-16.303
						C194.488,119.776,196.567,119.999,197.986,121.418L197.986,121.418z"/>
					<path fill="#7574B6" d="M225.641,93.764c1.42,1.42,1.642,3.5,0.496,4.645l-16.303,16.303c-1.146,1.146-3.226,0.926-4.646-0.496
						l0,0c-1.419-1.42-1.641-3.498-0.495-4.645l16.303-16.303C222.141,92.122,224.221,92.344,225.641,93.764L225.641,93.764z"/>
					<path fill="#7574B6" d="M253.294,66.11c1.421,1.42,1.642,3.5,0.496,4.646l-16.303,16.303c-1.146,1.146-3.225,0.924-4.646-0.496
						l0,0c-1.419-1.42-1.641-3.5-0.495-4.646l16.303-16.303C249.795,64.467,251.875,64.69,253.294,66.11L253.294,66.11z"/>
				</g>
				<g>
					<path fill="#7574B6" d="M82.043,258.34c1.421,1.42,1.642,3.5,0.496,4.646L66.236,279.29c-1.146,1.145-3.225,0.922-4.646-0.498
						l0,0c-1.419-1.42-1.642-3.498-0.496-4.645l16.302-16.303C78.543,256.698,80.624,256.92,82.043,258.34L82.043,258.34z"/>
					<path fill="#7574B6" d="M109.904,230.479c1.421,1.42,1.643,3.5,0.497,4.645l-16.303,16.303
						c-1.146,1.146-3.226,0.924-4.646-0.496l0,0c-1.419-1.418-1.642-3.5-0.494-4.646l16.302-16.301
						C106.405,228.836,108.485,229.059,109.904,230.479L109.904,230.479z"/>
					<path fill="#7574B6" d="M137.768,202.616c1.42,1.42,1.641,3.5,0.496,4.646l-16.303,16.301
						c-1.146,1.146-3.225,0.926-4.646-0.496l0,0c-1.419-1.418-1.642-3.5-0.497-4.645l16.303-16.303
						C134.268,200.973,136.348,201.196,137.768,202.616L137.768,202.616z"/>
					<path fill="#7574B6" d="M165.629,174.752c1.421,1.422,1.643,3.5,0.497,4.646l-16.302,16.303
						c-1.146,1.146-3.227,0.924-4.646-0.496l0,0c-1.42-1.42-1.642-3.498-0.496-4.646l16.303-16.303
						C162.131,173.112,164.211,173.334,165.629,174.752L165.629,174.752z"/>
					<path fill="#7574B6" d="M193.492,146.891c1.42,1.42,1.643,3.5,0.496,4.646l-16.303,16.301
						c-1.146,1.146-3.226,0.926-4.646-0.494l0,0c-1.42-1.42-1.643-3.5-0.496-4.646l16.303-16.303
						C189.993,145.249,192.072,145.471,193.492,146.891L193.492,146.891z"/>
					<path fill="#7574B6" d="M221.145,119.237c1.422,1.42,1.643,3.5,0.497,4.646l-16.303,16.303
						c-1.146,1.146-3.226,0.924-4.646-0.496l0,0c-1.42-1.42-1.642-3.5-0.496-4.645l16.303-16.303
						C217.646,117.596,219.726,117.819,221.145,119.237L221.145,119.237z"/>
					<path fill="#7574B6" d="M248.799,91.584c1.421,1.42,1.642,3.498,0.496,4.646l-16.303,16.303
						c-1.146,1.145-3.225,0.924-4.646-0.498l0,0c-1.418-1.42-1.641-3.498-0.495-4.645l16.303-16.303
						C245.299,89.942,247.38,90.165,248.799,91.584L248.799,91.584z"/>
					<path fill="#7574B6" d="M276.452,63.93c1.421,1.422,1.643,3.5,0.496,4.646l-16.303,16.303
						c-1.146,1.145-3.226,0.924-4.646-0.496l0,0c-1.419-1.42-1.642-3.5-0.495-4.646l16.302-16.301
						C272.952,62.29,275.033,62.512,276.452,63.93L276.452,63.93z"/>
				</g>
			</g>
		</g>
		<g>
			<path fill="#E180B4" d="M100.837,63.885c-10.853,0-19.649,8.797-19.649,19.648c0,3.242,0.789,6.297,2.18,8.99
				c3.264,6.33,9.858,10.66,17.47,10.66c7.612,0,14.206-4.33,17.47-10.66c1.391-2.693,2.181-5.748,2.181-8.99
				C120.487,72.682,111.688,63.885,100.837,63.885z"/>
			<path fill="#FBD8E7" d="M100.837,80.153c7.179,0,13.253,4.729,15.276,11.244c1.216-2.357,1.906-5.027,1.906-7.863
				c0-9.488-7.693-17.182-17.183-17.182s-17.183,7.693-17.183,17.182c0,2.836,0.69,5.506,1.906,7.863
				C87.583,84.881,93.659,80.153,100.837,80.153z"/>
			<path fill="#F0AECE" d="M100.837,100.717c6.655,0,12.422-3.787,15.276-9.32c-2.023-6.516-8.098-11.244-15.276-11.244
				c-7.178,0-13.254,4.729-15.276,11.244C88.414,96.93,94.182,100.717,100.837,100.717z"/>
			<circle fill="#FFFFFF" cx="100.836" cy="83.534" r="10.236"/>
		</g>
		<path fill="#E180B4" d="M100.837,118.213c-17.556,0-31.787,14.23-31.787,31.785c0,5.244,1.277,10.186,3.526,14.545
			c5.279,10.238,15.948,17.242,28.261,17.242c12.313,0,22.981-7.004,28.261-17.242c2.249-4.359,3.525-9.301,3.525-14.545
			C132.623,132.444,118.393,118.213,100.837,118.213z"/>
		<path fill="#FBD8E7" d="M100.837,144.53c11.613,0,21.439,7.65,24.712,18.188c1.967-3.811,3.084-8.133,3.084-12.719
			c0-15.35-12.445-27.795-27.796-27.795s-27.795,12.445-27.795,27.795c0,4.586,1.116,8.908,3.084,12.719
			C79.398,152.18,89.225,144.53,100.837,144.53z"/>
		<path fill="#F0AECE" d="M100.837,177.793c10.767,0,20.096-6.123,24.712-15.076c-3.272-10.537-13.099-18.188-24.712-18.188
			c-11.612,0-21.438,7.65-24.711,18.188C80.742,171.67,90.071,177.793,100.837,177.793z"/>
		<circle fill="#E180B4" cx="100.836" cy="149.999" r="16.559"/>
	</g>
	<g>
		<path fill="#E58CBB" d="M86.693,0.094H21.416c-8.66,0-16.098,5.164-19.444,12.57h104.165C102.791,5.258,95.354,0.094,86.693,0.094
			z"/>
		<path fill="#C6428D" d="M1.972,12.665c-1.208,2.674-1.897,5.635-1.897,8.76c0,11.779,9.555,21.328,21.342,21.328h65.277
			c11.787,0,21.342-9.549,21.342-21.328c0-3.125-0.689-6.086-1.898-8.76H1.972z"/>
		<path fill="#E180B4" d="M146.447,21.424c0,11.779-9.555,21.328-21.342,21.328H59.828c-11.786,0-21.342-9.549-21.342-21.328l0,0
			c0-11.779,9.556-21.33,21.342-21.33h65.277C136.893,0.094,146.447,9.645,146.447,21.424L146.447,21.424z"/>
		<path fill="#E180B4" d="M16.889,32.276c-1.646,0-2.981,1.334-2.981,2.98v6.111c1.879,0.707,3.877,1.158,5.964,1.307v-7.418
			C19.871,33.61,18.537,32.276,16.889,32.276z"/>
		<path fill="#E180B4" d="M25.481,32.276c-1.646,0-2.981,1.334-2.981,2.98v7.496h5.965v-7.496
			C28.465,33.61,27.129,32.276,25.481,32.276z"/>
		<path fill="#E180B4" d="M34.075,32.276c-1.647,0-2.981,1.334-2.981,2.98v7.496h5.964v-7.496
			C37.058,33.61,35.723,32.276,34.075,32.276z"/>
		<path fill="#F5B6D3" d="M119.386,6.969h-10.008c9.409,0,17.04,6.471,17.04,14.455c0,7.982-7.631,14.455-17.04,14.455h10.008
			c9.409,0,17.04-6.473,17.04-14.455C136.426,13.44,128.795,6.969,119.386,6.969z"/>
		<path fill="#FACFE2" d="M109.378,6.969h-42.11H57.26c-9.412,0-17.04,6.471-17.04,14.455c0,7.982,7.628,14.455,17.04,14.455h10.008
			h42.11c9.409,0,17.04-6.473,17.04-14.455C126.418,13.44,118.787,6.969,109.378,6.969z"/>
		<path fill="#7674B6" d="M91.998,21.625c0,2.697-2.579,4.885-5.759,4.885H68.622c-3.181,0-5.76-2.188-5.76-4.885l0,0
			c0-2.699,2.579-4.887,5.76-4.887h17.617C89.419,16.739,91.998,18.926,91.998,21.625L91.998,21.625z"/>
		<path fill="#7674B6" d="M127.328,21.475c0,2.695-2.58,4.885-5.76,4.885h-17.617c-3.181,0-5.76-2.189-5.76-4.885l0,0
			c0-2.699,2.579-4.889,5.76-4.889h17.617C124.748,16.586,127.328,18.776,127.328,21.475L127.328,21.475z"/>
	</g>
</g>
</svg>
