<?xml version="1.0" encoding="utf-8"?>
<!-- Generator: Adobe Illustrator 16.0.0, SVG Export Plug-In . SVG Version: 6.00 Build 0)  -->
<!DOCTYPE svg PUBLIC "-//W3C//DTD SVG 1.1//EN" "http://www.w3.org/Graphics/SVG/1.1/DTD/svg11.dtd">
<svg version="1.1" id="Layer_1" xmlns="http://www.w3.org/2000/svg" xmlns:xlink="http://www.w3.org/1999/xlink" x="0px" y="0px"
	 width="24.75px" height="24.565px" viewBox="0 0 24.75 24.565" enable-background="new 0 0 24.75 24.565" xml:space="preserve">
<g>
	
		<path fill="none" stroke="#000000" stroke-width="3.7038" stroke-linecap="round" stroke-linejoin="round" stroke-miterlimit="10" d="
		M-37.26,23.298l-10.431-10.43L-37.26,2.437"/>
	
		<line fill="none" stroke="#000000" stroke-width="3.3406" stroke-linecap="round" stroke-linejoin="round" stroke-miterlimit="10" x1="-46.895" y1="12.986" x2="-26.462" y2="12.986"/>
</g>
<g>
	
		<path fill="none" stroke="#000000" stroke-width="3.7038" stroke-linecap="round" stroke-linejoin="round" stroke-miterlimit="10" d="
		M12.468,1.852l10.431,10.43L12.468,22.713"/>
	
		<line fill="none" stroke="#000000" stroke-width="3.3406" stroke-linecap="round" stroke-linejoin="round" stroke-miterlimit="10" x1="22.103" y1="12.165" x2="1.67" y2="12.165"/>
</g>
<g>
	
		<path fill="none" stroke="#000000" stroke-width="3.4093" stroke-linecap="round" stroke-linejoin="round" stroke-miterlimit="10" d="
		M71.789,13.967c0,5.451-4.418,9.871-9.87,9.871c-5.451,0-9.869-4.42-9.869-9.871c0-5.45,4.418-9.87,9.869-9.87
		c2.352,0,4.513,0.823,6.208,2.196"/>
	<path d="M69.501,1.857c0.864-0.863,1.571-0.572,1.571,0.654V7.33c0,1.223-1,2.224-2.225,2.224H64.03
		c-1.224,0-1.517-0.706-0.651-1.573L69.501,1.857z"/>
</g>
</svg>
