<?xml version="1.0" encoding="utf-8"?>
<!-- Generator: Adobe Illustrator 16.0.0, SVG Export Plug-In . SVG Version: 6.00 Build 0)  -->
<!DOCTYPE svg PUBLIC "-//W3C//DTD SVG 1.1//EN" "http://www.w3.org/Graphics/SVG/1.1/DTD/svg11.dtd">
<svg version="1.1" id="Layer_1" xmlns="http://www.w3.org/2000/svg" xmlns:xlink="http://www.w3.org/1999/xlink" x="0px" y="0px"
	 width="121.453px" height="165.641px" viewBox="0 0 121.453 165.641" enable-background="new 0 0 121.453 165.641"
	 xml:space="preserve">
<g>
	<path fill="#948EC5" d="M52.945,53.931c-0.128,3.547,1.899,6.587,6.079,9.119c4.18,2.535,10.069,5.067,17.669,7.6l9.309,3.229
		c5.572,2.027,10.606,4.56,15.104,7.6c4.494,3.039,8.326,6.619,11.493,10.733c3.165,4.118,5.51,8.739,7.03,13.869
		c1.52,5.13,2.09,10.734,1.709,16.813c-0.887,13.555-6.364,24.065-16.434,31.537c-10.068,7.472-23.78,11.209-41.131,11.209
		c-8.487,0-16.656-0.92-24.508-2.754c-7.854-1.835-14.377-4.779-19.568-8.835c-1.775-1.52-3.295-3.259-4.56-5.225
		c-1.268-1.962-2.186-4.019-2.755-6.174c-0.57-2.152-0.665-4.399-0.285-6.745c0.38-2.342,1.265-4.589,2.66-6.744
		c1.392-2.152,3.354-3.8,5.889-4.939c2.532-1.14,5.064-1.772,7.6-1.899c3.292-0.125,5.919,0.38,7.885,1.52
		c1.962,1.14,3.829,2.218,5.604,3.229c2.152,1.396,4.939,2.565,8.359,3.515c3.419,0.95,8.359,1.425,14.818,1.425
		c5.319,0,9.434-0.949,12.349-2.85c2.912-1.899,4.433-4.939,4.56-9.119c0-1.772-0.697-3.482-2.09-5.13
		c-1.395-1.645-3.39-3.164-5.984-4.56c-2.597-1.392-5.604-2.755-9.023-4.084c-3.42-1.33-7.095-2.627-11.02-3.895
		c-1.52-0.505-3.135-1.075-4.845-1.71c-1.71-0.633-3.135-1.202-4.274-1.71c-7.22-3.04-13.047-6.807-17.479-11.305
		c-4.435-4.494-7.76-9.371-9.975-14.628c-2.217-5.255-3.357-10.669-3.419-16.244c-0.065-5.571,0.727-10.829,2.374-15.769
		c3.293-10.259,9.404-18.173,18.334-23.748c8.929-5.572,19.915-8.359,32.962-8.359c4.939,0,9.276,0.223,13.014,0.665
		c3.734,0.445,7.029,1.016,9.88,1.71c2.85,0.697,5.319,1.52,7.409,2.47s4.02,1.87,5.794,2.755
		c4.433,2.407,7.885,5.765,10.354,10.069c2.47,4.307,3.007,8.739,1.615,13.299c-1.268,3.927-3.391,6.715-6.365,8.359
		c-2.977,1.647-6.302,2.47-9.974,2.47c-1.396,0-2.978-0.253-4.75-0.76c-1.774-0.505-3.104-1.075-3.989-1.71
		c-2.28-1.521-5.195-2.85-8.739-3.99c-3.548-1.14-8.169-1.71-13.869-1.71c-4.56,0-8.14,0.921-10.733,2.755
		C54.432,47.124,53.07,50.006,52.945,53.931z"/>
	<path fill="#F4C6DD" d="M41.075,45.026c-0.128,3.547,1.899,6.587,6.079,9.119c4.18,2.535,10.069,5.067,17.669,7.6l9.309,3.229
		c5.572,2.027,10.606,4.56,15.104,7.6c4.494,3.039,8.326,6.619,11.493,10.733c3.165,4.118,5.51,8.739,7.03,13.869
		c1.52,5.13,2.09,10.734,1.709,16.813c-0.887,13.555-6.364,24.065-16.434,31.537c-10.068,7.472-23.78,11.209-41.131,11.209
		c-8.487,0-16.656-0.92-24.508-2.754c-7.854-1.835-14.377-4.779-19.568-8.835c-1.775-1.52-3.295-3.259-4.56-5.225
		c-1.268-1.962-2.186-4.019-2.755-6.174c-0.57-2.152-0.665-4.399-0.285-6.745c0.38-2.342,1.265-4.589,2.66-6.744
		c1.392-2.152,3.354-3.8,5.889-4.939c2.532-1.14,5.064-1.772,7.6-1.899c3.292-0.125,5.919,0.38,7.885,1.52
		c1.962,1.14,3.829,2.218,5.604,3.229c2.152,1.396,4.939,2.565,8.359,3.515c3.419,0.95,8.359,1.425,14.818,1.425
		c5.319,0,9.434-0.949,12.349-2.85c2.912-1.899,4.433-4.939,4.56-9.119c0-1.772-0.697-3.482-2.09-5.13
		c-1.395-1.645-3.39-3.164-5.984-4.56c-2.597-1.392-5.604-2.755-9.023-4.084c-3.42-1.33-7.095-2.627-11.02-3.895
		c-1.52-0.505-3.135-1.075-4.845-1.71c-1.71-0.633-3.135-1.202-4.274-1.71c-7.22-3.04-13.047-6.807-17.479-11.305
		c-4.435-4.494-7.76-9.371-9.975-14.628c-2.217-5.255-3.357-10.669-3.419-16.244C1.778,42.305,2.57,37.047,4.217,32.107
		C7.51,21.849,13.622,13.935,22.551,8.359C31.48,2.787,42.466,0,55.513,0c4.939,0,9.276,0.223,13.014,0.665
		c3.734,0.445,7.029,1.016,9.88,1.71c2.85,0.697,5.319,1.52,7.409,2.47s4.02,1.87,5.794,2.755
		c4.433,2.407,7.885,5.765,10.354,10.069c2.47,4.307,3.007,8.739,1.615,13.299c-1.268,3.927-3.391,6.715-6.365,8.359
		c-2.977,1.647-6.302,2.47-9.974,2.47c-1.396,0-2.978-0.253-4.75-0.76c-1.774-0.505-3.104-1.075-3.989-1.71
		c-2.28-1.521-5.195-2.85-8.739-3.99c-3.548-1.14-8.169-1.71-13.869-1.71c-4.56,0-8.14,0.921-10.733,2.755
		C42.562,38.22,41.2,41.102,41.075,45.026z"/>
	<circle fill="#FFFFFF" cx="44.781" cy="11.1" r="6.679"/>
	<path fill="#FFFFFF" d="M90.049,27.099c-1.472,0-2.945-0.543-4.094-1.638c-0.213-0.198-10.674-9.828-24.5-9.01
		c-3.234,0.183-6.082-2.304-6.275-5.578C54.988,7.6,57.485,4.79,60.758,4.598c19.167-1.15,32.831,11.731,33.401,12.28
		c2.367,2.27,2.445,6.027,0.175,8.394C93.169,26.487,91.611,27.099,90.049,27.099z"/>
</g>
</svg>
