<?xml version="1.0" encoding="utf-8"?>
<!-- Generator: Adobe Illustrator 16.0.0, SVG Export Plug-In . SVG Version: 6.00 Build 0)  -->
<!DOCTYPE svg PUBLIC "-//W3C//DTD SVG 1.1//EN" "http://www.w3.org/Graphics/SVG/1.1/DTD/svg11.dtd">
<svg version="1.1" id="Layer_1" xmlns="http://www.w3.org/2000/svg" xmlns:xlink="http://www.w3.org/1999/xlink" x="0px" y="0px"
	 width="47.536px" height="52.919px" viewBox="0 0 47.536 52.919" enable-background="new 0 0 47.536 52.919" xml:space="preserve">
<path d="M39.464,36.773c-2.91,0-5.444,1.558-6.863,3.872L15.376,30.637c0.48-1.037,0.77-2.176,0.77-3.393
	c0-1.402-0.39-2.697-1.016-3.845l17.955-10.433c1.477,1.919,3.771,3.178,6.379,3.178c4.457,0,8.072-3.612,8.072-8.074
	c0-4.457-3.615-8.07-8.072-8.07S31.39,3.613,31.39,8.07c0,0.698,0.119,1.362,0.285,2.006l-18.65,10.838
	c-1.369-1.075-3.075-1.743-4.952-1.743C3.615,19.171,0,22.784,0,27.244c0,4.459,3.615,8.072,8.072,8.072
	c2.073,0,3.945-0.805,5.378-2.09l18.059,10.489c-0.055,0.374-0.119,0.745-0.119,1.132c0,4.458,3.617,8.071,8.074,8.071
	s8.072-3.613,8.072-8.071C47.536,40.387,43.921,36.773,39.464,36.773z"/>
</svg>
