<?xml version="1.0" encoding="utf-8"?>
<!-- Generator: Adobe Illustrator 16.0.0, SVG Export Plug-In . SVG Version: 6.00 Build 0)  -->
<!DOCTYPE svg PUBLIC "-//W3C//DTD SVG 1.1//EN" "http://www.w3.org/Graphics/SVG/1.1/DTD/svg11.dtd">
<svg version="1.1" id="Layer_1" xmlns="http://www.w3.org/2000/svg" xmlns:xlink="http://www.w3.org/1999/xlink" x="0px" y="0px"
	 width="246.5px" height="1005px" viewBox="0 0 246.5 1005" enable-background="new 0 0 246.5 1005" xml:space="preserve">
<g>
	<g>
		<rect x="29.966" y="146.771" fill="#EFB2D1" width="179.396" height="144.04"/>
		<rect x="29.966" y="146.771" fill="#E376AE" width="179.396" height="21.04"/>
		<rect x="29.966" y="146.771" fill="#EFB2D1" width="7.063" height="144.04"/>
	</g>
	<g>
		<rect x="29.966" y="320.828" fill="#EFB2D1" width="179.396" height="144.04"/>
		<rect x="29.966" y="320.828" fill="#E376AE" width="179.396" height="21.04"/>
		<rect x="29.966" y="320.828" fill="#EFB2D1" width="7.063" height="144.04"/>
	</g>
	<g>
		<rect x="29.966" y="494.756" fill="#EFB2D1" width="179.396" height="144.04"/>
		<rect x="29.966" y="494.756" fill="#E376AE" width="179.396" height="21.04"/>
		<rect x="29.966" y="494.756" fill="#EFB2D1" width="7.063" height="144.04"/>
	</g>
	<g>
		<rect x="29.966" y="0.75" fill="#EFB2D1" width="179.396" height="116.008"/>
	</g>
	<g>
		<path fill="#FDEFF5" d="M156.86,614.65c-4.024-32.984-19.867-49.889-19.867-49.889l0.073,0.822
			c-7.006-7.307-16.437-11.789-26.817-11.789c-10.266,0-19.604,4.383-26.584,11.543l0.051-0.576c0,0-1.241,1.34-3.104,3.949
			c6.612-5.666,14.906-9.043,23.915-9.043c10.381,0,19.813,4.484,26.817,11.789l-0.073-0.82c0,0,15.843,16.902,19.867,49.887
			c0.383,3.141,0.551,5.686,0.548,7.729C155.591,631.221,158.719,629.879,156.86,614.65z"/>
		<path fill="#FBD8E7" d="M151.138,620.523c-4.024-32.984-19.867-49.887-19.867-49.887l0.073,0.82
			c-7.005-7.305-16.437-11.789-26.817-11.789c-9.009,0-17.303,3.377-23.915,9.043c-0.45,0.629-0.924,1.311-1.439,2.09
			c-0.893,1.287-1.723,2.631-2.482,4.029c-4.776,8.266-10.614,21.578-12.84,39.82c-1.632,13.377,0.583,16.033,3.792,14.471
			l-0.378,14.4h0.85c2.762,0,5.792-0.951,8.5-1.395c10.79-1.762,21.475-4.891,32.479-4.98c6.281-0.055,12.522,0.932,18.629,2.338
			c3.441,0.793,6.886,1.576,10.33,2.357c1.325,0.301,2.651,0.613,3.978,0.908c0.162,0.037,2.69,0.449,2.713,0.623l-1.554-11.877
			c4.139,4.557,8.477,6.906,8.497-3.244C151.688,626.209,151.521,623.664,151.138,620.523z"/>
		<path fill="#F0AECE" d="M77.485,541.238c-1.604,20.541,12.979,34.906,31.703,34.906s33.944-12.555,33.944-29.512
			C143.133,543.313,77.783,537.426,77.485,541.238z"/>
		<path fill="#FBD8E7" d="M147.995,521.26c0-8.875-6.223-16.07-13.896-16.07c-5.183,0-9.692,3.287-12.083,8.148
			c-3.353-1.006-6.933-1.557-10.657-1.557c-3.201,0-6.294,0.41-9.228,1.162c-2.438-4.643-6.836-7.754-11.874-7.754
			c-7.677,0-13.897,7.195-13.897,16.07c0,3.953,1.239,7.566,3.285,10.367c-1.41,3.375-2.188,7.033-2.188,10.855
			c0,16.957,15.179,30.703,33.902,30.703s33.902-13.746,33.902-30.703c0-3.32-0.59-6.516-1.666-9.51
			C146.297,530.039,147.995,525.883,147.995,521.26z"/>
		<path fill="#FFFFFF" d="M98.152,515.404l0.054-0.039c-3.307-5.961-9.528-8.6-13.893-5.896c-4.198,2.602-6.156,10.799-1.877,16.846
			C86.28,521.373,91.747,517.525,98.152,515.404z"/>
		<path fill="#FFFFFF" d="M140.448,527.971c5.818-6.482,3.497-15.334-0.511-17.814c-3.938-2.443-10.455-1.26-13.779,6.27
			C132.17,518.83,137.174,522.895,140.448,527.971z"/>
		<g>
			<ellipse fill="#FFFFFF" cx="102.797" cy="539.17" rx="3.431" ry="6.766"/>
			<ellipse fill="#FFFFFF" cx="119.188" cy="539.17" rx="3.431" ry="6.766"/>
		</g>
		<path fill="#F0AECE" d="M74.21,620.217c2.623,11.514,0.436,21.889-4.887,23.174c-5.321,1.283-11.761-7.01-14.383-18.521
			c-2.621-11.516-0.434-21.889,4.889-23.174C65.149,600.412,71.589,608.703,74.21,620.217z M139.854,620.217
			c-2.622,11.514-0.435,21.889,4.888,23.174c5.32,1.283,11.76-7.01,14.383-18.521c2.621-11.516,0.434-21.889-4.889-23.174
			C148.916,600.412,142.477,608.703,139.854,620.217z"/>
	</g>
	<g>
		<g>
			<path fill="#FBD8E7" d="M121.729,40.621c-4.119-4.117-10.793-4.117-14.907,0l-15.872,15.87L75.08,40.621
				c-4.114-4.117-10.788-4.117-14.906,0c-4.116,4.117-4.116,10.791,0,14.906L80.78,76.135c2.755,2.754,6.659,3.657,10.169,2.721
				c3.514,0.937,7.416,0.033,10.173-2.721l20.606-20.607C125.843,51.412,125.843,44.738,121.729,40.621z"/>
			<path fill="#948EC5" d="M117.681,69.93v14.933c0,17.196-13.711,31.265-31.071,32.431c0.773,0.053,1.549,0.087,2.335,0.087h4.012
				c18.45,0,33.403-14.558,33.403-32.518V69.93H117.681z"/>
			<path fill="#F0AECE" d="M117.681,84.862V69.93H55.539v14.933c0,17.196,13.711,31.265,31.07,32.431
				C103.97,116.127,117.681,102.059,117.681,84.862z"/>
			<g>
				<path fill="#F0AECE" d="M80.006,56.927c0.718,0.72,0.718,1.892,0,2.61l0,0c-0.723,0.72-1.893,0.72-2.612,0l-15.15-15.148
					c-0.722-0.721-0.722-1.891,0-2.61l0,0c0.722-0.722,1.892-0.722,2.61,0L80.006,56.927z"/>
				<path fill="#F0AECE" d="M86.794,64.318c0.72,0.721,0.72,1.891,0,2.613l0,0c-0.724,0.723-1.894,0.723-2.613,0l-2.192-2.193
					c-0.719-0.719-0.719-1.891,0-2.609l0,0c0.722-0.725,1.892-0.725,2.611,0L86.794,64.318z"/>
			</g>
			<path fill="#FFFFFF" d="M95.234,57.816c-0.74,0.742-1.947,0.742-2.691,0l0,0c-0.741-0.746-0.741-1.948,0-2.691l15.361-15.363
				c0.742-0.742,1.947-0.742,2.691,0l0,0c0.744,0.746,0.744,1.95,0,2.692L95.234,57.816z"/>
		</g>
		<g>
			<path fill="#FBD8E7" d="M188.271,58.282c-3.17-3.169-8.309-3.169-11.478,0l-12.22,12.22l-12.218-12.22
				c-3.169-3.169-8.306-3.169-11.477,0c-3.168,3.171-3.168,8.308,0,11.478l15.866,15.865c2.12,2.119,5.125,2.814,7.828,2.094
				c2.707,0.721,5.709,0.025,7.831-2.094l15.866-15.865C191.438,66.59,191.438,61.453,188.271,58.282z"/>
			<path fill="#948EC5" d="M185.154,80.847v11.498c0,13.239-10.553,24.069-23.922,24.967c0.597,0.042,1.193,0.068,1.799,0.068h3.088
				c14.205,0,25.721-11.206,25.721-25.035V80.847H185.154z"/>
			<path fill="#F0AECE" d="M185.154,92.345V80.847h-47.844v11.498c0,13.239,10.559,24.069,23.922,24.967
				C174.602,116.414,185.154,105.584,185.154,92.345z"/>
			<g>
				<path fill="#F0AECE" d="M156.149,70.837c0.553,0.555,0.553,1.456,0,2.013l0,0c-0.559,0.553-1.456,0.553-2.013-0.004
					l-11.665-11.661c-0.553-0.557-0.553-1.456,0-2.013l0,0c0.559-0.553,1.456-0.553,2.013,0L156.149,70.837z"/>
				<path fill="#F0AECE" d="M161.375,76.528c0.553,0.555,0.553,1.456,0,2.011l0,0c-0.555,0.557-1.456,0.557-2.011,0l-1.689-1.688
					c-0.553-0.555-0.553-1.453,0-2.01l0,0c0.557-0.555,1.458-0.555,2.013,0L161.375,76.528z"/>
			</g>
			<path fill="#FFFFFF" d="M167.874,71.521c-0.571,0.57-1.501,0.57-2.071,0l0,0c-0.573-0.572-0.573-1.499,0-2.072l11.826-11.828
				c0.571-0.573,1.501-0.573,2.073,0l0,0c0.571,0.572,0.571,1.502,0,2.076L167.874,71.521z"/>
		</g>
	</g>
	<g>
		<path fill="#5D6AB2" d="M69.458,192.47c15.339,2.638,22.594-3.301,30.183-19.464c-7.589,16.163-18.802,18.145-34.141,15.506
			c-0.923-0.158-1.713-0.41-2.409-0.727C64.379,190.211,66.4,191.943,69.458,192.47z"/>
		<path fill="#FBD8E7" d="M84.3,157.007c-7.652,0-14.805,1.832-20.985,4.983c-0.492,2.028-1.029,4.53-1.447,7.223
			c-0.99,6.377-1.303,13.817,1.224,18.572c0.696,0.316,1.486,0.568,2.409,0.727c15.339,2.639,26.552,0.657,34.141-15.506
			c0.644-1.368,1.331-2.622,2.048-3.793c1.572-2.57,3.29-4.699,5.032-6.456C100.227,159.135,92.553,157.007,84.3,157.007z"/>
		<path fill="#948EC5" d="M106.721,162.757c-1.742,1.757-3.46,3.886-5.032,6.456c-0.717,1.171-1.404,2.425-2.048,3.793
			c-7.589,16.163-14.844,22.102-30.183,19.464c-3.058-0.526-5.079-2.259-6.367-4.685c-6.016-2.735-4.084-10.998-1.851-18.572
			c0.758-2.568,1.549-5.059,2.074-7.223c-12.583,6.412-21.072,18.383-21.072,32.127v3.275c5.072,5.519,22.532,9.588,42.058,9.588
			c19.956,0,37.506-4.252,42.058-9.955v-2.908C126.357,180.902,118.506,169.332,106.721,162.757z"/>
		<path fill="#948EC5" d="M61.867,169.213c0.418-2.692,0.955-5.194,1.447-7.223c-0.525,2.164-1.316,4.654-2.074,7.223H61.867z"/>
		<path fill="#948EC5" d="M63.091,187.785c-2.526-4.755-2.214-12.195-1.224-18.572H61.24
			C59.007,176.787,57.075,185.05,63.091,187.785z"/>
		<path fill="#FBD8E7" d="M126.357,290.725v-88.916c-1.679,2.104-5.134,4.007-9.814,5.574v83.342H126.357z"/>
		<path fill="#948EC5" d="M51.404,227.533c0-3.553,2.879-6.434,6.432-6.434s6.432,2.881,6.432,6.434v63.191h52.275v-83.342
			c-8.017,2.685-19.646,4.382-32.243,4.382c-19.525,0-36.985-4.07-42.058-9.589v88.549h9.162V227.533z"/>
		<path fill="#5D6AB2" d="M64.268,227.533c0-3.553-2.879-6.434-6.432-6.434s-6.432,2.881-6.432,6.434v63.191h12.863V227.533z"/>
	</g>
	<path fill="#54459C" d="M30.776,116.819c-8.285,0-15.002,6.717-15.002,15.002c0,8.284,6.717,15.001,15.002,15.001h178.585v-30.003
		H30.776z"/>
	<path fill="#54459C" d="M30.776,290.811c-8.285,0-15.002,6.717-15.002,15.002s6.717,15.002,15.002,15.002h178.585v-30.004H30.776z"
		/>
	<path fill="#54459C" d="M30.776,464.803c-8.285,0-15.002,6.717-15.002,15.002c0,8.284,6.717,15.001,15.002,15.001h178.585v-30.003
		H30.776z"/>
	<path fill="#54459C" d="M30.776,638.795c-8.285,0-15.002,6.717-15.002,15.002c0,8.283,6.717,15,15.002,15h178.585v-30.002H30.776z"
		/>
	<path fill="#5D6AB2" d="M209.361,199.16h-53.044c-8.788,0-15.913,7.124-15.913,15.912c0,8.789,7.125,15.914,15.913,15.914h53.044
		V199.16z"/>
	<path fill="#54459C" d="M209.361,228.537h-53.044c-8.788,0-15.913,7.125-15.913,15.914c0,8.788,7.125,15.912,15.913,15.912h53.044
		V228.537z"/>
	<path fill="#948EC5" d="M209.361,259.14h-53.044c-8.788,0-15.913,7.124-15.913,15.913s7.125,15.913,15.913,15.913h53.044V259.14z"
		/>
	<g>
		<rect x="29.966" y="668.756" fill="#EFB2D1" width="179.396" height="144.04"/>
		<rect x="29.966" y="668.756" fill="#E376AE" width="179.396" height="21.04"/>
		<rect x="29.966" y="668.756" fill="#EFB2D1" width="7.063" height="144.04"/>
	</g>
	<path fill="#54459C" d="M30.776,812.795c-8.285,0-15.002,6.717-15.002,15.002c0,8.283,6.717,15,15.002,15h178.585v-30.002H30.776z"
		/>
	<g>
		<path fill="#54459C" d="M0,0.75v989.112c0,8.285,6.717,15.002,15.002,15.002c8.284,0,15.001-6.717,15.001-15.002V0.75H0z"/>
		<path fill="#382F81" d="M15.67,996.563V0.75H0v989.112c0,6.587,4.252,12.169,10.155,14.187
			C13.35,1003.06,15.67,1000.083,15.67,996.563z"/>
	</g>
	<g>
		<rect x="29.966" y="842.756" fill="#EFB2D1" width="179.396" height="144.04"/>
		<rect x="29.966" y="842.756" fill="#E376AE" width="179.396" height="21.04"/>
		<rect x="29.966" y="842.756" fill="#EFB2D1" width="7.063" height="144.04"/>
	</g>
	<g>
		<defs>
			<rect id="SVGID_1_" x="29.966" y="320.828" width="179.396" height="144.04"/>
		</defs>
		<clipPath id="SVGID_2_">
			<use xlink:href="#SVGID_1_"  overflow="visible"/>
		</clipPath>
		<g clip-path="url(#SVGID_2_)">
			<rect x="49.399" y="342.094" fill="#54459C" width="2.743" height="122.609"/>
			<rect x="56.263" y="342.094" fill="#54459C" width="2.743" height="122.609"/>
			<g>
				<path fill="#5D6AB2" d="M44.697,464.699c0.179,0.014,0.353,0.052,0.537,0.052h19.499c0.162,0,0.315-0.034,0.476-0.048h-2.086
					V342.094h2.742v122.543c2.932-0.531,5.161-3.085,5.161-6.174v-124.85H44.697V464.699z M56.263,342.094h2.743v122.609h-2.743
					V342.094z M49.399,342.094h2.743v122.609h-2.743V342.094z"/>
				<path fill="#54459C" d="M63.123,342.094v122.609h2.086c0.219-0.018,0.443-0.024,0.656-0.066V342.094H63.123z"/>
				<path fill="#2D2C7A" d="M72.398,324.836l-28.733-0.045c-0.165,0-0.318,0.035-0.479,0.045c-3.246,0.252-5.811,2.938-5.811,6.244
					v125.815c0,3.29,2.534,5.957,5.753,6.237V332.047h0.058h29.213h0.058v131.086c3.217-0.28,5.752-2.947,5.752-6.237V331.08
					C78.208,327.773,75.643,325.088,72.398,324.836z"/>
				<polygon fill="#FBD8E7" points="67.503,438.426 49.076,438.426 49.076,431.105 67.503,431.105 62.549,434.764 				"/>
				<path fill="#5D6AB2" d="M88.605,464.699c0.183,0.014,0.353,0.052,0.538,0.052h19.502c0.161,0,0.312-0.034,0.473-0.048h-2.086
					V342.094h2.742v122.543c2.93-0.531,5.16-3.085,5.16-6.174v-124.85H88.605V464.699z M100.17,342.094h2.743v122.609h-2.743
					V342.094z M93.31,342.094h2.746v122.609H93.31V342.094z"/>
				<rect x="93.31" y="342.094" fill="#54459C" width="2.746" height="122.609"/>
				<rect x="100.17" y="342.094" fill="#54459C" width="2.743" height="122.609"/>
				<path fill="#54459C" d="M107.032,342.094v122.609h2.086c0.22-0.018,0.443-0.024,0.656-0.066V342.094H107.032z"/>
				<path fill="#2D2C7A" d="M116.309,324.836l-28.733-0.045c-0.166,0-0.321,0.035-0.482,0.045c-3.245,0.252-5.808,2.938-5.808,6.244
					v125.815c0,3.29,2.53,5.957,5.749,6.237V332.047h0.059h29.216h0.056v131.086c3.219-0.28,5.751-2.947,5.751-6.237V331.08
					C122.115,327.773,119.553,325.088,116.309,324.836z"/>
				<polygon fill="#FBD8E7" points="111.344,418.949 92.919,418.949 92.919,411.633 111.344,411.633 106.396,415.287 				"/>
				<polygon fill="#FBD8E7" points="111.344,394.057 92.919,394.057 92.919,386.736 111.344,386.736 106.396,390.395 				"/>
				<path fill="#5D6AB2" d="M133.037,464.699c0.178,0.014,0.354,0.052,0.536,0.052h19.501c0.162,0,0.314-0.034,0.474-0.048h-2.087
					V342.094h2.745v122.543c2.93-0.531,5.157-3.085,5.157-6.174v-124.85h-26.326V464.699z M144.602,342.094h2.743v122.609h-2.743
					V342.094z M137.739,342.094h2.745v122.609h-2.745V342.094z"/>
				<rect x="137.739" y="342.094" fill="#54459C" width="2.745" height="122.609"/>
				<rect x="144.602" y="342.094" fill="#54459C" width="2.743" height="122.609"/>
				<path fill="#54459C" d="M151.461,342.094v122.609h2.087c0.219-0.018,0.442-0.024,0.658-0.066V342.094H151.461z"/>
				<path fill="#2D2C7A" d="M160.736,324.836l-28.731-0.045c-0.163,0-0.318,0.035-0.48,0.045c-3.245,0.252-5.809,2.938-5.809,6.244
					v125.815c0,3.29,2.53,5.957,5.752,6.237V332.047h0.057h29.212h0.06v131.086c3.218-0.28,5.751-2.947,5.751-6.237V331.08
					C166.547,327.773,163.984,325.088,160.736,324.836z"/>
				<polygon fill="#FBD8E7" points="155.905,366.876 137.481,366.876 137.481,359.559 155.905,359.559 150.955,363.217 				"/>
				<path fill="#5D6AB2" d="M221.035,460.064c0.175-0.049,0.355-0.073,0.525-0.131l18.315-6.697
					c0.151-0.055,0.283-0.138,0.429-0.207l-1.96,0.715L196.269,338.58l2.572-0.936l42.059,115.099
					c2.569-1.509,3.785-4.671,2.729-7.569l-42.847-117.267l-24.732,9.036L221.035,460.064z M189.821,340.938l2.577-0.942
					l42.08,115.164l-2.578,0.946L189.821,340.938z M183.379,343.291l2.575-0.942l42.079,115.165l-2.58,0.941L183.379,343.291z"/>
				
					<rect x="204.333" y="339.097" transform="matrix(0.9391 -0.3437 0.3437 0.9391 -125.0729 95.0782)" fill="#54459C" width="2.742" height="122.609"/>
				
					<rect x="210.777" y="336.743" transform="matrix(0.9392 -0.3434 0.3434 0.9392 -123.7986 97.0681)" fill="#54459C" width="2.744" height="122.614"/>
				<path fill="#54459C" d="M196.269,338.58l42.076,115.164l1.96-0.715c0.197-0.09,0.407-0.176,0.595-0.286l-42.059-115.099
					L196.269,338.58z"/>
				<path fill="#2D2C7A" d="M199.061,319.192l-27.007,9.813c-0.154,0.058-0.283,0.141-0.434,0.214
					c-2.964,1.346-4.449,4.749-3.317,7.855l43.179,118.17c1.129,3.089,4.424,4.729,7.541,3.884l-44.983-123.12l0.055-0.021
					l27.44-10.027l0.055-0.018l44.98,123.121c2.93-1.367,4.395-4.74,3.262-7.829l-43.176-118.173
					C205.521,319.955,202.195,318.313,199.061,319.192z"/>
				<polygon fill="#FBD8E7" points="208.947,360.335 191.64,366.658 189.127,359.783 206.437,353.46 203.04,358.596 				"/>
			</g>
		</g>
	</g>
</g>
</svg>
