<?xml version="1.0" encoding="utf-8"?>
<!-- Generator: Adobe Illustrator 16.0.0, SVG Export Plug-In . SVG Version: 6.00 Build 0)  -->
<!DOCTYPE svg PUBLIC "-//W3C//DTD SVG 1.1//EN" "http://www.w3.org/Graphics/SVG/1.1/DTD/svg11.dtd">
<svg version="1.1" id="Layer_1" xmlns="http://www.w3.org/2000/svg" xmlns:xlink="http://www.w3.org/1999/xlink" x="0px" y="0px"
	 width="195.395px" height="937.129px" viewBox="13.967 0.75 195.395 937.129" enable-background="new 13.967 0.75 195.395 937.129"
	 xml:space="preserve">
<g>
	<g>
		<rect x="41.934" y="137.03" fill="#EFB2D1" width="167.428" height="134.431"/>
		<rect x="41.934" y="137.03" fill="#E376AE" width="167.428" height="19.636"/>
		<rect x="41.934" y="137.03" fill="#EFB2D1" width="6.591" height="134.431"/>
	</g>
	<g>
		<rect x="41.934" y="299.475" fill="#EFB2D1" width="167.428" height="134.431"/>
		<rect x="41.934" y="299.475" fill="#E376AE" width="167.428" height="19.637"/>
		<rect x="41.934" y="299.475" fill="#EFB2D1" width="6.591" height="134.431"/>
	</g>
	<g>
		<rect x="41.934" y="461.802" fill="#EFB2D1" width="167.428" height="134.431"/>
		<rect x="41.934" y="461.802" fill="#E376AE" width="167.428" height="19.637"/>
		<rect x="41.934" y="461.802" fill="#EFB2D1" width="6.591" height="134.431"/>
	</g>
	<g>
		<rect x="41.934" y="0.75" fill="#EFB2D1" width="167.428" height="108.27"/>
	</g>
	<g>
		<path fill="#FDEFF5" d="M160.362,573.696c-3.755-30.784-18.54-46.561-18.54-46.561l0.067,0.768
			c-6.539-6.821-15.341-11.003-25.027-11.003c-9.582,0-18.297,4.091-24.811,10.773l0.047-0.538c0,0-1.158,1.25-2.896,3.686
			c6.171-5.288,13.911-8.438,22.318-8.438c9.689,0,18.492,4.184,25.029,11.003l-0.068-0.767c0,0,14.785,15.772,18.542,46.56
			c0.357,2.931,0.516,5.308,0.512,7.214C159.178,589.162,162.098,587.91,160.362,573.696z"/>
		<path fill="#FBD8E7" d="M155.023,579.177c-3.757-30.784-18.542-46.56-18.542-46.56l0.068,0.765
			c-6.538-6.817-15.342-11.002-25.029-11.002c-8.407,0-16.147,3.151-22.318,8.439c-0.42,0.587-0.862,1.225-1.343,1.95
			c-0.834,1.201-1.607,2.456-2.316,3.759c-4.457,7.717-9.905,20.139-11.983,37.164c-1.522,12.484,0.544,14.964,3.539,13.506
			l-0.353,13.439h0.793c2.577,0,5.404-0.889,7.933-1.303c10.07-1.646,20.043-4.565,30.313-4.647
			c5.86-0.051,11.685,0.87,17.385,2.183c3.212,0.739,6.428,1.472,9.641,2.2c1.237,0.28,2.476,0.57,3.714,0.849
			c0.151,0.031,2.511,0.416,2.532,0.578l-1.452-11.085c3.865,4.255,7.913,6.446,7.933-3.024
			C155.535,584.483,155.379,582.108,155.023,579.177z"/>
		<path fill="#E094BC" d="M86.281,505.181c-1.496,19.171,12.113,32.577,29.589,32.577s31.68-11.718,31.68-27.543
			C147.551,507.118,86.561,501.625,86.281,505.181z"/>
		<path fill="#FBD8E7" d="M152.089,486.536c0-8.282-5.811-14.998-12.97-14.998c-4.839,0-9.047,3.068-11.276,7.605
			c-3.129-0.941-6.471-1.455-9.946-1.455c-2.986,0-5.874,0.383-8.611,1.085c-2.275-4.333-6.381-7.237-11.082-7.237
			c-7.165,0-12.972,6.716-12.972,14.999c0,3.689,1.157,7.061,3.066,9.675c-1.316,3.149-2.042,6.563-2.042,10.13
			c0,15.826,14.167,28.654,31.64,28.654c17.476,0,31.643-12.828,31.643-28.654c0-3.1-0.553-6.081-1.556-8.875
			C150.504,494.729,152.089,490.852,152.089,486.536z"/>
		<path fill="#FFFFFF" d="M105.571,481.071l0.052-0.036c-3.087-5.563-8.894-8.025-12.967-5.502
			c-3.918,2.429-5.745,10.079-1.752,15.723C94.49,486.641,99.594,483.052,105.571,481.071z"/>
		<path fill="#FFFFFF" d="M145.044,492.801c5.43-6.051,3.265-14.312-0.477-16.626c-3.675-2.278-9.758-1.177-12.858,5.854
			C137.32,484.268,141.99,488.062,145.044,492.801z"/>
		<g>
			<ellipse fill="#FFFFFF" cx="109.906" cy="503.251" rx="3.201" ry="6.315"/>
			<ellipse fill="#FFFFFF" cx="125.203" cy="503.251" rx="3.202" ry="6.315"/>
		</g>
		<path fill="#E094BC" d="M83.226,578.893c2.448,10.745,0.407,20.428-4.562,21.628c-4.966,1.197-10.977-6.543-13.424-17.286
			c-2.445-10.748-0.404-20.429,4.563-21.628C74.769,560.408,80.78,568.145,83.226,578.893z M144.49,578.893
			c-2.445,10.745-0.404,20.428,4.563,21.628c4.965,1.197,10.976-6.543,13.424-17.286c2.446-10.748,0.404-20.429-4.563-21.628
			S146.939,568.145,144.49,578.893z"/>
	</g>
	<g>
		<g>
			<path fill="#FBD8E7" d="M127.573,37.961c-3.844-3.843-10.071-3.843-13.911,0L98.85,52.772L84.038,37.961
				c-3.841-3.843-10.068-3.843-13.912,0c-3.842,3.843-3.842,10.071,0,13.912l19.23,19.233c2.572,2.57,6.215,3.412,9.49,2.54
				c3.28,0.874,6.922,0.031,9.495-2.54l19.23-19.232C131.415,48.032,131.415,41.803,127.573,37.961z"/>
			<path fill="#948EC5" d="M123.797,65.315v13.937c0,16.05-12.796,29.18-28.999,30.268c0.722,0.051,1.446,0.081,2.179,0.081h3.745
				c17.219,0,31.173-13.586,31.173-30.349V65.315H123.797z"/>
			<path fill="#F0AECE" d="M123.797,79.251V65.315H65.801v13.937c0,16.05,12.796,29.18,28.997,30.268
				C111.001,108.43,123.797,95.302,123.797,79.251z"/>
			<g>
				<path fill="#F0AECE" d="M88.635,53.18c0.67,0.671,0.67,1.765,0,2.434l0,0c-0.674,0.672-1.767,0.672-2.438,0L72.059,41.478
					c-0.674-0.675-0.674-1.768,0-2.438l0,0c0.673-0.673,1.765-0.673,2.436,0L88.635,53.18z"/>
				<path fill="#F0AECE" d="M94.971,60.077c0.671,0.672,0.671,1.765,0,2.439l0,0c-0.676,0.674-1.768,0.674-2.439,0l-2.046-2.047
					c-0.671-0.672-0.671-1.766,0-2.437l0,0c0.676-0.676,1.768-0.676,2.438,0L94.971,60.077z"/>
			</g>
			<path fill="#FFFFFF" d="M102.847,54.009c-0.69,0.693-1.816,0.693-2.511,0l0,0c-0.691-0.695-0.691-1.817,0-2.512l14.336-14.336
				c0.691-0.692,1.816-0.692,2.512,0l0,0c0.694,0.694,0.694,1.818,0,2.511L102.847,54.009z"/>
		</g>
		<g>
			<path fill="#FBD8E7" d="M189.678,54.444c-2.959-2.958-7.756-2.958-10.713,0l-11.406,11.404l-11.402-11.404
				c-2.958-2.958-7.752-2.958-10.712,0c-2.956,2.959-2.956,7.753,0,10.713l14.81,14.805c1.977,1.979,4.782,2.627,7.305,1.956
				c2.526,0.672,5.328,0.021,7.308-1.956l14.813-14.806C192.633,62.198,192.633,57.403,189.678,54.444z"/>
			<path fill="#948EC5" d="M186.769,75.504v10.731c0,12.354-9.849,22.462-22.326,23.301c0.559,0.039,1.112,0.063,1.68,0.063h2.883
				c13.257,0,24.005-10.458,24.005-23.363V75.504H186.769z"/>
			<path fill="#F0AECE" d="M186.769,86.235V75.504h-44.651v10.731c0,12.354,9.854,22.462,22.325,23.301
				C176.92,108.698,186.769,98.59,186.769,86.235z"/>
			<g>
				<path fill="#F0AECE" d="M159.698,66.161c0.519,0.521,0.519,1.359,0,1.88l0,0c-0.521,0.517-1.356,0.517-1.877-0.003
					l-10.889-10.883c-0.516-0.521-0.516-1.359,0-1.88l0,0c0.521-0.516,1.36-0.516,1.88,0L159.698,66.161z"/>
				<path fill="#F0AECE" d="M164.576,71.473c0.516,0.518,0.516,1.358,0,1.876l0,0c-0.52,0.521-1.359,0.521-1.879,0l-1.574-1.575
					c-0.517-0.521-0.517-1.356,0-1.877l0,0c0.521-0.519,1.359-0.519,1.878,0L164.576,71.473z"/>
			</g>
			<path fill="#FFFFFF" d="M170.642,66.8c-0.533,0.53-1.399,0.53-1.933,0l0,0c-0.534-0.533-0.534-1.398,0-1.934l11.037-11.039
				c0.532-0.535,1.399-0.535,1.935,0l0,0c0.532,0.534,0.532,1.402,0,1.938L170.642,66.8z"/>
		</g>
	</g>
	<g>
		<path fill="#5D6AB2" d="M78.791,179.68c14.315,2.462,21.086-3.083,28.169-18.167c-7.083,15.084-17.547,16.936-31.863,14.473
			c-0.861-0.147-1.599-0.383-2.249-0.68C74.051,177.572,75.937,179.188,78.791,179.68z"/>
		<path fill="#FBD8E7" d="M92.643,146.583c-7.142,0-13.816,1.709-19.585,4.651c-0.459,1.893-0.96,4.228-1.35,6.741
			c-0.924,5.951-1.218,12.896,1.142,17.333c0.65,0.295,1.387,0.53,2.249,0.68c14.315,2.462,24.78,0.611,31.863-14.473
			c0.602-1.275,1.242-2.445,1.911-3.54c1.468-2.397,3.07-4.385,4.696-6.025C107.507,148.57,100.345,146.583,92.643,146.583z"/>
		<path fill="#948EC5" d="M113.569,151.949c-1.626,1.642-3.229,3.628-4.696,6.025c-0.669,1.095-1.311,2.265-1.911,3.54
			c-7.083,15.084-13.854,20.629-28.169,18.167c-2.854-0.491-4.74-2.11-5.942-4.374c-5.614-2.554-3.812-10.265-1.728-17.333
			c0.708-2.396,1.445-4.722,1.936-6.741c-11.744,5.983-19.666,17.156-19.666,29.982v3.058c4.733,5.149,21.028,8.948,39.251,8.948
			c18.625,0,35.004-3.969,39.252-9.291v-2.715C131.894,168.885,124.568,158.086,113.569,151.949z"/>
		<path fill="#948EC5" d="M71.707,157.974c0.39-2.512,0.891-4.847,1.35-6.741c-0.49,2.02-1.228,4.344-1.936,6.741H71.707z"/>
		<path fill="#948EC5" d="M72.849,175.307c-2.358-4.438-2.065-11.383-1.142-17.333h-0.586
			C69.037,165.043,67.235,172.755,72.849,175.307z"/>
		<path fill="#FBD8E7" d="M131.894,271.381v-82.983c-1.566,1.963-4.791,3.74-9.158,5.201v77.783L131.894,271.381L131.894,271.381z"
			/>
		<path fill="#948EC5" d="M61.941,212.404c0-3.316,2.688-6.004,6.003-6.004c3.316,0,6.002,2.688,6.002,6.004v58.976h48.789v-77.783
			c-7.482,2.507-18.336,4.091-30.093,4.091c-18.223,0-34.518-3.799-39.251-8.951v82.644h8.55V212.404z"/>
		<path fill="#5D6AB2" d="M73.947,212.404c0-3.316-2.687-6.004-6.002-6.004c-3.314,0-6.003,2.688-6.003,6.004v58.976h12.005V212.404
			L73.947,212.404z"/>
	</g>
	<path fill="#54459C" d="M42.689,109.076c-7.73,0-14.001,6.27-14.001,14.001c0,7.732,6.271,14,14.001,14H209.36v-28.001H42.689
		L42.689,109.076z"/>
	<path fill="#54459C" d="M42.689,271.461c-7.73,0-14.001,6.27-14.001,14.001c0,7.732,6.271,14.002,14.001,14.002H209.36v-28.003
		H42.689z"/>
	<path fill="#54459C" d="M42.689,433.846c-7.73,0-14.001,6.269-14.001,14.001c0,7.73,6.271,14,14.001,14H209.36v-28.001H42.689
		L42.689,433.846z"/>
	<path fill="#54459C" d="M42.689,596.231c-7.73,0-14.001,6.271-14.001,14.002c0,7.729,6.271,13.999,14.001,13.999H209.36v-28.001
		H42.689L42.689,596.231z"/>
	<path fill="#5D6AB2" d="M209.361,185.924h-49.506c-8.201,0-14.851,6.649-14.851,14.852c0,8.203,6.648,14.853,14.851,14.853h49.506
		V185.924z"/>
	<path fill="#54459C" d="M209.361,213.341h-49.506c-8.201,0-14.851,6.649-14.851,14.853c0,8.202,6.648,14.851,14.851,14.851h49.506
		V213.341z"/>
	<path fill="#948EC5" d="M209.361,241.903h-49.506c-8.201,0-14.851,6.649-14.851,14.852c0,8.203,6.648,14.851,14.851,14.851h49.506
		V241.903z"/>
	<g>
		<rect x="41.934" y="624.194" fill="#EFB2D1" width="167.428" height="134.431"/>
		<rect x="41.934" y="624.194" fill="#E376AE" width="167.428" height="19.636"/>
		<rect x="41.934" y="624.194" fill="#EFB2D1" width="6.591" height="134.431"/>
	</g>
	<path fill="#54459C" d="M42.689,758.625c-7.73,0-14.001,6.269-14.001,14c0,7.729,6.271,14,14.001,14H209.36v-28H42.689z"/>
	<g>
		<path fill="#54459C" d="M13.967,0.75v923.128c0,7.731,6.269,14.001,14.001,14.001c7.73,0,14-6.27,14-14.001V0.75H13.967z"/>
		<path fill="#382F81" d="M28.592,930.133V0.75H13.967v923.128c0,6.146,3.968,11.356,9.477,13.241
			C26.426,936.195,28.592,933.418,28.592,930.133z"/>
	</g>
	<g>
		<rect x="41.934" y="786.587" fill="#EFB2D1" width="167.428" height="134.432"/>
		<rect x="41.934" y="786.587" fill="#E376AE" width="167.428" height="19.637"/>
		<rect x="41.934" y="786.587" fill="#EFB2D1" width="6.591" height="134.432"/>
	</g>
	<g>
		<g>
			<g>
				<g>
					<defs>
						<rect id="SVGID_1_" x="41.934" y="299.475" width="167.428" height="134.431"/>
					</defs>
					<clipPath id="SVGID_2_">
						<use xlink:href="#SVGID_1_"  overflow="visible"/>
					</clipPath>
					<g clip-path="url(#SVGID_2_)">
						<rect x="60.07" y="319.323" fill="#54459C" width="2.561" height="114.429"/>
						<rect x="66.476" y="319.323" fill="#54459C" width="2.561" height="114.429"/>
						<g>
							<path fill="#5D6AB2" d="M55.681,433.748c0.168,0.016,0.33,0.051,0.501,0.051H74.38c0.15,0,0.294-0.032,0.445-0.047h-1.947
								V319.323h2.558v114.368c2.737-0.496,4.817-2.879,4.817-5.762V311.407H55.681V433.748z M66.476,319.323h2.561v114.429h-2.561
								V319.323z M60.07,319.323h2.561v114.429H60.07V319.323z"/>
							<path fill="#54459C" d="M72.879,319.323v114.429h1.947c0.203-0.018,0.412-0.021,0.61-0.062V319.323H72.879z"/>
							<path fill="#2D2C7A" d="M81.535,303.219l-26.816-0.044c-0.154,0-0.297,0.032-0.447,0.044
								c-3.029,0.234-5.423,2.74-5.423,5.826v117.422c0,3.07,2.365,5.56,5.369,5.82v-122.34h0.054h27.265h0.055v122.341
								c3.002-0.262,5.369-2.751,5.369-5.82V309.043C86.958,305.957,84.563,303.452,81.535,303.219z"/>
							<polygon fill="#FBD8E7" points="76.967,409.229 59.769,409.229 59.769,402.396 76.967,402.396 72.343,405.811 							"/>
							<path fill="#5D6AB2" d="M96.66,433.748c0.171,0.016,0.329,0.051,0.502,0.051h18.2c0.15,0,0.292-0.032,0.442-0.047h-1.948
								V319.323h2.561v114.368c2.734-0.496,4.815-2.879,4.815-5.762V311.407H96.66V433.748z M107.454,319.323h2.561v114.429h-2.561
								V319.323z M101.052,319.323h2.563v114.429h-2.563V319.323z"/>
							<rect x="101.052" y="319.323" fill="#54459C" width="2.563" height="114.429"/>
							<rect x="107.454" y="319.323" fill="#54459C" width="2.561" height="114.429"/>
							<path fill="#54459C" d="M113.858,319.323v114.429h1.948c0.205-0.018,0.413-0.021,0.611-0.062V319.323H113.858z"/>
							<path fill="#2D2C7A" d="M122.517,303.219l-26.815-0.044c-0.155,0-0.301,0.032-0.45,0.044c-3.029,0.234-5.42,2.74-5.42,5.826
								v117.422c0,3.07,2.36,5.56,5.365,5.82v-122.34h0.056h27.267h0.052v122.341c3.006-0.262,5.368-2.751,5.368-5.82V309.043
								C127.935,305.957,125.544,303.452,122.517,303.219z"/>
							<polygon fill="#FBD8E7" points="117.883,391.052 100.687,391.052 100.687,384.224 117.883,384.224 113.265,387.634 							
								"/>
							<polygon fill="#FBD8E7" points="117.883,367.819 100.687,367.819 100.687,360.987 117.883,360.987 113.265,364.402 							
								"/>
							<path fill="#5D6AB2" d="M138.129,433.748c0.166,0.016,0.33,0.051,0.498,0.051h18.201c0.15,0,0.294-0.032,0.442-0.047h-1.948
								V319.323h2.563v114.368c2.735-0.496,4.813-2.879,4.813-5.762V311.407H138.13L138.129,433.748L138.129,433.748z
								 M148.922,319.323h2.561v114.429h-2.561V319.323z M142.516,319.323h2.563v114.429h-2.563V319.323z"/>
							<rect x="142.516" y="319.323" fill="#54459C" width="2.563" height="114.429"/>
							<rect x="148.922" y="319.323" fill="#54459C" width="2.561" height="114.429"/>
							<path fill="#54459C" d="M155.323,319.323v114.429h1.948c0.205-0.018,0.412-0.021,0.614-0.062V319.323H155.323z"/>
							<path fill="#2D2C7A" d="M163.98,303.219l-26.813-0.044c-0.151,0-0.296,0.032-0.447,0.044
								c-3.029,0.234-5.422,2.74-5.422,5.826v117.422c0,3.07,2.36,5.56,5.369,5.82v-122.34h0.053h27.263h0.058v122.341
								c3.005-0.262,5.367-2.751,5.367-5.82V309.043C169.404,305.957,167.011,303.452,163.98,303.219z"/>
							<polygon fill="#FBD8E7" points="159.47,342.453 142.275,342.453 142.275,335.623 159.47,335.623 154.852,339.038 							"/>
							<path fill="#5D6AB2" d="M220.256,429.424c0.164-0.045,0.331-0.068,0.49-0.122l17.092-6.25c0.14-0.052,0.264-0.128,0.4-0.193
								l-1.829,0.667l-39.268-107.48l2.4-0.873l39.254,107.42c2.396-1.408,3.532-4.359,2.547-7.063l-39.99-109.444l-23.08,8.434
								L220.256,429.424z M191.123,318.244l2.405-0.88l39.272,107.481l-2.406,0.883L191.123,318.244z M185.113,320.439l2.403-0.877
								l39.271,107.482l-2.407,0.877L185.113,320.439z"/>
							
								<rect x="204.72" y="316.524" transform="matrix(-0.9391 0.3437 -0.3437 -0.9391 527.8953 653.9153)" fill="#54459C" width="2.56" height="114.429"/>
							
								<rect x="210.657" y="314.328" transform="matrix(-0.9392 0.3433 -0.3433 -0.9392 538.5558 647.7377)" fill="#54459C" width="2.56" height="114.431"/>
							<path fill="#54459C" d="M197.143,316.043l39.271,107.481l1.828-0.667c0.185-0.083,0.38-0.164,0.557-0.267l-39.254-107.42
								L197.143,316.043z"/>
							<path fill="#2D2C7A" d="M199.748,297.948l-25.205,9.159c-0.145,0.054-0.265,0.131-0.405,0.2
								c-2.767,1.256-4.152,4.432-3.096,7.33l40.299,110.287c1.054,2.883,4.129,4.414,7.038,3.626l-41.981-114.907l0.053-0.021
								l25.608-9.355l0.051-0.018l41.979,114.906c2.734-1.275,4.103-4.424,3.045-7.307l-40.296-110.29
								C205.777,298.66,202.672,297.128,199.748,297.948z"/>
							<polygon fill="#FBD8E7" points="208.974,336.348 192.823,342.248 190.477,335.831 206.633,329.932 203.462,334.724 							
								"/>
						</g>
					</g>
				</g>
			</g>
		</g>
	</g>
</g>
</svg>
