<?xml version="1.0" encoding="utf-8"?>
<!-- Generator: Adobe Illustrator 16.0.0, SVG Export Plug-In . SVG Version: 6.00 Build 0)  -->
<!DOCTYPE svg PUBLIC "-//W3C//DTD SVG 1.1//EN" "http://www.w3.org/Graphics/SVG/1.1/DTD/svg11.dtd">
<svg version="1.1" id="Layer_1" xmlns="http://www.w3.org/2000/svg" xmlns:xlink="http://www.w3.org/1999/xlink" x="0px" y="0px"
	 width="209.313px" height="1005px" viewBox="0 0 209.313 1005" enable-background="new 0 0 209.313 1005" xml:space="preserve">
<g>
	<g>
		<rect x="29.966" y="146.771" fill="#EFB2D1" width="179.396" height="144.04"/>
		<rect x="29.966" y="146.771" fill="#E376AE" width="179.396" height="21.04"/>
		<rect x="29.966" y="146.771" fill="#EFB2D1" width="7.063" height="144.04"/>
	</g>
	<g>
		<rect x="29.966" y="320.828" fill="#EFB2D1" width="179.396" height="144.04"/>
		<rect x="29.966" y="320.828" fill="#E376AE" width="179.396" height="21.04"/>
		<rect x="29.966" y="320.828" fill="#EFB2D1" width="7.063" height="144.04"/>
	</g>
	<g>
		<rect x="29.966" y="494.757" fill="#EFB2D1" width="179.396" height="144.04"/>
		<rect x="29.966" y="494.757" fill="#E376AE" width="179.396" height="21.04"/>
		<rect x="29.966" y="494.757" fill="#EFB2D1" width="7.063" height="144.04"/>
	</g>
	<g>
		<rect x="29.966" y="0.75" fill="#EFB2D1" width="179.396" height="116.008"/>
	</g>
	<g>
		<path fill="#FDEFF5" d="M156.859,614.65c-4.023-32.984-19.866-49.889-19.866-49.889l0.073,0.822
			c-7.006-7.308-16.438-11.789-26.817-11.789c-10.266,0-19.604,4.383-26.584,11.543l0.051-0.576c0,0-1.241,1.34-3.104,3.949
			c6.612-5.666,14.906-9.043,23.915-9.043c10.381,0,19.813,4.483,26.817,11.789l-0.072-0.82c0,0,15.842,16.901,19.867,49.887
			c0.383,3.141,0.551,5.687,0.547,7.729C155.591,631.221,158.719,629.88,156.859,614.65z"/>
		<path fill="#FBD8E7" d="M151.139,620.523c-4.025-32.984-19.867-49.887-19.867-49.887l0.072,0.819
			c-7.005-7.305-16.437-11.788-26.817-11.788c-9.009,0-17.303,3.377-23.915,9.043c-0.45,0.629-0.924,1.311-1.439,2.09
			c-0.893,1.287-1.723,2.631-2.482,4.028c-4.776,8.267-10.614,21.578-12.84,39.82c-1.632,13.377,0.583,16.033,3.792,14.471
			l-0.378,14.4h0.85c2.762,0,5.792-0.951,8.5-1.395c10.79-1.763,21.475-4.892,32.479-4.98c6.281-0.055,12.521,0.932,18.628,2.338
			c3.441,0.793,6.887,1.576,10.33,2.357c1.325,0.301,2.651,0.612,3.979,0.908c0.162,0.036,2.689,0.448,2.713,0.622l-1.555-11.877
			c4.14,4.558,8.478,6.906,8.498-3.243C151.688,626.209,151.521,623.664,151.139,620.523z"/>
		<path fill="#F0AECE" d="M77.485,541.238c-1.604,20.541,12.979,34.906,31.703,34.906s33.944-12.555,33.944-29.512
			C143.133,543.313,77.783,537.427,77.485,541.238z"/>
		<path fill="#FBD8E7" d="M147.995,521.26c0-8.875-6.224-16.07-13.896-16.07c-5.184,0-9.693,3.287-12.083,8.148
			c-3.353-1.007-6.933-1.558-10.657-1.558c-3.201,0-6.294,0.41-9.228,1.162c-2.438-4.643-6.836-7.754-11.874-7.754
			c-7.677,0-13.897,7.195-13.897,16.07c0,3.953,1.239,7.565,3.285,10.367c-1.41,3.375-2.188,7.032-2.188,10.854
			c0,16.957,15.179,30.703,33.902,30.703c18.723,0,33.903-13.746,33.903-30.703c0-3.32-0.591-6.516-1.666-9.51
			C146.297,530.039,147.995,525.884,147.995,521.26z"/>
		<path fill="#FFFFFF" d="M98.152,515.404l0.054-0.039c-3.307-5.961-9.528-8.6-13.893-5.896c-4.198,2.602-6.156,10.799-1.877,16.846
			C86.28,521.373,91.747,517.525,98.152,515.404z"/>
		<path fill="#FFFFFF" d="M140.447,527.971c5.818-6.482,3.498-15.334-0.51-17.814c-3.938-2.442-10.455-1.26-13.779,6.271
			C132.17,518.83,137.174,522.895,140.447,527.971z"/>
		<g>
			<ellipse fill="#FFFFFF" cx="102.797" cy="539.17" rx="3.431" ry="6.766"/>
			<ellipse fill="#FFFFFF" cx="119.188" cy="539.17" rx="3.431" ry="6.766"/>
		</g>
		<path fill="#F0AECE" d="M74.21,620.218c2.623,11.514,0.436,21.889-4.887,23.174c-5.321,1.283-11.761-7.01-14.383-18.521
			c-2.621-11.516-0.434-21.889,4.889-23.174C65.149,600.412,71.589,608.703,74.21,620.218z M139.854,620.218
			c-2.621,11.514-0.435,21.889,4.889,23.174c5.32,1.283,11.76-7.01,14.383-18.521c2.621-11.516,0.434-21.889-4.889-23.174
			C148.916,600.412,142.477,608.703,139.854,620.218z"/>
	</g>
	<g>
		<g>
			<path fill="#FBD8E7" d="M121.729,40.621c-4.119-4.117-10.793-4.117-14.907,0L90.95,56.491l-15.87-15.87
				c-4.114-4.117-10.788-4.117-14.906,0c-4.116,4.117-4.116,10.791,0,14.906L80.78,76.135c2.755,2.754,6.659,3.656,10.169,2.721
				c3.514,0.937,7.416,0.033,10.173-2.721l20.606-20.607C125.844,51.412,125.844,44.738,121.729,40.621z"/>
			<path fill="#948EC5" d="M117.681,69.93v14.933c0,17.196-13.711,31.265-31.071,32.431c0.773,0.054,1.549,0.087,2.335,0.087h4.012
				c18.45,0,33.402-14.558,33.402-32.518V69.93H117.681z"/>
			<path fill="#F0AECE" d="M117.681,84.862V69.93H55.539v14.933c0,17.196,13.711,31.265,31.07,32.431
				C103.97,116.127,117.681,102.059,117.681,84.862z"/>
			<g>
				<path fill="#F0AECE" d="M80.006,56.927c0.718,0.72,0.718,1.892,0,2.609l0,0c-0.723,0.72-1.893,0.72-2.612,0l-15.15-15.147
					c-0.722-0.722-0.722-1.892,0-2.61l0,0c0.722-0.722,1.892-0.722,2.61,0L80.006,56.927z"/>
				<path fill="#F0AECE" d="M86.794,64.318c0.72,0.721,0.72,1.891,0,2.613l0,0c-0.724,0.723-1.894,0.723-2.613,0l-2.192-2.193
					c-0.719-0.719-0.719-1.891,0-2.609l0,0c0.722-0.725,1.892-0.725,2.611,0L86.794,64.318z"/>
			</g>
			<path fill="#FFFFFF" d="M95.234,57.816c-0.74,0.742-1.947,0.742-2.691,0l0,0c-0.741-0.746-0.741-1.948,0-2.691l15.361-15.362
				c0.742-0.742,1.947-0.742,2.691,0l0,0c0.744,0.745,0.744,1.949,0,2.691L95.234,57.816z"/>
		</g>
		<g>
			<path fill="#FBD8E7" d="M188.271,58.282c-3.17-3.169-8.31-3.169-11.479,0l-12.221,12.22l-12.217-12.22
				c-3.17-3.169-8.307-3.169-11.478,0c-3.168,3.171-3.168,8.308,0,11.479l15.866,15.864c2.119,2.119,5.125,2.814,7.828,2.095
				c2.707,0.721,5.709,0.024,7.83-2.095L188.27,69.76C191.438,66.59,191.438,61.453,188.271,58.282z"/>
			<path fill="#948EC5" d="M185.154,80.847v11.498c0,13.238-10.553,24.068-23.922,24.967c0.597,0.042,1.192,0.067,1.799,0.067h3.088
				c14.205,0,25.721-11.206,25.721-25.034V80.847H185.154z"/>
			<path fill="#F0AECE" d="M185.154,92.345V80.847h-47.844v11.498c0,13.238,10.559,24.068,23.922,24.967
				C174.602,116.414,185.154,105.584,185.154,92.345z"/>
			<g>
				<path fill="#F0AECE" d="M156.148,70.837c0.554,0.556,0.554,1.456,0,2.014l0,0c-0.559,0.553-1.455,0.553-2.012-0.004
					l-11.666-11.661c-0.553-0.558-0.553-1.456,0-2.014l0,0c0.559-0.553,1.457-0.553,2.014,0L156.148,70.837z"/>
				<path fill="#F0AECE" d="M161.375,76.528c0.553,0.555,0.553,1.456,0,2.011l0,0c-0.555,0.558-1.456,0.558-2.012,0l-1.688-1.688
					c-0.553-0.556-0.553-1.453,0-2.011l0,0c0.558-0.555,1.458-0.555,2.013,0L161.375,76.528z"/>
			</g>
			<path fill="#FFFFFF" d="M167.874,71.521c-0.571,0.569-1.501,0.569-2.071,0l0,0c-0.572-0.572-0.572-1.499,0-2.072l11.826-11.828
				c0.571-0.573,1.501-0.573,2.073,0l0,0c0.571,0.572,0.571,1.502,0,2.076L167.874,71.521z"/>
		</g>
	</g>
	<g>
		<path fill="#5D6AB2" d="M69.458,192.47c15.339,2.638,22.594-3.302,30.183-19.465c-7.589,16.163-18.802,18.146-34.141,15.507
			c-0.923-0.158-1.713-0.41-2.409-0.728C64.379,190.211,66.4,191.943,69.458,192.47z"/>
		<path fill="#FBD8E7" d="M84.3,157.007c-7.652,0-14.805,1.832-20.985,4.983c-0.492,2.028-1.029,4.53-1.447,7.223
			c-0.99,6.377-1.303,13.817,1.224,18.572c0.696,0.316,1.486,0.568,2.409,0.728c15.339,2.639,26.552,0.656,34.141-15.507
			c0.644-1.367,1.331-2.621,2.048-3.793c1.572-2.569,3.29-4.698,5.032-6.456C100.227,159.135,92.553,157.007,84.3,157.007z"/>
		<path fill="#948EC5" d="M106.721,162.757c-1.742,1.758-3.46,3.887-5.032,6.456c-0.717,1.172-1.404,2.426-2.048,3.793
			c-7.589,16.163-14.844,22.103-30.183,19.465c-3.058-0.526-5.079-2.26-6.367-4.686c-6.016-2.735-4.084-10.998-1.851-18.572
			c0.758-2.567,1.549-5.059,2.074-7.223c-12.583,6.412-21.072,18.383-21.072,32.127v3.275c5.072,5.519,22.532,9.588,42.058,9.588
			c19.956,0,37.506-4.252,42.058-9.955v-2.908C126.357,180.902,118.506,169.332,106.721,162.757z"/>
		<path fill="#948EC5" d="M61.867,169.213c0.418-2.691,0.955-5.193,1.447-7.223c-0.525,2.164-1.316,4.654-2.074,7.223H61.867z"/>
		<path fill="#948EC5" d="M63.091,187.785c-2.526-4.755-2.214-12.195-1.224-18.572H61.24
			C59.007,176.787,57.075,185.05,63.091,187.785z"/>
		<path fill="#FBD8E7" d="M126.357,290.725v-88.916c-1.68,2.104-5.134,4.007-9.814,5.573v83.343H126.357z"/>
		<path fill="#948EC5" d="M51.404,227.533c0-3.553,2.879-6.434,6.432-6.434c3.553,0,6.432,2.881,6.432,6.434v63.191h52.275v-83.343
			c-8.017,2.686-19.646,4.383-32.243,4.383c-19.525,0-36.985-4.07-42.058-9.59v88.55h9.162V227.533z"/>
		<path fill="#5D6AB2" d="M64.268,227.533c0-3.553-2.879-6.434-6.432-6.434c-3.553,0-6.432,2.881-6.432,6.434v63.191h12.863
			L64.268,227.533L64.268,227.533z"/>
	</g>
	<path fill="#54459C" d="M30.776,116.819c-8.285,0-15.002,6.717-15.002,15.002c0,8.284,6.717,15.001,15.002,15.001h178.585v-30.003
		H30.776L30.776,116.819z"/>
	<path fill="#54459C" d="M30.776,290.811c-8.285,0-15.002,6.717-15.002,15.002s6.717,15.002,15.002,15.002h178.585v-30.004H30.776z"
		/>
	<path fill="#54459C" d="M30.776,464.803c-8.285,0-15.002,6.717-15.002,15.002c0,8.284,6.717,15.001,15.002,15.001h178.585v-30.003
		H30.776L30.776,464.803z"/>
	<path fill="#54459C" d="M30.776,638.796c-8.285,0-15.002,6.717-15.002,15.002c0,8.282,6.717,15,15.002,15h178.585v-30.002H30.776z"
		/>
	<path fill="#5D6AB2" d="M209.361,199.16h-53.045c-8.787,0-15.912,7.124-15.912,15.912c0,8.789,7.125,15.914,15.912,15.914h53.045
		V199.16z"/>
	<path fill="#54459C" d="M209.361,228.537h-53.045c-8.787,0-15.912,7.125-15.912,15.914c0,8.788,7.125,15.912,15.912,15.912h53.045
		V228.537z"/>
	<path fill="#948EC5" d="M209.361,259.14h-53.045c-8.787,0-15.912,7.124-15.912,15.913s7.125,15.912,15.912,15.912h53.045V259.14z"
		/>
	<g>
		<rect x="29.966" y="668.757" fill="#EFB2D1" width="179.396" height="144.04"/>
		<rect x="29.966" y="668.757" fill="#E376AE" width="179.396" height="21.04"/>
		<rect x="29.966" y="668.757" fill="#EFB2D1" width="7.063" height="144.04"/>
	</g>
	<path fill="#54459C" d="M30.776,812.796c-8.285,0-15.002,6.717-15.002,15.002c0,8.282,6.717,15,15.002,15h178.585v-30.002H30.776z"
		/>
	<g>
		<path fill="#54459C" d="M0,0.75v989.112c0,8.285,6.717,15.002,15.002,15.002c8.284,0,15.001-6.717,15.001-15.002V0.75H0z"/>
		<path fill="#382F81" d="M15.67,996.563V0.75H0v989.112c0,6.587,4.252,12.169,10.155,14.188
			C13.35,1003.06,15.67,1000.084,15.67,996.563z"/>
	</g>
	<g>
		<rect x="29.966" y="842.757" fill="#EFB2D1" width="179.396" height="144.04"/>
		<rect x="29.966" y="842.757" fill="#E376AE" width="179.396" height="21.04"/>
		<rect x="29.966" y="842.757" fill="#EFB2D1" width="7.063" height="144.04"/>
	</g>
	<g>
		<g>
			<defs>
				<rect id="SVGID_1_" x="29.966" y="320.828" width="179.396" height="144.04"/>
			</defs>
			<clipPath id="SVGID_2_">
				<use xlink:href="#SVGID_1_"  overflow="visible"/>
			</clipPath>
			<g clip-path="url(#SVGID_2_)">
				<rect x="49.399" y="342.094" fill="#54459C" width="2.743" height="122.608"/>
				<rect x="56.263" y="342.094" fill="#54459C" width="2.743" height="122.608"/>
				<g>
					<path fill="#5D6AB2" d="M44.697,464.699c0.179,0.015,0.353,0.053,0.537,0.053h19.499c0.162,0,0.315-0.034,0.476-0.049h-2.086
						V342.094h2.742v122.543c2.932-0.531,5.161-3.085,5.161-6.174V333.613H44.697V464.699z M56.263,342.094h2.743v122.608h-2.743
						V342.094z M49.399,342.094h2.743v122.608h-2.743V342.094z"/>
					<path fill="#54459C" d="M63.123,342.094v122.608h2.086c0.219-0.018,0.443-0.023,0.656-0.065V342.094H63.123z"/>
					<path fill="#2D2C7A" d="M72.398,324.837l-28.733-0.046c-0.165,0-0.318,0.035-0.479,0.046c-3.246,0.252-5.811,2.938-5.811,6.243
						v125.815c0,3.29,2.534,5.957,5.753,6.237V332.048h0.058h29.213h0.058v131.086c3.217-0.28,5.752-2.947,5.752-6.237V331.08
						C78.208,327.773,75.643,325.089,72.398,324.837z"/>
					<polygon fill="#FBD8E7" points="67.503,438.427 49.076,438.427 49.076,431.105 67.503,431.105 62.549,434.764 					"/>
					<path fill="#5D6AB2" d="M88.605,464.699c0.183,0.015,0.353,0.053,0.538,0.053h19.502c0.161,0,0.312-0.034,0.473-0.049h-2.086
						V342.094h2.742v122.543c2.93-0.531,5.16-3.085,5.16-6.174V333.613H88.605V464.699z M100.17,342.094h2.743v122.608h-2.743
						V342.094z M93.31,342.094h2.746v122.608H93.31V342.094z"/>
					<rect x="93.31" y="342.094" fill="#54459C" width="2.746" height="122.608"/>
					<rect x="100.17" y="342.094" fill="#54459C" width="2.743" height="122.608"/>
					<path fill="#54459C" d="M107.032,342.094v122.608h2.086c0.22-0.018,0.443-0.023,0.656-0.065V342.094H107.032z"/>
					<path fill="#2D2C7A" d="M116.309,324.837l-28.733-0.046c-0.166,0-0.321,0.035-0.482,0.046
						c-3.245,0.252-5.808,2.938-5.808,6.243v125.815c0,3.29,2.53,5.957,5.749,6.237V332.048h0.059h29.216h0.056v131.086
						c3.219-0.28,5.751-2.947,5.751-6.237V331.08C122.115,327.773,119.553,325.089,116.309,324.837z"/>
					<polygon fill="#FBD8E7" points="111.344,418.949 92.919,418.949 92.919,411.634 111.344,411.634 106.396,415.287 					"/>
					<polygon fill="#FBD8E7" points="111.344,394.057 92.919,394.057 92.919,386.736 111.344,386.736 106.396,390.395 					"/>
					<path fill="#5D6AB2" d="M133.037,464.699c0.178,0.015,0.354,0.053,0.535,0.053h19.502c0.162,0,0.314-0.034,0.474-0.049h-2.087
						V342.094h2.745v122.543c2.931-0.531,5.157-3.085,5.157-6.174V333.613h-26.326V464.699z M144.602,342.094h2.744v122.608h-2.744
						V342.094z M137.738,342.094h2.746v122.608h-2.746V342.094z"/>
					<rect x="137.738" y="342.094" fill="#54459C" width="2.746" height="122.608"/>
					<rect x="144.602" y="342.094" fill="#54459C" width="2.744" height="122.608"/>
					<path fill="#54459C" d="M151.461,342.094v122.608h2.087c0.22-0.018,0.442-0.023,0.658-0.065V342.094H151.461z"/>
					<path fill="#2D2C7A" d="M160.736,324.837l-28.731-0.046c-0.163,0-0.317,0.035-0.479,0.046c-3.246,0.252-5.81,2.938-5.81,6.243
						v125.815c0,3.29,2.53,5.957,5.753,6.237V332.048h0.057h29.211h0.061v131.086c3.219-0.28,5.751-2.947,5.751-6.237V331.08
						C166.547,327.773,163.984,325.089,160.736,324.837z"/>
					<polygon fill="#FBD8E7" points="155.904,366.877 137.48,366.877 137.48,359.559 155.904,359.559 150.955,363.218 					"/>
					<path fill="#5D6AB2" d="M221.035,460.064c0.175-0.049,0.355-0.073,0.525-0.131l18.314-6.697c0.15-0.055,0.283-0.138,0.43-0.207
						l-1.961,0.715L196.27,338.58l2.571-0.936l42.06,115.099c2.568-1.509,3.785-4.671,2.729-7.568l-42.848-117.268l-24.731,9.036
						L221.035,460.064z M189.82,340.938l2.578-0.942l42.08,115.164l-2.578,0.946L189.82,340.938z M183.379,343.291l2.575-0.941
						l42.079,115.165l-2.58,0.94L183.379,343.291z"/>
					
						<rect x="204.35" y="339.089" transform="matrix(-0.9391 0.3435 -0.3435 -0.9391 536.4754 705.746)" fill="#54459C" width="2.743" height="122.612"/>
					
						<rect x="210.77" y="336.758" transform="matrix(-0.9392 0.3434 -0.3434 -0.9392 548.0883 699.064)" fill="#54459C" width="2.744" height="122.615"/>
					<path fill="#54459C" d="M196.27,338.58l42.076,115.164l1.959-0.715c0.197-0.09,0.407-0.176,0.596-0.286l-42.06-115.099
						L196.27,338.58z"/>
					<path fill="#2D2C7A" d="M199.061,319.192l-27.006,9.813c-0.154,0.058-0.283,0.141-0.435,0.214
						c-2.964,1.346-4.449,4.749-3.317,7.854l43.18,118.17c1.129,3.089,4.424,4.729,7.541,3.885l-44.983-123.12l0.056-0.021
						l27.439-10.026l0.055-0.019l44.98,123.121c2.93-1.367,4.395-4.74,3.262-7.829l-43.176-118.173
						C205.521,319.955,202.195,318.313,199.061,319.192z"/>
					<polygon fill="#FBD8E7" points="208.947,360.336 191.641,366.658 189.127,359.783 206.438,353.461 203.04,358.596 					"/>
				</g>
			</g>
		</g>
	</g>
</g>
</svg>
