<?xml version="1.0" encoding="utf-8"?>
<!-- Generator: Adobe Illustrator 16.0.0, SVG Export Plug-In . SVG Version: 6.00 Build 0)  -->
<!DOCTYPE svg PUBLIC "-//W3C//DTD SVG 1.1//EN" "http://www.w3.org/Graphics/SVG/1.1/DTD/svg11.dtd">
<svg version="1.1" id="Layer_1" xmlns="http://www.w3.org/2000/svg" xmlns:xlink="http://www.w3.org/1999/xlink" x="0px" y="0px"
	 width="446.051px" height="485.732px" viewBox="0 -0.001 446.051 485.732" enable-background="new 0 -0.001 446.051 485.732"
	 xml:space="preserve">
<g>
	<path fill="#5D6AB2" d="M129.761,164.948c0,0-112.635,10.643-128.156,43.014l21.729,70.508l15.521,44.787l143.232-102.878
		l-50.109-55.43H129.761z"/>
	<g>
		<g>
			<path fill="#FBD8E7" d="M430.336,32.852c-2.081-1.165-4.4-2.188-6.995-3.037c-23.405-7.668-47.641-13.395-71.97-17.125
				c-35.308-5.413-70.474-8.64-106.142-10.224c-23.118-1.024-50.086-6.521-71.908,3.703c-22.991,10.771-31.313,38.576-36.296,61.378
				c-8.216,37.599-7.841,77.882-5.669,116.145c0.208,3.657,2.02,52.651,4.098,52.947l123.813,6.914l122.874-36.457
				c-0.73-12.873-1.256-27.354-1.516-43.657C378.974,60.022,408.03,36.104,430.336,32.852z"/>
			<path fill="#F0AECE" d="M425.528,139.077c1.946-8.354,5.188-16.573,8.099-24.625c8.622-23.854,24.584-66.008-3.29-81.602
				c-22.306,3.252-51.362,27.169-49.712,130.585c0.26,16.304,0.785,30.784,1.516,43.658l38.54,0.573
				C418.43,189.678,421.431,156.656,425.528,139.077z"/>
		</g>
		<path fill="#F4C6DD" d="M158.347,90.533c4.982-22.803,13.305-50.609,36.296-61.379c21.822-10.224,48.79-4.727,71.907-3.703
			c35.67,1.583,70.836,4.811,106.143,10.223c12.322,1.89,24.619,4.295,36.796,7.201c6.894-6.282,14.193-9.122,20.885-10.098
			c-2.083-1.165-4.401-2.188-6.995-3.037c-23.406-7.668-47.642-13.395-71.971-17.126c-35.307-5.413-70.473-8.64-106.143-10.223
			c-23.118-1.024-50.085-6.521-71.907,3.702c-22.991,10.771-31.313,38.577-36.296,61.379c-8.215,37.599-7.841,77.882-5.669,116.145
			c0.208,3.656,2.02,52.65,4.098,52.947l18.727,1.046c-0.842-13.649-1.426-28.953-1.539-30.935
			C150.506,168.416,150.131,128.132,158.347,90.533z"/>
	</g>
	<path fill="#5D6AB2" d="M47.206,261.09v45.318c0,0-0.148,12.86,6.947,15.077l191.792,34.257l18.883-62.71L47.206,261.09z"/>
	<ellipse fill="#54459C" cx="284.971" cy="451.809" rx="9.313" ry="33.922"/>
	<ellipse fill="#54459C" cx="410.615" cy="373.172" rx="9.312" ry="33.922"/>
	<ellipse fill="#54459C" cx="25.665" cy="382.766" rx="9.312" ry="33.921"/>
	<g>
		<g>
			<path fill="#F0AECE" d="M203.518,94.031c-3.56-0.196-6.718,1.851-8.118,4.907c0.71-0.15,1.447-0.219,2.205-0.177
				c4.646,0.256,8.206,4.229,7.95,8.876c-0.059,1.087-0.33,2.11-0.757,3.043c3.636-0.768,6.455-3.886,6.67-7.773
				C211.723,98.259,208.164,94.287,203.518,94.031z"/>
			<path fill="#E995C0" d="M197.605,98.76c-0.758-0.042-1.496,0.027-2.205,0.177c-0.426,0.933-0.696,1.956-0.757,3.042
				c-0.256,4.646,3.304,8.621,7.95,8.877c0.758,0.042,1.496-0.028,2.205-0.177c0.426-0.933,0.697-1.956,0.757-3.043
				C205.81,102.989,202.251,99.017,197.605,98.76z"/>
		</g>
		<g>
			<path fill="#F0AECE" d="M295.162,102.603c-3.56-0.196-6.718,1.852-8.118,4.907c0.71-0.15,1.448-0.219,2.205-0.178
				c4.646,0.256,8.205,4.229,7.95,8.876c-0.059,1.088-0.33,2.111-0.757,3.044c3.636-0.768,6.455-3.886,6.67-7.773
				C303.367,106.832,299.809,102.86,295.162,102.603z"/>
			<path fill="#E995C0" d="M289.249,107.332c-0.757-0.041-1.496,0.028-2.205,0.178c-0.426,0.933-0.696,1.956-0.756,3.042
				c-0.257,4.646,3.303,8.621,7.949,8.877c0.759,0.042,1.496-0.028,2.205-0.177c0.426-0.933,0.697-1.956,0.757-3.044
				C297.454,111.562,293.896,107.59,289.249,107.332z"/>
		</g>
		<g>
			<path fill="#F0AECE" d="M203.518,150.495c-3.56-0.196-6.718,1.852-8.118,4.908c0.71-0.15,1.447-0.22,2.205-0.178
				c4.646,0.256,8.206,4.229,7.95,8.875c-0.059,1.088-0.33,2.111-0.757,3.043c3.636-0.767,6.455-3.885,6.67-7.773
				C211.723,154.725,208.164,150.752,203.518,150.495z"/>
			<path fill="#E995C0" d="M197.605,155.225c-0.758-0.042-1.496,0.028-2.205,0.178c-0.426,0.933-0.696,1.956-0.757,3.042
				c-0.256,4.646,3.304,8.621,7.95,8.876c0.758,0.042,1.496-0.028,2.205-0.178c0.426-0.933,0.697-1.956,0.757-3.043
				C205.81,159.454,202.251,155.483,197.605,155.225z"/>
		</g>
		<g>
			<path fill="#F0AECE" d="M295.162,159.068c-3.56-0.196-6.718,1.852-8.118,4.908c0.71-0.15,1.448-0.22,2.205-0.178
				c4.646,0.256,8.205,4.229,7.95,8.875c-0.059,1.088-0.33,2.111-0.757,3.043c3.636-0.767,6.455-3.885,6.67-7.773
				C303.367,163.298,299.809,159.325,295.162,159.068z"/>
			<path fill="#E995C0" d="M289.249,163.798c-0.757-0.042-1.496,0.028-2.205,0.178c-0.426,0.933-0.696,1.955-0.756,3.042
				c-0.257,4.646,3.303,8.621,7.949,8.876c0.759,0.042,1.496-0.028,2.205-0.178c0.426-0.933,0.697-1.956,0.757-3.043
				C297.454,168.027,293.896,164.055,289.249,163.798z"/>
		</g>
	</g>
	<polygon fill="#948EC5" points="266.564,304.798 296.275,262.36 283.858,249.067 280.312,245.656 133.975,233.385 47.206,269.348 
		47.206,274.531 271.739,308.033 	"/>
	<g>
		<g>
			<path fill="#FFFFFF" d="M185.903,255.808c0,5.833-4.73,10.564-10.564,10.564H121.6c-5.834,0-10.563-4.731-10.563-10.564l0,0
				c0-5.836,11.621-10.564,17.454-10.564h46.849C181.173,245.243,185.903,249.972,185.903,255.808L185.903,255.808z"/>
			<path fill="none" stroke="#F399B2" stroke-width="1.7738" stroke-linecap="round" stroke-miterlimit="10" d="M121.555,248.573
				c0,0-6.185-0.775-10.059,5.511"/>
			<path fill="none" stroke="#F399B2" stroke-width="1.7738" stroke-linecap="round" stroke-miterlimit="10" d="M121.555,248.573
				c0,0-6.185-0.775-10.059,5.511"/>
			<path fill="none" stroke="#F399B2" stroke-width="1.7738" stroke-linecap="round" stroke-miterlimit="10" d="M122.002,253.166
				c0,0-6.185-0.774-10.059,5.512"/>
		</g>
		<path fill="#FFFFFF" d="M305.162,247.931c-3.808,17.133-6.926,28.051-23.495,30.038c-15.698,1.882-48.278,5.75-64.069,5.752
			c-11.118,0.001-22.376,0.414-33.452-0.74c-10.743-1.122-21.529-4.029-29.957-11.093c-4.76-3.988-9.166-10.893-9.165-17.379
			l0.001-14.631c0-19.55,11.008-35.399,24.588-35.399c0,0,79.143-2.639,79.33-2.639c17.231-0.029,43.037,0.492,52.688,17.869
			C306.359,228.219,307.256,238.512,305.162,247.931z"/>
		<path fill="#FFFFFF" d="M169.023,157.745c0-3.583,0.36-7.08,1.037-10.463c-2.408-0.258-4.862-0.392-7.353-0.392
			c-19.674,0-37.084,8.281-47.721,20.985c-7.23,1.887-15.406,8.724-21.452,18.811c-9.203,15.352-9.989,32.421-1.756,38.122
			c5.113,3.54,12.5,1.862,19.57-3.594c9.991,15.45,29.243,25.914,51.358,25.914c22.114,0,41.367-10.464,51.357-25.914
			c7.07,5.456,14.458,7.134,19.57,3.594c4.394-3.042,6.217-9.325,5.563-16.855c-5.375,1.834-11.131,2.842-17.127,2.842
			C192.774,210.795,169.023,187.044,169.023,157.745z"/>
		<path fill="#F8C5D4" d="M210.427,167.875c-9.291-11.097-23.748-18.817-40.367-20.593c-0.677,3.383-1.037,6.88-1.037,10.463
			c0,29.299,23.75,53.049,53.049,53.049c5.996,0,11.752-1.008,17.127-2.842c-0.57-6.578-3.029-14.108-7.32-21.267
			C225.834,176.598,217.658,169.762,210.427,167.875z"/>
		<path fill="#F399B2" d="M185.374,192.723c0.979-0.318,1.802-0.959,2.314-2.126c0.873-1.989-0.17-4.34-1.442-5.897
			c-1.343-1.645-3.023-3.125-5.258-3.12c-2.753,0.009-5.877,1.91-7.153,4.35c-1.774,3.392,2.193,6.176,5.14,6.561
			C180.905,192.74,183.441,193.356,185.374,192.723z"/>
		<circle fill="#FFFFFF" cx="180.669" cy="183.942" r="1.419"/>
		<path fill="#F399B2" d="M140.981,192.723c-0.979-0.318-1.802-0.959-2.314-2.126c-0.873-1.989,0.17-4.34,1.441-5.897
			c1.343-1.645,3.024-3.125,5.257-3.12c2.754,0.009,5.878,1.91,7.155,4.35c1.774,3.392-2.194,6.176-5.141,6.561
			C145.45,192.74,142.914,193.356,140.981,192.723z"/>
		<circle fill="#FFFFFF" cx="145.684" cy="183.942" r="1.419"/>
		<g>
			<g>
				<path fill="#F399B2" d="M157.426,201.265v2.872c0,2.948,2.39,5.339,5.339,5.339c2.95,0,5.339-2.39,5.339-5.339v-2.612
					l-5.625-3.216L157.426,201.265z"/>
			</g>
			
				<line fill="none" stroke="#FFFFFF" stroke-width="0.8869" stroke-miterlimit="10" x1="162.708" y1="196.155" x2="162.708" y2="207.753"/>
		</g>
		<g>
			<path fill="#F399B2" d="M162.383,198.602c-4.168,0-5.873-1.432-3.789-3.181l0.439-0.37c2.084-1.749,5.494-1.749,7.579,0
				l0.438,0.37c2.085,1.75,0.381,3.181-3.788,3.181H162.383z"/>
			<path fill="none" stroke="#F399B2" stroke-width="1.7738" stroke-linecap="round" stroke-miterlimit="10" d="M162.362,196.558
				c0,3.046-4.569,5.511-10.218,5.511"/>
			<path fill="none" stroke="#F399B2" stroke-width="1.7738" stroke-linecap="round" stroke-miterlimit="10" d="M162.765,196.558
				c0,3.046,4.57,5.511,10.219,5.511"/>
		</g>
		<g>
			<path fill="#FFFFFF" d="M215.527,269.356c0,5.833-4.729,10.563-10.563,10.563h-53.737c-5.835,0-10.564-4.729-10.564-10.563l0,0
				c0-5.833,11.621-10.563,17.454-10.563h46.847C210.798,258.793,215.527,263.523,215.527,269.356L215.527,269.356z"/>
			<path fill="none" stroke="#F399B2" stroke-width="1.7738" stroke-linecap="round" stroke-miterlimit="10" d="M151.18,262.123
				c0,0-6.186-0.774-10.059,5.511"/>
			<path fill="none" stroke="#F399B2" stroke-width="1.7738" stroke-linecap="round" stroke-miterlimit="10" d="M151.18,262.123
				c0,0-6.186-0.774-10.059,5.511"/>
			<path fill="none" stroke="#F399B2" stroke-width="1.7738" stroke-linecap="round" stroke-miterlimit="10" d="M151.627,266.715
				c0,0-6.184-0.776-10.059,5.511"/>
		</g>
		<path fill="none" stroke="#F399B2" stroke-width="1.7738" stroke-linecap="round" stroke-miterlimit="10" d="M250.046,265.224
			c0,0-6.186-0.776-10.06,5.511"/>
		<g>
			<path fill="#FFFFFF" d="M313.089,263.442c-0.905-3.166-1.943-6.318-2.15-9.384c-0.548-8.149,0.929-16.975-4.121-24.07
				c-4.194-5.894-11.188-9.547-18.433-9.547c-12.464,0-22.563,10.101-22.563,22.563v16.879c0,0.677,0.035,1.348,0.094,2.009h-8.936
				c-5.832,0-17.453,4.731-17.453,10.564c0,5.834,4.729,10.564,10.563,10.564c0,0,53.657,0,53.739,0
				c4.048,0,7.563-2.343,9.367-5.878C315.45,272.715,314.411,268.069,313.089,263.442z"/>
			<path fill="none" stroke="#F399B2" stroke-width="1.7738" stroke-linecap="round" stroke-miterlimit="10" d="M250.046,265.224
				c0,0-6.186-0.776-10.06,5.511"/>
			<path fill="none" stroke="#F399B2" stroke-width="1.7738" stroke-linecap="round" stroke-miterlimit="10" d="M250.491,269.816
				c0,0-6.184-0.775-10.059,5.511"/>
		</g>
	</g>
	<g>
		<path fill="#5D6AB2" d="M416.744,196.876c0,0-131.26-21.283-157.866,46.71v71.542l2.956,76.863l21.285,40.797l0.741,5.84
			c0,0,104.206-42.35,136.133-74.721c0-1.33-3.104-113.965,5.322-154.319C425.316,209.589,424.579,196.138,416.744,196.876z"/>
		<path fill="#FBD8E7" d="M11.169,195.465c0.45-0.286,0.921-0.553,1.415-0.804c7.566-3.826,19.34,0.638,24.654,6.598
			c12.635,14.171,9.797,36.274,10.443,53.749c0.634,17.132,1.477,34.278,2.51,51.392c0.044,0.727,0.106,11.598,0.563,11.685
			c0.017,0.002,190.385,36.066,190.385,36.066s-14.19-144.267,51.439-125.347c4.09,1.179,7.866,6.634,9.793,10.034
			c6.831,12.042,2.385,23.938-3.094,35.523c-8.232,17.414-10.1,36.886-11.634,55.838c-1.563,19.299-2.314,38.662-0.844,57.998
			c0.854,11.232,2.325,22.412,5.041,33.358c0,0,2.66,14.634-7.539,16.852c-10.199,2.217-255.867-48.779-255.867-48.779
			s-11.973,2.218-15.077-22.616c-3.104-24.833,2.661-70.064-2.217-100.218C7.935,246.979-12.256,210.36,11.169,195.465z"/>
		<path fill="#F0AECE" d="M19.546,207.354c12.634,14.171,9.796,36.274,10.442,53.749c0.314,8.454,0.615,16.906,0.979,25.356
			c0.388,9.061,0.992,18.059,2.035,27.061c0.206,1.786,0.132,3.648,0.896,5.318c4.318,9.445,16.808,8.744,25.394,10.31
			c4.042,0.734,8.074,1.535,12.109,2.302c8.141,1.543,16.281,3.086,24.422,4.63c8.721,1.653,17.441,3.308,26.161,4.96
			c9.23,1.751,18.461,3.501,27.694,5.252c8.841,1.677,17.683,3.353,26.525,5.029c8.125,1.541,16.25,3.082,24.375,4.622
			c6.636,1.258,13.274,2.517,19.911,3.774c4.797,0.909,9.596,1.82,14.394,2.73c2.076,0.393,4.152,0.786,6.228,1.181
			c0.041,0.008,0.511,0.079,0.512,0.097c0-0.005-0.144-3.524-0.483-9.573c-47.778-9.052-190.327-36.179-190.34-36.18
			c-0.458-0.086-0.519-10.957-0.563-11.686c-1.033-17.112-1.875-34.26-2.51-51.391c-0.646-17.475,2.192-39.578-10.442-53.749
			c-5.314-5.96-17.089-10.424-24.654-6.598c-0.494,0.251-0.965,0.518-1.415,0.803c-2.096,1.333-3.837,2.843-5.278,4.496
			C11.257,200.982,16.478,203.914,19.546,207.354z"/>
		<path fill="#F0AECE" d="M299.281,274.307c5.477-11.586,9.924-23.482,3.093-35.525c-1.927-3.398-5.703-8.853-9.794-10.033
			c-12.273-3.539-21.757-1.367-29.063,4.5c3.482-0.012,7.25,0.534,11.325,1.708c4.09,1.18,7.866,6.634,9.794,10.033
			c6.831,12.042,2.383,23.938-3.094,35.525c-8.233,17.414-10.101,36.886-11.635,55.838c-1.563,19.297-2.314,38.662-0.843,57.997
			c0.854,11.233,2.324,22.411,5.04,33.358c0,0,0.917,5.06-0.398,9.679c5.789,0.835,9.518,1.199,10.598,0.965
			c10.199-2.218,7.539-16.852,7.539-16.852c-2.717-10.948-4.188-22.126-5.041-33.358c-1.472-19.336-0.721-38.699,0.843-57.998
			C289.182,311.193,291.048,291.721,299.281,274.307z"/>
	</g>
</g>
</svg>
