<?xml version="1.0" encoding="utf-8"?>
<!-- Generator: Adobe Illustrator 16.0.0, SVG Export Plug-In . SVG Version: 6.00 Build 0)  -->
<!DOCTYPE svg PUBLIC "-//W3C//DTD SVG 1.1//EN" "http://www.w3.org/Graphics/SVG/1.1/DTD/svg11.dtd">
<svg version="1.1" id="Layer_1" xmlns="http://www.w3.org/2000/svg" xmlns:xlink="http://www.w3.org/1999/xlink" x="0px" y="0px"
	 width="502.94px" height="547.68px" viewBox="0 0 502.94 547.68" enable-background="new 0 0 502.94 547.68" xml:space="preserve">
<g>
	<path fill="#5D6AB2" d="M146.311,185.986c0,0-127,12-144.5,48.5l24.5,79.5l17.5,50.5l161.5-116l-56.5-62.5H146.311z"/>
	<g>
		<g>
			<path fill="#FBD8E7" d="M485.221,37.042c-2.348-1.313-4.962-2.467-7.887-3.425c-26.391-8.646-53.717-15.102-81.149-19.309
				c-39.811-6.104-79.461-9.742-119.68-11.527c-26.066-1.156-56.473-7.354-81.079,4.174c-25.923,12.145-35.307,43.496-40.925,69.207
				c-9.263,42.395-8.841,87.816-6.392,130.957c0.234,4.123,2.277,59.367,4.62,59.701l139.603,7.795l138.545-41.107
				c-0.824-14.515-1.416-30.842-1.709-49.225C427.308,67.677,460.069,40.709,485.221,37.042z"/>
			<path fill="#F0AECE" d="M479.799,156.816c2.195-9.42,5.849-18.688,9.131-27.766c9.723-26.896,27.721-74.427-3.709-92.009
				c-25.151,3.667-57.913,30.635-56.053,147.241c0.293,18.383,0.885,34.71,1.709,49.225l43.455,0.646
				C471.796,213.869,475.18,176.637,479.799,156.816z"/>
		</g>
		<path fill="#F4C6DD" d="M178.542,102.079c5.618-25.711,15.002-57.063,40.925-69.207c24.606-11.527,55.013-5.33,81.079-4.174
			c40.219,1.785,79.869,5.424,119.68,11.527c13.893,2.131,27.758,4.843,41.488,8.119c7.774-7.084,16.003-10.285,23.548-11.386
			c-2.348-1.313-4.962-2.467-7.887-3.425c-26.391-8.646-53.717-15.102-81.149-19.309c-39.811-6.104-79.461-9.742-119.68-11.527
			c-26.066-1.156-56.473-7.354-81.079,4.174c-25.923,12.145-35.307,43.496-40.925,69.207c-9.263,42.395-8.841,87.816-6.392,130.957
			c0.234,4.123,2.277,59.367,4.62,59.701l21.115,1.179c-0.949-15.389-1.608-32.645-1.735-34.88
			C169.701,189.896,169.279,144.474,178.542,102.079z"/>
	</g>
	<path fill="#5D6AB2" d="M53.227,294.389v51.098c0,0-0.167,14.5,7.833,17l216.254,38.626l21.292-70.708L53.227,294.389z"/>
	<ellipse fill="#54459C" cx="321.316" cy="509.432" rx="10.5" ry="38.248"/>
	<ellipse fill="#54459C" cx="462.983" cy="420.766" rx="10.5" ry="38.248"/>
	<ellipse fill="#54459C" cx="28.938" cy="431.584" rx="10.5" ry="38.248"/>
	<g>
		<g>
			<path fill="#F0AECE" d="M229.474,106.023c-4.014-0.221-7.574,2.088-9.153,5.533c0.8-0.169,1.631-0.247,2.486-0.2
				c5.239,0.289,9.252,4.768,8.964,10.008c-0.067,1.226-0.372,2.379-0.854,3.431c4.1-0.865,7.279-4.381,7.521-8.764
				C238.726,110.791,234.713,106.313,229.474,106.023z"/>
			<path fill="#E995C0" d="M222.807,111.356c-0.855-0.047-1.687,0.031-2.486,0.2c-0.481,1.052-0.786,2.205-0.854,3.431
				c-0.288,5.238,3.726,9.72,8.964,10.008c0.855,0.047,1.687-0.031,2.486-0.2c0.481-1.052,0.786-2.205,0.854-3.431
				C232.059,116.124,228.046,111.646,222.807,111.356z"/>
		</g>
		<g>
			<path fill="#F0AECE" d="M332.807,115.689c-4.014-0.221-7.574,2.088-9.153,5.533c0.8-0.169,1.631-0.247,2.486-0.2
				c5.239,0.289,9.252,4.768,8.964,10.008c-0.067,1.226-0.372,2.379-0.854,3.431c4.1-0.865,7.279-4.381,7.521-8.764
				C342.059,120.457,338.046,115.979,332.807,115.689z"/>
			<path fill="#E995C0" d="M326.14,121.022c-0.855-0.047-1.687,0.031-2.486,0.2c-0.481,1.052-0.786,2.205-0.854,3.431
				c-0.288,5.238,3.726,9.72,8.964,10.008c0.855,0.047,1.687-0.031,2.486-0.2c0.481-1.052,0.786-2.205,0.854-3.431
				C335.392,125.79,331.379,121.312,326.14,121.022z"/>
		</g>
		<g>
			<path fill="#F0AECE" d="M229.474,169.69c-4.014-0.221-7.574,2.088-9.153,5.533c0.8-0.169,1.631-0.247,2.486-0.2
				c5.239,0.289,9.252,4.768,8.964,10.008c-0.067,1.226-0.372,2.379-0.854,3.431c4.1-0.865,7.279-4.381,7.521-8.764
				C238.726,174.458,234.713,169.979,229.474,169.69z"/>
			<path fill="#E995C0" d="M222.807,175.023c-0.855-0.047-1.687,0.031-2.486,0.2c-0.481,1.052-0.786,2.205-0.854,3.431
				c-0.288,5.238,3.726,9.72,8.964,10.008c0.855,0.047,1.687-0.031,2.486-0.2c0.481-1.052,0.786-2.205,0.854-3.431
				C232.059,179.791,228.046,175.313,222.807,175.023z"/>
		</g>
		<g>
			<path fill="#F0AECE" d="M332.807,179.356c-4.014-0.221-7.574,2.088-9.153,5.533c0.8-0.169,1.631-0.247,2.486-0.2
				c5.239,0.289,9.252,4.768,8.964,10.008c-0.067,1.226-0.372,2.379-0.854,3.431c4.1-0.865,7.279-4.381,7.521-8.764
				C342.059,184.124,338.046,179.646,332.807,179.356z"/>
			<path fill="#E995C0" d="M326.14,184.689c-0.855-0.047-1.687,0.031-2.486,0.2c-0.481,1.052-0.786,2.205-0.854,3.431
				c-0.288,5.238,3.726,9.72,8.964,10.008c0.855,0.047,1.687-0.031,2.486-0.2c0.481-1.052,0.786-2.205,0.854-3.431
				C335.392,189.457,331.379,184.979,326.14,184.689z"/>
		</g>
	</g>
	<polygon fill="#948EC5" points="300.561,343.672 334.061,295.821 320.061,280.832 316.063,276.987 151.062,263.152 53.227,303.701 
		53.227,309.545 306.396,347.32 	"/>
	<g>
		<g>
			<path fill="#FFFFFF" d="M209.613,288.434c0,6.577-5.333,11.911-11.912,11.911h-60.592c-6.578,0-11.911-5.334-11.911-11.911l0,0
				c0-6.58,13.103-11.911,19.68-11.911h52.823C204.28,276.522,209.613,281.854,209.613,288.434L209.613,288.434z"/>
			<path fill="none" stroke="#F399B2" stroke-width="2" stroke-linecap="round" stroke-miterlimit="10" d="M137.058,280.277
				c0,0-6.974-0.875-11.342,6.213"/>
			<path fill="none" stroke="#F399B2" stroke-width="2" stroke-linecap="round" stroke-miterlimit="10" d="M137.058,280.277
				c0,0-6.974-0.875-11.342,6.213"/>
			<path fill="none" stroke="#F399B2" stroke-width="2" stroke-linecap="round" stroke-miterlimit="10" d="M137.562,285.454
				c0,0-6.973-0.873-11.342,6.215"/>
		</g>
		<path fill="#FFFFFF" d="M344.082,279.552c-4.294,19.32-7.809,31.63-26.492,33.868c-17.7,2.122-54.434,6.485-72.24,6.487
			c-12.535,0.001-25.23,0.468-37.719-0.835c-12.112-1.265-24.274-4.544-33.777-12.508c-5.367-4.497-10.335-12.282-10.334-19.596
			l0.001-16.497c0-22.044,12.412-39.914,27.723-39.914c0,0,89.237-2.976,89.448-2.976c19.43-0.032,48.527,0.555,59.409,20.148
			C345.431,257.326,346.443,268.932,344.082,279.552z"/>
		<path fill="#FFFFFF" d="M190.58,177.864c0-4.04,0.406-7.983,1.169-11.798c-2.715-0.291-5.482-0.442-8.29-0.442
			c-22.183,0-41.813,9.337-53.807,23.661c-8.153,2.128-17.371,9.836-24.188,21.21c-10.376,17.311-11.263,36.557-1.979,42.985
			c5.764,3.991,14.094,2.099,22.065-4.053c11.266,17.42,32.973,29.219,57.908,29.219s46.643-11.799,57.907-29.219
			c7.972,6.151,16.302,8.044,22.066,4.053c4.955-3.431,7.01-10.515,6.273-19.005c-6.06,2.067-12.55,3.204-19.311,3.204
			C217.36,237.68,190.58,210.9,190.58,177.864z"/>
		<path fill="#F8C5D4" d="M237.265,189.285c-10.476-12.511-26.776-21.216-45.516-23.219c-0.763,3.814-1.169,7.758-1.169,11.798
			c0,33.036,26.78,59.815,59.815,59.815c6.761,0,13.251-1.137,19.311-3.204c-0.642-7.417-3.415-15.908-8.254-23.98
			C254.636,199.121,245.418,191.413,237.265,189.285z"/>
		<path fill="#F399B2" d="M209.016,217.303c1.104-0.359,2.032-1.081,2.609-2.397c0.984-2.244-0.192-4.894-1.626-6.65
			c-1.514-1.854-3.408-3.523-5.928-3.517c-3.104,0.009-6.626,2.153-8.066,4.905c-2,3.824,2.473,6.963,5.796,7.396
			C203.977,217.323,206.836,218.017,209.016,217.303z"/>
		<circle fill="#FFFFFF" cx="203.711" cy="207.402" r="1.6"/>
		<path fill="#F399B2" d="M158.961,217.303c-1.104-0.359-2.032-1.081-2.609-2.397c-0.984-2.244,0.192-4.894,1.625-6.65
			c1.514-1.854,3.409-3.523,5.928-3.517c3.105,0.009,6.627,2.153,8.067,4.905c2.001,3.824-2.474,6.963-5.797,7.396
			C164,217.323,161.141,218.017,158.961,217.303z"/>
		<circle fill="#FFFFFF" cx="164.265" cy="207.402" r="1.6"/>
		<g>
			<g>
				<path fill="#F399B2" d="M177.503,226.934v3.238c0,3.323,2.695,6.02,6.021,6.02s6.02-2.696,6.02-6.02v-2.945l-6.343-3.626
					L177.503,226.934z"/>
			</g>
			<line fill="none" stroke="#FFFFFF" stroke-miterlimit="10" x1="183.459" y1="221.172" x2="183.459" y2="234.249"/>
		</g>
		<g>
			<path fill="#F399B2" d="M183.093,223.932c-4.699,0-6.622-1.614-4.272-3.587l0.495-0.417c2.35-1.973,6.195-1.973,8.545,0
				l0.495,0.417c2.35,1.973,0.428,3.587-4.272,3.587H183.093z"/>
			<path fill="none" stroke="#F399B2" stroke-width="2" stroke-linecap="round" stroke-miterlimit="10" d="M183.07,221.627
				c0,3.435-5.153,6.214-11.522,6.214"/>
			<path fill="none" stroke="#F399B2" stroke-width="2" stroke-linecap="round" stroke-miterlimit="10" d="M183.524,221.627
				c0,3.435,5.153,6.214,11.522,6.214"/>
		</g>
		<g>
			<path fill="#FFFFFF" d="M243.015,303.71c0,6.578-5.332,11.911-11.911,11.911h-60.591c-6.579,0-11.911-5.333-11.911-11.911l0,0
				c0-6.578,13.102-11.911,19.68-11.911h52.822C237.683,291.799,243.015,297.132,243.015,303.71L243.015,303.71z"/>
			<path fill="none" stroke="#F399B2" stroke-width="2" stroke-linecap="round" stroke-miterlimit="10" d="M170.461,295.554
				c0,0-6.974-0.873-11.342,6.215"/>
			<path fill="none" stroke="#F399B2" stroke-width="2" stroke-linecap="round" stroke-miterlimit="10" d="M170.461,295.554
				c0,0-6.974-0.873-11.342,6.215"/>
			<path fill="none" stroke="#F399B2" stroke-width="2" stroke-linecap="round" stroke-miterlimit="10" d="M170.965,300.732
				c0,0-6.973-0.875-11.342,6.214"/>
		</g>
		<path fill="none" stroke="#F399B2" stroke-width="2" stroke-linecap="round" stroke-miterlimit="10" d="M281.936,299.05
			c0,0-6.975-0.875-11.343,6.214"/>
		<g>
			<path fill="#FFFFFF" d="M353.02,297.041c-1.021-3.57-2.191-7.125-2.425-10.581c-0.618-9.188,1.048-19.139-4.646-27.139
				c-4.73-6.646-12.616-10.765-20.784-10.765c-14.053,0-25.441,11.389-25.441,25.439v19.033c0,0.763,0.04,1.519,0.105,2.264h-10.074
				c-6.577,0-19.68,5.334-19.68,11.913c0,6.578,5.333,11.911,11.911,11.911c0,0,60.5,0,60.591,0c4.566,0,8.529-2.642,10.563-6.628
				C355.683,307.498,354.511,302.258,353.02,297.041z"/>
			<path fill="none" stroke="#F399B2" stroke-width="2" stroke-linecap="round" stroke-miterlimit="10" d="M281.936,299.05
				c0,0-6.975-0.875-11.343,6.214"/>
			<path fill="none" stroke="#F399B2" stroke-width="2" stroke-linecap="round" stroke-miterlimit="10" d="M282.438,304.228
				c0,0-6.973-0.874-11.342,6.215"/>
		</g>
	</g>
	<g>
		<path fill="#5D6AB2" d="M469.895,221.986c0,0-148-23.998-178,52.668v80.666l3.333,86.666l24,46l0.836,6.585
			c0,0,117.496-47.751,153.496-84.251c0-1.5-3.5-128.5,6-174C479.56,236.32,478.729,221.154,469.895,221.986z"/>
		<path fill="#FBD8E7" d="M12.594,220.395c0.507-0.322,1.038-0.623,1.595-0.906c8.53-4.314,21.806,0.719,27.798,7.439
			c14.246,15.979,11.046,40.9,11.775,60.604c0.715,19.316,1.665,38.65,2.83,57.945c0.05,0.82,0.119,13.078,0.635,13.176
			c0.019,0.002,214.667,40.666,214.667,40.666s-16-162.666,57.999-141.334c4.612,1.33,8.87,7.48,11.043,11.313
			c7.702,13.578,2.687,26.992-3.489,40.055c-9.283,19.635-11.388,41.59-13.118,62.959c-1.762,21.76-2.61,43.594-0.951,65.395
			c0.963,12.666,2.621,25.27,5.684,37.613c0,0,3,16.5-8.5,19s-288.5-55-288.5-55s-13.5,2.5-17-25.5s3-79-2.5-113
			C8.947,278.479-13.819,237.189,12.594,220.395z"/>
		<path fill="#F0AECE" d="M22.038,233.8c14.246,15.979,11.046,40.9,11.775,60.604c0.353,9.532,0.693,19.062,1.103,28.591
			c0.438,10.215,1.119,20.361,2.295,30.511c0.233,2.014,0.149,4.114,1.01,5.996c4.869,10.651,18.951,9.86,28.633,11.624
			c4.557,0.83,9.103,1.732,13.653,2.596c9.18,1.74,18.358,3.48,27.537,5.221c9.833,1.864,19.665,3.729,29.497,5.593
			c10.408,1.974,20.816,3.947,31.226,5.921c9.969,1.89,19.938,3.78,29.908,5.671c9.161,1.737,18.322,3.474,27.483,5.211
			c7.483,1.419,14.968,2.838,22.451,4.257c5.409,1.025,10.819,2.052,16.229,3.077c2.341,0.444,4.682,0.888,7.023,1.332
			c0.046,0.009,0.576,0.09,0.577,0.109c0-0.005-0.162-3.974-0.545-10.794c-53.872-10.206-214.601-40.792-214.615-40.794
			c-0.516-0.098-0.585-12.355-0.635-13.176c-1.165-19.295-2.115-38.629-2.83-57.945c-0.729-19.703,2.471-44.625-11.775-60.604
			c-5.992-6.721-19.268-11.754-27.798-7.439c-0.557,0.283-1.088,0.584-1.595,0.906c-2.363,1.503-4.326,3.205-5.951,5.068
			C12.693,226.616,18.579,229.921,22.038,233.8z"/>
		<path fill="#F0AECE" d="M337.45,309.292c6.176-13.063,11.191-26.477,3.489-40.055c-2.173-3.832-6.431-9.982-11.043-11.313
			c-13.84-3.99-24.531-1.542-32.769,5.073c3.926-0.012,8.174,0.603,12.769,1.927c4.612,1.33,8.87,7.48,11.043,11.313
			c7.702,13.578,2.687,26.992-3.489,40.055c-9.283,19.635-11.388,41.59-13.118,62.959c-1.762,21.76-2.61,43.594-0.951,65.395
			c0.963,12.666,2.621,25.27,5.684,37.613c0,0,1.034,5.704-0.449,10.913c6.527,0.941,10.731,1.352,11.949,1.087
			c11.5-2.5,8.5-19,8.5-19c-3.063-12.344-4.721-24.947-5.684-37.613c-1.659-21.801-0.811-43.635,0.951-65.395
			C326.063,350.882,328.167,328.927,337.45,309.292z"/>
	</g>
</g>
</svg>
