<?xml version="1.0" encoding="utf-8"?>
<!-- Generator: Adobe Illustrator 16.0.0, SVG Export Plug-In . SVG Version: 6.00 Build 0)  -->
<!DOCTYPE svg PUBLIC "-//W3C//DTD SVG 1.1//EN" "http://www.w3.org/Graphics/SVG/1.1/DTD/svg11.dtd">
<svg version="1.1" id="Layer_1" xmlns="http://www.w3.org/2000/svg" xmlns:xlink="http://www.w3.org/1999/xlink" x="0px" y="0px"
	 width="100.176px" height="145.733px" viewBox="0 0 100.176 145.733" enable-background="new 0 0 100.176 145.733"
	 xml:space="preserve">
<g>
	<path fill="#884E9F" d="M2.528,136.865V17.268C0.934,19.313,0,21.769,0,24.415v111.402c0,7.12,6.727,9.481,15.025,9.481h50.33
		c2.771-1.732,5.036-2.753,6.957-3.313H11.918C4.235,140.706,2.528,136.865,2.528,136.865z"/>
	<path fill="#8469AE" d="M65.355,11.519H32.918L32.333,0.563V0.189L8.861,12.663c-2.581,1-4.774,2.606-6.333,4.605v119.596
		c0,0,1.707,3.842,9.391,5.122h60.394c10.153-2.967,10.579,7.031,23.858-5.954V16.092C80.378,17.293,73.652,11.519,65.355,11.519z"
		/>
	<g>
		<g>
			<path fill="#FBD8E7" d="M98.909,7.754H34.111c0,0-5.405,0.283-5.975,10.243v126.381c2.012,0.858,4.271,1.354,6.67,1.354h50.33
				c8.3,0,15.026-5.773,15.026-12.896V12.896C100.16,11.067,99.709,9.329,98.909,7.754z"/>
			<path fill="#F0AECE" d="M34.112,7.754H98.91C96.595,3.191,91.303,0,85.135,0h-50.33c-8.296,0-15.024,5.774-15.024,12.896v119.94
				c0,5.064,3.408,9.433,8.354,11.541V17.996C28.707,8.037,34.112,7.754,34.112,7.754z"/>
		</g>
		<path fill="#FCE5EB" d="M100.175,102.194c0,1.593-1.291,2.881-2.882,2.881l0,0c-1.593,0-2.882-1.288-2.882-2.881V24.941
			c0-1.591,1.289-2.882,2.882-2.882l0,0c1.591,0,2.882,1.291,2.882,2.882V102.194z"/>
		<circle fill="#FCE5EB" cx="97.045" cy="114.321" r="3.13"/>
	</g>
	<g>
		<path fill="#DB4372" d="M81.275,133.342c0-0.706-0.248-1.345-0.648-1.865v-1.195h-2.723v0.033
			c-1.542,0.158-2.747,1.443-2.747,3.027c0,1.581,1.205,2.867,2.747,3.025v0.05h2.723v-1.213
			C81.027,134.688,81.275,134.046,81.275,133.342z"/>
		<circle fill="#F37B8D" cx="80.431" cy="133.342" r="3.059"/>
	</g>
	<g>
		<path fill="#633695" d="M6.071,118.226c0,0.825-0.633,1.494-1.416,1.494l0,0c-0.782,0-1.417-0.669-1.417-1.494V39.692
			c0-0.826,0.635-1.494,1.417-1.494l0,0c0.784,0,1.416,0.668,1.416,1.494V118.226z"/>
		<path fill="#633695" d="M11.335,120.624c0,0.877-0.634,1.586-1.416,1.586l0,0c-0.784,0-1.417-0.709-1.417-1.586V37.292
			c0-0.874,0.633-1.583,1.417-1.583l0,0c0.782,0,1.416,0.708,1.416,1.583V120.624z"/>
		<path fill="#633695" d="M17.002,123.503c0,0.935-0.633,1.693-1.417,1.693l0,0c-0.782,0-1.415-0.76-1.415-1.693V34.415
			c0-0.936,0.634-1.693,1.415-1.693l0,0c0.784,0,1.417,0.758,1.417,1.693V123.503z"/>
	</g>
	<g>
		<circle fill="#4769B2" cx="62.093" cy="43.424" r="20.907"/>
		<g>
			<g>
				<g>
					<defs>
						<circle id="SVGID_1_" cx="62.115" cy="43.407" r="20.907"/>
					</defs>
					<clipPath id="SVGID_2_">
						<use xlink:href="#SVGID_1_"  overflow="visible"/>
					</clipPath>
					<g clip-path="url(#SVGID_2_)">
						
							<line fill="none" stroke="#3F3996" stroke-width="0.8537" stroke-miterlimit="10" x1="36.976" y1="25.878" x2="83.926" y2="25.878"/>
						
							<line fill="none" stroke="#3F3996" stroke-width="0.8537" stroke-miterlimit="10" x1="36.976" y1="30.573" x2="83.926" y2="30.573"/>
						
							<line fill="none" stroke="#3F3996" stroke-width="0.8537" stroke-miterlimit="10" x1="36.976" y1="35.268" x2="83.926" y2="35.268"/>
						
							<line fill="none" stroke="#3F3996" stroke-width="0.8537" stroke-miterlimit="10" x1="36.976" y1="39.963" x2="83.926" y2="39.963"/>
						
							<line fill="none" stroke="#3F3996" stroke-width="0.8537" stroke-miterlimit="10" x1="36.976" y1="44.658" x2="83.926" y2="44.658"/>
						
							<line fill="none" stroke="#3F3996" stroke-width="0.8537" stroke-miterlimit="10" x1="36.976" y1="49.354" x2="83.926" y2="49.354"/>
						
							<line fill="none" stroke="#3F3996" stroke-width="0.8537" stroke-miterlimit="10" x1="36.976" y1="54.048" x2="83.926" y2="54.048"/>
						
							<line fill="none" stroke="#3F3996" stroke-width="0.8537" stroke-miterlimit="10" x1="36.976" y1="58.745" x2="83.926" y2="58.745"/>
						
							<line fill="none" stroke="#3F3996" stroke-width="0.8537" stroke-miterlimit="10" x1="36.976" y1="63.439" x2="83.926" y2="63.439"/>
					</g>
				</g>
			</g>
			<g>
				<g>
					<defs>
						<circle id="SVGID_3_" cx="62.115" cy="43.407" r="20.907"/>
					</defs>
					<clipPath id="SVGID_4_">
						<use xlink:href="#SVGID_3_"  overflow="visible"/>
					</clipPath>
					<g clip-path="url(#SVGID_4_)">
						
							<line fill="none" stroke="#3F3996" stroke-width="0.8537" stroke-miterlimit="10" x1="80.797" y1="21.183" x2="80.797" y2="68.134"/>
						
							<line fill="none" stroke="#3F3996" stroke-width="0.8537" stroke-miterlimit="10" x1="76.102" y1="21.183" x2="76.102" y2="68.134"/>
						
							<line fill="none" stroke="#3F3996" stroke-width="0.8537" stroke-miterlimit="10" x1="71.406" y1="21.183" x2="71.406" y2="68.134"/>
						
							<line fill="none" stroke="#3F3996" stroke-width="0.8537" stroke-miterlimit="10" x1="66.713" y1="21.183" x2="66.713" y2="68.134"/>
						
							<line fill="none" stroke="#3F3996" stroke-width="0.8537" stroke-miterlimit="10" x1="62.018" y1="21.183" x2="62.018" y2="68.134"/>
						
							<line fill="none" stroke="#3F3996" stroke-width="0.8537" stroke-miterlimit="10" x1="57.323" y1="21.183" x2="57.323" y2="68.134"/>
						
							<line fill="none" stroke="#3F3996" stroke-width="0.8537" stroke-miterlimit="10" x1="52.628" y1="21.183" x2="52.628" y2="68.134"/>
						
							<line fill="none" stroke="#3F3996" stroke-width="0.8537" stroke-miterlimit="10" x1="47.932" y1="21.183" x2="47.932" y2="68.134"/>
						
							<line fill="none" stroke="#3F3996" stroke-width="0.8537" stroke-miterlimit="10" x1="43.238" y1="21.183" x2="43.238" y2="68.134"/>
					</g>
				</g>
			</g>
		</g>
	</g>
	<g>
		<circle fill="#4769B2" cx="62.093" cy="98.909" r="20.908"/>
		<g>
			<g>
				<g>
					<defs>
						<circle id="SVGID_5_" cx="62.115" cy="98.893" r="20.909"/>
					</defs>
					<clipPath id="SVGID_6_">
						<use xlink:href="#SVGID_5_"  overflow="visible"/>
					</clipPath>
					<g clip-path="url(#SVGID_6_)">
						
							<line fill="none" stroke="#3F3996" stroke-width="0.8537" stroke-miterlimit="10" x1="36.976" y1="81.365" x2="83.926" y2="81.365"/>
						
							<line fill="none" stroke="#3F3996" stroke-width="0.8537" stroke-miterlimit="10" x1="36.976" y1="86.06" x2="83.926" y2="86.06"/>
						
							<line fill="none" stroke="#3F3996" stroke-width="0.8537" stroke-miterlimit="10" x1="36.976" y1="90.754" x2="83.926" y2="90.754"/>
						
							<line fill="none" stroke="#3F3996" stroke-width="0.8537" stroke-miterlimit="10" x1="36.976" y1="95.449" x2="83.926" y2="95.449"/>
						
							<line fill="none" stroke="#3F3996" stroke-width="0.8537" stroke-miterlimit="10" x1="36.976" y1="100.145" x2="83.926" y2="100.145"/>
						
							<line fill="none" stroke="#3F3996" stroke-width="0.8537" stroke-miterlimit="10" x1="36.976" y1="104.839" x2="83.926" y2="104.839"/>
						
							<line fill="none" stroke="#3F3996" stroke-width="0.8537" stroke-miterlimit="10" x1="36.976" y1="109.535" x2="83.926" y2="109.535"/>
						
							<line fill="none" stroke="#3F3996" stroke-width="0.8537" stroke-miterlimit="10" x1="36.976" y1="114.23" x2="83.926" y2="114.23"/>
						
							<line fill="none" stroke="#3F3996" stroke-width="0.8537" stroke-miterlimit="10" x1="36.976" y1="118.925" x2="83.926" y2="118.925"/>
					</g>
				</g>
			</g>
			<g>
				<g>
					<defs>
						<circle id="SVGID_7_" cx="62.115" cy="98.893" r="20.909"/>
					</defs>
					<clipPath id="SVGID_8_">
						<use xlink:href="#SVGID_7_"  overflow="visible"/>
					</clipPath>
					<g clip-path="url(#SVGID_8_)">
						
							<line fill="none" stroke="#3F3996" stroke-width="0.8537" stroke-miterlimit="10" x1="80.797" y1="76.669" x2="80.797" y2="123.621"/>
						
							<line fill="none" stroke="#3F3996" stroke-width="0.8537" stroke-miterlimit="10" x1="76.102" y1="76.669" x2="76.102" y2="123.621"/>
						
							<line fill="none" stroke="#3F3996" stroke-width="0.8537" stroke-miterlimit="10" x1="71.406" y1="76.669" x2="71.406" y2="123.621"/>
						
							<line fill="none" stroke="#3F3996" stroke-width="0.8537" stroke-miterlimit="10" x1="66.713" y1="76.669" x2="66.713" y2="123.621"/>
						
							<line fill="none" stroke="#3F3996" stroke-width="0.8537" stroke-miterlimit="10" x1="62.018" y1="76.669" x2="62.018" y2="123.621"/>
						
							<line fill="none" stroke="#3F3996" stroke-width="0.8537" stroke-miterlimit="10" x1="57.323" y1="76.669" x2="57.323" y2="123.621"/>
						
							<line fill="none" stroke="#3F3996" stroke-width="0.8537" stroke-miterlimit="10" x1="52.628" y1="76.669" x2="52.628" y2="123.621"/>
						
							<line fill="none" stroke="#3F3996" stroke-width="0.8537" stroke-miterlimit="10" x1="47.932" y1="76.669" x2="47.932" y2="123.621"/>
						
							<line fill="none" stroke="#3F3996" stroke-width="0.8537" stroke-miterlimit="10" x1="43.238" y1="76.669" x2="43.238" y2="123.621"/>
					</g>
				</g>
			</g>
		</g>
	</g>
	<g>
		<path fill="#DB4372" d="M93.088,133.342c0-0.706-0.25-1.345-0.65-1.865v-1.195h-2.722v0.033c-1.542,0.158-2.747,1.443-2.747,3.027
			c0,1.581,1.205,2.867,2.747,3.025v0.05h2.722v-1.213C92.839,134.688,93.088,134.046,93.088,133.342z"/>
		<circle fill="#F37B8D" cx="92.242" cy="133.342" r="3.059"/>
	</g>
</g>
</svg>
