<?xml version="1.0" encoding="utf-8"?>
<!-- Generator: Adobe Illustrator 16.0.0, SVG Export Plug-In . SVG Version: 6.00 Build 0)  -->
<!DOCTYPE svg PUBLIC "-//W3C//DTD SVG 1.1//EN" "http://www.w3.org/Graphics/SVG/1.1/DTD/svg11.dtd">
<svg version="1.1" id="Layer_1" xmlns="http://www.w3.org/2000/svg" xmlns:xlink="http://www.w3.org/1999/xlink" x="0px" y="0px"
	 width="106.176px" height="154.462px" viewBox="0 0 106.176 154.462" enable-background="new 0 0 106.176 154.462"
	 xml:space="preserve">
<g>
	<path fill="#884E9F" d="M2.679,145.064V18.302C0.99,20.47,0,23.073,0,25.878v118.075c0,7.548,7.13,10.05,15.925,10.05H69.27
		c2.937-1.836,5.338-2.918,7.374-3.512H12.632C4.489,149.135,2.679,145.064,2.679,145.064z"/>
	<path fill="#8469AE" d="M69.27,12.209H34.89L34.27,0.597V0.2L9.392,13.422c-2.735,1.059-5.061,2.762-6.713,4.881v126.761
		c0,0,1.81,4.072,9.953,5.429h64.012c10.762-3.145,11.213,7.453,25.288-6.311V17.056C85.194,18.329,78.064,12.209,69.27,12.209z"/>
	<g>
		<g>
			<path fill="#FBD8E7" d="M104.835,8.218h-68.68c0,0-5.729,0.3-6.333,10.857v133.953c2.132,0.91,4.527,1.435,7.069,1.435h53.346
				c8.796,0,15.925-6.119,15.925-13.668V13.668C106.16,11.73,105.683,9.887,104.835,8.218z"/>
			<path fill="#F0AECE" d="M36.156,8.218h68.68C102.382,3.382,96.773,0,90.236,0H36.89c-8.793,0-15.924,6.12-15.924,13.668v127.125
				c0,5.367,3.612,9.999,8.855,12.233V19.074C30.427,8.518,36.156,8.218,36.156,8.218z"/>
		</g>
		<path fill="#FCE5EB" d="M106.176,108.316c0,1.688-1.368,3.054-3.054,3.054l0,0c-1.688,0-3.054-1.366-3.054-3.054V26.435
			c0-1.686,1.366-3.054,3.054-3.054l0,0c1.686,0,3.054,1.368,3.054,3.054V108.316z"/>
		<circle fill="#FCE5EB" cx="102.859" cy="121.17" r="3.318"/>
	</g>
	<g>
		<path fill="#DB4372" d="M86.144,141.331c0-0.748-0.263-1.426-0.688-1.977v-1.267h-2.885v0.034
			c-1.635,0.168-2.912,1.531-2.912,3.209c0,1.677,1.277,3.04,2.912,3.207v0.053h2.885v-1.286
			C85.881,142.757,86.144,142.076,86.144,141.331z"/>
		<circle fill="#F37B8D" cx="85.249" cy="141.331" r="3.242"/>
	</g>
	<g>
		<path fill="#633695" d="M6.435,125.309c0,0.874-0.671,1.583-1.501,1.583l0,0c-0.829,0-1.502-0.709-1.502-1.583V42.07
			c0-0.875,0.673-1.583,1.502-1.583l0,0c0.831,0,1.501,0.708,1.501,1.583V125.309z"/>
		<path fill="#633695" d="M12.014,127.85c0,0.93-0.672,1.681-1.501,1.681l0,0c-0.831,0-1.502-0.751-1.502-1.681V39.527
			c0-0.927,0.671-1.678,1.502-1.678l0,0c0.829,0,1.501,0.751,1.501,1.678V127.85z"/>
		<path fill="#633695" d="M18.021,130.902c0,0.991-0.671,1.795-1.502,1.795l0,0c-0.829,0-1.5-0.805-1.5-1.795V36.476
			c0-0.991,0.672-1.794,1.5-1.794l0,0c0.831,0,1.502,0.804,1.502,1.794V130.902z"/>
	</g>
	<g>
		<circle fill="#4769B2" cx="65.813" cy="46.025" r="22.16"/>
		<g>
			<g>
				<defs>
					<circle id="SVGID_1_" cx="65.837" cy="46.007" r="22.16"/>
				</defs>
				<clipPath id="SVGID_2_">
					<use xlink:href="#SVGID_1_"  overflow="visible"/>
				</clipPath>
				<g clip-path="url(#SVGID_2_)">
					
						<line fill="none" stroke="#3F3996" stroke-width="0.9048" stroke-miterlimit="10" x1="39.192" y1="27.428" x2="88.954" y2="27.428"/>
					
						<line fill="none" stroke="#3F3996" stroke-width="0.9048" stroke-miterlimit="10" x1="39.192" y1="32.405" x2="88.954" y2="32.405"/>
					
						<line fill="none" stroke="#3F3996" stroke-width="0.9048" stroke-miterlimit="10" x1="39.192" y1="37.381" x2="88.954" y2="37.381"/>
					
						<line fill="none" stroke="#3F3996" stroke-width="0.9048" stroke-miterlimit="10" x1="39.192" y1="42.357" x2="88.954" y2="42.357"/>
					
						<line fill="none" stroke="#3F3996" stroke-width="0.9048" stroke-miterlimit="10" x1="39.192" y1="47.333" x2="88.954" y2="47.333"/>
					
						<line fill="none" stroke="#3F3996" stroke-width="0.9048" stroke-miterlimit="10" x1="39.192" y1="52.31" x2="88.954" y2="52.31"/>
					
						<line fill="none" stroke="#3F3996" stroke-width="0.9048" stroke-miterlimit="10" x1="39.192" y1="57.286" x2="88.954" y2="57.286"/>
					
						<line fill="none" stroke="#3F3996" stroke-width="0.9048" stroke-miterlimit="10" x1="39.192" y1="62.264" x2="88.954" y2="62.264"/>
					
						<line fill="none" stroke="#3F3996" stroke-width="0.9048" stroke-miterlimit="10" x1="39.192" y1="67.24" x2="88.954" y2="67.24"/>
				</g>
			</g>
			<g>
				<defs>
					<circle id="SVGID_3_" cx="65.837" cy="46.007" r="22.16"/>
				</defs>
				<clipPath id="SVGID_4_">
					<use xlink:href="#SVGID_3_"  overflow="visible"/>
				</clipPath>
				<g clip-path="url(#SVGID_4_)">
					
						<line fill="none" stroke="#3F3996" stroke-width="0.9048" stroke-miterlimit="10" x1="85.638" y1="22.452" x2="85.638" y2="72.216"/>
					
						<line fill="none" stroke="#3F3996" stroke-width="0.9048" stroke-miterlimit="10" x1="80.661" y1="22.452" x2="80.661" y2="72.216"/>
					
						<line fill="none" stroke="#3F3996" stroke-width="0.9048" stroke-miterlimit="10" x1="75.685" y1="22.452" x2="75.685" y2="72.216"/>
					
						<line fill="none" stroke="#3F3996" stroke-width="0.9048" stroke-miterlimit="10" x1="70.709" y1="22.452" x2="70.709" y2="72.216"/>
					
						<line fill="none" stroke="#3F3996" stroke-width="0.9048" stroke-miterlimit="10" x1="65.733" y1="22.452" x2="65.733" y2="72.216"/>
					
						<line fill="none" stroke="#3F3996" stroke-width="0.9048" stroke-miterlimit="10" x1="60.756" y1="22.452" x2="60.756" y2="72.216"/>
					
						<line fill="none" stroke="#3F3996" stroke-width="0.9048" stroke-miterlimit="10" x1="55.781" y1="22.452" x2="55.781" y2="72.216"/>
					
						<line fill="none" stroke="#3F3996" stroke-width="0.9048" stroke-miterlimit="10" x1="50.804" y1="22.452" x2="50.804" y2="72.216"/>
					
						<line fill="none" stroke="#3F3996" stroke-width="0.9048" stroke-miterlimit="10" x1="45.828" y1="22.452" x2="45.828" y2="72.216"/>
				</g>
			</g>
		</g>
	</g>
	<g>
		<circle fill="#4769B2" cx="65.813" cy="104.834" r="22.16"/>
		<g>
			<g>
				<defs>
					<circle id="SVGID_5_" cx="65.837" cy="104.817" r="22.161"/>
				</defs>
				<clipPath id="SVGID_6_">
					<use xlink:href="#SVGID_5_"  overflow="visible"/>
				</clipPath>
				<g clip-path="url(#SVGID_6_)">
					
						<line fill="none" stroke="#3F3996" stroke-width="0.9048" stroke-miterlimit="10" x1="39.192" y1="86.239" x2="88.954" y2="86.239"/>
					
						<line fill="none" stroke="#3F3996" stroke-width="0.9048" stroke-miterlimit="10" x1="39.192" y1="91.215" x2="88.954" y2="91.215"/>
					
						<line fill="none" stroke="#3F3996" stroke-width="0.9048" stroke-miterlimit="10" x1="39.192" y1="96.191" x2="88.954" y2="96.191"/>
					
						<line fill="none" stroke="#3F3996" stroke-width="0.9048" stroke-miterlimit="10" x1="39.192" y1="101.167" x2="88.954" y2="101.167"/>
					
						<line fill="none" stroke="#3F3996" stroke-width="0.9048" stroke-miterlimit="10" x1="39.192" y1="106.144" x2="88.954" y2="106.144"/>
					
						<line fill="none" stroke="#3F3996" stroke-width="0.9048" stroke-miterlimit="10" x1="39.192" y1="111.119" x2="88.954" y2="111.119"/>
					
						<line fill="none" stroke="#3F3996" stroke-width="0.9048" stroke-miterlimit="10" x1="39.192" y1="116.096" x2="88.954" y2="116.096"/>
					
						<line fill="none" stroke="#3F3996" stroke-width="0.9048" stroke-miterlimit="10" x1="39.192" y1="121.073" x2="88.954" y2="121.073"/>
					
						<line fill="none" stroke="#3F3996" stroke-width="0.9048" stroke-miterlimit="10" x1="39.192" y1="126.05" x2="88.954" y2="126.05"/>
				</g>
			</g>
			<g>
				<defs>
					<circle id="SVGID_7_" cx="65.837" cy="104.817" r="22.161"/>
				</defs>
				<clipPath id="SVGID_8_">
					<use xlink:href="#SVGID_7_"  overflow="visible"/>
				</clipPath>
				<g clip-path="url(#SVGID_8_)">
					
						<line fill="none" stroke="#3F3996" stroke-width="0.9048" stroke-miterlimit="10" x1="85.638" y1="81.262" x2="85.638" y2="131.027"/>
					
						<line fill="none" stroke="#3F3996" stroke-width="0.9048" stroke-miterlimit="10" x1="80.661" y1="81.262" x2="80.661" y2="131.027"/>
					
						<line fill="none" stroke="#3F3996" stroke-width="0.9048" stroke-miterlimit="10" x1="75.685" y1="81.262" x2="75.685" y2="131.027"/>
					
						<line fill="none" stroke="#3F3996" stroke-width="0.9048" stroke-miterlimit="10" x1="70.709" y1="81.262" x2="70.709" y2="131.027"/>
					
						<line fill="none" stroke="#3F3996" stroke-width="0.9048" stroke-miterlimit="10" x1="65.733" y1="81.262" x2="65.733" y2="131.027"/>
					
						<line fill="none" stroke="#3F3996" stroke-width="0.9048" stroke-miterlimit="10" x1="60.756" y1="81.262" x2="60.756" y2="131.027"/>
					
						<line fill="none" stroke="#3F3996" stroke-width="0.9048" stroke-miterlimit="10" x1="55.781" y1="81.262" x2="55.781" y2="131.027"/>
					
						<line fill="none" stroke="#3F3996" stroke-width="0.9048" stroke-miterlimit="10" x1="50.804" y1="81.262" x2="50.804" y2="131.027"/>
					
						<line fill="none" stroke="#3F3996" stroke-width="0.9048" stroke-miterlimit="10" x1="45.828" y1="81.262" x2="45.828" y2="131.027"/>
				</g>
			</g>
		</g>
	</g>
	<g>
		<path fill="#DB4372" d="M98.664,141.331c0-0.748-0.264-1.426-0.688-1.977v-1.267h-2.885v0.034
			c-1.635,0.168-2.912,1.531-2.912,3.209c0,1.677,1.277,3.04,2.912,3.207v0.053h2.885v-1.286
			C98.401,142.757,98.664,142.076,98.664,141.331z"/>
		<circle fill="#F37B8D" cx="97.769" cy="141.331" r="3.242"/>
	</g>
</g>
</svg>
