<?xml version="1.0" encoding="utf-8"?>
<!-- Generator: Adobe Illustrator 16.0.0, SVG Export Plug-In . SVG Version: 6.00 Build 0)  -->
<!DOCTYPE svg PUBLIC "-//W3C//DTD SVG 1.1//EN" "http://www.w3.org/Graphics/SVG/1.1/DTD/svg11.dtd">
<svg version="1.1" id="Layer_1" xmlns="http://www.w3.org/2000/svg" xmlns:xlink="http://www.w3.org/1999/xlink" x="0px" y="0px"
	 width="117.352px" height="170.721px" viewBox="0 0 117.352 170.721" enable-background="new 0 0 117.352 170.721"
	 xml:space="preserve">
<g>
	<path fill="#884E9F" d="M2.961,160.332V20.229C1.094,22.625,0,25.502,0,28.602v130.504c0,8.342,7.881,11.107,17.602,11.107h58.959
		c3.246-2.029,5.9-3.225,8.15-3.881h-70.75C4.961,164.832,2.961,160.332,2.961,160.332z"/>
	<path fill="#8469AE" d="M76.561,13.494H38.563L37.877,0.66V0.221L10.381,14.834c-3.023,1.17-5.594,3.053-7.42,5.395v140.104
		c0,0,2,4.5,11,6h70.75c11.895-3.475,12.393,8.238,27.949-6.975V18.852C94.16,20.258,86.281,13.494,76.561,13.494z"/>
	<g>
		<g>
			<path fill="#FBD8E7" d="M115.869,9.082H39.961c0,0-6.332,0.332-7,12v148.053c2.357,1.006,5.004,1.586,7.813,1.586h58.961
				c9.721,0,17.6-6.764,17.6-15.107V15.107C117.334,12.965,116.807,10.928,115.869,9.082z"/>
			<path fill="#F0AECE" d="M39.961,9.082h75.908C113.158,3.738,106.959,0,99.734,0H40.773c-9.719,0-17.6,6.764-17.6,15.107v140.506
				c0,5.932,3.992,11.051,9.787,13.521V21.082C33.629,9.414,39.961,9.082,39.961,9.082z"/>
		</g>
		<path fill="#FCE5EB" d="M117.352,119.717c0,1.865-1.512,3.375-3.375,3.375l0,0c-1.865,0-3.375-1.51-3.375-3.375v-90.5
			c0-1.863,1.51-3.375,3.375-3.375l0,0c1.863,0,3.375,1.512,3.375,3.375V119.717z"/>
		<circle fill="#FCE5EB" cx="113.685" cy="133.924" r="3.667"/>
	</g>
	<g>
		<path fill="#DB4372" d="M95.211,156.207c0-0.826-0.291-1.576-0.76-2.184v-1.4h-3.188v0.037c-1.807,0.186-3.219,1.693-3.219,3.547
			s1.412,3.361,3.219,3.545v0.059h3.188v-1.422C94.92,157.783,95.211,157.031,95.211,156.207z"/>
		<circle fill="#F37B8D" cx="94.222" cy="156.207" r="3.583"/>
	</g>
	<g>
		<path fill="#633695" d="M7.113,138.498c0,0.967-0.742,1.75-1.66,1.75l0,0c-0.916,0-1.66-0.783-1.66-1.75v-92
			c0-0.967,0.744-1.75,1.66-1.75l0,0c0.918,0,1.66,0.783,1.66,1.75V138.498z"/>
		<path fill="#633695" d="M13.279,141.307c0,1.027-0.744,1.857-1.66,1.857l0,0c-0.918,0-1.66-0.83-1.66-1.857V43.688
			c0-1.025,0.742-1.855,1.66-1.855l0,0c0.916,0,1.66,0.83,1.66,1.855V141.307z"/>
		<path fill="#633695" d="M19.918,144.68c0,1.096-0.742,1.984-1.66,1.984l0,0c-0.916,0-1.658-0.889-1.658-1.984V40.316
			c0-1.096,0.742-1.984,1.658-1.984l0,0c0.918,0,1.66,0.889,1.66,1.984V144.68z"/>
	</g>
	<g>
		<circle fill="#4769B2" cx="72.741" cy="50.869" r="24.493"/>
		<g>
			<defs>
				<circle id="SVGID_1_" cx="72.767" cy="50.85" r="24.493"/>
			</defs>
			<clipPath id="SVGID_2_">
				<use xlink:href="#SVGID_1_"  overflow="visible"/>
			</clipPath>
			<g clip-path="url(#SVGID_2_)">
				<line fill="none" stroke="#3F3996" stroke-miterlimit="10" x1="43.318" y1="30.316" x2="98.318" y2="30.316"/>
				<line fill="none" stroke="#3F3996" stroke-miterlimit="10" x1="43.318" y1="35.816" x2="98.318" y2="35.816"/>
				<line fill="none" stroke="#3F3996" stroke-miterlimit="10" x1="43.318" y1="41.316" x2="98.318" y2="41.316"/>
				<line fill="none" stroke="#3F3996" stroke-miterlimit="10" x1="43.318" y1="46.816" x2="98.318" y2="46.816"/>
				<line fill="none" stroke="#3F3996" stroke-miterlimit="10" x1="43.318" y1="52.316" x2="98.318" y2="52.316"/>
				<line fill="none" stroke="#3F3996" stroke-miterlimit="10" x1="43.318" y1="57.816" x2="98.318" y2="57.816"/>
				<line fill="none" stroke="#3F3996" stroke-miterlimit="10" x1="43.318" y1="63.316" x2="98.318" y2="63.316"/>
				<line fill="none" stroke="#3F3996" stroke-miterlimit="10" x1="43.318" y1="68.818" x2="98.318" y2="68.818"/>
				<line fill="none" stroke="#3F3996" stroke-miterlimit="10" x1="43.318" y1="74.318" x2="98.318" y2="74.318"/>
			</g>
			<g clip-path="url(#SVGID_2_)">
				<line fill="none" stroke="#3F3996" stroke-miterlimit="10" x1="94.652" y1="24.816" x2="94.652" y2="79.818"/>
				<line fill="none" stroke="#3F3996" stroke-miterlimit="10" x1="89.152" y1="24.816" x2="89.152" y2="79.818"/>
				<line fill="none" stroke="#3F3996" stroke-miterlimit="10" x1="83.652" y1="24.816" x2="83.652" y2="79.818"/>
				<line fill="none" stroke="#3F3996" stroke-miterlimit="10" x1="78.152" y1="24.816" x2="78.152" y2="79.818"/>
				<line fill="none" stroke="#3F3996" stroke-miterlimit="10" x1="72.652" y1="24.816" x2="72.652" y2="79.818"/>
				<line fill="none" stroke="#3F3996" stroke-miterlimit="10" x1="67.152" y1="24.816" x2="67.152" y2="79.818"/>
				<line fill="none" stroke="#3F3996" stroke-miterlimit="10" x1="61.652" y1="24.816" x2="61.652" y2="79.818"/>
				<line fill="none" stroke="#3F3996" stroke-miterlimit="10" x1="56.152" y1="24.816" x2="56.152" y2="79.818"/>
				<line fill="none" stroke="#3F3996" stroke-miterlimit="10" x1="50.652" y1="24.816" x2="50.652" y2="79.818"/>
			</g>
		</g>
	</g>
	<g>
		<circle fill="#4769B2" cx="72.741" cy="115.869" r="24.493"/>
		<g>
			<defs>
				<circle id="SVGID_3_" cx="72.767" cy="115.85" r="24.493"/>
			</defs>
			<clipPath id="SVGID_4_">
				<use xlink:href="#SVGID_3_"  overflow="visible"/>
			</clipPath>
			<g clip-path="url(#SVGID_4_)">
				<line fill="none" stroke="#3F3996" stroke-miterlimit="10" x1="43.318" y1="95.316" x2="98.318" y2="95.316"/>
				<line fill="none" stroke="#3F3996" stroke-miterlimit="10" x1="43.318" y1="100.816" x2="98.318" y2="100.816"/>
				<line fill="none" stroke="#3F3996" stroke-miterlimit="10" x1="43.318" y1="106.316" x2="98.318" y2="106.316"/>
				<line fill="none" stroke="#3F3996" stroke-miterlimit="10" x1="43.318" y1="111.816" x2="98.318" y2="111.816"/>
				<line fill="none" stroke="#3F3996" stroke-miterlimit="10" x1="43.318" y1="117.316" x2="98.318" y2="117.316"/>
				<line fill="none" stroke="#3F3996" stroke-miterlimit="10" x1="43.318" y1="122.816" x2="98.318" y2="122.816"/>
				<line fill="none" stroke="#3F3996" stroke-miterlimit="10" x1="43.318" y1="128.316" x2="98.318" y2="128.316"/>
				<line fill="none" stroke="#3F3996" stroke-miterlimit="10" x1="43.318" y1="133.818" x2="98.318" y2="133.818"/>
				<line fill="none" stroke="#3F3996" stroke-miterlimit="10" x1="43.318" y1="139.318" x2="98.318" y2="139.318"/>
			</g>
			<g clip-path="url(#SVGID_4_)">
				<line fill="none" stroke="#3F3996" stroke-miterlimit="10" x1="94.652" y1="89.816" x2="94.652" y2="144.818"/>
				<line fill="none" stroke="#3F3996" stroke-miterlimit="10" x1="89.152" y1="89.816" x2="89.152" y2="144.818"/>
				<line fill="none" stroke="#3F3996" stroke-miterlimit="10" x1="83.652" y1="89.816" x2="83.652" y2="144.818"/>
				<line fill="none" stroke="#3F3996" stroke-miterlimit="10" x1="78.152" y1="89.816" x2="78.152" y2="144.818"/>
				<line fill="none" stroke="#3F3996" stroke-miterlimit="10" x1="72.652" y1="89.816" x2="72.652" y2="144.818"/>
				<line fill="none" stroke="#3F3996" stroke-miterlimit="10" x1="67.152" y1="89.816" x2="67.152" y2="144.818"/>
				<line fill="none" stroke="#3F3996" stroke-miterlimit="10" x1="61.652" y1="89.816" x2="61.652" y2="144.818"/>
				<line fill="none" stroke="#3F3996" stroke-miterlimit="10" x1="56.152" y1="89.816" x2="56.152" y2="144.818"/>
				<line fill="none" stroke="#3F3996" stroke-miterlimit="10" x1="50.652" y1="89.816" x2="50.652" y2="144.818"/>
			</g>
		</g>
	</g>
	<g>
		<path fill="#DB4372" d="M109.049,156.207c0-0.826-0.291-1.576-0.76-2.184v-1.4h-3.188v0.037c-1.807,0.186-3.219,1.693-3.219,3.547
			s1.412,3.361,3.219,3.545v0.059h3.188v-1.422C108.758,157.783,109.049,157.031,109.049,156.207z"/>
		<circle fill="#F37B8D" cx="108.06" cy="156.207" r="3.583"/>
	</g>
</g>
</svg>
