<?xml version="1.0" encoding="utf-8"?>
<!-- Generator: Adobe Illustrator 16.0.0, SVG Export Plug-In . SVG Version: 6.00 Build 0)  -->
<!DOCTYPE svg PUBLIC "-//W3C//DTD SVG 1.1//EN" "http://www.w3.org/Graphics/SVG/1.1/DTD/svg11.dtd">
<svg version="1.1" id="Layer_1" xmlns="http://www.w3.org/2000/svg" xmlns:xlink="http://www.w3.org/1999/xlink" x="0px" y="0px"
	 width="117.35px" height="170.719px" viewBox="0 0 117.35 170.719" enable-background="new 0 0 117.35 170.719"
	 xml:space="preserve">
<g>
	<path fill="#884E9F" d="M114.391,160.33V20.229c1.867,2.395,2.959,5.271,2.959,8.373v130.504c0,8.342-7.879,11.107-17.6,11.107
		H40.789c-3.244-2.029-5.898-3.225-8.148-3.883h70.75C112.391,164.83,114.391,160.33,114.391,160.33z"/>
	<path fill="#8469AE" d="M40.789,13.494h38L79.473,0.66V0.221l27.496,14.613c3.025,1.17,5.594,3.051,7.422,5.395V160.33
		c0,0-2,4.5-11,6h-70.75c-11.895-3.473-12.393,8.24-27.951-6.975V18.852C23.189,20.258,31.068,13.494,40.789,13.494z"/>
	<g>
		<g>
			<path fill="#FBD8E7" d="M1.48,9.08h75.908c0,0,6.334,0.334,7,12v148.055c-2.355,1.004-5.002,1.584-7.813,1.584H17.615
				c-9.721,0-17.6-6.764-17.6-15.107V15.107C0.016,12.965,0.543,10.928,1.48,9.08z"/>
			<path fill="#F0AECE" d="M77.389,9.08H1.48C4.193,3.738,10.393,0,17.615,0h58.961c9.721,0,17.6,6.764,17.6,15.107v140.504
				c0,5.932-3.992,11.051-9.787,13.523V21.08C83.723,9.414,77.389,9.08,77.389,9.08z"/>
		</g>
		<path fill="#FCE5EB" d="M0,119.717c0,1.863,1.51,3.375,3.375,3.375l0,0c1.863,0,3.375-1.512,3.375-3.375v-90.5
			c0-1.865-1.512-3.375-3.375-3.375l0,0C1.51,25.842,0,27.352,0,29.217V119.717z"/>
		<circle fill="#FCE5EB" cx="3.667" cy="133.924" r="3.667"/>
	</g>
	<g>
		<path fill="#DB4372" d="M22.141,156.205c0-0.824,0.291-1.576,0.76-2.182v-1.4h3.188v0.037c1.805,0.184,3.219,1.691,3.219,3.545
			s-1.414,3.361-3.219,3.547v0.059H22.9v-1.422C22.432,157.781,22.141,157.031,22.141,156.205z"/>
		<circle fill="#F37B8D" cx="23.13" cy="156.205" r="3.583"/>
	</g>
	<g>
		<path fill="#633695" d="M110.238,138.496c0,0.967,0.742,1.75,1.658,1.75l0,0c0.918,0,1.66-0.783,1.66-1.75V46.498
			c0-0.967-0.742-1.75-1.66-1.75l0,0c-0.916,0-1.658,0.783-1.658,1.75V138.496z"/>
		<path fill="#633695" d="M104.072,141.307c0,1.025,0.742,1.855,1.66,1.855l0,0c0.916,0,1.66-0.83,1.66-1.855V43.688
			c0-1.025-0.744-1.857-1.66-1.857l0,0c-0.918,0-1.66,0.832-1.66,1.857V141.307z"/>
		<path fill="#633695" d="M97.432,144.678c0,1.098,0.744,1.984,1.66,1.984l0,0c0.918,0,1.66-0.887,1.66-1.984V40.316
			c0-1.096-0.742-1.986-1.66-1.986l0,0c-0.916,0-1.66,0.891-1.66,1.986V144.678z"/>
	</g>
	<g>
		<circle fill="#4769B2" cx="44.61" cy="50.867" r="24.493"/>
		<g>
			<defs>
				<circle id="SVGID_1_" cx="44.585" cy="50.848" r="24.493"/>
			</defs>
			<clipPath id="SVGID_2_">
				<use xlink:href="#SVGID_1_"  overflow="visible"/>
			</clipPath>
			<g clip-path="url(#SVGID_2_)">
				<line fill="none" stroke="#3F3996" stroke-miterlimit="10" x1="74.031" y1="30.314" x2="19.031" y2="30.314"/>
				<line fill="none" stroke="#3F3996" stroke-miterlimit="10" x1="74.031" y1="35.814" x2="19.031" y2="35.814"/>
				<line fill="none" stroke="#3F3996" stroke-miterlimit="10" x1="74.031" y1="41.314" x2="19.031" y2="41.314"/>
				<line fill="none" stroke="#3F3996" stroke-miterlimit="10" x1="74.031" y1="46.814" x2="19.031" y2="46.814"/>
				<line fill="none" stroke="#3F3996" stroke-miterlimit="10" x1="74.031" y1="52.314" x2="19.031" y2="52.314"/>
				<line fill="none" stroke="#3F3996" stroke-miterlimit="10" x1="74.031" y1="57.814" x2="19.031" y2="57.814"/>
				<line fill="none" stroke="#3F3996" stroke-miterlimit="10" x1="74.031" y1="63.314" x2="19.031" y2="63.314"/>
				<line fill="none" stroke="#3F3996" stroke-miterlimit="10" x1="74.031" y1="68.816" x2="19.031" y2="68.816"/>
				<line fill="none" stroke="#3F3996" stroke-miterlimit="10" x1="74.031" y1="74.316" x2="19.031" y2="74.316"/>
			</g>
			<g clip-path="url(#SVGID_2_)">
				<line fill="none" stroke="#3F3996" stroke-miterlimit="10" x1="22.697" y1="24.814" x2="22.697" y2="79.816"/>
				<line fill="none" stroke="#3F3996" stroke-miterlimit="10" x1="28.197" y1="24.814" x2="28.197" y2="79.816"/>
				<line fill="none" stroke="#3F3996" stroke-miterlimit="10" x1="33.697" y1="24.814" x2="33.697" y2="79.816"/>
				<line fill="none" stroke="#3F3996" stroke-miterlimit="10" x1="39.197" y1="24.814" x2="39.197" y2="79.816"/>
				<line fill="none" stroke="#3F3996" stroke-miterlimit="10" x1="44.697" y1="24.814" x2="44.697" y2="79.816"/>
				<line fill="none" stroke="#3F3996" stroke-miterlimit="10" x1="50.197" y1="24.814" x2="50.197" y2="79.816"/>
				<line fill="none" stroke="#3F3996" stroke-miterlimit="10" x1="55.697" y1="24.814" x2="55.697" y2="79.816"/>
				<line fill="none" stroke="#3F3996" stroke-miterlimit="10" x1="61.197" y1="24.814" x2="61.197" y2="79.816"/>
				<line fill="none" stroke="#3F3996" stroke-miterlimit="10" x1="66.697" y1="24.814" x2="66.697" y2="79.816"/>
			</g>
		</g>
	</g>
	<g>
		<circle fill="#4769B2" cx="44.61" cy="115.867" r="24.493"/>
		<g>
			<defs>
				<circle id="SVGID_3_" cx="44.585" cy="115.848" r="24.493"/>
			</defs>
			<clipPath id="SVGID_4_">
				<use xlink:href="#SVGID_3_"  overflow="visible"/>
			</clipPath>
			<g clip-path="url(#SVGID_4_)">
				<line fill="none" stroke="#3F3996" stroke-miterlimit="10" x1="74.031" y1="95.314" x2="19.031" y2="95.314"/>
				<line fill="none" stroke="#3F3996" stroke-miterlimit="10" x1="74.031" y1="100.814" x2="19.031" y2="100.814"/>
				<line fill="none" stroke="#3F3996" stroke-miterlimit="10" x1="74.031" y1="106.314" x2="19.031" y2="106.314"/>
				<line fill="none" stroke="#3F3996" stroke-miterlimit="10" x1="74.031" y1="111.814" x2="19.031" y2="111.814"/>
				<line fill="none" stroke="#3F3996" stroke-miterlimit="10" x1="74.031" y1="117.314" x2="19.031" y2="117.314"/>
				<line fill="none" stroke="#3F3996" stroke-miterlimit="10" x1="74.031" y1="122.814" x2="19.031" y2="122.814"/>
				<line fill="none" stroke="#3F3996" stroke-miterlimit="10" x1="74.031" y1="128.314" x2="19.031" y2="128.314"/>
				<line fill="none" stroke="#3F3996" stroke-miterlimit="10" x1="74.031" y1="133.816" x2="19.031" y2="133.816"/>
				<line fill="none" stroke="#3F3996" stroke-miterlimit="10" x1="74.031" y1="139.316" x2="19.031" y2="139.316"/>
			</g>
			<g clip-path="url(#SVGID_4_)">
				<line fill="none" stroke="#3F3996" stroke-miterlimit="10" x1="22.697" y1="89.814" x2="22.697" y2="144.816"/>
				<line fill="none" stroke="#3F3996" stroke-miterlimit="10" x1="28.197" y1="89.814" x2="28.197" y2="144.816"/>
				<line fill="none" stroke="#3F3996" stroke-miterlimit="10" x1="33.697" y1="89.814" x2="33.697" y2="144.816"/>
				<line fill="none" stroke="#3F3996" stroke-miterlimit="10" x1="39.197" y1="89.814" x2="39.197" y2="144.816"/>
				<line fill="none" stroke="#3F3996" stroke-miterlimit="10" x1="44.697" y1="89.814" x2="44.697" y2="144.816"/>
				<line fill="none" stroke="#3F3996" stroke-miterlimit="10" x1="50.197" y1="89.814" x2="50.197" y2="144.816"/>
				<line fill="none" stroke="#3F3996" stroke-miterlimit="10" x1="55.697" y1="89.814" x2="55.697" y2="144.816"/>
				<line fill="none" stroke="#3F3996" stroke-miterlimit="10" x1="61.197" y1="89.814" x2="61.197" y2="144.816"/>
				<line fill="none" stroke="#3F3996" stroke-miterlimit="10" x1="66.697" y1="89.814" x2="66.697" y2="144.816"/>
			</g>
		</g>
	</g>
	<g>
		<path fill="#DB4372" d="M8.303,156.205c0-0.824,0.291-1.576,0.76-2.182v-1.4h3.188v0.037c1.805,0.184,3.219,1.691,3.219,3.545
			s-1.414,3.361-3.219,3.547v0.059H9.063v-1.422C8.594,157.781,8.303,157.031,8.303,156.205z"/>
		<circle fill="#F37B8D" cx="9.292" cy="156.205" r="3.583"/>
	</g>
</g>
</svg>
