<?xml version="1.0" encoding="utf-8"?>
<!-- Generator: Adobe Illustrator 16.0.0, SVG Export Plug-In . SVG Version: 6.00 Build 0)  -->
<!DOCTYPE svg PUBLIC "-//W3C//DTD SVG 1.1//EN" "http://www.w3.org/Graphics/SVG/1.1/DTD/svg11.dtd">
<svg version="1.1" id="Layer_1" xmlns="http://www.w3.org/2000/svg" xmlns:xlink="http://www.w3.org/1999/xlink" x="0px" y="0px"
	 width="140.298px" height="161.462px" viewBox="0 0 140.298 161.462" enable-background="new 0 0 140.298 161.462"
	 xml:space="preserve">
<g>
	<path fill="#948EC5" d="M56.325,161.462V42.152H27.258c-2.787,0-5.162-0.505-7.124-1.52c-1.966-1.013-3.548-2.343-4.75-3.99
		c-1.205-1.645-2.09-3.481-2.66-5.51c-0.569-2.024-0.854-3.989-0.854-5.889c0-1.9,0.285-3.83,0.854-5.795
		c0.57-1.962,1.455-3.734,2.66-5.319c1.202-1.582,2.784-2.85,4.75-3.8c1.962-0.95,4.337-1.425,7.124-1.425h97.651
		c2.785,0,5.159,0.475,7.125,1.425c1.962,0.95,3.544,2.218,4.749,3.8c1.202,1.585,2.09,3.357,2.66,5.319
		c0.57,1.965,0.854,3.895,0.854,5.795c0,1.899-0.284,3.864-0.854,5.889c-0.57,2.028-1.49,3.865-2.755,5.51
		c-1.268,1.647-2.85,2.978-4.75,3.99c-1.899,1.015-4.244,1.52-7.029,1.52H95.842v119.31H56.325z"/>
	<path fill="#F4C6DD" d="M44.456,152.557V33.247H15.389c-2.787,0-5.162-0.505-7.124-1.52c-1.966-1.013-3.548-2.343-4.75-3.99
		c-1.205-1.645-2.09-3.481-2.66-5.51C0.285,20.203,0,18.238,0,16.339c0-1.9,0.285-3.83,0.854-5.795
		c0.57-1.962,1.455-3.734,2.66-5.319c1.202-1.582,2.784-2.85,4.75-3.8C10.227,0.475,12.602,0,15.389,0h97.651
		c2.785,0,5.159,0.475,7.125,1.425c1.962,0.95,3.544,2.218,4.749,3.8c1.202,1.585,2.09,3.357,2.66,5.319
		c0.57,1.965,0.854,3.895,0.854,5.795c0,1.899-0.284,3.864-0.854,5.889c-0.57,2.028-1.49,3.865-2.755,5.51
		c-1.268,1.647-2.85,2.978-4.75,3.99c-1.899,1.015-4.244,1.52-7.029,1.52H83.973v119.31H44.456z"/>
	<path fill="#FFFFFF" d="M112.667,16.991H75.974c-3.279,0-5.937-2.657-5.937-5.937s2.657-5.937,5.937-5.937h36.693
		c3.279,0,5.937,2.657,5.937,5.937S115.946,16.991,112.667,16.991z"/>
	<circle fill="#FFFFFF" cx="59.072" cy="11.716" r="6.679"/>
</g>
</svg>
