<?xml version="1.0" encoding="utf-8"?>
<!-- Generator: Adobe Illustrator 16.0.0, SVG Export Plug-In . SVG Version: 6.00 Build 0)  -->
<!DOCTYPE svg PUBLIC "-//W3C//DTD SVG 1.1//EN" "http://www.w3.org/Graphics/SVG/1.1/DTD/svg11.dtd">
<svg version="1.1" id="Layer_1" xmlns="http://www.w3.org/2000/svg" xmlns:xlink="http://www.w3.org/1999/xlink" x="0px" y="0px"
	 width="107.935px" height="116.38px" viewBox="0 0 107.935 116.38" enable-background="new 0 0 107.935 116.38"
	 xml:space="preserve">
<g>
	<g>
		<path fill="#948EC5" d="M101.512,106.801c0,5.268-4.271,9.537-9.54,9.537H15.975c-5.268,0-9.539-4.27-9.539-9.537V52.744
			c0-5.268,4.271-9.539,9.539-9.539h75.997c5.27,0,9.54,4.271,9.54,9.539V106.801z"/>
		<g>
			<rect x="13.156" y="53.283" opacity="0.2" fill="#FBD8E7" width="9.292" height="63.086"/>
			<rect x="31.243" y="53.283" opacity="0.2" fill="#FBD8E7" width="9.29" height="63.086"/>
			<rect x="49.329" y="53.283" opacity="0.2" fill="#FBD8E7" width="9.29" height="63.086"/>
			<rect x="67.414" y="53.283" opacity="0.2" fill="#FBD8E7" width="9.292" height="63.086"/>
			<rect x="85.501" y="53.283" opacity="0.2" fill="#FBD8E7" width="9.291" height="63.086"/>
		</g>
		<g>
			<rect x="6.469" y="62.096" opacity="0.2" fill="#FBD8E7" width="95.011" height="9.291"/>
			<rect x="6.469" y="80.182" opacity="0.2" fill="#FBD8E7" width="95.011" height="9.291"/>
			<rect x="6.469" y="98.268" opacity="0.2" fill="#FBD8E7" width="95.011" height="9.291"/>
		</g>
		<path opacity="0.3" fill="#2D2C7A" d="M32.515,105.037c0,6.443-6.846,11.297-14.046,11.297l0,0
			c-7.228,0.5-12.509-3.059-12.032-11.297V54.248c0-6.441,5.839-11.666,13.039-11.666l0,0c7.201,0,13.039,5.225,13.039,11.666
			V105.037z"/>
		<path fill="#5D6AB2" d="M107.935,45.445c0,4.258-3.451,7.709-7.708,7.709H7.72c-4.257,0-7.708-3.451-7.708-7.709l0,0
			c0-4.258,3.451-7.709,7.708-7.709h92.507C104.483,37.736,107.935,41.188,107.935,45.445L107.935,45.445z"/>
		<path fill="#54459C" d="M60.48,45.445c0,4.258-3.452,7.709-7.71,7.709H7.708C3.45,53.154,0,49.703,0,45.445l0,0
			c0-4.258,3.45-7.709,7.708-7.709h45.063C57.028,37.736,60.48,41.188,60.48,45.445L60.48,45.445z"/>
	</g>
	<path fill="#948EC5" d="M98.718,31c0,3.59-2.91,6.5-6.5,6.5h-76.5c-3.59,0-6.5-2.91-6.5-6.5l0,0c0-3.59,2.91-6.5,6.5-6.5h76.5
		C95.808,24.5,98.718,27.41,98.718,31L98.718,31z"/>
	<path fill="#54459C" d="M98.718,18.5c0,3.59-2.91,6.5-6.5,6.5h-76.5c-3.59,0-6.5-2.91-6.5-6.5l0,0c0-3.59,2.91-6.5,6.5-6.5h76.5
		C95.808,12,98.718,14.91,98.718,18.5L98.718,18.5z"/>
	<path fill="#5D6AB2" d="M98.718,6.5c0,3.59-2.91,6.5-6.5,6.5h-76.5c-3.59,0-6.5-2.91-6.5-6.5l0,0c0-3.59,2.91-6.5,6.5-6.5h76.5
		C95.808,0,98.718,2.91,98.718,6.5L98.718,6.5z"/>
</g>
</svg>
