<?xml version="1.0" encoding="utf-8"?>
<!-- Generator: Adobe Illustrator 16.0.0, SVG Export Plug-In . SVG Version: 6.00 Build 0)  -->
<!DOCTYPE svg PUBLIC "-//W3C//DTD SVG 1.1//EN" "http://www.w3.org/Graphics/SVG/1.1/DTD/svg11.dtd">
<svg version="1.1" id="Layer_1" xmlns="http://www.w3.org/2000/svg" xmlns:xlink="http://www.w3.org/1999/xlink" x="0px" y="0px"
	 width="416.432px" height="458.566px" viewBox="0 0 416.432 458.566" enable-background="new 0 0 416.432 458.566"
	 xml:space="preserve">
<g>
	<path fill="#2D2C7A" d="M407.599,356.287c0,19.122-18.064,52.854-40.533,52.854H40.711C18.244,409.141,0,372.069,0,352.945
		l0.028-170.782c0-19.122,18.216-34.624,40.683-34.624h326.354c22.469,0,40.682,15.501,40.682,34.624L407.599,356.287z"/>
	<circle fill="#E59AC1" cx="352.131" cy="130.569" r="22.601"/>
	<path fill="#E59AC1" d="M353.266,114.284c0.298,0.667-0.475,1.661-1.729,2.222l0,0c-1.254,0.56-2.513,0.473-2.811-0.194
		l-24.033-53.834c-0.297-0.666,0.476-1.66,1.729-2.222l0,0c1.257-0.56,2.513-0.471,2.809,0.196L353.266,114.284z"/>
	<path fill="#E59AC1" d="M351.623,114.887c-0.35,0.641,0.346,1.692,1.552,2.352l0,0c1.205,0.656,2.466,0.669,2.813,0.028
		l55.325-106.019c0.349-0.643-0.345-1.694-1.548-2.352l0,0c-1.208-0.658-2.468-0.668-2.818-0.025L351.623,114.887z"/>
	<circle fill="#E376AE" cx="326.422" cy="60.257" r="9.888"/>
	<circle fill="#E376AE" cx="406.544" cy="9.888" r="9.888"/>
	<path fill="#54459C" d="M407.747,358.808c0,19.567-18.213,35.431-40.682,35.431H40.711c-22.467,0-40.683-15.863-40.683-35.431
		V161.984c0-19.568,18.216-35.429,40.683-35.429h326.354c22.469,0,40.682,15.861,40.682,35.429V358.808z"/>
	<path fill="#FBD8E7" d="M398.755,354.468c0,18.703-17.412,33.866-38.887,33.866H47.91c-21.476,0-38.886-15.163-38.886-33.866
		V166.325c0-18.704,17.41-33.866,38.886-33.866h311.958c21.475,0,38.887,15.163,38.887,33.866V354.468z"/>
	<path fill="#F0AECE" d="M386.773,239.252c0,10.899-7.873,19.732-17.586,19.732h-5.275c-9.714,0-17.586-8.833-17.586-19.732v-71.689
		c0-10.898,7.872-19.732,17.586-19.732h5.275c9.713,0,17.586,8.834,17.586,19.732V239.252z"/>
	<g>
		<circle fill="#E376AE" cx="355.512" cy="276.583" r="4.666"/>
		<circle fill="#E376AE" cx="375.731" cy="276.583" r="4.666"/>
		<circle fill="#E376AE" cx="355.512" cy="295.054" r="4.665"/>
		<circle fill="#E376AE" cx="375.731" cy="295.054" r="4.665"/>
		<circle fill="#E376AE" cx="355.512" cy="313.521" r="4.665"/>
		<circle fill="#E376AE" cx="375.731" cy="313.521" r="4.665"/>
	</g>
	<g>
		<path fill="#F0AECE" d="M380.202,333.408c0,1.523-0.785,2.76-1.755,2.76h-26.043c-0.971,0-1.754-1.236-1.754-2.76l0,0
			c0-1.523,0.783-2.759,1.754-2.759h26.043C379.416,330.65,380.202,331.885,380.202,333.408L380.202,333.408z"/>
		<path fill="#F0AECE" d="M380.202,345.232c0,1.522-0.785,2.758-1.755,2.758h-26.043c-0.971,0-1.754-1.235-1.754-2.758l0,0
			c0-1.523,0.783-2.76,1.754-2.76h26.043C379.416,342.471,380.202,343.708,380.202,345.232L380.202,345.232z"/>
		<path fill="#F0AECE" d="M380.202,357.053c0,1.524-0.785,2.758-1.755,2.758h-26.043c-0.971,0-1.754-1.234-1.754-2.758l0,0
			c0-1.523,0.783-2.758,1.754-2.758h26.043C379.416,354.294,380.202,355.53,380.202,357.053L380.202,357.053z"/>
	</g>
	<g>
		<circle fill="#E376AE" cx="367.051" cy="171.411" r="10.946"/>
		<circle fill="#F0AECE" cx="367.052" cy="171.41" r="8.755"/>
		<path fill="#E376AE" d="M369.032,182.074c0,0.572-0.698,1.038-1.558,1.038l0,0c-0.859,0-1.558-0.466-1.558-1.038v-21.138
			c0-0.574,0.698-1.039,1.558-1.039l0,0c0.859,0,1.558,0.465,1.558,1.039V182.074z"/>
	</g>
	<path fill="#5D6AB2" d="M301.796,144.008v167.59c0,17.194-16.008,31.133-35.75,31.133H28.122c-0.159,0-0.313-0.007-0.471-0.009
		v5.371c0,17.194,16.006,31.133,35.751,31.133h237.924c19.743,0,35.75-13.938,35.75-31.133V175.13
		C337.075,158.076,321.322,144.229,301.796,144.008z"/>
	<path fill="#948EC5" d="M266.047,342.731c19.742,0,35.75-13.938,35.75-31.133v-167.59c-0.157-0.002-0.314-0.011-0.471-0.011H63.403
		c-19.745,0-35.751,13.939-35.751,31.133v167.592c0.157,0.002,0.312,0.009,0.471,0.009H266.047z"/>
	<path fill="#FCD7D8" d="M76.513,161.736H47.166c-2.52,0-4.562,2.282-4.562,5.098v0.153v2.057v30.739
		c0,2.815,2.042,5.096,4.562,5.096h1.978c2.521,0,4.562-2.281,4.562-5.096V174.14h22.807c2.521,0,4.562-2.281,4.562-5.097v-2.209
		C81.075,164.018,79.034,161.736,76.513,161.736z"/>
	<ellipse fill="#FCD7D8" cx="48.159" cy="215.817" rx="5.545" ry="5.312"/>
	<path fill="#F0AECE" d="M27.676,292.94c0,5.123-4.155,9.276-9.277,9.276l0,0c-5.124,0-9.275-4.153-9.275-9.276V187.108
		c0-5.123,4.152-9.277,9.275-9.277l0,0c5.122,0,9.277,4.154,9.277,9.277V292.94z"/>
	<path fill="#F0AECE" d="M27.523,352.624c0,5.08-4.145,9.198-9.257,9.198l0,0c-5.111,0-9.255-4.118-9.255-9.198v-23.113
		c0-5.08,4.145-9.201,9.255-9.201l0,0c5.113,0,9.257,4.121,9.257,9.201V352.624z"/>
	<g>
		<path fill="#E376AE" d="M157.599,457.505c-2.355,1.335-5.318,1.408-7.89,0.231c-2.7-1.231-4.886-3.668-5.661-6.554
			c-0.383-1.419-0.584-3.215-0.383-4.68l23.827-39.403c1.313-2.033,3.066-3.84,5.531-4.304c2.257-0.426,4.991,0.177,6.652,1.834
			c3.04,3.036,0.179,7.716-0.994,10.926c-0.634,1.741-14.699,33.027-16.438,36.343c-0.675,1.287-1.38,2.349-2.251,3.506
			C159.322,456.291,158.505,456.992,157.599,457.505z"/>
		<path fill="#E376AE" d="M255.514,457.505c2.357,1.335,5.321,1.408,7.893,0.231c2.697-1.231,4.884-3.668,5.661-6.554
			c0.383-1.419,0.584-3.215,0.383-4.68L245.624,407.1c-1.315-2.033-3.067-3.84-5.532-4.304c-2.258-0.426-4.993,0.177-6.652,1.834
			c-3.04,3.036-0.177,7.716,0.993,10.926c0.634,1.741,14.699,33.027,16.44,36.343c0.676,1.287,1.38,2.349,2.251,3.506
			C253.794,456.291,254.608,456.992,255.514,457.505z"/>
	</g>
	<g>
		<circle fill="#E376AE" cx="367.116" cy="205.074" r="10.946"/>
		<circle fill="#F0AECE" cx="367.118" cy="205.075" r="8.755"/>
		<path fill="#E376AE" d="M360.978,214.016c-0.403,0.404-1.228,0.24-1.835-0.366l0,0c-0.607-0.609-0.771-1.431-0.367-1.835
			l14.946-14.948c0.405-0.404,1.228-0.241,1.837,0.367l0,0c0.606,0.608,0.771,1.431,0.365,1.835L360.978,214.016z"/>
	</g>
	<g>
		<circle fill="#E376AE" cx="367.118" cy="238.646" r="10.946"/>
		<circle fill="#F0AECE" cx="367.118" cy="238.647" r="8.755"/>
		<path fill="#E376AE" d="M358.176,232.509c-0.404-0.404-0.239-1.228,0.366-1.835l0,0c0.609-0.607,1.431-0.772,1.836-0.367
			l14.947,14.945c0.404,0.406,0.24,1.228-0.367,1.837l0,0c-0.607,0.606-1.431,0.772-1.835,0.365L358.176,232.509z"/>
	</g>
</g>
</svg>
