<?xml version="1.0" encoding="utf-8"?>
<!-- Generator: Adobe Illustrator 16.0.0, SVG Export Plug-In . SVG Version: 6.00 Build 0)  -->
<!DOCTYPE svg PUBLIC "-//W3C//DTD SVG 1.1//EN" "http://www.w3.org/Graphics/SVG/1.1/DTD/svg11.dtd">
<svg version="1.1" id="Layer_1" xmlns="http://www.w3.org/2000/svg" xmlns:xlink="http://www.w3.org/1999/xlink" x="0px" y="0px"
	 width="456.432px" height="502.614px" viewBox="0 0 456.432 502.614" enable-background="new 0 0 456.432 502.614"
	 xml:space="preserve">
<g>
	<path fill="#2D2C7A" d="M446.75,390.51c0,20.959-19.799,57.932-44.426,57.932H44.621C19.996,448.441,0,407.807,0,386.846
		L0.031,199.66c0-20.959,19.965-37.949,44.59-37.949h357.703c24.627,0,44.59,16.99,44.59,37.949L446.75,390.51z"/>
	<circle fill="#F0AECE" cx="385.954" cy="143.111" r="24.772"/>
	<path fill="#F0AECE" d="M387.199,125.262c0.326,0.73-0.521,1.82-1.896,2.436l0,0c-1.375,0.613-2.754,0.518-3.08-0.213
		L355.881,68.48c-0.326-0.73,0.521-1.82,1.896-2.436l0,0c1.377-0.613,2.754-0.516,3.078,0.215L387.199,125.262z"/>
	<path fill="#F0AECE" d="M385.398,125.922c-0.383,0.703,0.379,1.855,1.701,2.578l0,0c1.32,0.719,2.703,0.734,3.084,0.031
		l60.639-116.203c0.383-0.705-0.377-1.857-1.697-2.578l0,0c-1.324-0.721-2.705-0.732-3.088-0.027L385.398,125.922z"/>
	<circle fill="#E376AE" cx="357.777" cy="66.045" r="10.838"/>
	<circle fill="#E376AE" cx="445.594" cy="10.838" r="10.838"/>
	<path fill="#54459C" d="M446.914,393.273c0,21.447-19.963,38.834-44.59,38.834H44.621c-24.625,0-44.59-17.387-44.59-38.834v-215.73
		c0-21.447,19.965-38.832,44.59-38.832h357.703c24.627,0,44.59,17.385,44.59,38.832V393.273z"/>
	<path fill="#FBD8E7" d="M437.057,388.516c0,20.5-19.084,37.119-42.621,37.119H52.512c-23.539,0-42.621-16.619-42.621-37.119
		V182.301c0-20.5,19.082-37.119,42.621-37.119h341.924c23.537,0,42.621,16.619,42.621,37.119V388.516z"/>
	<path fill="#F0AECE" d="M423.924,262.234c0,11.945-8.629,21.627-19.275,21.627h-5.783c-10.646,0-19.275-9.682-19.275-21.627
		v-78.576c0-11.945,8.629-21.627,19.275-21.627h5.783c10.646,0,19.275,9.682,19.275,21.627V262.234z"/>
	<g>
		<circle fill="#E376AE" cx="389.66" cy="303.15" r="5.113"/>
		<circle fill="#E376AE" cx="411.822" cy="303.15" r="5.113"/>
		<circle fill="#E376AE" cx="389.66" cy="323.395" r="5.113"/>
		<circle fill="#E376AE" cx="411.822" cy="323.395" r="5.113"/>
		<circle fill="#E376AE" cx="389.66" cy="343.637" r="5.113"/>
		<circle fill="#E376AE" cx="411.822" cy="343.637" r="5.113"/>
	</g>
	<g>
		<path fill="#F0AECE" d="M416.723,365.434c0,1.67-0.861,3.025-1.924,3.025h-28.545c-1.063,0-1.922-1.355-1.922-3.025l0,0
			c0-1.67,0.859-3.023,1.922-3.023h28.545C415.861,362.41,416.723,363.764,416.723,365.434L416.723,365.434z"/>
		<path fill="#F0AECE" d="M416.723,378.393c0,1.668-0.861,3.023-1.924,3.023h-28.545c-1.063,0-1.922-1.355-1.922-3.023l0,0
			c0-1.67,0.859-3.025,1.922-3.025h28.545C415.861,375.367,416.723,376.723,416.723,378.393L416.723,378.393z"/>
		<path fill="#F0AECE" d="M416.723,391.35c0,1.67-0.861,3.023-1.924,3.023h-28.545c-1.063,0-1.922-1.354-1.922-3.023l0,0
			c0-1.67,0.859-3.023,1.922-3.023h28.545C415.861,388.326,416.723,389.68,416.723,391.35L416.723,391.35z"/>
	</g>
	<g>
		<circle fill="#E376AE" cx="402.308" cy="187.875" r="11.997"/>
		<circle fill="#F0AECE" cx="402.309" cy="187.875" r="9.596"/>
		<path fill="#E376AE" d="M404.48,199.563c0,0.627-0.766,1.137-1.707,1.137l0,0c-0.943,0-1.707-0.51-1.707-1.137v-23.168
			c0-0.629,0.764-1.139,1.707-1.139l0,0c0.941,0,1.707,0.51,1.707,1.139V199.563z"/>
	</g>
	<path fill="#5D6AB2" d="M330.785,157.84v183.689c0,18.846-17.545,34.123-39.184,34.123H30.824c-0.174,0-0.344-0.008-0.516-0.01
		v5.887c0,18.846,17.543,34.123,39.184,34.123H330.27c21.639,0,39.184-15.277,39.184-34.123V191.951
		C369.453,173.26,352.186,158.082,330.785,157.84z"/>
	<path fill="#948EC5" d="M291.602,375.652c21.639,0,39.184-15.277,39.184-34.123V157.84c-0.172-0.002-0.344-0.012-0.516-0.012
		H69.492c-21.641,0-39.184,15.279-39.184,34.123v183.691c0.172,0.002,0.342,0.01,0.516,0.01H291.602z"/>
	<path fill="#FCD7D8" d="M83.863,177.271H51.697c-2.762,0-5,2.502-5,5.588v0.168v2.254v33.691c0,3.086,2.238,5.586,5,5.586h2.168
		c2.762,0,5-2.5,5-5.586v-28.105h24.998c2.762,0,5-2.5,5-5.586v-2.422C88.863,179.773,86.625,177.271,83.863,177.271z"/>
	<ellipse fill="#FCD7D8" cx="52.785" cy="236.547" rx="6.078" ry="5.822"/>
	<path fill="#F0AECE" d="M30.334,321.078c0,5.615-4.553,10.168-10.168,10.168l0,0c-5.615,0-10.166-4.553-10.166-10.168V205.08
		c0-5.615,4.551-10.168,10.166-10.168l0,0c5.615,0,10.168,4.553,10.168,10.168V321.078z"/>
	<path fill="#F0AECE" d="M30.166,386.496c0,5.568-4.543,10.082-10.146,10.082l0,0c-5.602,0-10.145-4.514-10.145-10.082v-25.334
		c0-5.568,4.543-10.084,10.145-10.084l0,0c5.604,0,10.146,4.516,10.146,10.084V386.496z"/>
	<g>
		<path fill="#E376AE" d="M172.738,501.451c-2.582,1.463-5.83,1.543-8.648,0.254c-2.959-1.35-5.355-4.021-6.205-7.184
			c-0.42-1.555-0.641-3.523-0.42-5.129l26.115-43.188c1.439-2.229,3.361-4.209,6.063-4.717c2.473-0.467,5.471,0.193,7.291,2.01
			c3.332,3.328,0.195,8.457-1.09,11.975c-0.695,1.908-16.111,36.199-18.018,39.834c-0.74,1.41-1.512,2.574-2.467,3.842
			C174.625,500.121,173.73,500.889,172.738,501.451z"/>
		<path fill="#E376AE" d="M280.057,501.451c2.584,1.463,5.832,1.543,8.65,0.254c2.957-1.35,5.354-4.021,6.205-7.184
			c0.42-1.555,0.641-3.523,0.42-5.129l-26.115-43.188c-1.441-2.229-3.361-4.209-6.063-4.717c-2.475-0.467-5.473,0.193-7.291,2.01
			c-3.332,3.328-0.195,8.457,1.088,11.975c0.695,1.908,16.111,36.199,18.02,39.834c0.74,1.41,1.512,2.574,2.467,3.842
			C278.172,500.121,279.064,500.889,280.057,501.451z"/>
	</g>
	<g>
		<circle fill="#E376AE" cx="402.38" cy="224.773" r="11.997"/>
		<circle fill="#F0AECE" cx="402.381" cy="224.773" r="9.596"/>
		<path fill="#E376AE" d="M395.652,234.574c-0.443,0.443-1.346,0.262-2.012-0.402l0,0c-0.666-0.668-0.846-1.568-0.402-2.012
			l16.381-16.383c0.445-0.443,1.346-0.264,2.014,0.402l0,0c0.664,0.666,0.846,1.568,0.4,2.012L395.652,234.574z"/>
	</g>
	<g>
		<circle fill="#E376AE" cx="402.381" cy="261.569" r="11.997"/>
		<circle fill="#F0AECE" cx="402.381" cy="261.57" r="9.596"/>
		<path fill="#E376AE" d="M392.58,254.842c-0.443-0.443-0.262-1.346,0.402-2.012l0,0c0.668-0.666,1.568-0.846,2.012-0.402
			l16.383,16.381c0.443,0.445,0.264,1.346-0.402,2.014l0,0c-0.666,0.664-1.568,0.846-2.012,0.4L392.58,254.842z"/>
	</g>
</g>
</svg>
