<?xml version="1.0" encoding="utf-8"?>
<!-- Generator: Adobe Illustrator 16.0.0, SVG Export Plug-In . SVG Version: 6.00 Build 0)  -->
<!DOCTYPE svg PUBLIC "-//W3C//DTD SVG 1.1//EN" "http://www.w3.org/Graphics/SVG/1.1/DTD/svg11.dtd">
<svg version="1.1" id="Layer_1" xmlns="http://www.w3.org/2000/svg" xmlns:xlink="http://www.w3.org/1999/xlink" x="0px" y="0px"
	 width="393.018px" height="432.783px" viewBox="0 0 393.018 432.783" enable-background="new 0 0 393.018 432.783"
	 xml:space="preserve">
<g>
	<path fill="#2D2C7A" d="M384.681,336.255c0,18.047-17.047,49.883-38.254,49.883H38.422C17.219,386.137,0,351.149,0,333.1
		l0.026-161.18c0-18.047,17.192-32.677,38.396-32.677h308.004c21.206,0,38.396,14.629,38.396,32.677L384.681,336.255z"/>
	<circle fill="#E59AC1" cx="332.332" cy="123.228" r="21.33"/>
	<path fill="#E59AC1" d="M333.404,107.858c0.281,0.629-0.448,1.568-1.632,2.097l0,0c-1.185,0.529-2.372,0.447-2.653-0.182
		l-22.682-50.807c-0.28-0.629,0.449-1.567,1.632-2.098l0,0c1.187-0.528,2.372-0.444,2.651,0.185L333.404,107.858z"/>
	<path fill="#E59AC1" d="M331.853,108.428c-0.33,0.604,0.326,1.596,1.465,2.219l0,0c1.137,0.619,2.327,0.631,2.654,0.027
		l52.215-100.059c0.33-0.606-0.326-1.598-1.461-2.219l0,0c-1.141-0.622-2.329-0.631-2.66-0.024L331.853,108.428z"/>
	<circle fill="#E376AE" cx="308.069" cy="56.869" r="9.332"/>
	<circle fill="#E376AE" cx="383.686" cy="9.332" r="9.332"/>
	<path fill="#54459C" d="M384.822,338.635c0,18.466-17.189,33.438-38.396,33.438H38.422c-21.204,0-38.396-14.971-38.396-33.438
		V152.877c0-18.468,17.192-33.437,38.396-33.437h308.004c21.206,0,38.396,14.969,38.396,33.437V338.635z"/>
	<path fill="#FBD8E7" d="M376.335,334.538c0,17.652-16.434,31.962-36.7,31.962H45.217c-20.269,0-36.7-14.31-36.7-31.962V156.973
		c0-17.653,16.431-31.962,36.7-31.962h294.418c20.267,0,36.7,14.311,36.7,31.962V334.538z"/>
	<path fill="#F0AECE" d="M365.027,225.8c0,10.286-7.431,18.623-16.598,18.623h-4.978c-9.169,0-16.598-8.337-16.598-18.623v-67.658
		c0-10.286,7.429-18.623,16.598-18.623h4.978c9.167,0,16.598,8.337,16.598,18.623V225.8z"/>
	<g>
		<circle fill="#E376AE" cx="335.523" cy="261.031" r="4.404"/>
		<circle fill="#E376AE" cx="354.605" cy="261.031" r="4.404"/>
		<circle fill="#E376AE" cx="335.523" cy="278.465" r="4.403"/>
		<circle fill="#E376AE" cx="354.605" cy="278.465" r="4.403"/>
		<circle fill="#E376AE" cx="335.523" cy="295.893" r="4.402"/>
		<circle fill="#E376AE" cx="354.605" cy="295.893" r="4.402"/>
	</g>
	<g>
		<path fill="#F0AECE" d="M358.825,314.662c0,1.438-0.741,2.605-1.657,2.605h-24.579c-0.916,0-1.655-1.167-1.655-2.605l0,0
			c0-1.437,0.739-2.604,1.655-2.604h24.579C358.083,312.059,358.825,313.225,358.825,314.662L358.825,314.662z"/>
		<path fill="#F0AECE" d="M358.825,325.821c0,1.438-0.741,2.603-1.657,2.603h-24.579c-0.916,0-1.655-1.164-1.655-2.603l0,0
			c0-1.438,0.739-2.604,1.655-2.604h24.579C358.083,323.216,358.825,324.384,358.825,325.821L358.825,325.821z"/>
		<path fill="#F0AECE" d="M358.825,336.978c0,1.438-0.741,2.603-1.657,2.603h-24.579c-0.916,0-1.655-1.165-1.655-2.603l0,0
			c0-1.438,0.739-2.604,1.655-2.604h24.579C358.083,334.374,358.825,335.54,358.825,336.978L358.825,336.978z"/>
	</g>
	<g>
		<circle fill="#E376AE" cx="346.413" cy="161.773" r="10.331"/>
		<circle fill="#F0AECE" cx="346.414" cy="161.772" r="8.263"/>
		<path fill="#E376AE" d="M348.282,171.837c0,0.54-0.658,0.98-1.47,0.98l0,0c-0.812,0-1.471-0.44-1.471-0.98v-19.949
			c0-0.542,0.658-0.98,1.471-0.98l0,0c0.811,0,1.47,0.438,1.47,0.98V171.837z"/>
	</g>
	<path fill="#5D6AB2" d="M284.827,135.911v158.168c0,16.228-15.107,29.382-33.74,29.382H26.541c-0.15,0-0.296-0.006-0.445-0.008
		v5.068c0,16.228,15.106,29.383,33.741,29.383h224.547c18.633,0,33.74-13.154,33.74-29.383V165.283
		C318.123,149.188,303.255,136.12,284.827,135.911z"/>
	<path fill="#948EC5" d="M251.088,323.461c18.633,0,33.74-13.153,33.74-29.382V135.911c-0.148-0.002-0.297-0.01-0.444-0.01H59.838
		c-18.634,0-33.741,13.156-33.741,29.382v158.17c0.148,0.002,0.295,0.008,0.445,0.008H251.088z"/>
	<path fill="#FCD7D8" d="M72.211,152.642H44.514c-2.379,0-4.306,2.154-4.306,4.811v0.145v1.941v29.011
		c0,2.657,1.927,4.809,4.306,4.809h1.866c2.38,0,4.306-2.152,4.306-4.809v-24.201h21.524c2.379,0,4.306-2.153,4.306-4.811v-2.085
		C76.517,154.796,74.591,152.642,72.211,152.642z"/>
	<ellipse fill="#FCD7D8" cx="45.451" cy="203.682" rx="5.233" ry="5.013"/>
	<path fill="#F0AECE" d="M26.12,276.469c0,4.835-3.921,8.755-8.756,8.755l0,0c-4.835,0-8.753-3.92-8.753-8.755v-99.882
		c0-4.835,3.918-8.755,8.753-8.755l0,0c4.834,0,8.756,3.92,8.756,8.755V276.469z"/>
	<path fill="#F0AECE" d="M25.975,332.798c0,4.794-3.912,8.681-8.736,8.681l0,0c-4.824,0-8.735-3.887-8.735-8.681v-21.813
		c0-4.794,3.912-8.684,8.735-8.684l0,0c4.826,0,8.736,3.89,8.736,8.684V332.798z"/>
	<g>
		<path fill="#E376AE" d="M148.738,431.782c-2.222,1.26-5.019,1.328-7.446,0.218c-2.548-1.161-4.612-3.462-5.343-6.186
			c-0.361-1.339-0.551-3.034-0.361-4.416l22.487-37.188c1.239-1.919,2.893-3.624,5.219-4.062c2.13-0.402,4.711,0.167,6.278,1.73
			c2.869,2.866,0.169,7.282-0.938,10.312c-0.598,1.644-13.873,31.17-15.513,34.3c-0.638,1.215-1.303,2.217-2.125,3.309
			C150.364,430.635,149.593,431.298,148.738,431.782z"/>
		<path fill="#E376AE" d="M241.148,431.782c2.225,1.26,5.021,1.328,7.448,0.218c2.546-1.161,4.61-3.462,5.343-6.186
			c0.362-1.339,0.552-3.034,0.362-4.416l-22.487-37.188c-1.241-1.919-2.895-3.624-5.221-4.062c-2.131-0.402-4.713,0.167-6.278,1.73
			c-2.869,2.866-0.167,7.282,0.938,10.312c0.598,1.644,13.872,31.171,15.516,34.3c0.638,1.215,1.302,2.217,2.124,3.309
			C239.525,430.635,240.292,431.298,241.148,431.782z"/>
	</g>
	<g>
		<circle fill="#E376AE" cx="346.474" cy="193.543" r="10.331"/>
		<circle fill="#F0AECE" cx="346.477" cy="193.545" r="8.263"/>
		<path fill="#E376AE" d="M340.682,201.983c-0.381,0.381-1.159,0.226-1.732-0.346l0,0c-0.572-0.575-0.727-1.35-0.347-1.731
			l14.106-14.108c0.383-0.382,1.159-0.228,1.733,0.346l0,0c0.572,0.574,0.729,1.351,0.345,1.732L340.682,201.983z"/>
	</g>
	<g>
		<circle fill="#E376AE" cx="346.477" cy="225.228" r="10.331"/>
		<circle fill="#F0AECE" cx="346.477" cy="225.229" r="8.263"/>
		<path fill="#E376AE" d="M338.037,219.436c-0.382-0.381-0.226-1.159,0.346-1.732l0,0c0.574-0.572,1.351-0.728,1.732-0.346
			l14.106,14.104c0.381,0.383,0.227,1.159-0.346,1.733l0,0c-0.573,0.572-1.352,0.729-1.732,0.345L338.037,219.436z"/>
	</g>
</g>
</svg>
