<?xml version="1.0" encoding="utf-8"?>
<!-- Generator: Adobe Illustrator 16.0.0, SVG Export Plug-In . SVG Version: 6.00 Build 0)  -->
<!DOCTYPE svg PUBLIC "-//W3C//DTD SVG 1.1//EN" "http://www.w3.org/Graphics/SVG/1.1/DTD/svg11.dtd">
<svg version="1.1" id="Layer_1" xmlns="http://www.w3.org/2000/svg" xmlns:xlink="http://www.w3.org/1999/xlink" x="0px" y="0px"
	 width="91.494px" height="31.479px" viewBox="0 0 91.494 31.479" enable-background="new 0 0 91.494 31.479" xml:space="preserve">
<g>
	<g>
		<path fill="none" stroke="#FFFFFF" stroke-width="3" stroke-miterlimit="10" d="M89.845,24.054
			c-0.696-0.419-1.021-2.374-1.19-3.05c-1.137-4.496,0.396-9.504-1.805-13.76c-1.77-3.42-5.234-5.745-9.122-5.745
			c-5.634,0-10.2,4.714-10.2,10.524c0,0.771-0.646,10.028-3.311,12.153c0,0-0.01,0.155-0.01,0.183c0,0.813,5.953,1.366,13.004,1.366
			c7.052,0,12.768-0.66,12.768-1.473C89.979,24.228,90.06,24.183,89.845,24.054z"/>
		<path fill="none" stroke="#FFFFFF" stroke-width="3" stroke-miterlimit="10" d="M77.212,25.727c-1.495,0-2.938-0.025-4.287-0.072
			c0,0.005-0.002,0.009-0.002,0.009c0,2.385,1.93,4.314,4.313,4.314c2.381,0,4.311-1.931,4.311-4.313c0,0-0.004-0.018-0.004-0.026
			C80.188,25.694,78.733,25.727,77.212,25.727z"/>
	</g>
	<g>
		<circle fill="none" stroke="#FFFFFF" stroke-width="3" stroke-miterlimit="10" cx="11.417" cy="12.436" r="6.853"/>
		<path fill="none" stroke="#FFFFFF" stroke-width="3" stroke-miterlimit="10" d="M1.5,30.957c0-6.256,4.477-11.326,10-11.326
			s10,5.07,10,11.326"/>
		<path fill="none" stroke="#FFFFFF" stroke-width="3" stroke-linecap="round" stroke-linejoin="round" stroke-miterlimit="10" d="
			M21.166,20.854h5.215c0.723,0.104-0.309,4.26-0.902,5.354c0,0,2.979,0.563,6.119-5.354h9.043c1.236,0,2.238-0.896,2.238-2V4.021
			c0-1.104-1.002-2-2.238-2H14.439"/>
	</g>
</g>
</svg>
