<?xml version="1.0" encoding="utf-8"?>
<!-- Generator: Adobe Illustrator 16.0.0, SVG Export Plug-In . SVG Version: 6.00 Build 0)  -->
<!DOCTYPE svg PUBLIC "-//W3C//DTD SVG 1.1//EN" "http://www.w3.org/Graphics/SVG/1.1/DTD/svg11.dtd">
<svg version="1.1" id="Layer_1" xmlns="http://www.w3.org/2000/svg" xmlns:xlink="http://www.w3.org/1999/xlink" x="0px" y="0px"
	 width="49.47px" height="455.793px" viewBox="0 0 49.47 455.793" enable-background="new 0 0 49.47 455.793" xml:space="preserve">
<g>
	<g>
		<path fill="none" stroke="#FFFFFF" stroke-width="3.2699" stroke-miterlimit="10" d="M33.111,36.985v7.67
			c0,1.804-1.465,3.269-3.271,3.269H7.359c-1.806,0-3.27-1.465-3.27-3.269V16.451c0-1.807,1.464-3.27,3.27-3.27h8.448"/>
		<path fill="none" stroke="#FFFFFF" stroke-width="3.2699" stroke-miterlimit="10" d="M35.767,1.635H19.418
			c-1.806,0-3.27,1.465-3.27,3.271v28.203c0,1.806,1.464,3.269,3.27,3.269h22.48c1.805,0,3.27-1.463,3.27-3.269V11.037L35.767,1.635
			z"/>
		<polyline fill="none" stroke="#FFFFFF" stroke-width="3.2699" stroke-miterlimit="10" points="45.143,11.072 35.684,11.037 
			35.672,1.601 		"/>
	</g>
	<g>
		<path fill="none" stroke="#FFFFFF" stroke-width="2.8672" stroke-miterlimit="10" d="M45.037,120.025
			c0,8.049-6.522,14.576-14.573,14.576c-8.052,0-14.573-6.527-14.573-14.576s6.521-14.574,14.573-14.574
			C38.515,105.451,45.037,111.977,45.037,120.025z"/>
		
			<line fill="none" stroke="#FFFFFF" stroke-width="2.8672" stroke-miterlimit="10" x1="20.756" y1="130.584" x2="3.589" y2="147.751"/>
	</g>
	<g>
		<path fill="none" stroke="#FFFFFF" stroke-width="2.6681" stroke-miterlimit="10" d="M40.732,220.644c0,3.29-2.67,5.96-5.958,5.96
			c-3.293,0-5.96-2.67-5.96-5.96c0-3.292,2.667-5.958,5.96-5.958C38.063,214.686,40.732,217.352,40.732,220.644z"/>
		<circle fill="none" stroke="#FFFFFF" stroke-width="2.6681" stroke-miterlimit="10" cx="14.064" cy="212.061" r="5.959"/>
		<circle fill="none" stroke="#FFFFFF" stroke-width="2.6681" stroke-miterlimit="10" cx="14.064" cy="243.941" r="5.959"/>
		
			<line fill="none" stroke="#FFFFFF" stroke-width="2.6681" stroke-miterlimit="10" x1="14.063" y1="218.704" x2="14.063" y2="237.302"/>
		<path fill="none" stroke="#FFFFFF" stroke-width="2.6681" stroke-miterlimit="10" d="M34.264,227.08c0,0,0.92,3.779-7.46,4.904
			c-8.379,1.124-10.32,0.204-11.854,5.824"/>
	</g>
	<g>
		
			<ellipse fill="none" stroke="#FFFFFF" stroke-width="2.6328" stroke-miterlimit="10" cx="12.421" cy="341.408" rx="7.903" ry="11.343"/>
		
			<line fill="none" stroke="#FFFFFF" stroke-width="2.0917" stroke-miterlimit="10" x1="3.906" y1="338.65" x2="21.277" y2="338.65"/>
		<g>
			
				<line fill="none" stroke="#FFFFFF" stroke-width="2.0917" stroke-miterlimit="10" x1="4.521" y1="336.229" x2="1.199" y2="332.909"/>
			<line fill="none" stroke="#FFFFFF" stroke-width="2.0917" stroke-miterlimit="10" x1="4.698" y1="342.3" x2="0" y2="342.3"/>
			
				<line fill="none" stroke="#FFFFFF" stroke-width="2.0917" stroke-miterlimit="10" x1="5.029" y1="348.371" x2="1.71" y2="351.693"/>
		</g>
		<g>
			
				<line fill="none" stroke="#FFFFFF" stroke-width="2.0917" stroke-miterlimit="10" x1="20.283" y1="336.229" x2="23.604" y2="332.909"/>
			
				<line fill="none" stroke="#FFFFFF" stroke-width="2.0917" stroke-miterlimit="10" x1="20.106" y1="342.3" x2="24.804" y2="342.3"/>
			
				<line fill="none" stroke="#FFFFFF" stroke-width="2.0917" stroke-miterlimit="10" x1="19.773" y1="348.371" x2="23.094" y2="351.693"/>
		</g>
		<polyline fill="none" stroke="#FFFFFF" stroke-width="3.0278" stroke-miterlimit="10" points="16.995,327.105 16.995,307.863 
			46.57,325.967 25.625,338.789 		"/>
	</g>
	<g>
		<path fill="none" stroke="#FFFFFF" stroke-width="3.2699" stroke-miterlimit="10" d="M20.494,417.576H5.576
			c-1.805,0-3.271,1.465-3.271,3.27v15.021h18.188V417.576z"/>
		<path fill="none" stroke="#FFFFFF" stroke-width="3.2699" stroke-miterlimit="10" d="M20.494,435.867v18.291h14.92
			c1.807,0,3.27-1.465,3.27-3.27v-15.021H20.494z"/>
		<path fill="none" stroke="#FFFFFF" stroke-width="3.2699" stroke-miterlimit="10" d="M2.306,435.867v15.021
			c0,1.805,1.466,3.27,3.271,3.27h14.918v-18.291H2.306z"/>
		<path fill="none" stroke="#FFFFFF" stroke-width="3.2699" stroke-miterlimit="10" d="M46.321,423.594
			c0,1.676-1.361,3.035-3.036,3.035H31.018c-1.677,0-3.036-1.359-3.036-3.035v-12.269c0-1.677,1.359-3.035,3.036-3.035h12.268
			c1.675,0,3.036,1.358,3.036,3.035V423.594z"/>
	</g>
</g>
</svg>
