<?xml version="1.0" encoding="utf-8"?>
<!-- Generator: Adobe Illustrator 16.0.0, SVG Export Plug-In . SVG Version: 6.00 Build 0)  -->
<!DOCTYPE svg PUBLIC "-//W3C//DTD SVG 1.1//EN" "http://www.w3.org/Graphics/SVG/1.1/DTD/svg11.dtd">
<svg version="1.1" id="Layer_1" xmlns="http://www.w3.org/2000/svg" xmlns:xlink="http://www.w3.org/1999/xlink" x="0px" y="0px"
	 width="111.225px" height="33.248px" viewBox="0 0 111.225 33.248" enable-background="new 0 0 111.225 33.248"
	 xml:space="preserve">
<g>
	<g>
		<circle fill="none" stroke="#FFFFFF" stroke-width="3" stroke-miterlimit="10" cx="14.054" cy="14.053" r="12.554"/>
		<path fill="#FFFFFF" d="M16.235,14.055l4.05-4.05c0.291-0.291,0.451-0.68,0.451-1.091c0-0.412-0.16-0.8-0.448-1.089
			c-0.582-0.588-1.601-0.586-2.184-0.002l-4.051,4.049l-4.049-4.047c-0.584-0.588-1.602-0.588-2.184,0
			c-0.6,0.6-0.6,1.578,0.001,2.18l4.05,4.05l-4.051,4.049c-0.6,0.603-0.6,1.581,0.001,2.183c0.291,0.291,0.679,0.453,1.091,0.453
			s0.799-0.162,1.091-0.453l4.05-4.051l4.051,4.053c0.292,0.289,0.68,0.451,1.092,0.451s0.799-0.162,1.089-0.453
			c0.601-0.6,0.602-1.578,0-2.183L16.235,14.055z"/>
	</g>
	<text transform="matrix(1 0 0 1 36.8955 24.1738)" fill="#FFFFFF" font-family="'MyriadHebrew-Regular'" font-size="27.9204">0</text>
	<g>
		<polygon fill="none" stroke="#FFFFFF" stroke-width="2" stroke-miterlimit="10" points="61.847,24.752 74.06,3.6 86.272,24.752 		
			"/>
		<text transform="matrix(1 0 0 1 71.6802 21.5273)" fill="#FFFFFF" font-family="'MyriadHebrew-Regular'" font-size="16.3924">!</text>
	</g>
	<text transform="matrix(1 0 0 1 96.9014 24.1738)" fill="#FFFFFF" font-family="'MyriadHebrew-Regular'" font-size="27.9204">0</text>
</g>
</svg>
