<?xml version="1.0" encoding="utf-8"?>
<!-- Generator: Adobe Illustrator 16.0.0, SVG Export Plug-In . SVG Version: 6.00 Build 0)  -->
<!DOCTYPE svg PUBLIC "-//W3C//DTD SVG 1.1//EN" "http://www.w3.org/Graphics/SVG/1.1/DTD/svg11.dtd">
<svg version="1.1" xmlns="http://www.w3.org/2000/svg" xmlns:xlink="http://www.w3.org/1999/xlink" x="0px" y="0px"
	 width="34.399px" height="44.957px" viewBox="0 0 34.399 44.957" enable-background="new 0 0 34.399 44.957" xml:space="preserve">
<g id="Layer_1">
	<g>
		<g>
			<g>
				<path fill="#6D4C13" d="M24.387,0H1.172C0.524,0,0,0.521,0,1.537l0.024,42.316c0,0.276,0.499,0.916,1.147,0.916h32.059
					c0.645,0,1.138-0.765,1.138-1.041l0.03-33.354c0-0.559-0.074-0.738-0.203-0.867l-9.309-9.301C24.754,0.073,24.575,0,24.387,0
					L24.387,0z M24.387,0"/>
			</g>
			<g>
				<path fill="#E9E9E0" d="M33.231,44.957H1.172C0.524,44.957,0,44.432,0,43.785v-12.43h34.398v12.43
					C34.399,44.432,33.875,44.957,33.231,44.957L33.231,44.957z M33.231,44.957"/>
			</g>
			<g>
				<path fill="#FFBD2E" d="M20.279,24.547h-1.912l-1.633-5.338h-4.91l-1.561,5.338H8.42l4.864-16.535h1.962L20.279,24.547z
					 M16.31,17.462l-2.056-6.712l-1.984,6.712H16.31z M16.31,17.462"/>
			</g>
			<g>
				<path fill="#FFBD2E" d="M24.295,8.744c0,0.268-0.095,0.496-0.285,0.684c-0.188,0.189-0.412,0.282-0.672,0.282
					s-0.487-0.099-0.687-0.295c-0.196-0.195-0.294-0.421-0.294-0.671c0-0.254,0.098-0.479,0.294-0.676
					c0.199-0.195,0.427-0.297,0.687-0.297s0.484,0.095,0.672,0.285C24.201,8.247,24.295,8.476,24.295,8.744L24.295,8.744z
					 M24.155,24.547h-1.702V12.711h1.702V24.547z M24.155,24.547"/>
			</g>
			<g>
				<path fill="#56390E" d="M24.801,0.12v9.481h9.477L24.801,0.12z M24.801,0.12"/>
			</g>
		</g>
		<g>
			<path fill="#56390E" d="M17.467,38.868h-1.969L14.986,40.2h-1.02l2.074-5.227h0.875L18.99,40.2h-1.012L17.467,38.868z
				 M16.475,36.231c-0.183,0.547-0.346,1.004-0.489,1.371l-0.178,0.465h1.351l-0.178-0.465c-0.142-0.37-0.305-0.827-0.489-1.371
				H16.475z"/>
			<path fill="#56390E" d="M19.125,40.2v-5.227h0.957V40.2H19.125z"/>
		</g>
	</g>
</g>
<g id="레이어_3" display="none">
</g>
</svg>
