<?xml version="1.0" encoding="utf-8"?>
<!-- Generator: Adobe Illustrator 16.0.0, SVG Export Plug-In . SVG Version: 6.00 Build 0)  -->
<!DOCTYPE svg PUBLIC "-//W3C//DTD SVG 1.1//EN" "http://www.w3.org/Graphics/SVG/1.1/DTD/svg11.dtd">
<svg version="1.1" xmlns="http://www.w3.org/2000/svg" xmlns:xlink="http://www.w3.org/1999/xlink" x="0px" y="0px"
	 width="34.398px" height="44.801px" viewBox="0 0 34.398 44.801" enable-background="new 0 0 34.398 44.801" xml:space="preserve">
<g id="Layer_1">
	<g>
		<g>
			<path fill="#5B5B5B" d="M24.387,0H1.172C0.523,0,0,0.522,0,1.538v42.461C0,44.274,0.523,44.8,1.172,44.8H33.23
				c0.645,0,1.168-0.525,1.168-0.801V10.382c0-0.559-0.074-0.738-0.203-0.867l-9.309-9.309C24.754,0.073,24.574,0,24.387,0L24.387,0
				z M24.387,0"/>
		</g>
		<g>
			<path fill="#E9E9E0" d="M33.23,44.8H1.172C0.523,44.8,0,44.274,0,43.628v-12.43h34.398v12.43
				C34.398,44.274,33.875,44.8,33.23,44.8L33.23,44.8z M33.23,44.8"/>
		</g>
		<g>
			<path fill="#353535" d="M24.801,0.12v9.48h9.477L24.801,0.12z M24.801,0.12"/>
		</g>
		<g>
			<path fill="#444444" d="M14.046,34.089c0,0.17-0.036,0.326-0.107,0.467c-0.072,0.143-0.19,0.26-0.355,0.354v0.012
				c0.092,0.033,0.176,0.076,0.252,0.127c0.076,0.053,0.141,0.114,0.195,0.186s0.097,0.151,0.127,0.241s0.045,0.19,0.045,0.302
				c0,0.096-0.014,0.198-0.042,0.308c-0.029,0.109-0.079,0.216-0.15,0.317c-0.072,0.104-0.167,0.197-0.287,0.283
				c-0.12,0.086-0.27,0.154-0.452,0.205c-0.046,0.012-0.096,0.022-0.15,0.032s-0.114,0.019-0.18,0.024
				c-0.066,0.008-0.14,0.012-0.221,0.016c-0.081,0.002-0.172,0.004-0.273,0.004h-1.072v-3.92h1.282c0.274,0,0.495,0.029,0.662,0.088
				c0.125,0.043,0.233,0.1,0.325,0.168c0.092,0.07,0.168,0.146,0.228,0.232c0.06,0.084,0.104,0.175,0.132,0.27
				C14.032,33.898,14.046,33.993,14.046,34.089z M12.66,34.66c0.184,0,0.321-0.02,0.411-0.059c0.101-0.045,0.173-0.106,0.216-0.187
				c0.043-0.078,0.065-0.168,0.065-0.268c0-0.104-0.025-0.195-0.075-0.277c-0.049-0.08-0.134-0.141-0.253-0.18
				c-0.05-0.016-0.107-0.026-0.174-0.033c-0.066-0.007-0.148-0.011-0.245-0.011H12.05v1.014H12.66z M12.05,35.261v1.104h0.441
				c0.117,0,0.218-0.003,0.303-0.011c0.085-0.006,0.157-0.018,0.218-0.033c0.094-0.021,0.172-0.05,0.234-0.086
				s0.113-0.077,0.152-0.123s0.066-0.098,0.083-0.152c0.017-0.057,0.025-0.115,0.025-0.178c0-0.109-0.028-0.205-0.085-0.287
				s-0.146-0.144-0.268-0.185c-0.053-0.018-0.116-0.03-0.188-0.038c-0.071-0.008-0.164-0.012-0.275-0.012H12.05z"/>
			<path fill="#444444" d="M16.75,35.967h-1.389L15,36.966h-0.72l1.464-3.92h0.617l1.464,3.92h-0.714L16.75,35.967z M16.05,33.989
				c-0.129,0.41-0.244,0.753-0.345,1.028l-0.126,0.349h0.953l-0.126-0.349c-0.1-0.278-0.215-0.621-0.345-1.028H16.05z"/>
			<path fill="#444444" d="M19.889,33.579c-0.184,0-0.353,0.032-0.508,0.097s-0.289,0.158-0.4,0.281s-0.198,0.275-0.26,0.456
				s-0.094,0.387-0.094,0.619c0,0.23,0.028,0.434,0.085,0.607c0.057,0.176,0.139,0.321,0.245,0.438s0.237,0.206,0.39,0.265
				c0.153,0.061,0.328,0.09,0.522,0.09c0.14,0,0.282-0.012,0.427-0.035c0.145-0.023,0.281-0.058,0.408-0.103v0.618
				c-0.128,0.039-0.267,0.069-0.416,0.092s-0.303,0.034-0.463,0.034c-0.312,0-0.587-0.048-0.824-0.142
				c-0.237-0.095-0.435-0.229-0.594-0.402c-0.159-0.172-0.278-0.379-0.358-0.621c-0.08-0.24-0.12-0.507-0.12-0.798
				c0-0.299,0.042-0.576,0.128-0.832s0.208-0.478,0.369-0.665c0.161-0.188,0.362-0.335,0.604-0.442s0.515-0.162,0.82-0.164
				c0.156,0,0.304,0.012,0.444,0.034s0.266,0.054,0.377,0.095v0.609c-0.147-0.049-0.284-0.083-0.411-0.103
				C20.134,33.589,20.01,33.579,19.889,33.579z"/>
			<path fill="#444444" d="M21.14,36.966v-3.92h0.675v1.784h0.011l1.392-1.784h0.838l-1.538,1.942l1.665,1.978h-0.865l-1.491-1.77
				h-0.011v1.77H21.14z"/>
			<path fill="#444444" d="M9.251,41.469H8.424v-0.601h1.502v1.978c-0.055,0.021-0.125,0.044-0.211,0.067s-0.181,0.045-0.287,0.063
				c-0.105,0.019-0.214,0.034-0.327,0.046c-0.112,0.012-0.223,0.018-0.333,0.018c-0.331,0-0.62-0.048-0.867-0.142
				c-0.248-0.095-0.453-0.229-0.618-0.4s-0.288-0.377-0.369-0.613c-0.082-0.238-0.123-0.5-0.123-0.787
				c0-0.203,0.021-0.396,0.064-0.582c0.043-0.184,0.106-0.354,0.19-0.512c0.083-0.157,0.185-0.3,0.304-0.427
				c0.12-0.127,0.256-0.235,0.41-0.325s0.321-0.158,0.504-0.207c0.183-0.047,0.379-0.071,0.588-0.071
				c0.186,0,0.362,0.015,0.529,0.042c0.167,0.029,0.304,0.063,0.411,0.104v0.609c-0.143-0.049-0.288-0.086-0.434-0.111
				s-0.293-0.038-0.442-0.038c-0.2,0-0.388,0.032-0.563,0.096c-0.174,0.063-0.326,0.157-0.453,0.281
				c-0.128,0.124-0.229,0.276-0.302,0.458c-0.074,0.182-0.11,0.392-0.11,0.63c0.001,0.463,0.116,0.811,0.342,1.041
				c0.226,0.232,0.546,0.348,0.962,0.348c0.077,0,0.157-0.004,0.24-0.014c0.083-0.008,0.155-0.02,0.218-0.033V41.469z"/>
			<path fill="#444444" d="M13.229,40.224c0,0.273-0.071,0.506-0.214,0.695c-0.142,0.191-0.362,0.332-0.66,0.424v0.012l1.097,1.611
				h-0.81l-1.003-1.518h-0.463v1.518H10.5v-3.92h1.122c0.186,0,0.358,0.012,0.518,0.033c0.16,0.023,0.297,0.057,0.411,0.102
				c0.217,0.088,0.384,0.219,0.502,0.391C13.169,39.745,13.229,39.962,13.229,40.224z M11.508,40.848
				c0.154,0,0.286-0.007,0.393-0.022c0.107-0.014,0.198-0.036,0.271-0.065c0.136-0.055,0.23-0.129,0.282-0.224
				c0.053-0.095,0.079-0.204,0.079-0.327c0-0.105-0.021-0.198-0.062-0.28c-0.041-0.08-0.111-0.145-0.211-0.191
				c-0.064-0.031-0.145-0.055-0.242-0.068c-0.098-0.016-0.218-0.022-0.361-0.022h-0.482v1.201H11.508z"/>
			<path fill="#444444" d="M17.22,41.006c0,0.299-0.04,0.573-0.12,0.821c-0.08,0.25-0.197,0.464-0.35,0.644
				s-0.342,0.319-0.565,0.419s-0.478,0.149-0.762,0.149s-0.539-0.05-0.762-0.149c-0.223-0.1-0.412-0.239-0.565-0.419
				s-0.27-0.394-0.35-0.644c-0.08-0.248-0.12-0.522-0.12-0.821s0.04-0.573,0.12-0.821c0.08-0.25,0.197-0.464,0.35-0.644
				s0.342-0.319,0.565-0.419c0.224-0.1,0.478-0.149,0.762-0.149s0.539,0.05,0.762,0.149s0.412,0.239,0.565,0.419
				s0.271,0.394,0.35,0.644C17.18,40.433,17.22,40.707,17.22,41.006z M16.522,41.006c0-0.238-0.028-0.446-0.083-0.626
				c-0.055-0.178-0.131-0.327-0.229-0.446c-0.098-0.119-0.213-0.208-0.348-0.267c-0.134-0.059-0.281-0.088-0.441-0.088
				c-0.16,0-0.307,0.029-0.441,0.088s-0.25,0.147-0.347,0.267c-0.098,0.119-0.174,0.269-0.229,0.446
				c-0.055,0.18-0.083,0.388-0.083,0.626s0.027,0.446,0.083,0.626c0.055,0.178,0.131,0.327,0.229,0.445
				c0.097,0.118,0.213,0.207,0.347,0.266c0.134,0.061,0.281,0.09,0.441,0.09c0.16,0,0.307-0.029,0.441-0.09
				c0.134-0.059,0.25-0.147,0.348-0.266c0.097-0.118,0.173-0.268,0.229-0.445C16.495,41.452,16.522,41.244,16.522,41.006z"/>
			<path fill="#444444" d="M19.209,43.039c-0.193,0-0.367-0.021-0.521-0.06c-0.154-0.04-0.291-0.098-0.408-0.174
				c-0.118-0.074-0.218-0.166-0.3-0.275c-0.083-0.107-0.149-0.23-0.199-0.367c-0.04-0.109-0.069-0.23-0.086-0.363
				c-0.018-0.133-0.026-0.281-0.026-0.445v-2.309h0.675v2.244c0,0.277,0.031,0.494,0.094,0.65c0.07,0.174,0.172,0.3,0.306,0.377
				c0.134,0.077,0.292,0.115,0.474,0.115c0.182,0,0.34-0.038,0.474-0.115c0.134-0.077,0.236-0.203,0.306-0.377
				c0.063-0.156,0.094-0.373,0.094-0.65v-2.244h0.675v2.309c0,0.164-0.009,0.313-0.026,0.445c-0.018,0.133-0.047,0.254-0.087,0.363
				c-0.05,0.137-0.116,0.26-0.2,0.367c-0.083,0.109-0.186,0.201-0.306,0.275c-0.121,0.076-0.259,0.134-0.415,0.174
				C19.577,43.019,19.402,43.039,19.209,43.039z"/>
			<path fill="#444444" d="M23.302,40.868c0.265,0.4,0.479,0.756,0.645,1.066h0.017c-0.022-0.51-0.033-0.881-0.033-1.113v-1.775
				h0.675v3.92h-0.708l-1.202-1.805c-0.211-0.313-0.43-0.675-0.656-1.087h-0.016c0.022,0.48,0.033,0.853,0.033,1.116v1.775H21.38
				v-3.92h0.708L23.302,40.868z"/>
			<path fill="#444444" d="M25.233,42.966v-3.92h0.976c0.086,0,0.174,0.003,0.263,0.009c0.089,0.006,0.176,0.015,0.26,0.026
				s0.167,0.026,0.246,0.043c0.079,0.017,0.151,0.036,0.218,0.06c0.196,0.066,0.37,0.156,0.521,0.27
				c0.15,0.113,0.277,0.247,0.379,0.401s0.179,0.326,0.231,0.518c0.052,0.189,0.079,0.396,0.079,0.619
				c0,0.211-0.022,0.408-0.066,0.594c-0.044,0.184-0.111,0.353-0.201,0.505c-0.09,0.152-0.204,0.287-0.34,0.403
				s-0.299,0.211-0.486,0.285c-0.156,0.063-0.333,0.109-0.532,0.141c-0.198,0.031-0.422,0.047-0.67,0.047H25.233z M26.187,42.365
				c0.396,0,0.704-0.058,0.926-0.173c0.197-0.104,0.346-0.254,0.447-0.451s0.151-0.449,0.151-0.756c0-0.16-0.017-0.305-0.049-0.434
				c-0.033-0.129-0.081-0.243-0.144-0.344s-0.138-0.188-0.228-0.26c-0.089-0.072-0.189-0.132-0.302-0.179
				c-0.104-0.043-0.221-0.074-0.35-0.094c-0.128-0.02-0.273-0.029-0.433-0.029h-0.298v2.719H26.187z"/>
		</g>
	</g>
</g>
<g id="레이어_3" display="none">
</g>
</svg>
