<?xml version="1.0" encoding="utf-8"?>
<!-- Generator: Adobe Illustrator 16.0.0, SVG Export Plug-In . SVG Version: 6.00 Build 0)  -->
<!DOCTYPE svg PUBLIC "-//W3C//DTD SVG 1.1//EN" "http://www.w3.org/Graphics/SVG/1.1/DTD/svg11.dtd">
<svg version="1.1" id="레이어_1" xmlns="http://www.w3.org/2000/svg" xmlns:xlink="http://www.w3.org/1999/xlink" x="0px"
	 y="0px" width="34.398px" height="44.801px" viewBox="0 0 34.398 44.801" enable-background="new 0 0 34.398 44.801"
	 xml:space="preserve">
<g id="Layer_1">
	<g>
		<g>
			<path fill="#E9E9E0" d="M24.387,0H1.172C0.523,0,0,0.522,0,1.538v42.461C0,44.273,0.523,44.8,1.172,44.8H33.23
				c0.645,0,1.168-0.524,1.168-0.801V10.382c0-0.559-0.074-0.738-0.203-0.867l-9.309-9.309C24.754,0.073,24.574,0,24.387,0L24.387,0
				z"/>
		</g>
		<g>
			<path fill="#5B5B5B" d="M33.23,44.8H1.172C0.523,44.8,0,44.273,0,43.628v-12.43h34.398v12.43
				C34.398,44.273,33.875,44.8,33.23,44.8L33.23,44.8z"/>
		</g>
		<g>
			<g>
				<path fill="#5B5B5B" d="M22.902,9.542H11.675c-0.358,0-0.649-0.291-0.649-0.65s0.291-0.65,0.649-0.65h11.228
					c0.359,0,0.649,0.291,0.649,0.65S23.261,9.542,22.902,9.542z"/>
			</g>
			<g>
				<path fill="#5B5B5B" d="M9.698,22.887c-0.359,0-0.65-0.291-0.65-0.65V10.894c0-0.359,0.291-0.65,0.65-0.65s0.65,0.291,0.65,0.65
					v11.344C10.348,22.596,10.057,22.887,9.698,22.887z"/>
			</g>
			<g>
				<path fill="#5B5B5B" d="M24.701,22.887c-0.359,0-0.65-0.291-0.65-0.65V10.894c0-0.359,0.291-0.65,0.65-0.65
					s0.65,0.291,0.65,0.65v11.344C25.351,22.596,25.06,22.887,24.701,22.887z"/>
			</g>
			<g>
				<path fill="#5B5B5B" d="M22.874,24.4H11.646c-0.359,0-0.65-0.291-0.65-0.649s0.291-0.649,0.65-0.649h11.228
					c0.359,0,0.65,0.291,0.65,0.649S23.233,24.4,22.874,24.4z"/>
			</g>
		</g>
		<g>
			<g>
				<ellipse fill="#5B5B5B" cx="9.698" cy="9.044" rx="0.745" ry="0.729"/>
			</g>
			<g>
				<ellipse fill="#5B5B5B" cx="9.698" cy="23.925" rx="0.745" ry="0.727"/>
			</g>
			<g>
				<ellipse fill="#5B5B5B" cx="24.7" cy="23.925" rx="0.745" ry="0.727"/>
			</g>
			<g>
				<ellipse fill="#5B5B5B" cx="24.7" cy="9.044" rx="0.745" ry="0.729"/>
			</g>
		</g>
		<g>
			<path fill="#D9D7CA" d="M24.801,0.12V9.6h9.478L24.801,0.12z"/>
		</g>
		<g>
			<path fill="#FFFFFF" d="M10.406,34.109c0,0.17-0.036,0.326-0.107,0.467c-0.071,0.143-0.189,0.26-0.354,0.354v0.012
				c0.092,0.033,0.176,0.076,0.252,0.127c0.076,0.054,0.141,0.115,0.195,0.187c0.054,0.072,0.097,0.151,0.127,0.241
				c0.029,0.09,0.045,0.189,0.045,0.302c0,0.097-0.015,0.198-0.042,0.308c-0.029,0.109-0.079,0.217-0.15,0.317
				c-0.072,0.104-0.167,0.197-0.287,0.283s-0.27,0.153-0.452,0.205c-0.046,0.012-0.096,0.022-0.149,0.032s-0.114,0.019-0.181,0.023
				c-0.065,0.008-0.14,0.012-0.221,0.016C9,36.984,8.909,36.986,8.808,36.986H7.735v-3.92h1.282c0.273,0,0.495,0.029,0.662,0.089
				c0.125,0.043,0.232,0.1,0.324,0.168c0.093,0.069,0.168,0.146,0.229,0.231c0.06,0.084,0.104,0.176,0.132,0.271
				C10.392,33.919,10.406,34.014,10.406,34.109z M9.02,34.682c0.184,0,0.32-0.021,0.411-0.06c0.101-0.045,0.173-0.106,0.216-0.187
				c0.043-0.078,0.064-0.168,0.064-0.269c0-0.104-0.024-0.194-0.074-0.276c-0.05-0.08-0.135-0.142-0.254-0.181
				c-0.05-0.017-0.106-0.026-0.174-0.033c-0.065-0.007-0.147-0.011-0.245-0.011H8.41v1.014h0.61V34.682z M8.41,35.281v1.104h0.441
				c0.116,0,0.218-0.003,0.303-0.011c0.085-0.006,0.157-0.019,0.218-0.033c0.094-0.021,0.172-0.05,0.234-0.086
				c0.062-0.036,0.113-0.077,0.151-0.123c0.039-0.046,0.066-0.098,0.083-0.151c0.018-0.058,0.025-0.115,0.025-0.179
				c0-0.108-0.028-0.204-0.085-0.286s-0.146-0.145-0.268-0.186c-0.054-0.018-0.116-0.03-0.188-0.038
				c-0.071-0.008-0.164-0.013-0.275-0.013H8.41V35.281z"/>
			<path fill="#FFFFFF" d="M14.427,35.025c0,0.3-0.039,0.574-0.119,0.822c-0.08,0.25-0.197,0.463-0.351,0.644
				c-0.152,0.18-0.342,0.319-0.564,0.419c-0.224,0.1-0.479,0.148-0.763,0.148c-0.283,0-0.539-0.05-0.762-0.148
				c-0.223-0.1-0.412-0.239-0.564-0.419c-0.153-0.181-0.271-0.394-0.351-0.644c-0.08-0.248-0.12-0.522-0.12-0.822
				c0-0.299,0.04-0.572,0.12-0.82c0.08-0.25,0.197-0.464,0.351-0.645c0.152-0.18,0.342-0.318,0.564-0.418
				c0.224-0.101,0.479-0.149,0.762-0.149c0.284,0,0.539,0.05,0.763,0.149c0.223,0.099,0.412,0.238,0.564,0.418
				c0.153,0.181,0.271,0.395,0.351,0.645C14.387,34.453,14.427,34.729,14.427,35.025z M13.73,35.025
				c0-0.237-0.028-0.445-0.083-0.625c-0.056-0.178-0.131-0.327-0.229-0.446c-0.098-0.119-0.213-0.208-0.348-0.267
				c-0.133-0.059-0.28-0.088-0.44-0.088c-0.159,0-0.307,0.029-0.44,0.088c-0.134,0.06-0.25,0.147-0.348,0.268
				c-0.098,0.119-0.174,0.27-0.229,0.445c-0.055,0.181-0.083,0.389-0.083,0.627s0.027,0.445,0.083,0.625
				c0.055,0.179,0.131,0.328,0.229,0.445c0.098,0.118,0.214,0.207,0.348,0.267c0.134,0.061,0.281,0.09,0.44,0.09
				c0.16,0,0.308-0.029,0.441-0.09c0.134-0.06,0.25-0.147,0.348-0.267c0.098-0.117,0.173-0.268,0.229-0.445
				C13.702,35.473,13.73,35.266,13.73,35.025z"/>
			<path fill="#FFFFFF" d="M17.619,34.244c0,0.273-0.071,0.506-0.214,0.695c-0.142,0.19-0.362,0.332-0.66,0.424v0.012l1.097,1.611
				h-0.81l-1.003-1.519h-0.463v1.519H14.89v-3.92h1.122c0.186,0,0.357,0.012,0.518,0.033c0.16,0.022,0.297,0.057,0.411,0.102
				c0.217,0.088,0.384,0.219,0.502,0.391C17.56,33.766,17.619,33.982,17.619,34.244z M15.898,34.868
				c0.153,0,0.286-0.007,0.393-0.022c0.107-0.014,0.198-0.035,0.271-0.064c0.136-0.055,0.229-0.129,0.282-0.225
				c0.053-0.095,0.078-0.203,0.078-0.326c0-0.105-0.021-0.198-0.062-0.28c-0.041-0.08-0.111-0.146-0.211-0.191
				c-0.064-0.03-0.146-0.055-0.242-0.067c-0.098-0.017-0.218-0.022-0.361-0.022h-0.481v1.201h0.333V34.868z"/>
			<path fill="#FFFFFF" d="M18.18,36.986v-3.92h0.976c0.086,0,0.174,0.002,0.263,0.009c0.089,0.006,0.177,0.015,0.261,0.026
				c0.084,0.01,0.167,0.025,0.245,0.043c0.079,0.017,0.151,0.035,0.219,0.06c0.195,0.065,0.37,0.155,0.521,0.271
				c0.15,0.112,0.277,0.246,0.379,0.4c0.103,0.154,0.18,0.326,0.231,0.518c0.052,0.189,0.079,0.396,0.079,0.619
				c0,0.211-0.022,0.408-0.066,0.594c-0.044,0.185-0.111,0.354-0.201,0.506s-0.204,0.287-0.34,0.402
				c-0.136,0.116-0.299,0.211-0.486,0.285c-0.155,0.063-0.333,0.109-0.531,0.141s-0.422,0.047-0.67,0.047H18.18L18.18,36.986z
				 M19.134,36.386c0.396,0,0.704-0.058,0.927-0.173c0.196-0.104,0.346-0.254,0.446-0.451c0.102-0.197,0.151-0.449,0.151-0.756
				c0-0.16-0.017-0.305-0.049-0.434c-0.033-0.129-0.081-0.243-0.145-0.344c-0.063-0.102-0.138-0.188-0.228-0.261
				c-0.089-0.071-0.189-0.132-0.302-0.179c-0.104-0.043-0.222-0.074-0.351-0.094c-0.128-0.021-0.272-0.029-0.433-0.029h-0.298v2.719
				L19.134,36.386L19.134,36.386z"/>
			<path fill="#FFFFFF" d="M22.491,36.386h1.814v0.601h-2.489v-3.92h2.39v0.602h-1.715v1.014h1.472v0.602h-1.472V36.386z"/>
			<path fill="#FFFFFF" d="M27.497,34.244c0,0.273-0.071,0.506-0.214,0.695c-0.142,0.19-0.362,0.332-0.66,0.424v0.012l1.098,1.611
				H26.91l-1.003-1.519h-0.463v1.519h-0.675v-3.92h1.122c0.186,0,0.357,0.012,0.518,0.033c0.16,0.022,0.297,0.057,0.411,0.102
				c0.217,0.088,0.384,0.219,0.502,0.391C27.438,33.766,27.497,33.982,27.497,34.244z M25.776,34.868
				c0.154,0,0.286-0.007,0.393-0.022c0.107-0.014,0.198-0.035,0.271-0.064c0.136-0.055,0.229-0.129,0.282-0.225
				c0.053-0.095,0.078-0.203,0.078-0.326c0-0.105-0.021-0.198-0.062-0.28c-0.041-0.08-0.111-0.146-0.211-0.191
				c-0.064-0.03-0.146-0.055-0.242-0.067c-0.098-0.017-0.218-0.022-0.361-0.022h-0.481v1.201h0.333V34.868z"/>
			<path fill="#FFFFFF" d="M11.431,40.244c0,0.273-0.071,0.506-0.215,0.695c-0.142,0.19-0.361,0.332-0.659,0.424v0.012l1.097,1.611
				h-0.81l-1.004-1.519H9.377v1.519H8.702v-3.92h1.122c0.186,0,0.358,0.012,0.518,0.033c0.16,0.022,0.298,0.057,0.411,0.102
				c0.218,0.088,0.385,0.219,0.502,0.391C11.372,39.766,11.431,39.982,11.431,40.244z M9.711,40.868
				c0.154,0,0.286-0.007,0.394-0.022c0.106-0.014,0.197-0.035,0.271-0.064c0.137-0.055,0.23-0.129,0.282-0.225
				c0.053-0.095,0.079-0.203,0.079-0.326c0-0.105-0.021-0.198-0.063-0.28c-0.041-0.08-0.11-0.146-0.211-0.191
				c-0.063-0.03-0.145-0.055-0.241-0.067c-0.099-0.017-0.219-0.022-0.361-0.022H9.377v1.201h0.334V40.868z"/>
			<path fill="#FFFFFF" d="M14.104,41.986h-1.39l-0.36,1h-0.721l1.465-3.92h0.616l1.465,3.92h-0.715L14.104,41.986z M13.404,40.01
				c-0.129,0.41-0.244,0.754-0.345,1.028l-0.126,0.349h0.953l-0.127-0.349c-0.1-0.278-0.215-0.621-0.345-1.028H13.404z"/>
			<path fill="#FFFFFF" d="M15.449,42.986v-3.92h0.976c0.087,0,0.175,0.002,0.264,0.009c0.089,0.006,0.176,0.015,0.26,0.026
				c0.084,0.01,0.167,0.025,0.246,0.043c0.079,0.017,0.151,0.035,0.218,0.06c0.196,0.065,0.37,0.155,0.521,0.271
				c0.149,0.112,0.276,0.246,0.379,0.4c0.102,0.154,0.179,0.326,0.23,0.518c0.053,0.189,0.079,0.396,0.079,0.619
				c0,0.211-0.021,0.408-0.065,0.594c-0.044,0.185-0.111,0.354-0.201,0.506s-0.204,0.287-0.34,0.402
				c-0.137,0.116-0.3,0.211-0.486,0.285c-0.156,0.063-0.333,0.109-0.532,0.141c-0.198,0.031-0.422,0.047-0.67,0.047H15.449
				L15.449,42.986z M16.403,42.386c0.396,0,0.704-0.058,0.926-0.173c0.197-0.104,0.346-0.254,0.447-0.451
				c0.101-0.197,0.15-0.449,0.15-0.756c0-0.16-0.017-0.305-0.049-0.434s-0.081-0.243-0.144-0.344
				c-0.063-0.102-0.138-0.188-0.229-0.261c-0.089-0.071-0.188-0.132-0.302-0.179c-0.104-0.043-0.221-0.074-0.35-0.094
				c-0.128-0.021-0.273-0.029-0.434-0.029h-0.298v2.719L16.403,42.386L16.403,42.386z"/>
			<path fill="#FFFFFF" d="M19.084,42.986v-3.92h0.675v3.92H19.084z"/>
			<path fill="#FFFFFF" d="M21.915,43.061c-0.192,0-0.367-0.021-0.521-0.061c-0.154-0.04-0.291-0.098-0.408-0.174
				c-0.118-0.074-0.218-0.166-0.3-0.275c-0.083-0.107-0.149-0.23-0.199-0.367c-0.04-0.108-0.069-0.229-0.086-0.363
				c-0.019-0.133-0.026-0.28-0.026-0.444v-2.31h0.675v2.244c0,0.277,0.031,0.494,0.095,0.65c0.069,0.174,0.172,0.3,0.306,0.377
				s0.292,0.115,0.474,0.115c0.183,0,0.341-0.038,0.475-0.115s0.235-0.203,0.306-0.377c0.063-0.156,0.094-0.373,0.094-0.65v-2.244
				h0.676v2.31c0,0.164-0.01,0.313-0.026,0.444c-0.018,0.134-0.047,0.255-0.087,0.363c-0.05,0.137-0.116,0.26-0.2,0.367
				c-0.083,0.109-0.186,0.201-0.306,0.275c-0.121,0.076-0.259,0.134-0.415,0.174C22.282,43.039,22.108,43.061,21.915,43.061z"/>
			<path fill="#FFFFFF" d="M25.9,41.861c0-0.101-0.023-0.18-0.069-0.242c-0.046-0.061-0.107-0.111-0.188-0.15
				s-0.168-0.07-0.267-0.096c-0.098-0.023-0.202-0.048-0.31-0.071c-0.145-0.032-0.28-0.071-0.411-0.118
				c-0.131-0.045-0.246-0.108-0.345-0.19c-0.1-0.08-0.179-0.185-0.237-0.31s-0.088-0.281-0.088-0.469
				c0-0.207,0.034-0.387,0.102-0.541c0.068-0.152,0.16-0.279,0.277-0.381c0.117-0.1,0.254-0.176,0.411-0.225
				c0.157-0.051,0.334-0.075,0.531-0.075c0.196,0,0.394,0.021,0.593,0.062c0.198,0.041,0.369,0.094,0.513,0.158v0.615
				c-0.19-0.08-0.375-0.139-0.55-0.174c-0.176-0.036-0.341-0.055-0.495-0.055c-0.222,0-0.394,0.043-0.514,0.129
				s-0.181,0.215-0.181,0.387c0,0.1,0.021,0.182,0.06,0.246c0.039,0.063,0.093,0.117,0.161,0.16
				c0.067,0.041,0.146,0.074,0.233,0.101s0.183,0.049,0.281,0.069c0.156,0.035,0.306,0.076,0.448,0.123
				c0.143,0.045,0.269,0.108,0.379,0.19s0.198,0.188,0.262,0.32c0.064,0.133,0.097,0.301,0.097,0.506
				c0,0.211-0.037,0.394-0.11,0.548c-0.074,0.154-0.178,0.282-0.313,0.382c-0.135,0.103-0.299,0.177-0.491,0.226
				c-0.193,0.049-0.404,0.072-0.635,0.072c-0.2,0-0.396-0.021-0.591-0.063c-0.194-0.041-0.354-0.102-0.483-0.178v-0.605
				c0.182,0.084,0.358,0.145,0.531,0.184c0.172,0.037,0.352,0.058,0.535,0.058c0.106,0,0.211-0.009,0.314-0.027
				c0.103-0.019,0.194-0.051,0.276-0.096s0.147-0.104,0.197-0.185C25.875,42.07,25.9,41.975,25.9,41.861z"/>
		</g>
	</g>
</g>
<g id="레이어_3" display="none">
</g>
</svg>
