<?xml version="1.0" encoding="utf-8"?>
<!-- Generator: Adobe Illustrator 16.0.0, SVG Export Plug-In . SVG Version: 6.00 Build 0)  -->
<!DOCTYPE svg PUBLIC "-//W3C//DTD SVG 1.1//EN" "http://www.w3.org/Graphics/SVG/1.1/DTD/svg11.dtd">
<svg version="1.1" xmlns="http://www.w3.org/2000/svg" xmlns:xlink="http://www.w3.org/1999/xlink" x="0px" y="0px"
	 width="34.398px" height="44.801px" viewBox="0 0 34.398 44.801" enable-background="new 0 0 34.398 44.801" xml:space="preserve">
<g id="Layer_1">
	<g>
		<g>
			<path fill="#E9E9E0" d="M24.387,0H1.172C0.523,0,0,0.523,0,1.539V44c0,0.276,0.523,0.801,1.172,0.801H33.23
				c0.645,0,1.168-0.524,1.168-0.801V10.383c0-0.559-0.074-0.738-0.203-0.867l-9.309-9.309C24.754,0.074,24.574,0,24.387,0L24.387,0
				z M24.387,0"/>
		</g>
		<g>
			<path fill="#FFBC00" d="M33.23,44.801H1.172C0.523,44.801,0,44.276,0,43.629v-12.43h34.398v12.43
				C34.398,44.276,33.875,44.801,33.23,44.801L33.23,44.801z M33.23,44.801"/>
		</g>
		<g>
			<path fill="#FFFFFF" d="M8.529,35.92c-0.251,0-0.483,0.043-0.696,0.129c-0.212,0.086-0.395,0.211-0.547,0.375
				c-0.152,0.164-0.271,0.367-0.356,0.607s-0.128,0.516-0.128,0.826c0,0.307,0.039,0.578,0.117,0.811
				c0.078,0.233,0.19,0.428,0.336,0.584c0.146,0.156,0.324,0.274,0.534,0.354s0.448,0.119,0.715,0.119
				c0.191,0,0.386-0.016,0.584-0.047s0.385-0.077,0.558-0.137v0.824c-0.176,0.052-0.366,0.093-0.569,0.123s-0.415,0.045-0.634,0.045
				c-0.428,0-0.803-0.063-1.128-0.189c-0.324-0.126-0.595-0.305-0.813-0.535c-0.218-0.23-0.381-0.506-0.491-0.828
				s-0.164-0.676-0.164-1.064c0-0.398,0.059-0.768,0.176-1.109c0.117-0.341,0.285-0.637,0.505-0.887
				c0.22-0.25,0.495-0.447,0.826-0.59c0.331-0.143,0.705-0.216,1.122-0.219c0.214,0,0.417,0.015,0.607,0.045
				s0.363,0.072,0.517,0.127v0.813c-0.201-0.065-0.388-0.111-0.562-0.137C8.864,35.933,8.694,35.92,8.529,35.92z"/>
			<path fill="#FFFFFF" d="M11.512,35.209v4.426h2.361v0.801h-3.285v-5.227H11.512z"/>
			<path fill="#FFFFFF" d="M17.629,39.104h-1.9l-0.494,1.332H14.25l2.002-5.227h0.845l2.003,5.227h-0.977L17.629,39.104z
				 M16.672,36.467c-0.176,0.547-0.334,1.004-0.472,1.371l-0.172,0.465h1.304l-0.172-0.465c-0.137-0.37-0.294-0.827-0.472-1.371
				H16.672z"/>
			<path fill="#FFFFFF" d="M22.299,38.936c0-0.133-0.032-0.24-0.094-0.322c-0.063-0.082-0.148-0.149-0.257-0.201
				c-0.108-0.052-0.229-0.094-0.364-0.127c-0.135-0.033-0.276-0.064-0.424-0.096c-0.196-0.044-0.383-0.097-0.562-0.158
				s-0.336-0.146-0.472-0.254s-0.244-0.246-0.324-0.412s-0.121-0.375-0.121-0.625c0-0.276,0.046-0.516,0.14-0.721
				c0.093-0.205,0.219-0.374,0.379-0.508s0.347-0.234,0.562-0.301s0.457-0.1,0.726-0.1s0.54,0.027,0.811,0.082
				s0.505,0.125,0.701,0.211v0.82c-0.261-0.107-0.512-0.184-0.752-0.232c-0.24-0.048-0.466-0.072-0.677-0.072
				c-0.304,0-0.539,0.057-0.704,0.172s-0.247,0.287-0.247,0.516c0,0.133,0.027,0.242,0.081,0.328
				c0.054,0.086,0.128,0.157,0.221,0.213c0.093,0.056,0.2,0.101,0.321,0.135s0.249,0.065,0.385,0.094
				c0.213,0.047,0.418,0.101,0.613,0.162s0.368,0.146,0.519,0.256s0.271,0.252,0.358,0.428s0.132,0.4,0.132,0.674
				c0,0.281-0.05,0.525-0.151,0.73s-0.243,0.375-0.428,0.51c-0.185,0.134-0.41,0.234-0.673,0.299
				c-0.264,0.065-0.553,0.098-0.868,0.098c-0.274,0-0.544-0.028-0.809-0.084s-0.486-0.135-0.662-0.236v-0.809
				c0.249,0.112,0.492,0.193,0.728,0.244s0.48,0.076,0.732,0.076c0.146,0,0.289-0.012,0.43-0.037
				c0.141-0.025,0.267-0.067,0.379-0.127s0.202-0.141,0.27-0.244S22.299,39.086,22.299,38.936z"/>
			<path fill="#FFFFFF" d="M26.758,38.936c0-0.133-0.032-0.24-0.094-0.322c-0.063-0.082-0.148-0.149-0.257-0.201
				c-0.108-0.052-0.229-0.094-0.364-0.127c-0.135-0.033-0.276-0.064-0.424-0.096c-0.196-0.044-0.383-0.097-0.562-0.158
				s-0.336-0.146-0.472-0.254s-0.244-0.246-0.324-0.412S24.14,36.99,24.14,36.74c0-0.276,0.046-0.516,0.14-0.721
				c0.093-0.205,0.219-0.374,0.379-0.508s0.347-0.234,0.562-0.301s0.457-0.1,0.726-0.1s0.54,0.027,0.811,0.082
				s0.505,0.125,0.701,0.211v0.82c-0.261-0.107-0.512-0.184-0.752-0.232c-0.24-0.048-0.466-0.072-0.677-0.072
				c-0.304,0-0.539,0.057-0.704,0.172s-0.247,0.287-0.247,0.516c0,0.133,0.027,0.242,0.081,0.328
				c0.054,0.086,0.128,0.157,0.221,0.213c0.093,0.056,0.2,0.101,0.321,0.135s0.249,0.065,0.385,0.094
				c0.213,0.047,0.418,0.101,0.613,0.162s0.368,0.146,0.519,0.256s0.271,0.252,0.358,0.428s0.132,0.4,0.132,0.674
				c0,0.281-0.05,0.525-0.151,0.73s-0.243,0.375-0.428,0.51c-0.185,0.134-0.41,0.234-0.673,0.299
				c-0.264,0.065-0.553,0.098-0.868,0.098c-0.274,0-0.544-0.028-0.809-0.084s-0.486-0.135-0.662-0.236v-0.809
				c0.249,0.112,0.492,0.193,0.728,0.244s0.48,0.076,0.732,0.076c0.146,0,0.289-0.012,0.43-0.037
				c0.141-0.025,0.267-0.067,0.379-0.127s0.202-0.141,0.27-0.244S26.758,39.086,26.758,38.936z"/>
		</g>
		<g>
			<path fill="#FFBC00" d="M25.792,23.487c0.262-0.375,0.416-0.829,0.416-1.318c0-1.282-1.054-2.325-2.35-2.325
				c-1.296,0-2.351,1.043-2.351,2.325c0,0.479,0.147,0.926,0.4,1.296c-0.451,0.258-0.845,0.603-1.158,1.011
				c-0.309-0.403-0.696-0.743-1.139-1c0.257-0.372,0.408-0.822,0.408-1.307c0-1.282-1.054-2.325-2.351-2.325
				s-2.351,1.043-2.351,2.325c0,0.484,0.151,0.935,0.408,1.307c-0.443,0.257-0.831,0.597-1.139,1
				c-0.3-0.392-0.674-0.725-1.103-0.978c0.267-0.377,0.423-0.836,0.423-1.329c0-1.282-1.054-2.325-2.35-2.325
				c-1.296,0-2.351,1.043-2.351,2.325c0,0.475,0.145,0.917,0.393,1.286c-1.169,0.658-1.96,1.902-1.96,3.326h1.006
				c0-1.253,1.451-2.719,2.719-2.719s2.781,1.466,2.781,2.719h0.875c0-1.253,1.311-2.703,2.578-2.703s2.781,1.45,2.781,2.703h0.875
				c0-1.253,1.308-2.479,2.576-2.479s2.732,1.226,2.732,2.479h1.133C27.696,25.38,26.931,24.153,25.792,23.487z M11.557,20.9
				c0.707,0,1.283,0.569,1.283,1.27s-0.576,1.27-1.283,1.27c-0.708,0-1.284-0.569-1.284-1.27S10.849,20.9,11.557,20.9z
				 M17.668,20.931c0.69,0,1.252,0.555,1.252,1.238s-0.562,1.239-1.252,1.239s-1.252-0.556-1.252-1.239S16.978,20.931,17.668,20.931
				z M23.858,21.039c0.63,0,1.142,0.506,1.142,1.13S24.488,23.3,23.858,23.3c-0.631,0-1.143-0.507-1.143-1.131
				S23.227,21.039,23.858,21.039z M11.596,11.59c1.296,0,2.35-1.042,2.35-2.325s-1.054-2.325-2.35-2.325
				c-1.297,0-2.351,1.043-2.351,2.325S10.299,11.59,11.596,11.59z M11.596,8.491c0.432,0,0.783,0.347,0.783,0.775
				c0,0.427-0.352,0.775-0.783,0.775c-0.432,0-0.784-0.349-0.784-0.775C10.812,8.837,11.164,8.491,11.596,8.491z M9.207,18.294H7.64
				v-3.643c0-1.281,1.054-2.325,2.35-2.325h9.754v1.55h-5.837v4.417H12.34v-4.417H9.99c-0.432,0-0.783,0.347-0.783,0.774V18.294z
				 M27.696,16.745v1.55H15.475v-1.55h9.48V9.266c0-0.428-0.352-0.775-0.784-0.775h-8.658V6.94h8.658
				c1.296,0,2.351,1.043,2.351,2.325v7.479H27.696z"/>
		</g>
		<g>
			<path fill="#D9D7CA" d="M24.785,0.063v9.481h9.477L24.785,0.063z M24.785,0.063"/>
		</g>
	</g>
</g>
<g id="레이어_3" display="none">
</g>
</svg>
