<?xml version="1.0" encoding="utf-8"?>
<!-- Generator: Adobe Illustrator 16.0.0, SVG Export Plug-In . SVG Version: 6.00 Build 0)  -->
<!DOCTYPE svg PUBLIC "-//W3C//DTD SVG 1.1//EN" "http://www.w3.org/Graphics/SVG/1.1/DTD/svg11.dtd">
<svg version="1.1" xmlns="http://www.w3.org/2000/svg" xmlns:xlink="http://www.w3.org/1999/xlink" x="0px" y="0px"
	 width="34.398px" height="44.801px" viewBox="0 0 34.398 44.801" enable-background="new 0 0 34.398 44.801" xml:space="preserve">
<g id="Layer_1">
	<g>
		<g>
			<path fill="#E9E9E0" d="M24.387,0H1.172C0.523,0,0,0.523,0,1.539V44c0,0.277,0.523,0.801,1.172,0.801H33.23
				c0.645,0,1.168-0.523,1.168-0.801V10.383c0-0.559-0.074-0.738-0.203-0.867l-9.309-9.309C24.754,0.074,24.574,0,24.387,0L24.387,0
				z M24.387,0"/>
		</g>
		<g>
			<path fill="#2299F8" d="M33.23,44.801H1.172C0.523,44.801,0,44.277,0,43.629v-12.43h34.398v12.43
				C34.398,44.277,33.875,44.801,33.23,44.801L33.23,44.801z M33.23,44.801"/>
		</g>
		<g id="_x31_21-css3_2_">
			<g>
				<g>
					<g>
						<g>
							<g>
								<path fill="#2299F8" d="M8.423,6.981l1.599,18.104l7.178,2.012l7.176-2.01l1.601-18.105H8.423z"/>
							</g>
						</g>
						<g>
							<path fill="#FCFCFC" d="M22.558,12.902l-0.202,2.274l-0.61,6.818l-4.547,1.261l-0.004,0l-4.545-1.262l-0.316-3.565h2.227
								l0.166,1.85l2.471,0.668l0.001-0.001l2.475-0.669l0.336-3.081l-7.783,0.021l-0.221-2.107l8.191-0.097l0.166-2.255
								l-8.577,0.024l-0.144-2.099h11.114L22.558,12.902z"/>
						</g>
					</g>
				</g>
			</g>
		</g>
		<g>
			<path fill="#D9D7CA" d="M24.801,0.121v9.48h9.477L24.801,0.121z M24.801,0.121"/>
		</g>
		<g>
			<path fill="#FFFFFF" d="M8.602,35.919c-0.241,0-0.463,0.043-0.667,0.129s-0.378,0.211-0.524,0.375
				c-0.146,0.164-0.26,0.367-0.341,0.607c-0.082,0.241-0.123,0.516-0.123,0.826c0,0.307,0.037,0.578,0.112,0.811
				s0.182,0.428,0.322,0.584c0.14,0.156,0.311,0.274,0.512,0.354s0.43,0.119,0.685,0.119c0.183,0,0.37-0.016,0.561-0.047
				s0.369-0.077,0.535-0.137v0.824c-0.169,0.052-0.351,0.093-0.546,0.123s-0.398,0.045-0.607,0.045c-0.41,0-0.77-0.063-1.081-0.189
				s-0.571-0.305-0.779-0.535s-0.365-0.506-0.47-0.828c-0.105-0.322-0.158-0.676-0.158-1.064c0-0.398,0.056-0.768,0.168-1.109
				c0.112-0.341,0.273-0.637,0.484-0.887s0.475-0.447,0.792-0.59c0.317-0.143,0.675-0.216,1.075-0.219
				c0.205,0,0.399,0.015,0.582,0.045c0.184,0.03,0.349,0.072,0.496,0.127v0.813c-0.193-0.065-0.373-0.111-0.539-0.137
				C8.923,35.933,8.761,35.919,8.602,35.919z"/>
			<path fill="#FFFFFF" d="M12.955,38.935c0-0.133-0.03-0.24-0.09-0.322c-0.061-0.082-0.143-0.149-0.246-0.201
				s-0.22-0.094-0.349-0.127s-0.265-0.064-0.407-0.096c-0.188-0.044-0.368-0.097-0.539-0.158c-0.171-0.061-0.322-0.146-0.452-0.254
				c-0.13-0.108-0.234-0.246-0.311-0.412s-0.116-0.375-0.116-0.625c0-0.276,0.044-0.516,0.134-0.721s0.21-0.374,0.363-0.508
				c0.153-0.134,0.333-0.234,0.539-0.301c0.206-0.066,0.438-0.1,0.696-0.1s0.517,0.027,0.777,0.082s0.484,0.125,0.672,0.211v0.82
				c-0.25-0.107-0.491-0.184-0.721-0.232c-0.23-0.048-0.447-0.072-0.649-0.072c-0.292,0-0.517,0.057-0.674,0.172
				c-0.158,0.115-0.237,0.287-0.237,0.516c0,0.133,0.026,0.242,0.078,0.328s0.123,0.157,0.211,0.213
				c0.089,0.056,0.192,0.101,0.308,0.135s0.238,0.065,0.369,0.094c0.205,0.047,0.4,0.101,0.587,0.162s0.353,0.146,0.497,0.256
				s0.259,0.252,0.344,0.428c0.084,0.176,0.126,0.4,0.126,0.674c0,0.281-0.048,0.525-0.145,0.73
				c-0.097,0.206-0.233,0.375-0.411,0.51s-0.392,0.234-0.645,0.299c-0.253,0.065-0.531,0.098-0.832,0.098
				c-0.263,0-0.521-0.028-0.775-0.084s-0.466-0.135-0.634-0.236v-0.809c0.238,0.112,0.471,0.193,0.698,0.244s0.46,0.076,0.701,0.076
				c0.14,0,0.277-0.012,0.412-0.037c0.135-0.025,0.256-0.067,0.364-0.127c0.107-0.06,0.193-0.141,0.258-0.244
				S12.955,39.086,12.955,38.935z"/>
			<path fill="#FFFFFF" d="M17.228,38.935c0-0.133-0.03-0.24-0.09-0.322c-0.061-0.082-0.143-0.149-0.246-0.201
				s-0.22-0.094-0.349-0.127s-0.265-0.064-0.407-0.096c-0.188-0.044-0.368-0.097-0.539-0.158c-0.171-0.061-0.322-0.146-0.452-0.254
				c-0.13-0.108-0.234-0.246-0.311-0.412s-0.116-0.375-0.116-0.625c0-0.276,0.044-0.516,0.134-0.721s0.21-0.374,0.363-0.508
				c0.153-0.134,0.333-0.234,0.539-0.301c0.206-0.066,0.438-0.1,0.696-0.1s0.517,0.027,0.777,0.082s0.484,0.125,0.672,0.211v0.82
				c-0.25-0.107-0.491-0.184-0.721-0.232c-0.23-0.048-0.447-0.072-0.649-0.072c-0.292,0-0.517,0.057-0.674,0.172
				c-0.158,0.115-0.237,0.287-0.237,0.516c0,0.133,0.026,0.242,0.078,0.328s0.123,0.157,0.211,0.213
				c0.089,0.056,0.192,0.101,0.308,0.135s0.238,0.065,0.369,0.094c0.205,0.047,0.4,0.101,0.587,0.162s0.353,0.146,0.497,0.256
				s0.259,0.252,0.344,0.428c0.084,0.176,0.126,0.4,0.126,0.674c0,0.281-0.048,0.525-0.145,0.73
				c-0.097,0.206-0.233,0.375-0.411,0.51s-0.392,0.234-0.645,0.299c-0.253,0.065-0.531,0.098-0.832,0.098
				c-0.263,0-0.521-0.028-0.775-0.084s-0.466-0.135-0.634-0.236v-0.809c0.238,0.112,0.471,0.193,0.698,0.244s0.46,0.076,0.701,0.076
				c0.14,0,0.277-0.012,0.412-0.037c0.135-0.025,0.256-0.067,0.364-0.127c0.107-0.06,0.193-0.141,0.258-0.244
				S17.228,39.086,17.228,38.935z"/>
			<path fill="#FFFFFF" d="M19.141,39.392h0.973v1.043h-0.973V39.392z"/>
			<path fill="#FFFFFF" d="M23.667,38.935c0-0.133-0.03-0.24-0.09-0.322c-0.061-0.082-0.143-0.149-0.246-0.201
				s-0.22-0.094-0.349-0.127s-0.265-0.064-0.407-0.096c-0.188-0.044-0.368-0.097-0.539-0.158c-0.171-0.061-0.322-0.146-0.452-0.254
				c-0.13-0.108-0.234-0.246-0.311-0.412s-0.116-0.375-0.116-0.625c0-0.276,0.044-0.516,0.134-0.721s0.21-0.374,0.363-0.508
				c0.153-0.134,0.333-0.234,0.539-0.301c0.206-0.066,0.438-0.1,0.696-0.1s0.517,0.027,0.777,0.082s0.484,0.125,0.672,0.211v0.82
				c-0.25-0.107-0.491-0.184-0.721-0.232c-0.23-0.048-0.447-0.072-0.649-0.072c-0.292,0-0.517,0.057-0.674,0.172
				c-0.158,0.115-0.237,0.287-0.237,0.516c0,0.133,0.026,0.242,0.078,0.328s0.123,0.157,0.211,0.213
				c0.089,0.056,0.192,0.101,0.308,0.135s0.238,0.065,0.369,0.094c0.205,0.047,0.4,0.101,0.587,0.162s0.353,0.146,0.497,0.256
				s0.259,0.252,0.344,0.428c0.084,0.176,0.126,0.4,0.126,0.674c0,0.281-0.048,0.525-0.145,0.73
				c-0.097,0.206-0.233,0.375-0.411,0.51s-0.392,0.234-0.645,0.299c-0.253,0.065-0.531,0.098-0.832,0.098
				c-0.263,0-0.521-0.028-0.775-0.084s-0.466-0.135-0.634-0.236v-0.809c0.238,0.112,0.471,0.193,0.698,0.244s0.46,0.076,0.701,0.076
				c0.14,0,0.277-0.012,0.412-0.037c0.135-0.025,0.256-0.067,0.364-0.127c0.107-0.06,0.193-0.141,0.258-0.244
				S23.667,39.086,23.667,38.935z"/>
			<path fill="#FFFFFF" d="M26.899,38.412c-0.08,0-0.158-0.001-0.235-0.004s-0.149-0.008-0.217-0.016v2.043h-0.886v-5.227h1.396
				c0.234,0,0.438,0.011,0.613,0.033s0.331,0.055,0.468,0.1c0.33,0.109,0.584,0.284,0.763,0.523s0.268,0.544,0.268,0.914
				c0,0.252-0.048,0.48-0.145,0.682c-0.097,0.202-0.237,0.373-0.423,0.514c-0.186,0.141-0.413,0.249-0.68,0.324
				C27.554,38.374,27.247,38.412,26.899,38.412z M26.448,37.587c0.05,0.008,0.115,0.014,0.193,0.018
				c0.078,0.004,0.16,0.006,0.244,0.006c0.238,0,0.438-0.021,0.6-0.063s0.292-0.1,0.391-0.174c0.099-0.074,0.17-0.164,0.213-0.27
				c0.043-0.105,0.065-0.221,0.065-0.346c0-0.154-0.033-0.287-0.098-0.398s-0.179-0.199-0.34-0.262
				c-0.084-0.031-0.189-0.054-0.313-0.068s-0.276-0.021-0.457-0.021h-0.499V37.587z"/>
		</g>
	</g>
</g>
<g id="레이어_3" display="none">
</g>
</svg>
