<?xml version="1.0" encoding="utf-8"?>
<!-- Generator: Adobe Illustrator 16.0.0, SVG Export Plug-In . SVG Version: 6.00 Build 0)  -->
<!DOCTYPE svg PUBLIC "-//W3C//DTD SVG 1.1//EN" "http://www.w3.org/Graphics/SVG/1.1/DTD/svg11.dtd">
<svg version="1.1" xmlns="http://www.w3.org/2000/svg" xmlns:xlink="http://www.w3.org/1999/xlink" x="0px" y="0px"
	 width="34.447px" height="44.86px" viewBox="0 0 34.447 44.86" enable-background="new 0 0 34.447 44.86" xml:space="preserve">
<g id="Layer_1">
	<g>
		<g>
			<path fill="#E9E9E0" d="M24.411,0.029H1.196c-0.649,0-1.172,0.522-1.172,1.54V44.03c0,0.275,0.523,0.801,1.172,0.801h32.059
				c0.645,0,1.168-0.525,1.168-0.801V10.413c0-0.561-0.074-0.738-0.203-0.867l-9.309-9.31C24.778,0.103,24.599,0.029,24.411,0.029
				L24.411,0.029z M24.411,0.029"/>
		</g>
		<g>
			<path fill="#D9D7CA" d="M24.825,0.149v9.482h9.477L24.825,0.149z M24.825,0.149"/>
		</g>
		<g>
			<path fill="#FFCE00" d="M33.255,44.831H1.196c-0.649,0-1.172-0.525-1.172-1.172v-12.43h34.398v12.43
				C34.423,44.306,33.899,44.831,33.255,44.831L33.255,44.831z M33.255,44.831"/>
		</g>
		<g>
			<g>
				<path fill="#FFCE00" d="M24.173,17.576c0.007-0.122,0.01-0.242,0.01-0.36c0-3.826-3.112-6.938-6.938-6.938
					c-2.101,0-4.066,0.938-5.392,2.573l-0.227,0.28l3.753,1.29l0.102-0.063c0.529-0.328,1.14-0.5,1.764-0.5
					c1.852,0,3.358,1.507,3.358,3.359c0,0.119-0.007,0.239-0.021,0.36H18.26l4.306,6.727l4.305-6.727H24.173L24.173,17.576z"/>
			</g>
			<g>
				<path fill="#FFCE00" d="M11.662,15.744c-2.253,0-4.086,1.833-4.086,4.086s1.833,4.087,4.086,4.087
					c2.253,0,4.086-1.833,4.086-4.087S13.916,15.744,11.662,15.744z"/>
			</g>
		</g>
		<g>
			<path fill="#FFFFFF" d="M7.17,36.506c-0.245,0-0.471,0.043-0.678,0.129c-0.208,0.086-0.385,0.211-0.533,0.375
				c-0.148,0.164-0.264,0.366-0.347,0.607c-0.083,0.241-0.125,0.517-0.125,0.826c0,0.308,0.038,0.577,0.114,0.811
				c0.076,0.233,0.185,0.428,0.327,0.584s0.315,0.274,0.52,0.354s0.437,0.119,0.697,0.119c0.186,0,0.376-0.016,0.569-0.047
				c0.194-0.031,0.375-0.077,0.544-0.137v0.824c-0.171,0.052-0.356,0.093-0.555,0.123c-0.199,0.03-0.404,0.045-0.618,0.045
				c-0.417,0-0.783-0.063-1.099-0.189c-0.316-0.126-0.58-0.305-0.792-0.535s-0.372-0.507-0.478-0.828s-0.16-0.677-0.16-1.064
				c0-0.398,0.057-0.769,0.171-1.109c0.114-0.341,0.278-0.637,0.492-0.887s0.483-0.446,0.805-0.59
				c0.322-0.144,0.687-0.216,1.093-0.219c0.208,0,0.405,0.015,0.592,0.045c0.186,0.03,0.354,0.072,0.503,0.127v0.813
				c-0.196-0.065-0.378-0.11-0.548-0.137C7.498,36.519,7.332,36.506,7.17,36.506z"/>
			<path fill="#FFFFFF" d="M11.257,39.522c0-0.133-0.031-0.24-0.092-0.322c-0.062-0.082-0.145-0.149-0.25-0.201
				s-0.224-0.095-0.354-0.127c-0.131-0.032-0.269-0.064-0.414-0.096c-0.191-0.044-0.374-0.097-0.548-0.158
				c-0.174-0.062-0.327-0.146-0.459-0.254c-0.132-0.108-0.238-0.245-0.316-0.412c-0.078-0.167-0.118-0.375-0.118-0.625
				c0-0.276,0.045-0.517,0.136-0.721c0.09-0.204,0.214-0.374,0.369-0.508c0.156-0.134,0.338-0.234,0.548-0.301s0.445-0.1,0.708-0.1
				s0.525,0.027,0.79,0.082s0.493,0.125,0.684,0.211v0.82c-0.255-0.106-0.499-0.185-0.733-0.232
				c-0.234-0.048-0.454-0.072-0.66-0.072c-0.296,0-0.525,0.058-0.685,0.172c-0.161,0.114-0.241,0.286-0.241,0.516
				c0,0.133,0.026,0.242,0.079,0.328s0.125,0.157,0.215,0.213c0.09,0.056,0.195,0.101,0.312,0.135
				c0.118,0.034,0.243,0.065,0.375,0.094c0.208,0.047,0.407,0.101,0.597,0.162s0.358,0.146,0.505,0.256s0.264,0.252,0.349,0.428
				c0.086,0.176,0.129,0.4,0.129,0.674c0,0.281-0.049,0.524-0.147,0.73c-0.098,0.206-0.237,0.376-0.417,0.51
				c-0.18,0.134-0.398,0.233-0.656,0.299s-0.539,0.098-0.845,0.098c-0.267,0-0.53-0.028-0.789-0.084s-0.474-0.135-0.645-0.236
				v-0.809c0.243,0.112,0.479,0.193,0.709,0.244c0.23,0.051,0.468,0.076,0.713,0.076c0.142,0,0.282-0.013,0.419-0.037
				s0.26-0.067,0.37-0.127c0.109-0.06,0.196-0.142,0.263-0.244C11.224,39.8,11.257,39.673,11.257,39.522z"/>
			<path fill="#FFFFFF" d="M15.262,39.522c0-0.133-0.031-0.24-0.092-0.322c-0.062-0.082-0.145-0.149-0.25-0.201
				s-0.224-0.095-0.354-0.127c-0.131-0.032-0.269-0.064-0.414-0.096c-0.191-0.044-0.374-0.097-0.548-0.158
				c-0.174-0.062-0.327-0.146-0.459-0.254c-0.132-0.108-0.238-0.245-0.316-0.412c-0.078-0.167-0.118-0.375-0.118-0.625
				c0-0.276,0.045-0.517,0.136-0.721c0.09-0.204,0.214-0.374,0.369-0.508c0.156-0.134,0.338-0.234,0.548-0.301s0.445-0.1,0.708-0.1
				s0.525,0.027,0.79,0.082s0.493,0.125,0.684,0.211v0.82c-0.255-0.106-0.499-0.185-0.733-0.232
				c-0.234-0.048-0.454-0.072-0.66-0.072c-0.296,0-0.525,0.058-0.685,0.172c-0.161,0.114-0.241,0.286-0.241,0.516
				c0,0.133,0.026,0.242,0.079,0.328s0.125,0.157,0.215,0.213c0.09,0.056,0.195,0.101,0.312,0.135
				c0.118,0.034,0.243,0.065,0.375,0.094c0.208,0.047,0.407,0.101,0.597,0.162s0.358,0.146,0.505,0.256s0.264,0.252,0.349,0.428
				c0.086,0.176,0.129,0.4,0.129,0.674c0,0.281-0.049,0.524-0.147,0.73c-0.098,0.206-0.237,0.376-0.417,0.51
				c-0.18,0.134-0.398,0.233-0.656,0.299s-0.539,0.098-0.845,0.098c-0.267,0-0.53-0.028-0.789-0.084s-0.474-0.135-0.645-0.236
				v-0.809c0.243,0.112,0.479,0.193,0.709,0.244c0.23,0.051,0.468,0.076,0.713,0.076c0.142,0,0.282-0.013,0.419-0.037
				s0.26-0.067,0.37-0.127c0.109-0.06,0.196-0.142,0.263-0.244C15.229,39.8,15.262,39.673,15.262,39.522z"/>
			<path fill="#FFFFFF" d="M16.868,39.979h0.989v1.043h-0.989V39.979z"/>
			<path fill="#FFFFFF" d="M21.527,39.69h-1.852l-0.482,1.332h-0.959l1.952-5.227h0.823l1.951,5.227h-0.952L21.527,39.69z
				 M20.594,37.053c-0.172,0.547-0.325,1.004-0.46,1.371l-0.168,0.465h1.271l-0.168-0.465c-0.133-0.371-0.287-0.827-0.46-1.371
				H20.594z"/>
			<path fill="#FFFFFF" d="M25.882,38.225c0.353,0.534,0.639,1.008,0.86,1.422h0.022c-0.029-0.68-0.044-1.175-0.044-1.484v-2.367
				h0.9v5.227h-0.945l-1.602-2.406c-0.282-0.417-0.574-0.899-0.875-1.449h-0.022c0.029,0.641,0.044,1.137,0.044,1.488v2.367h-0.9
				v-5.227h0.945L25.882,38.225z"/>
			<path fill="#FFFFFF" d="M28.458,41.022v-5.227h0.9v5.227H28.458z"/>
		</g>
	</g>
</g>
<g id="레이어_3" display="none">
</g>
</svg>
