<?xml version="1.0" encoding="utf-8"?>
<!-- Generator: Adobe Illustrator 16.0.0, SVG Export Plug-In . SVG Version: 6.00 Build 0)  -->
<!DOCTYPE svg PUBLIC "-//W3C//DTD SVG 1.1//EN" "http://www.w3.org/Graphics/SVG/1.1/DTD/svg11.dtd">
<svg version="1.1" xmlns="http://www.w3.org/2000/svg" xmlns:xlink="http://www.w3.org/1999/xlink" x="0px" y="0px"
	 width="34.398px" height="44.801px" viewBox="0 0 34.398 44.801" enable-background="new 0 0 34.398 44.801" xml:space="preserve">
<g id="Layer_1">
	<g>
		<g>
			<path fill="#E9E9E0" d="M24.387,0H1.172C0.523,0,0,0.522,0,1.539V44c0,0.276,0.523,0.801,1.172,0.801H33.23
				c0.645,0,1.168-0.524,1.168-0.801V10.383c0-0.56-0.074-0.738-0.203-0.867l-9.309-9.309C24.754,0.073,24.574,0,24.387,0L24.387,0z
				 M24.387,0"/>
		</g>
		<g>
			<path fill="#1BCCC3" d="M33.23,44.801H1.172C0.523,44.801,0,44.276,0,43.629v-12.43h34.398v12.43
				C34.398,44.276,33.875,44.801,33.23,44.801L33.23,44.801z M33.23,44.801"/>
		</g>
		<g opacity="0.2">
			<g>
				<rect x="6.398" y="4.983" fill="#1BCCC3" width="2.799" height="21.25"/>
			</g>
			<g>
				<rect x="10.959" y="4.983" fill="#1BCCC3" width="2.799" height="21.25"/>
			</g>
			<g>
				<rect x="15.521" y="4.983" fill="#1BCCC3" width="2.799" height="21.25"/>
			</g>
			<g>
				<rect x="20.081" y="4.983" fill="#1BCCC3" width="2.799" height="21.25"/>
			</g>
			<g>
				<rect x="24.643" y="4.983" fill="#1BCCC3" width="2.799" height="21.25"/>
			</g>
		</g>
		<g>
			<path fill="#D9D7CA" d="M24.801,0.12v9.481h9.477L24.801,0.12z M24.801,0.12"/>
		</g>
		<g>
			<path fill="#FFFFFF" d="M3.256,39.857H2.563v-3.92h2.41v0.601H3.256v1.014h1.468v0.601H3.256V39.857z"/>
			<path fill="#FFFFFF" d="M6.275,35.937v3.319h1.771v0.601H5.582v-3.92H6.275z"/>
			<path fill="#FFFFFF" d="M9.389,39.256h1.861v0.601H8.696v-3.92h2.453v0.601h-1.76v1.014H10.9v0.601H9.389V39.256z"/>
			<path fill="#FFFFFF" d="M12.985,36.743c0.183,0.275,0.311,0.473,0.385,0.592h0.014c0.102-0.164,0.229-0.36,0.382-0.589
				l0.541-0.809h0.797l-1.318,1.928l1.375,1.992h-0.786l-0.591-0.876c-0.146-0.215-0.279-0.418-0.402-0.609H13.37
				c-0.128,0.199-0.262,0.402-0.402,0.609l-0.591,0.876H11.59l1.375-1.992l-1.318-1.928h0.797L12.985,36.743z"/>
			<path fill="#FFFFFF" d="M16.433,40.583l1.075-4.651h0.588l-1.075,4.651H16.433z"/>
			<path fill="#FFFFFF" d="M22.116,38.36h-0.849v-0.601h1.542v1.978c-0.056,0.021-0.128,0.044-0.216,0.067
				c-0.087,0.023-0.186,0.044-0.294,0.063s-0.22,0.034-0.335,0.045c-0.115,0.012-0.229,0.018-0.342,0.018
				c-0.339,0-0.636-0.047-0.89-0.142c-0.253-0.095-0.465-0.228-0.634-0.4c-0.168-0.172-0.295-0.376-0.379-0.614
				s-0.126-0.5-0.126-0.787c0-0.203,0.022-0.397,0.066-0.582c0.044-0.185,0.109-0.355,0.195-0.513s0.19-0.299,0.313-0.426
				s0.263-0.235,0.42-0.325c0.157-0.09,0.33-0.159,0.518-0.207s0.389-0.072,0.604-0.072c0.19,0,0.372,0.014,0.543,0.042
				c0.172,0.028,0.312,0.063,0.421,0.104v0.609c-0.147-0.049-0.295-0.086-0.445-0.111s-0.301-0.038-0.454-0.038
				c-0.206,0-0.398,0.032-0.577,0.095s-0.334,0.157-0.465,0.281c-0.131,0.124-0.234,0.277-0.31,0.458
				c-0.076,0.182-0.113,0.392-0.113,0.63c0.002,0.463,0.119,0.81,0.351,1.042c0.232,0.231,0.561,0.347,0.987,0.347
				c0.08,0,0.162-0.004,0.246-0.013c0.085-0.009,0.16-0.02,0.224-0.034V38.36z"/>
			<path fill="#FFFFFF" d="M26.458,37.115c0,0.273-0.073,0.505-0.219,0.696c-0.146,0.19-0.372,0.332-0.677,0.423v0.012l1.126,1.611
				h-0.832l-1.029-1.518h-0.476v1.518h-0.693v-3.92h1.151c0.19,0,0.368,0.011,0.532,0.034s0.305,0.056,0.421,0.101
				c0.223,0.088,0.394,0.218,0.515,0.391C26.398,36.636,26.458,36.853,26.458,37.115z M24.693,37.739
				c0.159,0,0.293-0.007,0.403-0.022s0.203-0.037,0.279-0.066c0.139-0.055,0.236-0.129,0.29-0.224s0.081-0.204,0.081-0.327
				c0-0.105-0.021-0.199-0.063-0.28s-0.114-0.145-0.216-0.192c-0.066-0.031-0.149-0.054-0.249-0.069s-0.224-0.022-0.371-0.022
				h-0.495v1.201H24.693z"/>
			<path fill="#FFFFFF" d="M27.296,39.857v-3.92h0.693v3.92H27.296z"/>
			<path fill="#FFFFFF" d="M28.894,39.857v-3.92h1.001c0.088,0,0.179,0.003,0.27,0.009s0.181,0.015,0.268,0.026
				c0.086,0.012,0.17,0.026,0.251,0.042s0.156,0.037,0.224,0.06c0.202,0.066,0.38,0.156,0.535,0.27
				c0.154,0.113,0.284,0.247,0.389,0.401c0.105,0.154,0.184,0.327,0.238,0.517s0.081,0.397,0.081,0.62
				c0,0.211-0.022,0.409-0.068,0.593s-0.114,0.353-0.207,0.505s-0.209,0.287-0.349,0.403c-0.141,0.116-0.307,0.211-0.5,0.286
				c-0.16,0.063-0.342,0.109-0.546,0.141s-0.433,0.047-0.688,0.047H28.894z M29.873,39.256c0.406,0,0.723-0.058,0.951-0.173
				c0.202-0.104,0.354-0.254,0.458-0.451c0.104-0.197,0.155-0.449,0.155-0.756c0-0.16-0.017-0.305-0.051-0.434
				c-0.034-0.129-0.083-0.244-0.147-0.344c-0.064-0.101-0.142-0.187-0.233-0.259c-0.092-0.072-0.195-0.132-0.31-0.179
				c-0.107-0.043-0.227-0.074-0.359-0.094c-0.132-0.02-0.28-0.029-0.444-0.029h-0.306v2.719H29.873z"/>
		</g>
	</g>
</g>
<g id="레이어_3" display="none">
</g>
</svg>
