<?xml version="1.0" encoding="utf-8"?>
<!-- Generator: Adobe Illustrator 16.0.0, SVG Export Plug-In . SVG Version: 6.00 Build 0)  -->
<!DOCTYPE svg PUBLIC "-//W3C//DTD SVG 1.1//EN" "http://www.w3.org/Graphics/SVG/1.1/DTD/svg11.dtd">
<svg version="1.1" id="Capa_1" xmlns="http://www.w3.org/2000/svg" xmlns:xlink="http://www.w3.org/1999/xlink" x="0px" y="0px"
	 width="595.281px" height="456.996px" viewBox="0 192.446 595.281 456.996" enable-background="new 0 192.446 595.281 456.996"
	 xml:space="preserve">
<path fill="#FCD462" d="M563.531,649.442H31.749C14.214,649.442,0,635.229,0,617.693V224.195c0-17.535,14.214-31.749,31.749-31.749
	h150.121c11.47,0,22.048,6.187,27.672,16.185l17.508,31.127c5.623,9.998,16.201,16.185,27.672,16.185h308.813
	c17.533,0,31.748,14.214,31.748,31.749v330.002C595.281,635.229,581.066,649.442,563.531,649.442z"/>
<path fill="#F6C358" d="M31.749,649.442h531.782c17.535,0,31.75-14.214,31.75-31.749v-330c0-17.535-14.215-31.749-31.75-31.749
	h-229.49c-11.469,0-22.049,6.187-27.672,16.185l-17.508,31.127c-5.623,9.998-16.201,16.185-27.672,16.185H31.749
	C14.214,319.44,0,333.654,0,351.189v266.504C0,635.229,14.214,649.442,31.749,649.442z"/>
<path fill="#FCD462" d="M576.55,258.799c1.799,3.981,2.854,8.367,2.854,13.02v330.001c0,17.533-14.213,31.749-31.748,31.749H15.875
	c-4.653,0-9.038-1.057-13.02-2.854c4.978,11.022,16.013,18.729,28.894,18.729h531.782c17.535,0,31.75-14.214,31.75-31.749v-330
	C595.281,274.811,587.576,263.777,576.55,258.799z"/>
</svg>
