<?xml version="1.0" encoding="utf-8"?>
<!-- Generator: Adobe Illustrator 16.0.0, SVG Export Plug-In . SVG Version: 6.00 Build 0)  -->
<!DOCTYPE svg PUBLIC "-//W3C//DTD SVG 1.1//EN" "http://www.w3.org/Graphics/SVG/1.1/DTD/svg11.dtd">
<svg version="1.1" xmlns="http://www.w3.org/2000/svg" xmlns:xlink="http://www.w3.org/1999/xlink" x="0px" y="0px"
	 width="34.447px" height="44.908px" viewBox="0 0 34.447 44.908" enable-background="new 0 0 34.447 44.908" xml:space="preserve">
<g id="Layer_1">
	<g>
		<g>
			<path fill="#E9E9E0" d="M24.422,0.048H1.172C0.525,0.048,0,0.573,0,1.591v42.516c0,0.277,0.525,0.801,1.172,0.801h32.104
				c0.646,0,1.172-0.523,1.172-0.801V10.445c0-0.558-0.075-0.737-0.206-0.869L24.92,0.254C24.788,0.123,24.608,0.048,24.422,0.048z"
				/>
		</g>
		<g>
			<polygon fill="#D9D7CA" points="24.834,0.169 24.834,9.662 34.326,9.662 			"/>
		</g>
		<g>
			<path fill="none" d="M24.422,0.048H1.172C0.525,0.048,0,0.573,0,1.591v42.516c0,0.277,0.525,0.801,1.172,0.801h32.104
				c0.646,0,1.172-0.523,1.172-0.801V10.445c0-0.558-0.075-0.737-0.206-0.869L24.92,0.254C24.788,0.123,24.608,0.048,24.422,0.048z"
				/>
		</g>
		<g>
			<defs>
				<path id="SVGID_3_" d="M24.422,0.048H1.172C0.525,0.048,0,0.573,0,1.591v42.516c0,0.277,0.525,0.801,1.172,0.801h32.104
					c0.646,0,1.172-0.523,1.172-0.801V10.445c0-0.558-0.075-0.737-0.206-0.869L24.92,0.254C24.788,0.123,24.608,0.048,24.422,0.048z
					"/>
			</defs>
			<clipPath id="SVGID_2_">
				<use xlink:href="#SVGID_3_"  overflow="visible"/>
			</clipPath>
			<g clip-path="url(#SVGID_2_)">
				<g>
					<path fill-rule="evenodd" clip-rule="evenodd" fill="#FFFFFF" d="M-2.189,27.822c2.636-2.517,5.617-3.254,9.179-2.167
						c1.574,0.479,3.335,0.338,5.009,0.497c1.949,0.183,3.935,0.214,5.834,0.632c1.851,0.407,3.575,0.419,5.393-0.105
						c4.478-1.294,9.411,2.414,9.522,7.078c0.04,1.649-0.589,2.142-2.056,1.424c-4.294-2.101-8.793-2.13-13.194-0.848
						c-3.585,1.045-6.529,0.539-9.235-1.916c-0.238-0.215-0.522-0.381-1.008-0.729c-0.339,0.9-0.748,1.677-0.919,2.502
						c-0.457,2.188-1.367,4.081-3.164,5.479c-1.787,0-3.573,0-5.36,0C-2.189,35.721-2.189,31.771-2.189,27.822z"/>
				</g>
				<g>
					<path fill-rule="evenodd" clip-rule="evenodd" fill="#FFFFFF" d="M6.273,39.67c-0.025-0.27-0.138-0.565-0.063-0.802
						c0.555-1.741,1.147-3.468,1.675-5.043c1.338,0.652,2.89,1.58,4.563,2.161c0.951,0.331,2.144,0.298,3.15,0.081
						c4.071-0.882,8.127-1.452,12.243-0.347c0.181,0.048,0.362,0.097,0.54,0.151c2.321,0.722,2.32,0.722,2.16,3.098
						c-0.016,0.232-0.006,0.468-0.008,0.702C22.447,39.67,14.36,39.67,6.273,39.67z"/>
				</g>
				<g>
					<path fill-rule="evenodd" clip-rule="evenodd" fill="#FFFFFF" d="M32.227,39.67c0.045-0.367,0.025-0.756,0.151-1.093
						c0.167-0.449,0.43-0.864,0.681-1.279c0.384-0.633,1.031-1.212,1.145-1.885c0.322-1.914-0.454-3.584-1.57-5.107
						c-0.297-0.403-0.608-0.795-0.932-1.218c2.481-0.824,5.917,2.318,5.168,5.745c-0.401,1.84-0.252,3.33,0.717,4.837
						C35.8,39.67,34.013,39.67,32.227,39.67z"/>
				</g>
				<g>
					<path fill-rule="evenodd" clip-rule="evenodd" fill="#FFFFFF" d="M13.442,13.125c0.059-0.85,0.089-1.317,0.123-1.784
						C13.774,8.55,14.316,7.94,17.16,7.86c1.383-0.039,2.787,0.208,4.159,0.452c1.047,0.186,1.643,0.945,1.561,2.026
						c-0.215,2.793-0.382,5.6-0.784,8.368c-0.257,1.753-1.136,2.341-2.875,2.529c-0.325,0.035-0.655,0.042-0.983,0.042
						c-2.911,0.011-3.853-0.77-4.27-3.641C13.732,16.016,13.587,14.383,13.442,13.125z"/>
				</g>
				<g>
					<path fill-rule="evenodd" clip-rule="evenodd" fill="#FFFFFF" d="M13.157,20.045c3.424,2.77,5.652,2.945,9.558,0.755
						c0.086,0.667,0.209,1.293,0.24,1.924c0.095,1.879-1.319,3.047-3.229,2.604c-1.413-0.326-2.819-0.716-4.189-1.194
						C13.232,23.333,12.825,22.593,13.157,20.045z"/>
				</g>
				<g>
					<path fill-rule="evenodd" clip-rule="evenodd" fill="#8AC640" d="M28.691,26.79c-1.987-1.21-4.015-1.414-6.299-0.743
						c-1.269,0.372-2.779,0.294-4.101,0.026c-2.164-0.438-4.271-0.767-6.517-0.709c-2.365,0.06-4.747-0.523-7.101-0.996
						c0.861-0.757,0.861-0.757,3.433,0.442c-0.069-1.537,0.616-2.133,2.158-1.755c0.853,0.21,1.651,0.629,2.494,0.893
						c2.452,0.769,4.883,1.65,7.389,2.176c0.862,0.179,1.979-0.453,2.873-0.915c2.512-1.299,4.222-0.86,5.645,1.584L28.691,26.79z"
						/>
				</g>
				<g>
					<path fill-rule="evenodd" clip-rule="evenodd" fill="#8AC640" d="M28.666,26.792c0.686,0.189,1.363,0.411,2.057,0.562
						c0.57,0.123,1.16,0.163,1.74,0.24c-0.025,0.153-0.051,0.306-0.075,0.459c-0.741-0.163-1.498-0.273-2.215-0.508
						c-0.518-0.168-0.98-0.503-1.474-0.76C28.691,26.79,28.666,26.792,28.666,26.792z"/>
				</g>
			</g>
		</g>
		<g>
			<path fill="#8AC640" d="M33.275,44.908H1.172C0.525,44.908,0,44.385,0,43.736V31.291h34.447v12.445
				C34.447,44.385,33.922,44.908,33.275,44.908z"/>
		</g>
		<g>
			<path fill="#FFFFFF" d="M6.746,38.378H5.781v-0.701h1.752v2.307c-0.064,0.025-0.146,0.051-0.246,0.079s-0.211,0.052-0.334,0.073
				c-0.123,0.022-0.25,0.04-0.381,0.053c-0.131,0.014-0.261,0.021-0.389,0.021c-0.386,0-0.723-0.055-1.012-0.166
				c-0.288-0.111-0.528-0.266-0.72-0.467s-0.335-0.439-0.431-0.716c-0.096-0.277-0.143-0.583-0.143-0.918
				c0-0.237,0.025-0.463,0.075-0.679c0.05-0.215,0.125-0.415,0.222-0.598c0.098-0.184,0.216-0.35,0.355-0.498
				c0.139-0.148,0.298-0.274,0.478-0.379c0.179-0.105,0.375-0.185,0.588-0.241c0.213-0.056,0.442-0.083,0.687-0.083
				c0.216,0,0.422,0.017,0.617,0.049c0.195,0.033,0.355,0.074,0.479,0.122v0.711c-0.167-0.057-0.336-0.1-0.507-0.13
				c-0.17-0.03-0.342-0.044-0.516-0.044c-0.233,0-0.452,0.037-0.656,0.111c-0.204,0.074-0.38,0.183-0.529,0.328
				c-0.149,0.145-0.266,0.323-0.352,0.535c-0.085,0.212-0.128,0.457-0.128,0.735c0.002,0.54,0.135,0.945,0.399,1.215
				c0.264,0.271,0.638,0.405,1.122,0.405c0.09,0,0.183-0.005,0.28-0.016c0.097-0.01,0.181-0.023,0.254-0.039V38.378z"/>
			<path fill="#FFFFFF" d="M10.318,38.812c0-0.116-0.027-0.21-0.08-0.282c-0.054-0.071-0.126-0.13-0.219-0.176
				s-0.196-0.083-0.311-0.111c-0.115-0.028-0.235-0.056-0.362-0.083c-0.167-0.039-0.327-0.085-0.479-0.138
				c-0.152-0.054-0.286-0.128-0.402-0.223c-0.116-0.094-0.208-0.214-0.277-0.36c-0.068-0.146-0.103-0.328-0.103-0.547
				c0-0.242,0.04-0.452,0.119-0.631c0.08-0.179,0.187-0.327,0.323-0.444c0.136-0.117,0.296-0.205,0.479-0.263
				c0.183-0.059,0.389-0.087,0.619-0.087s0.46,0.024,0.691,0.072c0.232,0.048,0.431,0.109,0.598,0.185v0.718
				c-0.223-0.093-0.437-0.161-0.642-0.203c-0.205-0.042-0.397-0.063-0.577-0.063c-0.259,0-0.459,0.05-0.6,0.15
				c-0.141,0.1-0.21,0.25-0.21,0.451c0,0.116,0.023,0.212,0.069,0.287c0.046,0.075,0.109,0.137,0.188,0.187
				c0.08,0.049,0.171,0.088,0.273,0.118c0.103,0.03,0.212,0.057,0.328,0.082c0.182,0.041,0.356,0.088,0.522,0.142
				c0.166,0.053,0.313,0.128,0.442,0.224c0.128,0.096,0.23,0.221,0.306,0.374c0.075,0.154,0.112,0.351,0.112,0.59
				c0,0.246-0.043,0.459-0.128,0.639c-0.086,0.18-0.208,0.329-0.365,0.446c-0.158,0.118-0.349,0.205-0.574,0.262
				c-0.225,0.057-0.472,0.085-0.739,0.085c-0.234,0-0.464-0.024-0.69-0.074c-0.226-0.049-0.415-0.118-0.564-0.207v-0.708
				c0.212,0.098,0.419,0.169,0.621,0.214c0.202,0.044,0.41,0.066,0.624,0.066c0.125,0,0.247-0.011,0.367-0.032
				c0.12-0.022,0.228-0.059,0.323-0.111c0.095-0.052,0.172-0.124,0.23-0.214C10.289,39.055,10.318,38.944,10.318,38.812z"/>
			<path fill="#FFFFFF" d="M14.17,38.959h-1.62l-0.421,1.166h-0.839l1.708-4.573h0.72l1.708,4.573h-0.833L14.17,38.959z
				 M13.354,36.652c-0.15,0.479-0.285,0.878-0.403,1.199l-0.147,0.407h1.112l-0.147-0.407c-0.117-0.324-0.251-0.724-0.403-1.199
				H13.354z"/>
			<path fill="#FFFFFF" d="M16.929,38.354c-0.071,0-0.141-0.001-0.209-0.003c-0.068-0.002-0.133-0.007-0.193-0.014v1.788h-0.788
				v-4.573h1.241c0.208,0,0.39,0.01,0.545,0.029c0.156,0.019,0.294,0.048,0.417,0.087c0.294,0.096,0.52,0.249,0.679,0.458
				s0.238,0.476,0.238,0.8c0,0.221-0.043,0.42-0.128,0.597c-0.086,0.176-0.211,0.326-0.376,0.449s-0.367,0.218-0.604,0.284
				S17.237,38.354,16.929,38.354z M16.526,37.633c0.045,0.007,0.103,0.012,0.172,0.015c0.069,0.004,0.142,0.005,0.217,0.005
				c0.212,0,0.39-0.018,0.534-0.055c0.144-0.037,0.259-0.087,0.347-0.152c0.088-0.065,0.151-0.144,0.189-0.236
				c0.039-0.092,0.058-0.193,0.058-0.302c0-0.134-0.029-0.25-0.087-0.349c-0.058-0.098-0.159-0.174-0.302-0.229
				c-0.075-0.027-0.168-0.047-0.278-0.06c-0.11-0.013-0.246-0.019-0.407-0.019h-0.444V37.633z"/>
			<path fill="#FFFFFF" d="M19.414,39.212h0.865v0.913h-0.865V39.212z"/>
			<path fill="#FFFFFF" d="M23.491,38.959h-1.62l-0.421,1.166H20.61l1.708-4.573h0.72l1.708,4.573h-0.833L23.491,38.959z
				 M22.674,36.652c-0.15,0.479-0.285,0.878-0.403,1.199l-0.147,0.407h1.112l-0.147-0.407c-0.117-0.324-0.251-0.724-0.403-1.199
				H22.674z"/>
			<path fill="#FFFFFF" d="M27.301,37.677c0.309,0.467,0.56,0.882,0.752,1.244h0.02c-0.026-0.595-0.039-1.028-0.039-1.299v-2.071
				h0.788v4.573h-0.826l-1.402-2.105c-0.247-0.365-0.501-0.787-0.765-1.268h-0.02c0.026,0.561,0.039,0.995,0.039,1.302v2.071H25.06
				v-4.573h0.826L27.301,37.677z"/>
			<path fill="#FFFFFF" d="M29.555,40.125v-4.573h0.788v4.573H29.555z"/>
		</g>
	</g>
</g>
<g id="레이어_3" display="none">
</g>
</svg>
