<?xml version="1.0" encoding="utf-8"?>
<!-- Generator: Adobe Illustrator 16.0.0, SVG Export Plug-In . SVG Version: 6.00 Build 0)  -->
<!DOCTYPE svg PUBLIC "-//W3C//DTD SVG 1.1//EN" "http://www.w3.org/Graphics/SVG/1.1/DTD/svg11.dtd">
<svg version="1.1" id="레이어_1" xmlns="http://www.w3.org/2000/svg" xmlns:xlink="http://www.w3.org/1999/xlink" x="0px"
	 y="0px" width="34.398px" height="44.801px" viewBox="0 0 34.398 44.801" enable-background="new 0 0 34.398 44.801"
	 xml:space="preserve">
<g id="Layer_1">
	<g>
		<g>
			<path fill="#E9E9E0" d="M24.387,0H1.172C0.523,0,0,0.522,0,1.538v42.461C0,44.273,0.523,44.8,1.172,44.8H33.23
				c0.645,0,1.168-0.524,1.168-0.801V10.382c0-0.559-0.074-0.738-0.203-0.867l-9.309-9.309C24.754,0.073,24.574,0,24.387,0L24.387,0
				z"/>
		</g>
		<g>
			<path fill="#B26530" d="M33.23,44.8H1.172C0.523,44.8,0,44.273,0,43.628v-12.43h34.398v12.43
				C34.398,44.273,33.875,44.8,33.23,44.8L33.23,44.8z"/>
		</g>
		<g>
			<path fill="#D9D7CA" d="M24.801,0.12V9.6h9.478L24.801,0.12z"/>
		</g>
		<g>
			<path fill="#FFFFFF" d="M10.005,34.639h1.709v-1.613h0.676v3.92h-0.676V35.24h-1.709v1.705H9.33v-3.92h0.675V34.639z"/>
			<path fill="#FFFFFF" d="M16.446,34.984c0,0.299-0.04,0.572-0.12,0.82c-0.08,0.25-0.197,0.465-0.35,0.645
				c-0.153,0.18-0.343,0.318-0.565,0.419c-0.223,0.1-0.478,0.149-0.762,0.149s-0.539-0.051-0.762-0.149
				c-0.224-0.101-0.412-0.239-0.565-0.419s-0.271-0.395-0.35-0.645c-0.08-0.248-0.12-0.521-0.12-0.82s0.04-0.573,0.12-0.821
				c0.079-0.25,0.196-0.464,0.35-0.644c0.153-0.181,0.342-0.319,0.565-0.42c0.224-0.1,0.478-0.148,0.762-0.148
				s0.539,0.05,0.762,0.148c0.223,0.1,0.412,0.239,0.565,0.42c0.152,0.18,0.271,0.394,0.35,0.644
				C16.406,34.411,16.446,34.686,16.446,34.984z M15.749,34.984c0-0.238-0.027-0.446-0.083-0.627
				c-0.055-0.178-0.131-0.326-0.229-0.445c-0.099-0.119-0.213-0.208-0.349-0.268c-0.134-0.059-0.28-0.088-0.44-0.088
				s-0.308,0.029-0.441,0.088c-0.134,0.06-0.25,0.147-0.347,0.268c-0.098,0.119-0.174,0.27-0.229,0.445
				c-0.055,0.181-0.083,0.389-0.083,0.627s0.027,0.445,0.083,0.625c0.056,0.179,0.132,0.328,0.229,0.445
				c0.097,0.118,0.213,0.207,0.347,0.266c0.134,0.062,0.281,0.091,0.441,0.091s0.307-0.029,0.44-0.091
				c0.135-0.059,0.25-0.146,0.349-0.266c0.097-0.117,0.173-0.268,0.229-0.445S15.749,35.223,15.749,34.984z"/>
			<path fill="#FFFFFF" d="M18.276,35.986c0.068-0.213,0.117-0.364,0.146-0.456c0.03-0.091,0.095-0.276,0.192-0.558l0.684-1.949
				h0.715l-1.442,3.92h-0.606l-1.44-3.92h0.719l0.684,1.949c0.099,0.28,0.162,0.467,0.192,0.558c0.03,0.092,0.079,0.243,0.147,0.456
				H18.276z"/>
			<path fill="#FFFFFF" d="M20.93,36.344h1.813v0.602h-2.489v-3.92h2.391v0.601H20.93v1.015h1.472v0.601H20.93V36.344z"/>
			<path fill="#FFFFFF" d="M25.936,34.202c0,0.272-0.071,0.506-0.214,0.694c-0.143,0.191-0.362,0.332-0.66,0.424v0.013l1.097,1.61
				h-0.81l-1.003-1.518h-0.464v1.518h-0.675v-3.92h1.122c0.187,0,0.358,0.013,0.519,0.033c0.159,0.023,0.297,0.058,0.41,0.103
				c0.218,0.088,0.385,0.219,0.503,0.391C25.876,33.725,25.936,33.939,25.936,34.202z M24.215,34.826
				c0.154,0,0.286-0.008,0.394-0.021c0.106-0.015,0.198-0.037,0.271-0.065c0.137-0.056,0.23-0.13,0.282-0.224
				c0.053-0.096,0.079-0.205,0.079-0.328c0-0.104-0.021-0.197-0.062-0.279c-0.041-0.08-0.111-0.145-0.212-0.191
				c-0.063-0.031-0.145-0.055-0.241-0.068c-0.099-0.016-0.219-0.021-0.361-0.021h-0.482v1.201h0.333V34.826z"/>
			<path fill="#FFFFFF" d="M9.945,42.344h1.813v0.602H9.27v-3.92h2.39v0.601H9.945v1.015h1.472v0.601H9.945V42.344z"/>
			<path fill="#FFFFFF" d="M12.896,42.943h-0.675v-3.92h2.349v0.602h-1.673v1.014h1.431v0.602h-1.431L12.896,42.943L12.896,42.943z"
				/>
			<path fill="#FFFFFF" d="M15.583,42.943h-0.675v-3.92h2.349v0.602h-1.673v1.014h1.432v0.602h-1.432L15.583,42.943L15.583,42.943z"
				/>
			<path fill="#FFFFFF" d="M18.271,42.344h1.813v0.602h-2.488v-3.92h2.39v0.601h-1.715v1.015h1.472v0.601h-1.472V42.344z"/>
			<path fill="#FFFFFF" d="M22.341,39.559c-0.184,0-0.353,0.031-0.508,0.097c-0.154,0.064-0.289,0.157-0.399,0.28
				c-0.111,0.123-0.198,0.275-0.261,0.457c-0.062,0.181-0.094,0.387-0.094,0.618c0,0.23,0.028,0.435,0.085,0.607
				c0.058,0.176,0.14,0.321,0.245,0.438c0.106,0.116,0.237,0.205,0.39,0.264c0.153,0.062,0.328,0.091,0.522,0.091
				c0.14,0,0.282-0.013,0.427-0.035c0.146-0.022,0.281-0.058,0.408-0.103v0.617c-0.128,0.039-0.267,0.069-0.416,0.092
				c-0.149,0.023-0.303,0.035-0.463,0.035c-0.313,0-0.587-0.049-0.824-0.143c-0.237-0.096-0.435-0.229-0.594-0.402
				c-0.159-0.172-0.278-0.379-0.358-0.621c-0.08-0.24-0.12-0.507-0.12-0.797c0-0.3,0.042-0.576,0.128-0.832
				c0.087-0.257,0.208-0.479,0.369-0.666s0.362-0.334,0.604-0.441s0.515-0.162,0.819-0.164c0.156,0,0.305,0.012,0.444,0.033
				c0.141,0.022,0.267,0.055,0.377,0.096v0.609c-0.146-0.049-0.284-0.084-0.411-0.104C22.587,39.566,22.463,39.559,22.341,39.559z"
				/>
			<path fill="#FFFFFF" d="M25.1,42.943h-0.676v-3.318h-1.19v-0.602h3.054v0.602H25.1V42.943z"/>
		</g>
		<g>
			<g>
				<path fill="#B26530" d="M22.529,13.446h-0.03c-0.41-0.002-0.806,0.148-1.11,0.422c-0.247-0.684-0.874-1.174-1.609-1.174
					c-0.45,0.004-0.88,0.188-1.192,0.514c-0.287-0.582-0.861-0.975-1.523-0.975H17.03c-0.354-0.006-0.701,0.109-0.981,0.326v-4.14
					c0-1-0.777-1.814-1.726-1.814c-0.946,0-1.722,0.814-1.722,1.814l-0.009,8.215l-0.465-0.566
					c-0.407-0.506-1.008-0.822-1.656-0.869c-0.637-0.043-1.262,0.178-1.729,0.611l-0.405,0.336c-0.13,0.107-0.167,0.291-0.089,0.441
					l3.934,7.562c0.719,1.381,2.087,2.242,3.57,2.242h4.433v-0.005c2.248,0,4.068-1.948,4.07-4.344
					c0.001-1.07-0.003-1.869-0.002-2.516c0.002-1.732,0-2.371-0.004-4.279C24.247,14.249,23.474,13.446,22.529,13.446z
					 M23.529,19.522c-0.001,0.648-0.002,1.449-0.003,2.521c-0.002,1.998-1.511,3.627-3.363,3.627h-4.411
					c-1.214,0-2.338-0.713-2.933-1.857L9.02,16.515l0.188-0.156c0.005-0.004,0.009-0.008,0.015-0.012
					c0.322-0.305,0.756-0.459,1.197-0.432c0.452,0.035,0.869,0.256,1.151,0.609l1.101,1.34c0.097,0.117,0.257,0.162,0.398,0.111
					c0.143-0.053,0.239-0.188,0.239-0.34l0.007-9.217c0-0.604,0.457-1.096,1.007-1.096c0.551,0,1.007,0.492,1.007,1.096v5.559
					c0,0.02-0.001,0.039-0.001,0.059c0,0.008,0.001,0.016,0.001,0.025v2.375c0,0.199,0.161,0.361,0.359,0.361
					c0.199,0,0.358-0.162,0.358-0.361v-2.447c0-0.582,0.446-1.037,0.981-1.037h0.032c0.551,0,1.009,0.48,1.009,1.084v2.174
					c0,0.199,0.161,0.361,0.359,0.361c0.197,0,0.358-0.162,0.358-0.361v-1.705c0-0.605,0.438-1.096,0.991-1.096
					c0.551,0,0.987,0.49,0.987,1.096v1.609c0,0.199,0.16,0.359,0.358,0.359s0.359-0.16,0.359-0.359v-0.871
					c0-0.605,0.46-1.078,1.011-1.078h0.03c0.549,0,0.997,0.482,0.999,1.084C23.532,17.155,23.531,17.794,23.529,19.522z"/>
				<path fill="#B26530" d="M20.184,26.54h-4.433c-1.538,0-2.958-0.89-3.704-2.323l-3.933-7.561
					c-0.11-0.212-0.056-0.475,0.127-0.626l0.404-0.335c0.49-0.455,1.15-0.69,1.834-0.646c0.688,0.05,1.33,0.387,1.764,0.925
					l0.199,0.242L12.45,8.42c0-1.083,0.84-1.964,1.872-1.964c1.035,0,1.876,0.881,1.876,1.964v3.866
					c0.247-0.131,0.525-0.202,0.806-0.202h0.059c0.636,0,1.219,0.334,1.562,0.884c0.321-0.268,0.731-0.42,1.153-0.423
					c0.707,0,1.354,0.428,1.672,1.083c0.303-0.215,0.666-0.331,1.042-0.331h0.038c1.029,0,1.868,0.875,1.87,1.95l0.001,0.369
					c0.004,1.631,0.005,2.295,0.003,3.911l0.001,0.889c0.001,0.465,0.002,0.999,0.001,1.626c-0.002,2.424-1.815,4.406-4.071,4.491
					v0.003L20.184,26.54z M10.314,15.343c-0.547,0-1.069,0.205-1.47,0.577l-0.411,0.341c-0.077,0.063-0.099,0.169-0.053,0.257
					l3.934,7.561c0.693,1.333,2.011,2.162,3.438,2.162l4.433-0.005c2.16,0,3.919-1.881,3.921-4.193c0.001-0.627,0-1.161-0.001-1.625
					l-0.001-0.89c0.002-1.616,0-2.28-0.003-3.911l-0.001-0.368c-0.002-0.911-0.706-1.651-1.57-1.651h-0.038
					c-0.371,0-0.727,0.136-1.003,0.384l-0.166,0.148l-0.076-0.209c-0.231-0.643-0.822-1.075-1.468-1.075
					c-0.408,0.003-0.803,0.174-1.084,0.467l-0.148,0.155l-0.095-0.192c-0.271-0.55-0.804-0.891-1.39-0.891h-0.059
					c-0.311,0-0.618,0.104-0.863,0.295l-0.242,0.187V8.419c0-0.918-0.707-1.665-1.576-1.665c-0.866,0-1.572,0.747-1.572,1.665
					l-0.008,8.634l-0.729-0.89c-0.384-0.475-0.948-0.771-1.553-0.815C10.412,15.345,10.363,15.343,10.314,15.343z M20.163,25.82
					h-4.411c-1.27,0-2.443-0.742-3.065-1.938l-3.854-7.406l0.281-0.233c0.358-0.338,0.827-0.502,1.317-0.478
					c0.493,0.039,0.951,0.281,1.259,0.666l1.1,1.338c0.057,0.068,0.148,0.095,0.232,0.065c0.084-0.031,0.139-0.109,0.139-0.199
					l0.007-9.217c0-0.687,0.52-1.246,1.157-1.246s1.157,0.559,1.157,1.246v8.018c0,0.117,0.094,0.211,0.209,0.211
					s0.209-0.095,0.209-0.211V13.99c0-0.655,0.507-1.188,1.131-1.188c0.671,0,1.191,0.553,1.191,1.234v2.174
					c0,0.117,0.094,0.211,0.209,0.211c0.114,0,0.209-0.095,0.209-0.211v-1.705c0-0.687,0.512-1.246,1.141-1.246
					c0.627,0,1.137,0.559,1.137,1.246v1.609c0,0.115,0.095,0.209,0.209,0.209c0.115,0,0.209-0.094,0.209-0.209v-0.871
					c0-0.677,0.521-1.228,1.161-1.228c0.662,0,1.177,0.553,1.179,1.233c0.005,1.907,0.005,2.545,0.001,4.274l-0.003,2.521
					C23.674,24.126,22.098,25.82,20.163,25.82z M9.209,16.552l3.743,7.192c0.57,1.096,1.644,1.777,2.8,1.777h4.411
					c1.771,0,3.211-1.561,3.213-3.478l0.003-2.521c0.002-1.729,0.003-2.367-0.001-4.273c-0.001-0.515-0.382-0.935-0.849-0.935
					c-0.505,0-0.892,0.417-0.892,0.928v0.871c0,0.281-0.229,0.509-0.51,0.509c-0.279,0-0.509-0.229-0.509-0.509v-1.609
					c0-0.521-0.375-0.946-0.837-0.946c-0.471,0-0.841,0.416-0.841,0.946v1.705c0,0.282-0.229,0.511-0.509,0.511
					c-0.28,0-0.51-0.229-0.51-0.511v-2.174c0-0.515-0.386-0.934-0.858-0.934c-0.491,0-0.864,0.398-0.864,0.887v2.447
					c0,0.282-0.229,0.511-0.509,0.511s-0.509-0.229-0.509-0.511V8.419c0-0.521-0.386-0.946-0.857-0.946s-0.857,0.424-0.857,0.946
					l-0.007,9.217c0,0.213-0.135,0.406-0.337,0.48c-0.206,0.072-0.432,0.006-0.565-0.157l-1.102-1.34
					c-0.257-0.321-0.638-0.523-1.047-0.555c-0.028-0.001-0.058-0.002-0.088-0.002c-0.373,0-0.726,0.14-0.995,0.394L9.209,16.552z"/>
			</g>
			<g>
				<path fill="#B26530" d="M11.458,8.575c0.199,0,0.359-0.162,0.359-0.359c0.006-1.373,1.12-2.482,2.492-2.482
					s2.485,1.109,2.49,2.482c0,0.197,0.162,0.359,0.36,0.359s0.359-0.162,0.359-0.359c-0.007-1.77-1.442-3.199-3.211-3.199
					c-1.77,0-3.204,1.43-3.21,3.199C11.099,8.413,11.26,8.575,11.458,8.575z"/>
				<path fill="#B26530" d="M17.161,8.725c-0.281,0-0.51-0.229-0.51-0.509c-0.005-1.286-1.055-2.333-2.341-2.333
					s-2.336,1.047-2.343,2.333c0,0.28-0.229,0.509-0.509,0.509c-0.279,0-0.509-0.229-0.509-0.509
					c0.006-1.847,1.514-3.349,3.36-3.349c1.846,0,3.354,1.502,3.36,3.349C17.67,8.497,17.442,8.725,17.161,8.725z M14.31,5.583
					c1.451,0,2.636,1.181,2.641,2.632c0,0.116,0.094,0.21,0.21,0.21c0.115,0,0.209-0.094,0.209-0.209
					c-0.007-1.681-1.38-3.049-3.061-3.049c-1.683,0-3.055,1.368-3.062,3.05c0,0.115,0.094,0.209,0.209,0.209
					s0.209-0.094,0.209-0.209C11.674,6.764,12.859,5.583,14.31,5.583z"/>
			</g>
		</g>
	</g>
</g>
<g id="레이어_3" display="none">
</g>
</svg>
