<?xml version="1.0" encoding="utf-8"?>
<!-- Generator: Adobe Illustrator 16.0.0, SVG Export Plug-In . SVG Version: 6.00 Build 0)  -->
<!DOCTYPE svg PUBLIC "-//W3C//DTD SVG 1.1//EN" "http://www.w3.org/Graphics/SVG/1.1/DTD/svg11.dtd">
<svg version="1.1" xmlns="http://www.w3.org/2000/svg" xmlns:xlink="http://www.w3.org/1999/xlink" x="0px" y="0px"
	 width="34.398px" height="44.801px" viewBox="0 0 34.398 44.801" enable-background="new 0 0 34.398 44.801" xml:space="preserve">
<g id="Layer_1">
	<g>
		<g>
			<path fill="#E9E9E0" d="M24.387,0H1.172C0.522,0,0,0.523,0,1.539V44c0,0.276,0.522,0.801,1.172,0.801H33.23
				c0.645,0,1.168-0.524,1.168-0.801V10.383c0-0.559-0.074-0.738-0.203-0.867l-9.309-9.309C24.754,0.074,24.574,0,24.387,0L24.387,0
				z M24.387,0"/>
		</g>
		<g>
			<path fill="#D9D7CA" d="M24.801,0.121v9.481h9.477L24.801,0.121z M24.801,0.121"/>
		</g>
		<g>
			<path fill="#EA4828" d="M33.23,44.801H1.172C0.522,44.801,0,44.276,0,43.629v-12.43h34.398v12.43
				C34.398,44.276,33.875,44.801,33.23,44.801L33.23,44.801z M33.23,44.801"/>
		</g>
		<g>
			<path fill="#EA4828" d="M13.367,13.035c-0.313-0.312-0.82-0.312-1.134,0l-4.8,4.801c-0.313,0.312-0.313,0.816,0,1.129l4.8,4.801
				C12.391,23.922,12.594,24,12.801,24c0.203,0,0.41-0.078,0.566-0.234c0.313-0.313,0.313-0.821,0-1.133l-4.234-4.235l4.234-4.234
				C13.68,13.852,13.68,13.348,13.367,13.035L13.367,13.035z M13.367,13.035"/>
		</g>
		<g>
			<path fill="#EA4828" d="M27.766,17.836l-4.801-4.801c-0.313-0.312-0.816-0.312-1.129,0c-0.313,0.313-0.313,0.817,0,1.129
				l4.234,4.234l-4.234,4.235c-0.313,0.312-0.313,0.82,0,1.133C21.992,23.922,22.195,24,22.398,24c0.207,0,0.41-0.078,0.566-0.234
				l4.801-4.801C28.078,18.652,28.078,18.148,27.766,17.836L27.766,17.836z M27.766,17.836"/>
		</g>
		<g>
			<path fill="#FFFFFF" d="M9.101,37.361h2.242v-2.152h0.886v5.227h-0.886v-2.273H9.101v2.273H8.215v-5.227h0.886V37.361z"/>
			<path fill="#FFFFFF" d="M15.362,40.435h-0.886v-4.426h-1.562v-0.801h4.006v0.801h-1.558V40.435z"/>
			<path fill="#FFFFFF" d="M20.095,39.033c0.106-0.412,0.237-0.853,0.394-1.324l0.835-2.5h1.244v5.227h-0.886v-2.648
				c0-0.388,0.014-0.838,0.043-1.352h-0.032c-0.041,0.148-0.089,0.315-0.145,0.5c-0.056,0.185-0.113,0.367-0.174,0.547l-1.001,2.953
				h-0.571l-1.001-2.953c-0.06-0.18-0.118-0.362-0.173-0.547c-0.056-0.185-0.104-0.352-0.145-0.5H18.45
				c0.029,0.482,0.043,0.931,0.043,1.348v2.652h-0.886v-5.227h1.236l0.835,2.488c0.14,0.414,0.271,0.859,0.395,1.336H20.095z"/>
			<path fill="#FFFFFF" d="M24.611,35.208v4.426h2.263v0.801h-3.149v-5.227H24.611z"/>
		</g>
	</g>
</g>
<g id="레이어_3" display="none">
</g>
</svg>
