<?xml version="1.0" encoding="utf-8"?>
<!-- Generator: Adobe Illustrator 16.0.0, SVG Export Plug-In . SVG Version: 6.00 Build 0)  -->
<!DOCTYPE svg PUBLIC "-//W3C//DTD SVG 1.1//EN" "http://www.w3.org/Graphics/SVG/1.1/DTD/svg11.dtd">
<svg version="1.1" id="레이어_1" xmlns="http://www.w3.org/2000/svg" xmlns:xlink="http://www.w3.org/1999/xlink" x="0px"
	 y="0px" width="34.447px" height="44.83px" viewBox="0 0 34.447 44.83" enable-background="new 0 0 34.447 44.83"
	 xml:space="preserve">
<g id="Layer_1">
	<g>
		<g>
			<path fill="#E9E9E0" d="M24.421,0H1.172C0.525,0,0,0.524,0,1.543V44.06c0,0.276,0.525,0.801,1.172,0.801h32.104
				c0.646,0,1.172-0.523,1.172-0.801V10.396c0-0.558-0.075-0.737-0.206-0.869L24.92,0.206C24.788,0.075,24.608,0,24.421,0z"/>
		</g>
		<g>
			<polygon fill="#D9D7CA" points="24.834,0.121 24.834,9.613 34.326,9.613 			"/>
		</g>
		<g>
			<path fill="#0868AC" d="M33.275,44.858H1.172C0.525,44.858,0,44.336,0,43.688V31.242h34.447v12.444
				C34.447,44.336,33.922,44.858,33.275,44.858z"/>
		</g>
		<g opacity="0.6">
			<path fill="#0868AC" d="M21.414,24.983c-3.516,0-6.457-0.95-8.773-2.84c-4.619-3.768-4.989-9.852-5.002-10.109
				c-0.029-0.551,0.394-1.02,0.943-1.05c0.553-0.02,1.022,0.393,1.053,0.943c0.004,0.055,0.352,5.482,4.283,8.677
				c2.57,2.088,6.129,2.806,10.586,2.134c0.545-0.086,1.057,0.293,1.139,0.839s-0.293,1.056-0.839,1.138
				C23.621,24.894,22.49,24.983,21.414,24.983z"/>
		</g>
		<g opacity="0.6">
			<path fill="#0868AC" d="M22.698,20.705c-2.82,0-5.164-0.766-6.989-2.288c-3.479-2.902-3.717-7.461-3.725-7.654
				c-0.024-0.552,0.404-1.019,0.956-1.042c0.525-0.031,1.018,0.402,1.042,0.954c0.004,0.073,0.232,3.905,3.021,6.219
				c1.879,1.559,4.525,2.116,7.869,1.655c0.549-0.08,1.052,0.307,1.127,0.854c0.075,0.547-0.307,1.052-0.854,1.127
				C24.294,20.646,23.478,20.705,22.698,20.705z"/>
		</g>
		<g opacity="0.6">
			<path fill="#0868AC" d="M22.004,15.567c-1.17,0-2.195-0.32-3.061-0.958c-1.953-1.44-2.272-3.973-2.285-4.081
				c-0.065-0.548,0.327-1.045,0.876-1.11c0.536-0.062,1.042,0.325,1.11,0.872c0.004,0.029,0.247,1.804,1.497,2.717
				c0.717,0.524,1.673,0.678,2.843,0.465c0.539-0.099,1.063,0.259,1.165,0.802c0.1,0.543-0.259,1.064-0.802,1.165
				C22.88,15.524,22.433,15.567,22.004,15.567z"/>
		</g>
		<g>
			<path fill="#FFFFFF" d="M7.903,35.267h0.9v3.863c0,0.172-0.012,0.319-0.035,0.443c-0.024,0.124-0.059,0.232-0.105,0.326
				c-0.061,0.125-0.138,0.23-0.23,0.317c-0.094,0.087-0.198,0.159-0.316,0.216c-0.118,0.055-0.244,0.096-0.378,0.12
				S7.464,40.59,7.319,40.59c-0.15,0-0.295-0.013-0.437-0.039c-0.141-0.026-0.259-0.06-0.354-0.102v-0.816
				c0.108,0.048,0.223,0.083,0.346,0.109s0.244,0.039,0.364,0.039c0.233,0,0.402-0.058,0.507-0.173
				c0.105-0.113,0.158-0.283,0.158-0.508V35.267z"/>
			<path fill="#FFFFFF" d="M13.364,39.825c0.061-0.02,0.131-0.035,0.209-0.051c0.078-0.017,0.16-0.028,0.244-0.039
				c0.084-0.012,0.169-0.02,0.254-0.023c0.084-0.005,0.167-0.008,0.248-0.008h0.07v0.832c-0.131-0.014-0.287-0.023-0.472-0.031
				c-0.184-0.008-0.378-0.012-0.584-0.012c-0.153,0-0.292,0.004-0.415,0.012s-0.246,0.018-0.37,0.025
				c-0.124,0.009-0.252,0.018-0.386,0.025c-0.133,0.008-0.264,0.012-0.391,0.012c-0.385,0-0.725-0.065-1.019-0.195
				s-0.542-0.313-0.742-0.551c-0.201-0.237-0.354-0.521-0.456-0.85c-0.104-0.33-0.154-0.693-0.154-1.093s0.053-0.764,0.16-1.096
				c0.106-0.332,0.262-0.618,0.467-0.857s0.456-0.426,0.753-0.559c0.297-0.134,0.636-0.199,1.016-0.199s0.72,0.065,1.017,0.199
				c0.298,0.133,0.549,0.317,0.753,0.555c0.204,0.238,0.359,0.519,0.467,0.847c0.107,0.326,0.16,0.685,0.16,1.071
				c0,0.203-0.02,0.401-0.055,0.595c-0.036,0.192-0.091,0.371-0.16,0.539c-0.07,0.166-0.157,0.321-0.264,0.467
				c-0.105,0.145-0.225,0.269-0.359,0.373L13.364,39.825z M13.264,37.88c0-0.316-0.037-0.596-0.11-0.834
				c-0.074-0.238-0.175-0.438-0.305-0.596c-0.13-0.159-0.284-0.277-0.463-0.355c-0.18-0.078-0.375-0.117-0.589-0.117
				c-0.213,0-0.408,0.039-0.588,0.117c-0.179,0.078-0.333,0.196-0.463,0.355c-0.13,0.158-0.231,0.357-0.305,0.596
				c-0.074,0.238-0.11,0.518-0.11,0.834c0,0.317,0.037,0.596,0.11,0.834s0.175,0.438,0.305,0.594
				c0.129,0.157,0.284,0.276,0.463,0.355c0.18,0.079,0.375,0.119,0.588,0.119c0.214,0,0.409-0.04,0.589-0.119
				c0.179-0.079,0.333-0.198,0.463-0.355c0.13-0.156,0.23-0.354,0.305-0.594C13.228,38.476,13.264,38.197,13.264,37.88z"/>
			<path fill="#FFFFFF" d="M15.024,39.45h0.989v1.043h-0.989V39.45z"/>
			<path fill="#FFFFFF" d="M19.684,39.161h-1.853l-0.481,1.332h-0.959l1.951-5.227h0.823l1.951,5.227h-0.952L19.684,39.161z
				 M18.75,36.524c-0.172,0.547-0.325,1.004-0.46,1.371l-0.168,0.465h1.271l-0.168-0.465c-0.134-0.371-0.287-0.828-0.46-1.371H18.75
				z"/>
			<path fill="#FFFFFF" d="M24.039,37.696c0.354,0.533,0.64,1.008,0.86,1.422h0.021c-0.028-0.68-0.044-1.176-0.044-1.484v-2.367h0.9
				v5.228h-0.945l-1.602-2.406c-0.282-0.417-0.574-0.899-0.875-1.448h-0.022c0.029,0.641,0.044,1.137,0.044,1.487v2.367h-0.899
				v-5.228h0.944L24.039,37.696z"/>
			<path fill="#FFFFFF" d="M26.614,40.493v-5.227h0.9v5.227H26.614z"/>
		</g>
		<g>
			<path fill="none" d="M24.421,0H1.172C0.525,0,0,0.524,0,1.543V44.06c0,0.276,0.525,0.801,1.172,0.801h32.104
				c0.646,0,1.172-0.523,1.172-0.801V10.396c0-0.558-0.075-0.737-0.206-0.869L24.92,0.206C24.788,0.075,24.608,0,24.421,0z"/>
		</g>
	</g>
</g>
<g id="레이어_3" display="none">
</g>
</svg>
