<?xml version="1.0" encoding="utf-8"?>
<!-- Generator: Adobe Illustrator 16.0.0, SVG Export Plug-In . SVG Version: 6.00 Build 0)  -->
<!DOCTYPE svg PUBLIC "-//W3C//DTD SVG 1.1//EN" "http://www.w3.org/Graphics/SVG/1.1/DTD/svg11.dtd">
<svg version="1.1" id="레이어_1" xmlns="http://www.w3.org/2000/svg" xmlns:xlink="http://www.w3.org/1999/xlink" x="0px"
	 y="0px" width="34.48px" height="44.857px" viewBox="0 0 34.48 44.857" enable-background="new 0 0 34.48 44.857"
	 xml:space="preserve">
<g id="Layer_1">
	<g>
		<g>
			<path fill="#E9E9E0" d="M24.421,0H1.172C0.525,0,0,0.524,0,1.543v42.514c0,0.277,0.524,0.801,1.172,0.801h32.103
				c0.647,0,1.172-0.522,1.172-0.801V10.396c0-0.558-0.074-0.736-0.205-0.869l-9.321-9.32C24.788,0.075,24.608,0,24.421,0z"/>
		</g>
		<g>
			<polygon fill="#D9D7CA" points="24.834,0.121 24.834,9.613 34.326,9.613 			"/>
		</g>
		<g>
			<path fill="#0868AC" d="M33.275,44.858H1.172C0.525,44.858,0,44.334,0,43.686V31.241h34.446v12.444
				C34.447,44.334,33.922,44.858,33.275,44.858z"/>
		</g>
		<g>
			<path fill="#0868AC" d="M21.415,24.982c-3.517,0-6.458-0.95-8.775-2.841c-4.618-3.768-4.988-9.851-5.001-10.107
				c-0.029-0.552,0.395-1.021,0.944-1.051c0.543-0.02,1.021,0.394,1.053,0.943c0.003,0.054,0.351,5.481,4.283,8.676
				c2.568,2.088,6.132,2.807,10.586,2.134c0.545-0.086,1.056,0.293,1.138,0.84c0.083,0.546-0.293,1.056-0.839,1.138
				C23.621,24.893,22.491,24.982,21.415,24.982z"/>
		</g>
		<g>
			<path fill="#0868AC" d="M22.699,20.706c-2.821,0-5.165-0.767-6.99-2.289c-3.479-2.902-3.716-7.461-3.726-7.654
				c-0.023-0.552,0.404-1.019,0.956-1.042c0.529-0.032,1.018,0.402,1.042,0.954c0.004,0.073,0.233,3.905,3.022,6.219
				c1.879,1.56,4.524,2.118,7.869,1.656c0.542-0.075,1.052,0.307,1.127,0.854c0.075,0.548-0.308,1.053-0.854,1.128
				C24.294,20.647,23.478,20.706,22.699,20.706z"/>
		</g>
		<g>
			<path fill="#0868AC" d="M22.004,15.567c-1.17,0-2.196-0.319-3.062-0.958c-1.952-1.439-2.271-3.973-2.284-4.081
				c-0.065-0.548,0.326-1.045,0.876-1.109c0.537-0.063,1.043,0.325,1.109,0.872c0.004,0.028,0.247,1.804,1.497,2.717
				c0.717,0.524,1.672,0.68,2.843,0.465c0.54-0.1,1.064,0.259,1.165,0.802s-0.259,1.064-0.802,1.165
				C22.88,15.524,22.433,15.567,22.004,15.567z"/>
		</g>
		<g>
			<path fill="#FFFFFF" d="M14.541,35.267h0.899v3.863c0,0.172-0.011,0.319-0.035,0.443c-0.023,0.124-0.058,0.231-0.104,0.325
				c-0.061,0.125-0.138,0.231-0.231,0.318c-0.093,0.087-0.197,0.159-0.315,0.215s-0.244,0.097-0.378,0.121s-0.274,0.037-0.419,0.037
				c-0.15,0-0.295-0.013-0.437-0.039c-0.141-0.026-0.259-0.06-0.354-0.102v-0.816c0.107,0.047,0.223,0.083,0.346,0.109
				c0.123,0.025,0.244,0.039,0.364,0.039c0.232,0,0.401-0.059,0.507-0.173c0.104-0.113,0.158-0.283,0.158-0.508V35.267z"/>
			<path fill="#FFFFFF" d="M20.002,39.826c0.061-0.02,0.131-0.035,0.209-0.052c0.078-0.016,0.16-0.027,0.244-0.039
				c0.084-0.011,0.169-0.019,0.254-0.022c0.084-0.005,0.167-0.008,0.248-0.008h0.069v0.832c-0.13-0.014-0.286-0.023-0.471-0.031
				c-0.184-0.008-0.378-0.012-0.584-0.012c-0.154,0-0.292,0.004-0.415,0.012s-0.246,0.017-0.37,0.025s-0.252,0.018-0.386,0.024
				c-0.133,0.008-0.264,0.012-0.391,0.012c-0.386,0-0.725-0.064-1.019-0.194s-0.542-0.313-0.743-0.551s-0.353-0.521-0.456-0.851
				c-0.103-0.329-0.153-0.693-0.153-1.092c0-0.399,0.053-0.764,0.16-1.096c0.106-0.332,0.262-0.618,0.467-0.857
				s0.456-0.426,0.753-0.559c0.297-0.134,0.636-0.199,1.016-0.199s0.719,0.065,1.017,0.199c0.298,0.133,0.549,0.316,0.753,0.555
				s0.359,0.519,0.467,0.846c0.106,0.327,0.16,0.686,0.16,1.072c0,0.203-0.02,0.401-0.056,0.594
				c-0.035,0.193-0.09,0.372-0.159,0.539c-0.07,0.167-0.157,0.322-0.264,0.467c-0.105,0.146-0.225,0.27-0.359,0.373L20.002,39.826z
				 M19.902,37.88c0-0.317-0.036-0.596-0.109-0.834c-0.074-0.238-0.175-0.438-0.306-0.596c-0.13-0.159-0.283-0.277-0.463-0.355
				c-0.179-0.078-0.375-0.117-0.588-0.117s-0.409,0.039-0.588,0.117s-0.333,0.196-0.463,0.355c-0.13,0.158-0.232,0.356-0.305,0.596
				c-0.074,0.238-0.11,0.517-0.11,0.834s0.037,0.596,0.11,0.834c0.072,0.238,0.175,0.437,0.305,0.594
				c0.129,0.157,0.284,0.276,0.463,0.355s0.375,0.119,0.588,0.119s0.409-0.04,0.588-0.119c0.18-0.079,0.333-0.198,0.463-0.355
				c0.131-0.157,0.231-0.354,0.306-0.594C19.866,38.476,19.902,38.198,19.902,37.88z"/>
		</g>
	</g>
</g>
<g id="레이어_3" display="none">
</g>
</svg>
