<?xml version="1.0" encoding="utf-8"?>
<!-- Generator: Adobe Illustrator 16.0.0, SVG Export Plug-In . SVG Version: 6.00 Build 0)  -->
<!DOCTYPE svg PUBLIC "-//W3C//DTD SVG 1.1//EN" "http://www.w3.org/Graphics/SVG/1.1/DTD/svg11.dtd">
<svg version="1.1" id="레이어_1" xmlns="http://www.w3.org/2000/svg" xmlns:xlink="http://www.w3.org/1999/xlink" x="0px"
	 y="0px" width="34.447px" height="44.859px" viewBox="0 0 34.447 44.859" enable-background="new 0 0 34.447 44.859"
	 xml:space="preserve">
<g id="Layer_1">
	<g>
		<g>
			<path fill="#E9E9E0" d="M24.421-0.001H1.172C0.525-0.001,0,0.523,0,1.542V44.06c0,0.275,0.525,0.801,1.172,0.801h32.104
				c0.646,0,1.172-0.524,1.172-0.801V10.395c0-0.558-0.075-0.736-0.206-0.869l-9.321-9.32C24.788,0.073,24.608-0.001,24.421-0.001z"
				/>
		</g>
		<g>
			<polygon fill="#D9D7CA" points="24.834,0.12 24.834,9.612 34.326,9.612 			"/>
		</g>
		<g>
			<path fill="#EEAF4B" d="M33.275,44.86H1.172C0.525,44.86,0,44.334,0,43.688V31.241h34.447v12.446
				C34.447,44.334,33.922,44.86,33.275,44.86z"/>
		</g>
		<g>
			<path fill="#EEAF4B" d="M10.415,15.219v-3.204c0-0.44,0.359-0.801,0.801-0.801c0.443,0,0.802-0.359,0.802-0.801
				c0-0.442-0.358-0.802-0.802-0.802c-1.324,0-2.402,1.079-2.402,2.403v3.204c0,0.883-0.719,1.602-1.604,1.602
				c-0.441,0-0.801,0.359-0.801,0.802s0.358,0.802,0.801,0.802c0.885,0,1.604,0.719,1.604,1.603v3.204
				c0,1.325,1.078,2.403,2.402,2.403c0.443,0,0.802-0.359,0.802-0.801c0-0.442-0.358-0.802-0.802-0.802
				c-0.441,0-0.801-0.36-0.801-0.802v-3.204c0-0.961-0.435-1.814-1.106-2.403C9.98,17.035,10.415,16.18,10.415,15.219z"/>
		</g>
		<g>
			<circle fill="#EEAF4B" cx="16.823" cy="14.818" r="1.202"/>
		</g>
		<g>
			<path fill="#EEAF4B" d="M26.436,16.821c-0.885,0-1.603-0.719-1.603-1.602v-3.204c0-1.325-1.079-2.403-2.403-2.403
				c-0.442,0-0.802,0.358-0.802,0.802c0,0.442,0.358,0.801,0.802,0.801c0.442,0,0.801,0.36,0.801,0.801v3.204
				c0,0.961,0.434,1.815,1.106,2.402c-0.673,0.589-1.106,1.442-1.106,2.403v3.204c0,0.44-0.359,0.802-0.801,0.802
				c-0.442,0-0.802,0.358-0.802,0.802c0,0.44,0.358,0.801,0.802,0.801c1.324,0,2.403-1.078,2.403-2.403v-3.204
				c0-0.884,0.718-1.603,1.603-1.603c0.442,0,0.801-0.358,0.801-0.802C27.237,17.18,26.879,16.821,26.436,16.821z"/>
		</g>
		<g>
			<path fill="#EEAF4B" d="M16.823,19.225c-0.443,0-0.801,0.359-0.801,0.801v2.402c0,0.443,0.357,0.802,0.801,0.802
				s0.801-0.357,0.801-0.802v-2.402C17.624,19.584,17.266,19.225,16.823,19.225z"/>
		</g>
		<g>
			<path fill="#FFFFFF" d="M15.075,35.266h0.9v3.863c0,0.172-0.012,0.319-0.035,0.443c-0.024,0.123-0.059,0.231-0.105,0.325
				c-0.061,0.125-0.138,0.231-0.23,0.318s-0.198,0.159-0.316,0.215s-0.244,0.097-0.378,0.121s-0.273,0.037-0.419,0.037
				c-0.15,0-0.295-0.013-0.436-0.039c-0.142-0.026-0.26-0.06-0.355-0.102v-0.816c0.108,0.047,0.223,0.083,0.346,0.109
				c0.123,0.025,0.244,0.039,0.364,0.039c0.233,0,0.402-0.059,0.507-0.173c0.105-0.113,0.158-0.283,0.158-0.508V35.266z"/>
			<path fill="#FFFFFF" d="M19.212,38.993c0-0.134-0.03-0.24-0.092-0.322s-0.145-0.149-0.25-0.201
				c-0.104-0.052-0.224-0.095-0.354-0.127c-0.132-0.032-0.27-0.064-0.414-0.096c-0.191-0.044-0.374-0.098-0.548-0.158
				c-0.175-0.063-0.327-0.146-0.459-0.254c-0.133-0.108-0.238-0.245-0.316-0.412s-0.118-0.375-0.118-0.625
				c0-0.276,0.045-0.517,0.136-0.721s0.215-0.374,0.369-0.509c0.156-0.134,0.338-0.233,0.548-0.301c0.21-0.066,0.445-0.1,0.708-0.1
				c0.264,0,0.525,0.026,0.79,0.082c0.266,0.055,0.493,0.125,0.685,0.211v0.82c-0.255-0.106-0.499-0.186-0.733-0.232
				c-0.233-0.048-0.454-0.072-0.66-0.072c-0.296,0-0.524,0.059-0.685,0.172c-0.161,0.114-0.241,0.286-0.241,0.517
				c0,0.133,0.026,0.242,0.079,0.328s0.125,0.156,0.215,0.213c0.09,0.056,0.195,0.101,0.313,0.135s0.242,0.065,0.375,0.094
				c0.208,0.047,0.406,0.102,0.597,0.162c0.19,0.062,0.358,0.146,0.505,0.256c0.147,0.11,0.264,0.252,0.349,0.429
				c0.087,0.176,0.13,0.399,0.13,0.674c0,0.28-0.05,0.523-0.147,0.729s-0.237,0.376-0.417,0.51c-0.18,0.135-0.398,0.233-0.656,0.3
				c-0.258,0.065-0.539,0.098-0.845,0.098c-0.267,0-0.53-0.028-0.789-0.084s-0.474-0.135-0.645-0.236v-0.809
				c0.242,0.112,0.479,0.193,0.709,0.244c0.229,0.051,0.468,0.076,0.713,0.076c0.142,0,0.281-0.014,0.419-0.037
				c0.137-0.024,0.26-0.067,0.37-0.127c0.108-0.061,0.195-0.143,0.263-0.244C19.179,39.271,19.212,39.144,19.212,38.993z"/>
		</g>
	</g>
</g>
<g id="레이어_3" display="none">
</g>
</svg>
