<?xml version="1.0" encoding="utf-8"?>
<!-- Generator: Adobe Illustrator 16.0.0, SVG Export Plug-In . SVG Version: 6.00 Build 0)  -->
<!DOCTYPE svg PUBLIC "-//W3C//DTD SVG 1.1//EN" "http://www.w3.org/Graphics/SVG/1.1/DTD/svg11.dtd">
<svg version="1.1" xmlns="http://www.w3.org/2000/svg" xmlns:xlink="http://www.w3.org/1999/xlink" x="0px" y="0px"
	 width="34.398px" height="44.801px" viewBox="0 0 34.398 44.801" enable-background="new 0 0 34.398 44.801" xml:space="preserve">
<g id="Layer_1">
	<g>
		<g>
			<path fill="#E9E9E0" d="M24.387,0H1.172C0.523,0,0,0.523,0,1.539V44c0,0.276,0.523,0.801,1.172,0.801H33.23
				c0.645,0,1.168-0.524,1.168-0.801V10.383c0-0.559-0.074-0.738-0.203-0.867l-9.309-9.309C24.754,0.074,24.574,0,24.387,0L24.387,0
				z M24.387,0"/>
		</g>
		<g>
			<path fill="#3FC481" d="M33.23,44.801H1.172C0.523,44.801,0,44.276,0,43.629v-12.43h34.398v12.43
				C34.398,44.276,33.875,44.801,33.23,44.801L33.23,44.801z M33.23,44.801"/>
		</g>
		<g>
			<g>
				<g>
					<path fill="#3FC481" d="M13.657,17.839h-3.075c-0.759,0-1.377-0.618-1.377-1.377V7.744c0-0.759,0.618-1.376,1.377-1.376h3.075
						c0.759,0,1.377,0.618,1.377,1.376v8.718C15.034,17.222,14.416,17.839,13.657,17.839z M10.582,7.368
						c-0.208,0-0.377,0.169-0.377,0.376v8.718c0,0.208,0.169,0.377,0.377,0.377h3.075c0.208,0,0.377-0.169,0.377-0.377V7.744
						c0-0.208-0.169-0.376-0.377-0.376H10.582z"/>
				</g>
			</g>
			<g>
				<g>
					<path fill="#3FC481" d="M13.657,26.222h-3.075c-0.759,0-1.377-0.691-1.377-1.542v-4.876c0-0.85,0.618-1.541,1.377-1.541h3.075
						c0.759,0,1.377,0.691,1.377,1.541v4.876C15.034,25.531,14.416,26.222,13.657,26.222z M10.582,19.264
						c-0.201,0-0.377,0.253-0.377,0.541v4.876c0,0.289,0.176,0.542,0.377,0.542h3.075c0.201,0,0.377-0.253,0.377-0.542v-4.876
						c0-0.288-0.176-0.541-0.377-0.541H10.582z"/>
				</g>
			</g>
			<g>
				<g>
					<path fill="#3FC481" d="M23.816,14.055h-6.954c-0.76,0-1.377-0.618-1.377-1.377V7.744c0-0.759,0.617-1.376,1.377-1.376h6.954
						c0.759,0,1.377,0.618,1.377,1.376v4.934C25.193,13.437,24.575,14.055,23.816,14.055z M16.862,7.368
						c-0.208,0-0.377,0.169-0.377,0.376v4.934c0,0.208,0.169,0.377,0.377,0.377h6.954c0.208,0,0.377-0.169,0.377-0.377V7.744
						c0-0.208-0.169-0.376-0.377-0.376H16.862z"/>
				</g>
			</g>
			<g>
				<g>
					<path fill="#3FC481" d="M23.816,26.222h-6.954c-0.76,0-1.377-0.618-1.377-1.377v-8.704c0-0.759,0.617-1.377,1.377-1.377h6.954
						c0.759,0,1.377,0.618,1.377,1.377v8.704C25.193,25.604,24.575,26.222,23.816,26.222z M16.862,15.764
						c-0.208,0-0.377,0.169-0.377,0.377v8.704c0,0.208,0.169,0.377,0.377,0.377h6.954c0.208,0,0.377-0.169,0.377-0.377v-8.704
						c0-0.208-0.169-0.377-0.377-0.377H16.862z"/>
				</g>
			</g>
		</g>
		<g>
			<path fill="#D9D7CA" d="M24.801,0.121v9.481h9.477L24.801,0.121z M24.801,0.121"/>
		</g>
		<g>
			<path fill="#FFFFFF" d="M4.194,35.217v4.426h2.361v0.801H3.271v-5.227H4.194z"/>
			<path fill="#FFFFFF" d="M10.312,39.112h-1.9l-0.494,1.332H6.933l2.002-5.227h0.845l2.003,5.227h-0.977L10.312,39.112z
				 M9.354,36.475c-0.176,0.547-0.334,1.004-0.472,1.371L8.71,38.311h1.304l-0.172-0.465c-0.137-0.37-0.294-0.827-0.472-1.371H9.354
				z"/>
			<path fill="#FFFFFF" d="M14.352,37.467l1.343-2.25h1.026l-1.913,3.121v2.105h-0.924v-2.105l-1.913-3.121h1.026l1.343,2.25H14.352
				z"/>
			<path fill="#FFFFFF" d="M22.091,37.831c0,0.398-0.055,0.764-0.164,1.096s-0.269,0.618-0.479,0.857s-0.468,0.426-0.773,0.559
				c-0.306,0.133-0.653,0.199-1.043,0.199s-0.737-0.066-1.043-0.199s-0.563-0.319-0.773-0.559s-0.37-0.525-0.479-0.857
				s-0.164-0.697-0.164-1.096s0.055-0.764,0.164-1.096s0.269-0.618,0.479-0.857s0.468-0.426,0.773-0.559s0.653-0.199,1.043-0.199
				s0.737,0.066,1.043,0.199c0.305,0.133,0.563,0.319,0.773,0.559s0.37,0.525,0.479,0.857S22.091,37.432,22.091,37.831z
				 M21.137,37.831c0-0.318-0.038-0.596-0.113-0.834c-0.075-0.238-0.18-0.437-0.313-0.596s-0.292-0.277-0.475-0.355
				s-0.385-0.117-0.604-0.117s-0.42,0.039-0.604,0.117s-0.342,0.197-0.475,0.355s-0.238,0.357-0.313,0.596
				c-0.076,0.238-0.113,0.516-0.113,0.834s0.038,0.596,0.113,0.834c0.075,0.238,0.18,0.436,0.313,0.594s0.292,0.276,0.475,0.355
				s0.385,0.119,0.604,0.119s0.42-0.04,0.604-0.119s0.342-0.198,0.475-0.355s0.238-0.355,0.313-0.594
				C21.1,38.426,21.137,38.148,21.137,37.831z"/>
			<path fill="#FFFFFF" d="M25.162,40.542c-0.264,0-0.501-0.027-0.713-0.08c-0.211-0.053-0.397-0.13-0.558-0.23
				c-0.161-0.1-0.298-0.223-0.411-0.367s-0.204-0.308-0.271-0.49c-0.055-0.146-0.095-0.307-0.119-0.484s-0.036-0.375-0.036-0.594
				v-3.078h0.924v2.992c0,0.37,0.042,0.659,0.128,0.867c0.096,0.232,0.235,0.399,0.419,0.502s0.4,0.154,0.649,0.154
				c0.249,0,0.465-0.051,0.648-0.154s0.323-0.27,0.419-0.502c0.085-0.208,0.128-0.498,0.128-0.867v-2.992h0.924v3.078
				c0,0.219-0.012,0.417-0.036,0.594s-0.063,0.338-0.119,0.484c-0.068,0.182-0.159,0.346-0.273,0.49s-0.254,0.267-0.418,0.367
				c-0.165,0.1-0.354,0.177-0.568,0.23S25.426,40.542,25.162,40.542z"/>
			<path fill="#FFFFFF" d="M30.544,40.444H29.62v-4.426h-1.629v-0.801h4.179v0.801h-1.626V40.444z"/>
		</g>
	</g>
</g>
<g id="레이어_3" display="none">
</g>
</svg>
