<?xml version="1.0" encoding="utf-8"?>
<!-- Generator: Adobe Illustrator 16.0.0, SVG Export Plug-In . SVG Version: 6.00 Build 0)  -->
<!DOCTYPE svg PUBLIC "-//W3C//DTD SVG 1.1//EN" "http://www.w3.org/Graphics/SVG/1.1/DTD/svg11.dtd">
<svg version="1.1" xmlns="http://www.w3.org/2000/svg" xmlns:xlink="http://www.w3.org/1999/xlink" x="0px" y="0px"
	 width="34.398px" height="44.799px" viewBox="0 0 34.398 44.799" enable-background="new 0 0 34.398 44.799" xml:space="preserve">
<g id="Layer_1">
	<g>
		<g>
			<path fill="#E9E9E0" d="M24.387,0H1.172C0.523,0,0,0.523,0,1.539V44C0,44.277,0.523,44.8,1.172,44.8H33.23
				c0.645,0,1.168-0.523,1.168-0.801V10.382c0-0.559-0.074-0.738-0.203-0.867l-9.309-9.309C24.754,0.074,24.574,0,24.387,0L24.387,0
				z M24.387,0"/>
		</g>
		<g>
			<path fill="#D9D7CA" d="M24.801,0.121v9.48h9.477L24.801,0.121z M24.801,0.121"/>
		</g>
		<g>
			<path fill="#E50012" d="M33.23,44.8H1.172C0.523,44.8,0,44.277,0,43.628v-12.43h34.398v12.43
				C34.398,44.277,33.875,44.8,33.23,44.8L33.23,44.8z M33.23,44.8"/>
		</g>
		<g>
			<g>
				<ellipse fill="#FFFFFF" cx="17.375" cy="16.945" rx="9.458" ry="8.064"/>
			</g>
			<g>
				<path fill="#E50012" d="M8.593,16.945c0-4.135,3.932-7.488,8.782-7.488s8.782,3.354,8.782,7.488s-3.932,7.487-8.782,7.487
					S8.593,21.08,8.593,16.945z M17.375,18.214c1.541,0,2.789-1.797,2.789-4.016c0-2.217-1.249-4.014-2.789-4.014
					s-2.789,1.797-2.789,4.014C14.586,16.417,15.834,18.214,17.375,18.214z"/>
			</g>
		</g>
		<g>
			<path fill="#FFFFFF" d="M10.96,34.913c0.309,0.467,0.56,0.882,0.752,1.244h0.02c-0.026-0.595-0.039-1.028-0.039-1.299v-2.071
				h0.788v4.573h-0.826l-1.402-2.105c-0.247-0.365-0.501-0.787-0.765-1.268h-0.02c0.026,0.561,0.039,0.995,0.039,1.302v2.071H8.719
				v-4.573h0.826L10.96,34.913z"/>
			<path fill="#FFFFFF" d="M17.214,35.073c0,0.349-0.047,0.668-0.14,0.958c-0.093,0.291-0.229,0.541-0.408,0.75
				c-0.179,0.209-0.399,0.373-0.659,0.489c-0.261,0.116-0.557,0.174-0.889,0.174c-0.333,0-0.629-0.058-0.889-0.174
				c-0.261-0.116-0.48-0.279-0.659-0.489c-0.179-0.209-0.315-0.459-0.409-0.75c-0.093-0.29-0.14-0.61-0.14-0.958
				s0.046-0.668,0.14-0.958c0.093-0.291,0.229-0.541,0.409-0.75c0.179-0.209,0.398-0.373,0.659-0.489
				c0.26-0.116,0.557-0.174,0.889-0.174c0.332,0,0.628,0.058,0.889,0.174c0.26,0.116,0.48,0.279,0.659,0.489
				c0.179,0.209,0.315,0.459,0.408,0.75C17.167,34.405,17.214,34.725,17.214,35.073z M16.401,35.073c0-0.278-0.032-0.521-0.097-0.73
				c-0.064-0.208-0.153-0.382-0.267-0.521c-0.113-0.139-0.249-0.243-0.405-0.311c-0.156-0.068-0.328-0.103-0.514-0.103
				s-0.358,0.034-0.515,0.103c-0.157,0.068-0.292,0.172-0.405,0.311s-0.203,0.313-0.267,0.521c-0.064,0.209-0.096,0.452-0.096,0.73
				s0.032,0.521,0.096,0.73c0.064,0.208,0.153,0.381,0.267,0.52c0.114,0.138,0.249,0.241,0.405,0.311
				c0.156,0.07,0.328,0.104,0.515,0.104s0.358-0.035,0.514-0.104c0.157-0.069,0.292-0.173,0.405-0.311
				c0.114-0.138,0.203-0.312,0.267-0.52C16.369,35.594,16.401,35.351,16.401,35.073z"/>
			<path fill="#FFFFFF" d="M19.996,34.913c0.309,0.467,0.56,0.882,0.752,1.244h0.02c-0.026-0.595-0.039-1.028-0.039-1.299v-2.071
				h0.788v4.573H20.69l-1.402-2.105c-0.247-0.365-0.501-0.787-0.765-1.268h-0.02c0.026,0.561,0.039,0.995,0.039,1.302v2.071h-0.788
				v-4.573h0.826L19.996,34.913z"/>
			<path fill="#FFFFFF" d="M24.925,35.613H23.96v-0.701h1.752v2.307c-0.064,0.025-0.146,0.051-0.246,0.079s-0.211,0.052-0.334,0.073
				c-0.123,0.022-0.25,0.04-0.381,0.053c-0.131,0.014-0.261,0.021-0.389,0.021c-0.386,0-0.723-0.055-1.012-0.166
				c-0.288-0.111-0.528-0.266-0.72-0.467s-0.335-0.439-0.431-0.716c-0.096-0.277-0.143-0.583-0.143-0.918
				c0-0.237,0.025-0.463,0.075-0.679c0.05-0.215,0.125-0.415,0.222-0.598c0.098-0.184,0.216-0.35,0.355-0.498
				c0.139-0.148,0.298-0.274,0.478-0.379c0.179-0.105,0.375-0.185,0.588-0.241c0.213-0.056,0.442-0.083,0.687-0.083
				c0.216,0,0.422,0.017,0.617,0.049c0.195,0.033,0.355,0.074,0.479,0.122v0.711c-0.167-0.057-0.336-0.1-0.507-0.13
				c-0.17-0.03-0.342-0.044-0.516-0.044c-0.233,0-0.452,0.037-0.656,0.111c-0.204,0.074-0.38,0.183-0.529,0.328
				c-0.149,0.145-0.266,0.323-0.352,0.535c-0.085,0.212-0.128,0.457-0.128,0.735c0.002,0.54,0.135,0.945,0.399,1.215
				c0.264,0.271,0.638,0.405,1.122,0.405c0.09,0,0.183-0.005,0.28-0.016c0.097-0.01,0.181-0.023,0.254-0.039V35.613z"/>
			<path fill="#FFFFFF" d="M12.43,41.669c0-0.116-0.027-0.21-0.08-0.282c-0.054-0.071-0.126-0.13-0.219-0.176
				s-0.196-0.083-0.311-0.111c-0.115-0.028-0.235-0.056-0.362-0.083c-0.167-0.039-0.327-0.085-0.479-0.138
				c-0.152-0.054-0.286-0.128-0.402-0.223c-0.116-0.094-0.208-0.214-0.277-0.36c-0.068-0.146-0.103-0.328-0.103-0.547
				c0-0.242,0.04-0.452,0.119-0.631c0.08-0.179,0.187-0.327,0.323-0.444c0.136-0.117,0.296-0.205,0.479-0.263
				c0.183-0.059,0.389-0.087,0.619-0.087s0.46,0.024,0.691,0.072c0.232,0.048,0.431,0.109,0.598,0.185v0.718
				c-0.223-0.093-0.437-0.161-0.642-0.203c-0.205-0.042-0.397-0.063-0.577-0.063c-0.259,0-0.459,0.05-0.6,0.15
				c-0.141,0.1-0.21,0.25-0.21,0.451c0,0.116,0.023,0.212,0.069,0.287c0.046,0.075,0.109,0.137,0.188,0.187
				c0.08,0.049,0.171,0.088,0.273,0.118c0.103,0.03,0.212,0.057,0.328,0.082c0.182,0.041,0.356,0.088,0.522,0.142
				c0.166,0.053,0.313,0.128,0.442,0.224c0.128,0.096,0.23,0.221,0.306,0.374c0.075,0.154,0.112,0.351,0.112,0.59
				c0,0.246-0.043,0.459-0.128,0.639c-0.086,0.18-0.208,0.329-0.365,0.446c-0.158,0.118-0.349,0.205-0.574,0.262
				c-0.225,0.057-0.472,0.085-0.739,0.085c-0.234,0-0.464-0.024-0.69-0.074c-0.226-0.049-0.415-0.118-0.564-0.207v-0.708
				c0.212,0.098,0.419,0.169,0.621,0.214c0.202,0.044,0.41,0.066,0.624,0.066c0.125,0,0.247-0.011,0.367-0.032
				c0.12-0.022,0.228-0.059,0.323-0.111c0.095-0.052,0.172-0.124,0.23-0.214C12.401,41.912,12.43,41.801,12.43,41.669z"/>
			<path fill="#FFFFFF" d="M14.606,40.292h1.994v-1.883h0.788v4.573h-0.788v-1.989h-1.994v1.989h-0.788v-4.573h0.788V40.292z"/>
			<path fill="#FFFFFF" d="M18.121,42.981v-4.573h0.788v4.573H18.121z"/>
			<path fill="#FFFFFF" d="M21.854,41.754c0.094-0.36,0.211-0.746,0.351-1.159l0.743-2.188h1.106v4.573h-0.788v-2.317
				c0-0.339,0.013-0.734,0.039-1.183h-0.029c-0.037,0.13-0.08,0.276-0.128,0.438c-0.05,0.162-0.101,0.321-0.155,0.479l-0.891,2.584
				h-0.508l-0.891-2.584c-0.054-0.157-0.105-0.317-0.154-0.479s-0.092-0.308-0.128-0.438h-0.029
				c0.026,0.421,0.039,0.814,0.039,1.179v2.321h-0.788v-4.573h1.1l0.743,2.177c0.124,0.362,0.241,0.752,0.35,1.169H21.854z"/>
		</g>
	</g>
</g>
<g id="레이어_3" display="none">
</g>
</svg>
