<?xml version="1.0" encoding="utf-8"?>
<!-- Generator: Adobe Illustrator 16.0.0, SVG Export Plug-In . SVG Version: 6.00 Build 0)  -->
<!DOCTYPE svg PUBLIC "-//W3C//DTD SVG 1.1//EN" "http://www.w3.org/Graphics/SVG/1.1/DTD/svg11.dtd">
<svg version="1.1" xmlns="http://www.w3.org/2000/svg" xmlns:xlink="http://www.w3.org/1999/xlink" x="0px" y="0px"
	 width="34.398px" height="44.801px" viewBox="0 0 34.398 44.801" enable-background="new 0 0 34.398 44.801" xml:space="preserve">
<g id="Layer_1">
	<g>
		<g>
			<path fill="#E9E9E0" d="M24.387,0H1.172C0.523,0,0,0.523,0,1.539V44c0,0.277,0.523,0.801,1.172,0.801H33.23
				c0.645,0,1.168-0.523,1.168-0.801V10.383c0-0.559-0.074-0.738-0.203-0.867l-9.309-9.309C24.754,0.074,24.574,0,24.387,0L24.387,0
				z M24.387,0"/>
		</g>
		<g>
			<path fill="#5E6AD1" d="M33.23,44.801H1.172C0.523,44.801,0,44.277,0,43.629v-12.43h34.398v12.43
				C34.398,44.277,33.875,44.801,33.23,44.801L33.23,44.801z M33.23,44.801"/>
		</g>
		<g>
			<path fill="#D9D7CA" d="M24.801,0.121v9.48h9.477L24.801,0.121z M24.801,0.121"/>
		</g>
		<g>
			<g opacity="0.7">
				<rect x="9.719" y="6.611" fill="#5E6AD1" width="13.719" height="20.458"/>
			</g>
			<g opacity="0.7">
				<rect x="11.277" y="5.293" fill="#5E6AD1" width="12.957" height="5.969"/>
			</g>
			<g opacity="0.7">
				<rect x="11.277" y="12.244" fill="#5E6AD1" width="12.957" height="5.969"/>
			</g>
			<g opacity="0.7">
				<rect x="11.277" y="19.194" fill="#5E6AD1" width="12.957" height="5.969"/>
			</g>
		</g>
		<g>
			<path fill="#FFFFFF" d="M4.398,38.34c-0.063,0-0.124-0.001-0.184-0.003s-0.117-0.006-0.17-0.012v1.532H3.351v-3.92h1.092
				c0.183,0,0.343,0.008,0.479,0.025s0.259,0.042,0.366,0.075c0.259,0.082,0.458,0.213,0.597,0.393s0.209,0.408,0.209,0.686
				c0,0.189-0.038,0.36-0.113,0.511c-0.076,0.151-0.186,0.28-0.331,0.385s-0.322,0.187-0.532,0.243S4.669,38.34,4.398,38.34z
				 M4.044,37.722c0.04,0.006,0.09,0.01,0.151,0.013c0.062,0.003,0.125,0.004,0.191,0.004c0.187,0,0.343-0.016,0.47-0.047
				s0.228-0.075,0.306-0.13c0.077-0.056,0.133-0.123,0.167-0.202c0.034-0.079,0.051-0.166,0.051-0.259
				c0-0.115-0.025-0.215-0.077-0.299c-0.051-0.084-0.139-0.149-0.266-0.196c-0.066-0.023-0.147-0.041-0.245-0.051
				s-0.217-0.016-0.358-0.016H4.044V37.722z"/>
			<path fill="#FFFFFF" d="M8.997,38.858H7.572l-0.371,0.999H6.463l1.502-3.92h0.634l1.502,3.92H9.368L8.997,38.858z M8.279,36.881
				c-0.132,0.41-0.25,0.753-0.354,1.028l-0.129,0.349h0.979l-0.129-0.349c-0.103-0.278-0.221-0.621-0.354-1.028H8.279z"/>
			<path fill="#FFFFFF" d="M13.438,37.115c0,0.273-0.073,0.505-0.219,0.696c-0.146,0.19-0.372,0.332-0.677,0.423v0.012l1.126,1.611
				h-0.832l-1.029-1.518h-0.476v1.518h-0.693v-3.92h1.151c0.19,0,0.368,0.011,0.532,0.034s0.305,0.056,0.421,0.101
				c0.223,0.088,0.394,0.218,0.515,0.391C13.378,36.636,13.438,36.854,13.438,37.115z M11.673,37.739
				c0.159,0,0.293-0.007,0.403-0.022s0.203-0.037,0.279-0.066c0.139-0.055,0.236-0.129,0.29-0.224s0.081-0.204,0.081-0.327
				c0-0.105-0.021-0.199-0.063-0.28s-0.114-0.145-0.216-0.192c-0.066-0.031-0.149-0.054-0.249-0.069s-0.224-0.022-0.371-0.022
				h-0.495v1.201H11.673z"/>
			<path fill="#FFFFFF" d="M16.442,38.858h-1.425l-0.371,0.999h-0.738l1.502-3.92h0.634l1.502,3.92h-0.732L16.442,38.858z
				 M15.724,36.881c-0.132,0.41-0.25,0.753-0.354,1.028l-0.129,0.349h0.979l-0.129-0.349c-0.103-0.278-0.221-0.621-0.354-1.028
				H15.724z"/>
			<path fill="#FFFFFF" d="M18.776,35.938v3.319h1.771v0.601h-2.464v-3.92H18.776z"/>
			<path fill="#FFFFFF" d="M21.891,35.938v3.319h1.771v0.601h-2.464v-3.92H21.891z"/>
			<path fill="#FFFFFF" d="M26.479,38.858h-1.425l-0.371,0.999h-0.738l1.502-3.92h0.634l1.502,3.92H26.85L26.479,38.858z
				 M25.761,36.881c-0.132,0.41-0.25,0.753-0.354,1.028l-0.129,0.349h0.979l-0.129-0.349c-0.103-0.278-0.221-0.621-0.354-1.028
				H25.761z"/>
			<path fill="#FFFFFF" d="M29.119,36.743c0.183,0.275,0.311,0.473,0.385,0.592h0.014c0.102-0.164,0.229-0.36,0.382-0.589
				l0.541-0.809h0.797l-1.318,1.928l1.375,1.992h-0.786l-0.591-0.876c-0.146-0.215-0.279-0.418-0.402-0.609h-0.011
				c-0.128,0.199-0.262,0.402-0.402,0.609l-0.591,0.876h-0.786l1.375-1.992l-1.318-1.928h0.797L29.119,36.743z"/>
		</g>
	</g>
</g>
<g id="레이어_3" display="none">
</g>
</svg>
