<?xml version="1.0" encoding="utf-8"?>
<!-- Generator: Adobe Illustrator 16.0.0, SVG Export Plug-In . SVG Version: 6.00 Build 0)  -->
<!DOCTYPE svg PUBLIC "-//W3C//DTD SVG 1.1//EN" "http://www.w3.org/Graphics/SVG/1.1/DTD/svg11.dtd">
<svg version="1.1" id="Layer_1" xmlns="http://www.w3.org/2000/svg" xmlns:xlink="http://www.w3.org/1999/xlink" x="0px" y="0px"
	 width="34.458px" height="44.77px" viewBox="0 0 34.458 44.77" enable-background="new 0 0 34.458 44.77" xml:space="preserve">
<g>
	<path fill="#E9E8E0" d="M24.413-0.006H1.198c-0.649,0-1.172,0.523-1.172,1.539v42.461c0,0.275,0.523,0.801,1.172,0.801h32.059
		c0.645,0,1.168-0.525,1.168-0.801V10.377c0-0.559-0.074-0.738-0.203-0.867l-9.309-9.309C24.78,0.068,24.601-0.006,24.413-0.006
		L24.413-0.006z M24.413-0.006"/>
	<path fill="#03A3A6" d="M33.257,44.795H1.198c-0.649,0-1.172-0.525-1.172-1.172v-12.43h34.398v12.43
		C34.425,44.27,33.901,44.795,33.257,44.795L33.257,44.795z M33.257,44.795"/>
	<g>
		<circle fill="none" stroke="#03A3A6" stroke-miterlimit="10" cx="10.362" cy="16.729" r="4"/>
		<path fill="none" stroke="#03A3A6" stroke-miterlimit="10" d="M13.106,20.088c1.441,1.624,2.562,4.57,2.562,7.724"/>
		<path fill="none" stroke="#03A3A6" stroke-miterlimit="10" d="M4.972,27.812c0-3.369,1.085-6.31,2.695-7.872"/>
		<polyline fill="none" stroke="#03A3A6" stroke-miterlimit="10" points="10.945,13.145 10.945,6.312 27.945,6.312 27.945,25.104 
			15.333,25.104 		"/>
	</g>
	<rect x="13.445" y="8.813" fill="none" stroke="#03A3A6" stroke-miterlimit="10" width="3.391" height="4.406"/>
	<g>
		<line fill="none" stroke="#03A3A6" stroke-miterlimit="10" x1="18.242" y1="8.813" x2="26.023" y2="8.813"/>
		<line fill="none" stroke="#03A3A6" stroke-miterlimit="10" x1="18.242" y1="11.013" x2="26.023" y2="11.013"/>
		<line fill="none" stroke="#03A3A6" stroke-miterlimit="10" x1="18.242" y1="13.213" x2="26.023" y2="13.213"/>
		<line fill="none" stroke="#03A3A6" stroke-miterlimit="10" x1="14.117" y1="15.414" x2="26.023" y2="15.414"/>
		<line fill="none" stroke="#03A3A6" stroke-miterlimit="10" x1="14.424" y1="17.615" x2="26.023" y2="17.615"/>
		<line fill="none" stroke="#03A3A6" stroke-miterlimit="10" x1="13.341" y1="19.815" x2="26.023" y2="19.815"/>
		<line fill="none" stroke="#03A3A6" stroke-miterlimit="10" x1="14.383" y1="22.016" x2="26.023" y2="22.016"/>
	</g>
	<path fill="#DAD7CB" d="M24.827,0.115v9.48h9.477L24.827,0.115z M24.827,0.115"/>
	<g>
		<path fill="#FFFFFF" d="M3.586,38.25c-0.066,0-0.131-0.002-0.195-0.004s-0.124-0.006-0.18-0.012v1.67H2.475v-4.273h1.16
			c0.194,0,0.364,0.01,0.509,0.027c0.145,0.018,0.275,0.045,0.389,0.082c0.274,0.089,0.486,0.231,0.634,0.428
			c0.148,0.195,0.222,0.445,0.222,0.747c0,0.206-0.04,0.392-0.12,0.558c-0.08,0.164-0.197,0.305-0.352,0.42
			c-0.154,0.114-0.342,0.203-0.565,0.265C4.13,38.219,3.875,38.25,3.586,38.25z M3.21,37.577c0.042,0.006,0.096,0.011,0.161,0.014
			c0.065,0.004,0.133,0.006,0.203,0.006c0.198,0,0.364-0.018,0.499-0.052s0.242-0.081,0.325-0.142
			c0.082-0.061,0.141-0.135,0.177-0.221c0.036-0.086,0.054-0.181,0.054-0.283c0-0.125-0.027-0.234-0.081-0.325
			c-0.054-0.092-0.148-0.163-0.282-0.214c-0.07-0.025-0.157-0.045-0.26-0.057c-0.104-0.012-0.23-0.018-0.38-0.018H3.21V37.577z"/>
		<path fill="#FFFFFF" d="M9.63,37.768c0,0.326-0.043,0.624-0.131,0.896c-0.087,0.271-0.214,0.505-0.381,0.701
			c-0.167,0.196-0.373,0.349-0.616,0.456c-0.244,0.109-0.521,0.164-0.831,0.164s-0.587-0.055-0.831-0.164
			c-0.244-0.107-0.449-0.26-0.616-0.456c-0.167-0.196-0.294-0.43-0.381-0.701s-0.131-0.569-0.131-0.896s0.044-0.625,0.131-0.896
			s0.214-0.504,0.381-0.7c0.167-0.196,0.373-0.349,0.616-0.456c0.243-0.109,0.52-0.164,0.831-0.164s0.587,0.055,0.831,0.164
			c0.243,0.107,0.448,0.26,0.616,0.456c0.167,0.196,0.294,0.429,0.381,0.7C9.587,37.143,9.63,37.442,9.63,37.768z M8.87,37.768
			c0-0.26-0.03-0.487-0.09-0.682c-0.06-0.195-0.144-0.357-0.25-0.487s-0.232-0.227-0.378-0.29c-0.146-0.064-0.307-0.096-0.481-0.096
			s-0.334,0.031-0.48,0.096c-0.146,0.063-0.272,0.16-0.379,0.29c-0.106,0.13-0.189,0.292-0.249,0.487
			c-0.06,0.194-0.09,0.422-0.09,0.682s0.03,0.486,0.09,0.682s0.143,0.356,0.249,0.485c0.106,0.129,0.232,0.226,0.379,0.29
			c0.146,0.065,0.306,0.098,0.48,0.098s0.334-0.032,0.481-0.098c0.146-0.064,0.272-0.161,0.378-0.29s0.189-0.29,0.25-0.485
			S8.87,38.028,8.87,37.768z"/>
		<path fill="#FFFFFF" d="M13.109,36.916c0,0.298-0.078,0.551-0.233,0.759c-0.155,0.207-0.395,0.361-0.719,0.461v0.013l1.196,1.757
			H12.47l-1.094-1.654h-0.505v1.654h-0.736v-4.273h1.223c0.202,0,0.391,0.013,0.565,0.037s0.323,0.061,0.448,0.109
			c0.236,0.097,0.418,0.238,0.546,0.427C13.045,36.393,13.109,36.629,13.109,36.916z M11.235,37.596
			c0.168,0,0.311-0.009,0.428-0.024c0.117-0.017,0.216-0.04,0.296-0.072c0.148-0.06,0.25-0.141,0.308-0.244
			c0.057-0.103,0.086-0.222,0.086-0.356c0-0.115-0.023-0.217-0.068-0.305s-0.122-0.158-0.23-0.209
			c-0.07-0.034-0.158-0.059-0.264-0.075c-0.106-0.016-0.237-0.024-0.394-0.024h-0.526v1.311H11.235z"/>
		<path fill="#FFFFFF" d="M15.365,39.905h-0.736v-3.619h-1.298v-0.654h3.329v0.654h-1.295V39.905z"/>
		<path fill="#FFFFFF" d="M17.69,39.905h-0.736v-4.273h2.559v0.654H17.69v1.105h1.56v0.654h-1.56V39.905z"/>
		<path fill="#FFFFFF" d="M23.621,37.768c0,0.326-0.044,0.624-0.131,0.896c-0.088,0.271-0.215,0.505-0.382,0.701
			s-0.372,0.349-0.616,0.456c-0.243,0.109-0.52,0.164-0.83,0.164s-0.588-0.055-0.831-0.164c-0.243-0.107-0.448-0.26-0.616-0.456
			c-0.167-0.196-0.295-0.43-0.381-0.701c-0.088-0.271-0.131-0.569-0.131-0.896s0.043-0.625,0.131-0.896
			c0.086-0.271,0.214-0.504,0.381-0.7c0.168-0.196,0.373-0.349,0.616-0.456c0.243-0.109,0.521-0.164,0.831-0.164
			s0.587,0.055,0.83,0.164c0.244,0.107,0.449,0.26,0.616,0.456s0.294,0.429,0.382,0.7C23.577,37.143,23.621,37.442,23.621,37.768z
			 M22.86,37.768c0-0.26-0.03-0.487-0.09-0.682c-0.06-0.195-0.144-0.357-0.249-0.487c-0.106-0.13-0.232-0.227-0.379-0.29
			c-0.146-0.064-0.307-0.096-0.48-0.096c-0.175,0-0.335,0.031-0.48,0.096c-0.146,0.063-0.273,0.16-0.379,0.29
			c-0.106,0.13-0.189,0.292-0.25,0.487c-0.06,0.194-0.09,0.422-0.09,0.682s0.03,0.486,0.09,0.682
			c0.061,0.195,0.144,0.356,0.25,0.485c0.105,0.129,0.232,0.226,0.379,0.29c0.146,0.065,0.306,0.098,0.48,0.098
			c0.174,0,0.334-0.032,0.48-0.098c0.146-0.064,0.272-0.161,0.379-0.29c0.105-0.129,0.189-0.29,0.249-0.485
			S22.86,38.028,22.86,37.768z"/>
		<path fill="#FFFFFF" d="M24.861,35.631v3.618h1.881v0.655h-2.617v-4.273H24.861z"/>
		<path fill="#FFFFFF" d="M27.156,39.905v-4.273h0.736v4.273H27.156z"/>
		<path fill="#FFFFFF" d="M32.314,37.768c0,0.326-0.044,0.624-0.131,0.896c-0.088,0.271-0.215,0.505-0.382,0.701
			s-0.372,0.349-0.616,0.456c-0.243,0.109-0.52,0.164-0.83,0.164s-0.588-0.055-0.831-0.164c-0.243-0.107-0.448-0.26-0.616-0.456
			c-0.167-0.196-0.295-0.43-0.381-0.701c-0.088-0.271-0.131-0.569-0.131-0.896s0.043-0.625,0.131-0.896
			c0.086-0.271,0.214-0.504,0.381-0.7c0.168-0.196,0.373-0.349,0.616-0.456c0.243-0.109,0.521-0.164,0.831-0.164
			s0.587,0.055,0.83,0.164c0.244,0.107,0.449,0.26,0.616,0.456s0.294,0.429,0.382,0.7C32.271,37.143,32.314,37.442,32.314,37.768z
			 M31.554,37.768c0-0.26-0.03-0.487-0.09-0.682c-0.06-0.195-0.144-0.357-0.249-0.487c-0.106-0.13-0.232-0.227-0.379-0.29
			c-0.146-0.064-0.307-0.096-0.48-0.096c-0.175,0-0.335,0.031-0.48,0.096c-0.146,0.063-0.273,0.16-0.379,0.29
			c-0.106,0.13-0.189,0.292-0.25,0.487c-0.06,0.194-0.09,0.422-0.09,0.682s0.03,0.486,0.09,0.682
			c0.061,0.195,0.144,0.356,0.25,0.485c0.105,0.129,0.232,0.226,0.379,0.29c0.146,0.065,0.306,0.098,0.48,0.098
			c0.174,0,0.334-0.032,0.48-0.098c0.146-0.064,0.272-0.161,0.379-0.29c0.105-0.129,0.189-0.29,0.249-0.485
			S31.554,38.028,31.554,37.768z"/>
	</g>
</g>
</svg>
