<?xml version="1.0" encoding="utf-8"?>
<!-- Generator: Adobe Illustrator 16.0.0, SVG Export Plug-In . SVG Version: 6.00 Build 0)  -->
<!DOCTYPE svg PUBLIC "-//W3C//DTD SVG 1.1//EN" "http://www.w3.org/Graphics/SVG/1.1/DTD/svg11.dtd">
<svg version="1.1" xmlns="http://www.w3.org/2000/svg" xmlns:xlink="http://www.w3.org/1999/xlink" x="0px" y="0px"
	 width="34.398px" height="44.957px" viewBox="0 0 34.398 44.957" enable-background="new 0 0 34.398 44.957" xml:space="preserve">
<g id="Layer_1">
	<g>
		<g>
			<g>
				<path fill="#393687" d="M24.387,0H1.172C0.522,0,0,0.521,0,1.537l0.023,42.316c0,0.276,0.499,0.916,1.148,0.916H33.23
					c0.645,0,1.137-0.765,1.137-1.041l0.031-33.354c0-0.559-0.074-0.738-0.203-0.867l-9.309-9.301C24.754,0.073,24.574,0,24.387,0
					L24.387,0z M24.387,0"/>
			</g>
			<g>
				<path fill="#282870" d="M24.801,0.12v9.481h9.477L24.801,0.12z M24.801,0.12"/>
			</g>
			<g>
				<path fill="#E9E9E0" d="M33.23,44.957H1.172C0.522,44.957,0,44.432,0,43.785v-12.43h34.398v12.43
					C34.398,44.432,33.875,44.957,33.23,44.957L33.23,44.957z M33.23,44.957"/>
			</g>
			<g>
				<path fill="#89D3FF" d="M9.02,23.581H7.397V7.791h5.437c1.474,0,2.565,0.457,3.282,1.377c0.714,0.918,1.071,2.121,1.071,3.607
					c0,0.525-0.017,0.98-0.047,1.366c-0.03,0.383-0.124,0.864-0.28,1.442c-0.158,0.579-0.373,1.053-0.642,1.422
					c-0.273,0.369-0.687,0.693-1.243,0.969c-0.556,0.281-1.217,0.419-1.985,0.419H9.02V23.581z M9.02,16.816h3.767
					c0.543,0,1.003-0.109,1.377-0.318c0.378-0.211,0.65-0.435,0.823-0.678c0.175-0.238,0.31-0.586,0.408-1.037
					c0.097-0.451,0.148-0.787,0.157-1.017c0.008-0.223,0.011-0.548,0.011-0.97c0-2.285-0.956-3.428-2.864-3.428H9.02V16.816z
					 M9.02,16.816"/>
			</g>
			<g>
				<path fill="#89D3FF" d="M18.79,20.718l1.578-0.069c0.061,0.557,0.339,0.988,0.834,1.297c0.496,0.309,1.068,0.463,1.716,0.463
					s1.206-0.146,1.68-0.441c0.474-0.291,0.711-0.713,0.711-1.261s-0.204-0.985-0.609-1.308c-0.407-0.324-0.903-0.578-1.489-0.768
					c-0.587-0.188-1.176-0.387-1.771-0.599c-0.595-0.21-1.115-0.539-1.567-0.991c-0.556-0.528-0.834-1.17-0.834-1.93
					c0-0.762,0.303-1.466,0.911-2.121c0.611-0.655,1.6-0.98,2.969-0.98c0.481,0,0.931,0.055,1.352,0.168
					c0.422,0.113,0.722,0.224,0.903,0.328l0.271,0.156l-0.518,1.424c-0.482-0.377-1.115-0.564-1.895-0.564
					c-0.782,0-1.366,0.146-1.749,0.441c-0.386,0.291-0.575,0.663-0.575,1.115c0,0.496,0.239,0.887,0.721,1.173
					c0.482,0.286,1.022,0.526,1.625,0.722c0.601,0.195,1.198,0.412,1.793,0.655c0.595,0.239,1.099,0.616,1.512,1.126
					c0.413,0.512,0.619,1.187,0.619,2.029c0,0.844-0.338,1.578-1.013,2.201c-0.678,0.624-1.666,0.936-2.969,0.936
					c-1.3,0-2.318-0.309-3.057-0.926C19.203,22.377,18.817,21.618,18.79,20.718L18.79,20.718z M18.79,20.718"/>
			</g>
		</g>
		<g>
			<path fill="#282870" d="M12.619,38.611c-0.086,0-0.17-0.001-0.254-0.004s-0.162-0.008-0.234-0.016v2.043h-0.957v-5.227h1.508
				c0.252,0,0.473,0.011,0.662,0.033s0.357,0.055,0.506,0.1c0.357,0.109,0.631,0.284,0.824,0.523s0.289,0.544,0.289,0.914
				c0,0.252-0.052,0.48-0.156,0.682s-0.256,0.373-0.457,0.514s-0.445,0.249-0.734,0.324S12.994,38.611,12.619,38.611z M12.13,37.787
				c0.055,0.008,0.125,0.014,0.209,0.018s0.172,0.006,0.264,0.006c0.258,0,0.474-0.021,0.648-0.063s0.315-0.1,0.422-0.174
				s0.184-0.164,0.23-0.27s0.07-0.221,0.07-0.346c0-0.154-0.035-0.287-0.105-0.398s-0.193-0.199-0.367-0.262
				c-0.091-0.031-0.204-0.054-0.338-0.068s-0.299-0.021-0.494-0.021H12.13V37.787z"/>
			<path fill="#282870" d="M18.116,39.135c0-0.133-0.033-0.24-0.098-0.322s-0.154-0.149-0.266-0.201s-0.238-0.094-0.377-0.127
				s-0.286-0.064-0.439-0.096c-0.203-0.044-0.397-0.097-0.582-0.158s-0.348-0.146-0.488-0.254s-0.252-0.246-0.336-0.412
				s-0.125-0.375-0.125-0.625c0-0.276,0.048-0.516,0.145-0.721s0.227-0.374,0.393-0.508s0.359-0.234,0.582-0.301
				s0.473-0.1,0.752-0.1s0.559,0.027,0.84,0.082s0.523,0.125,0.727,0.211v0.82c-0.271-0.107-0.531-0.184-0.779-0.232
				s-0.482-0.072-0.701-0.072c-0.315,0-0.558,0.057-0.729,0.172s-0.256,0.287-0.256,0.516c0,0.133,0.028,0.242,0.084,0.328
				s0.132,0.157,0.229,0.213s0.207,0.101,0.332,0.135s0.258,0.065,0.398,0.094c0.221,0.047,0.433,0.101,0.635,0.162
				s0.381,0.146,0.537,0.256s0.28,0.252,0.371,0.428s0.137,0.4,0.137,0.674c0,0.281-0.052,0.525-0.156,0.73s-0.252,0.375-0.443,0.51
				s-0.424,0.234-0.697,0.299s-0.573,0.098-0.898,0.098c-0.284,0-0.563-0.028-0.838-0.084s-0.503-0.135-0.686-0.236v-0.809
				c0.258,0.112,0.509,0.193,0.754,0.244s0.498,0.076,0.758,0.076c0.151,0,0.299-0.012,0.445-0.037s0.277-0.067,0.393-0.127
				s0.209-0.141,0.279-0.244S18.116,39.286,18.116,39.135z"/>
			<path fill="#282870" d="M19.731,40.635v-5.227h1.383c0.123,0,0.247,0.004,0.373,0.012s0.25,0.02,0.369,0.035
				s0.236,0.035,0.348,0.057s0.215,0.049,0.309,0.08c0.279,0.088,0.525,0.208,0.738,0.359s0.393,0.33,0.537,0.535
				s0.254,0.436,0.328,0.689s0.111,0.529,0.111,0.826c0,0.281-0.031,0.545-0.094,0.791s-0.158,0.471-0.285,0.674
				s-0.289,0.382-0.482,0.537s-0.424,0.282-0.689,0.381c-0.221,0.083-0.473,0.146-0.754,0.188s-0.598,0.063-0.949,0.063H19.731z
				 M21.083,39.834c0.56,0,0.998-0.077,1.313-0.23c0.279-0.138,0.49-0.338,0.633-0.602s0.215-0.599,0.215-1.008
				c0-0.213-0.023-0.406-0.07-0.578s-0.115-0.325-0.203-0.459s-0.196-0.25-0.322-0.346s-0.269-0.176-0.428-0.238
				c-0.148-0.057-0.314-0.099-0.496-0.125s-0.387-0.039-0.613-0.039h-0.422v3.625H21.083z"/>
		</g>
	</g>
</g>
<g id="레이어_3" display="none">
</g>
</svg>
