<?xml version="1.0" encoding="utf-8"?>
<!-- Generator: Adobe Illustrator 16.0.0, SVG Export Plug-In . SVG Version: 6.00 Build 0)  -->
<!DOCTYPE svg PUBLIC "-//W3C//DTD SVG 1.1//EN" "http://www.w3.org/Graphics/SVG/1.1/DTD/svg11.dtd">
<svg version="1.1" xmlns="http://www.w3.org/2000/svg" xmlns:xlink="http://www.w3.org/1999/xlink" x="0px" y="0px"
	 width="34.398px" height="44.801px" viewBox="0 0 34.398 44.801" enable-background="new 0 0 34.398 44.801" xml:space="preserve">
<g id="Layer_1">
	<g>
		<g>
			<path fill="#E9E9E0" d="M24.387,0H1.172C0.523,0,0,0.523,0,1.539V44c0,0.276,0.523,0.801,1.172,0.801H33.23
				c0.645,0,1.168-0.524,1.168-0.801V10.383c0-0.559-0.074-0.738-0.203-0.867l-9.309-9.309C24.754,0.074,24.574,0,24.387,0L24.387,0
				z M24.387,0"/>
		</g>
		<g>
			<path fill="#D9D7CA" d="M24.801,0.121v9.481h9.477L24.801,0.121z M24.801,0.121"/>
		</g>
		<g>
			<path fill="#EC6630" d="M33.23,44.801H1.172C0.523,44.801,0,44.276,0,43.629v-12.43h34.398v12.43
				C34.398,44.276,33.875,44.801,33.23,44.801L33.23,44.801z M33.23,44.801"/>
		</g>
		<g>
			<g>
				<g>
					<path fill="#EC6630" d="M27.129,11.741h-1.37v-1.529c0.001-0.169-0.151-0.307-0.341-0.307c-0.01,0-0.02,0-0.029,0.001
						l-0.894,0.067c-2.166,0.16-4.291,0.623-6.297,1.372l-0.999,0.371l-0.998-0.37c-2.006-0.749-4.131-1.211-6.297-1.372L9.01,9.906
						C8.915,9.899,8.82,9.928,8.75,9.985c-0.071,0.058-0.111,0.141-0.11,0.227v1.529H7.27c-0.188,0-0.343,0.137-0.343,0.305v12.849
						c0,0.169,0.154,0.306,0.343,0.306h19.859c0.188,0,0.343-0.137,0.343-0.306V12.046C27.472,11.878,27.317,11.741,27.129,11.741z
						 M7.612,24.589V12.353H8.64v10.706c-0.001,0.159,0.135,0.293,0.313,0.306l0.922,0.07c0.251,0.02,0.502,0.042,0.753,0.069
						c0.084,0.009,0.167,0.021,0.251,0.031c0.166,0.02,0.332,0.04,0.498,0.063c0.098,0.014,0.196,0.031,0.295,0.046
						c0.15,0.024,0.3,0.047,0.449,0.074c0.103,0.019,0.205,0.039,0.309,0.059c0.144,0.027,0.287,0.056,0.432,0.086
						c0.103,0.022,0.207,0.046,0.311,0.069c0.141,0.032,0.282,0.065,0.423,0.1c0.103,0.026,0.206,0.053,0.308,0.08
						c0.14,0.037,0.279,0.076,0.418,0.115c0.103,0.029,0.204,0.059,0.306,0.089c0.14,0.042,0.278,0.086,0.418,0.131
						c0.099,0.03,0.197,0.063,0.296,0.097c0.042,0.015,0.084,0.031,0.126,0.044H7.612L7.612,24.589z M16.856,13.882l-1.447-0.537
						c-1.386-0.517-2.836-0.883-4.32-1.09c-0.186-0.032-0.364,0.078-0.399,0.245c-0.034,0.166,0.088,0.325,0.274,0.356
						c0.006,0.001,0.013,0.002,0.019,0.003c1.43,0.2,2.827,0.552,4.162,1.05l1.712,0.635v1.479l-1.447-0.537
						c-1.386-0.518-2.837-0.883-4.32-1.091c-0.186-0.031-0.364,0.079-0.399,0.245c-0.034,0.166,0.088,0.326,0.274,0.356
						C10.97,14.999,10.977,15,10.982,15c1.43,0.2,2.827,0.552,4.162,1.05l1.712,0.635v1.479l-1.447-0.537
						c-1.386-0.518-2.837-0.884-4.32-1.091c-0.186-0.031-0.364,0.079-0.399,0.245c-0.034,0.167,0.088,0.326,0.274,0.357
						c0.006,0.001,0.013,0.002,0.019,0.002c1.43,0.2,2.827,0.552,4.162,1.05l1.712,0.635v1.479l-1.447-0.537
						c-1.386-0.517-2.837-0.884-4.32-1.09c-0.186-0.031-0.364,0.078-0.399,0.245c-0.034,0.166,0.088,0.325,0.273,0.357
						c0.007,0.001,0.014,0.001,0.02,0.002c1.43,0.2,2.827,0.553,4.162,1.051l1.712,0.635v1.48c-1.851-0.678-3.793-1.135-5.777-1.361
						c-0.188-0.022-0.359,0.097-0.383,0.265c-0.024,0.167,0.108,0.321,0.296,0.342c1.981,0.225,3.919,0.688,5.761,1.376l0.103,0.039
						v1.326L16.225,24.2c-2.005-0.75-4.128-1.215-6.294-1.376l-0.606-0.045V10.544l0.522,0.039c2.096,0.155,4.151,0.603,6.092,1.327
						l0.918,0.34V13.882z M17.542,24.436v-1.325l0.143-0.053c1.831-0.68,3.755-1.139,5.722-1.364
						c0.188-0.017,0.325-0.167,0.307-0.334s-0.187-0.291-0.375-0.274c-0.006,0-0.013,0.001-0.02,0.002
						c-1.983,0.229-3.926,0.687-5.776,1.364v-1.482l1.707-0.633c1.337-0.499,2.735-0.853,4.166-1.052
						c0.188-0.026,0.314-0.183,0.286-0.35c-0.029-0.167-0.205-0.281-0.392-0.255c-1.485,0.208-2.938,0.575-4.324,1.092l-1.443,0.537
						v-1.479l1.707-0.633c1.337-0.5,2.735-0.853,4.166-1.053c0.188-0.026,0.314-0.183,0.286-0.349
						c-0.029-0.167-0.205-0.281-0.392-0.255c-1.485,0.208-2.938,0.574-4.324,1.092l-1.443,0.536v-1.479l1.707-0.633
						c1.337-0.5,2.735-0.853,4.166-1.053c0.188-0.026,0.314-0.183,0.286-0.35c-0.029-0.167-0.205-0.281-0.392-0.255
						c-1.485,0.208-2.938,0.574-4.324,1.092l-1.443,0.536v-1.479l1.707-0.633c1.337-0.499,2.735-0.853,4.166-1.053
						c0.188-0.026,0.314-0.183,0.286-0.349c-0.029-0.167-0.205-0.281-0.392-0.255c-1.485,0.207-2.938,0.574-4.324,1.092
						l-1.443,0.536v-1.631l0.919-0.341c1.94-0.724,3.995-1.172,6.091-1.327l0.522-0.039v12.233l-0.563,0.042
						c-2.167,0.161-4.293,0.623-6.3,1.369L17.542,24.436z M26.786,24.588h-7.848c0.047-0.016,0.094-0.033,0.141-0.049
						c0.103-0.035,0.205-0.068,0.311-0.102c0.134-0.043,0.269-0.086,0.404-0.127c0.105-0.03,0.212-0.061,0.317-0.091
						c0.135-0.039,0.271-0.075,0.407-0.111c0.106-0.028,0.214-0.056,0.321-0.082c0.137-0.035,0.273-0.067,0.414-0.098
						c0.106-0.024,0.213-0.048,0.319-0.071c0.143-0.03,0.286-0.058,0.43-0.085c0.103-0.02,0.205-0.04,0.311-0.058
						c0.15-0.027,0.302-0.05,0.453-0.074c0.098-0.015,0.195-0.03,0.293-0.045c0.169-0.024,0.338-0.044,0.508-0.065
						c0.081-0.009,0.162-0.021,0.244-0.03c0.251-0.027,0.503-0.05,0.757-0.07l0.877-0.063c0.178-0.013,0.314-0.146,0.313-0.306
						V12.353h1.027V24.588L26.786,24.588z"/>
					<path fill="#EC6630" d="M27.129,25.326H7.27c-0.258,0-0.468-0.193-0.468-0.431V12.046c0-0.237,0.21-0.43,0.468-0.43h1.245
						v-1.404C8.513,10.089,8.57,9.971,8.671,9.889C8.756,9.818,8.867,9.78,8.982,9.78l0.036,0.001L9.914,9.85
						c2.181,0.161,4.311,0.625,6.331,1.379l0.955,0.354l0.956-0.354c2.02-0.754,4.15-1.218,6.331-1.379l0.932-0.069
						c0.131,0,0.256,0.051,0.344,0.14c0.079,0.08,0.123,0.184,0.122,0.293v1.404h1.245c0.258,0,0.468,0.193,0.468,0.43v12.849
						C27.597,25.132,27.387,25.326,27.129,25.326z M7.27,11.866c-0.12,0-0.218,0.081-0.218,0.18v12.849
						c0,0.1,0.098,0.181,0.218,0.181h19.859c0.12,0,0.218-0.081,0.218-0.181V12.046c0-0.099-0.098-0.18-0.218-0.18h-1.495v-1.654
						c0-0.055-0.027-0.093-0.05-0.116c-0.041-0.042-0.102-0.066-0.167-0.066l-0.913,0.068c-2.158,0.16-4.265,0.619-6.263,1.364
						l-1.042,0.387l-1.042-0.386c-1.998-0.746-4.105-1.205-6.263-1.364L9,10.03c-0.001,0-0.002,0-0.004,0
						c-0.073,0-0.127,0.019-0.167,0.052c-0.042,0.034-0.065,0.081-0.064,0.128v1.656H7.27z M16.253,24.714H7.487V12.228h1.277
						v10.831c0,0.094,0.086,0.173,0.197,0.182l0.922,0.07c0.252,0.02,0.505,0.042,0.757,0.07c0.049,0.005,0.099,0.011,0.148,0.018
						l0.154,0.019c0.15,0.018,0.301,0.036,0.451,0.058l0.343,0.053c0.135,0.021,0.27,0.043,0.405,0.067
						c0.092,0.017,0.184,0.034,0.276,0.052l0.035,0.007c0.144,0.027,0.288,0.056,0.433,0.086c0.088,0.019,0.176,0.039,0.264,0.059
						l0.049,0.011c0.142,0.033,0.284,0.066,0.425,0.101c0.104,0.026,0.208,0.053,0.31,0.08c0.141,0.038,0.281,0.076,0.42,0.116
						c0.103,0.029,0.205,0.059,0.307,0.089c0.141,0.043,0.281,0.086,0.421,0.132c0.098,0.03,0.198,0.063,0.298,0.098l0.124,0.044
						L16.253,24.714z M7.737,24.464h6.944c-0.031-0.009-0.062-0.019-0.093-0.028c-0.1-0.03-0.201-0.06-0.303-0.088
						c-0.139-0.039-0.277-0.078-0.417-0.115c-0.101-0.026-0.204-0.053-0.306-0.079c-0.139-0.034-0.28-0.067-0.42-0.099l-0.048-0.011
						c-0.087-0.02-0.174-0.04-0.261-0.058c-0.143-0.03-0.286-0.058-0.429-0.085l-0.036-0.007c-0.091-0.018-0.181-0.035-0.272-0.051
						c-0.133-0.023-0.266-0.045-0.4-0.066l-0.339-0.053c-0.148-0.021-0.297-0.039-0.445-0.057l-0.156-0.019
						c-0.048-0.006-0.095-0.012-0.143-0.017c-0.25-0.027-0.5-0.05-0.75-0.069l-0.921-0.07c-0.242-0.018-0.43-0.208-0.428-0.432
						v-10.58H7.737V24.464z M26.911,24.713h-8.743l0.871-0.292c0.104-0.036,0.207-0.069,0.313-0.103
						c0.134-0.043,0.269-0.086,0.406-0.127l0.319-0.092c0.136-0.039,0.273-0.076,0.41-0.112c0.107-0.029,0.215-0.056,0.324-0.083
						c0.137-0.035,0.275-0.067,0.417-0.099c0.106-0.024,0.213-0.048,0.32-0.071c0.125-0.026,0.25-0.051,0.375-0.075l0.118-0.023
						c0.083-0.016,0.167-0.032,0.252-0.047c0.133-0.024,0.267-0.045,0.401-0.066l0.348-0.054c0.171-0.024,0.341-0.045,0.512-0.065
						l0.245-0.03c0.253-0.027,0.506-0.051,0.761-0.07l0.878-0.063c0.111-0.008,0.198-0.087,0.197-0.181V12.228h1.277V24.713z
						 M19.723,24.463h6.938V12.478h-0.777v10.581c0.001,0.224-0.188,0.414-0.43,0.431l-0.877,0.063
						c-0.252,0.02-0.502,0.043-0.752,0.07l-0.243,0.03c-0.168,0.021-0.336,0.041-0.504,0.064l-0.345,0.054
						c-0.132,0.021-0.265,0.042-0.396,0.065c-0.084,0.015-0.167,0.031-0.249,0.046l-0.118,0.022
						c-0.124,0.024-0.247,0.048-0.37,0.074c-0.105,0.023-0.211,0.047-0.317,0.071c-0.14,0.031-0.276,0.063-0.411,0.097
						c-0.107,0.026-0.214,0.054-0.32,0.082c-0.135,0.036-0.271,0.073-0.405,0.111l-0.317,0.091
						C19.793,24.442,19.758,24.453,19.723,24.463z M16.98,24.616l-0.8-0.299c-1.999-0.748-4.104-1.208-6.259-1.369l-0.722-0.054
						V10.41l0.657,0.049c2.111,0.156,4.172,0.605,6.126,1.334l0.999,0.371v1.898l-1.616-0.6c-1.379-0.514-2.824-0.879-4.294-1.083
						c-0.019-0.003-0.033-0.004-0.047-0.004c-0.105,0-0.195,0.063-0.213,0.151c-0.01,0.052,0.008,0.093,0.026,0.119
						c0.031,0.046,0.085,0.078,0.147,0.089c1.455,0.203,2.864,0.559,4.204,1.059l1.793,0.666v1.746l-1.616-0.6
						c-1.374-0.513-2.818-0.878-4.294-1.084c-0.018-0.003-0.032-0.004-0.045-0.004c-0.104,0-0.196,0.065-0.215,0.151
						c-0.01,0.052,0.008,0.094,0.026,0.119c0.031,0.046,0.085,0.078,0.147,0.088c1.455,0.204,2.864,0.56,4.204,1.059l1.793,0.666
						v1.746l-1.616-0.599c-1.375-0.514-2.82-0.878-4.294-1.084c-0.018-0.003-0.032-0.004-0.045-0.004
						c-0.104,0-0.196,0.065-0.215,0.151c-0.011,0.052,0.008,0.094,0.026,0.12c0.032,0.046,0.085,0.078,0.147,0.088
						c1.453,0.203,2.862,0.559,4.204,1.059l1.793,0.666v1.746l-1.616-0.6c-1.378-0.514-2.823-0.879-4.294-1.083
						c-0.018-0.003-0.032-0.004-0.046-0.004c-0.105,0-0.195,0.063-0.214,0.151c-0.01,0.052,0.008,0.093,0.026,0.119
						c0.031,0.046,0.084,0.079,0.146,0.089c1.452,0.202,2.861,0.558,4.204,1.059l1.793,0.665v1.746l-0.168-0.062
						c-1.841-0.674-3.775-1.129-5.749-1.354c-0.002,0-0.003,0-0.005,0c-0.137,0-0.227,0.068-0.239,0.158
						c-0.008,0.053,0.013,0.094,0.032,0.119c0.035,0.045,0.091,0.075,0.154,0.083c1.991,0.226,3.939,0.691,5.791,1.383l0.184,0.069
						V24.616z M9.449,22.663L9.94,22.7c2.178,0.162,4.308,0.627,6.329,1.383l0.462,0.173v-1.06l-0.021-0.008
						c-1.832-0.685-3.76-1.146-5.731-1.37c-0.13-0.015-0.248-0.08-0.324-0.178c-0.068-0.089-0.098-0.198-0.082-0.307
						c0.033-0.23,0.263-0.398,0.521-0.371c1.933,0.22,3.829,0.659,5.638,1.307v-1.215l-1.63-0.604
						c-1.326-0.495-2.718-0.846-4.136-1.044c-0.152-0.025-0.265-0.096-0.334-0.197c-0.063-0.093-0.086-0.203-0.064-0.311
						c0.048-0.228,0.29-0.388,0.543-0.342c1.485,0.207,2.948,0.576,4.343,1.096l1.279,0.475v-1.213l-1.63-0.605
						c-1.325-0.494-2.716-0.845-4.136-1.043c-0.15-0.024-0.264-0.095-0.334-0.196c-0.064-0.093-0.086-0.204-0.064-0.312
						c0.049-0.228,0.286-0.382,0.542-0.343c1.489,0.208,2.951,0.577,4.344,1.097l1.278,0.474v-1.213l-1.63-0.605
						c-1.323-0.493-2.715-0.844-4.136-1.043c-0.15-0.025-0.264-0.095-0.334-0.197c-0.064-0.093-0.086-0.204-0.064-0.312
						c0.048-0.228,0.286-0.383,0.542-0.343c1.491,0.209,2.953,0.578,4.344,1.097l1.278,0.475v-1.213l-1.63-0.605
						c-1.323-0.494-2.715-0.845-4.136-1.043c-0.151-0.025-0.265-0.096-0.334-0.198c-0.063-0.093-0.086-0.203-0.064-0.311
						c0.048-0.228,0.29-0.385,0.543-0.342c1.484,0.206,2.947,0.575,4.343,1.096l1.279,0.475v-1.365l-0.836-0.31
						c-1.932-0.722-3.97-1.166-6.058-1.32l-0.388-0.029V22.663z M17.417,24.616v-1.592l0.224-0.083
						c1.839-0.683,3.774-1.145,5.751-1.371c0.066-0.006,0.124-0.035,0.16-0.079c0.02-0.024,0.043-0.065,0.037-0.118
						c-0.01-0.092-0.105-0.165-0.217-0.165l-0.023,0.001c-1.989,0.229-3.923,0.686-5.764,1.358l-0.168,0.062v-1.748l1.789-0.664
						c1.347-0.503,2.757-0.859,4.192-1.059c0.062-0.009,0.117-0.04,0.15-0.085c0.019-0.025,0.039-0.067,0.03-0.12
						c-0.018-0.098-0.127-0.172-0.251-0.152c-1.475,0.207-2.921,0.572-4.297,1.085l-1.612,0.599V18.74l1.789-0.664
						c1.342-0.501,2.752-0.858,4.192-1.06c0.063-0.009,0.117-0.04,0.15-0.085c0.019-0.025,0.039-0.066,0.03-0.119
						c-0.018-0.097-0.127-0.166-0.251-0.152c-1.475,0.206-2.921,0.571-4.298,1.085l-1.612,0.599v-1.746l1.789-0.663
						c1.342-0.501,2.752-0.858,4.192-1.06c0.062-0.008,0.117-0.04,0.15-0.085c0.019-0.025,0.039-0.067,0.03-0.12
						c-0.017-0.098-0.129-0.167-0.251-0.152c-1.476,0.207-2.922,0.572-4.298,1.086l-1.612,0.599v-1.746l1.789-0.664
						c1.344-0.502,2.755-0.858,4.192-1.06c0.063-0.008,0.117-0.039,0.15-0.084c0.019-0.025,0.039-0.067,0.03-0.12
						c-0.018-0.098-0.127-0.169-0.251-0.152c-1.474,0.206-2.919,0.571-4.298,1.086l-1.612,0.598v-1.898l1-0.371
						c1.955-0.729,4.016-1.178,6.125-1.334l0.657-0.049v12.484l-0.678,0.05c-2.159,0.16-4.267,0.618-6.266,1.361L17.417,24.616z
						 M17.667,23.198v1.059l0.501-0.186c2.021-0.751,4.152-1.214,6.334-1.376l0.447-0.033V10.679l-0.388,0.029
						c-2.086,0.154-4.124,0.598-6.056,1.319l-0.838,0.311v1.365l1.275-0.473c1.396-0.521,2.859-0.891,4.351-1.099
						c0.252-0.031,0.491,0.126,0.532,0.357c0.019,0.109-0.008,0.219-0.075,0.31c-0.073,0.099-0.188,0.167-0.317,0.185
						c-1.419,0.198-2.812,0.55-4.139,1.046l-1.626,0.603v1.213l1.275-0.474c1.393-0.521,2.857-0.89,4.351-1.099
						c0.252-0.03,0.491,0.126,0.532,0.357c0.019,0.109-0.008,0.219-0.074,0.31c-0.073,0.1-0.188,0.167-0.317,0.186
						c-1.422,0.199-2.814,0.551-4.14,1.046l-1.626,0.603v1.213l1.275-0.474c1.394-0.521,2.857-0.89,4.351-1.099
						c0.252-0.035,0.491,0.126,0.532,0.357c0.019,0.109-0.008,0.218-0.074,0.309c-0.073,0.1-0.188,0.167-0.317,0.186
						c-1.422,0.199-2.814,0.551-4.14,1.046l-1.626,0.603v1.213l1.275-0.474c1.393-0.52,2.857-0.89,4.35-1.099
						c0.263-0.032,0.492,0.126,0.532,0.357c0.019,0.109-0.008,0.22-0.074,0.311c-0.073,0.099-0.188,0.167-0.317,0.185
						c-1.417,0.197-2.81,0.549-4.14,1.045l-1.626,0.603v1.217c1.809-0.646,3.704-1.087,5.637-1.31
						c0.038-0.004,0.053-0.004,0.068-0.004c0.241,0,0.441,0.167,0.465,0.387c0.012,0.108-0.021,0.216-0.092,0.304
						c-0.079,0.096-0.198,0.157-0.328,0.169c-1.954,0.224-3.869,0.681-5.689,1.357L17.667,23.198z"/>
				</g>
			</g>
		</g>
		<g>
			<path fill="#FFFFFF" d="M8.493,38.935c0-0.133-0.03-0.24-0.09-0.322c-0.061-0.082-0.143-0.149-0.246-0.201
				s-0.22-0.094-0.349-0.127s-0.265-0.064-0.407-0.096c-0.188-0.044-0.368-0.097-0.539-0.158c-0.171-0.061-0.322-0.146-0.452-0.254
				c-0.13-0.108-0.234-0.246-0.311-0.412S5.984,36.99,5.984,36.74c0-0.276,0.044-0.516,0.134-0.721s0.21-0.374,0.363-0.508
				c0.153-0.134,0.333-0.234,0.539-0.301c0.206-0.066,0.438-0.1,0.696-0.1s0.517,0.027,0.777,0.082s0.484,0.125,0.672,0.211v0.82
				c-0.25-0.107-0.491-0.184-0.721-0.232c-0.23-0.048-0.447-0.072-0.649-0.072c-0.292,0-0.517,0.057-0.674,0.172
				c-0.158,0.115-0.237,0.287-0.237,0.516c0,0.133,0.026,0.242,0.078,0.328s0.123,0.157,0.211,0.213
				c0.089,0.056,0.192,0.101,0.308,0.135s0.238,0.065,0.369,0.094c0.205,0.047,0.4,0.101,0.587,0.162s0.353,0.146,0.497,0.256
				s0.259,0.252,0.344,0.428c0.084,0.176,0.126,0.4,0.126,0.674c0,0.281-0.048,0.525-0.145,0.73
				c-0.097,0.206-0.233,0.375-0.411,0.51s-0.392,0.234-0.645,0.299c-0.253,0.065-0.531,0.098-0.832,0.098
				c-0.263,0-0.521-0.028-0.775-0.084s-0.466-0.135-0.634-0.236v-0.809c0.238,0.112,0.471,0.193,0.698,0.244s0.46,0.076,0.701,0.076
				c0.14,0,0.277-0.012,0.412-0.037c0.135-0.025,0.256-0.067,0.364-0.127c0.107-0.06,0.193-0.141,0.258-0.244
				S8.493,39.086,8.493,38.935z"/>
			<path fill="#FFFFFF" d="M12.365,40.435h-0.886v-4.426H9.917v-0.801h4.006v0.801h-1.558V40.435z"/>
			<path fill="#FFFFFF" d="M16.613,40.533c-0.253,0-0.481-0.027-0.684-0.08c-0.202-0.053-0.381-0.13-0.535-0.23
				C15.241,40.122,15.109,40,15,39.855c-0.108-0.145-0.195-0.308-0.26-0.49c-0.053-0.146-0.091-0.307-0.114-0.484
				s-0.034-0.375-0.034-0.594v-3.078h0.886v2.992c0,0.37,0.041,0.659,0.123,0.867c0.091,0.232,0.225,0.399,0.401,0.502
				c0.176,0.103,0.383,0.154,0.622,0.154s0.446-0.051,0.622-0.154c0.176-0.103,0.31-0.27,0.401-0.502
				c0.082-0.208,0.123-0.498,0.123-0.867v-2.992h0.886v3.078c0,0.219-0.011,0.417-0.034,0.594s-0.061,0.338-0.114,0.484
				c-0.065,0.182-0.153,0.346-0.262,0.49c-0.11,0.145-0.244,0.267-0.401,0.367s-0.339,0.177-0.544,0.23
				C17.095,40.506,16.866,40.533,16.613,40.533z"/>
			<path fill="#FFFFFF" d="M19.795,40.435v-5.227h1.28c0.113,0,0.229,0.004,0.345,0.012s0.231,0.02,0.342,0.035
				s0.218,0.035,0.322,0.057c0.104,0.022,0.199,0.049,0.286,0.08c0.258,0.088,0.485,0.208,0.683,0.359s0.363,0.33,0.497,0.535
				s0.235,0.436,0.304,0.689c0.069,0.254,0.103,0.529,0.103,0.826c0,0.281-0.029,0.545-0.086,0.791
				c-0.058,0.246-0.146,0.471-0.264,0.674s-0.267,0.382-0.446,0.537c-0.18,0.155-0.393,0.282-0.638,0.381
				c-0.205,0.083-0.438,0.146-0.698,0.188s-0.553,0.063-0.879,0.063H19.795z M21.046,39.634c0.518,0,0.923-0.077,1.215-0.23
				c0.258-0.138,0.453-0.338,0.585-0.602c0.133-0.263,0.199-0.599,0.199-1.008c0-0.213-0.021-0.406-0.065-0.578
				s-0.106-0.325-0.188-0.459s-0.181-0.25-0.298-0.346c-0.117-0.096-0.249-0.176-0.396-0.238c-0.137-0.057-0.291-0.099-0.459-0.125
				c-0.169-0.026-0.358-0.039-0.568-0.039h-0.39v3.625H21.046z"/>
			<path fill="#FFFFFF" d="M26.671,37.458l1.287-2.25h0.983l-1.833,3.121v2.105h-0.886V38.33l-1.833-3.121h0.983l1.287,2.25H26.671z
				"/>
		</g>
	</g>
</g>
<g id="레이어_3" display="none">
</g>
</svg>
