<?xml version="1.0" encoding="utf-8"?>
<!-- Generator: Adobe Illustrator 16.0.0, SVG Export Plug-In . SVG Version: 6.00 Build 0)  -->
<!DOCTYPE svg PUBLIC "-//W3C//DTD SVG 1.1//EN" "http://www.w3.org/Graphics/SVG/1.1/DTD/svg11.dtd">
<svg version="1.1" xmlns="http://www.w3.org/2000/svg" xmlns:xlink="http://www.w3.org/1999/xlink" x="0px" y="0px"
	 width="34.398px" height="44.801px" viewBox="0 0 34.398 44.801" enable-background="new 0 0 34.398 44.801" xml:space="preserve">
<g id="Layer_1">
	<g>
		<g>
			<path fill="#E9E9E0" d="M24.387,0H1.172C0.523,0,0,0.523,0,1.539V44c0,0.275,0.523,0.801,1.172,0.801H33.23
				c0.645,0,1.168-0.525,1.168-0.801V10.383c0-0.559-0.074-0.738-0.203-0.867l-9.309-9.309C24.754,0.074,24.574,0,24.387,0L24.387,0
				z M24.387,0"/>
		</g>
		<g>
			<path fill="#D9D7CA" d="M24.801,0.121v9.48h9.477L24.801,0.121z M24.801,0.121"/>
		</g>
		<g>
			<path fill="#FFAA39" d="M33.23,44.801H1.172C0.523,44.801,0,44.276,0,43.629V31.2h34.398v12.43
				C34.398,44.276,33.875,44.801,33.23,44.801L33.23,44.801z M33.23,44.801"/>
		</g>
		<g>
			<path fill="#FFAA39" d="M31.199,17.602v-4.801h-4.801v1.598h-4.797v-3.199h-7.999v3.199H8.801v-1.598H4v4.801h4.801V16h2.837
				c-3.653,2.109-6.035,6.07-6.035,10.397c0,0.443,0.354,0.803,0.796,0.803c0.445,0,0.801-0.359,0.801-0.803
				c0-4.194,2.582-7.995,6.403-9.592v2.395h7.999v-2.395C25.418,18.402,28,22.203,28,26.397c0,0.443,0.359,0.803,0.801,0.803
				s0.801-0.359,0.801-0.803c0-4.327-2.387-8.288-6.039-10.397h2.836v1.602H31.199z M7.199,16H5.603v-1.602h1.597V16z M20,17.602
				h-4.801v-4.801H20V17.602z M28,14.398h1.602V16H28V14.398z M28,14.398"/>
		</g>
		<g>
			<path fill="#FFFFFF" d="M6.759,39.275c0-0.133-0.031-0.24-0.092-0.322c-0.062-0.082-0.145-0.149-0.25-0.201
				s-0.224-0.094-0.354-0.127c-0.131-0.033-0.269-0.064-0.414-0.096c-0.191-0.044-0.374-0.097-0.548-0.158
				c-0.174-0.061-0.327-0.146-0.459-0.254c-0.132-0.108-0.238-0.246-0.316-0.412c-0.078-0.167-0.118-0.375-0.118-0.625
				c0-0.276,0.045-0.516,0.136-0.721c0.09-0.205,0.214-0.374,0.369-0.508c0.156-0.134,0.338-0.234,0.548-0.301s0.445-0.1,0.708-0.1
				s0.525,0.027,0.79,0.082s0.493,0.125,0.684,0.211v0.82c-0.255-0.107-0.499-0.184-0.733-0.232
				c-0.234-0.048-0.454-0.072-0.66-0.072c-0.296,0-0.525,0.057-0.685,0.172c-0.161,0.115-0.241,0.287-0.241,0.516
				c0,0.133,0.026,0.242,0.079,0.328s0.125,0.157,0.215,0.213c0.09,0.056,0.195,0.101,0.312,0.135
				c0.118,0.034,0.243,0.065,0.375,0.094c0.208,0.047,0.407,0.101,0.597,0.162s0.358,0.146,0.505,0.256s0.264,0.252,0.349,0.428
				c0.086,0.176,0.129,0.4,0.129,0.674c0,0.281-0.049,0.525-0.147,0.73c-0.098,0.206-0.237,0.375-0.417,0.51
				c-0.18,0.134-0.398,0.234-0.656,0.299s-0.539,0.098-0.845,0.098c-0.267,0-0.53-0.028-0.789-0.084s-0.474-0.135-0.645-0.236
				v-0.809c0.243,0.112,0.479,0.193,0.709,0.244c0.23,0.051,0.468,0.076,0.713,0.076c0.142,0,0.282-0.012,0.419-0.037
				s0.26-0.067,0.37-0.127c0.109-0.06,0.196-0.141,0.263-0.244C6.726,39.553,6.759,39.426,6.759,39.275z"/>
			<path fill="#FFFFFF" d="M10.169,39.498c0.09-0.284,0.156-0.486,0.196-0.607c0.041-0.121,0.125-0.369,0.255-0.744l0.912-2.598
				h0.952l-1.922,5.227H9.754l-1.922-5.227h0.959l0.912,2.598c0.13,0.375,0.215,0.623,0.255,0.744s0.106,0.324,0.197,0.607H10.169z"
				/>
			<path fill="#FFFFFF" d="M15.865,38.779h-1.103v-0.801h2.003v2.637c-0.074,0.029-0.167,0.059-0.281,0.09s-0.241,0.059-0.382,0.084
				c-0.141,0.025-0.286,0.045-0.436,0.061s-0.297,0.023-0.445,0.023c-0.441,0-0.826-0.063-1.156-0.189s-0.604-0.304-0.823-0.533
				s-0.383-0.502-0.492-0.818c-0.109-0.316-0.164-0.666-0.164-1.049c0-0.271,0.029-0.529,0.086-0.775
				c0.057-0.246,0.142-0.474,0.253-0.684s0.247-0.399,0.406-0.568c0.159-0.169,0.341-0.314,0.545-0.434s0.429-0.211,0.673-0.275
				c0.244-0.064,0.505-0.096,0.785-0.096c0.248,0,0.482,0.019,0.706,0.057s0.405,0.084,0.547,0.139v0.813
				c-0.191-0.065-0.384-0.115-0.579-0.148s-0.392-0.051-0.59-0.051c-0.267,0-0.517,0.042-0.75,0.127
				c-0.232,0.084-0.434,0.209-0.604,0.375s-0.304,0.369-0.402,0.611s-0.147,0.522-0.147,0.84c0.002,0.617,0.154,1.08,0.456,1.389
				c0.302,0.309,0.729,0.463,1.283,0.463c0.103,0,0.209-0.006,0.32-0.018s0.207-0.027,0.291-0.045V38.779z"/>
			<path fill="#FFFFFF" d="M17.548,39.732h0.989v1.043h-0.989V39.732z"/>
			<path fill="#FFFFFF" d="M22.207,39.443h-1.852l-0.482,1.332h-0.959l1.952-5.227h0.823l1.951,5.227h-0.952L22.207,39.443z
				 M21.274,36.807c-0.172,0.547-0.325,1.004-0.46,1.371l-0.168,0.465h1.271l-0.168-0.465c-0.133-0.37-0.287-0.827-0.46-1.371
				H21.274z"/>
			<path fill="#FFFFFF" d="M26.563,37.979c0.353,0.534,0.639,1.008,0.86,1.422h0.022c-0.029-0.68-0.044-1.174-0.044-1.484v-2.367
				h0.9v5.227h-0.945l-1.602-2.406c-0.282-0.417-0.574-0.9-0.875-1.449h-0.022c0.029,0.641,0.044,1.137,0.044,1.488v2.367H24v-5.227
				h0.945L26.563,37.979z"/>
			<path fill="#FFFFFF" d="M29.138,40.775v-5.227h0.9v5.227H29.138z"/>
		</g>
	</g>
</g>
<g id="레이어_3" display="none">
</g>
</svg>
