<?xml version="1.0" encoding="utf-8"?>
<!-- Generator: Adobe Illustrator 16.0.0, SVG Export Plug-In . SVG Version: 6.00 Build 0)  -->
<!DOCTYPE svg PUBLIC "-//W3C//DTD SVG 1.1//EN" "http://www.w3.org/Graphics/SVG/1.1/DTD/svg11.dtd">
<svg version="1.1" xmlns="http://www.w3.org/2000/svg" xmlns:xlink="http://www.w3.org/1999/xlink" x="0px" y="0px"
	 width="34.398px" height="44.801px" viewBox="0 0 34.398 44.801" enable-background="new 0 0 34.398 44.801" xml:space="preserve">
<g id="Layer_1">
	<g>
		<g>
			<path fill="#E9E9E0" d="M24.387,0H1.172C0.522,0,0,0.523,0,1.539V44c0,0.276,0.522,0.801,1.172,0.801H33.23
				c0.645,0,1.168-0.524,1.168-0.801V10.383c0-0.559-0.074-0.738-0.203-0.867l-9.309-9.309C24.754,0.074,24.574,0,24.387,0L24.387,0
				z M24.387,0"/>
		</g>
		<g>
			<path fill="#EF41EF" d="M33.23,44.801H1.172C0.522,44.801,0,44.276,0,43.629v-12.43h34.398v12.43
				C34.398,44.276,33.875,44.801,33.23,44.801L33.23,44.801z M33.23,44.801"/>
		</g>
		<g>
			<g>
				<path fill="#EF41EF" d="M13.764,18.747l1.677-1.43c0.183-0.153,0.204-0.428,0.05-0.61c-0.148-0.175-0.436-0.198-0.61-0.049
					l-2.064,1.759c-0.098,0.082-0.153,0.202-0.153,0.33c0,0.126,0.056,0.246,0.152,0.329l2.065,1.759
					c0.078,0.066,0.178,0.103,0.28,0.103c0.128,0,0.248-0.055,0.33-0.151c0.075-0.089,0.111-0.201,0.102-0.317
					c-0.009-0.114-0.063-0.22-0.15-0.293L13.764,18.747z"/>
			</g>
			<g>
				<path fill="#EF41EF" d="M19.518,16.658c-0.175-0.149-0.461-0.126-0.609,0.049c-0.076,0.089-0.112,0.202-0.103,0.317
					c0.01,0.114,0.063,0.219,0.151,0.293l1.678,1.43l-1.678,1.428c-0.088,0.075-0.142,0.18-0.151,0.295s0.027,0.228,0.102,0.315
					c0.082,0.098,0.202,0.152,0.33,0.152c0.103,0,0.202-0.036,0.28-0.103l2.065-1.76c0.097-0.082,0.152-0.202,0.152-0.328
					c0-0.128-0.056-0.248-0.152-0.33L19.518,16.658z"/>
			</g>
			<g>
				<path fill="#EF41EF" d="M17.845,15.289c-0.233-0.049-0.465,0.105-0.513,0.335l-1.288,6.11c-0.024,0.113-0.002,0.229,0.061,0.326
					c0.063,0.097,0.16,0.163,0.275,0.188c0.03,0.006,0.059,0.01,0.088,0.01c0.203,0,0.381-0.146,0.423-0.345l1.287-6.11
					c0.024-0.113,0.003-0.229-0.061-0.327C18.055,15.38,17.957,15.313,17.845,15.289z"/>
			</g>
			<g>
				<path fill="#EF41EF" d="M24.722,8.303H9.676c-1.244,0-2.257,1.012-2.257,2.256V23.33c0,1.244,1.013,2.257,2.257,2.257h15.046
					c1.244,0,2.257-1.013,2.257-2.257V10.559C26.979,9.314,25.966,8.303,24.722,8.303z M24.722,24.721H9.676
					c-0.767,0-1.391-0.624-1.391-1.391v-9.689h17.827v9.689C26.112,24.097,25.489,24.721,24.722,24.721z M9.676,9.169h15.046
					c0.768,0,1.391,0.624,1.391,1.39v2.217H8.285v-2.217C8.285,9.793,8.909,9.169,9.676,9.169z"/>
			</g>
			<g>
				<path fill="#EF41EF" d="M12.985,12.113c0.62,0,1.124-0.504,1.124-1.123c0-0.62-0.504-1.124-1.124-1.124
					c-0.619,0-1.123,0.504-1.123,1.124C11.862,11.609,12.366,12.113,12.985,12.113z M12.985,11.248
					c-0.142,0-0.258-0.116-0.258-0.258c0-0.143,0.116-0.259,0.258-0.259c0.143,0,0.259,0.116,0.259,0.259
					C13.244,11.132,13.128,11.248,12.985,11.248z"/>
			</g>
			<g>
				<path fill="#EF41EF" d="M9.883,12.104c0.62,0,1.124-0.505,1.124-1.124c0-0.62-0.504-1.124-1.124-1.124
					c-0.619,0-1.124,0.504-1.124,1.124C8.759,11.6,9.264,12.104,9.883,12.104z M9.883,11.237c-0.142,0-0.258-0.115-0.258-0.257
					c0-0.144,0.116-0.259,0.258-0.259c0.143,0,0.258,0.115,0.258,0.259C10.141,11.122,10.025,11.237,9.883,11.237z"/>
			</g>
			<g>
				<path fill="#EF41EF" d="M16.09,12.124c0.619,0,1.124-0.505,1.124-1.125c0-0.619-0.505-1.123-1.124-1.123
					c-0.62,0-1.124,0.504-1.124,1.123C14.966,11.619,15.47,12.124,16.09,12.124z M16.09,11.258c-0.143,0-0.258-0.115-0.258-0.259
					c0-0.143,0.115-0.258,0.258-0.258c0.142,0,0.257,0.115,0.257,0.258C16.347,11.143,16.231,11.258,16.09,11.258z"/>
			</g>
		</g>
		<g>
			<path fill="#D9D7CA" d="M24.801,0.121v9.48h9.477L24.801,0.121z M24.801,0.121"/>
		</g>
		<g>
			<path fill="#FFFFFF" d="M7.599,36.885c-0.095,0.487-0.206,0.99-0.331,1.508l-0.551,2.344H5.82L4.258,35.51h0.959l0.592,2.082
				c0.179,0.654,0.323,1.245,0.434,1.773h0.022c0.108-0.568,0.233-1.15,0.375-1.746l0.507-2.109h0.926L8.58,37.62
				c0.142,0.591,0.267,1.173,0.375,1.746h0.022c0.135-0.625,0.279-1.216,0.434-1.773l0.592-2.082h0.959L9.4,40.737H8.503
				l-0.551-2.344c-0.125-0.529-0.235-1.031-0.331-1.508H7.599z"/>
			<path fill="#FFFFFF" d="M12.185,39.936h2.418v0.801h-3.319V35.51h3.187v0.801h-2.286v1.352h1.963v0.801h-1.963V39.936z"/>
			<path fill="#FFFFFF" d="M18.781,36.901c0,0.227-0.048,0.434-0.144,0.623c-0.095,0.189-0.253,0.346-0.474,0.471v0.016
				c0.123,0.044,0.235,0.101,0.336,0.17s0.188,0.151,0.261,0.246s0.129,0.203,0.169,0.322c0.04,0.12,0.061,0.254,0.061,0.402
				c0,0.127-0.019,0.264-0.057,0.41s-0.104,0.287-0.2,0.424s-0.223,0.262-0.382,0.377s-0.36,0.206-0.603,0.273
				c-0.062,0.016-0.128,0.03-0.2,0.043s-0.153,0.024-0.241,0.033c-0.088,0.009-0.187,0.016-0.294,0.02
				c-0.107,0.004-0.229,0.006-0.364,0.006h-1.43V35.51h1.709c0.365,0,0.659,0.039,0.882,0.117c0.167,0.057,0.311,0.132,0.434,0.225
				s0.224,0.195,0.303,0.309s0.138,0.233,0.176,0.359S18.781,36.773,18.781,36.901z M16.933,37.663c0.245,0,0.427-0.026,0.547-0.078
				c0.135-0.06,0.231-0.143,0.289-0.248s0.086-0.225,0.086-0.357c0-0.138-0.033-0.261-0.099-0.369
				c-0.066-0.108-0.179-0.188-0.338-0.24c-0.066-0.021-0.143-0.036-0.231-0.045c-0.088-0.009-0.197-0.014-0.327-0.014H16.12v1.352
				H16.933z M16.12,38.463v1.473h0.588c0.157,0,0.292-0.004,0.404-0.014c0.112-0.009,0.209-0.024,0.29-0.045
				c0.125-0.029,0.229-0.067,0.313-0.115s0.151-0.103,0.202-0.164s0.088-0.129,0.11-0.203s0.033-0.153,0.033-0.236
				c0-0.146-0.038-0.273-0.114-0.383c-0.076-0.109-0.195-0.191-0.356-0.246c-0.071-0.023-0.154-0.041-0.25-0.051
				c-0.095-0.01-0.218-0.016-0.367-0.016H16.12z"/>
			<path fill="#FFFFFF" d="M19.589,39.694h0.989v1.043h-0.989V39.694z"/>
			<path fill="#FFFFFF" d="M23.852,39.237c0-0.133-0.031-0.24-0.092-0.322c-0.062-0.082-0.145-0.149-0.25-0.201
				s-0.224-0.094-0.354-0.127c-0.131-0.033-0.269-0.064-0.414-0.096c-0.191-0.044-0.374-0.097-0.548-0.158
				c-0.174-0.061-0.327-0.146-0.459-0.254c-0.132-0.108-0.238-0.246-0.316-0.412c-0.078-0.167-0.118-0.375-0.118-0.625
				c0-0.276,0.045-0.516,0.136-0.721c0.09-0.205,0.214-0.374,0.369-0.508c0.156-0.134,0.338-0.234,0.548-0.301s0.445-0.1,0.708-0.1
				s0.525,0.027,0.79,0.082s0.493,0.125,0.684,0.211v0.82c-0.255-0.107-0.499-0.184-0.733-0.232
				c-0.234-0.048-0.454-0.072-0.66-0.072c-0.296,0-0.525,0.057-0.685,0.172c-0.161,0.115-0.241,0.287-0.241,0.516
				c0,0.133,0.026,0.242,0.079,0.328s0.125,0.157,0.215,0.213c0.09,0.056,0.195,0.101,0.312,0.135
				c0.118,0.034,0.243,0.065,0.375,0.094c0.208,0.047,0.407,0.101,0.597,0.162s0.358,0.146,0.505,0.256s0.264,0.252,0.349,0.428
				c0.086,0.176,0.129,0.4,0.129,0.674c0,0.281-0.049,0.525-0.147,0.73c-0.098,0.206-0.237,0.375-0.417,0.51
				c-0.18,0.134-0.398,0.234-0.656,0.299s-0.539,0.098-0.845,0.098c-0.267,0-0.53-0.028-0.789-0.084s-0.474-0.135-0.645-0.236
				v-0.809c0.243,0.112,0.479,0.193,0.709,0.244c0.23,0.051,0.468,0.076,0.713,0.076c0.142,0,0.282-0.012,0.419-0.037
				s0.26-0.067,0.37-0.127c0.109-0.06,0.196-0.141,0.263-0.244C23.819,39.515,23.852,39.388,23.852,39.237z"/>
			<path fill="#FFFFFF" d="M25.439,40.737V35.51h1.301c0.115,0,0.232,0.004,0.351,0.012c0.119,0.008,0.234,0.02,0.347,0.035
				s0.222,0.035,0.327,0.057s0.202,0.049,0.29,0.08c0.262,0.088,0.494,0.208,0.695,0.359s0.369,0.33,0.505,0.535
				c0.136,0.206,0.239,0.436,0.309,0.689s0.105,0.529,0.105,0.826c0,0.281-0.029,0.545-0.088,0.791
				c-0.059,0.246-0.148,0.471-0.268,0.674c-0.12,0.203-0.271,0.382-0.454,0.537s-0.399,0.282-0.648,0.381
				c-0.208,0.083-0.445,0.146-0.709,0.188s-0.563,0.063-0.893,0.063H25.439z M26.711,39.936c0.526,0,0.938-0.077,1.235-0.23
				c0.262-0.138,0.46-0.338,0.595-0.602s0.202-0.599,0.202-1.008c0-0.213-0.022-0.406-0.066-0.578
				c-0.044-0.172-0.107-0.325-0.191-0.459s-0.185-0.25-0.303-0.346s-0.253-0.176-0.402-0.238c-0.14-0.057-0.295-0.099-0.467-0.125
				s-0.364-0.039-0.577-0.039h-0.397v3.625H26.711z"/>
		</g>
	</g>
</g>
<g id="레이어_3" display="none">
</g>
</svg>
