<?xml version="1.0" encoding="utf-8"?>
<!-- Generator: Adobe Illustrator 16.0.0, SVG Export Plug-In . SVG Version: 6.00 Build 0)  -->
<!DOCTYPE svg PUBLIC "-//W3C//DTD SVG 1.1//EN" "http://www.w3.org/Graphics/SVG/1.1/DTD/svg11.dtd">
<svg version="1.1" xmlns="http://www.w3.org/2000/svg" xmlns:xlink="http://www.w3.org/1999/xlink" x="0px" y="0px"
	 width="34.398px" height="44.799px" viewBox="0 0 34.398 44.799" enable-background="new 0 0 34.398 44.799" xml:space="preserve">
<g id="Layer_1">
	<g>
		<g>
			<path fill="#E9E9E0" d="M24.387,0H1.172C0.523,0,0,0.523,0,1.539v42.459c0,0.275,0.523,0.801,1.172,0.801H33.23
				c0.645,0,1.168-0.525,1.168-0.801V10.383c0-0.559-0.074-0.738-0.203-0.867l-9.309-9.309C24.754,0.074,24.574,0,24.387,0L24.387,0
				z M24.387,0"/>
		</g>
		<g>
			<path fill="#D9D7CA" d="M24.801,0.121v9.48h9.477L24.801,0.121z M24.801,0.121"/>
		</g>
		<g>
			<path fill="#0077A7" d="M33.23,44.799H1.172C0.523,44.799,0,44.274,0,43.627v-12.43h34.398v12.43
				C34.398,44.274,33.875,44.799,33.23,44.799L33.23,44.799z M33.23,44.799"/>
		</g>
		<g>
			<path fill="#CA3646" d="M15.087,16.211c-0.042,0-0.084-0.002-0.126-0.008c-0.548-0.069-0.936-0.569-0.867-1.117
				c0.367-2.915,1.388-4.622,1.432-4.693c0.286-0.472,0.901-0.623,1.374-0.335c0.471,0.286,0.622,0.898,0.338,1.37
				c-0.012,0.02-0.85,1.453-1.159,3.908C16.014,15.841,15.583,16.211,15.087,16.211z"/>
		</g>
		<g>
			<path fill="#CA3646" d="M20.423,16.211c-0.042,0-0.084-0.002-0.127-0.008c-0.548-0.069-0.936-0.57-0.867-1.118
				c0.368-2.914,1.389-4.621,1.433-4.692c0.286-0.472,0.901-0.623,1.374-0.335c0.471,0.286,0.622,0.898,0.338,1.37
				c-0.012,0.02-0.85,1.454-1.16,3.909C21.35,15.842,20.919,16.211,20.423,16.211z"/>
		</g>
		<g>
			<path fill="#0077A7" d="M17.437,24.798c-6.342,0-10.945-2.437-10.945-5.794c0-0.552,0.448-1,1-1s1,0.448,1,1
				c0,2.092,4.013,3.794,8.945,3.794c4.519,0,7.549-1.47,8.532-4.14c0.191-0.518,0.767-0.784,1.284-0.593
				c0.518,0.191,0.784,0.766,0.593,1.284C27.096,21.385,24.747,24.798,17.437,24.798z"/>
		</g>
		<g>
			<path fill="#FFFFFF" d="M9.176,37.25L10.484,35h1l-1.863,3.121v2.105h-0.9v-2.105L6.857,35h1l1.308,2.25H9.176z"/>
			<path fill="#FFFFFF" d="M12.707,39.426h2.418v0.801h-3.319V35h3.187v0.801h-2.286v1.352h1.963v0.801h-1.963V39.426z"/>
			<path fill="#FFFFFF" d="M18.161,38.727c0-0.133-0.031-0.24-0.092-0.322c-0.062-0.082-0.145-0.149-0.25-0.201
				s-0.224-0.094-0.354-0.127c-0.131-0.033-0.269-0.064-0.414-0.096c-0.191-0.044-0.374-0.097-0.548-0.158
				c-0.174-0.061-0.327-0.146-0.459-0.254c-0.132-0.108-0.238-0.246-0.316-0.412c-0.078-0.167-0.118-0.375-0.118-0.625
				c0-0.276,0.045-0.516,0.136-0.721c0.09-0.205,0.214-0.374,0.369-0.508c0.156-0.134,0.338-0.234,0.548-0.301s0.445-0.1,0.708-0.1
				s0.525,0.027,0.79,0.082s0.493,0.125,0.684,0.211v0.82c-0.255-0.107-0.499-0.184-0.733-0.232
				c-0.234-0.048-0.454-0.072-0.66-0.072c-0.296,0-0.525,0.057-0.685,0.172c-0.161,0.115-0.241,0.287-0.241,0.516
				c0,0.133,0.026,0.242,0.079,0.328s0.125,0.157,0.215,0.213c0.09,0.056,0.195,0.101,0.312,0.135
				c0.118,0.034,0.243,0.065,0.375,0.094c0.208,0.047,0.407,0.101,0.597,0.162s0.358,0.146,0.505,0.256s0.264,0.252,0.349,0.428
				c0.086,0.176,0.129,0.4,0.129,0.674c0,0.281-0.049,0.525-0.147,0.73c-0.098,0.206-0.237,0.375-0.417,0.51
				c-0.18,0.134-0.398,0.234-0.656,0.299s-0.539,0.098-0.845,0.098c-0.267,0-0.53-0.028-0.789-0.084s-0.474-0.135-0.645-0.236
				v-0.809c0.243,0.112,0.479,0.193,0.709,0.244c0.23,0.051,0.468,0.076,0.713,0.076c0.142,0,0.282-0.012,0.419-0.037
				s0.26-0.067,0.37-0.127c0.109-0.06,0.196-0.141,0.263-0.244C18.127,39.005,18.161,38.878,18.161,38.727z"/>
			<path fill="#FFFFFF" d="M23.173,39.395v0.832h-3.697v-0.934l1.537-1.086c0.478-0.338,0.798-0.639,0.963-0.9
				c0.164-0.262,0.246-0.502,0.246-0.721c0-0.263-0.082-0.484-0.246-0.664c-0.165-0.18-0.377-0.27-0.64-0.27
				c-0.573,0-0.903,0.371-0.989,1.113l-0.871-0.23c0.066-0.474,0.264-0.879,0.594-1.217s0.761-0.506,1.295-0.506
				c0.554,0,0.996,0.167,1.327,0.502c0.331,0.334,0.496,0.76,0.496,1.275c0,0.456-0.147,0.863-0.441,1.221s-1.023,0.886-2.187,1.584
				H23.173z"/>
			<path fill="#FFFFFF" d="M26.436,40.227h-0.93v-1.211h-2.228v-0.703l2.228-3.527h0.93v3.41h0.753v0.82h-0.753V40.227z
				 M25.572,35.79l-1.422,2.406h1.356v-1.473c0-0.156,0.007-0.297,0.022-0.422L25.572,35.79z"/>
		</g>
	</g>
</g>
<g id="레이어_3" display="none">
</g>
</svg>
