<?xml version="1.0" encoding="utf-8"?>
<!-- Generator: Adobe Illustrator 16.0.0, SVG Export Plug-In . SVG Version: 6.00 Build 0)  -->
<!DOCTYPE svg PUBLIC "-//W3C//DTD SVG 1.1//EN" "http://www.w3.org/Graphics/SVG/1.1/DTD/svg11.dtd">
<svg version="1.1" id="Layer_1" xmlns="http://www.w3.org/2000/svg" xmlns:xlink="http://www.w3.org/1999/xlink" x="0px" y="0px"
	 width="66.301px" height="62.613px" viewBox="14.304 4.212 66.301 62.613" enable-background="new 14.304 4.212 66.301 62.613"
	 xml:space="preserve">
<g>
	
		<path fill="#FFFFFF" stroke="#000000" stroke-width="2.7079" stroke-linecap="round" stroke-linejoin="round" stroke-miterlimit="10" d="
		M75.689,5.567H19.221c-1.967,0-3.563,1.598-3.563,3.563v36.517c0,1.967,1.598,3.564,3.563,3.564h24.688v11.625
		c-6.235,0.275-12.144,1.188-12.144,2.271c0,1.309,7.514,2.363,15.688,2.363c8.176,0,15.688-1.059,15.688-2.363
		c0-1.084-5.463-1.996-11.697-2.271V49.207h24.246c1.967,0,3.563-1.596,3.563-3.563V9.129C79.252,7.162,77.656,5.567,75.689,5.567z"
		/>
	<g>
		<path fill="#E1C033" d="M69.768,12.025h-3.525v22.424c0,1.35-1.17,2.445-2.609,2.445H22.535v2.67c0,1.354,1.166,2.449,2.608,2.449
			h44.624c1.44,0,2.607-1.096,2.607-2.449V14.473C72.375,13.121,71.208,12.025,69.768,12.025z"/>
		<path fill="#FADE52" d="M66.242,34.449V12.025H25.144c-1.442,0-2.608,1.097-2.608,2.448v22.421h41.098
			C65.072,36.894,66.242,35.799,66.242,34.449z"/>
		<g>
			<path fill="none" stroke="#FFFFFF" stroke-width="2.4557" stroke-linecap="round" stroke-miterlimit="10" d="M34.399,16.804
				h-5.034c-1.061,0-1.924,0.891-1.924,1.99v4.44"/>
			<path fill="#FFFFFF" d="M28.781,26.549c0,0.662-0.569,1.198-1.274,1.198s-1.276-0.536-1.276-1.198
				c0-0.658,0.571-1.194,1.276-1.194C28.212,25.354,28.781,25.891,28.781,26.549z"/>
		</g>
		<path fill="none" stroke="#231F20" stroke-width="3" stroke-miterlimit="10" d="M69.768,12.025h-3.525H25.144
			c-1.442,0-2.608,1.097-2.608,2.448v22.421v2.67c0,1.354,1.166,2.449,2.608,2.449h44.624c1.44,0,2.607-1.096,2.607-2.449V14.473
			C72.375,13.121,71.208,12.025,69.768,12.025z"/>
	</g>
</g>
</svg>
