<?xml version="1.0" encoding="utf-8"?>
<!-- Generator: Adobe Illustrator 16.0.0, SVG Export Plug-In . SVG Version: 6.00 Build 0)  -->
<!DOCTYPE svg PUBLIC "-//W3C//DTD SVG 1.1//EN" "http://www.w3.org/Graphics/SVG/1.1/DTD/svg11.dtd">
<svg version="1.1" id="Layer_1" xmlns="http://www.w3.org/2000/svg" xmlns:xlink="http://www.w3.org/1999/xlink" x="0px" y="0px"
	 width="71.168px" height="86.773px" viewBox="0 0 71.168 86.773" enable-background="new 0 0 71.168 86.773" xml:space="preserve">
<g>
	<path fill="#948EC5" d="M-691.415-203.965c0,2.645-1.942,4.786-4.339,4.786h-78.099c-2.396,0-4.339-2.142-4.339-4.786v-44.983
		c0-2.642,1.942-4.784,4.339-4.784h78.099c2.397,0,4.339,2.143,4.339,4.784V-203.965z"/>
	<rect x="-738.073" y="-200.774" fill="#948EC5" width="7.179" height="22.331"/>
	<ellipse fill="#948EC5" cx="-735.042" cy="-178.602" rx="23.608" ry="3.336"/>
	<path fill="#F0AECE" d="M-701.802-247.822h-5.557v29.078c0,2.504-2.032,4.534-4.536,4.534h-59.307v5.371
		c0,2.069,1.522,3.748,3.399,3.748h66.001c1.876,0,3.398-1.679,3.398-3.748v-35.235
		C-698.403-246.144-699.925-247.822-701.802-247.822z"/>
	<path fill="#FBD8E7" d="M-707.358-218.744v-29.078h-60.444c-1.877,0-3.399,1.679-3.399,3.748v29.864h59.307
		C-709.39-214.21-707.358-216.24-707.358-218.744z"/>
	<g>
		<path fill="none" stroke="#FFFFFF" stroke-width="4.1875" stroke-linecap="round" stroke-miterlimit="10" d="M-752.879-242.584
			h-8.901c-1.878,0-3.399,1.678-3.399,3.748v8.377"/>
		<circle fill="#FFFFFF" cx="-765.071" cy="-224.211" r="2.257"/>
	</g>
</g>
<g>
	<g>
		<path fill="#F0AECE" d="M-412.816,5.941c-0.285-0.484-0.658-0.91-1.034-1.359c-0.678-0.809-1.356-1.617-2.037-2.422
			c-0.163-0.191-0.328-0.385-0.492-0.58c-0.41-0.486-1.078-0.486-1.49,0c0,0-3.626,4.297-3.631,4.303
			c-0.405,0.48-0.522,1.254-0.522,1.904v48.16c0,0.752,0.516,1.365,1.152,1.365h7.419c0.638,0,1.153-0.613,1.153-1.365V7.787
			C-412.299,7.127-412.496,6.479-412.816,5.941z"/>
		<path fill="#F0AECE" d="M-412.082,61.449c0,0.225-0.26,0.404-0.58,0.404h-8.998c-0.32,0-0.58-0.18-0.58-0.404l1.74-2.918
			c0-0.225,0.261-0.404,0.581-0.404h5.516c0.319,0,0.58,0.18,0.58,0.404L-412.082,61.449z"/>
	</g>
	<path fill="#F0AECE" d="M-392.584-5.102c-0.577-0.82-1.328-1.551-2.086-2.313c-1.365-1.377-2.733-2.75-4.104-4.119
		c-0.329-0.33-0.661-0.656-0.99-0.986c-0.829-0.83-2.174-0.83-3.003,0c0,0-7.307,7.307-7.318,7.318
		c-0.814,0.816-1.051,2.133-1.051,3.242v54.281c0,1.281,1.04,2.322,2.322,2.322h14.949c1.281,0,2.321-1.041,2.321-2.322V-1.959
		C-391.544-3.086-391.94-4.186-392.584-5.102z"/>
	<g>
		<path fill="#948EC5" d="M-411.981,73.869c0,7.072-5.153,16.809-5.153,16.809s-5.152-9.736-5.152-16.809
			c0-7.074,2.307-8.807,5.152-8.807S-411.981,66.795-411.981,73.869z"/>
		<path fill="#948EC5" d="M-412.035,71.396c0.069,5.115-4.986,12.189-4.986,12.189s-5.248-7.008-5.317-12.121
			c-0.069-5.117,2.22-6.383,5.065-6.4C-414.428,65.045-412.104,66.281-412.035,71.396z"/>
		<path fill="#948EC5" d="M-413.74,69.713c0.051,3.738-3.303,8.906-3.303,8.906s-3.493-5.123-3.543-8.863
			c-0.051-3.736,1.469-4.662,3.359-4.674C-415.336,65.068-413.792,65.975-413.74,69.713z"/>
		<path fill="#948EC5" d="M-415.282,67.605c0.027,2.041-1.802,4.863-1.802,4.863s-1.907-2.797-1.935-4.838s0.802-2.545,1.834-2.551
			C-416.153,65.072-415.31,65.566-415.282,67.605z"/>
	</g>
	<g>
		<path fill="#F0AECE" d="M-380.693,5.941c-0.285-0.484-0.658-0.91-1.034-1.359c-0.678-0.809-1.356-1.617-2.037-2.422
			c-0.163-0.191-0.328-0.385-0.492-0.58c-0.41-0.486-1.078-0.486-1.49,0c0,0-3.626,4.297-3.631,4.303
			c-0.405,0.48-0.522,1.254-0.522,1.904v48.16c0,0.752,0.516,1.365,1.152,1.365h7.419c0.638,0,1.153-0.613,1.153-1.365V7.787
			C-380.176,7.127-380.373,6.479-380.693,5.941z"/>
		<path fill="#F0AECE" d="M-379.959,61.449c0,0.225-0.26,0.404-0.58,0.404h-8.998c-0.321,0-0.58-0.18-0.58-0.404l1.742-2.918
			c0-0.225,0.259-0.404,0.579-0.404h5.515c0.32,0,0.582,0.18,0.582,0.404L-379.959,61.449z"/>
	</g>
	<g>
		<path fill="#948EC5" d="M-379.859,73.869c0,7.072-5.152,16.809-5.152,16.809s-5.151-9.736-5.151-16.809
			c0-7.074,2.306-8.807,5.151-8.807S-379.859,66.795-379.859,73.869z"/>
		<path fill="#948EC5" d="M-379.912,71.396c0.069,5.115-4.986,12.189-4.986,12.189s-5.247-7.008-5.316-12.121
			c-0.07-5.117,2.219-6.383,5.064-6.4C-382.305,65.045-379.982,66.281-379.912,71.396z"/>
		<path fill="#948EC5" d="M-381.618,69.713c0.052,3.738-3.302,8.906-3.302,8.906s-3.492-5.123-3.543-8.863
			c-0.051-3.736,1.469-4.662,3.359-4.674C-383.213,65.068-381.669,65.975-381.618,69.713z"/>
		<path fill="#948EC5" d="M-383.159,67.605c0.028,2.041-1.802,4.863-1.802,4.863s-1.907-2.797-1.935-4.838s0.801-2.545,1.834-2.551
			C-384.03,65.072-383.188,65.566-383.159,67.605z"/>
	</g>
	<g>
		<path fill="#948EC5" d="M-394.76,74.787c0,10.576-6.114,25.129-6.114,25.129s-6.115-14.553-6.115-25.129
			c0-10.572,2.737-13.16,6.115-13.16C-397.497,61.627-394.76,64.215-394.76,74.787z"/>
		<path fill="#948EC5" d="M-394.821,71.096c0.082,7.646-5.919,18.219-5.919,18.219s-6.229-10.473-6.311-18.119
			s2.634-9.539,6.012-9.568C-397.662,61.6-394.904,63.451-394.821,71.096z"/>
		<path fill="#948EC5" d="M-396.847,68.578c0.062,5.586-3.919,13.313-3.919,13.313s-4.145-7.658-4.205-13.246
			c-0.061-5.59,1.742-6.973,3.988-6.99C-398.74,61.637-396.907,62.99-396.847,68.578z"/>
		<path fill="#948EC5" d="M-398.677,65.43c0.034,3.049-2.138,7.266-2.138,7.266s-2.264-4.18-2.296-7.229
			c-0.032-3.051,0.95-3.807,2.177-3.816C-399.709,61.641-398.709,62.379-398.677,65.43z"/>
	</g>
	<g>
		<path fill="#FBD8E7" d="M-395.553,12.283c-0.371-0.574-0.855-1.082-1.344-1.615c-0.88-0.961-1.762-1.918-2.645-2.875
			c-0.213-0.23-0.426-0.459-0.639-0.689c-0.534-0.578-1.401-0.578-1.936,0c0,0-4.708,5.102-4.717,5.111
			c-0.523,0.568-0.676,1.486-0.676,2.264v37.891c0,0.895,0.67,1.621,1.496,1.621h3.316c0.151,1.051,1.086,1.791,1.5,1.791
			s1.35-0.74,1.501-1.791h3.316c0.825,0,1.497-0.727,1.497-1.621V14.479C-394.881,13.691-395.138,12.924-395.553,12.283z"/>
		<g>
			<path fill="#FBD8E7" d="M-407.424,26.004c0,0-4.354,8.127-11.997,12.578c0,0-4.741,2.807-5.128,7.063h18.384l0.677-19.352
				L-407.424,26.004z"/>
			<polyline fill="#FBD8E7" points="-406.244,49.896 -407.404,49.754 -424.55,47.623 -424.55,45.637 -406.402,45.637 
				-406.402,49.219 			"/>
		</g>
		<g>
			<path fill="#FBD8E7" d="M-394.82,26.004c0,0,4.353,8.127,11.996,12.578c0,0,4.742,2.807,5.129,7.063h-18.384l-0.678-19.352
				L-394.82,26.004z"/>
			<polyline fill="#FBD8E7" points="-396,49.896 -394.84,49.754 -377.694,47.623 -377.694,45.637 -395.842,45.637 -395.842,49.219 
							"/>
		</g>
	</g>
</g>
<g>
	<path fill-rule="evenodd" clip-rule="evenodd" fill="#5D6AB2" d="M-253.189,5.342c0.02-0.002-0.559-1.506-0.634-1.645
		c-0.274-0.498-0.596-0.975-0.985-1.393c-1.372-1.461-3.131-1.971-5.012-2.436c-1.797-0.445-3.596-0.898-5.393-1.332
		c-4.806-1.16-8.121,0.443-9.709,5.078c-0.113,0.582-0.227,1.164-0.34,1.746c4.786,0,9.571-0.002,14.357-0.004
		c0.17-1.271,0.679-2.48,0.939-3.734c0.047-0.23,0.086-0.459,0.113-0.691c-0.027,0.232-0.066,0.461-0.113,0.691
		c-0.261,1.254-0.77,2.463-0.939,3.734C-258.332,5.352-255.761,5.348-253.189,5.342z"/>
	<path fill="#948EC5" d="M-229.617,78.773c0-1.912,0-10.92-0.004-12.832c-0.018-7.818,0.025-23.105-0.002-30.922
		c-0.025-6.463-0.893-13.295-4.523-18.684c-2.838-4.215-6.443-7.949-11.117-9.705c-4.494-1.688-9.445-1.41-14.135-1.41
		c-7.796,0-15.592,0.014-23.389,0.014c-12.844,0-18.688,8.355-18.688,18.664v51.094v1.541l-0.029,4.602
		c0,4.123,2.78,7.465,6.822,7.465c1.658,0,3.183-0.568,4.41-1.516c1.444-1.115,2.469-2.762,2.794-4.656
		c0.339,1.977,1.438,3.686,2.983,4.801c1.193,0.861,2.646,1.371,4.22,1.371c1.918,0,3.659-0.758,4.965-1.988
		c1.15-1.086,1.957-2.541,2.239-4.184c0.281,1.643,1.088,3.098,2.238,4.184c1.306,1.23,3.047,1.988,4.965,1.988
		s3.658-0.758,4.964-1.988c1.151-1.086,1.958-2.541,2.239-4.184c0.282,1.643,1.088,3.098,2.239,4.184
		c1.306,1.23,3.046,1.988,4.964,1.988c1.518,0,2.928-0.471,4.098-1.275c1.611-1.113,2.758-2.863,3.105-4.896
		c0.391,2.271,1.779,4.191,3.697,5.26c1.041,0.582,2.236,0.912,3.506,0.912c4.043,0,7.32-3.342,7.32-7.465"/>
	<g>
		<path fill-rule="evenodd" clip-rule="evenodd" fill="#F3C5D2" d="M-270.936,20.113c0.04,1.654-1.364,3.061-3.061,3.064
			c-1.627,0.002-2.939-1.232-3.021-2.842c-0.084-1.658,1.261-3.145,2.871-3.174C-272.529,17.133-270.972,18.564-270.936,20.113z"/>
		<path fill-rule="evenodd" clip-rule="evenodd" fill="#F3C5D2" d="M-241.875,23.178c-1.596,0.012-2.992-1.32-3.049-2.91
			c-0.061-1.697,1.254-3.08,2.959-3.107c1.723-0.029,3.127,1.354,3.094,3.051C-238.898,21.787-240.295,23.164-241.875,23.178z"/>
	</g>
	<path fill-rule="evenodd" clip-rule="evenodd" fill="#F3C5D2" d="M-286.9,43.41c0.031-1.941,0.054-3.879,0.095-5.818
		c0.101-4.645,3.665-8.279,8.333-8.295c13.232-0.047,26.467-0.043,39.701-0.002c4.672,0.014,8.258,3.596,8.336,8.273
		c0.049,2.873,0.264,5.76-0.295,8.613c-1.854,4.143-5.053,5.803-9.568,5.758c-12.534-0.125-25.07-0.078-37.605-0.023
		c-4.236,0.02-6.955-2.072-8.611-5.744C-286.883,45.357-286.784,44.336-286.9,43.41z"/>
	<path fill-rule="evenodd" clip-rule="evenodd" fill="#D8829D" d="M-234.096,40.074c0,0.344-0.279,0.621-0.621,0.621h-42.555
		c-0.344,0-0.622-0.277-0.622-0.621l0,0c0-0.344,0.278-0.623,0.622-0.623h42.555C-234.375,39.451-234.096,39.73-234.096,40.074
		L-234.096,40.074z"/>
	
		<path fill-rule="evenodd" clip-rule="evenodd" fill="none" stroke="#F3C5D2" stroke-width="1.5067" stroke-linecap="round" stroke-miterlimit="10" d="
		M-282.055,54.357v8.012c0,3.723-3.229,6.736-7.209,6.736l0,0c-3.981,0-7.208-3.014-7.208-6.736v-8.012"/>
</g>
<g>
	<path fill-rule="evenodd" clip-rule="evenodd" fill="#948EC5" d="M-141.943,19.15c-3.125,0.636-4.879,3.553-3.984,6.629
		c-0.582,0.225-1.17,0.438-1.746,0.678c-5.09,2.12-10.158,4.285-15.271,6.344c-1.287,0.519-2.494,1.291-3.912,1.471
		c-1.635-4.576-0.711-8.707,2.297-12.397c2.889-3.542,6.74-5.776,10.848-7.604c6.334-2.817,13.014-4.4,19.826-5.523
		c8.615-1.42,17.293-1.837,26.006-1.571c10.275,0.311,20.41,1.587,30.193,4.929c4.447,1.52,8.684,3.48,12.299,6.568
		c3.494,2.984,5.725,6.619,5.574,11.387c-0.045,1.43-0.227,2.859-0.834,4.191c-0.811-0.118-1.561-0.424-2.305-0.737
		c-1.391-0.583-2.768-1.192-4.156-1.769c-4.82-1.998-9.643-3.985-14.463-5.979c1.02-3.408-0.264-5.787-3.885-7.203
		c-0.012-0.146-0.043-0.294-0.031-0.44c0.162-2.298-1.063-3.841-2.971-4.708c-1.912-0.869-3.924-0.808-5.766,0.469
		c-0.637,0.439-0.973,1.193-1.693,1.527c-0.258-0.011-0.52,0.005-0.77-0.034c-4.119-0.622-8.26-0.965-12.424-1.063
		c-6.16-0.146-12.301,0.1-18.408,0.906c-1.313,0.176-2.713,0.092-3.914,0.834c-0.063-0.037-0.156-0.063-0.182-0.117
		c-1.398-3.012-5.145-4.045-7.93-2.217C-141.533,15.023-142.154,16.895-141.943,19.15z"/>
	<path fill-rule="evenodd" clip-rule="evenodd" fill="#948EC5" d="M-79.486,59.833c-0.363,0.365-0.826,0.252-1.258,0.252
		c-21.977,0.005-43.951,0.005-65.928,0c-0.43,0-0.896,0.116-1.266-0.233c4.406-4.86,7.174-10.733,10.191-16.453
		c1.799-3.417,3.676-6.805,6.115-9.816c1.564-1.928,3.301-3.719,5.371-5.107c0.639-0.43,1.301-0.82,1.98-1.176
		c2.246-1.172,4.625-2.059,7.211-2.254c2.83-0.213,5.664-0.371,8.451,0.253c4.225,0.946,7.867,2.98,10.92,6.082
		c0.771,0.784,1.293,1.805,2.268,2.392c1.088,1.695,2.266,3.34,3.244,5.094c2.078,3.719,4.055,7.494,6.07,11.248
		C-84.248,53.588-82.113,56.879-79.486,59.833z M-95.295,47.125c0.602-0.15,1.23,0.58,1.451-0.591
		c0.721-1.872,1.801-3.424,1.314-5.544c0.242-0.619-0.16-0.643-0.6-0.68c-1.166-0.097-2.328-0.216-3.492-0.326
		c-0.447-3.717-2.119-6.783-4.947-9.211c-5.92-5.081-15.23-5.813-21.9-1.709c-3.85,2.368-6.613,16.077-6.523,16.438
		c0.611,2.438,1.211,3.557,2.969,5.376c5.143,5.331,13.305,8.247,20.338,5.415c5.203-2.097,8.807-5.658,9.916-11.36
		c0.779,0.122,1.117,0.556,1.02,1.354c-0.039,0.316,0.338,0.256,0.354,0.578C-95.445,47.104-95.477,47.188-95.295,47.125z"/>
	<path fill-rule="evenodd" clip-rule="evenodd" fill="#5D6AB2" d="M-95.43,33.771c-0.975-0.587-1.496-1.607-2.268-2.392
		c-3.053-3.102-6.695-5.136-10.92-6.082c-2.787-0.624-5.621-0.466-8.451-0.253c-2.586,0.195-4.965,1.082-7.211,2.254
		c-2.35,1.227-4.439,2.865-6.152,4.928c-0.473,0.567-0.945,1.128-1.566,1.542c-1.543-0.001-3.09,0.022-4.633-0.007
		c-2.975-0.059-5.297-2.383-5.318-5.346c-0.021-3.088,0.002-6.176,0.006-9.266c-0.211-2.256,0.41-4.127,2.398-5.432
		c2.785-1.828,6.531-0.795,7.93,2.217c0.025,0.055,0.119,0.08,0.182,0.117c0.646,1.832,0.346,3.731,0.332,5.598
		c-0.008,1.051,0.328,1.258,1.309,1.254c9.367-0.036,18.736-0.021,28.104-0.021c1.512,0,3.025-0.002,4.537,0
		c0.416,0.002,0.811,0.045,0.813-0.585c0.01-2.303-0.172-4.62,0.422-6.888c0.721-0.334,1.057-1.088,1.693-1.527
		c1.842-1.276,3.854-1.338,5.766-0.469c1.908,0.867,3.133,2.41,2.971,4.708c-0.012,0.146,0.02,0.294,0.031,0.44
		c0,3.206,0.012,6.414-0.006,9.62c-0.02,3.288-2.275,5.55-5.543,5.583C-92.48,33.781-93.955,33.77-95.43,33.771z"/>
	<path fill-rule="evenodd" clip-rule="evenodd" fill="#948EC5" d="M-166.857,34.271c1.418-0.18,2.625-0.952,3.912-1.471
		c5.113-2.059,10.182-4.224,15.271-6.344c0.576-0.24,1.164-0.453,1.746-0.678c0.648,1.363,1.084,2.81,1.453,4.258
		c0.469,1.84-0.475,3.693-2.244,4.442c-4.49,1.903-9.002,3.764-13.527,5.585c-1.684,0.677-3.584-0.012-4.586-1.658
		C-165.625,37.098-166.336,35.727-166.857,34.271z"/>
	<path fill-rule="evenodd" clip-rule="evenodd" fill="#948EC5" d="M-81.572,25.766c4.82,1.993,9.643,3.98,14.463,5.979
		c1.389,0.576,2.766,1.186,4.156,1.769c0.744,0.313,1.494,0.619,2.305,0.737c-0.514,1.459-1.215,2.838-2.023,4.14
		c-1.113,1.796-3.041,2.331-4.998,1.528c-4.211-1.73-8.422-3.461-12.625-5.211c-2.488-1.037-3.375-2.993-2.494-5.531
		C-82.395,28.036-82.158,26.838-81.572,25.766z"/>
	<path fill-rule="evenodd" clip-rule="evenodd" fill="#E376AE" d="M-149.139,78.517c5.377-0.003,10.754-0.006,16.131-0.007
		c0.084,0.85-0.191,1.178-1.148,1.165c-4.598-0.06-9.197-0.06-13.797,0C-148.9,79.687-149.195,79.368-149.139,78.517z"/>
	<path fill-rule="evenodd" clip-rule="evenodd" fill="#E376AE" d="M-94.408,78.504c5.379,0.006,10.762,0.01,16.141,0.016
		c0.066,0.866-0.258,1.166-1.191,1.154c-4.604-0.056-9.207-0.059-13.809,0.001C-94.234,79.688-94.496,79.352-94.408,78.504z"/>
	<path fill-rule="evenodd" clip-rule="evenodd" fill="#F0AECE" d="M-130.814,41.738c0.117,0.18,0.693,3.087,0.764,3.283
		c1.986,5.457,5.9,8.697,11.361,10.07c6.971,1.756,13.213,0.274,18.377-4.891c1.498-1.495,2.639-3.426,3.146-5.527
		c0.145,0.042,0.252,0.217,0.396,0.259c-1.109,5.702-4.713,9.264-9.916,11.36c-7.033,2.832-15.244,1.089-20.387-4.242
		c-1.756-1.82-2.854-3.999-3.467-6.437C-130.631,45.252-130.957,42.099-130.814,41.738z"/>
	<path fill-rule="evenodd" clip-rule="evenodd" fill="#E5E3E2" d="M-103.816,39.582c2.398,0.134,4.797,0.269,7.195,0.402
		c1.164,0.11,2.326,0.229,3.492,0.326c0.439,0.037,0.842,0.061,0.6,0.68c-0.438,1.102-0.877,2.204-1.314,3.306
		c-1.283-0.234-2.369-0.954-3.516-1.5C-99.529,41.766-101.781,40.887-103.816,39.582z"/>
	<path fill-rule="evenodd" clip-rule="evenodd" fill="#97928F" d="M-93.926,47.256c-0.313-0.824,0.063-2.121,0.082-2.96
		c0.438-1.102,0.949-2.56,1.387-3.661C-91.971,42.756-93.205,45.385-93.926,47.256z"/>
	<path fill-rule="evenodd" clip-rule="evenodd" fill="#C9C9C9" d="M-93.844,44.296c-1.283-0.234-2.369-0.954-3.516-1.5
		c-2.17-1.03-4.422-1.909-6.457-3.214c-0.568,1.111-0.408,1.634,0.584,2.146c1.543,0.796,3.143,1.479,4.67,2.304
		c0.492,0.266,2.516,1.141,2.646,1.719c0.1,0.447,0.006,0.945,0.203,1.373c0.107,0.232,0.285,0.369,0.549,0.398
		c0.398,0.042,0.938,0.063,1.238-0.266C-93.857,47.182-93.863,45.135-93.844,44.296z"/>
	<path fill-rule="evenodd" clip-rule="evenodd" fill="#5D6AB2" d="M-120.305,48.154c-0.268,1.189-1.234,1.984-2.592,2.131
		c-1.389,0.15-2.637-0.568-3.285-1.89c0.443-0.769,1.098-1.265,1.938-1.541C-122.605,46.313-121.4,47.062-120.305,48.154z"/>
	<path fill-rule="evenodd" clip-rule="evenodd" fill="#5D6AB2" d="M-107.773,51.68c-0.18,1.287-1.227,2.143-2.705,2.207
		c-1.535,0.068-2.867-0.771-3.131-1.975c0.641-0.918,1.5-1.438,2.625-1.574C-109.641,50.174-108.711,50.914-107.773,51.68z"/>
	<path fill-rule="evenodd" clip-rule="evenodd" fill="#5D6AB2" d="M-121.738,37.08c-0.217,1.318-1.4,2.188-2.951,2.166
		c-1.488-0.019-2.646-0.896-2.852-2.158C-125.371,35.197-123.721,35.195-121.738,37.08z"/>
	<path fill-rule="evenodd" clip-rule="evenodd" fill="#5D6AB2" d="M-116.619,31.508c0.008-0.14,0.018-0.277,0.023-0.416
		c0.588-0.352,1.061-0.869,1.723-1.12c1.73-0.655,3.613,0.19,3.994,1.825c-1.449,2.096-4.182,2.094-5.652-0.004
		C-116.561,31.698-116.588,31.604-116.619,31.508z"/>
	<path fill-rule="evenodd" clip-rule="evenodd" fill="#5D6AB2" d="M-122.869,42.837c-0.344,1.335-1.395,2.057-2.975,2.04
		c-1.523-0.017-2.543-0.746-2.857-2.043C-126.805,40.807-124.744,40.809-122.869,42.837z"/>
	<path fill-rule="evenodd" clip-rule="evenodd" fill="#5D6AB2" d="M-101.865,48.815c-0.531,1.55-1.795,2.269-3.531,2.012
		c-1.348-0.2-2.191-1.029-2.277-2.238C-105.135,46.786-103.705,46.842-101.865,48.815z"/>
	<path fill-rule="evenodd" clip-rule="evenodd" fill="#5D6AB2" d="M-114.74,51.703c-0.391,1.248-1.361,1.782-2.549,1.919
		c-1.436,0.167-2.572-0.387-3.309-1.671c-0.004-0.104-0.01-0.207-0.016-0.311c0.033-0.128,0.066-0.256,0.098-0.385
		c0.182-0.114,0.371-0.221,0.545-0.346C-118.088,49.578-116.148,49.871-114.74,51.703z"/>
	<path fill-rule="evenodd" clip-rule="evenodd" fill="#5D6AB2" d="M-104.398,32.676c0.066,0.254,0.098,0.502-0.053,0.744
		c-0.611,0.984-1.508,1.452-2.654,1.49c-1.174,0.041-2.158-0.322-2.859-1.311c-0.205-0.292-0.205-0.619-0.176-0.951
		c0.537-0.172,0.82-0.688,1.338-0.924C-107.074,30.933-105.697,31.586-104.398,32.676z"/>
	<path fill-rule="evenodd" clip-rule="evenodd" fill="#5D6AB2" d="M-122.66,34.193c-0.01-0.532-0.664-0.908-0.371-1.516
		c2.207-1.805,3.906-1.488,5.729-0.027c-0.098,1.793-2.186,2.826-4.186,2.06c-0.4-0.154-0.789-0.349-1.184-0.523L-122.66,34.193z"/>
	<path fill-rule="evenodd" clip-rule="evenodd" fill="#F0AECE" d="M-120.305,48.154c-1.096-1.093-2.301-1.841-3.939-1.3
		c-0.84,0.276-1.494,0.772-1.938,1.541c-0.469-1.122-0.068-2.002,0.787-2.731c1.057-0.9,2.268-0.99,3.506-0.511
		c1.031,0.399,1.631,1.218,1.816,2.31C-120.027,47.72-120.064,47.98-120.305,48.154z"/>
	<path fill-rule="evenodd" clip-rule="evenodd" fill="#F0AECE" d="M-117.303,32.65c-1.822-1.461-3.521-1.777-5.729,0.027
		c-0.576-0.457-0.223-0.992-0.012-1.393c0.572-1.09,1.545-1.665,2.773-1.705c1.227-0.04,2.232,0.443,2.877,1.515
		C-117.107,31.57-116.943,32.109-117.303,32.65z"/>
	<path fill-rule="evenodd" clip-rule="evenodd" fill="#F0AECE" d="M-122.869,42.837c-1.875-2.028-3.936-2.03-5.832-0.003
		c-0.445-1.552,0.441-2.866,2.195-3.251C-124.268,39.094-122.297,40.855-122.869,42.837z"/>
	<path fill-rule="evenodd" clip-rule="evenodd" fill="#F0AECE" d="M-114.74,51.703c-1.408-1.832-3.348-2.125-5.23-0.793
		c-0.174,0.125-0.363,0.231-0.545,0.346c-0.207-0.041-0.346-0.17-0.318-0.378c0.143-1.067,0.682-1.842,1.684-2.287
		c1.186-0.526,2.869-0.33,3.736,0.541C-114.715,49.834-114.215,50.65-114.74,51.703z"/>
	<path fill-rule="evenodd" clip-rule="evenodd" fill="#F0AECE" d="M-104.398,32.676c-1.299-1.09-2.676-1.743-4.404-0.951
		c-0.518,0.236-0.801,0.752-1.338,0.924c-0.449-1.682,0.994-3.145,3.049-3.084c1.381,0.039,2.531,0.898,2.861,2.131
		C-104.137,32.051-103.994,32.407-104.398,32.676z"/>
	<path fill-rule="evenodd" clip-rule="evenodd" fill="#F0AECE" d="M-121.738,37.08c-1.982-1.885-3.633-1.883-5.803,0.008
		c-0.482-1.396,0.58-2.922,2.16-3.119c0.924-0.115,1.818,0.078,2.721,0.225l-0.012-0.007c0.25,0.64,0.928,1.021,1.045,1.74
		C-121.563,36.32-121.463,36.719-121.738,37.08z"/>
	<path fill-rule="evenodd" clip-rule="evenodd" fill="#F0AECE" d="M-101.865,48.815c-1.84-1.974-3.27-2.029-5.809-0.227
		c-0.057-0.092-0.152-0.179-0.164-0.276c-0.148-1.154,0.48-1.9,1.404-2.398c1.33-0.72,2.668-0.559,3.818,0.373
		C-101.85,46.907-101.41,47.764-101.865,48.815z"/>
	<path fill-rule="evenodd" clip-rule="evenodd" fill="#F0AECE" d="M-107.773,51.68c-0.938-0.766-1.867-1.506-3.211-1.342
		c-1.125,0.136-1.984,0.656-2.625,1.574c-0.424-0.706-0.148-1.351,0.209-1.963c0.723-1.239,2.568-1.791,4.006-1.221
		C-108.109,49.238-107.471,50.402-107.773,51.68z"/>
	<path fill-rule="evenodd" clip-rule="evenodd" fill="#F0AECE" d="M-110.879,31.797c-0.381-1.635-2.264-2.48-3.994-1.825
		c-0.662,0.251-1.135,0.769-1.723,1.12c-0.402-1.98,1.619-3.595,3.756-2.998C-111.006,28.604-110.322,29.897-110.879,31.797z"/>
	<path fill-rule="evenodd" clip-rule="evenodd" fill="#AC6F42" d="M-116.619,31.508c0.031,0.096,0.059,0.19,0.088,0.285
		C-116.66,31.729-116.709,31.639-116.619,31.508z"/>
	<path fill-rule="evenodd" clip-rule="evenodd" fill="#FBD8E7" d="M-103.816,39.582c2.398,0.134,4.797,0.269,7.195,0.402
		c-0.447-3.717-2.119-6.783-4.947-9.211c-5.92-5.081-15.23-5.813-21.9-1.709c-1.6,0.984-3.107,2.185-4.283,3.656
		c-1.156,1.445-2.094,3.113-2.566,4.91c-0.656,2.505-0.734,5.119,0.205,7.564c0.227,0.587,0.469,1.168,0.742,1.735
		c0.498,1.03,1.105,2.005,1.84,2.883c1.406,1.681,3.209,3.058,5.193,3.985c1.158,0.539,2.408,0.981,3.648,1.293
		c6.971,1.756,13.213,0.274,18.377-4.891c1.498-1.495,2.65-3.418,3.158-5.521c-1.926-1.188-4.072-1.919-6.078-2.953
		C-104.225,41.216-104.385,40.693-103.816,39.582z M-107.092,29.564c1.381,0.039,2.531,0.898,2.861,2.131
		c0.094,0.355,0.236,0.712-0.168,0.98c0.066,0.254,0.098,0.502-0.053,0.744c-0.611,0.984-1.508,1.452-2.654,1.49
		c-1.174,0.041-2.158-0.322-2.859-1.311c-0.205-0.292-0.205-0.619-0.176-0.951C-110.59,30.967-109.146,29.504-107.092,29.564z
		 M-112.84,28.094c1.834,0.511,2.518,1.804,1.961,3.703c-1.449,2.096-4.182,2.094-5.652-0.004c-0.129-0.064-0.178-0.154-0.088-0.285
		c0.008-0.14,0.018-0.277,0.023-0.416C-116.998,29.111-114.977,27.497-112.84,28.094z M-125.381,33.969
		c0.92-0.114,1.814,0.078,2.711,0.225c0,0,0-0.005-0.002-0.007c0.004,0.002,0.008,0.003,0.01,0.005
		c-0.012-0.532-0.662-0.908-0.369-1.514c-0.576-0.457-0.223-0.992-0.012-1.393c0.572-1.09,1.545-1.665,2.773-1.705
		c1.227-0.04,2.232,0.443,2.877,1.515c0.285,0.476,0.449,1.015,0.09,1.556c-0.098,1.793-2.186,2.826-4.186,2.06
		c-0.398-0.153-0.783-0.345-1.174-0.519l0.002,0.002c-0.004,0-0.006,0-0.01,0c0.254,0.635,0.928,1.018,1.043,1.733
		c0.064,0.394,0.164,0.792-0.111,1.153c-0.217,1.318-1.4,2.188-2.951,2.166c-1.488-0.019-2.646-0.896-2.852-2.158
		C-128.023,35.691-126.961,34.166-125.381,33.969z M-128.701,42.836c-0.445-1.554,0.441-2.868,2.195-3.253
		c2.238-0.489,4.209,1.272,3.637,3.254c-0.344,1.335-1.395,2.057-2.975,2.04C-127.367,44.86-128.387,44.131-128.701,42.836z
		 M-122.896,50.285c-1.389,0.15-2.637-0.568-3.285-1.89c-0.469-1.122-0.068-2.002,0.787-2.731c1.057-0.9,2.268-0.99,3.506-0.511
		c1.031,0.399,1.631,1.218,1.816,2.31c0.045,0.257,0.008,0.518-0.232,0.691C-120.572,49.344-121.539,50.139-122.896,50.285z
		 M-114.74,51.703c-0.391,1.248-1.361,1.782-2.549,1.919c-1.436,0.167-2.572-0.387-3.309-1.671c-0.004-0.104-0.01-0.207-0.016-0.311
		c0.033-0.128,0.066-0.256,0.098-0.385c-0.207-0.041-0.346-0.17-0.318-0.378c0.143-1.067,0.682-1.842,1.684-2.287
		c1.186-0.526,2.869-0.33,3.736,0.541C-114.715,49.834-114.215,50.65-114.74,51.703z M-107.773,51.68
		c-0.18,1.287-1.227,2.143-2.705,2.207c-1.535,0.068-2.867-0.771-3.131-1.975c-0.424-0.706-0.148-1.351,0.209-1.963
		c0.723-1.239,2.568-1.791,4.006-1.221C-108.109,49.238-107.471,50.402-107.773,51.68z M-101.865,48.815
		c-0.531,1.55-1.795,2.269-3.531,2.012c-1.348-0.2-2.191-1.029-2.277-2.238c-0.057-0.092-0.152-0.179-0.164-0.276
		c-0.148-1.154,0.48-1.9,1.404-2.398c1.33-0.72,2.668-0.559,3.818,0.373C-101.85,46.907-101.41,47.764-101.865,48.815z"/>
	<path fill-rule="evenodd" clip-rule="evenodd" fill="#EFB2D1" d="M-71.529,76.608c0,1.223-0.992,2.212-2.215,2.212h-79.283
		c-1.223,0-2.215-0.989-2.215-2.212V62.316c0-1.223,0.992-2.213,2.215-2.213h79.283c1.223,0,2.215,0.99,2.215,2.213V76.608z"/>
</g>
<g>
	<path fill-rule="evenodd" clip-rule="evenodd" fill="#EFB2D1" d="M71.168,0H0v75.352c0,6.309,5.283,11.422,11.803,11.422h59.365V0z
		"/>
	<g>
		
			<path fill-rule="evenodd" clip-rule="evenodd" fill="none" stroke="#E276AE" stroke-width="2.8772" stroke-linecap="round" stroke-linejoin="round" stroke-miterlimit="10" d="
			M28.752,34.729l-7.922-8.35l7.922-8.348"/>
		
			<path fill-rule="evenodd" clip-rule="evenodd" fill="none" stroke="#E276AE" stroke-width="2.8772" stroke-linecap="round" stroke-linejoin="round" stroke-miterlimit="10" d="
			M43.771,18.031l7.924,8.348l-7.924,8.35"/>
	</g>
	<path fill="#E376AE" d="M0,71.416v3.936c0,6.309,5.283,11.422,11.803,11.422h3.988V71.416H0z"/>
</g>
</svg>
