<?xml version="1.0" encoding="utf-8"?>
<!-- Generator: Adobe Illustrator 16.0.0, SVG Export Plug-In . SVG Version: 6.00 Build 0)  -->
<!DOCTYPE svg PUBLIC "-//W3C//DTD SVG 1.1//EN" "http://www.w3.org/Graphics/SVG/1.1/DTD/svg11.dtd">
<svg version="1.1" id="Layer_1" xmlns="http://www.w3.org/2000/svg" xmlns:xlink="http://www.w3.org/1999/xlink" x="0px" y="0px"
	 width="136.383px" height="94.695px" viewBox="0.565 0.566 136.383 94.695" enable-background="new 0.565 0.566 136.383 94.695"
	 xml:space="preserve">
<g>
	
		<path fill="#FFFFFF" stroke="#000000" stroke-width="3.5" stroke-linecap="round" stroke-linejoin="round" stroke-miterlimit="10" d="
		M135.198,86.065c0,4.113-3.332,7.445-7.445,7.445H9.76c-4.111,0-7.445-3.332-7.445-7.445V9.761c0-4.111,3.334-7.445,7.445-7.445
		h117.991c4.113,0,7.445,3.334,7.445,7.445L135.198,86.065L135.198,86.065z"/>
	<g>
		<path fill="#FFFFFF" stroke="#000000" stroke-width="1.9419" stroke-miterlimit="10" d="M85.416,80.417
			c0-0.066-0.023-0.119-0.061-0.174h0.425c0.627,0,1.135-0.602,1.135-1.344V31.511c0-0.65-0.193-1.285-0.511-1.818
			c-0.279-0.475-0.646-0.893-1.019-1.336c-0.664-0.795-1.333-1.59-2.003-2.383c-0.159-0.189-0.322-0.379-0.483-0.568
			c-0.404-0.482-1.063-0.482-1.468,0c0,0-2.816,3.334-3.447,4.084v-7.568c0-1.109-0.389-2.191-1.021-3.094
			c-0.567-0.807-1.307-1.523-2.054-2.273c-1.342-1.354-2.688-2.707-4.038-4.055c-0.324-0.324-0.65-0.645-0.973-0.971
			c-0.818-0.814-2.143-0.814-2.957,0c0,0-7.188,7.191-7.202,7.203c-0.801,0.803-1.032,2.098-1.032,3.189v7.574
			c-0.26-0.396-0.57-0.76-0.889-1.139c-0.667-0.795-1.334-1.59-2.005-2.383c-0.16-0.189-0.321-0.379-0.483-0.568
			c-0.402-0.482-1.063-0.482-1.468,0c0,0-3.565,4.227-3.572,4.234c-0.398,0.469-0.512,1.232-0.512,1.871v47.389
			c0,0.742,0.508,1.344,1.133,1.344h0.425c-0.037,0.055-0.06,0.107-0.06,0.174l-1.714,2.869c0,0.221,0.257,0.398,0.569,0.398h8.855
			c0.314,0,0.571-0.179,0.571-0.398l-1.714-2.869c0-0.066-0.025-0.119-0.062-0.174h0.426c0.627,0,1.135-0.602,1.135-1.344v-1.988
			c0.417,0.436,0.996,0.707,1.646,0.707h14.709c0.647,0,1.229-0.271,1.646-0.705v1.986c0,0.742,0.508,1.344,1.133,1.344h0.428
			c-0.035,0.055-0.059,0.107-0.059,0.174l-1.716,2.869c0,0.221,0.255,0.398,0.569,0.398h8.856c0.313,0,0.569-0.179,0.569-0.398
			L85.416,80.417z"/>
		<path fill="#FBDE52" stroke="#000000" stroke-width="1.9419" stroke-miterlimit="10" d="M91.806,68.755
			c-0.386-4.184-5.043-6.941-5.043-6.941c-7.525-4.381-11.807-12.377-11.807-12.377l-0.062-11.339c0-0.777-0.252-1.531-0.661-2.162
			c-0.364-0.564-0.84-1.066-1.321-1.59c-0.867-0.945-1.731-1.885-2.603-2.828c-0.209-0.227-0.42-0.451-0.628-0.678
			c-0.525-0.568-1.377-0.568-1.905,0c0,0-4.633,5.02-4.642,5.029c-0.515,0.561-0.664,1.463-0.664,2.229v11.49
			c-0.621,1.102-4.8,8.195-11.724,12.227c0,0-4.658,2.758-5.045,6.941l0,0v1.955l16.769,2.082v2.588
			c0,0.881,0.657,1.594,1.474,1.594h3.263c0.147,1.035,1.068,1.764,1.475,1.764c0.407,0,1.329-0.729,1.478-1.764h3.263
			c0.813,0,1.475-0.713,1.475-1.594v-2.57l0.041-0.004l16.871-2.096v-1.955H91.806z"/>
	</g>
</g>
</svg>
