<?xml version="1.0" encoding="utf-8"?>
<!-- Generator: Adobe Illustrator 16.0.0, SVG Export Plug-In . SVG Version: 6.00 Build 0)  -->
<!DOCTYPE svg PUBLIC "-//W3C//DTD SVG 1.1//EN" "http://www.w3.org/Graphics/SVG/1.1/DTD/svg11.dtd">
<svg version="1.1" xmlns="http://www.w3.org/2000/svg" xmlns:xlink="http://www.w3.org/1999/xlink" x="0px" y="0px"
	 width="98.332px" height="98.332px" viewBox="0 0 98.332 98.332" enable-background="new 0 0 98.332 98.332" xml:space="preserve">
<g id="Layer_1">
	<g>
		
			<circle fill="#262626" stroke="#000000" stroke-width="5.1393" stroke-linecap="round" stroke-linejoin="round" stroke-miterlimit="10" cx="49.166" cy="49.167" r="46.597"/>
		<g>
			<path fill-rule="evenodd" clip-rule="evenodd" fill="#FFFFFF" d="M51.069,73.376c0,2.225-0.018,4.451,0.006,6.676
				c0.018,1.879-0.826,2.822-2.756,2.727c-12.068-0.6-21.365-5.986-27.9-16.143c-0.947-1.469-0.691-2.664,0.873-3.557
				c3.863-2.201,7.73-4.395,11.563-6.65c1.637-0.965,2.758-0.633,3.799,0.928c2.799,4.197,6.748,6.49,11.811,6.695
				c1.975,0.082,2.641,1.111,2.613,2.914C51.048,69.103,51.071,71.239,51.069,73.376z"/>
			<path fill-rule="evenodd" clip-rule="evenodd" fill="#FFFFFF" d="M47.313,25.005c-0.002-2.311,0.045-4.623-0.018-6.932
				c-0.053-1.879,0.947-2.605,2.631-2.52c12.135,0.621,21.512,6.016,28.043,16.291c0.898,1.412,0.561,2.502-0.869,3.326
				c-4,2.305-8.01,4.596-11.98,6.951c-1.354,0.803-2.35,0.549-3.156-0.709c-2.961-4.605-7.203-6.891-12.631-7.322
				c-0.725-0.057-1.832-1.346-1.926-2.164C47.142,29.647,47.315,27.317,47.313,25.005z"/>
			<path fill-rule="evenodd" clip-rule="evenodd" fill="#FFFFFF" d="M49.183,40.423c5.014,0.049,9.035,4.111,8.875,8.967
				c-0.156,4.666-4.361,8.727-8.98,8.67c-4.91-0.061-8.865-4.188-8.762-9.139C40.419,44.054,44.255,40.376,49.183,40.423z"/>
		</g>
	</g>
</g>
<g id="Layer_2">
</g>
<g id="Layer_3">
</g>
</svg>
