<?xml version="1.0" encoding="utf-8"?>
<!-- Generator: Adobe Illustrator 16.0.0, SVG Export Plug-In . SVG Version: 6.00 Build 0)  -->
<!DOCTYPE svg PUBLIC "-//W3C//DTD SVG 1.1//EN" "http://www.w3.org/Graphics/SVG/1.1/DTD/svg11.dtd">
<svg version="1.1" id="Layer_1" xmlns="http://www.w3.org/2000/svg" xmlns:xlink="http://www.w3.org/1999/xlink" x="0px" y="0px"
	 width="66.301px" height="62.613px" viewBox="68.284 -50.197 66.301 62.613" enable-background="new 68.284 -50.197 66.301 62.613"
	 xml:space="preserve">
<g>
	<g>
		
			<path fill="#FFFFFF" stroke="#000000" stroke-width="2.7079" stroke-linecap="round" stroke-linejoin="round" stroke-miterlimit="10" d="
			M129.669-48.842H73.2c-1.967,0-3.563,1.598-3.563,3.563v36.518c0,1.967,1.598,3.564,3.563,3.564h24.688V6.427
			c-6.235,0.275-12.144,1.188-12.144,2.271c0,1.309,7.514,2.363,15.688,2.363c8.176,0,15.688-1.059,15.688-2.363
			c0-1.084-5.463-1.996-11.697-2.271V-5.202h24.246c1.967,0,3.563-1.596,3.563-3.563V-45.28
			C133.232-47.247,131.636-48.842,129.669-48.842z"/>
		<g>
			<path fill="#FADE52" d="M125.247-43.384h-3.525H77.623c-1.442,0-2.608,1.097-2.608,2.448v24.422v2.67
				c0,1.354,1.166,2.448,2.608,2.448h47.624c1.44,0,2.607-1.095,2.607-2.448v-27.092C127.855-42.288,126.688-43.384,125.247-43.384z
				"/>
			<path fill="none" stroke="#231F20" stroke-width="3" stroke-miterlimit="10" d="M125.247-43.384h-3.525H77.623
				c-1.442,0-2.608,1.097-2.608,2.448v24.422v2.67c0,1.354,1.166,2.448,2.608,2.448h47.624c1.44,0,2.607-1.095,2.607-2.448v-27.092
				C127.855-42.288,126.688-43.384,125.247-43.384z"/>
		</g>
	</g>
	<g>
		<circle fill="#FFFFFF" cx="114.62" cy="-27.757" r="4.492"/>
		<circle fill="#D8D8D7" cx="87.363" cy="-27.757" r="4.492"/>
		<g>
			<path d="M87.659-33.311h-0.002c-1.979,0.004-3.82,1.071-4.811,2.787c-0.711,1.235,1.143,2.303,1.854,1.068
				c0.608-1.057,1.743-1.714,2.96-1.717c0.59-0.001,1.068-0.48,1.067-1.071C88.728-32.833,88.249-33.311,87.659-33.311z"/>
			<path d="M84.704-26.037c-0.295-0.512-0.949-0.685-1.461-0.39c-0.512,0.297-0.686,0.951-0.39,1.462
				c0.992,1.712,2.838,2.776,4.814,2.776c1.451,0,1.451-2.14,0-2.14C86.451-24.328,85.316-24.983,84.704-26.037z"/>
			<path d="M102.267-28.819h-5.295c-0.589,0-1.068,0.479-1.068,1.069c0,0.59,0.479,1.069,1.068,1.069h5.295
				c0.591,0,1.07-0.479,1.07-1.069C103.337-28.34,102.858-28.819,102.267-28.819z"/>
			<path d="M92.495-24.985c0.48-0.838,0.734-1.794,0.734-2.765c0-0.983-0.26-1.95-0.752-2.795c-0.299-0.511-0.951-0.685-1.463-0.387
				c-0.511,0.298-0.684,0.952-0.386,1.462c0.302,0.521,0.462,1.114,0.462,1.72c0,0.598-0.156,1.186-0.451,1.7
				C89.931-24.815,91.786-23.75,92.495-24.985z"/>
			<path d="M100.074-23.258c0,0.592,0.479,1.07,1.069,1.07h13.477c3.065,0,5.561-2.496,5.561-5.562c0-3.066-2.495-5.562-5.561-5.562
				h-7.487c-0.591,0-1.069,0.479-1.069,1.069s0.479,1.069,1.069,1.069h3.107c-0.529,0.677-1.183,1.856-1.183,3.423
				s0.653,2.746,1.183,3.422h-9.097C100.554-24.328,100.074-23.848,100.074-23.258z M114.62-31.172c1.887,0,3.422,1.536,3.422,3.423
				s-1.535,3.422-3.422,3.422c-1.515,0-3.423-1.19-3.423-3.422C111.198-29.982,113.106-31.172,114.62-31.172z"/>
		</g>
	</g>
</g>
</svg>
