<?xml version="1.0" encoding="utf-8"?>
<!-- Generator: Adobe Illustrator 16.0.0, SVG Export Plug-In . SVG Version: 6.00 Build 0)  -->
<!DOCTYPE svg PUBLIC "-//W3C//DTD SVG 1.1//EN" "http://www.w3.org/Graphics/SVG/1.1/DTD/svg11.dtd">
<svg version="1.1" id="Layer_1" xmlns="http://www.w3.org/2000/svg" xmlns:xlink="http://www.w3.org/1999/xlink" x="0px" y="0px"
	 width="137.513px" height="95.825px" viewBox="0 0 137.513 95.825" enable-background="new 0 0 137.513 95.825"
	 xml:space="preserve">
<g>
	
		<path fill="#FFFFFF" stroke="#000000" stroke-width="4.63" stroke-linecap="round" stroke-linejoin="round" stroke-miterlimit="10" d="
		M135.198,86.064c0,4.113-3.332,7.445-7.445,7.445H9.76c-4.111,0-7.445-3.332-7.445-7.445V9.76c0-4.111,3.334-7.445,7.445-7.445
		h117.992c4.113,0,7.445,3.334,7.445,7.445V86.064z"/>
	<g>
		<path fill-rule="evenodd" clip-rule="evenodd" fill="#4A494A" stroke="#000000" stroke-width="2.4085" stroke-miterlimit="10" d="
			M77.133,19.6c-0.197-0.355-0.426-0.695-0.704-0.994c-0.979-1.041-2.234-1.406-3.578-1.738c-1.282-0.316-2.565-0.641-3.849-0.951
			c-3.43-0.828-5.797,0.316-6.931,3.625c-0.081,0.416-0.161,0.832-0.241,1.248c3.416,0,6.831-0.004,10.248-0.004
			c1.836-0.004,3.671-0.006,5.506-0.012C77.598,20.773,77.186,19.699,77.133,19.6z"/>
		<path fill="#FFFFFF" stroke="#000000" stroke-width="2.3351" stroke-miterlimit="10" d="M94.408,73.189
			c0.001-0.383-0.002-0.762-0.004-1.131c-0.008-1.922,0-3.846,0.004-5.768c0.001-0.754,0.001-1.508,0-2.26
			c-0.013-5.582,0.018-16.494-0.001-22.074c-0.02-4.613-0.638-9.49-3.23-13.336c-2.025-3.008-4.597-5.674-7.935-6.928
			c-3.206-1.203-6.742-1.006-10.089-1.006c-5.564,0-11.129,0.008-16.694,0.008c-9.168,0-13.339,5.967-13.339,13.324V70.49v1.1
			l-0.021,3.285c0,2.941,1.983,5.328,4.869,5.328c1.183,0,2.271-0.406,3.147-1.082c1.031-0.797,1.762-1.971,1.995-3.324
			c0.242,1.412,1.026,2.631,2.128,3.428c0.854,0.613,1.892,0.979,3.014,0.979c1.369,0,2.61-0.541,3.543-1.42
			c0.822-0.775,1.397-1.814,1.598-2.986c0.201,1.172,0.777,2.211,1.6,2.986c0.932,0.879,2.174,1.42,3.543,1.42
			s2.611-0.541,3.543-1.42c0.821-0.775,1.396-1.814,1.599-2.986c0.201,1.172,0.778,2.211,1.599,2.986
			c0.932,0.879,2.173,1.42,3.543,1.42c1.084,0,2.091-0.336,2.925-0.91c1.149-0.795,1.968-2.043,2.218-3.496
			c0.278,1.621,1.27,2.992,2.639,3.754c0.743,0.416,1.596,0.652,2.502,0.652c1.527,0,3.027-0.705,3.992-1.891
			C94.245,76.9,94.395,74.988,94.408,73.189z"/>
		<path fill-rule="evenodd" clip-rule="evenodd" fill="#FBDF53" d="M64.918,31.316c0.029,1.182-0.975,2.186-2.186,2.189
			c-1.16,0.002-2.099-0.879-2.155-2.029c-0.06-1.184,0.899-2.244,2.048-2.266C63.78,29.189,64.893,30.213,64.918,31.316z"/>
		<path fill-rule="evenodd" clip-rule="evenodd" fill="#FBDF53" d="M85.663,33.506c-1.14,0.008-2.137-0.943-2.177-2.078
			c-0.044-1.211,0.896-2.197,2.112-2.219c1.229-0.02,2.231,0.967,2.207,2.178C87.788,32.512,86.79,33.496,85.663,33.506z"/>
		<path fill-rule="evenodd" clip-rule="evenodd" fill="#FBDF53" d="M52.831,47.947c0.021-1.387,0.039-2.77,0.068-4.154
			c0.072-3.314,2.615-5.908,5.947-5.92c9.445-0.035,18.893-0.031,28.34-0.002c3.333,0.01,5.893,2.566,5.948,5.906
			c0.035,2.051,0.188,4.111-0.211,6.148c-1.322,2.957-3.605,4.141-6.828,4.109c-8.947-0.09-17.896-0.057-26.842-0.018
			c-3.024,0.016-4.967-1.479-6.147-4.1C52.844,49.338,52.915,48.607,52.831,47.947z"/>
		<path fill-rule="evenodd" clip-rule="evenodd" fill="#4A494A" d="M90.522,45.566c0,0.244-0.199,0.443-0.443,0.443H59.704
			c-0.246,0-0.444-0.199-0.444-0.443l0,0c0-0.246,0.198-0.445,0.444-0.445h30.375C90.323,45.121,90.522,45.32,90.522,45.566
			L90.522,45.566z"/>
		
			<path fill-rule="evenodd" clip-rule="evenodd" fill="none" stroke="#FBDE52" stroke-width="1.0755" stroke-linecap="round" stroke-miterlimit="10" d="
			M56.981,55.762v5.719c0,2.656-2.303,4.807-5.146,4.807l0,0c-2.841,0-5.145-2.15-5.145-4.807v-5.719"/>
	</g>
</g>
</svg>
