<?xml version="1.0" encoding="utf-8"?>
<!-- Generator: Adobe Illustrator 16.0.0, SVG Export Plug-In . SVG Version: 6.00 Build 0)  -->
<!DOCTYPE svg PUBLIC "-//W3C//DTD SVG 1.1//EN" "http://www.w3.org/Graphics/SVG/1.1/DTD/svg11.dtd">
<svg version="1.1" id="Layer_1" xmlns="http://www.w3.org/2000/svg" xmlns:xlink="http://www.w3.org/1999/xlink" x="0px" y="0px"
	 width="136.383px" height="94.695px" viewBox="0.565 0.565 136.383 94.695" enable-background="new 0.565 0.565 136.383 94.695"
	 xml:space="preserve">
<g>
	
		<path fill="#FFFFFF" stroke="#000000" stroke-width="3.5" stroke-linecap="round" stroke-linejoin="round" stroke-miterlimit="10" d="
		M135.198,86.065c0,4.113-3.332,7.445-7.445,7.445H9.76c-4.111,0-7.445-3.332-7.445-7.445V9.76c0-4.111,3.334-7.445,7.445-7.445
		h117.991c4.113,0,7.445,3.334,7.445,7.445L135.198,86.065L135.198,86.065z"/>
	<g>
		
			<path fill="#FFFFFF" stroke="#000000" stroke-width="2.7079" stroke-linecap="round" stroke-linejoin="round" stroke-miterlimit="10" d="
			M96.99,17.959H40.522c-1.967,0-3.563,1.596-3.563,3.563V58.04c0,1.967,1.597,3.562,3.563,3.562H65.21v11.625
			c-6.236,0.278-12.144,1.19-12.144,2.274c0,1.306,7.514,2.363,15.688,2.363c8.176,0,15.688-1.059,15.688-2.363
			c0-1.084-5.463-1.996-11.699-2.274V61.6H96.99c1.967,0,3.563-1.594,3.563-3.561V21.522C100.553,19.555,98.957,17.959,96.99,17.959
			z"/>
		<g>
			<path fill="#E2C136" d="M91.902,22.834h-3.657v24.791c0,1.495-1.213,2.706-2.707,2.706H42.905v2.95
				c0,1.496,1.211,2.707,2.706,2.707h46.291c1.494,0,2.705-1.211,2.705-2.707v-27.74C94.607,24.047,93.396,22.834,91.902,22.834z"/>
			<path fill="#FBDF53" d="M88.245,47.625V22.834H45.611c-1.495,0-2.706,1.213-2.706,2.707v24.79h42.633
				C87.032,50.331,88.245,49.12,88.245,47.625z"/>
			<g>
				<path fill="none" stroke="#FFFFFF" stroke-width="2.4557" stroke-linecap="round" stroke-miterlimit="10" d="M54.459,26.321
					h-5.22c-1.103,0-1.994,0.984-1.994,2.199v4.91"/>
				<path fill="#FFFFFF" d="M48.633,37.094c0,0.732-0.592,1.324-1.323,1.324c-0.73,0-1.323-0.592-1.323-1.324
					c0-0.729,0.593-1.322,1.323-1.322C48.042,35.772,48.633,36.366,48.633,37.094z"/>
			</g>
		</g>
	</g>
</g>
</svg>
