<?xml version="1.0" encoding="utf-8"?>
<!-- Generator: Adobe Illustrator 16.0.0, SVG Export Plug-In . SVG Version: 6.00 Build 0)  -->
<!DOCTYPE svg PUBLIC "-//W3C//DTD SVG 1.1//EN" "http://www.w3.org/Graphics/SVG/1.1/DTD/svg11.dtd">
<svg version="1.1" id="Layer_1" xmlns="http://www.w3.org/2000/svg" xmlns:xlink="http://www.w3.org/1999/xlink" x="0px" y="0px"
	 width="137.516px" height="95.822px" viewBox="0 0 137.516 95.822" enable-background="new 0 0 137.516 95.822"
	 xml:space="preserve">
<g>
	
		<path fill="#FFFFFF" stroke="#000000" stroke-width="4.63" stroke-linecap="round" stroke-linejoin="round" stroke-miterlimit="10" d="
		M135.2,86.065c0,4.111-3.334,7.443-7.445,7.443H9.76c-4.111,0-7.445-3.332-7.445-7.443V9.76c0-4.113,3.334-7.445,7.445-7.445
		h117.993c4.111,0,7.445,3.332,7.445,7.445L135.2,86.065L135.2,86.065z"/>
	<g>
		<path fill="#FFFDF4" stroke="#000000" stroke-width="2.5888" stroke-miterlimit="10" d="M97.5,45.817
			c-1.735-8.17-7.522-15.78-14.94-19.604c-3.756-1.938-7.785-3.23-11.998-3.646c-4.064-0.403-8.201-0.022-12.152,1.207
			c-2.086,0.65-4.219,1.523-6.117,2.613c-5.36,3.082-9.86,7.746-12.184,13.518c-1.894,4.703-0.742,9.627-2.674,14.313
			c-0.398,0.969-0.963,1.828-1.244,2.828c-2.104,7.471,2.567,14.559,8.756,18.338c1.916,1.172,4.057,2.277,6.174,3.027
			c6.959,2.475,14.545,2.959,21.813,1.788c2.168-0.348,4.299-0.838,6.358-1.598c1.595-0.584,3.131-1.313,4.586-2.188
			c6.039-3.636,10.631-9.634,12.609-16.404C97.827,55.43,98.506,50.53,97.5,45.817z"/>
		<path fill="#F9C6D3" d="M65.852,57.42c0,0.328-0.267,0.592-0.592,0.592h-6.298c-0.325,0-0.592-0.264-0.592-0.592l0,0
			c0-0.326,0.267-0.592,0.592-0.592h6.298C65.586,56.829,65.852,57.094,65.852,57.42L65.852,57.42z"/>
		<g>
			<ellipse fill="#FEEEEE" cx="49.829" cy="56.133" rx="5.9" ry="4.611"/>
			<ellipse fill="#FEEEEE" cx="75.151" cy="56.133" rx="5.9" ry="4.611"/>
		</g>
		<g>
			<path d="M58.542,53.055c0,1.213-0.979,2.195-2.19,2.195s-2.193-0.982-2.193-2.195c0-1.209,0.982-2.188,2.193-2.188
				S58.542,51.846,58.542,53.055z"/>
			<path d="M71.147,53.055c0,1.213-0.982,2.195-2.191,2.195c-1.211,0-2.192-0.982-2.192-2.195c0-1.209,0.981-2.188,2.192-2.188
				C70.165,50.866,71.147,51.846,71.147,53.055z"/>
		</g>
		<path fill="#3A3A3A" stroke="#000000" stroke-width="2.5888" stroke-miterlimit="10" d="M83.045,16.442
			c-5.586-2.114-11.78-2.801-17.696-2.241c-5.267,0.497-10.814,1.481-15.488,4.075c-7.26,4.031-12.99,11.213-14.019,19.658
			c0,0-0.995,6.627,0.25,9.76h8.314l2.205-7.659l0.371,7.303h21.863l0.914-9.76l0.581,9.85L86.265,47.4
			c-0.009,2.174,0.463,4.838,0.485,4.978c-0.129-0.724,1.566-1.31,2.043-1.48c1.771-0.635,4.595,0.086,5.648,1.787
			c2.346,3.783-0.426,8.726-3.9,10.691l-1.196,0.678l-0.625,0.471c0,0-1.9,9.877-1.902,9.886c0.121-0.576,11.986-3.998,14.83-22.058
			c0.363-2.297,0.486-4.692,0.342-7.018c-0.135-2.209-0.494-4.41-0.969-6.57C98.934,29.252,92.319,19.958,83.045,16.442z"/>
	</g>
</g>
</svg>
