<?xml version="1.0" encoding="utf-8"?>
<!-- Generator: Adobe Illustrator 16.0.0, SVG Export Plug-In . SVG Version: 6.00 Build 0)  -->
<!DOCTYPE svg PUBLIC "-//W3C//DTD SVG 1.1//EN" "http://www.w3.org/Graphics/SVG/1.1/DTD/svg11.dtd">
<svg version="1.1" id="Layer_1" xmlns="http://www.w3.org/2000/svg" xmlns:xlink="http://www.w3.org/1999/xlink" x="0px" y="0px"
	 width="86.776px" height="78.467px" viewBox="0 0 86.776 78.467" enable-background="new 0 0 86.776 78.467" xml:space="preserve">
<g>
	<path fill="#948EC5" d="M86.776,49.768c0,2.645-1.942,4.786-4.339,4.786H4.339C1.942,54.554,0,52.412,0,49.768V4.784
		C0,2.143,1.942,0,4.339,0h78.099c2.397,0,4.339,2.143,4.339,4.784V49.768z"/>
	<rect x="40.118" y="52.958" fill="#948EC5" width="7.179" height="22.331"/>
	<ellipse fill="#948EC5" cx="43.149" cy="75.131" rx="23.608" ry="3.336"/>
	<path fill="#F0AECE" d="M76.389,5.91h-5.557v29.078c0,2.504-2.032,4.534-4.536,4.534H6.989v5.371c0,2.069,1.522,3.748,3.399,3.748
		h66.001c1.876,0,3.398-1.679,3.398-3.748V9.658C79.788,7.589,78.266,5.91,76.389,5.91z"/>
	<path fill="#FBD8E7" d="M70.833,34.988V5.91H10.388c-1.877,0-3.399,1.679-3.399,3.748v29.864h59.307
		C68.801,39.522,70.833,37.492,70.833,34.988z"/>
	<g>
		<path fill="none" stroke="#FFFFFF" stroke-width="4.1875" stroke-linecap="round" stroke-miterlimit="10" d="M25.312,11.148H16.41
			c-1.878,0-3.399,1.678-3.399,3.748v8.377"/>
		<circle fill="#FFFFFF" cx="13.12" cy="29.521" r="2.257"/>
	</g>
</g>
<g>
	<g>
		<path fill="#F0AECE" d="M555.375-358.326c-0.285-0.484-0.658-0.91-1.034-1.359c-0.678-0.809-1.356-1.617-2.037-2.422
			c-0.163-0.191-0.328-0.385-0.492-0.58c-0.41-0.486-1.078-0.486-1.49,0c0,0-3.626,4.297-3.631,4.303
			c-0.405,0.48-0.522,1.254-0.522,1.904v48.16c0,0.752,0.516,1.365,1.152,1.365h7.419c0.638,0,1.153-0.613,1.153-1.365v-48.16
			C555.892-357.141,555.695-357.789,555.375-358.326z"/>
		<path fill="#F0AECE" d="M556.109-302.818c0,0.225-0.26,0.404-0.58,0.404h-8.998c-0.32,0-0.58-0.18-0.58-0.404l1.74-2.918
			c0-0.225,0.261-0.404,0.581-0.404h5.516c0.319,0,0.58,0.18,0.58,0.404L556.109-302.818z"/>
	</g>
	<path fill="#F0AECE" d="M575.607-369.369c-0.577-0.82-1.328-1.551-2.086-2.313c-1.365-1.377-2.733-2.75-4.104-4.119
		c-0.329-0.33-0.661-0.656-0.99-0.986c-0.829-0.83-2.174-0.83-3.003,0c0,0-7.307,7.307-7.318,7.318
		c-0.814,0.816-1.051,2.133-1.051,3.242v54.281c0,1.281,1.04,2.322,2.322,2.322h14.949c1.281,0,2.321-1.041,2.321-2.322v-54.281
		C576.647-367.354,576.25-368.453,575.607-369.369z"/>
	<g>
		<path fill="#948EC5" d="M556.209-290.398c0,7.072-5.153,16.809-5.153,16.809s-5.152-9.736-5.152-16.809
			c0-7.074,2.307-8.807,5.152-8.807S556.209-297.473,556.209-290.398z"/>
		<path fill="#948EC5" d="M556.156-292.871c0.069,5.115-4.986,12.189-4.986,12.189s-5.248-7.008-5.317-12.121
			c-0.069-5.117,2.22-6.383,5.065-6.4C553.763-299.223,556.086-297.986,556.156-292.871z"/>
		<path fill="#948EC5" d="M554.451-294.555c0.051,3.738-3.303,8.906-3.303,8.906s-3.493-5.123-3.543-8.863
			c-0.051-3.736,1.469-4.662,3.359-4.674C552.855-299.199,554.399-298.293,554.451-294.555z"/>
		<path fill="#948EC5" d="M552.909-296.662c0.027,2.041-1.802,4.863-1.802,4.863s-1.907-2.797-1.935-4.838s0.802-2.545,1.834-2.551
			C552.038-299.195,552.881-298.701,552.909-296.662z"/>
	</g>
	<g>
		<path fill="#F0AECE" d="M587.498-358.326c-0.285-0.484-0.658-0.91-1.034-1.359c-0.678-0.809-1.356-1.617-2.037-2.422
			c-0.163-0.191-0.328-0.385-0.492-0.58c-0.41-0.486-1.078-0.486-1.49,0c0,0-3.626,4.297-3.631,4.303
			c-0.405,0.48-0.522,1.254-0.522,1.904v48.16c0,0.752,0.516,1.365,1.152,1.365h7.419c0.638,0,1.153-0.613,1.153-1.365v-48.16
			C588.015-357.141,587.818-357.789,587.498-358.326z"/>
		<path fill="#F0AECE" d="M588.232-302.818c0,0.225-0.26,0.404-0.58,0.404h-8.998c-0.321,0-0.58-0.18-0.58-0.404l1.742-2.918
			c0-0.225,0.259-0.404,0.579-0.404h5.515c0.32,0,0.582,0.18,0.582,0.404L588.232-302.818z"/>
	</g>
	<g>
		<path fill="#948EC5" d="M588.332-290.398c0,7.072-5.152,16.809-5.152,16.809s-5.151-9.736-5.151-16.809
			c0-7.074,2.306-8.807,5.151-8.807S588.332-297.473,588.332-290.398z"/>
		<path fill="#948EC5" d="M588.279-292.871c0.069,5.115-4.986,12.189-4.986,12.189s-5.247-7.008-5.316-12.121
			c-0.07-5.117,2.219-6.383,5.064-6.4C585.886-299.223,588.208-297.986,588.279-292.871z"/>
		<path fill="#948EC5" d="M586.573-294.555c0.052,3.738-3.302,8.906-3.302,8.906s-3.492-5.123-3.543-8.863
			c-0.051-3.736,1.469-4.662,3.359-4.674C584.978-299.199,586.522-298.293,586.573-294.555z"/>
		<path fill="#948EC5" d="M585.032-296.662c0.028,2.041-1.802,4.863-1.802,4.863s-1.907-2.797-1.935-4.838s0.801-2.545,1.834-2.551
			C584.161-299.195,585.003-298.701,585.032-296.662z"/>
	</g>
	<g>
		<path fill="#948EC5" d="M573.431-289.48c0,10.576-6.114,25.129-6.114,25.129s-6.115-14.553-6.115-25.129
			c0-10.572,2.737-13.16,6.115-13.16C570.694-302.641,573.431-300.053,573.431-289.48z"/>
		<path fill="#948EC5" d="M573.37-293.172c0.082,7.646-5.919,18.219-5.919,18.219s-6.229-10.473-6.311-18.119
			s2.634-9.539,6.012-9.568C570.529-302.668,573.287-300.816,573.37-293.172z"/>
		<path fill="#948EC5" d="M571.344-295.689c0.062,5.586-3.919,13.313-3.919,13.313s-4.145-7.658-4.205-13.246
			c-0.061-5.59,1.742-6.973,3.988-6.99C569.451-302.631,571.284-301.277,571.344-295.689z"/>
		<path fill="#948EC5" d="M569.514-298.838c0.034,3.049-2.138,7.266-2.138,7.266s-2.264-4.18-2.296-7.229
			c-0.032-3.051,0.95-3.807,2.177-3.816C568.482-302.627,569.482-301.889,569.514-298.838z"/>
	</g>
	<g>
		<path fill="#FBD8E7" d="M572.638-351.984c-0.371-0.574-0.855-1.082-1.344-1.615c-0.88-0.961-1.762-1.918-2.645-2.875
			c-0.213-0.23-0.426-0.459-0.639-0.689c-0.534-0.578-1.401-0.578-1.936,0c0,0-4.708,5.102-4.717,5.111
			c-0.523,0.568-0.676,1.486-0.676,2.264v37.891c0,0.895,0.67,1.621,1.496,1.621h3.316c0.151,1.051,1.086,1.791,1.5,1.791
			s1.35-0.74,1.501-1.791h3.316c0.825,0,1.497-0.727,1.497-1.621v-37.891C573.31-350.576,573.053-351.344,572.638-351.984z"/>
		<g>
			<path fill="#FBD8E7" d="M560.767-338.264c0,0-4.354,8.127-11.997,12.578c0,0-4.741,2.807-5.128,7.063h18.384l0.677-19.352
				L560.767-338.264z"/>
			<polyline fill="#FBD8E7" points="561.947,-314.371 560.787,-314.514 543.641,-316.645 543.641,-318.631 561.789,-318.631 
				561.789,-315.049 			"/>
		</g>
		<g>
			<path fill="#FBD8E7" d="M573.371-338.264c0,0,4.353,8.127,11.996,12.578c0,0,4.742,2.807,5.129,7.063h-18.384l-0.678-19.352
				L573.371-338.264z"/>
			<polyline fill="#FBD8E7" points="572.191,-314.371 573.351,-314.514 590.497,-316.645 590.497,-318.631 572.349,-318.631 
				572.349,-315.049 			"/>
		</g>
	</g>
</g>
<g>
	<path fill-rule="evenodd" clip-rule="evenodd" fill="#5D6AB2" d="M715.001-358.926c0.02-0.002-0.559-1.506-0.634-1.645
		c-0.274-0.498-0.596-0.975-0.985-1.393c-1.372-1.461-3.131-1.971-5.012-2.436c-1.797-0.445-3.596-0.898-5.393-1.332
		c-4.806-1.16-8.121,0.443-9.709,5.078c-0.113,0.582-0.227,1.164-0.34,1.746c4.786,0,9.571-0.002,14.357-0.004
		c0.17-1.271,0.679-2.48,0.939-3.734c0.047-0.23,0.086-0.459,0.113-0.691c-0.027,0.232-0.066,0.461-0.113,0.691
		c-0.261,1.254-0.77,2.463-0.939,3.734C709.859-358.916,712.43-358.92,715.001-358.926z"/>
	<path fill="#948EC5" d="M738.574-285.494c0-1.912,0-10.92-0.004-12.832c-0.018-7.818,0.025-23.105-0.002-30.922
		c-0.025-6.463-0.893-13.295-4.523-18.684c-2.838-4.215-6.443-7.949-11.117-9.705c-4.494-1.688-9.445-1.41-14.135-1.41
		c-7.796,0-15.592,0.014-23.389,0.014c-12.844,0-18.688,8.355-18.688,18.664v51.094v1.541l-0.029,4.602
		c0,4.123,2.78,7.465,6.822,7.465c1.658,0,3.183-0.568,4.41-1.516c1.444-1.115,2.469-2.762,2.794-4.656
		c0.339,1.977,1.438,3.686,2.983,4.801c1.193,0.861,2.646,1.371,4.22,1.371c1.918,0,3.659-0.758,4.965-1.988
		c1.15-1.086,1.957-2.541,2.239-4.184c0.281,1.643,1.088,3.098,2.238,4.184c1.306,1.23,3.047,1.988,4.965,1.988
		s3.658-0.758,4.964-1.988c1.151-1.086,1.958-2.541,2.239-4.184c0.282,1.643,1.088,3.098,2.239,4.184
		c1.306,1.23,3.046,1.988,4.964,1.988c1.518,0,2.928-0.471,4.098-1.275c1.611-1.113,2.758-2.863,3.105-4.896
		c0.391,2.271,1.779,4.191,3.697,5.26c1.041,0.582,2.236,0.912,3.506,0.912c4.043,0,7.32-3.342,7.32-7.465"/>
	<g>
		<path fill-rule="evenodd" clip-rule="evenodd" fill="#F3C5D2" d="M697.255-344.154c0.04,1.654-1.364,3.061-3.061,3.064
			c-1.627,0.002-2.939-1.232-3.021-2.842c-0.084-1.658,1.261-3.145,2.871-3.174C695.662-347.135,697.219-345.703,697.255-344.154z"
			/>
		<path fill-rule="evenodd" clip-rule="evenodd" fill="#F3C5D2" d="M726.316-341.09c-1.596,0.012-2.992-1.32-3.049-2.91
			c-0.061-1.697,1.254-3.08,2.959-3.107c1.723-0.029,3.127,1.354,3.094,3.051C729.292-342.48,727.896-341.104,726.316-341.09z"/>
	</g>
	<path fill-rule="evenodd" clip-rule="evenodd" fill="#F3C5D2" d="M681.291-320.857c0.031-1.941,0.054-3.879,0.095-5.818
		c0.101-4.645,3.665-8.279,8.333-8.295c13.232-0.047,26.467-0.043,39.701-0.002c4.672,0.014,8.258,3.596,8.336,8.273
		c0.049,2.873,0.264,5.76-0.295,8.613c-1.854,4.143-5.053,5.803-9.568,5.758c-12.534-0.125-25.07-0.078-37.605-0.023
		c-4.236,0.02-6.955-2.072-8.611-5.744C681.308-318.91,681.407-319.932,681.291-320.857z"/>
	<path fill-rule="evenodd" clip-rule="evenodd" fill="#D8829D" d="M734.095-324.193c0,0.344-0.279,0.621-0.621,0.621h-42.555
		c-0.344,0-0.622-0.277-0.622-0.621l0,0c0-0.344,0.278-0.623,0.622-0.623h42.555C733.816-324.816,734.095-324.537,734.095-324.193
		L734.095-324.193z"/>
	
		<path fill-rule="evenodd" clip-rule="evenodd" fill="none" stroke="#F3C5D2" stroke-width="1.5067" stroke-linecap="round" stroke-miterlimit="10" d="
		M686.136-309.91v8.012c0,3.723-3.229,6.736-7.209,6.736l0,0c-3.981,0-7.208-3.014-7.208-6.736v-8.012"/>
</g>
<g>
	<path fill-rule="evenodd" clip-rule="evenodd" fill="#948EC5" d="M826.248-345.117c-3.125,0.636-4.879,3.553-3.984,6.629
		c-0.582,0.225-1.17,0.438-1.746,0.678c-5.09,2.12-10.158,4.285-15.271,6.344c-1.287,0.519-2.494,1.291-3.912,1.471
		c-1.635-4.576-0.711-8.707,2.297-12.397c2.889-3.542,6.74-5.776,10.848-7.604c6.334-2.817,13.014-4.4,19.826-5.523
		c8.615-1.42,17.293-1.837,26.006-1.571c10.275,0.311,20.41,1.587,30.193,4.929c4.447,1.52,8.684,3.48,12.299,6.568
		c3.494,2.984,5.725,6.619,5.574,11.387c-0.045,1.43-0.227,2.859-0.834,4.191c-0.811-0.118-1.561-0.424-2.305-0.737
		c-1.391-0.583-2.768-1.192-4.156-1.769c-4.82-1.998-9.643-3.985-14.463-5.979c1.02-3.408-0.264-5.787-3.885-7.203
		c-0.012-0.146-0.043-0.294-0.031-0.44c0.162-2.298-1.063-3.841-2.971-4.708c-1.912-0.869-3.924-0.808-5.766,0.469
		c-0.637,0.439-0.973,1.193-1.693,1.527c-0.258-0.011-0.52,0.005-0.77-0.034c-4.119-0.622-8.26-0.965-12.424-1.063
		c-6.16-0.146-12.301,0.1-18.408,0.906c-1.313,0.176-2.713,0.092-3.914,0.834c-0.063-0.037-0.156-0.063-0.182-0.117
		c-1.398-3.012-5.145-4.045-7.93-2.217C826.658-349.244,826.037-347.373,826.248-345.117z"/>
	<path fill-rule="evenodd" clip-rule="evenodd" fill="#948EC5" d="M888.705-304.435c-0.363,0.365-0.826,0.252-1.258,0.252
		c-21.977,0.005-43.951,0.005-65.928,0c-0.43,0-0.896,0.116-1.266-0.233c4.406-4.86,7.174-10.733,10.191-16.453
		c1.799-3.417,3.676-6.805,6.115-9.816c1.564-1.928,3.301-3.719,5.371-5.107c0.639-0.43,1.301-0.82,1.98-1.176
		c2.246-1.172,4.625-2.059,7.211-2.254c2.83-0.213,5.664-0.371,8.451,0.253c4.225,0.946,7.867,2.98,10.92,6.082
		c0.771,0.784,1.293,1.805,2.268,2.392c1.088,1.695,2.266,3.34,3.244,5.094c2.078,3.719,4.055,7.494,6.07,11.248
		C883.943-310.68,886.078-307.389,888.705-304.435z M872.896-317.143c0.602-0.15,1.23,0.58,1.451-0.591
		c0.721-1.872,1.801-3.424,1.314-5.544c0.242-0.619-0.16-0.643-0.6-0.68c-1.166-0.097-2.328-0.216-3.492-0.326
		c-0.447-3.717-2.119-6.783-4.947-9.211c-5.92-5.081-15.23-5.813-21.9-1.709c-3.85,2.368-6.613,16.077-6.523,16.438
		c0.611,2.438,1.211,3.557,2.969,5.376c5.143,5.331,13.305,8.247,20.338,5.415c5.203-2.097,8.807-5.658,9.916-11.36
		c0.779,0.122,1.117,0.556,1.02,1.354c-0.039,0.316,0.338,0.256,0.354,0.578C872.746-317.164,872.714-317.08,872.896-317.143z"/>
	<path fill-rule="evenodd" clip-rule="evenodd" fill="#5D6AB2" d="M872.761-330.496c-0.975-0.587-1.496-1.607-2.268-2.392
		c-3.053-3.102-6.695-5.136-10.92-6.082c-2.787-0.624-5.621-0.466-8.451-0.253c-2.586,0.195-4.965,1.082-7.211,2.254
		c-2.35,1.227-4.439,2.865-6.152,4.928c-0.473,0.567-0.945,1.128-1.566,1.542c-1.543-0.001-3.09,0.022-4.633-0.007
		c-2.975-0.059-5.297-2.383-5.318-5.346c-0.021-3.088,0.002-6.176,0.006-9.266c-0.211-2.256,0.41-4.127,2.398-5.432
		c2.785-1.828,6.531-0.795,7.93,2.217c0.025,0.055,0.119,0.08,0.182,0.117c0.646,1.832,0.346,3.731,0.332,5.598
		c-0.008,1.051,0.328,1.258,1.309,1.254c9.367-0.036,18.736-0.021,28.104-0.021c1.512,0,3.025-0.002,4.537,0
		c0.416,0.002,0.811,0.045,0.813-0.585c0.01-2.303-0.172-4.62,0.422-6.888c0.721-0.334,1.057-1.088,1.693-1.527
		c1.842-1.276,3.854-1.338,5.766-0.469c1.908,0.867,3.133,2.41,2.971,4.708c-0.012,0.146,0.02,0.294,0.031,0.44
		c0,3.206,0.012,6.414-0.006,9.62c-0.02,3.288-2.275,5.55-5.543,5.583C875.71-330.486,874.236-330.498,872.761-330.496z"/>
	<path fill-rule="evenodd" clip-rule="evenodd" fill="#948EC5" d="M801.333-329.996c1.418-0.18,2.625-0.952,3.912-1.471
		c5.113-2.059,10.182-4.224,15.271-6.344c0.576-0.24,1.164-0.453,1.746-0.678c0.648,1.363,1.084,2.81,1.453,4.258
		c0.469,1.84-0.475,3.693-2.244,4.442c-4.49,1.903-9.002,3.764-13.527,5.585c-1.684,0.677-3.584-0.012-4.586-1.658
		C802.566-327.17,801.855-328.541,801.333-329.996z"/>
	<path fill-rule="evenodd" clip-rule="evenodd" fill="#948EC5" d="M886.619-338.502c4.82,1.993,9.643,3.98,14.463,5.979
		c1.389,0.576,2.766,1.186,4.156,1.769c0.744,0.313,1.494,0.619,2.305,0.737c-0.514,1.459-1.215,2.838-2.023,4.14
		c-1.113,1.796-3.041,2.331-4.998,1.528c-4.211-1.73-8.422-3.461-12.625-5.211c-2.488-1.037-3.375-2.993-2.494-5.531
		C885.796-336.231,886.033-337.43,886.619-338.502z"/>
	<path fill-rule="evenodd" clip-rule="evenodd" fill="#E376AE" d="M819.052-285.751c5.377-0.003,10.754-0.006,16.131-0.007
		c0.084,0.85-0.191,1.178-1.148,1.165c-4.598-0.06-9.197-0.06-13.797,0C819.291-284.581,818.996-284.899,819.052-285.751z"/>
	<path fill-rule="evenodd" clip-rule="evenodd" fill="#E376AE" d="M873.783-285.764c5.379,0.006,10.762,0.01,16.141,0.016
		c0.066,0.866-0.258,1.166-1.191,1.154c-4.604-0.056-9.207-0.059-13.809,0.001C873.957-284.579,873.695-284.916,873.783-285.764z"/>
	<path fill-rule="evenodd" clip-rule="evenodd" fill="#F0AECE" d="M837.376-322.529c0.117,0.18,0.693,3.087,0.764,3.283
		c1.986,5.457,5.9,8.697,11.361,10.07c6.971,1.756,13.213,0.274,18.377-4.891c1.498-1.495,2.639-3.426,3.146-5.527
		c0.145,0.042,0.252,0.217,0.396,0.259c-1.109,5.702-4.713,9.264-9.916,11.36c-7.033,2.832-15.244,1.089-20.387-4.242
		c-1.756-1.82-2.854-3.999-3.467-6.437C837.56-319.016,837.234-322.169,837.376-322.529z"/>
	<path fill-rule="evenodd" clip-rule="evenodd" fill="#E5E3E2" d="M864.375-324.686c2.398,0.134,4.797,0.269,7.195,0.402
		c1.164,0.11,2.326,0.229,3.492,0.326c0.439,0.037,0.842,0.061,0.6,0.68c-0.438,1.102-0.877,2.204-1.314,3.306
		c-1.283-0.234-2.369-0.954-3.516-1.5C868.662-322.502,866.41-323.381,864.375-324.686z"/>
	<path fill-rule="evenodd" clip-rule="evenodd" fill="#97928F" d="M874.265-317.012c-0.313-0.824,0.063-2.121,0.082-2.96
		c0.438-1.102,0.949-2.56,1.387-3.661C876.22-321.512,874.986-318.883,874.265-317.012z"/>
	<path fill-rule="evenodd" clip-rule="evenodd" fill="#C9C9C9" d="M874.347-319.972c-1.283-0.234-2.369-0.954-3.516-1.5
		c-2.17-1.03-4.422-1.909-6.457-3.214c-0.568,1.111-0.408,1.634,0.584,2.146c1.543,0.796,3.143,1.479,4.67,2.304
		c0.492,0.266,2.516,1.141,2.646,1.719c0.1,0.447,0.006,0.945,0.203,1.373c0.107,0.232,0.285,0.369,0.549,0.398
		c0.398,0.042,0.938,0.063,1.238-0.266C874.333-317.086,874.328-319.133,874.347-319.972z"/>
	<path fill-rule="evenodd" clip-rule="evenodd" fill="#5D6AB2" d="M847.886-316.113c-0.268,1.189-1.234,1.984-2.592,2.131
		c-1.389,0.15-2.637-0.568-3.285-1.89c0.443-0.769,1.098-1.265,1.938-1.541C845.585-317.954,846.791-317.206,847.886-316.113z"/>
	<path fill-rule="evenodd" clip-rule="evenodd" fill="#5D6AB2" d="M860.417-312.588c-0.18,1.287-1.227,2.143-2.705,2.207
		c-1.535,0.068-2.867-0.771-3.131-1.975c0.641-0.918,1.5-1.438,2.625-1.574C858.55-314.094,859.48-313.354,860.417-312.588z"/>
	<path fill-rule="evenodd" clip-rule="evenodd" fill="#5D6AB2" d="M846.453-327.188c-0.217,1.318-1.4,2.188-2.951,2.166
		c-1.488-0.019-2.646-0.896-2.852-2.158C842.82-329.07,844.47-329.072,846.453-327.188z"/>
	<path fill-rule="evenodd" clip-rule="evenodd" fill="#5D6AB2" d="M851.572-332.76c0.008-0.14,0.018-0.277,0.023-0.416
		c0.588-0.352,1.061-0.869,1.723-1.12c1.73-0.655,3.613,0.19,3.994,1.825c-1.449,2.096-4.182,2.094-5.652-0.004
		C851.63-332.569,851.603-332.664,851.572-332.76z"/>
	<path fill-rule="evenodd" clip-rule="evenodd" fill="#5D6AB2" d="M845.322-321.431c-0.344,1.335-1.395,2.057-2.975,2.04
		c-1.523-0.017-2.543-0.746-2.857-2.043C841.386-323.461,843.447-323.459,845.322-321.431z"/>
	<path fill-rule="evenodd" clip-rule="evenodd" fill="#5D6AB2" d="M866.326-315.452c-0.531,1.55-1.795,2.269-3.531,2.012
		c-1.348-0.2-2.191-1.029-2.277-2.238C863.056-317.481,864.486-317.426,866.326-315.452z"/>
	<path fill-rule="evenodd" clip-rule="evenodd" fill="#5D6AB2" d="M853.451-312.564c-0.391,1.248-1.361,1.782-2.549,1.919
		c-1.436,0.167-2.572-0.387-3.309-1.671c-0.004-0.104-0.01-0.207-0.016-0.311c0.033-0.128,0.066-0.256,0.098-0.385
		c0.182-0.114,0.371-0.221,0.545-0.346C850.103-314.689,852.042-314.396,853.451-312.564z"/>
	<path fill-rule="evenodd" clip-rule="evenodd" fill="#5D6AB2" d="M863.792-331.592c0.066,0.254,0.098,0.502-0.053,0.744
		c-0.611,0.984-1.508,1.452-2.654,1.49c-1.174,0.041-2.158-0.322-2.859-1.311c-0.205-0.292-0.205-0.619-0.176-0.951
		c0.537-0.172,0.82-0.688,1.338-0.924C861.117-333.335,862.494-332.682,863.792-331.592z"/>
	<path fill-rule="evenodd" clip-rule="evenodd" fill="#5D6AB2" d="M845.531-330.074c-0.01-0.532-0.664-0.908-0.371-1.516
		c2.207-1.805,3.906-1.488,5.729-0.027c-0.098,1.793-2.186,2.826-4.186,2.06c-0.4-0.154-0.789-0.349-1.184-0.523L845.531-330.074z"
		/>
	<path fill-rule="evenodd" clip-rule="evenodd" fill="#F0AECE" d="M847.886-316.113c-1.096-1.093-2.301-1.841-3.939-1.3
		c-0.84,0.276-1.494,0.772-1.938,1.541c-0.469-1.122-0.068-2.002,0.787-2.731c1.057-0.9,2.268-0.99,3.506-0.511
		c1.031,0.399,1.631,1.218,1.816,2.31C848.164-316.548,848.126-316.287,847.886-316.113z"/>
	<path fill-rule="evenodd" clip-rule="evenodd" fill="#F0AECE" d="M850.888-331.617c-1.822-1.461-3.521-1.777-5.729,0.027
		c-0.576-0.457-0.223-0.992-0.012-1.393c0.572-1.09,1.545-1.665,2.773-1.705c1.227-0.04,2.232,0.443,2.877,1.515
		C851.083-332.697,851.248-332.158,850.888-331.617z"/>
	<path fill-rule="evenodd" clip-rule="evenodd" fill="#F0AECE" d="M845.322-321.431c-1.875-2.028-3.936-2.03-5.832-0.003
		c-0.445-1.552,0.441-2.866,2.195-3.251C843.923-325.174,845.894-323.412,845.322-321.431z"/>
	<path fill-rule="evenodd" clip-rule="evenodd" fill="#F0AECE" d="M853.451-312.564c-1.408-1.832-3.348-2.125-5.23-0.793
		c-0.174,0.125-0.363,0.231-0.545,0.346c-0.207-0.041-0.346-0.17-0.318-0.378c0.143-1.067,0.682-1.842,1.684-2.287
		c1.186-0.526,2.869-0.33,3.736,0.541C853.476-314.434,853.976-313.617,853.451-312.564z"/>
	<path fill-rule="evenodd" clip-rule="evenodd" fill="#F0AECE" d="M863.792-331.592c-1.299-1.09-2.676-1.743-4.404-0.951
		c-0.518,0.236-0.801,0.752-1.338,0.924c-0.449-1.682,0.994-3.145,3.049-3.084c1.381,0.039,2.531,0.898,2.861,2.131
		C864.054-332.217,864.197-331.86,863.792-331.592z"/>
	<path fill-rule="evenodd" clip-rule="evenodd" fill="#F0AECE" d="M846.453-327.188c-1.982-1.885-3.633-1.883-5.803,0.008
		c-0.482-1.396,0.58-2.922,2.16-3.119c0.924-0.115,1.818,0.078,2.721,0.225l-0.012-0.007c0.25,0.64,0.928,1.021,1.045,1.74
		C846.628-327.947,846.728-327.549,846.453-327.188z"/>
	<path fill-rule="evenodd" clip-rule="evenodd" fill="#F0AECE" d="M866.326-315.452c-1.84-1.974-3.27-2.029-5.809-0.227
		c-0.057-0.092-0.152-0.179-0.164-0.276c-0.148-1.154,0.48-1.9,1.404-2.398c1.33-0.72,2.668-0.559,3.818,0.373
		C866.341-317.36,866.781-316.504,866.326-315.452z"/>
	<path fill-rule="evenodd" clip-rule="evenodd" fill="#F0AECE" d="M860.417-312.588c-0.938-0.766-1.867-1.506-3.211-1.342
		c-1.125,0.136-1.984,0.656-2.625,1.574c-0.424-0.706-0.148-1.351,0.209-1.963c0.723-1.239,2.568-1.791,4.006-1.221
		C860.082-315.029,860.72-313.865,860.417-312.588z"/>
	<path fill-rule="evenodd" clip-rule="evenodd" fill="#F0AECE" d="M857.312-332.471c-0.381-1.635-2.264-2.48-3.994-1.825
		c-0.662,0.251-1.135,0.769-1.723,1.12c-0.402-1.98,1.619-3.595,3.756-2.998C857.185-335.663,857.869-334.37,857.312-332.471z"/>
	<path fill-rule="evenodd" clip-rule="evenodd" fill="#AC6F42" d="M851.572-332.76c0.031,0.096,0.059,0.19,0.088,0.285
		C851.531-332.539,851.482-332.629,851.572-332.76z"/>
	<path fill-rule="evenodd" clip-rule="evenodd" fill="#FBD8E7" d="M864.375-324.686c2.398,0.134,4.797,0.269,7.195,0.402
		c-0.447-3.717-2.119-6.783-4.947-9.211c-5.92-5.081-15.23-5.813-21.9-1.709c-1.6,0.984-3.107,2.185-4.283,3.656
		c-1.156,1.445-2.094,3.113-2.566,4.91c-0.656,2.505-0.734,5.119,0.205,7.564c0.227,0.587,0.469,1.168,0.742,1.735
		c0.498,1.03,1.105,2.005,1.84,2.883c1.406,1.681,3.209,3.058,5.193,3.985c1.158,0.539,2.408,0.981,3.648,1.293
		c6.971,1.756,13.213,0.274,18.377-4.891c1.498-1.495,2.65-3.418,3.158-5.521c-1.926-1.188-4.072-1.919-6.078-2.953
		C863.966-323.052,863.806-323.574,864.375-324.686z M861.099-334.703c1.381,0.039,2.531,0.898,2.861,2.131
		c0.094,0.355,0.236,0.712-0.168,0.98c0.066,0.254,0.098,0.502-0.053,0.744c-0.611,0.984-1.508,1.452-2.654,1.49
		c-1.174,0.041-2.158-0.322-2.859-1.311c-0.205-0.292-0.205-0.619-0.176-0.951C857.601-333.301,859.044-334.764,861.099-334.703z
		 M855.351-336.174c1.834,0.511,2.518,1.804,1.961,3.703c-1.449,2.096-4.182,2.094-5.652-0.004
		c-0.129-0.064-0.178-0.154-0.088-0.285c0.008-0.14,0.018-0.277,0.023-0.416C851.193-335.156,853.214-336.771,855.351-336.174z
		 M842.81-330.299c0.92-0.114,1.814,0.078,2.711,0.225c0,0,0-0.005-0.002-0.007c0.004,0.002,0.008,0.003,0.01,0.005
		c-0.012-0.532-0.662-0.908-0.369-1.514c-0.576-0.457-0.223-0.992-0.012-1.393c0.572-1.09,1.545-1.665,2.773-1.705
		c1.227-0.04,2.232,0.443,2.877,1.515c0.285,0.476,0.449,1.015,0.09,1.556c-0.098,1.793-2.186,2.826-4.186,2.06
		c-0.398-0.153-0.783-0.345-1.174-0.519l0.002,0.002c-0.004,0-0.006,0-0.01,0c0.254,0.635,0.928,1.018,1.043,1.733
		c0.064,0.394,0.164,0.792-0.111,1.153c-0.217,1.318-1.4,2.188-2.951,2.166c-1.488-0.019-2.646-0.896-2.852-2.158
		C840.167-328.576,841.23-330.102,842.81-330.299z M839.49-321.432c-0.445-1.554,0.441-2.868,2.195-3.253
		c2.238-0.489,4.209,1.272,3.637,3.254c-0.344,1.335-1.395,2.057-2.975,2.04C840.824-319.407,839.804-320.137,839.49-321.432z
		 M845.294-313.982c-1.389,0.15-2.637-0.568-3.285-1.89c-0.469-1.122-0.068-2.002,0.787-2.731c1.057-0.9,2.268-0.99,3.506-0.511
		c1.031,0.399,1.631,1.218,1.816,2.31c0.045,0.257,0.008,0.518-0.232,0.691C847.619-314.924,846.652-314.129,845.294-313.982z
		 M853.451-312.564c-0.391,1.248-1.361,1.782-2.549,1.919c-1.436,0.167-2.572-0.387-3.309-1.671
		c-0.004-0.104-0.01-0.207-0.016-0.311c0.033-0.128,0.066-0.256,0.098-0.385c-0.207-0.041-0.346-0.17-0.318-0.378
		c0.143-1.067,0.682-1.842,1.684-2.287c1.186-0.526,2.869-0.33,3.736,0.541C853.476-314.434,853.976-313.617,853.451-312.564z
		 M860.417-312.588c-0.18,1.287-1.227,2.143-2.705,2.207c-1.535,0.068-2.867-0.771-3.131-1.975
		c-0.424-0.706-0.148-1.351,0.209-1.963c0.723-1.239,2.568-1.791,4.006-1.221C860.082-315.029,860.72-313.865,860.417-312.588z
		 M866.326-315.452c-0.531,1.55-1.795,2.269-3.531,2.012c-1.348-0.2-2.191-1.029-2.277-2.238c-0.057-0.092-0.152-0.179-0.164-0.276
		c-0.148-1.154,0.48-1.9,1.404-2.398c1.33-0.72,2.668-0.559,3.818,0.373C866.341-317.36,866.781-316.504,866.326-315.452z"/>
	<path fill-rule="evenodd" clip-rule="evenodd" fill="#EFB2D1" d="M896.662-287.659c0,1.223-0.992,2.212-2.215,2.212h-79.283
		c-1.223,0-2.215-0.989-2.215-2.212v-14.292c0-1.223,0.992-2.213,2.215-2.213h79.283c1.223,0,2.215,0.99,2.215,2.213V-287.659z"/>
</g>
<g>
	<path fill-rule="evenodd" clip-rule="evenodd" fill="#EFB2D1" d="M1039.359-364.268h-71.168v75.352
		c0,6.309,5.283,11.422,11.803,11.422h59.365V-364.268z"/>
	<g>
		
			<path fill-rule="evenodd" clip-rule="evenodd" fill="none" stroke="#E276AE" stroke-width="2.8772" stroke-linecap="round" stroke-linejoin="round" stroke-miterlimit="10" d="
			M996.943-329.539l-7.922-8.35l7.922-8.348"/>
		
			<path fill-rule="evenodd" clip-rule="evenodd" fill="none" stroke="#E276AE" stroke-width="2.8772" stroke-linecap="round" stroke-linejoin="round" stroke-miterlimit="10" d="
			M1011.962-346.236l7.924,8.348l-7.924,8.35"/>
	</g>
	<path fill="#E376AE" d="M968.191-292.852v3.936c0,6.309,5.283,11.422,11.803,11.422h3.988v-15.357H968.191z"/>
</g>
</svg>
