<?xml version="1.0" encoding="utf-8"?>
<!-- Generator: Adobe Illustrator 16.0.0, SVG Export Plug-In . SVG Version: 6.00 Build 0)  -->
<!DOCTYPE svg PUBLIC "-//W3C//DTD SVG 1.1//EN" "http://www.w3.org/Graphics/SVG/1.1/DTD/svg11.dtd">
<svg version="1.1" id="Layer_1" xmlns="http://www.w3.org/2000/svg" xmlns:xlink="http://www.w3.org/1999/xlink" x="0px" y="0px"
	 width="69.583px" height="69.792px" viewBox="3.589 5.251 69.583 69.792" enable-background="new 3.589 5.251 69.583 69.792"
	 xml:space="preserve">
<g>
	<path fill="#FFFDF4" stroke="#000000" stroke-width="3" stroke-miterlimit="10" d="M67.123,38.553
		c-1.732-8.17-7.52-15.78-14.938-19.605c-3.756-1.938-7.785-3.229-11.998-3.646c-4.064-0.402-8.201-0.021-12.152,1.207
		c-2.086,0.648-4.219,1.521-6.117,2.613c-5.358,3.081-9.858,7.744-12.185,13.52C7.838,37.344,8.992,42.27,7.06,46.956
		c-0.397,0.969-0.963,1.826-1.244,2.826c-2.104,7.473,2.565,14.561,8.756,18.338c1.916,1.174,4.058,2.277,6.175,3.027
		c6.958,2.477,14.544,2.959,21.814,1.789c2.168-0.35,4.299-0.84,6.355-1.6c1.598-0.584,3.131-1.313,4.586-2.188
		c6.039-3.639,10.631-9.637,12.609-16.404C67.451,48.167,68.128,43.268,67.123,38.553z"/>
	<path fill="#F8C5D2" d="M35.476,50.157c0,0.328-0.27,0.592-0.594,0.592h-6.299c-0.322,0-0.592-0.264-0.592-0.592l0,0
		c0-0.326,0.27-0.592,0.592-0.592h6.299C35.208,49.565,35.476,49.831,35.476,50.157L35.476,50.157z"/>
	<g>
		<ellipse fill="#FDEEEE" cx="19.453" cy="48.87" rx="5.898" ry="4.611"/>
		<ellipse fill="#FDEEEE" cx="44.775" cy="48.87" rx="5.898" ry="4.611"/>
	</g>
	<g>
		<path d="M28.166,45.792c0,1.213-0.979,2.193-2.189,2.193c-1.209,0-2.191-0.98-2.191-2.193c0-1.209,0.98-2.188,2.191-2.188
			S28.166,44.583,28.166,45.792z"/>
		<path d="M40.771,45.792c0,1.213-0.982,2.193-2.191,2.193c-1.211,0-2.189-0.98-2.189-2.193c0-1.209,0.979-2.188,2.189-2.188
			C39.789,43.602,40.771,44.583,40.771,45.792z"/>
	</g>
	<path fill="#3A3A3A" stroke="#000000" stroke-width="3" stroke-miterlimit="10" d="M52.667,9.178
		c-5.586-2.113-11.777-2.801-17.693-2.24c-5.27,0.497-10.814,1.48-15.489,4.074C12.226,15.043,6.496,22.226,5.465,30.67
		c0,0-0.993,6.627,0.25,9.76h8.313l2.205-7.659l0.371,7.303h21.864l0.912-9.76l0.58,9.852l15.928-0.031
		c-0.01,2.176,0.463,4.838,0.484,4.98c-0.129-0.727,1.564-1.313,2.043-1.48c1.771-0.635,4.596,0.086,5.646,1.787
		c2.348,3.783-0.426,8.729-3.898,10.691l-1.195,0.678l-0.625,0.471c0,0-1.9,9.877-1.902,9.889
		c0.121-0.576,11.986-3.998,14.83-22.061c0.363-2.297,0.484-4.689,0.342-7.018c-0.135-2.209-0.492-4.411-0.969-6.571
		C68.558,21.987,61.943,12.693,52.667,9.178z"/>
</g>
</svg>
