<?xml version="1.0" encoding="utf-8"?>
<!-- Generator: Adobe Illustrator 16.0.0, SVG Export Plug-In . SVG Version: 6.00 Build 0)  -->
<!DOCTYPE svg PUBLIC "-//W3C//DTD SVG 1.1//EN" "http://www.w3.org/Graphics/SVG/1.1/DTD/svg11.dtd">
<svg version="1.1" id="Layer_1" xmlns="http://www.w3.org/2000/svg" xmlns:xlink="http://www.w3.org/1999/xlink" x="0px" y="0px"
	 width="66.301px" height="62.613px" viewBox="1.999 4 66.301 62.613" enable-background="new 1.999 4 66.301 62.613"
	 xml:space="preserve">
<g>
	<g>
		
			<path fill="#FFFFFF" stroke="#000000" stroke-width="2.7079" stroke-linecap="round" stroke-linejoin="round" stroke-miterlimit="10" d="
			M63.385,5.354H6.916c-1.967,0-3.563,1.598-3.563,3.563v36.518c0,1.967,1.598,3.564,3.563,3.564h24.688v11.625
			c-6.235,0.275-12.144,1.188-12.144,2.271c0,1.309,7.514,2.363,15.688,2.363c8.176,0,15.688-1.059,15.688-2.363
			c0-1.084-5.463-1.996-11.697-2.271V48.995h24.246c1.967,0,3.563-1.596,3.563-3.563V8.917C66.947,6.95,65.351,5.354,63.385,5.354z"
			/>
		<g>
			<path fill="#FADE52" d="M58.963,10.812h-3.525H11.339c-1.442,0-2.608,1.097-2.608,2.448v24.422v2.67
				c0,1.354,1.166,2.448,2.608,2.448h47.624c1.44,0,2.607-1.095,2.607-2.448V13.26C61.57,11.909,60.403,10.812,58.963,10.812z"/>
			<path fill="none" stroke="#231F20" stroke-width="3" stroke-miterlimit="10" d="M58.963,10.812h-3.525H11.339
				c-1.442,0-2.608,1.097-2.608,2.448v24.422v2.67c0,1.354,1.166,2.448,2.608,2.448h47.624c1.44,0,2.607-1.095,2.607-2.448V13.26
				C61.57,11.909,60.403,10.812,58.963,10.812z"/>
		</g>
	</g>
	<g>
		<circle fill="#FFFFFF" cx="48.336" cy="26.44" r="4.492"/>
		<circle fill="#D8D8D7" cx="21.078" cy="26.44" r="4.492"/>
		<g>
			<path d="M21.375,20.885h-0.002c-1.979,0.004-3.82,1.071-4.811,2.787c-0.711,1.235,1.143,2.303,1.854,1.068
				c0.608-1.057,1.743-1.714,2.96-1.717c0.59-0.001,1.068-0.48,1.067-1.071C22.443,21.363,21.965,20.885,21.375,20.885z"/>
			<path d="M18.42,28.16c-0.295-0.512-0.949-0.685-1.461-0.39c-0.512,0.297-0.686,0.951-0.39,1.462
				c0.992,1.712,2.838,2.776,4.814,2.776c1.451,0,1.451-2.14,0-2.14C20.167,29.869,19.031,29.214,18.42,28.16z"/>
			<path d="M35.982,25.378h-5.295c-0.589,0-1.068,0.479-1.068,1.069c0,0.59,0.479,1.069,1.068,1.069h5.295
				c0.591,0,1.07-0.479,1.07-1.069C37.052,25.856,36.573,25.378,35.982,25.378z"/>
			<path d="M26.211,29.212c0.48-0.838,0.734-1.794,0.734-2.765c0-0.983-0.26-1.95-0.752-2.795c-0.299-0.511-0.951-0.685-1.463-0.387
				c-0.511,0.298-0.684,0.952-0.386,1.462c0.302,0.521,0.462,1.114,0.462,1.72c0,0.598-0.156,1.186-0.451,1.7
				C23.646,29.382,25.502,30.446,26.211,29.212z"/>
			<path d="M33.79,30.938c0,0.592,0.479,1.07,1.069,1.07h13.477c3.065,0,5.561-2.496,5.561-5.562c0-3.066-2.495-5.562-5.561-5.562
				h-7.487c-0.591,0-1.069,0.479-1.069,1.069s0.479,1.069,1.069,1.069h3.107c-0.529,0.677-1.183,1.856-1.183,3.423
				s0.653,2.746,1.183,3.422h-9.097C34.269,29.869,33.79,30.348,33.79,30.938z M48.336,23.024c1.887,0,3.422,1.536,3.422,3.423
				s-1.535,3.422-3.422,3.422c-1.515,0-3.423-1.19-3.423-3.422C44.913,24.215,46.821,23.024,48.336,23.024z"/>
		</g>
	</g>
</g>
</svg>
