<?xml version="1.0" encoding="utf-8"?>
<!-- Generator: Adobe Illustrator 16.0.0, SVG Export Plug-In . SVG Version: 6.00 Build 0)  -->
<!DOCTYPE svg PUBLIC "-//W3C//DTD SVG 1.1//EN" "http://www.w3.org/Graphics/SVG/1.1/DTD/svg11.dtd">
<svg version="1.1" id="Layer_1" xmlns="http://www.w3.org/2000/svg" xmlns:xlink="http://www.w3.org/1999/xlink" x="0px" y="0px"
	 width="71.891px" height="90.425px" viewBox="0 0 71.891 90.425" enable-background="new 0 0 71.891 90.425" xml:space="preserve">
<g>
	<path fill="#948EC5" d="M-389.911-202.139c0,2.645-1.942,4.786-4.339,4.786h-78.099c-2.396,0-4.339-2.142-4.339-4.786v-44.983
		c0-2.642,1.942-4.784,4.339-4.784h78.099c2.397,0,4.339,2.143,4.339,4.784V-202.139z"/>
	<rect x="-436.569" y="-198.949" fill="#948EC5" width="7.179" height="22.331"/>
	<ellipse fill="#948EC5" cx="-433.538" cy="-176.776" rx="23.608" ry="3.336"/>
	<path fill="#F0AECE" d="M-400.298-245.997h-5.557v29.078c0,2.504-2.032,4.534-4.536,4.534h-59.307v5.371
		c0,2.069,1.522,3.748,3.399,3.748h66.001c1.876,0,3.398-1.679,3.398-3.748v-35.235
		C-396.899-244.318-398.421-245.997-400.298-245.997z"/>
	<path fill="#FBD8E7" d="M-405.854-216.918v-29.078h-60.444c-1.877,0-3.399,1.679-3.399,3.748v29.864h59.307
		C-407.886-212.384-405.854-214.415-405.854-216.918z"/>
	<g>
		<path fill="none" stroke="#FFFFFF" stroke-width="4.1875" stroke-linecap="round" stroke-miterlimit="10" d="M-451.375-240.758
			h-8.901c-1.878,0-3.399,1.678-3.399,3.748v8.377"/>
		<circle fill="#FFFFFF" cx="-463.567" cy="-222.385" r="2.257"/>
	</g>
</g>
<g>
	<g>
		<path fill="#F0AECE" d="M-111.313,7.767c-0.285-0.484-0.658-0.91-1.034-1.359c-0.678-0.809-1.356-1.617-2.037-2.422
			c-0.163-0.191-0.328-0.385-0.492-0.58c-0.41-0.486-1.078-0.486-1.49,0c0,0-3.626,4.297-3.631,4.303
			c-0.405,0.48-0.522,1.254-0.522,1.904v48.16c0,0.752,0.516,1.365,1.152,1.365h7.419c0.638,0,1.153-0.613,1.153-1.365V9.613
			C-110.795,8.953-110.992,8.304-111.313,7.767z"/>
		<path fill="#F0AECE" d="M-110.578,63.275c0,0.225-0.26,0.404-0.58,0.404h-8.998c-0.32,0-0.58-0.18-0.58-0.404l1.74-2.918
			c0-0.225,0.261-0.404,0.581-0.404h5.516c0.319,0,0.58,0.18,0.58,0.404L-110.578,63.275z"/>
	</g>
	<path fill="#F0AECE" d="M-91.08-3.276c-0.577-0.82-1.328-1.551-2.086-2.313c-1.365-1.377-2.733-2.75-4.104-4.119
		c-0.329-0.33-0.661-0.656-0.99-0.986c-0.829-0.83-2.174-0.83-3.003,0c0,0-7.307,7.307-7.318,7.318
		c-0.814,0.816-1.051,2.133-1.051,3.242v54.281c0,1.281,1.04,2.322,2.322,2.322h14.949c1.281,0,2.321-1.041,2.321-2.322V-0.133
		C-90.04-1.26-90.437-2.36-91.08-3.276z"/>
	<g>
		<path fill="#948EC5" d="M-110.478,75.695c0,7.072-5.153,16.809-5.153,16.809s-5.152-9.736-5.152-16.809
			c0-7.074,2.307-8.807,5.152-8.807S-110.478,68.621-110.478,75.695z"/>
		<path fill="#948EC5" d="M-110.531,73.222c0.069,5.115-4.986,12.189-4.986,12.189s-5.248-7.008-5.317-12.121
			c-0.069-5.117,2.22-6.383,5.065-6.4C-112.924,66.871-110.601,68.107-110.531,73.222z"/>
		<path fill="#948EC5" d="M-112.236,71.539c0.051,3.738-3.303,8.906-3.303,8.906s-3.493-5.123-3.543-8.863
			c-0.051-3.736,1.469-4.662,3.359-4.674C-113.832,66.894-112.288,67.8-112.236,71.539z"/>
		<path fill="#948EC5" d="M-113.778,69.431c0.027,2.041-1.802,4.863-1.802,4.863s-1.907-2.797-1.935-4.838s0.802-2.545,1.834-2.551
			C-114.649,66.898-113.806,67.392-113.778,69.431z"/>
	</g>
	<g>
		<path fill="#F0AECE" d="M-79.189,7.767c-0.285-0.484-0.658-0.91-1.034-1.359c-0.678-0.809-1.356-1.617-2.037-2.422
			c-0.163-0.191-0.328-0.385-0.492-0.58c-0.41-0.486-1.078-0.486-1.49,0c0,0-3.626,4.297-3.631,4.303
			c-0.405,0.48-0.522,1.254-0.522,1.904v48.16c0,0.752,0.516,1.365,1.152,1.365h7.419c0.638,0,1.153-0.613,1.153-1.365V9.613
			C-78.672,8.953-78.869,8.304-79.189,7.767z"/>
		<path fill="#F0AECE" d="M-78.455,63.275c0,0.225-0.26,0.404-0.58,0.404h-8.998c-0.321,0-0.58-0.18-0.58-0.404l1.742-2.918
			c0-0.225,0.259-0.404,0.579-0.404h5.515c0.32,0,0.582,0.18,0.582,0.404L-78.455,63.275z"/>
	</g>
	<g>
		<path fill="#948EC5" d="M-78.355,75.695c0,7.072-5.152,16.809-5.152,16.809s-5.151-9.736-5.151-16.809
			c0-7.074,2.306-8.807,5.151-8.807S-78.355,68.621-78.355,75.695z"/>
		<path fill="#948EC5" d="M-78.408,73.222c0.069,5.115-4.986,12.189-4.986,12.189s-5.247-7.008-5.316-12.121
			c-0.07-5.117,2.219-6.383,5.064-6.4C-80.801,66.871-78.479,68.107-78.408,73.222z"/>
		<path fill="#948EC5" d="M-80.114,71.539c0.052,3.738-3.302,8.906-3.302,8.906s-3.492-5.123-3.543-8.863
			c-0.051-3.736,1.469-4.662,3.359-4.674C-81.709,66.894-80.165,67.8-80.114,71.539z"/>
		<path fill="#948EC5" d="M-81.655,69.431c0.028,2.041-1.802,4.863-1.802,4.863s-1.907-2.797-1.935-4.838s0.801-2.545,1.834-2.551
			C-82.526,66.898-81.684,67.392-81.655,69.431z"/>
	</g>
	<g>
		<path fill="#948EC5" d="M-93.256,76.613c0,10.576-6.114,25.129-6.114,25.129s-6.115-14.553-6.115-25.129
			c0-10.572,2.737-13.16,6.115-13.16C-95.993,63.453-93.256,66.041-93.256,76.613z"/>
		<path fill="#948EC5" d="M-93.317,72.921c0.082,7.646-5.919,18.219-5.919,18.219s-6.229-10.473-6.311-18.119
			s2.634-9.539,6.012-9.568C-96.158,63.425-93.4,65.277-93.317,72.921z"/>
		<path fill="#948EC5" d="M-95.343,70.404c0.062,5.586-3.919,13.313-3.919,13.313s-4.145-7.658-4.205-13.246
			c-0.061-5.59,1.742-6.973,3.988-6.99C-97.236,63.462-95.403,64.816-95.343,70.404z"/>
		<path fill="#948EC5" d="M-97.173,67.255c0.034,3.049-2.138,7.266-2.138,7.266s-2.264-4.18-2.296-7.229
			c-0.032-3.051,0.95-3.807,2.177-3.816C-98.205,63.466-97.205,64.205-97.173,67.255z"/>
	</g>
	<g>
		<path fill="#FBD8E7" d="M-94.049,14.109c-0.371-0.574-0.855-1.082-1.344-1.615c-0.88-0.961-1.762-1.918-2.645-2.875
			c-0.213-0.23-0.426-0.459-0.639-0.689c-0.534-0.578-1.401-0.578-1.936,0c0,0-4.708,5.102-4.717,5.111
			c-0.523,0.568-0.676,1.486-0.676,2.264v37.891c0,0.895,0.67,1.621,1.496,1.621h3.316c0.151,1.051,1.086,1.791,1.5,1.791
			s1.35-0.74,1.501-1.791h3.316c0.825,0,1.497-0.727,1.497-1.621V16.304C-93.377,15.517-93.634,14.75-94.049,14.109z"/>
		<g>
			<path fill="#FBD8E7" d="M-105.92,27.83c0,0-4.354,8.127-11.997,12.578c0,0-4.741,2.807-5.128,7.063h18.384l0.677-19.352
				L-105.92,27.83z"/>
			<polyline fill="#FBD8E7" points="-104.74,51.722 -105.9,51.58 -123.046,49.449 -123.046,47.462 -104.898,47.462 -104.898,51.044 
							"/>
		</g>
		<g>
			<path fill="#FBD8E7" d="M-93.316,27.83c0,0,4.353,8.127,11.996,12.578c0,0,4.742,2.807,5.129,7.063h-18.384l-0.678-19.352
				L-93.316,27.83z"/>
			<polyline fill="#FBD8E7" points="-94.496,51.722 -93.336,51.58 -76.19,49.449 -76.19,47.462 -94.338,47.462 -94.338,51.044 			
				"/>
		</g>
	</g>
</g>
<g>
	<path fill-rule="evenodd" clip-rule="evenodd" fill="#5D6AB2" d="M48.314,7.167c0.02-0.002-0.559-1.506-0.634-1.645
		c-0.274-0.498-0.596-0.975-0.985-1.393c-1.372-1.461-3.131-1.971-5.012-2.436c-1.797-0.445-3.596-0.898-5.393-1.332
		c-4.806-1.16-8.121,0.443-9.709,5.078c-0.113,0.582-0.227,1.164-0.34,1.746c4.786,0,9.571-0.002,14.357-0.004
		c0.17-1.271,0.679-2.48,0.939-3.734c0.047-0.23,0.086-0.459,0.113-0.691c-0.027,0.232-0.066,0.461-0.113,0.691
		c-0.261,1.254-0.77,2.463-0.939,3.734C43.172,7.177,45.743,7.173,48.314,7.167z"/>
	<path fill="#948EC5" d="M71.887,80.599c0-1.912,0-10.92-0.004-12.832c-0.018-7.818,0.025-23.105-0.002-30.922
		c-0.025-6.463-0.893-13.295-4.523-18.684c-2.838-4.215-6.443-7.949-11.117-9.705c-4.494-1.688-9.445-1.41-14.135-1.41
		c-7.796,0-15.592,0.014-23.389,0.014c-12.844,0-18.688,8.355-18.688,18.664v51.094v1.541L0,82.96c0,4.123,2.78,7.465,6.822,7.465
		c1.658,0,3.183-0.568,4.41-1.516c1.444-1.115,2.469-2.762,2.794-4.656c0.339,1.977,1.438,3.686,2.983,4.801
		c1.193,0.861,2.646,1.371,4.22,1.371c1.918,0,3.659-0.758,4.965-1.988c1.15-1.086,1.957-2.541,2.239-4.184
		c0.281,1.643,1.088,3.098,2.238,4.184c1.306,1.23,3.047,1.988,4.965,1.988s3.658-0.758,4.964-1.988
		c1.151-1.086,1.958-2.541,2.239-4.184c0.282,1.643,1.088,3.098,2.239,4.184c1.306,1.23,3.046,1.988,4.964,1.988
		c1.518,0,2.928-0.471,4.098-1.275c1.611-1.113,2.758-2.863,3.105-4.896c0.391,2.271,1.779,4.191,3.697,5.26
		c1.041,0.582,2.236,0.912,3.506,0.912c4.043,0,7.32-3.342,7.32-7.465"/>
	<g>
		<path fill-rule="evenodd" clip-rule="evenodd" fill="#F3C5D2" d="M30.568,21.939c0.04,1.654-1.364,3.061-3.061,3.064
			c-1.627,0.002-2.939-1.232-3.021-2.842c-0.084-1.658,1.261-3.145,2.871-3.174C28.975,18.958,30.532,20.39,30.568,21.939z"/>
		<path fill-rule="evenodd" clip-rule="evenodd" fill="#F3C5D2" d="M59.629,25.003c-1.596,0.012-2.992-1.32-3.049-2.91
			c-0.061-1.697,1.254-3.08,2.959-3.107c1.723-0.029,3.127,1.354,3.094,3.051C62.605,23.613,61.209,24.99,59.629,25.003z"/>
	</g>
	<path fill-rule="evenodd" clip-rule="evenodd" fill="#F3C5D2" d="M14.604,45.236c0.031-1.941,0.054-3.879,0.095-5.818
		c0.101-4.645,3.665-8.279,8.333-8.295c13.232-0.047,26.467-0.043,39.701-0.002c4.672,0.014,8.258,3.596,8.336,8.273
		c0.049,2.873,0.264,5.76-0.295,8.613c-1.854,4.143-5.053,5.803-9.568,5.758c-12.534-0.125-25.07-0.078-37.605-0.023
		c-4.236,0.02-6.955-2.072-8.611-5.744C14.621,47.183,14.72,46.162,14.604,45.236z"/>
	<path fill-rule="evenodd" clip-rule="evenodd" fill="#D8829D" d="M67.408,41.9c0,0.344-0.279,0.621-0.621,0.621H24.232
		c-0.344,0-0.622-0.277-0.622-0.621l0,0c0-0.344,0.278-0.623,0.622-0.623h42.555C67.129,41.277,67.408,41.556,67.408,41.9
		L67.408,41.9z"/>
	
		<path fill-rule="evenodd" clip-rule="evenodd" fill="none" stroke="#F3C5D2" stroke-width="1.5067" stroke-linecap="round" stroke-miterlimit="10" d="
		M19.449,56.183v8.012c0,3.723-3.229,6.736-7.209,6.736l0,0c-3.981,0-7.208-3.014-7.208-6.736v-8.012"/>
</g>
<g>
	<path fill-rule="evenodd" clip-rule="evenodd" fill="#948EC5" d="M159.561,20.976c-3.125,0.636-4.879,3.553-3.984,6.629
		c-0.582,0.225-1.17,0.438-1.746,0.678c-5.09,2.12-10.158,4.285-15.271,6.344c-1.287,0.519-2.494,1.291-3.912,1.471
		c-1.635-4.576-0.711-8.707,2.297-12.397c2.889-3.542,6.74-5.776,10.848-7.604c6.334-2.817,13.014-4.4,19.826-5.523
		c8.615-1.42,17.293-1.837,26.006-1.571c10.275,0.311,20.41,1.587,30.193,4.929c4.447,1.52,8.684,3.48,12.299,6.568
		c3.494,2.984,5.725,6.619,5.574,11.387c-0.045,1.43-0.227,2.859-0.834,4.191c-0.811-0.118-1.561-0.424-2.305-0.737
		c-1.391-0.583-2.768-1.192-4.156-1.769c-4.82-1.998-9.643-3.985-14.463-5.979c1.02-3.408-0.264-5.787-3.885-7.203
		c-0.012-0.146-0.043-0.294-0.031-0.44c0.162-2.298-1.063-3.841-2.971-4.708c-1.912-0.869-3.924-0.808-5.766,0.469
		c-0.637,0.439-0.973,1.193-1.693,1.527c-0.258-0.011-0.52,0.005-0.77-0.034c-4.119-0.622-8.26-0.965-12.424-1.063
		c-6.16-0.146-12.301,0.1-18.408,0.906c-1.313,0.176-2.713,0.092-3.914,0.834c-0.063-0.037-0.156-0.063-0.182-0.117
		c-1.398-3.012-5.145-4.045-7.93-2.217C159.971,16.849,159.35,18.72,159.561,20.976z"/>
	<path fill-rule="evenodd" clip-rule="evenodd" fill="#948EC5" d="M222.018,61.659c-0.363,0.365-0.826,0.252-1.258,0.252
		c-21.977,0.005-43.951,0.005-65.928,0c-0.43,0-0.896,0.116-1.266-0.233c4.406-4.86,7.174-10.733,10.191-16.453
		c1.799-3.417,3.676-6.805,6.115-9.816c1.564-1.928,3.301-3.719,5.371-5.107c0.639-0.43,1.301-0.82,1.98-1.176
		c2.246-1.172,4.625-2.059,7.211-2.254c2.83-0.213,5.664-0.371,8.451,0.253c4.225,0.946,7.867,2.98,10.92,6.082
		c0.771,0.784,1.293,1.805,2.268,2.392c1.088,1.695,2.266,3.34,3.244,5.094c2.078,3.719,4.055,7.494,6.07,11.248
		C217.256,55.414,219.391,58.705,222.018,61.659z M206.209,48.951c0.602-0.15,1.23,0.58,1.451-0.591
		c0.721-1.872,1.801-3.424,1.314-5.544c0.242-0.619-0.16-0.643-0.6-0.68c-1.166-0.097-2.328-0.216-3.492-0.326
		c-0.447-3.717-2.119-6.783-4.947-9.211c-5.92-5.081-15.23-5.813-21.9-1.709c-3.85,2.368-6.613,16.077-6.523,16.438
		c0.611,2.438,1.211,3.557,2.969,5.376c5.143,5.331,13.305,8.247,20.338,5.415c5.203-2.097,8.807-5.658,9.916-11.36
		c0.779,0.122,1.117,0.556,1.02,1.354c-0.039,0.316,0.338,0.256,0.354,0.578C206.059,48.929,206.027,49.013,206.209,48.951z"/>
	<path fill-rule="evenodd" clip-rule="evenodd" fill="#5D6AB2" d="M206.074,35.597c-0.975-0.587-1.496-1.607-2.268-2.392
		c-3.053-3.102-6.695-5.136-10.92-6.082c-2.787-0.624-5.621-0.466-8.451-0.253c-2.586,0.195-4.965,1.082-7.211,2.254
		c-2.35,1.227-4.439,2.865-6.152,4.928c-0.473,0.567-0.945,1.128-1.566,1.542c-1.543-0.001-3.09,0.022-4.633-0.007
		c-2.975-0.059-5.297-2.383-5.318-5.346c-0.021-3.088,0.002-6.176,0.006-9.266c-0.211-2.256,0.41-4.127,2.398-5.432
		c2.785-1.828,6.531-0.795,7.93,2.217c0.025,0.055,0.119,0.08,0.182,0.117c0.646,1.832,0.346,3.731,0.332,5.598
		c-0.008,1.051,0.328,1.258,1.309,1.254c9.367-0.036,18.736-0.021,28.104-0.021c1.512,0,3.025-0.002,4.537,0
		c0.416,0.002,0.811,0.045,0.813-0.585c0.01-2.303-0.172-4.62,0.422-6.888c0.721-0.334,1.057-1.088,1.693-1.527
		c1.842-1.276,3.854-1.338,5.766-0.469c1.908,0.867,3.133,2.41,2.971,4.708c-0.012,0.146,0.02,0.294,0.031,0.44
		c0,3.206,0.012,6.414-0.006,9.62c-0.02,3.288-2.275,5.55-5.543,5.583C209.023,35.607,207.549,35.595,206.074,35.597z"/>
	<path fill-rule="evenodd" clip-rule="evenodd" fill="#948EC5" d="M134.646,36.097c1.418-0.18,2.625-0.952,3.912-1.471
		c5.113-2.059,10.182-4.224,15.271-6.344c0.576-0.24,1.164-0.453,1.746-0.678c0.648,1.363,1.084,2.81,1.453,4.258
		c0.469,1.84-0.475,3.693-2.244,4.442c-4.49,1.903-9.002,3.764-13.527,5.585c-1.684,0.677-3.584-0.012-4.586-1.658
		C135.879,38.923,135.168,37.552,134.646,36.097z"/>
	<path fill-rule="evenodd" clip-rule="evenodd" fill="#948EC5" d="M219.932,27.591c4.82,1.993,9.643,3.98,14.463,5.979
		c1.389,0.576,2.766,1.186,4.156,1.769c0.744,0.313,1.494,0.619,2.305,0.737c-0.514,1.459-1.215,2.838-2.023,4.14
		c-1.113,1.796-3.041,2.331-4.998,1.528c-4.211-1.73-8.422-3.461-12.625-5.211c-2.488-1.037-3.375-2.993-2.494-5.531
		C219.109,29.862,219.346,28.664,219.932,27.591z"/>
	<path fill-rule="evenodd" clip-rule="evenodd" fill="#E376AE" d="M152.365,80.342c5.377-0.003,10.754-0.006,16.131-0.007
		c0.084,0.85-0.191,1.178-1.148,1.165c-4.598-0.06-9.197-0.06-13.797,0C152.604,81.512,152.309,81.194,152.365,80.342z"/>
	<path fill-rule="evenodd" clip-rule="evenodd" fill="#E376AE" d="M207.096,80.33c5.379,0.006,10.762,0.01,16.141,0.016
		c0.066,0.866-0.258,1.166-1.191,1.154c-4.604-0.056-9.207-0.059-13.809,0.001C207.27,81.514,207.008,81.177,207.096,80.33z"/>
	<path fill-rule="evenodd" clip-rule="evenodd" fill="#F0AECE" d="M170.689,43.564c0.117,0.18,0.693,3.087,0.764,3.283
		c1.986,5.457,5.9,8.697,11.361,10.07c6.971,1.756,13.213,0.274,18.377-4.891c1.498-1.495,2.639-3.426,3.146-5.527
		c0.145,0.042,0.252,0.217,0.396,0.259c-1.109,5.702-4.713,9.264-9.916,11.36c-7.033,2.832-15.244,1.089-20.387-4.242
		c-1.756-1.82-2.854-3.999-3.467-6.437C170.873,47.078,170.547,43.924,170.689,43.564z"/>
	<path fill-rule="evenodd" clip-rule="evenodd" fill="#E5E3E2" d="M197.688,41.408c2.398,0.134,4.797,0.269,7.195,0.402
		c1.164,0.11,2.326,0.229,3.492,0.326c0.439,0.037,0.842,0.061,0.6,0.68c-0.438,1.102-0.877,2.204-1.314,3.306
		c-1.283-0.234-2.369-0.954-3.516-1.5C201.975,43.591,199.723,42.712,197.688,41.408z"/>
	<path fill-rule="evenodd" clip-rule="evenodd" fill="#97928F" d="M207.578,49.082c-0.313-0.824,0.063-2.121,0.082-2.96
		c0.438-1.102,0.949-2.56,1.387-3.661C209.533,44.582,208.299,47.21,207.578,49.082z"/>
	<path fill-rule="evenodd" clip-rule="evenodd" fill="#C9C9C9" d="M207.66,46.122c-1.283-0.234-2.369-0.954-3.516-1.5
		c-2.17-1.03-4.422-1.909-6.457-3.214c-0.568,1.111-0.408,1.634,0.584,2.146c1.543,0.796,3.143,1.479,4.67,2.304
		c0.492,0.266,2.516,1.141,2.646,1.719c0.1,0.447,0.006,0.945,0.203,1.373c0.107,0.232,0.285,0.369,0.549,0.398
		c0.398,0.042,0.938,0.063,1.238-0.266C207.646,49.007,207.641,46.96,207.66,46.122z"/>
	<path fill-rule="evenodd" clip-rule="evenodd" fill="#5D6AB2" d="M181.199,49.98c-0.268,1.189-1.234,1.984-2.592,2.131
		c-1.389,0.15-2.637-0.568-3.285-1.89c0.443-0.769,1.098-1.265,1.938-1.541C178.898,48.139,180.104,48.887,181.199,49.98z"/>
	<path fill-rule="evenodd" clip-rule="evenodd" fill="#5D6AB2" d="M193.73,53.505c-0.18,1.287-1.227,2.143-2.705,2.207
		c-1.535,0.068-2.867-0.771-3.131-1.975c0.641-0.918,1.5-1.438,2.625-1.574C191.863,52,192.793,52.74,193.73,53.505z"/>
	<path fill-rule="evenodd" clip-rule="evenodd" fill="#5D6AB2" d="M179.766,38.906c-0.217,1.318-1.4,2.188-2.951,2.166
		c-1.488-0.019-2.646-0.896-2.852-2.158C176.133,37.023,177.783,37.021,179.766,38.906z"/>
	<path fill-rule="evenodd" clip-rule="evenodd" fill="#5D6AB2" d="M184.885,33.333c0.008-0.14,0.018-0.277,0.023-0.416
		c0.588-0.352,1.061-0.869,1.723-1.12c1.73-0.655,3.613,0.19,3.994,1.825c-1.449,2.096-4.182,2.094-5.652-0.004
		C184.943,33.524,184.916,33.429,184.885,33.333z"/>
	<path fill-rule="evenodd" clip-rule="evenodd" fill="#5D6AB2" d="M178.635,44.663c-0.344,1.335-1.395,2.057-2.975,2.04
		c-1.523-0.017-2.543-0.746-2.857-2.043C174.699,42.632,176.76,42.634,178.635,44.663z"/>
	<path fill-rule="evenodd" clip-rule="evenodd" fill="#5D6AB2" d="M199.639,50.641c-0.531,1.55-1.795,2.269-3.531,2.012
		c-1.348-0.2-2.191-1.029-2.277-2.238C196.369,48.612,197.799,48.667,199.639,50.641z"/>
	<path fill-rule="evenodd" clip-rule="evenodd" fill="#5D6AB2" d="M186.764,53.529c-0.391,1.248-1.361,1.782-2.549,1.919
		c-1.436,0.167-2.572-0.387-3.309-1.671c-0.004-0.104-0.01-0.207-0.016-0.311c0.033-0.128,0.066-0.256,0.098-0.385
		c0.182-0.114,0.371-0.221,0.545-0.346C183.416,51.404,185.355,51.697,186.764,53.529z"/>
	<path fill-rule="evenodd" clip-rule="evenodd" fill="#5D6AB2" d="M197.105,34.501c0.066,0.254,0.098,0.502-0.053,0.744
		c-0.611,0.984-1.508,1.452-2.654,1.49c-1.174,0.041-2.158-0.322-2.859-1.311c-0.205-0.292-0.205-0.619-0.176-0.951
		c0.537-0.172,0.82-0.688,1.338-0.924C194.43,32.758,195.807,33.412,197.105,34.501z"/>
	<path fill-rule="evenodd" clip-rule="evenodd" fill="#5D6AB2" d="M178.844,36.019c-0.01-0.532-0.664-0.908-0.371-1.516
		c2.207-1.805,3.906-1.488,5.729-0.027c-0.098,1.793-2.186,2.826-4.186,2.06c-0.4-0.154-0.789-0.349-1.184-0.523L178.844,36.019z"/>
	<path fill-rule="evenodd" clip-rule="evenodd" fill="#F0AECE" d="M181.199,49.98c-1.096-1.093-2.301-1.841-3.939-1.3
		c-0.84,0.276-1.494,0.772-1.938,1.541c-0.469-1.122-0.068-2.002,0.787-2.731c1.057-0.9,2.268-0.99,3.506-0.511
		c1.031,0.399,1.631,1.218,1.816,2.31C181.477,49.545,181.439,49.806,181.199,49.98z"/>
	<path fill-rule="evenodd" clip-rule="evenodd" fill="#F0AECE" d="M184.201,34.476c-1.822-1.461-3.521-1.777-5.729,0.027
		c-0.576-0.457-0.223-0.992-0.012-1.393c0.572-1.09,1.545-1.665,2.773-1.705c1.227-0.04,2.232,0.443,2.877,1.515
		C184.396,33.396,184.561,33.935,184.201,34.476z"/>
	<path fill-rule="evenodd" clip-rule="evenodd" fill="#F0AECE" d="M178.635,44.663c-1.875-2.028-3.936-2.03-5.832-0.003
		c-0.445-1.552,0.441-2.866,2.195-3.251C177.236,40.919,179.207,42.681,178.635,44.663z"/>
	<path fill-rule="evenodd" clip-rule="evenodd" fill="#F0AECE" d="M186.764,53.529c-1.408-1.832-3.348-2.125-5.23-0.793
		c-0.174,0.125-0.363,0.231-0.545,0.346c-0.207-0.041-0.346-0.17-0.318-0.378c0.143-1.067,0.682-1.842,1.684-2.287
		c1.186-0.526,2.869-0.33,3.736,0.541C186.789,51.66,187.289,52.476,186.764,53.529z"/>
	<path fill-rule="evenodd" clip-rule="evenodd" fill="#F0AECE" d="M197.105,34.501c-1.299-1.09-2.676-1.743-4.404-0.951
		c-0.518,0.236-0.801,0.752-1.338,0.924c-0.449-1.682,0.994-3.145,3.049-3.084c1.381,0.039,2.531,0.898,2.861,2.131
		C197.367,33.876,197.51,34.233,197.105,34.501z"/>
	<path fill-rule="evenodd" clip-rule="evenodd" fill="#F0AECE" d="M179.766,38.906c-1.982-1.885-3.633-1.883-5.803,0.008
		c-0.482-1.396,0.58-2.922,2.16-3.119c0.924-0.115,1.818,0.078,2.721,0.225l-0.012-0.007c0.25,0.64,0.928,1.021,1.045,1.74
		C179.941,38.146,180.041,38.544,179.766,38.906z"/>
	<path fill-rule="evenodd" clip-rule="evenodd" fill="#F0AECE" d="M199.639,50.641c-1.84-1.974-3.27-2.029-5.809-0.227
		c-0.057-0.092-0.152-0.179-0.164-0.276c-0.148-1.154,0.48-1.9,1.404-2.398c1.33-0.72,2.668-0.559,3.818,0.373
		C199.654,48.733,200.094,49.589,199.639,50.641z"/>
	<path fill-rule="evenodd" clip-rule="evenodd" fill="#F0AECE" d="M193.73,53.505c-0.938-0.766-1.867-1.506-3.211-1.342
		c-1.125,0.136-1.984,0.656-2.625,1.574c-0.424-0.706-0.148-1.351,0.209-1.963c0.723-1.239,2.568-1.791,4.006-1.221
		C193.395,51.064,194.033,52.228,193.73,53.505z"/>
	<path fill-rule="evenodd" clip-rule="evenodd" fill="#F0AECE" d="M190.625,33.623c-0.381-1.635-2.264-2.48-3.994-1.825
		c-0.662,0.251-1.135,0.769-1.723,1.12c-0.402-1.98,1.619-3.595,3.756-2.998C190.498,30.43,191.182,31.723,190.625,33.623z"/>
	<path fill-rule="evenodd" clip-rule="evenodd" fill="#AC6F42" d="M184.885,33.333c0.031,0.096,0.059,0.19,0.088,0.285
		C184.844,33.554,184.795,33.464,184.885,33.333z"/>
	<path fill-rule="evenodd" clip-rule="evenodd" fill="#FBD8E7" d="M197.688,41.408c2.398,0.134,4.797,0.269,7.195,0.402
		c-0.447-3.717-2.119-6.783-4.947-9.211c-5.92-5.081-15.23-5.813-21.9-1.709c-1.6,0.984-3.107,2.185-4.283,3.656
		c-1.156,1.445-2.094,3.113-2.566,4.91c-0.656,2.505-0.734,5.119,0.205,7.564c0.227,0.587,0.469,1.168,0.742,1.735
		c0.498,1.03,1.105,2.005,1.84,2.883c1.406,1.681,3.209,3.058,5.193,3.985c1.158,0.539,2.408,0.981,3.648,1.293
		c6.971,1.756,13.213,0.274,18.377-4.891c1.498-1.495,2.65-3.418,3.158-5.521c-1.926-1.188-4.072-1.919-6.078-2.953
		C197.279,43.042,197.119,42.519,197.688,41.408z M194.412,31.39c1.381,0.039,2.531,0.898,2.861,2.131
		c0.094,0.355,0.236,0.712-0.168,0.98c0.066,0.254,0.098,0.502-0.053,0.744c-0.611,0.984-1.508,1.452-2.654,1.49
		c-1.174,0.041-2.158-0.322-2.859-1.311c-0.205-0.292-0.205-0.619-0.176-0.951C190.914,32.792,192.357,31.33,194.412,31.39z
		 M188.664,29.919c1.834,0.511,2.518,1.804,1.961,3.703c-1.449,2.096-4.182,2.094-5.652-0.004c-0.129-0.064-0.178-0.154-0.088-0.285
		c0.008-0.14,0.018-0.277,0.023-0.416C184.506,30.937,186.527,29.323,188.664,29.919z M176.123,35.794
		c0.92-0.114,1.814,0.078,2.711,0.225c0,0,0-0.005-0.002-0.007c0.004,0.002,0.008,0.003,0.01,0.005
		c-0.012-0.532-0.662-0.908-0.369-1.514c-0.576-0.457-0.223-0.992-0.012-1.393c0.572-1.09,1.545-1.665,2.773-1.705
		c1.227-0.04,2.232,0.443,2.877,1.515c0.285,0.476,0.449,1.015,0.09,1.556c-0.098,1.793-2.186,2.826-4.186,2.06
		c-0.398-0.153-0.783-0.345-1.174-0.519l0.002,0.002c-0.004,0-0.006,0-0.01,0c0.254,0.635,0.928,1.018,1.043,1.733
		c0.064,0.394,0.164,0.792-0.111,1.153c-0.217,1.318-1.4,2.188-2.951,2.166c-1.488-0.019-2.646-0.896-2.852-2.158
		C173.48,37.517,174.543,35.992,176.123,35.794z M172.803,44.662c-0.445-1.554,0.441-2.868,2.195-3.253
		c2.238-0.489,4.209,1.272,3.637,3.254c-0.344,1.335-1.395,2.057-2.975,2.04C174.137,46.686,173.117,45.957,172.803,44.662z
		 M178.607,52.111c-1.389,0.15-2.637-0.568-3.285-1.89c-0.469-1.122-0.068-2.002,0.787-2.731c1.057-0.9,2.268-0.99,3.506-0.511
		c1.031,0.399,1.631,1.218,1.816,2.31c0.045,0.257,0.008,0.518-0.232,0.691C180.932,51.169,179.965,51.964,178.607,52.111z
		 M186.764,53.529c-0.391,1.248-1.361,1.782-2.549,1.919c-1.436,0.167-2.572-0.387-3.309-1.671c-0.004-0.104-0.01-0.207-0.016-0.311
		c0.033-0.128,0.066-0.256,0.098-0.385c-0.207-0.041-0.346-0.17-0.318-0.378c0.143-1.067,0.682-1.842,1.684-2.287
		c1.186-0.526,2.869-0.33,3.736,0.541C186.789,51.66,187.289,52.476,186.764,53.529z M193.73,53.505
		c-0.18,1.287-1.227,2.143-2.705,2.207c-1.535,0.068-2.867-0.771-3.131-1.975c-0.424-0.706-0.148-1.351,0.209-1.963
		c0.723-1.239,2.568-1.791,4.006-1.221C193.395,51.064,194.033,52.228,193.73,53.505z M199.639,50.641
		c-0.531,1.55-1.795,2.269-3.531,2.012c-1.348-0.2-2.191-1.029-2.277-2.238c-0.057-0.092-0.152-0.179-0.164-0.276
		c-0.148-1.154,0.48-1.9,1.404-2.398c1.33-0.72,2.668-0.559,3.818,0.373C199.654,48.733,200.094,49.589,199.639,50.641z"/>
	<path fill-rule="evenodd" clip-rule="evenodd" fill="#EFB2D1" d="M229.975,78.434c0,1.223-0.992,2.212-2.215,2.212h-79.283
		c-1.223,0-2.215-0.989-2.215-2.212V64.142c0-1.223,0.992-2.213,2.215-2.213h79.283c1.223,0,2.215,0.99,2.215,2.213V78.434z"/>
</g>
<g>
	<path fill-rule="evenodd" clip-rule="evenodd" fill="#EFB2D1" d="M372.672,1.826h-71.168v75.352
		c0,6.309,5.283,11.422,11.803,11.422h59.365V1.826z"/>
	<g>
		
			<path fill-rule="evenodd" clip-rule="evenodd" fill="none" stroke="#E276AE" stroke-width="2.8772" stroke-linecap="round" stroke-linejoin="round" stroke-miterlimit="10" d="
			M330.256,36.554l-7.922-8.35l7.922-8.348"/>
		
			<path fill-rule="evenodd" clip-rule="evenodd" fill="none" stroke="#E276AE" stroke-width="2.8772" stroke-linecap="round" stroke-linejoin="round" stroke-miterlimit="10" d="
			M345.275,19.857l7.924,8.348l-7.924,8.35"/>
	</g>
	<path fill="#E376AE" d="M301.504,73.242v3.936c0,6.309,5.283,11.422,11.803,11.422h3.988V73.242H301.504z"/>
</g>
</svg>
