<?xml version="1.0" encoding="utf-8"?>
<!-- Generator: Adobe Illustrator 16.0.0, SVG Export Plug-In . SVG Version: 6.00 Build 0)  -->
<!DOCTYPE svg PUBLIC "-//W3C//DTD SVG 1.1//EN" "http://www.w3.org/Graphics/SVG/1.1/DTD/svg11.dtd">
<svg version="1.1" id="Layer_1" xmlns="http://www.w3.org/2000/svg" xmlns:xlink="http://www.w3.org/1999/xlink" x="0px" y="0px"
	 width="166.901px" height="85.061px" viewBox="0 -0.001 166.901 85.061" enable-background="new 0 -0.001 166.901 85.061"
	 xml:space="preserve">
<g>
	<g>
		<g>
			<path fill="#FBDE52" stroke="#010101" stroke-width="1.9419" stroke-miterlimit="10" d="M125.013,0.99
				c-0.112-0.012-0.224-0.021-0.335-0.021H42.176c-0.112,0-0.221,0.009-0.333,0.021C18.9,1.367,0.603,20.269,0.976,43.212
				C1.344,65.876,19.81,84.066,42.479,84.089c10.744,0.03,21.075-4.133,28.795-11.609h24.309
				c16.537,15.907,42.832,15.401,58.741-1.129c7.446-7.744,11.606-18.075,11.606-28.818C165.867,19.858,147.684,1.398,125.013,0.99z
				"/>
		</g>
	</g>
	<g>
		<g>
			<path fill="#010101" d="M125.013,0.99c-0.112-0.012-0.224-0.021-0.335-0.021H42.176c-0.112,0-0.221,0.009-0.333,0.021
				C18.9,1.367,0.603,20.269,0.976,43.212C1.344,65.876,19.81,84.066,42.479,84.089c10.744,0.03,21.075-4.133,28.795-11.609h24.309
				c16.537,15.907,42.832,15.401,58.741-1.129c7.446-7.744,11.606-18.075,11.606-28.818C165.867,19.858,147.684,1.398,125.013,0.99z
				 M124.381,78.589L124.381,78.589c-9.676,0.027-18.946-3.864-25.705-10.784c-0.517-0.527-1.222-0.824-1.958-0.824H70.141
				c-0.735,0.002-1.443,0.299-1.958,0.824c-13.955,14.204-36.778,14.399-50.975,0.446C3.006,54.296,2.805,31.477,16.757,17.275
				c6.715-6.829,15.866-10.708,25.441-10.78c0.091,0,0.186-0.004,0.273-0.016h81.91c0.091,0.011,0.183,0.016,0.271,0.016
				c19.911,0.234,35.863,16.56,35.628,36.467C160.05,62.647,144.07,78.506,124.381,78.589z"/>
		</g>
	</g>
	<g>
		<g>
			<path fill="#FFFFFF" d="M64.178,31.226h-11v-11c0-1.521-1.23-2.751-2.752-2.751h-16.5c-1.517,0-2.752,1.228-2.752,2.751v11
				H20.175c-1.519,0-2.752,1.232-2.752,2.752v16.5c0,1.52,1.231,2.753,2.752,2.753h11.001V64.23c0,1.518,1.233,2.753,2.752,2.753
				h16.5c1.52,0,2.752-1.23,2.752-2.753V53.231h11c1.518,0,2.753-1.231,2.753-2.753v-16.5
				C66.928,32.457,65.695,31.226,64.178,31.226z"/>
		</g>
	</g>
	<g>
		<g>
			<path fill="#010101" d="M64.178,31.226h-11v-11c0-1.521-1.23-2.751-2.752-2.751h-16.5c-1.517,0-2.752,1.228-2.752,2.751v11
				H20.175c-1.519,0-2.752,1.232-2.752,2.752v16.5c0,1.52,1.231,2.753,2.752,2.753h11.001V64.23c0,1.518,1.233,2.753,2.752,2.753
				h16.5c1.52,0,2.752-1.23,2.752-2.753V53.231h11c1.518,0,2.753-1.231,2.753-2.753v-16.5
				C66.928,32.457,65.695,31.226,64.178,31.226z M61.428,47.728H50.426c-1.518,0-2.751,1.232-2.751,2.75v11H36.673v-11
				c0-1.517-1.23-2.75-2.75-2.75H22.921V36.73h11.002c1.519,0,2.75-1.234,2.75-2.754V22.972h11.002v11.004
				c0,1.519,1.231,2.754,2.751,2.754h11.002V47.728z"/>
		</g>
	</g>
	<g>
		<g>
			<g>
				<path fill="#FFFFFF" d="M124.682,11.975c-6.075,0-11.002,4.922-11.002,10.999c0,6.077,4.924,11.004,11.002,11.004
					c6.074,0,10.998-4.925,10.998-11.004C135.68,16.899,130.756,11.975,124.682,11.975z"/>
			</g>
		</g>
		<g>
			<g>
				<path fill="#FFFFFF" d="M124.682,50.476c-6.075,0-11.002,4.923-11.002,11c0,6.075,4.924,11.004,11.002,11.004
					c6.074,0,10.998-4.924,10.998-11.004C135.68,55.403,130.756,50.476,124.682,50.476z"/>
			</g>
		</g>
		<g>
			<g>
				<path fill="#FFFFFF" d="M105.43,31.226c-6.074,0-11.003,4.926-11.003,11.002c0,6.073,4.927,11.003,11.003,11.003
					c6.075,0,11.002-4.928,11.002-11.003C116.432,36.152,111.505,31.226,105.43,31.226z"/>
			</g>
		</g>
		<g>
			<g>
				<path fill="#FFFFFF" d="M143.928,31.226c-6.071,0-11,4.926-11,11.002c0,6.073,4.924,11.003,11,11.003
					c6.08,0,11.005-4.928,11.005-11.003C154.933,36.152,150.008,31.226,143.928,31.226z"/>
			</g>
		</g>
	</g>
	<g>
		<g>
			<g>
				<path fill="#010101" d="M124.682,11.975c-6.075,0-11.002,4.922-11.002,10.999c0,6.077,4.924,11.004,11.002,11.004
					c6.074,0,10.998-4.925,10.998-11.004C135.68,16.899,130.756,11.975,124.682,11.975z M124.682,28.477
					c-3.039,0-5.502-2.463-5.502-5.503c0-3.036,2.464-5.497,5.502-5.497c3.037,0,5.501,2.461,5.501,5.497
					C130.183,26.016,127.719,28.477,124.682,28.477z"/>
			</g>
		</g>
		<g>
			<g>
				<path fill="#010101" d="M124.682,50.476c-6.075,0-11.002,4.923-11.002,11c0,6.075,4.924,11.004,11.002,11.004
					c6.074,0,10.998-4.924,10.998-11.004C135.68,55.403,130.756,50.476,124.682,50.476z M124.682,66.978
					c-3.039,0-5.502-2.464-5.502-5.502c0-3.037,2.464-5.496,5.502-5.496c3.037,0,5.501,2.462,5.501,5.496
					C130.183,64.517,127.719,66.978,124.682,66.978z"/>
			</g>
		</g>
		<g>
			<g>
				<path fill="#010101" d="M105.43,31.226c-6.074,0-11.003,4.926-11.003,11.002c0,6.073,4.927,11.003,11.003,11.003
					c6.075,0,11.002-4.928,11.002-11.003C116.432,36.152,111.505,31.226,105.43,31.226z M105.43,47.728
					c-3.037,0-5.498-2.463-5.498-5.5c0-3.039,2.461-5.497,5.498-5.497c3.034,0,5.502,2.46,5.502,5.497S108.466,47.728,105.43,47.728
					z"/>
			</g>
		</g>
		<g>
			<g>
				<path fill="#010101" d="M143.928,31.226c-6.071,0-11,4.926-11,11.002c0,6.073,4.924,11.003,11,11.003
					c6.08,0,11.005-4.928,11.005-11.003C154.933,36.152,150.008,31.226,143.928,31.226z M143.928,47.728
					c-3.032,0-5.495-2.463-5.495-5.5c0-3.039,2.463-5.497,5.495-5.497c3.043,0,5.502,2.46,5.502,5.497
					C149.433,45.265,146.971,47.728,143.928,47.728z"/>
			</g>
		</g>
	</g>
</g>
</svg>
