<?xml version="1.0" encoding="utf-8"?>
<!-- Generator: Adobe Illustrator 16.0.0, SVG Export Plug-In . SVG Version: 6.00 Build 0)  -->
<!DOCTYPE svg PUBLIC "-//W3C//DTD SVG 1.1//EN" "http://www.w3.org/Graphics/SVG/1.1/DTD/svg11.dtd">
<svg version="1.1" id="Layer_1" xmlns="http://www.w3.org/2000/svg" xmlns:xlink="http://www.w3.org/1999/xlink" x="0px" y="0px"
	 width="57.169px" height="70.879px" viewBox="0 0 57.169 70.879" enable-background="new 0 0 57.169 70.879" xml:space="preserve">
<g>
	<path fill="#FADE52" stroke="#010101" stroke-width="2.4085" stroke-miterlimit="10" d="M37.427,5.364
		c-0.205-0.375-0.449-0.732-0.739-1.049c-1.036-1.1-2.359-1.483-3.778-1.834c-1.353-0.334-2.706-0.678-4.065-1.004
		c-3.621-0.873-6.121,0.332-7.316,3.827c-0.085,0.438-0.172,0.878-0.254,1.317c3.605,0,7.21-0.004,10.818-0.004
		c1.938-0.004,3.875-0.006,5.812-0.016C37.919,6.602,37.484,5.469,37.427,5.364z"/>
	<path fill="#FFFFFF" stroke="#010101" stroke-width="3" stroke-miterlimit="10" d="M55.664,61.936
		c0.002-0.404-0.004-0.807-0.006-1.195c-0.008-2.027,0-4.061,0.006-6.09c0.002-0.795,0.002-1.592,0-2.388
		c-0.016-5.89,0.02-17.41-0.002-23.301c-0.021-4.869-0.674-10.019-3.406-14.077c-2.139-3.178-4.855-5.992-8.38-7.316
		c-3.384-1.268-7.116-1.062-10.651-1.062c-5.873,0-11.747,0.01-17.621,0.01c-9.679,0-14.082,6.3-14.082,14.065v38.505v1.159
		L1.5,63.715c0,3.104,2.091,5.625,5.141,5.625c1.336,0,2.388-0.529,3.36-1.402c0.634-0.566,1.179-1.957,2.181-1.852
		c0.904,0.096,1.619,1.621,2.295,2.159c1.297,1.034,3.272,1.589,4.775,0.664c1.34-0.827,1.822-2.965,3.53-3.226
		c1.038-0.158,1.634,1.427,2.245,2.06c0.885,0.907,2.128,1.495,3.428,1.457c1.26-0.037,2.238-0.63,3.113-1.491
		c0.438-0.434,1.188-1.908,1.763-2.021c0.919-0.182,1.573,1.625,2.256,2.247c0.986,0.902,2.288,1.406,3.624,1.406
		c1.146,0,2.211-0.355,3.091-0.961c0.722-0.496,1.351-2.479,2.242-2.529c0.987-0.059,1.989,2.303,2.886,2.803
		c0.786,0.439,1.688,0.688,2.642,0.688c1.611,0,3.195-0.744,4.214-1.999C55.492,65.852,55.65,63.834,55.664,61.936z"/>
	<path d="M24.533,17.732c0.029,1.249-1.03,2.308-2.309,2.31c-1.226,0.002-2.219-0.928-2.275-2.142
		c-0.063-1.249,0.949-2.368,2.162-2.392C23.332,15.487,24.508,16.568,24.533,17.732z"/>
	<path d="M46.432,20.043c-1.203,0.008-2.258-0.996-2.299-2.193c-0.047-1.278,0.947-2.32,2.229-2.342
		c1.296-0.023,2.353,1.021,2.329,2.299C48.676,18.995,47.621,20.034,46.432,20.043z"/>
	<path fill="#FBDF53" d="M11.541,35.289c0.023-1.464,0.043-2.927,0.072-4.386c0.076-3.496,2.761-6.236,6.277-6.248
		c9.97-0.038,19.943-0.033,29.916-0.004c3.52,0.012,6.225,2.709,6.279,6.236c0.036,2.165,0.199,4.34-0.225,6.488
		c-1.393,3.121-3.803,4.372-7.204,4.338c-9.445-0.098-18.894-0.064-28.339-0.021c-3.191,0.02-5.244-1.562-6.488-4.328
		C11.556,36.758,11.631,35.985,11.541,35.289z"/>
	<path fill="none" stroke="#000000" stroke-width="2" stroke-linecap="round" stroke-miterlimit="10" d="M16.154,43.539v6.036
		c0,2.805-2.43,5.076-5.434,5.076l0,0c-2.999,0-5.432-2.268-5.432-5.076v-6.036"/>
	<g>
		<g>
			<path d="M19.717,34.67c9.848,0,19.695,0,29.543,0c1.935,0,1.935-3,0-3c-9.848,0-19.695,0-29.543,0
				C17.782,31.67,17.782,34.67,19.717,34.67L19.717,34.67z"/>
		</g>
	</g>
</g>
</svg>
