<?xml version="1.0" encoding="utf-8"?>
<!-- Generator: Adobe Illustrator 16.0.0, SVG Export Plug-In . SVG Version: 6.00 Build 0)  -->
<!DOCTYPE svg PUBLIC "-//W3C//DTD SVG 1.1//EN" "http://www.w3.org/Graphics/SVG/1.1/DTD/svg11.dtd">
<svg version="1.1" id="Layer_1" xmlns="http://www.w3.org/2000/svg" xmlns:xlink="http://www.w3.org/1999/xlink" x="0px" y="0px"
	 width="71.054px" height="71.053px" viewBox="0 0 71.054 71.053" enable-background="new 0 0 71.054 71.053" xml:space="preserve">
<g>
	<g>
		<path fill="#FFFFFF" d="M41.817,46.249c0.018,0.025,0.308,0.25,0.42,0.695c0.482,1.918,0.191,5.082-1.13,7.568
			c4.142-0.855,8.688-3.344,10.494-6.715c1.206-2.256,1.088-4.719-0.347-7.34C48.319,42.69,45.157,44.631,41.817,46.249z"/>
		<path fill="#FFFFFF" d="M24.724,29.155c1.617-3.34,3.559-6.502,5.789-9.439c-2.619-1.432-5.082-1.551-7.338-0.344
			c-3.373,1.805-5.859,6.352-6.715,10.494c3.699-1.967,7.346-1.182,7.533-1.141C24.456,28.829,24.703,29.141,24.724,29.155z"/>
	</g>
	<path fill="#FBDF53" d="M19.793,45.364c-1.895,1.895-2.893,6.34-3.301,9.148c2.809-0.408,7.254-1.406,9.148-3.301
		c1.061-1.063,1.864-2.291,2.317-3.529l-4.637-4.637C22.085,43.499,20.855,44.303,19.793,45.364z"/>
	<path fill="#FBDF53" d="M64.343,17.463L52.795,5.917c-6.313,2.339-11.581,5.588-15.663,9.671c-1.241,1.24-2.441,2.578-3.565,3.975
		c-2.701,3.354-4.988,7.045-6.811,10.984l12.956,12.957c3.94-1.822,7.631-4.109,10.985-6.811c1.396-1.125,2.732-2.324,3.975-3.566
		C58.755,29.045,62.004,23.776,64.343,17.463z"/>
	<g>
		<g>
			<path fill="#010101" stroke="#000000" stroke-width="0.5" stroke-miterlimit="10" d="M37.272,33.784
				c-0.54-0.539-1.413-0.539-1.95,0c-0.538,0.535-0.538,1.408,0,1.947c0.537,0.539,1.41,0.539,1.95,0
				C37.809,35.192,37.809,34.319,37.272,33.784z"/>
		</g>
	</g>
	<g>
		<g>
			<path fill="#010101" stroke="#000000" stroke-width="0.5" stroke-miterlimit="10" d="M70.399,0.653
				c-0.271-0.271-0.64-0.418-1.024-0.402c-0.311,0.01-7.729,0.309-16.547,3.426C45.762,6.172,39.871,9.743,35.32,14.293
				c-1.02,1.02-2.012,2.102-2.96,3.225c-4.499-2.648-8.104-1.818-10.383-0.598c-5.249,2.807-8.496,10.434-8.496,15.887
				c0.001,0.557,0.337,1.061,0.851,1.273c0.172,0.07,0.35,0.104,0.527,0.104c0.358,0,0.711-0.139,0.975-0.402
				c2.768-2.768,6.182-2.596,7.297-2.449l0.481,0.484c-0.949,2.26-1.714,4.508-2.276,6.691c-0.201,0.793-0.134,1.629,0.168,2.395
				c-1.326,0.611-2.607,1.51-3.722,2.625c-3.547,3.547-4.268,12.189-4.296,12.557c-0.031,0.402,0.113,0.797,0.398,1.082
				c0.26,0.26,0.611,0.404,0.975,0.404c0.036,0,0.072,0,0.109-0.004c0.365-0.029,9.011-0.748,12.558-4.295
				c1.114-1.115,2.011-2.396,2.623-3.721c0.812,0.316,1.646,0.357,2.396,0.166c2.185-0.563,4.431-1.326,6.691-2.275l0.482,0.48
				c0.146,1.115,0.319,4.529-2.447,7.297c-0.395,0.395-0.512,0.986-0.299,1.502c0.213,0.514,0.715,0.85,1.273,0.85
				c5.454,0,13.078-3.248,15.887-8.494c1.219-2.279,2.051-5.885-0.598-10.385c1.123-0.949,2.203-1.941,3.224-2.961
				c4.552-4.549,8.122-10.439,10.618-17.506c3.117-8.819,3.414-16.236,3.426-16.548C70.816,1.295,70.67,0.925,70.399,0.653z
				 M16.563,29.844c0.855-4.143,3.342-8.689,6.715-10.494c2.256-1.207,4.719-1.088,7.338,0.344c-2.23,2.938-4.172,6.1-5.789,9.439
				c-0.021-0.014-0.268-0.326-0.73-0.43C23.908,28.663,20.262,27.877,16.563,29.844z M25.578,51.323
				c-1.895,1.895-6.34,2.893-9.148,3.301c0.408-2.809,1.406-7.254,3.301-9.148c1.063-1.061,2.292-1.865,3.528-2.318l4.637,4.637
				C27.442,49.032,26.639,50.26,25.578,51.323z M31.859,47.045c-0.398,0.102-0.86-0.047-1.203-0.391
				c-1.783-1.781-2.48-2.479-2.699-2.697c-0.402-0.402-1.387-1.385-3.559-3.559c-0.344-0.346-0.494-0.807-0.393-1.205
				c0.441-1.719,1.02-3.482,1.722-5.264l11.396,11.396C35.342,46.028,33.578,46.604,31.859,47.045z M51.704,47.776
				c-1.806,3.371-6.353,5.859-10.494,6.715c1.321-2.486,1.612-5.65,1.13-7.568c-0.112-0.445-0.402-0.67-0.42-0.695
				c3.34-1.617,6.502-3.559,9.438-5.791C52.792,43.057,52.91,45.52,51.704,47.776z M54.811,33.782
				c-1.242,1.242-2.578,2.441-3.975,3.566c-3.354,2.701-7.045,4.988-10.985,6.811L26.895,31.202
				c1.822-3.939,4.109-7.631,6.811-10.984c1.124-1.396,2.324-2.734,3.565-3.975c4.082-4.083,9.351-7.332,15.663-9.67L64.481,18.12
				C62.143,24.43,58.894,29.7,54.811,33.782z M65.473,15.213l-9.632-9.632c5.247-1.63,9.813-2.24,12.091-2.46
				C67.713,5.401,67.102,9.966,65.473,15.213z"/>
		</g>
	</g>
	<g>
		<g>
			<path fill="#010101" stroke="#000000" stroke-width="0.5" stroke-miterlimit="10" d="M33.373,57.167
				c-0.539-0.537-1.41-0.537-1.949,0l-3.896,3.9c-0.537,0.537-0.537,1.41,0.001,1.947c0.538,0.539,1.409,0.539,1.948,0l3.896-3.898
				C33.911,58.579,33.911,57.706,33.373,57.167z"/>
		</g>
	</g>
	<g>
		<g>
			<path fill="#010101" stroke="#000000" stroke-width="0.5" stroke-miterlimit="10" d="M13.887,37.68
				c-0.538-0.539-1.411-0.539-1.949,0l-3.898,3.896C7.5,42.114,7.5,42.987,8.038,43.526c0.538,0.537,1.411,0.537,1.949,0
				l3.897-3.898C14.424,39.09,14.424,38.217,13.887,37.68z"/>
		</g>
	</g>
	<g>
		<g>
			<path fill="#010101" stroke="#000000" stroke-width="0.5" stroke-miterlimit="10" d="M23.629,59.116
				c-0.537-0.537-1.409-0.537-1.947,0l-9.336,9.334c-0.537,0.539-0.537,1.41,0,1.949c0.538,0.539,1.411,0.539,1.949,0l9.334-9.332
				C24.168,60.528,24.168,59.655,23.629,59.116z"/>
		</g>
	</g>
	<g>
		<g>
			<path fill="#010101" stroke="#000000" stroke-width="0.5" stroke-miterlimit="10" d="M12.605,59.116
				c-0.538-0.537-1.41-0.537-1.949,0L1.322,68.45c-0.538,0.539-0.538,1.41,0,1.949c0.537,0.539,1.41,0.539,1.949,0l9.334-9.332
				C13.145,60.528,13.145,59.655,12.605,59.116z"/>
		</g>
	</g>
	<g>
		<g>
			<path fill="#010101" stroke="#000000" stroke-width="0.5" stroke-miterlimit="10" d="M11.936,47.422
				c-0.537-0.539-1.41-0.539-1.949,0l-9.333,9.336c-0.538,0.537-0.538,1.41,0,1.949c0.539,0.537,1.412,0.537,1.95,0l9.334-9.336
				C12.475,48.834,12.475,47.961,11.936,47.422z"/>
		</g>
	</g>
	<g>
		<g>
			<path fill="#010101" stroke="#000000" stroke-width="0.5" stroke-miterlimit="10" d="M43.117,27.936
				c-0.539-0.539-1.41-0.539-1.949,0l-1.948,1.947c-0.538,0.539-0.538,1.412,0,1.949c0.539,0.539,1.411,0.539,1.948,0l1.949-1.949
				C43.655,29.346,43.655,28.473,43.117,27.936z"/>
		</g>
	</g>
	<path fill="#FFFFFF" d="M23.907,39.293c-0.102,0.398,0.049,0.859,0.393,1.205c2.172,2.172,3.156,3.156,3.559,3.557
		c0.219,0.221,0.916,0.916,2.699,2.699c0.343,0.342,0.805,0.492,1.203,0.391c1.719-0.441,3.482-1.018,5.264-1.721L25.629,34.03
		C24.927,35.811,24.349,37.573,23.907,39.293z"/>
	<path fill="#FFFFFF" d="M65.66,15.299c1.629-5.247,2.24-9.811,2.459-12.091c-2.278,0.22-6.844,0.83-12.091,2.46L65.66,15.299z"/>
	<path fill="#FFFFFF" d="M52.861,24.04c1.615-1.617,1.615-4.232,0-5.848s-4.231-1.615-5.847,0c-1.612,1.611-1.612,4.234,0,5.848
		C48.627,25.651,51.25,25.651,52.861,24.04z"/>
	<g>
		<g>
			<path fill="#010101" stroke="#000000" stroke-width="0.5" stroke-miterlimit="10" d="M54.811,16.243
				c-2.693-2.691-7.053-2.691-9.746,0c-2.686,2.688-2.686,7.057,0,9.746c2.688,2.684,7.059,2.686,9.746,0
				C57.502,23.295,57.503,18.936,54.811,16.243z M52.861,24.04c-1.611,1.611-4.234,1.611-5.847,0c-1.612-1.613-1.612-4.236,0-5.848
				c1.615-1.615,4.231-1.615,5.847,0S54.477,22.422,52.861,24.04z"/>
		</g>
	</g>
</g>
</svg>
