<?xml version="1.0" encoding="utf-8"?>
<!-- Generator: Adobe Illustrator 16.0.0, SVG Export Plug-In . SVG Version: 6.00 Build 0)  -->
<!DOCTYPE svg PUBLIC "-//W3C//DTD SVG 1.1//EN" "http://www.w3.org/Graphics/SVG/1.1/DTD/svg11.dtd">
<svg version="1.1" id="Layer_1" xmlns="http://www.w3.org/2000/svg" xmlns:xlink="http://www.w3.org/1999/xlink" x="0px" y="0px"
	 width="57.169px" height="70.88px" viewBox="-0.188 0.931 57.169 70.88" enable-background="new -0.188 0.931 57.169 70.88"
	 xml:space="preserve">
<g>
	<path fill="#F9DD52" stroke="#000000" stroke-width="2.4085" stroke-miterlimit="10" d="M37.237,6.295
		c-0.205-0.375-0.449-0.732-0.738-1.049c-1.037-1.1-2.359-1.482-3.779-1.834c-1.352-0.334-2.705-0.678-4.064-1.004
		c-3.621-0.873-6.121,0.332-7.316,3.828c-0.086,0.438-0.172,0.877-0.254,1.316c3.605,0,7.209-0.004,10.818-0.004
		c1.938-0.004,3.875-0.006,5.811-0.016C37.729,7.533,37.295,6.4,37.237,6.295z"/>
	<path fill="#FFFFFF" stroke="#000000" stroke-width="3" stroke-miterlimit="10" d="M55.475,62.868
		c0.002-0.404-0.004-0.807-0.006-1.195c-0.008-2.027,0-4.061,0.006-6.09c0.002-0.795,0.002-1.592,0-2.387
		c-0.016-5.891,0.02-17.411-0.002-23.301c-0.021-4.869-0.674-10.02-3.406-14.078c-2.139-3.178-4.855-5.992-8.381-7.316
		c-3.383-1.268-7.115-1.061-10.65-1.061c-5.873,0-11.748,0.01-17.621,0.01c-9.68,0-14.082,6.299-14.082,14.064V60.02v1.158
		l-0.021,3.469c0,3.104,2.09,5.625,5.141,5.625c1.336,0,2.387-0.529,3.359-1.402c0.635-0.566,1.18-1.957,2.182-1.852
		c0.904,0.096,1.619,1.621,2.295,2.16c1.297,1.033,3.271,1.588,4.775,0.664c1.34-0.828,1.822-2.965,3.529-3.227
		c1.039-0.158,1.635,1.428,2.246,2.061c0.885,0.906,2.127,1.494,3.428,1.457c1.259-0.037,2.238-0.631,3.113-1.492
		c0.438-0.434,1.188-1.908,1.762-2.02c0.92-0.182,1.574,1.625,2.256,2.246c0.986,0.902,2.289,1.406,3.625,1.406
		c1.146,0,2.211-0.355,3.09-0.961c0.723-0.496,1.352-2.479,2.242-2.529c0.988-0.059,1.99,2.303,2.887,2.803
		c0.785,0.439,1.688,0.688,2.641,0.688c1.611,0,3.195-0.744,4.215-1.998C55.303,66.784,55.461,64.766,55.475,62.868z"/>
	<path fill="#231F20" d="M24.345,18.664c0.029,1.248-1.031,2.307-2.309,2.309c-1.227,0.002-2.219-0.928-2.275-2.141
		c-0.064-1.25,0.949-2.369,2.162-2.393C23.144,16.418,24.319,17.5,24.345,18.664z"/>
	<path fill="#231F20" d="M46.243,20.975c-1.203,0.008-2.258-0.996-2.299-2.193c-0.047-1.277,0.947-2.32,2.229-2.342
		c1.297-0.023,2.354,1.021,2.33,2.299C48.487,19.926,47.432,20.965,46.243,20.975z"/>
	<path fill="#FADF53" d="M11.353,36.221c0.023-1.465,0.043-2.928,0.072-4.387c0.076-3.496,2.76-6.236,6.277-6.248
		c9.969-0.037,19.943-0.033,29.916-0.004c3.52,0.012,6.225,2.709,6.279,6.236c0.035,2.166,0.199,4.34-0.225,6.489
		c-1.393,3.121-3.803,4.373-7.205,4.338c-9.445-0.098-18.892-0.064-28.337-0.021c-3.191,0.02-5.244-1.561-6.488-4.328
		C11.366,37.69,11.442,36.917,11.353,36.221z"/>
	<path fill="none" stroke="#231F20" stroke-width="2" stroke-linecap="round" stroke-miterlimit="10" d="M15.966,44.471v6.035
		c0,2.805-2.43,5.076-5.434,5.076l0,0c-3,0-5.432-2.268-5.432-5.076v-6.035"/>
	<g>
		<g>
			<path fill="#231F20" d="M19.528,35.602c9.847,0,19.695,0,29.542,0c1.935,0,1.935-3,0-3c-9.848,0-19.695,0-29.542,0
				C17.594,32.602,17.594,35.602,19.528,35.602L19.528,35.602z"/>
		</g>
	</g>
</g>
</svg>
