<?xml version="1.0" encoding="utf-8"?>
<!-- Generator: Adobe Illustrator 16.0.0, SVG Export Plug-In . SVG Version: 6.00 Build 0)  -->
<!DOCTYPE svg PUBLIC "-//W3C//DTD SVG 1.1//EN" "http://www.w3.org/Graphics/SVG/1.1/DTD/svg11.dtd">
<svg version="1.1" id="Layer_1" xmlns="http://www.w3.org/2000/svg" xmlns:xlink="http://www.w3.org/1999/xlink" x="0px" y="0px"
	 width="72.813px" height="70.637px" viewBox="114.347 -0.594 72.813 70.637" enable-background="new 114.347 -0.594 72.813 70.637"
	 xml:space="preserve">
<g>
	<path fill="#FFFFFF" d="M174.99,67.042c0.637-2.582,0.789-5.318,0.495-8.029c-0.13-1.188-0.367-2.357-0.658-3.514
		c-0.504-2.018-1.217-3.986-2.167-5.836c-0.712-1.389-1.568-2.705-2.506-3.951c-1.665-2.223-3.516-4.303-5.395-6.344
		c-0.657-0.715-1.313-1.424-1.974-2.131l-0.103-0.109c-0.174-0.188-0.346-0.373-0.522-0.561c-0.701-0.766-1.376-1.559-2.063-2.34
		c3.074,0.092,7.867-0.023,9.41-1.543c0.282-0.279,0.563-0.5,0.701-0.889c0.288-0.809-0.663-0.926-1.22-1.006
		c-1.136-0.162-2.276-0.311-3.409-0.508c-2.113-0.369-4.295-0.84-6.344-1.48c-1.076-0.336-1.587-0.984-1.607-2.127
		c-0.002-0.225-0.015-0.453-0.015-0.676c-0.044-0.004-0.095-0.004-0.136-0.006c-1.247-0.021-2.5-0.08-3.748-0.109
		c-2.71-0.063-5.415-0.164-8.119-0.244c-1.538-0.047-3.068-0.09-4.609-0.133c-2.695-0.078-5.388-0.152-8.087-0.232v11.854v18.371
		v11.543H174.99z"/>
	<path fill-rule="evenodd" clip-rule="evenodd" fill="none" d="M119.56,44.63c0.636,0.316,67.601,0,67.601,0"/>
	<path fill="#FADF53" stroke="#231F20" stroke-width="2" stroke-miterlimit="10" d="M166.743,41.368
		c-0.045-0.055-0.083-0.111-0.124-0.17h-35.526l23.005,15.27L166.743,41.368z"/>
	<path fill-rule="evenodd" clip-rule="evenodd" fill="#231F20" d="M166.605,36.136c-3.448-2.172-5.969-2.152-7.301-0.936
		c-1.338-1.217-3.856-1.236-7.303,0.936c-3.693,2.318-5.807,7.74-5.807,7.74s6.634-0.084,10.326-2.404
		c1.287-0.809,2.194-1.605,2.783-2.361c0.582,0.756,1.489,1.553,2.779,2.361c3.691,2.32,10.328,2.404,10.328,2.404
		S170.297,38.454,166.605,36.136z"/>
	<g>
		<path fill-rule="evenodd" clip-rule="evenodd" fill="#FADF53" d="M116.27,23.775c-0.233,0-0.423-0.192-0.423-0.428
			c0-0.232,0.189-0.422,0.423-0.422h13.848l0.002-14.708c0-4.032,3.279-7.311,7.311-7.311c2.347,0,4.491,1.089,5.884,2.989
			l1.209,1.647l1.209-1.646c1.397-1.9,3.543-2.99,5.888-2.99c4.031,0,7.311,3.279,7.311,7.311v14.709h14.269
			c0.234,0,0.425,0.189,0.425,0.422c0,0.236-0.19,0.428-0.425,0.428H116.27z"/>
		<path fill="#231F20" d="M151.619,2.406c3.204,0,5.811,2.606,5.811,5.811v6.354v6.855v0.85h-25.813v-0.85V16.32h0.002v-3V8.216
			c0-3.204,2.606-5.811,5.811-5.811c1.863,0,3.567,0.866,4.675,2.376l2.416,3.294l2.42-3.291
			C148.052,3.273,149.757,2.406,151.619,2.406 M151.619-0.594c-2.914,0-5.49,1.418-7.096,3.602
			c-1.602-2.184-4.175-3.602-7.094-3.602c-4.866,0-8.811,3.945-8.811,8.811v5.104h-0.002v8.105H116.27
			c-1.061,0-1.923,0.861-1.923,1.922c0,1.064,0.862,1.928,1.923,1.928h56.929c1.061,0,1.925-0.863,1.925-1.928
			c0-1.061-0.864-1.922-1.925-1.922H160.43V14.57c0-0.012,0-0.02,0-0.035V8.216C160.43,3.351,156.484-0.594,151.619-0.594
			L151.619-0.594z"/>
	</g>
	<path fill="#FADF53" stroke="#231F20" stroke-width="2" stroke-miterlimit="10" d="M126.424,34.292
		c2.936,2.936,2.846,7.793,2.846,7.793s-4.859,0.09-7.793-2.846c-2.941-2.938-2.848-7.793-2.848-7.793
		S123.486,31.353,126.424,34.292z"/>
	<path fill="#FADF53" stroke="#231F20" stroke-width="2" stroke-miterlimit="10" d="M126.424,48.443
		c2.936-2.936,2.846-7.793,2.846-7.793s-4.859-0.09-7.793,2.846c-2.941,2.939-2.848,7.795-2.848,7.795
		S123.486,51.382,126.424,48.443z"/>
	<g>
		<path fill="#231F20" d="M132.915,25.275c2.699,0.08,5.392,0.154,8.087,0.232c1.541,0.043,3.071,0.086,4.609,0.133
			c2.704,0.08,5.409,0.182,8.119,0.244c1.248,0.029,2.501,0.088,3.748,0.109c0.041,0.002,0.092,0.002,0.136,0.006
			c0,0.223,0.013,0.451,0.015,0.676c0.021,1.143,0.531,1.791,1.607,2.127c2.049,0.641,4.23,1.111,6.344,1.48
			c1.133,0.197,2.273,0.346,3.409,0.508c0.557,0.08,1.508,0.197,1.22,1.006c-0.139,0.389-0.419,0.609-0.701,0.889
			c-1.306,1.286-4.94,1.566-7.891,1.566c-0.535,0-1.048-0.009-1.52-0.023c0.688,0.781,1.362,1.574,2.063,2.34
			c0.177,0.188,0.349,0.373,0.522,0.561c0.035,0.037,0.066,0.072,0.103,0.109c0.66,0.707,1.316,1.416,1.974,2.131
			c1.879,2.041,3.729,4.121,5.395,6.344c0.938,1.246,1.794,2.563,2.506,3.951c0.95,1.85,1.663,3.818,2.167,5.836
			c0.291,1.156,0.528,2.326,0.658,3.514c0.294,2.711,0.142,5.447-0.495,8.029h-42.075c0-6.064,0-11.543,0-11.543V37.128V25.275
			 M132.915,22.275c-0.779,0-1.529,0.303-2.09,0.848c-0.582,0.565-0.91,1.341-0.91,2.152v11.854v18.371v11.543c0,1.657,1.344,3,3,3
			h42.075c1.38,0,2.582-0.941,2.913-2.281c0.713-2.895,0.903-5.946,0.564-9.071c-0.132-1.211-0.371-2.493-0.731-3.923
			c-0.576-2.307-1.387-4.486-2.407-6.475c-0.75-1.462-1.659-2.896-2.777-4.384c-1.786-2.385-3.74-4.568-5.585-6.572
			c-0.128-0.139-0.256-0.278-0.385-0.417c3.004-0.475,4.292-1.369,5.031-2.097l0.103-0.1c0.337-0.323,0.964-0.923,1.318-1.918
			c0.382-1.072,0.284-2.17-0.273-3.095c-0.932-1.543-2.599-1.782-3.31-1.884l-0.808-0.114c-0.884-0.124-1.719-0.241-2.549-0.385
			c-2.104-0.367-3.903-0.775-5.479-1.241c-0.001-0.029-0.001-0.058-0.001-0.086c0-1.554-1.187-2.851-2.734-2.988
			c-0.086-0.007-0.18-0.012-0.27-0.015c-0.03-0.001-0.05-0.002-0.08-0.002c-0.681-0.012-1.363-0.035-2.045-0.058
			c-0.562-0.019-1.124-0.038-1.685-0.051c-1.743-0.041-3.483-0.097-5.224-0.153c-0.959-0.031-1.918-0.062-2.877-0.09
			c-1.538-0.047-3.07-0.09-4.615-0.133l-3.255-0.093c-1.608-0.046-3.216-0.091-4.826-0.139
			C132.974,22.275,132.944,22.275,132.915,22.275L132.915,22.275z"/>
	</g>
</g>
</svg>
