<?xml version="1.0" encoding="utf-8"?>
<!-- Generator: Adobe Illustrator 16.0.0, SVG Export Plug-In . SVG Version: 6.00 Build 0)  -->
<!DOCTYPE svg PUBLIC "-//W3C//DTD SVG 1.1//EN" "http://www.w3.org/Graphics/SVG/1.1/DTD/svg11.dtd">
<svg version="1.1" id="Layer_1" xmlns="http://www.w3.org/2000/svg" xmlns:xlink="http://www.w3.org/1999/xlink" x="0px" y="0px"
	 width="70.384px" height="70.385px" viewBox="0.978 1.031 70.384 70.385" enable-background="new 0.978 1.031 70.384 70.385"
	 xml:space="preserve">
<g>
	<g>
		<path fill="#FFFFFF" d="M42.401,46.844c0.018,0.025,0.304,0.247,0.417,0.689c0.476,1.898,0.188,5.033-1.12,7.496
			c4.102-0.848,8.607-3.313,10.395-6.652c1.193-2.234,1.076-4.674-0.344-7.27C48.841,43.32,45.712,45.24,42.401,46.844z"/>
		<path fill="#FFFFFF" d="M25.469,29.912c1.602-3.309,3.525-6.441,5.736-9.35c-2.596-1.418-5.037-1.535-7.27-0.342
			c-3.342,1.788-5.803,6.291-6.652,10.395c3.665-1.947,7.277-1.169,7.462-1.13C25.204,29.589,25.45,29.898,25.469,29.912z"/>
	</g>
	<path fill="#FADF53" d="M20.585,45.967c-1.877,1.877-2.865,6.281-3.27,9.063c2.784-0.404,7.188-1.394,9.061-3.271
		c1.053-1.051,1.848-2.27,2.299-3.494l-4.594-4.594C22.856,44.12,21.636,44.917,20.585,45.967z"/>
	<path fill="#FADF53" d="M64.714,18.332L53.274,6.894c-6.252,2.316-11.471,5.535-15.513,9.579c-1.231,1.228-2.42,2.554-3.532,3.938
		c-2.677,3.321-4.941,6.976-6.746,10.878l12.834,12.835c3.901-1.806,7.559-4.069,10.877-6.746c1.386-1.114,2.708-2.302,3.939-3.532
		C59.177,29.802,62.395,24.584,64.714,18.332z"/>
	<g>
		<g>
			<path stroke="#231F20" stroke-width="0.5" stroke-miterlimit="10" d="M37.899,34.496c-0.535-0.531-1.398-0.531-1.932,0
				s-0.533,1.396,0,1.93c0.533,0.533,1.396,0.533,1.932,0C38.43,35.891,38.43,35.027,37.899,34.496z"/>
		</g>
	</g>
	<g>
		<g>
			<path stroke="#231F20" stroke-width="0.5" stroke-miterlimit="10" d="M70.712,1.681c-0.268-0.27-0.634-0.415-1.016-0.399
				c-0.309,0.01-7.654,0.308-16.389,3.394c-7,2.471-12.832,6.01-17.342,10.516c-1.01,1.012-1.994,2.082-2.931,3.193
				c-4.458-2.623-8.029-1.8-10.284-0.592c-5.2,2.781-8.417,10.334-8.417,15.738c0,0.55,0.335,1.047,0.841,1.258
				c0.173,0.07,0.348,0.104,0.525,0.104c0.354,0,0.703-0.137,0.964-0.398c2.743-2.74,6.122-2.571,7.228-2.426l0.477,0.481
				c-0.938,2.237-1.695,4.464-2.254,6.627c-0.199,0.784-0.133,1.615,0.166,2.372c-1.313,0.604-2.582,1.496-3.688,2.598
				c-3.513,3.516-4.226,12.076-4.255,12.439c-0.03,0.399,0.112,0.789,0.396,1.072c0.258,0.258,0.605,0.4,0.967,0.4
				c0.033,0,0.07-0.002,0.107-0.004c0.361-0.027,8.926-0.742,12.438-4.255c1.103-1.104,1.991-2.372,2.599-3.685
				c0.803,0.313,1.629,0.354,2.374,0.163c2.162-0.556,4.386-1.313,6.626-2.253l0.479,0.477c0.146,1.104,0.316,4.486-2.424,7.227
				c-0.391,0.392-0.508,0.978-0.297,1.486c0.212,0.511,0.709,0.844,1.261,0.844c5.402,0,12.954-3.219,15.735-8.415
				c1.208-2.257,2.031-5.83-0.592-10.286c1.113-0.938,2.184-1.923,3.194-2.932c4.509-4.507,8.045-10.341,10.517-17.338
				c3.089-8.738,3.382-16.084,3.394-16.393C71.126,2.316,70.979,1.95,70.712,1.681z M17.385,30.594
				c0.848-4.104,3.311-8.604,6.652-10.395c2.234-1.193,4.674-1.076,7.266,0.342c-2.207,2.91-4.133,6.041-5.732,9.35
				c-0.021-0.014-0.266-0.323-0.724-0.425C24.661,29.425,21.05,28.647,17.385,30.594z M26.317,51.868
				c-1.877,1.879-6.282,2.868-9.063,3.27c0.404-2.782,1.394-7.184,3.268-9.06c1.055-1.053,2.271-1.848,3.496-2.298l4.594,4.593
				C28.163,49.598,27.366,50.818,26.317,51.868z M32.538,47.633c-0.395,0.102-0.854-0.047-1.192-0.388
				c-1.765-1.766-2.458-2.454-2.673-2.673c-0.4-0.396-1.375-1.369-3.525-3.523c-0.341-0.341-0.49-0.797-0.39-1.193
				c0.438-1.702,1.011-3.449,1.707-5.215l11.287,11.289C35.987,46.625,34.241,47.196,32.538,47.633z M52.194,48.355
				c-1.789,3.34-6.292,5.805-10.395,6.652c1.309-2.463,1.598-5.598,1.12-7.496c-0.112-0.442-0.4-0.664-0.417-0.688
				c3.307-1.604,6.441-3.525,9.348-5.738C53.27,43.681,53.387,46.121,52.194,48.355z M55.27,34.494
				c-1.229,1.232-2.553,2.42-3.938,3.533c-3.322,2.677-6.978,4.941-10.879,6.746L27.62,31.938c1.805-3.901,4.07-7.557,6.746-10.878
				c1.113-1.384,2.303-2.709,3.531-3.938c4.042-4.044,9.262-7.263,15.515-9.579L64.85,18.98
				C62.534,25.232,59.315,30.453,55.27,34.494z M65.831,16.101l-9.539-9.539c5.197-1.615,9.719-2.22,11.977-2.438
				C68.052,6.385,67.446,10.905,65.831,16.101z"/>
		</g>
	</g>
	<g>
		<g>
			<path stroke="#231F20" stroke-width="0.5" stroke-miterlimit="10" d="M34.036,57.658c-0.533-0.533-1.396-0.533-1.93,0
				l-3.86,3.862c-0.53,0.532-0.53,1.397,0.003,1.93c0.533,0.533,1.396,0.533,1.928,0l3.859-3.862
				C34.57,59.054,34.57,58.191,34.036,57.658z"/>
		</g>
	</g>
	<g>
		<g>
			<path stroke="#231F20" stroke-width="0.5" stroke-miterlimit="10" d="M14.735,38.358c-0.533-0.536-1.396-0.536-1.93,0
				l-3.863,3.857c-0.533,0.532-0.533,1.396,0,1.929s1.398,0.533,1.93,0l3.861-3.857C15.267,39.753,15.267,38.887,14.735,38.358z"/>
		</g>
	</g>
	<g>
		<g>
			<path stroke="#231F20" stroke-width="0.5" stroke-miterlimit="10" d="M24.385,59.588c-0.533-0.531-1.396-0.531-1.931,0
				l-9.245,9.246c-0.533,0.533-0.533,1.396,0,1.932c0.533,0.533,1.396,0.533,1.929,0l9.247-9.245
				C24.92,60.986,24.92,60.123,24.385,59.588z"/>
		</g>
	</g>
	<g>
		<g>
			<path stroke="#231F20" stroke-width="0.5" stroke-miterlimit="10" d="M13.467,59.588c-0.532-0.531-1.396-0.531-1.931,0
				l-9.244,9.246c-0.535,0.533-0.535,1.396,0,1.932c0.529,0.533,1.396,0.533,1.928,0l9.247-9.245
				C13.999,60.986,13.999,60.123,13.467,59.588z"/>
		</g>
	</g>
	<g>
		<g>
			<path stroke="#231F20" stroke-width="0.5" stroke-miterlimit="10" d="M12.803,48.007c-0.533-0.534-1.398-0.534-1.932,0
				l-9.244,9.247c-0.533,0.531-0.533,1.397,0,1.93c0.533,0.533,1.398,0.533,1.932,0l9.246-9.246
				C13.337,49.404,13.337,48.541,12.803,48.007z"/>
		</g>
	</g>
	<g>
		<g>
			<path stroke="#231F20" stroke-width="0.5" stroke-miterlimit="10" d="M43.688,28.705c-0.533-0.533-1.396-0.533-1.932,0
				l-1.93,1.93c-0.533,0.533-0.533,1.396,0,1.93c0.535,0.533,1.398,0.533,1.93,0l1.932-1.93
				C44.22,30.101,44.22,29.237,43.688,28.705z"/>
		</g>
	</g>
	<path fill="#FFFFFF" d="M24.661,39.953c-0.1,0.396,0.049,0.853,0.39,1.193c2.15,2.154,3.126,3.127,3.524,3.523
		c0.217,0.219,0.908,0.909,2.674,2.675c0.339,0.339,0.797,0.487,1.189,0.386c1.705-0.437,3.453-1.008,5.215-1.703L26.365,34.738
		C25.671,36.504,25.099,38.252,24.661,39.953z"/>
	<path fill="#FFFFFF" d="M66.018,16.189c1.611-5.199,2.219-9.719,2.435-11.979c-2.256,0.217-6.778,0.822-11.978,2.437L66.018,16.189
		z"/>
	<path fill="#FFFFFF" d="M53.341,24.842c1.6-1.598,1.6-4.188,0-5.787c-1.601-1.602-4.191-1.602-5.791,0
		c-1.597,1.595-1.597,4.193,0,5.787C49.145,26.441,51.744,26.441,53.341,24.842z"/>
	<g>
		<g>
			<path stroke="#231F20" stroke-width="0.5" stroke-miterlimit="10" d="M55.27,17.123c-2.667-2.666-6.986-2.666-9.652,0
				c-2.66,2.663-2.66,6.99,0,9.652c2.66,2.659,6.99,2.661,9.652,0C57.936,24.109,57.936,19.792,55.27,17.123z M53.341,24.842
				c-1.597,1.6-4.195,1.6-5.791,0c-1.597-1.594-1.597-4.192,0-5.787c1.6-1.602,4.19-1.602,5.791,0
				C54.94,20.653,54.94,23.244,53.341,24.842z"/>
		</g>
	</g>
</g>
</svg>
