<?xml version="1.0" encoding="utf-8"?>
<!-- Generator: Adobe Illustrator 16.0.0, SVG Export Plug-In . SVG Version: 6.00 Build 0)  -->
<!DOCTYPE svg PUBLIC "-//W3C//DTD SVG 1.1//EN" "http://www.w3.org/Graphics/SVG/1.1/DTD/svg11.dtd">
<svg version="1.1" id="Layer_1" xmlns="http://www.w3.org/2000/svg" xmlns:xlink="http://www.w3.org/1999/xlink" x="0px" y="0px"
	 width="76.445px" height="70.207px" viewBox="-2.6 -1.88 76.445 70.207" enable-background="new -2.6 -1.88 76.445 70.207"
	 xml:space="preserve">
<g>
	<rect x="8.357" y="9.235" fill="#FADF53" width="54" height="48.406"/>
	<path fill="#FFFFFF" stroke="#231F20" stroke-width="3" stroke-miterlimit="10" d="M14.134,11.675c0,1.666-1.35,3.016-3.014,3.016
		H1.913c-1.666,0-3.014-1.35-3.014-3.016V2.634c0-1.664,1.348-3.014,3.014-3.014h9.207c1.664,0,3.014,1.35,3.014,3.014V11.675z"/>
	<path fill="#FFFFFF" stroke="#231F20" stroke-width="3" stroke-miterlimit="10" d="M72.345,11.675c0,1.666-1.352,3.016-3.018,3.016
		h-9.209c-1.662,0-3.014-1.35-3.014-3.016V2.634c0-1.664,1.352-3.014,3.014-3.014h9.209c1.666,0,3.018,1.35,3.018,3.014V11.675z"/>
	<path fill="#FFFFFF" stroke="#231F20" stroke-width="3" stroke-miterlimit="10" d="M72.345,63.813c0,1.662-1.352,3.014-3.018,3.014
		h-9.209c-1.662,0-3.014-1.352-3.014-3.014v-9.043c0-1.664,1.352-3.014,3.014-3.014h9.209c1.666,0,3.018,1.35,3.018,3.014V63.813z"
		/>
	<path fill="#FFFFFF" stroke="#231F20" stroke-width="3" stroke-miterlimit="10" d="M14.134,63.813c0,1.662-1.35,3.014-3.014,3.014
		H1.913c-1.666,0-3.014-1.352-3.014-3.014v-9.043c0-1.664,1.348-3.014,3.014-3.014h9.207c1.664,0,3.014,1.35,3.014,3.014V63.813z"/>
	<line fill="none" stroke="#231F20" stroke-width="3" stroke-miterlimit="10" x1="8.357" y1="52.081" x2="8.357" y2="15.099"/>
	<line fill="none" stroke="#231F20" stroke-width="3" stroke-miterlimit="10" x1="56.45" y1="57.642" x2="14.134" y2="57.642"/>
	<line fill="none" stroke="#231F20" stroke-width="3" stroke-miterlimit="10" x1="62.357" y1="15.099" x2="62.357" y2="52.093"/>
	<line fill="none" stroke="#231F20" stroke-width="3" stroke-miterlimit="10" x1="13.468" y1="9.235" x2="57.118" y2="9.235"/>
	<g>
		
			<line fill="none" stroke="#231F20" stroke-width="3" stroke-linecap="round" stroke-linejoin="round" stroke-miterlimit="10" x1="35.29" y1="21.974" x2="35.29" y2="44.349"/>
		
			<line fill="none" stroke="#231F20" stroke-width="3" stroke-linecap="round" stroke-linejoin="round" stroke-miterlimit="10" x1="46.478" y1="21.974" x2="24.105" y2="21.974"/>
		
			<line fill="none" stroke="#231F20" stroke-width="3" stroke-linecap="round" stroke-linejoin="round" stroke-miterlimit="10" x1="40.806" y1="45.214" x2="29.777" y2="45.214"/>
		
			<line fill="none" stroke="#231F20" stroke-width="3" stroke-linecap="round" stroke-linejoin="round" stroke-miterlimit="10" x1="24.105" y1="28.175" x2="24.105" y2="22.243"/>
		
			<line fill="none" stroke="#231F20" stroke-width="3" stroke-linecap="round" stroke-linejoin="round" stroke-miterlimit="10" x1="46.478" y1="28.175" x2="46.478" y2="22.243"/>
	</g>
</g>
</svg>
