<?xml version="1.0" encoding="utf-8"?>
<!-- Generator: Adobe Illustrator 16.0.0, SVG Export Plug-In . SVG Version: 6.00 Build 0)  -->
<!DOCTYPE svg PUBLIC "-//W3C//DTD SVG 1.1//EN" "http://www.w3.org/Graphics/SVG/1.1/DTD/svg11.dtd">
<svg version="1.1" id="Layer_1" xmlns="http://www.w3.org/2000/svg" xmlns:xlink="http://www.w3.org/1999/xlink" x="0px" y="0px"
	 width="497.261px" height="342.005px" viewBox="-559.63 546.487 497.261 342.005"
	 enable-background="new -559.63 546.487 497.261 342.005" xml:space="preserve">
<path fill="#FFFFFF" d="M-281.225,730.14c-0.48-5.778-1.69-12.12-3.85-17.528c-7.57-18.91-23.59-32.931-37.97-46.69
	c-7.76-7.43-15.48-14.88-23.17-22.37c-7.18-6.99-14.56-13.8-22.39-20.06c-5.65-4.521-11.49-8.82-17.53-12.82
	c-14.97-9.88-31.18-20.5-48.65-25.3c-12.82-3.53-26.83-6.16-40.15-4.79c-19.83,2.04-36.62,14.77-49.38,29.35
	c-3.89,4.45-7.56,9.42-10.54,14.54c-2.51,4.33-4.46,9.101-5.86,13.9c-1.73,5.898-2.57,12.019-2.92,18.148
	c-1,17.54,5.11,35.16,16.05,48.82c0.85,1.062,1.72,2.09,2.61,3.102c2.69,3.04,5.6,5.868,8.64,8.55c5.02,4.42,10.27,8.7,15.67,12.648
	c10.71,7.83,22.03,14.811,33.7,21.11c0,0,16.79,11.34,41.85,23.42l-0.01-0.249c-5.4-2.89-8.85-7.27-8.85-12.17
	c0-2.13,0.66-4.16,1.84-6.01c-4.72-2.88-7.67-6.96-7.67-11.49c0-8.7,10.86-15.75,24.25-15.75c0.24,0,0.47,0.01,0.71,0.01
	c-0.08-0.52-0.13-1.05-0.13-1.59c0-8.7,10.86-15.75,24.25-15.75c7.97,0,15.04,2.49,19.46,6.34c2.89,0.07,5.66,0.45,8.21,1.12
	c4.1-2.06,9.25-3.3,14.83-3.3c13.4,0,24.25,7.06,24.25,15.75c0,1.41-0.28,2.769-0.81,4.07c9.23,2.22,15.81,8,15.81,14.77
	c0,6.42-5.92,11.941-14.4,14.39l-0.05,1.23c5.04,0.01,10.36,0.16,15.24,1.47c2.72,0.74,5.3,1.811,7.69,3.19
	c3.7-3.55,7.66-6.892,10.94-10.79C-282.655,751.21-280.355,740.67-281.225,730.14z M-438.665,677.67
	c-1.15,8.28-11.74,14.771-24.64,14.771c-12.9,0-23.49-6.491-24.64-14.771c-0.07-0.49-0.11-0.99-0.11-1.5
	c0-8.991,11.08-16.27,24.75-16.27c13.67,0,24.75,7.279,24.75,16.27C-438.555,676.68-438.595,677.18-438.665,677.67z"/>
<ellipse opacity="0.08" cx="-295.833" cy="842.409" rx="224.333" ry="46.083"/>
<path fill="#FFFFFF" d="M-312.645,802.48c0.39,1.618,0.95,3.238,1.68,4.85c1.1,2.42,3.61,4.25,6.4,5.42
	c-4.51,6.93-12.36,12.46-21.43,12.59l0.01-0.29v-0.01l1-22.46h0.01c4.1,0.15,8.18,0.13,12.23-0.08L-312.645,802.48z"/>
<path fill="#FFFFFF" d="M-317.925,784.05c2.34,0.521,4.47,1.17,6.38,1.94c-1.95,5.35-2.46,10.938-1.1,16.49l-0.1,0.02
	c-4.05,0.21-8.13,0.23-12.23,0.08h-0.01l0.69-15.45l0.03-0.57l0.15-3.56C-321.915,783.27-319.855,783.62-317.925,784.05z"/>
<path fill="#FFFFFF" d="M-235.625,678c0,0,39.86,14.6,49.71,20.74c7.1,8.229,13.09,17.18,19.36,26.26
	c10.33,14.94,22.65,21.56,35.33,24.16v0.01c0,0-2.49,11.48-8.81,14.82c-4.65-0.09-9.44,0.188-13.7,1.148
	c0.17,5.13,1.37,52.7-8.38,71.67l0.01,0.062c-0.51,0.069-1.02,0.14-1.52,0.21c-53.56,7.32-75.76-9.41-75.76-9.41
	c-19.67,3.28-39.92,4.11-59.5,3.41c6.23-5.08,10.9-11.57,13.41-18.94c10.95-3.81,20.77-12.028,28.46-19.979
	c14.58-15.07,25.65-35.142,26.72-56.392C-229.375,717.28-228.375,695.41-235.625,678z"/>
<path fill="#FFF1AE" d="M-131.225,749.16c10.22,2.09,20.68,1.56,30.5,0.67c22-2,33.5,5.67,34.67,16
	c1.17,10.34-12.83,10.67-12.83,10.67c15.66,1.33,17.5,8.33,16.16,13.83c-1.33,5.5-11.16,7.84-11.16,7.84
	c8,6.83,3.33,12.83,3.33,12.83c-7.35,8.94-19.9,3.65-20.93,3.2c1.27-8.95-6.74-11.87-6.74-11.87s7-1.16,9.34-7
	c2.33-5.83,1.83-20.5-29.34-28.83c0,0-10.48-2.33-21.81-2.51c6.32-3.34,8.81-14.82,8.81-14.82V749.16z"/>
<path fill="#FFF1AE" d="M-91.485,814.2c-0.08,0.63-0.21,1.28-0.4,1.97c-2.84,10.5-13.67,5.83-8,13c0.77,0.98,1.49,2.19,1.96,3.35
	c0.64,1.58,0.62,3.33,0.34,5c-0.24,1.422-1.09,3.36-2.19,4.32c-2.67,2.32-6.42,1.68-9.64,1.43c-3.02-0.238-6.02-0.908-8.98-1.528
	c-2.87-0.602-5.71-1.3-8.49-2.222c-2.96-0.979-5.96-1.988-8.84-3.188c-7.33-3-25,0.34-25,0.34c-0.46,0.07-0.92,0.13-1.38,0.2
	l-0.01-0.062c9.75-18.97,8.55-66.54,8.38-71.67c4.26-0.96,9.05-1.238,13.7-1.148c11.33,0.18,21.81,2.51,21.81,2.51
	c31.17,8.33,31.67,23,29.34,28.83c-2.34,5.84-9.34,7-9.34,7S-90.215,805.25-91.485,814.2z"/>
<path d="M-185.915,698.739c-2.86-3.33-5.91-6.55-9.23-9.602c-19.49-17.908-43.61-30.448-67.22-42
	c-17.5-8.55-35.87-15.229-53.26-24.028c-17.53-8.87-33.37-20.879-47.3-34.69c-16.99-16.849-35.7-29.889-58.78-36.899
	c-24.11-7.329-54.12-6.75-77.69,2.381c-15.19,5.869-31.261,16.313-39.91,30.098c-43.445,69.25-6.46,108.17,11.63,125.67l2.7-1.229
	c-0.89-1.012-1.76-2.04-2.61-3.102c-10.94-13.66-17.05-31.28-16.05-48.82c0.35-6.129,1.19-12.25,2.92-18.148
	c1.4-4.799,3.35-9.57,5.86-13.9c2.98-5.12,6.65-10.09,10.54-14.54c12.76-14.579,29.55-27.31,49.38-29.35
	c13.32-1.37,27.33,1.26,40.15,4.79c17.47,4.8,33.68,15.42,48.65,25.3c6.04,4,11.88,8.299,17.53,12.82
	c7.83,6.26,15.21,13.069,22.39,20.06c7.69,7.49,15.41,14.94,23.17,22.37c14.38,13.759,30.4,27.78,37.97,46.69
	c2.16,5.408,3.37,11.75,3.85,17.528c0.87,10.531-1.43,21.071-8.33,29.271c-3.28,3.898-7.24,7.24-10.94,10.79
	c0.96,0.541,0.96,0.541,0,0.001c-3.32,3.17-6.44,6.51-8.69,10.6c-0.93,1.7-1.73,3.431-2.36,5.19c-1.95,5.349-2.46,10.938-1.1,16.49
	c0.39,1.619,0.95,3.239,1.68,4.85c1.1,2.42,3.61,4.25,6.4,5.42c2.564-3.921,2.564-3.92,0,0c2.6,1.1,5.44,1.64,7.65,1.58
	c3.92-0.11,7.75-0.889,11.44-2.19l0-0.001c10.95-3.809,20.77-12.028,28.459-19.979c14.58-15.071,25.65-35.141,26.72-56.391
	c0.92-18.49,1.92-40.36-5.33-57.771C-235.625,677.999-195.765,692.598-185.915,698.739z"/>
<path fill="#F4F4F4" d="M-296.915,814.33c-2.21,0.06-5.05-0.48-7.65-1.58c-4.51,6.93-12.36,12.46-21.43,12.59l0.01-0.29
	c-0.23,0.59-0.74,2.062-1.18,4.03c-0.77,3.49-1.31,8.59,0.43,13.33l0.01-0.03c10.8-1.188,20.42-5.25,27.84-11.3
	c6.23-5.08,10.9-11.57,13.41-18.94C-289.165,813.44-292.995,814.22-296.915,814.33z"/>
<path fill="#FFFFFF" d="M-324.785,735.15c0.53-1.302,0.81-2.66,0.81-4.07c0-8.69-10.85-15.75-24.25-15.75
	c-5.58,0-10.73,1.24-14.83,3.3c-2.55-0.67-5.32-1.05-8.21-1.12c-4.42-3.85-11.49-6.34-19.46-6.34c-13.39,0-24.25,7.05-24.25,15.75
	c0,0.54,0.05,1.07,0.13,1.59c-0.24,0-0.47-0.01-0.71-0.01c-13.39,0-24.25,7.05-24.25,15.75c0,4.53,2.95,8.61,7.67,11.49
	c-1.18,1.85-1.84,3.88-1.84,6.01c0,4.9,3.45,9.28,8.85,12.17c4.19,2.24,9.56,3.58,15.4,3.58c1,0,1.99-0.04,2.96-0.12
	c3.55,5.83,12.3,9.95,22.54,9.95c9.86,0,18.33-3.811,22.13-9.29c2.61,0.62,5.43,0.96,8.37,0.96c12.22,0,22.32-5.87,24-13.5
	c2.23-0.21,4.36-0.61,6.35-1.189c8.48-2.449,14.4-7.971,14.4-14.391C-308.975,743.15-315.555,737.37-324.785,735.15z"/>
<path fill="#FFF1AE" d="M-374.325,794.02c-22.91-0.71-41.85-6.238-50.43-9.18l0.82,24.11l1.63,48.3c0,0,9.49,20.75,49.75,20.5
	c40-0.25,45.25-22,45.25-22l0.57-13.34c-1.74-4.74-1.2-9.84-0.43-13.33c0.44-1.97,0.95-3.44,1.18-4.03v-0.01l1-22.46l0.69-15.45
	l0.03-0.57C-341.455,792.79-358.795,794.51-374.325,794.02z"/>
<path fill="#F4F4F4" d="M-308.185,767.01c-4.88-1.31-10.2-1.46-15.24-1.47l0.05-1.229c-1.99,0.579-4.12,0.979-6.35,1.189
	c-1.68,7.63-11.78,13.5-24,13.5c-2.94,0-5.76-0.34-8.37-0.96c-3.8,5.479-12.27,9.29-22.13,9.29c-10.24,0-18.99-4.12-22.54-9.95
	c-0.97,0.08-1.96,0.12-2.96,0.12c-5.84,0-11.21-1.34-15.4-3.58l0.01,0.25l0.36,10.67c8.58,2.94,27.52,8.47,50.43,9.18
	c15.53,0.49,32.87-1.229,50.06-7.46l0.15-3.56c2.2,0.27,4.26,0.62,6.19,1.05c2.34,0.521,4.47,1.17,6.38,1.94
	c0.63-1.761,1.43-3.49,2.36-5.19c2.25-4.09,5.37-7.43,8.69-10.6C-302.885,768.82-305.465,767.75-308.185,767.01z"/>
<path fill="#FC9141" d="M-462.995,674.47c12.73,0,22.74,2.16,22.74,3.011s-10.13,3.461-22.87,3.461c-12.73,0-23.23-2.61-23.23-3.461
	S-475.725,674.47-462.995,674.47z"/>
<path d="M-466.965,750.75c0,0,16.79,11.34,41.85,23.42l0.36,10.67l0.82,24.11c-1.88-0.61-2.87-0.95-2.87-0.95
	c-7.75,4.25-54.75,23.25-74.25,8.5s-12.75-47.5-12.75-47.5c2.5-15.75-5.25-17.5-5.25-17.5s-26.75-2-28.25-20.25
	s20.75-20.5,20.75-20.5c-0.36-0.35-0.73-0.71-1.12-1.08l2.7-1.229c2.69,3.039,5.6,5.868,8.64,8.55c5.02,4.42,10.27,8.7,15.67,12.648
	C-489.955,737.47-478.635,744.45-466.965,750.75z"/>
<path fill="#F9BE8F" d="M-438.665,677.67c-1.15,8.28-11.74,14.771-24.64,14.771c-12.9,0-23.49-6.49-24.64-14.771l1.59-0.189
	c0,0.851,10.5,3.461,23.23,3.461c12.74,0,22.87-2.61,22.87-3.461L-438.665,677.67z"/>
<path fill="#F9BE8F" d="M-462.995,674.47c-12.73,0-23.36,2.16-23.36,3.011l-1.59,0.189c-0.07-0.49-0.11-0.99-0.11-1.5
	c0-8.99,11.08-16.27,24.75-16.27c13.67,0,24.75,7.278,24.75,16.27c0,0.51-0.04,1.01-0.11,1.5l-1.59-0.189
	C-440.255,676.63-450.265,674.47-462.995,674.47z"/>
<path fill="none" stroke="#EFEFEF" stroke-width="3" stroke-miterlimit="10" d="M-323.375,764.31c8.48-2.448,14.4-7.97,14.4-14.39
	c0-6.77-6.58-12.55-15.81-14.77c0.53-1.302,0.81-2.66,0.81-4.07c0-8.69-10.85-15.75-24.25-15.75c-5.58,0-10.73,1.24-14.83,3.3
	c-2.55-0.67-5.32-1.05-8.21-1.12c-4.42-3.85-11.49-6.34-19.46-6.34c-13.39,0-24.25,7.05-24.25,15.75c0,0.54,0.05,1.07,0.13,1.59
	c-0.24,0-0.47-0.01-0.71-0.01c-13.39,0-24.25,7.05-24.25,15.75c0,4.53,2.95,8.61,7.67,11.49c-1.18,1.85-1.84,3.88-1.84,6.01
	c0,4.9,3.45,9.28,8.85,12.17c4.19,2.24,9.56,3.58,15.4,3.58c1,0,1.99-0.04,2.96-0.12c3.55,5.83,12.3,9.95,22.54,9.95
	c9.86,0,18.33-3.812,22.13-9.29c2.61,0.62,5.43,0.96,8.37,0.96c12.22,0,22.32-5.87,24-13.5
	C-327.495,765.29-325.365,764.89-323.375,764.31z"/>
</svg>
