<?xml version="1.0" encoding="utf-8"?>
<!-- Generator: Adobe Illustrator 16.0.0, SVG Export Plug-In . SVG Version: 6.00 Build 0)  -->
<!DOCTYPE svg PUBLIC "-//W3C//DTD SVG 1.1//EN" "http://www.w3.org/Graphics/SVG/1.1/DTD/svg11.dtd">
<svg version="1.1" id="Layer_1" xmlns="http://www.w3.org/2000/svg" xmlns:xlink="http://www.w3.org/1999/xlink" x="0px" y="0px"
	 width="35.998px" height="32.652px" viewBox="0 0 35.998 32.652" enable-background="new 0 0 35.998 32.652" xml:space="preserve">
<g>
	<g>
		<path fill="#CCA441" d="M10.07,20.418c0-3.797,1.131-6.786,3.393-8.968c2.26-2.182,5.451-3.271,9.57-3.271
			c4.12,0,7.312,1.11,9.571,3.332c2.263,2.224,3.394,5.19,3.394,8.906c0,3.715-1.131,6.686-3.394,8.902
			c-2.263,2.222-5.451,3.332-9.571,3.332c-4.119,0-7.311-1.089-9.57-3.271C11.201,27.202,10.07,24.214,10.07,20.418z"/>
	</g>
	<g>
		<path fill="#4A494A" d="M2.5,14.737c0-3.796,1.131-6.784,3.393-8.966C8.152,3.591,11.345,2.5,15.465,2.5
			c4.119,0,7.31,1.11,9.571,3.332c2.261,2.223,3.393,5.19,3.393,8.904c0,3.718-1.131,6.686-3.393,8.905
			c-2.264,2.221-5.452,3.332-9.571,3.332c-4.12,0-7.313-1.091-9.572-3.271C3.631,21.522,2.5,18.534,2.5,14.737z"/>
		<path d="M15.465,29.473c-4.773,0-8.578-1.337-11.308-3.973C1.399,22.844,0,19.221,0,14.737c0-4.483,1.399-8.105,4.158-10.765
			C6.887,1.336,10.692,0,15.465,0c4.778,0,8.588,1.362,11.323,4.048c2.748,2.702,4.141,6.297,4.141,10.688
			c0,4.396-1.394,7.992-4.142,10.689C24.049,28.112,20.24,29.473,15.465,29.473z M15.465,5c-3.481,0-6.044,0.841-7.835,2.57
			C5.86,9.277,5,11.62,5,14.737c0,3.117,0.859,5.461,2.628,7.164c1.793,1.731,4.356,2.572,7.837,2.572
			c3.468,0,6.025-0.855,7.82-2.616c1.778-1.746,2.644-4.075,2.644-7.121c0-3.042-0.865-5.372-2.646-7.122
			C21.492,5.855,18.935,5,15.465,5z"/>
	</g>
	<g>
		<path fill="#FFFFFF" d="M25.216,14.735c-0.654,0-1.252-0.438-1.425-1.103c-1.731-6.647-8.831-6.46-9.135-6.45
			c-0.019,0.001-0.036,0.002-0.055,0.002c-0.786,0-1.442-0.621-1.474-1.414c-0.033-0.812,0.594-1.496,1.404-1.532
			C17.9,4.092,24.769,5.71,26.642,12.889c0.205,0.788-0.268,1.593-1.055,1.798C25.464,14.72,25.338,14.735,25.216,14.735z"/>
	</g>
	<g>
		<circle fill="#FFFFFF" cx="25.983" cy="17.528" r="1.473"/>
	</g>
</g>
</svg>
