<?xml version="1.0" encoding="utf-8"?>
<!-- Generator: Adobe Illustrator 16.0.0, SVG Export Plug-In . SVG Version: 6.00 Build 0)  -->
<!DOCTYPE svg PUBLIC "-//W3C//DTD SVG 1.1//EN" "http://www.w3.org/Graphics/SVG/1.1/DTD/svg11.dtd">
<svg version="1.1" id="Layer_1" xmlns="http://www.w3.org/2000/svg" xmlns:xlink="http://www.w3.org/1999/xlink" x="0px" y="0px"
	 width="153.693px" height="203.596px" viewBox="0 0 153.693 203.596" enable-background="new 0 0 153.693 203.596"
	 xml:space="preserve">
<g>
	<g>
		<path fill="#CCA441" d="M65.644,86.98h64.444c3.459,0,6.373,0.631,8.733,1.89c2.36,1.263,4.326,2.915,5.9,4.958
			c1.571,2.047,2.715,4.29,3.424,6.728c0.708,2.441,1.063,4.839,1.063,7.2c0,2.358-0.354,4.722-1.063,7.082
			c-0.709,2.357-1.813,4.523-3.306,6.491c-1.497,1.97-3.464,3.541-5.901,4.722c-2.44,1.18-5.394,1.771-8.853,1.771H65.644v27.619
			c0,2.833,0.472,4.687,1.416,5.548c0.942,0.867,2.752,1.301,5.43,1.301h62.084c3.462,0,6.41,0.59,8.854,1.77
			c2.438,1.182,4.402,2.756,5.899,4.722c1.493,1.971,2.596,4.174,3.307,6.609c0.707,2.442,1.062,4.839,1.062,7.2
			c0,2.358-0.354,4.803-1.062,7.316c-0.711,2.521-1.854,4.804-3.424,6.848c-1.574,2.048-3.541,3.698-5.9,4.957
			c-2.359,1.258-5.273,1.889-8.734,1.889h-80.5c-7.081,0-12.982-0.671-17.705-2.006c-4.722-1.336-8.497-3.501-11.33-6.492
			c-2.834-2.987-4.84-6.846-6.021-11.566c-1.18-4.723-1.771-10.466-1.771-17.232V50.862c0-6.765,0.592-12.512,1.771-17.229
			c1.182-4.723,3.188-8.577,6.021-11.569c2.833-2.985,6.608-5.15,11.33-6.491c4.723-1.335,10.624-2.006,17.705-2.006h78.138
			c3.46,0,6.374,0.631,8.734,1.89c2.36,1.262,4.326,2.915,5.901,4.958c1.57,2.047,2.714,4.329,3.423,6.845
			c0.707,2.52,1.063,4.959,1.063,7.317c0,2.36-0.354,4.763-1.063,7.2c-0.709,2.441-1.813,4.646-3.307,6.609
			c-1.496,1.971-3.464,3.54-5.9,4.721c-2.44,1.183-5.394,1.771-8.854,1.771H72.489c-2.678,0-4.485,0.436-5.43,1.299
			c-0.944,0.866-1.416,2.714-1.416,5.548L65.644,86.98L65.644,86.98z"/>
	</g>
	<g>
		<path fill="#4A494A" d="M50.894,75.916h64.444c3.46,0,6.374,0.631,8.733,1.889c2.361,1.262,4.327,2.914,5.902,4.958
			c1.57,2.047,2.715,4.289,3.423,6.727c0.708,2.441,1.063,4.842,1.063,7.201s-0.354,4.723-1.063,7.081
			c-0.708,2.36-1.813,4.526-3.307,6.492c-1.496,1.969-3.463,3.54-5.901,4.721c-2.44,1.182-5.393,1.771-8.853,1.771H50.894v27.619
			c0,2.833,0.474,4.686,1.416,5.548c0.943,0.867,2.752,1.298,5.43,1.298h62.084c3.462,0,6.411,0.592,8.854,1.771
			c2.438,1.182,4.403,2.756,5.9,4.722c1.492,1.97,2.598,4.172,3.307,6.607c0.708,2.443,1.062,4.842,1.062,7.201
			c0,2.361-0.354,4.805-1.062,7.317c-0.709,2.52-1.853,4.802-3.425,6.848c-1.573,2.046-3.541,3.697-5.899,4.956
			c-2.36,1.257-5.274,1.89-8.735,1.89h-80.5c-7.081,0-12.982-0.673-17.705-2.008c-4.723-1.336-8.497-3.501-11.331-6.49
			c-2.832-2.986-4.839-6.848-6.021-11.567c-1.181-4.721-1.771-10.464-1.771-17.232V39.799c0-6.766,0.591-12.512,1.771-17.233
			C5.451,17.844,7.457,13.992,10.29,11c2.834-2.987,6.608-5.152,11.331-6.492C26.344,3.171,32.245,2.5,39.326,2.5h78.138
			c3.459,0,6.374,0.631,8.733,1.889c2.361,1.262,4.327,2.914,5.902,4.958c1.569,2.047,2.714,4.329,3.422,6.845
			c0.708,2.521,1.063,4.958,1.063,7.318c0,2.361-0.354,4.761-1.063,7.2c-0.708,2.439-1.812,4.644-3.306,6.607
			c-1.497,1.972-3.463,3.541-5.901,4.724c-2.44,1.181-5.394,1.771-8.853,1.771H57.739c-2.678,0-4.484,0.438-5.43,1.298
			c-0.943,0.866-1.416,2.717-1.416,5.55L50.894,75.916L50.894,75.916z"/>
		<path d="M119.826,195.033h-80.5c-7.265,0-13.451-0.707-18.385-2.103c-5.134-1.452-9.328-3.866-12.465-7.176
			c-3.116-3.286-5.347-7.552-6.631-12.68c-1.225-4.899-1.846-10.9-1.846-17.84V39.799c0-6.938,0.621-12.941,1.846-17.84
			c1.281-5.119,3.512-9.384,6.63-12.678c3.138-3.308,7.331-5.722,12.464-7.179C25.868,0.708,32.053,0,39.326,0h78.138
			c3.858,0,7.193,0.734,9.909,2.183c2.665,1.424,4.921,3.32,6.707,5.638c1.766,2.303,3.059,4.89,3.848,7.693
			c0.768,2.731,1.156,5.421,1.156,7.996c0,2.588-0.391,5.246-1.162,7.898c-0.79,2.723-2.04,5.221-3.717,7.423
			c-1.723,2.27-4.011,4.107-6.8,5.459c-2.772,1.341-6.117,2.021-9.943,2.021H57.739c-3.002,0-3.718,0.62-3.747,0.647l0,0
			c0.001,0-0.599,0.663-0.599,3.701l0.001,22.757h61.944c3.858,0,7.193,0.734,9.909,2.183c2.665,1.424,4.921,3.32,6.707,5.638
			c1.762,2.296,3.054,4.837,3.843,7.555c0.771,2.658,1.162,5.315,1.162,7.898c0,2.597-0.394,5.222-1.168,7.801
			c-0.79,2.634-2.039,5.086-3.711,7.285c-1.727,2.272-4.016,4.108-6.802,5.458c-2.771,1.342-6.115,2.021-9.942,2.021H53.394v25.119
			c0,3.039,0.602,3.701,0.608,3.707c0.028,0.026,0.729,0.639,3.738,0.639h62.084c3.82,0,7.165,0.68,9.941,2.021
			c2.784,1.35,5.071,3.186,6.803,5.458c1.679,2.217,2.929,4.713,3.718,7.423c0.771,2.66,1.161,5.317,1.161,7.9
			c0,2.585-0.389,5.275-1.155,7.995c-0.791,2.811-2.086,5.399-3.849,7.693c-1.783,2.318-4.039,4.215-6.705,5.638
			C127.016,194.299,123.681,195.033,119.826,195.033z M39.326,5c-6.812,0-12.54,0.644-17.024,1.913
			c-4.257,1.208-7.688,3.162-10.199,5.808c-2.519,2.66-4.339,6.177-5.409,10.452c-1.126,4.502-1.697,10.096-1.697,16.626v115.437
			c0,6.53,0.571,12.124,1.697,16.626c1.072,4.282,2.892,7.799,5.409,10.453c2.51,2.648,5.941,4.602,10.198,5.806
			c4.491,1.27,10.219,1.913,17.024,1.913h80.5c3.027,0,5.571-0.537,7.561-1.597c2.032-1.084,3.746-2.522,5.093-4.273
			c1.372-1.786,2.382-3.805,3-6c0.643-2.28,0.968-4.515,0.968-6.641c0-2.112-0.324-4.301-0.963-6.506
			c-0.617-2.119-1.593-4.069-2.898-5.793c-1.247-1.638-2.93-2.979-4.998-3.981c-2.089-1.009-4.702-1.521-7.764-1.521H57.74
			c-3.406,0-5.669-0.622-7.122-1.957c-1.516-1.388-2.224-3.736-2.224-7.389v-30.119h66.942c3.066,0,5.678-0.512,7.763-1.521
			c2.102-1.018,3.737-2.32,5.001-3.983c1.308-1.721,2.284-3.638,2.902-5.698c0.635-2.112,0.957-4.253,0.957-6.362
			c0-2.112-0.324-4.3-0.964-6.505c-0.615-2.118-1.626-4.104-3.005-5.901c-1.348-1.749-3.063-3.188-5.097-4.274
			c-1.983-1.057-4.526-1.594-7.556-1.594H48.394l-0.001-27.757c0-3.649,0.707-5.998,2.225-7.391
			c1.449-1.319,3.776-1.957,7.121-1.957h59.723c3.065,0,5.678-0.512,7.764-1.521c2.102-1.019,3.737-2.323,4.999-3.985
			c1.304-1.713,2.277-3.662,2.896-5.792c0.64-2.2,0.964-4.388,0.964-6.503c0-2.118-0.326-4.353-0.97-6.642
			c-0.615-2.189-1.625-4.208-2.999-6c-1.347-1.748-3.063-3.188-5.096-4.274C123.036,5.537,120.493,5,117.464,5H39.326z"/>
	</g>
	<g>
		<g>
			<path fill="#FFFFFF" d="M118.469,25.394H72.874c-4.074,0-7.376-3.302-7.376-7.376c0-4.075,3.302-7.377,7.376-7.377h45.595
				c4.073,0,7.376,3.302,7.376,7.377C125.844,22.092,122.542,25.394,118.469,25.394z"/>
		</g>
		<g>
			<path fill="#FFFFFF" d="M60.171,18.839c0,4.582-3.717,8.3-8.299,8.3c-4.58,0-8.3-3.718-8.3-8.3s3.72-8.299,8.3-8.299
				C56.454,10.54,60.171,14.257,60.171,18.839z"/>
		</g>
	</g>
</g>
</svg>
