<?xml version="1.0" encoding="utf-8"?>
<!-- Generator: Adobe Illustrator 16.0.0, SVG Export Plug-In . SVG Version: 6.00 Build 0)  -->
<!DOCTYPE svg PUBLIC "-//W3C//DTD SVG 1.1//EN" "http://www.w3.org/Graphics/SVG/1.1/DTD/svg11.dtd">
<svg version="1.1" id="Layer_1" xmlns="http://www.w3.org/2000/svg" xmlns:xlink="http://www.w3.org/1999/xlink" x="0px" y="0px"
	 width="79.133px" height="105.715px" viewBox="0 0 79.133 105.715" enable-background="new 0 0 79.133 105.715"
	 xml:space="preserve">
<g>
	<g>
		<path fill="#CCA441" d="M10.069,105.715V27.322c0-3.472,0.303-6.421,0.907-8.845c0.606-2.423,1.637-4.4,3.091-5.937
			c1.453-1.534,3.392-2.645,5.816-3.332c2.422-0.685,5.451-1.029,9.086-1.029h40.349c1.772,0,3.271,0.324,4.48,0.969
			c1.213,0.647,2.221,1.496,3.028,2.545c0.808,1.051,1.394,2.222,1.758,3.514c0.362,1.292,0.546,2.544,0.546,3.755
			c0,1.213-0.184,2.444-0.546,3.696c-0.364,1.254-0.931,2.383-1.696,3.393c-0.769,1.011-1.777,1.818-3.027,2.424
			c-1.254,0.605-2.771,0.908-4.543,0.908H38.542c-1.375,0-2.303,0.224-2.787,0.666c-0.484,0.445-0.727,1.394-0.727,2.849v15.266
			h31.139c1.774,0,3.271,0.324,4.483,0.97c1.211,0.646,2.22,1.495,3.029,2.543c0.807,1.051,1.391,2.223,1.756,3.514
			c0.362,1.293,0.545,2.545,0.545,3.758c0,1.211-0.183,2.443-0.545,3.693c-0.365,1.254-0.931,2.385-1.697,3.394
			c-0.768,1.012-1.776,1.817-3.027,2.424c-1.253,0.604-2.77,0.908-4.544,0.908H35.028v36.349H10.069V105.715z"/>
	</g>
	<g>
		<path fill="#4A494A" d="M2.5,100.036V21.644c0-3.473,0.303-6.421,0.907-8.845c0.607-2.423,1.636-4.4,3.09-5.937
			C7.952,5.328,9.89,4.217,12.313,3.53C14.735,2.844,17.766,2.5,21.4,2.5h40.348c1.773,0,3.271,0.323,4.482,0.969
			c1.211,0.648,2.222,1.496,3.029,2.545c0.807,1.051,1.393,2.222,1.756,3.513c0.362,1.294,0.545,2.546,0.545,3.757
			c0,1.212-0.183,2.444-0.545,3.696c-0.363,1.252-0.931,2.383-1.695,3.393c-0.771,1.01-1.777,1.816-3.028,2.422
			c-1.254,0.607-2.771,0.909-4.544,0.909H30.972c-1.374,0-2.301,0.225-2.787,0.666c-0.484,0.445-0.726,1.395-0.726,2.848v15.268
			h31.139c1.774,0,3.271,0.323,4.483,0.969c1.211,0.647,2.222,1.496,3.028,2.544c0.808,1.051,1.394,2.224,1.758,3.515
			c0.361,1.293,0.545,2.544,0.545,3.757c0,1.211-0.184,2.443-0.545,3.694c-0.364,1.254-0.932,2.385-1.696,3.393
			c-0.771,1.013-1.776,1.816-3.028,2.424c-1.254,0.605-2.771,0.908-4.545,0.908H27.459v36.351H2.5V100.036z"/>
		<path d="M29.959,102.54H0V21.644c0-3.656,0.33-6.835,0.981-9.449c0.711-2.836,1.956-5.207,3.7-7.051
			c1.765-1.86,4.102-3.211,6.95-4.019C14.268,0.378,17.554,0,21.4,0h40.348c2.185,0,4.089,0.425,5.66,1.264
			c1.524,0.816,2.813,1.901,3.833,3.226c1,1.303,1.733,2.77,2.181,4.36c0.424,1.514,0.639,3.005,0.639,4.435
			c0,1.438-0.217,2.916-0.644,4.391c-0.446,1.537-1.153,2.952-2.104,4.207c-1.013,1.327-2.333,2.389-3.932,3.163
			c-1.59,0.769-3.484,1.159-5.634,1.159H30.972c-0.446,0-0.754,0.03-0.955,0.063c-0.03,0.201-0.058,0.506-0.058,0.952v12.768h28.639
			c2.183,0,4.087,0.425,5.659,1.263c1.523,0.813,2.813,1.898,3.834,3.225c0.998,1.299,1.732,2.766,2.183,4.361
			c0.424,1.519,0.639,3.009,0.639,4.436c0,1.434-0.217,2.911-0.644,4.387c-0.447,1.543-1.156,2.958-2.106,4.21
			c-1.005,1.322-2.326,2.385-3.928,3.162c-1.595,0.77-3.489,1.159-5.637,1.159H29.959V102.54z M5,97.54h19.959V61.189h33.639
			c1.388,0,2.552-0.222,3.458-0.659c0.897-0.436,1.594-0.988,2.126-1.687c0.576-0.76,1.009-1.628,1.285-2.576
			c0.295-1.022,0.445-2.032,0.445-2.997c0-0.972-0.152-2.009-0.453-3.084c-0.274-0.974-0.724-1.873-1.332-2.665
			c-0.593-0.77-1.32-1.379-2.224-1.862c-0.839-0.447-1.952-0.674-3.306-0.674H24.959V27.218c0-1.407,0.159-3.424,1.534-4.688
			c1-0.908,2.419-1.326,4.479-1.326h30.776c1.389,0,2.551-0.222,3.455-0.66c0.898-0.435,1.595-0.987,2.13-1.688
			c0.573-0.758,1.007-1.626,1.281-2.573c0.296-1.021,0.446-2.031,0.446-2.999c0-0.974-0.152-2.011-0.452-3.083
			c-0.278-0.987-0.714-1.86-1.332-2.665c-0.591-0.768-1.319-1.378-2.226-1.863C64.215,5.227,63.103,5,61.748,5H21.4
			c-3.385,0-6.213,0.314-8.406,0.935c-1.971,0.559-3.547,1.45-4.683,2.647c-1.161,1.228-1.973,2.807-2.479,4.824
			C5.28,15.622,5,18.395,5,21.644V97.54z"/>
	</g>
	<g>
		<g>
			<path fill="#FFFFFF" d="M61.881,15.078h-23.4c-2.093,0-3.786-1.694-3.786-3.786c0-2.091,1.693-3.785,3.786-3.785h23.4
				c2.094,0,3.786,1.694,3.786,3.785C65.667,13.384,63.975,15.078,61.881,15.078z"/>
		</g>
		<g>
			<circle fill="#FFFFFF" cx="27.701" cy="11.713" r="4.259"/>
		</g>
	</g>
</g>
</svg>
