<?xml version="1.0" encoding="utf-8"?>
<!-- Generator: Adobe Illustrator 16.0.0, SVG Export Plug-In . SVG Version: 6.00 Build 0)  -->
<!DOCTYPE svg PUBLIC "-//W3C//DTD SVG 1.1//EN" "http://www.w3.org/Graphics/SVG/1.1/DTD/svg11.dtd">
<svg version="1.1" id="Layer_1" xmlns="http://www.w3.org/2000/svg" xmlns:xlink="http://www.w3.org/1999/xlink" x="0px" y="0px"
	 width="35.271px" height="106.199px" viewBox="0 0 35.271 106.199" enable-background="new 0 0 35.271 106.199"
	 xml:space="preserve">
<g>
	<g>
		<path fill="#CCA441" d="M10.069,20.296c0-4.197,1.251-7.271,3.758-9.209c2.502-1.938,5.451-2.906,8.844-2.906
			c3.394,0,6.342,0.97,8.847,2.906c2.502,1.938,3.757,5.012,3.757,9.209v85.903H10.069V20.296z"/>
	</g>
	<g>
		<path fill="#4A494A" d="M2.5,14.616c0-4.2,1.252-7.27,3.757-9.209C8.759,3.47,11.709,2.5,15.1,2.5
			c3.396,0,6.342,0.972,8.847,2.907c2.502,1.939,3.758,5.009,3.758,9.209v85.904H2.5V14.616z"/>
		<path d="M30.205,103.02H0V14.616C0,9.622,1.59,5.859,4.726,3.43C7.667,1.154,11.157,0,15.1,0c3.939,0,7.431,1.154,10.375,3.429
			c3.14,2.433,4.729,6.196,4.729,11.187V103.02z M5,98.02h20.205V14.616c0-3.412-0.912-5.778-2.789-7.233
			C20.342,5.78,17.948,5,15.1,5C12.252,5,9.86,5.78,7.787,7.384C5.911,8.836,5,11.201,5,14.616V98.02z"/>
	</g>
	<g>
		<g>
			<path fill="#FFFFFF" d="M18.582,55.241c-2.093,0-3.786-1.695-3.786-3.786V17.589c0-2.092,1.693-3.784,3.786-3.784
				c2.092,0,3.787,1.692,3.787,3.784v33.866C22.369,53.546,20.674,55.241,18.582,55.241z"/>
		</g>
		<g>
			<circle fill="#FFFFFF" cx="18.582" cy="62.656" r="4.26"/>
		</g>
	</g>
</g>
</svg>
