<?xml version="1.0" encoding="utf-8"?>
<!-- Generator: Adobe Illustrator 16.0.0, SVG Export Plug-In . SVG Version: 6.00 Build 0)  -->
<!DOCTYPE svg PUBLIC "-//W3C//DTD SVG 1.1//EN" "http://www.w3.org/Graphics/SVG/1.1/DTD/svg11.dtd">
<svg version="1.1" id="Layer_1" xmlns="http://www.w3.org/2000/svg" xmlns:xlink="http://www.w3.org/1999/xlink" x="0px" y="0px"
	 width="66.35px" height="204.539px" viewBox="0 0 66.35 204.539" enable-background="new 0 0 66.35 204.539" xml:space="preserve">
<g>
	<g>
		<path fill="#CCA441" d="M17.249,37.17c0-8.182,2.438-14.165,7.315-17.94c4.876-3.778,10.623-5.666,17.232-5.666
			c6.607,0,12.353,1.888,17.23,5.666c4.876,3.775,7.318,9.759,7.318,17.94v167.369H17.249V37.17z"/>
	</g>
	<g>
		<path fill="#4A494A" d="M2.5,26.105c0-8.181,2.438-14.164,7.314-17.94C14.693,4.388,20.439,2.5,27.05,2.5
			c6.609,0,12.353,1.888,17.233,5.665c4.875,3.776,7.314,9.76,7.314,17.94v167.37H2.5V26.105z"/>
		<path d="M54.098,195.975H0V26.105c0-8.96,2.787-15.661,8.284-19.917C13.588,2.082,19.901,0,27.05,0
			c7.145,0,13.457,2.082,18.764,6.188c5.497,4.258,8.284,10.959,8.284,19.917V195.975z M5,190.975h44.098V26.105
			c0-7.435-2.075-12.656-6.346-15.963C38.281,6.682,33.145,5,27.05,5c-6.099,0-11.236,1.682-15.705,5.142
			C7.076,13.447,5,18.669,5,26.105V190.975z"/>
	</g>
	<g>
		<g>
			<path fill="#FFFFFF" d="M34.502,133.688c-4.074,0-7.376-3.301-7.376-7.375V25.593c0-4.074,3.302-7.376,7.376-7.376
				c4.076,0,7.377,3.302,7.377,7.376v100.719C41.879,130.387,38.578,133.688,34.502,133.688z"/>
		</g>
		<g>
			<path fill="#FFFFFF" d="M42.801,148.443c0,4.58-3.717,8.3-8.297,8.3c-4.584,0-8.301-3.72-8.301-8.3
				c0-4.582,3.717-8.301,8.301-8.301C39.084,140.145,42.801,143.861,42.801,148.443z"/>
		</g>
	</g>
</g>
</svg>
