<?xml version="1.0" encoding="utf-8"?>
<!-- Generator: Adobe Illustrator 16.0.0, SVG Export Plug-In . SVG Version: 6.00 Build 0)  -->
<!DOCTYPE svg PUBLIC "-//W3C//DTD SVG 1.1//EN" "http://www.w3.org/Graphics/SVG/1.1/DTD/svg11.dtd">
<svg version="1.1" id="Layer_1" xmlns="http://www.w3.org/2000/svg" xmlns:xlink="http://www.w3.org/1999/xlink" x="0px" y="0px"
	 width="149.65px" height="208.553px" viewBox="0 0 149.65 208.553" enable-background="new 0 0 149.65 208.553"
	 xml:space="preserve">
<g>
	<g>
		<path fill="#CCA441" d="M101.022,36.933c0-3.933,0.669-7.396,2.007-10.385c1.335-2.989,3.106-5.433,5.313-7.318
			c2.201-1.891,4.758-3.307,7.673-4.25c2.908-0.943,6.021-1.416,9.322-1.416c6.61,0,12.313,1.889,17.115,5.666
			c4.799,3.774,7.198,9.679,7.198,17.703v99.854c0,12.905-1.889,23.924-5.665,33.049c-3.775,9.13-8.933,16.564-15.462,22.31
			c-6.531,5.747-14.086,9.915-22.661,12.512c-8.578,2.598-17.669,3.896-27.266,3.896c-5.038,0-10.311-0.396-15.817-1.181
			c-5.51-0.79-10.82-2.088-15.934-3.896c-5.115-1.809-9.879-4.168-14.283-7.081c-4.407-2.911-8.104-6.492-11.094-10.741
			c-1.576-2.201-2.716-4.641-3.425-7.317c-0.707-2.675-0.942-5.35-0.707-8.025c0.236-2.674,0.942-5.191,2.125-7.555
			c1.18-2.359,2.949-4.326,5.312-5.901c3.459-2.673,7.237-4.208,11.331-4.604c4.091-0.392,7.943-0.117,11.566,0.826
			c2.201,0.631,4.051,1.533,5.548,2.715c1.493,1.182,3.105,2.322,4.84,3.424c1.569,0.943,2.95,1.771,4.131,2.479
			c1.182,0.708,2.479,1.3,3.896,1.771s2.987,0.826,4.724,1.063c1.729,0.236,3.931,0.354,6.608,0.354
			c6.766,0,12.395-2.242,16.879-6.729c4.483-4.483,6.728-12.156,6.728-23.016L101.022,36.933L101.022,36.933z"/>
	</g>
	<g>
		<path fill="#4A494A" d="M86.273,25.869c0-3.933,0.669-7.396,2.007-10.387c1.336-2.988,3.106-5.431,5.313-7.317
			c2.201-1.891,4.759-3.307,7.673-4.249c2.908-0.943,6.021-1.416,9.322-1.416c6.609,0,12.313,1.889,17.115,5.665
			c4.8,3.775,7.199,9.68,7.199,17.704v99.854c0,12.904-1.889,23.924-5.666,33.049c-3.775,9.13-8.934,16.564-15.461,22.31
			c-6.532,5.747-14.087,9.915-22.662,12.513c-8.579,2.597-17.669,3.894-27.266,3.894c-5.039,0-10.311-0.395-15.817-1.18
			c-5.511-0.789-10.82-2.088-15.934-3.896c-5.116-1.81-9.881-4.168-14.282-7.082c-4.408-2.911-8.105-6.491-11.096-10.741
			c-1.574-2.201-2.715-4.64-3.424-7.317c-0.708-2.674-0.943-5.35-0.708-8.025c0.235-2.674,0.944-5.191,2.125-7.555
			c1.181-2.359,2.95-4.325,5.313-5.901c3.46-2.673,7.237-4.208,11.331-4.604c4.09-0.392,7.945-0.117,11.566,0.827
			c2.201,0.631,4.051,1.532,5.548,2.714c1.494,1.182,3.105,2.324,4.84,3.423c1.569,0.944,2.95,1.771,4.131,2.479
			c1.182,0.707,2.479,1.299,3.896,1.771c1.416,0.473,2.988,0.826,4.722,1.063c1.729,0.236,3.932,0.354,6.608,0.354
			c6.767,0,12.396-2.241,16.879-6.729c4.484-4.484,6.729-12.156,6.729-23.018L86.273,25.869L86.273,25.869z"/>
		<path d="M63.848,199.989c-5.123,0-10.563-0.405-16.17-1.205c-5.645-0.808-11.167-2.158-16.414-4.013
			c-5.301-1.875-10.29-4.35-14.829-7.354c-4.646-3.068-8.603-6.899-11.76-11.388c-1.732-2.421-3.013-5.157-3.796-8.116
			c-0.779-2.94-1.042-5.929-0.782-8.884c0.262-2.974,1.062-5.817,2.379-8.453c1.36-2.718,3.408-5.01,6.088-6.815
			c3.806-2.921,8.028-4.624,12.551-5.061c4.372-0.418,8.554-0.117,12.438,0.896c2.57,0.735,4.726,1.797,6.466,3.171
			c1.439,1.138,2.996,2.238,4.629,3.272l4.079,2.447c1.027,0.614,2.171,1.134,3.399,1.543c1.262,0.421,2.698,0.743,4.27,0.957
			c1.605,0.22,3.715,0.331,6.271,0.331c6.137,0,11.08-1.961,15.11-5.995c3.979-3.98,5.997-11.13,5.997-21.251l-0.001-98.202
			c0-4.269,0.748-8.107,2.225-11.407c1.484-3.321,3.494-6.08,5.972-8.197c2.438-2.095,5.31-3.687,8.527-4.728
			C103.641,0.518,107.037,0,110.589,0c7.15,0,13.429,2.086,18.66,6.2c5.411,4.256,8.154,10.874,8.154,19.669v99.854
			c0,13.177-1.971,24.618-5.856,34.005c-3.9,9.434-9.324,17.25-16.119,23.23c-6.767,5.953-14.703,10.337-23.589,13.028
			C83.067,198.643,73.65,199.989,63.848,199.989z M24.9,143.515c-1.076,0-2.188,0.055-3.305,0.161
			c-3.646,0.353-6.932,1.691-10.041,4.094l-0.141,0.102c-2.013,1.342-3.473,2.958-4.464,4.94c-1.035,2.07-1.664,4.31-1.871,6.654
			c-0.209,2.377,0.004,4.788,0.634,7.167c0.628,2.372,1.651,4.56,3.041,6.503c2.807,3.99,6.316,7.386,10.44,10.109
			c4.201,2.781,8.822,5.072,13.738,6.812c4.937,1.745,10.137,3.016,15.455,3.777c5.372,0.766,10.575,1.154,15.463,1.154
			c9.311,0,18.24-1.273,26.541-3.786c8.196-2.483,15.51-6.52,21.735-11.997c6.216-5.471,11.195-12.667,14.802-21.388
			c3.634-8.778,5.477-19.576,5.477-32.094V25.869c0-7.286-2.043-12.434-6.245-15.739C121.768,6.678,116.676,5,110.589,5
			c-3.026,0-5.903,0.436-8.551,1.294c-2.586,0.836-4.878,2.104-6.815,3.768c-1.914,1.636-3.48,3.802-4.66,6.441
			c-1.188,2.654-1.789,5.806-1.789,9.366l0.001,98.202c0,11.496-2.51,19.835-7.461,24.785c-4.946,4.95-11.22,7.461-18.646,7.461
			c-2.82,0-5.093-0.123-6.947-0.377c-1.879-0.256-3.62-0.648-5.175-1.168c-1.571-0.522-3.047-1.194-4.388-1.996l-4.136-2.483
			c-1.829-1.157-3.528-2.359-5.102-3.604c-1.225-0.967-2.802-1.731-4.686-2.271C29.954,143.824,27.467,143.515,24.9,143.515z"/>
	</g>
	<g>
		<g>
			<path fill="#FFFFFF" d="M118.602,133.688c-4.074,0-7.376-3.302-7.376-7.376V25.594c0-4.074,3.302-7.377,7.376-7.377
				c4.075,0,7.377,3.303,7.377,7.377v100.719C125.979,130.386,122.677,133.688,118.602,133.688z"/>
		</g>
		<g>
			<path fill="#FFFFFF" d="M123.194,148.443c0,4.581-3.717,8.301-8.297,8.301c-4.583,0-8.3-3.72-8.3-8.301
				c0-4.582,3.717-8.3,8.3-8.3C119.477,140.144,123.194,143.861,123.194,148.443z"/>
		</g>
	</g>
</g>
</svg>
