<?xml version="1.0" encoding="utf-8"?>
<!-- Generator: Adobe Illustrator 16.0.0, SVG Export Plug-In . SVG Version: 6.00 Build 0)  -->
<!DOCTYPE svg PUBLIC "-//W3C//DTD SVG 1.1//EN" "http://www.w3.org/Graphics/SVG/1.1/DTD/svg11.dtd">
<svg version="1.1" id="Layer_1" xmlns="http://www.w3.org/2000/svg" xmlns:xlink="http://www.w3.org/1999/xlink" x="0px" y="0px"
	 width="75.498px" height="106.199px" viewBox="0 0 75.498 106.199" enable-background="new 0 0 75.498 106.199"
	 xml:space="preserve">
<g>
	<g>
		<path fill="#CCA441" d="M28.973,106.199c-3.635,0-6.664-0.345-9.089-1.029c-2.423-0.686-4.36-1.797-5.814-3.332
			c-1.454-1.531-2.485-3.514-3.091-5.937c-0.605-2.424-0.908-5.371-0.908-8.845V20.536c0-2.018,0.343-3.795,1.029-5.33
			c0.686-1.534,1.615-2.827,2.788-3.878c1.169-1.049,2.523-1.836,4.059-2.363c1.532-0.521,3.108-0.785,4.726-0.785
			c1.614,0,3.189,0.264,4.725,0.785c1.533,0.527,2.887,1.314,4.059,2.363c1.17,1.051,2.1,2.344,2.787,3.878
			c0.686,1.535,1.029,3.313,1.029,5.33V81.48c0,1.455,0.243,2.405,0.729,2.849c0.484,0.445,1.411,0.666,2.787,0.666h26.896
			c1.776,0,3.291,0.303,4.545,0.908c1.25,0.604,2.26,1.415,3.029,2.425c0.766,1.01,1.332,2.143,1.695,3.394
			c0.363,1.254,0.545,2.481,0.545,3.694c0,1.211-0.182,2.464-0.545,3.755c-0.363,1.294-0.95,2.467-1.758,3.517
			c-0.809,1.051-1.815,1.896-3.028,2.545c-1.212,0.646-2.707,0.968-4.483,0.968L28.973,106.199L28.973,106.199z"/>
	</g>
	<g>
		<path fill="#4A494A" d="M21.402,100.521c-3.635,0-6.664-0.345-9.088-1.029c-2.423-0.687-4.36-1.797-5.815-3.332
			c-1.454-1.533-2.484-3.514-3.09-5.938C2.804,87.799,2.5,84.851,2.5,81.376V14.858c0-2.02,0.344-3.797,1.031-5.332
			c0.686-1.532,1.615-2.825,2.787-3.877c1.17-1.048,2.522-1.837,4.059-2.362C11.909,2.762,13.484,2.5,15.102,2.5
			c1.615,0,3.19,0.264,4.726,0.787c1.534,0.525,2.887,1.314,4.058,2.362c1.17,1.052,2.101,2.345,2.789,3.877
			c0.686,1.535,1.028,3.313,1.028,5.332v60.944c0,1.452,0.243,2.403,0.729,2.848c0.483,0.445,1.411,0.667,2.786,0.667h26.896
			c1.777,0,3.291,0.303,4.545,0.908c1.252,0.604,2.261,1.414,3.029,2.424c0.767,1.011,1.334,2.141,1.694,3.393
			c0.362,1.253,0.546,2.482,0.546,3.696c0,1.211-0.184,2.464-0.546,3.755c-0.36,1.293-0.948,2.465-1.757,3.514
			c-0.811,1.053-1.816,1.898-3.027,2.546c-1.213,0.646-2.707,0.97-4.484,0.97L21.402,100.521L21.402,100.521z"/>
		<path d="M58.114,103.022H21.402c-3.843-0.001-7.129-0.379-9.768-1.124c-2.851-0.808-5.188-2.16-6.95-4.019
			c-1.746-1.841-2.991-4.214-3.701-7.051C0.331,88.213,0,85.033,0,81.376V14.858c0-2.363,0.42-4.5,1.249-6.353
			C2.076,6.657,3.22,5.071,4.648,3.789c1.421-1.273,3.076-2.237,4.92-2.868c3.565-1.221,7.472-1.226,11.066,0
			c1.846,0.632,3.5,1.596,4.919,2.865c1.431,1.287,2.574,2.872,3.402,4.716c0.829,1.854,1.248,3.991,1.248,6.356v60.944
			c0,0.447,0.028,0.753,0.059,0.953c0.201,0.031,0.508,0.062,0.957,0.062h26.896c2.147,0,4.042,0.39,5.632,1.157
			c1.599,0.771,2.922,1.834,3.932,3.161c0.957,1.262,1.665,2.679,2.107,4.215c0.427,1.476,0.644,2.953,0.644,4.388
			c0,1.429-0.215,2.92-0.639,4.431c-0.443,1.59-1.179,3.061-2.185,4.364c-1.021,1.327-2.31,2.412-3.828,3.225
			C62.198,102.597,60.295,103.022,58.114,103.022z M15.102,5c-1.333,0-2.651,0.22-3.916,0.652C9.962,6.071,8.916,6.679,7.986,7.511
			c-0.915,0.821-1.626,1.815-2.173,3.036C5.273,11.753,5,13.203,5,14.858v66.518c0,3.249,0.281,6.022,0.835,8.241
			c0.498,1.99,1.332,3.613,2.478,4.822c1.151,1.215,2.683,2.081,4.683,2.647c2.195,0.62,5.024,0.935,8.406,0.935l36.712,0.001
			c1.353,0,2.466-0.228,3.31-0.677c0.897-0.479,1.625-1.09,2.222-1.864c0.611-0.793,1.059-1.688,1.329-2.659
			c0.302-1.075,0.454-2.111,0.454-3.084c0-0.965-0.15-1.975-0.447-3.002c-0.276-0.958-0.696-1.8-1.285-2.576
			c-0.532-0.699-1.228-1.251-2.123-1.683c-0.907-0.438-2.07-0.66-3.459-0.66H31.218c-2.074,0-3.498-0.422-4.481-1.329
			c-1.374-1.256-1.534-3.275-1.534-4.686V14.858c0-1.657-0.273-3.108-0.811-4.312c-0.54-1.201-1.272-2.224-2.178-3.038
			c-0.914-0.817-1.991-1.443-3.197-1.856C17.749,5.219,16.43,5,15.102,5z"/>
	</g>
	<g>
		<g>
			<path fill="#FFFFFF" d="M18.625,54.074c-2.092,0-3.787-1.695-3.787-3.786V16.422c0-2.092,1.695-3.784,3.787-3.784
				c2.09,0,3.785,1.692,3.785,3.784v33.866C22.41,52.379,20.715,54.074,18.625,54.074z"/>
		</g>
		<g>
			<circle fill="#FFFFFF" cx="18.624" cy="61.489" r="4.26"/>
		</g>
	</g>
</g>
</svg>
