<?xml version="1.0" encoding="utf-8"?>
<!-- Generator: Adobe Illustrator 16.0.0, SVG Export Plug-In . SVG Version: 6.00 Build 0)  -->
<!DOCTYPE svg PUBLIC "-//W3C//DTD SVG 1.1//EN" "http://www.w3.org/Graphics/SVG/1.1/DTD/svg11.dtd">
<svg version="1.1" id="Layer_1" xmlns="http://www.w3.org/2000/svg" xmlns:xlink="http://www.w3.org/1999/xlink" x="0px" y="0px"
	 width="171.871px" height="207.493px" viewBox="0 0 171.871 207.493" enable-background="new 0 0 171.871 207.493"
	 xml:space="preserve">
<g>
	<g>
		<path fill="#CCA441" d="M128.906,130.179v-94.19c0-7.237,2.162-12.784,6.492-16.643c4.328-3.855,9.326-5.783,14.99-5.783
			c5.666,0,10.659,1.928,14.989,5.783c4.327,3.858,6.492,9.405,6.492,16.643v148.721c0,3.623-0.707,6.77-2.125,9.441
			c-1.416,2.68-3.228,4.958-5.431,6.848c-2.205,1.888-4.684,3.383-7.436,4.483c-2.756,1.101-5.47,1.729-8.145,1.89
			c-5.666,0.473-11.489-0.436-17.469-2.715c-5.982-2.279-10.468-5.938-13.455-10.978L60.21,91.7v112.837H17.248V37.642
			c0-3.618,0.709-6.846,2.125-9.679s3.265-5.23,5.548-7.2c2.28-1.966,4.84-3.501,7.673-4.603c2.832-1.1,5.584-1.808,8.262-2.125
			c5.666-0.627,11.409,0.235,17.232,2.597c5.82,2.36,10.229,6.061,13.221,11.095L128.906,130.179z"/>
	</g>
	<g>
		<path fill="#4A494A" d="M114.158,119.115v-94.19c0-7.237,2.162-12.783,6.492-16.643c4.326-3.854,9.324-5.782,14.99-5.782
			c5.664,0,10.659,1.928,14.987,5.782c4.328,3.859,6.492,9.405,6.492,16.643v148.722c0,3.622-0.707,6.77-2.125,9.441
			c-1.416,2.678-3.226,4.957-5.429,6.846c-2.205,1.889-4.686,3.384-7.436,4.484c-2.756,1.101-5.471,1.73-8.145,1.89
			c-5.666,0.473-11.49-0.437-17.469-2.714c-5.984-2.28-10.47-5.938-13.457-10.979L45.463,80.637v112.838H2.5V26.577
			c0-3.618,0.708-6.846,2.124-9.678c1.416-2.834,3.265-5.231,5.548-7.2c2.279-1.966,4.84-3.501,7.673-4.603
			c2.832-1.1,5.584-1.809,8.263-2.125c5.665-0.628,11.408,0.235,17.231,2.597c5.82,2.36,10.229,6.06,13.22,11.095L114.158,119.115z"
			/>
		<path d="M131.063,198.929c-5.018,0-10.211-1.009-15.435-2.999c-6.499-2.476-11.45-6.527-14.718-12.041L47.963,90.147v105.828H0
			V26.577c0-3.995,0.803-7.627,2.388-10.796c1.555-3.112,3.625-5.796,6.151-7.975c2.484-2.143,5.311-3.838,8.4-5.04
			c3.02-1.173,6.005-1.939,8.875-2.278c1.296-0.144,2.596-0.215,3.881-0.215c4.804,0,9.71,1.002,14.583,2.978
			c6.313,2.56,11.167,6.643,14.43,12.135l52.95,94.181V24.925c0-7.946,2.466-14.174,7.328-18.509C123.767,2.158,129.369,0,135.641,0
			c6.268,0,11.869,2.158,16.649,6.415c4.864,4.337,7.33,10.564,7.33,18.51v148.722c0,4.021-0.813,7.592-2.417,10.613
			c-1.553,2.937-3.575,5.484-6.01,7.572c-2.402,2.058-5.139,3.708-8.134,4.907c-2.993,1.195-5.996,1.89-8.925,2.063
			C133.16,198.885,132.107,198.929,131.063,198.929z M42.963,71.127l62.274,110.258c2.688,4.536,6.678,7.78,12.171,9.873
			c5.61,2.137,11.121,2.994,16.37,2.559c2.453-0.146,4.932-0.725,7.426-1.72c2.483-0.994,4.75-2.361,6.736-4.062
			c1.955-1.677,3.585-3.734,4.845-6.116c1.218-2.295,1.835-5.077,1.835-8.272V24.925c0-6.55-1.85-11.383-5.656-14.777
			C145.074,6.684,140.716,5,135.641,5c-5.078,0-9.438,1.684-13.327,5.148c-3.806,3.392-5.655,8.226-5.655,14.776v103.738
			L54.38,17.888c-2.701-4.544-6.629-7.833-11.98-10.003c-5.405-2.193-10.786-3.009-16.016-2.429
			c-2.434,0.287-5.007,0.951-7.633,1.971c-2.557,0.994-4.894,2.396-6.946,4.165c-2.022,1.745-3.686,3.906-4.944,6.424
			C5.626,20.485,5,23.366,5,26.577v164.398h37.963V71.127z"/>
	</g>
	<g>
		<g>
			<path fill="#FFFFFF" d="M141.947,133.688c-4.073,0-7.375-3.302-7.375-7.376V25.593c0-4.074,3.302-7.376,7.375-7.376
				c4.076,0,7.378,3.302,7.378,7.376v100.719C149.325,130.386,146.023,133.688,141.947,133.688z"/>
		</g>
		<g>
			<path fill="#FFFFFF" d="M150.247,148.443c0,4.581-3.718,8.3-8.297,8.3c-4.583,0-8.3-3.719-8.3-8.3c0-4.582,3.717-8.3,8.3-8.3
				C146.529,140.144,150.247,143.861,150.247,148.443z"/>
		</g>
	</g>
</g>
</svg>
