<?xml version="1.0" encoding="utf-8"?>
<!-- Generator: Adobe Illustrator 16.0.0, SVG Export Plug-In . SVG Version: 6.00 Build 0)  -->
<!DOCTYPE svg PUBLIC "-//W3C//DTD SVG 1.1//EN" "http://www.w3.org/Graphics/SVG/1.1/DTD/svg11.dtd">
<svg version="1.1" id="Layer_1" xmlns="http://www.w3.org/2000/svg" xmlns:xlink="http://www.w3.org/1999/xlink" x="0px" y="0px"
	 width="91.248px" height="108.623px" viewBox="0 0 91.248 108.623" enable-background="new 0 0 91.248 108.623"
	 xml:space="preserve">
<g>
	<g>
		<path fill="#CCA441" d="M10.068,45.134c0-6.946,1.253-12.781,3.758-17.509c2.502-4.726,5.734-8.521,9.692-11.39
			c3.956-2.866,8.339-4.924,13.147-6.179c4.804-1.251,9.469-1.878,13.993-1.878c4.44,0,9.065,0.627,13.872,1.878
			c4.807,1.255,9.189,3.313,13.146,6.179c3.955,2.869,7.209,6.664,9.754,11.39c2.543,4.728,3.814,10.563,3.814,17.509v26.535
			c0,6.947-1.271,12.782-3.814,17.508c-2.545,4.727-5.799,8.521-9.754,11.389c-3.957,2.869-8.342,4.931-13.146,6.182
			c-4.807,1.251-9.432,1.878-13.872,1.878c-4.444,0-9.067-0.627-13.873-1.878c-4.808-1.251-9.19-3.313-13.146-6.182
			c-3.958-2.864-7.21-6.662-9.753-11.389c-2.545-4.726-3.818-10.561-3.818-17.508V45.134z M66.53,44.406
			c0-2.664-0.465-4.968-1.393-6.905c-0.931-1.939-2.162-3.555-3.695-4.848c-1.537-1.291-3.231-2.241-5.09-2.847
			c-1.857-0.606-3.756-0.909-5.693-0.909s-3.838,0.303-5.694,0.909c-1.859,0.605-3.556,1.556-5.09,2.847
			c-1.535,1.293-2.769,2.908-3.695,4.848c-0.93,1.938-1.394,4.241-1.394,6.905v27.99c0,2.424,0.505,4.604,1.515,6.543
			c1.01,1.938,2.281,3.572,3.816,4.906c1.535,1.332,3.25,2.344,5.15,3.028c1.896,0.688,3.694,1.03,5.392,1.03
			c1.695,0,3.49-0.344,5.393-1.03c1.896-0.685,3.612-1.696,5.146-3.028c1.535-1.334,2.808-2.969,3.816-4.906
			c1.01-1.938,1.516-4.119,1.516-6.543V44.406z"/>
	</g>
	<g>
		<path fill="#4A494A" d="M2.5,39.454c0-6.946,1.25-12.782,3.756-17.508c2.503-4.726,5.734-8.521,9.693-11.39
			c3.956-2.866,8.339-4.927,13.146-6.179C33.9,3.126,38.564,2.5,43.089,2.5c4.439,0,9.066,0.626,13.874,1.878
			c4.806,1.252,9.188,3.313,13.146,6.179c3.955,2.868,7.207,6.664,9.754,11.39c2.543,4.726,3.816,10.563,3.816,17.508v26.534
			c0,6.947-1.273,12.783-3.816,17.509c-2.547,4.728-5.799,8.522-9.754,11.39c-3.959,2.868-8.342,4.928-13.146,6.18
			c-4.808,1.25-9.435,1.879-13.874,1.879c-4.442,0-9.067-0.629-13.872-1.879c-4.808-1.252-9.19-3.312-13.146-6.18
			c-3.958-2.865-7.21-6.662-9.754-11.39C3.772,78.771,2.5,72.937,2.5,65.987V39.454z M58.961,38.728
			c0-2.666-0.465-4.968-1.394-6.906c-0.93-1.939-2.162-3.554-3.695-4.847c-1.534-1.291-3.23-2.241-5.089-2.847
			c-1.859-0.607-3.756-0.909-5.694-0.909s-3.837,0.302-5.694,0.909c-1.859,0.605-3.555,1.556-5.088,2.847
			c-1.537,1.293-2.77,2.907-3.696,4.847c-0.931,1.938-1.394,4.24-1.394,6.906v27.989c0,2.423,0.504,4.604,1.515,6.541
			c1.01,1.938,2.28,3.575,3.817,4.908c1.533,1.333,3.25,2.345,5.148,3.028c1.896,0.688,3.695,1.031,5.392,1.031
			c1.697,0,3.493-0.346,5.393-1.031c1.896-0.687,3.613-1.695,5.149-3.028c1.533-1.333,2.806-2.97,3.815-4.908
			c1.009-1.938,1.515-4.118,1.515-6.541V38.728z"/>
		<path d="M43.089,105.446c-4.625,0-9.503-0.659-14.501-1.959c-5.089-1.326-9.794-3.538-13.984-6.575
			c-4.247-3.074-7.776-7.189-10.488-12.229C1.385,79.61,0,73.32,0,65.987V39.454c0-7.33,1.362-13.615,4.047-18.679
			c2.67-5.042,6.181-9.161,10.435-12.243c4.193-3.038,8.897-5.25,13.983-6.574C33.455,0.659,38.375,0,43.089,0
			c4.634,0,9.514,0.659,14.504,1.958c5.084,1.325,9.788,3.537,13.982,6.574c4.245,3.079,7.773,7.192,10.488,12.229
			c2.73,5.076,4.115,11.365,4.115,18.694v26.534c0,7.33-1.385,13.619-4.115,18.693c-2.713,5.037-6.242,9.151-10.487,12.229
			c-4.193,3.037-8.897,5.249-13.982,6.574C52.592,104.787,47.712,105.446,43.089,105.446z M43.089,5
			c-4.29,0-8.786,0.604-13.364,1.796c-4.481,1.167-8.623,3.113-12.31,5.784c-3.629,2.63-6.641,6.174-8.95,10.535
			C6.166,27.453,5,32.949,5,39.454v26.533c0,6.496,1.184,11.989,3.518,16.326c2.352,4.37,5.386,7.92,9.019,10.549
			c3.685,2.672,7.827,4.618,12.31,5.786c4.587,1.192,9.042,1.798,13.242,1.798c4.199,0,8.655-0.605,13.245-1.799
			c4.479-1.167,8.621-3.113,12.308-5.784c3.632-2.633,6.666-6.183,9.02-10.551c2.334-4.337,3.518-9.829,3.518-16.323V39.455
			c0-6.493-1.184-11.985-3.518-16.324c-2.354-4.367-5.39-7.917-9.021-10.55c-3.687-2.67-7.828-4.617-12.308-5.784
			C51.753,5.604,47.297,5,43.089,5z M43.089,84.726c-1.982,0-4.083-0.397-6.244-1.181c-2.173-0.783-4.172-1.958-5.936-3.492
			c-1.761-1.527-3.24-3.426-4.394-5.64c-1.193-2.285-1.798-4.875-1.798-7.696V38.728c0-3.034,0.552-5.721,1.64-7.988
			c1.072-2.246,2.534-4.158,4.341-5.678c1.776-1.496,3.769-2.61,5.923-3.312c4.184-1.368,8.739-1.37,12.938,0.001
			c2.154,0.702,4.146,1.816,5.923,3.311c1.803,1.52,3.262,3.43,4.34,5.679c1.088,2.271,1.64,4.958,1.64,7.987v27.989
			c0,2.814-0.604,5.404-1.797,7.695c-1.151,2.209-2.629,4.106-4.393,5.641c-1.763,1.529-3.76,2.703-5.939,3.492
			C47.161,84.329,45.062,84.726,43.089,84.726z M43.089,25.719c-1.669,0-3.324,0.264-4.917,0.785
			c-1.542,0.501-2.972,1.303-4.254,2.383c-1.259,1.06-2.285,2.409-3.051,4.012c-0.764,1.591-1.15,3.551-1.15,5.829v27.989
			c0,2.007,0.414,3.818,1.231,5.384c0.863,1.656,1.952,3.061,3.239,4.177c1.298,1.129,2.763,1.991,4.357,2.564
			c1.619,0.587,3.146,0.884,4.545,0.884c1.392,0,2.921-0.297,4.544-0.883c1.598-0.578,3.064-1.441,4.359-2.565
			c1.287-1.119,2.377-2.524,3.237-4.175c0.828-1.592,1.231-3.354,1.231-5.386V38.728c0-2.276-0.387-4.236-1.148-5.826
			c-0.77-1.605-1.797-2.957-3.052-4.016c-1.28-1.077-2.712-1.879-4.253-2.381C46.411,25.983,44.756,25.719,43.089,25.719z"/>
	</g>
	<g>
		<g>
			<path fill="#FFFFFF" d="M72.299,34.988c-1.702,0-3.249-1.155-3.674-2.882c-4.128-16.769-20.737-16.195-21.442-16.162
				c-2.061,0.084-3.86-1.517-3.957-3.605c-0.097-2.09,1.519-3.861,3.608-3.959c8.125-0.366,24.664,3.723,29.146,21.915
				c0.5,2.031-0.74,4.082-2.771,4.583C72.903,34.952,72.599,34.988,72.299,34.988z"/>
		</g>
		<g>
			<circle fill="#FFFFFF" cx="73.907" cy="42.849" r="3.787"/>
		</g>
	</g>
</g>
</svg>
