<?xml version="1.0" encoding="utf-8"?>
<!-- Generator: Adobe Illustrator 16.0.0, SVG Export Plug-In . SVG Version: 6.00 Build 0)  -->
<!DOCTYPE svg PUBLIC "-//W3C//DTD SVG 1.1//EN" "http://www.w3.org/Graphics/SVG/1.1/DTD/svg11.dtd">
<svg version="1.1" id="Layer_1" xmlns="http://www.w3.org/2000/svg" xmlns:xlink="http://www.w3.org/1999/xlink" x="0px" y="0px"
	 width="86.402px" height="105.715px" viewBox="0 0 86.402 105.715" enable-background="new 0 0 86.402 105.715"
	 xml:space="preserve">
<g>
	<g>
		<path fill="#CCA441" d="M35.028,76.879v28.836H10.069V27.322c0-3.472,0.303-6.421,0.909-8.845c0.604-2.423,1.636-4.4,3.089-5.937
			c1.454-1.534,3.393-2.645,5.814-3.332c2.424-0.685,5.452-1.029,9.09-1.029h21.081c5.251,0,10.097,0.666,14.538,1.998
			c4.441,1.334,8.279,3.354,11.514,6.059c3.229,2.708,5.755,6.16,7.569,10.359c1.817,4.202,2.729,9.169,2.729,14.903v2.06
			c0,5.736-0.909,10.704-2.729,14.903c-1.814,4.2-4.343,7.654-7.569,10.359c-3.232,2.707-7.07,4.726-11.514,6.058
			c-4.441,1.333-9.287,2-14.538,2L35.028,76.879L35.028,76.879z M35.028,55.796h13.813c2.021,0,3.816-0.343,5.394-1.028
			c1.575-0.687,2.908-1.638,3.998-2.849c1.091-1.211,1.918-2.583,2.482-4.118c0.564-1.535,0.85-3.151,0.85-4.848v-0.849
			c0-1.696-0.283-3.312-0.85-4.847c-0.564-1.533-1.394-2.907-2.482-4.119s-2.423-2.16-3.998-2.847
			c-1.575-0.686-3.373-1.03-5.394-1.03h-10.3c-1.373,0-2.3,0.224-2.785,0.666c-0.484,0.445-0.729,1.395-0.729,2.848L35.028,55.796
			L35.028,55.796z"/>
	</g>
	<g>
		<path fill="#4A494A" d="M27.459,71.199v28.837H2.5V21.644c0-3.473,0.306-6.421,0.909-8.845c0.605-2.423,1.636-4.4,3.089-5.937
			c1.454-1.534,3.396-2.646,5.816-3.332c2.422-0.686,5.452-1.03,9.087-1.03h21.082c5.25,0,10.098,0.666,14.539,1.999
			c4.439,1.333,8.279,3.353,11.511,6.059c3.23,2.706,5.755,6.16,7.573,10.358c1.816,4.202,2.727,9.17,2.727,14.903v2.061
			c0,5.736-0.908,10.703-2.727,14.903c-1.819,4.199-4.343,7.654-7.573,10.357c-3.229,2.707-7.069,4.728-11.511,6.06
			c-4.441,1.333-9.289,1.999-14.539,1.999H27.459z M27.459,50.117h13.813c2.019,0,3.814-0.344,5.392-1.03
			c1.575-0.686,2.907-1.636,3.998-2.847c1.091-1.211,1.919-2.585,2.483-4.12c0.563-1.533,0.849-3.151,0.849-4.846v-0.849
			c0-1.696-0.284-3.312-0.849-4.847c-0.564-1.533-1.395-2.908-2.483-4.119c-1.091-1.212-2.423-2.161-3.998-2.848
			c-1.575-0.685-3.373-1.03-5.392-1.03H30.974c-1.374,0-2.305,0.225-2.787,0.666c-0.484,0.446-0.729,1.394-0.729,2.848
			L27.459,50.117L27.459,50.117z"/>
		<path d="M29.959,102.536H0V21.644c0-3.649,0.331-6.828,0.983-9.449c0.708-2.832,1.952-5.203,3.698-7.05
			c1.765-1.861,4.103-3.212,6.952-4.02C14.269,0.378,17.555,0,21.401,0h21.082c5.472,0,10.604,0.708,15.258,2.104
			c4.749,1.426,8.92,3.625,12.397,6.537c3.516,2.945,6.295,6.74,8.262,11.281c1.946,4.502,2.933,9.85,2.933,15.896v2.061
			c0,6.054-0.986,11.402-2.933,15.896c-1.97,4.546-4.749,8.342-8.263,11.281c-3.475,2.912-7.646,5.112-12.397,6.537
			c-4.652,1.396-9.785,2.104-15.257,2.104H29.959V102.536z M5,97.536h19.959V68.699h17.524c4.984,0,9.634-0.637,13.82-1.894
			c4.098-1.229,7.671-3.106,10.623-5.581c2.913-2.437,5.229-5.611,6.886-9.435c1.673-3.863,2.521-8.543,2.521-13.91v-2.061
			c0-5.36-0.849-10.041-2.521-13.911c-1.654-3.818-3.971-6.993-6.884-9.433c-2.953-2.474-6.528-4.351-10.624-5.581
			C52.117,5.637,47.468,5,42.483,5H21.401c-3.385,0-6.213,0.314-8.406,0.935c-1.972,0.559-3.548,1.45-4.683,2.647
			c-1.147,1.213-1.981,2.836-2.478,4.823C5.281,15.629,5,18.401,5,21.644V97.536z M41.272,52.617H24.959l-0.001-25.522
			c0-1.405,0.159-3.42,1.537-4.688c0.992-0.907,2.414-1.327,4.48-1.327h10.298c2.35,0,4.499,0.416,6.388,1.237
			c1.899,0.829,3.534,1.995,4.86,3.469c1.3,1.446,2.3,3.104,2.971,4.928c0.666,1.809,1.003,3.73,1.003,5.71v0.849
			c0,1.976-0.337,3.896-1.002,5.708c-0.673,1.83-1.673,3.489-2.973,4.932c-1.327,1.474-2.962,2.64-4.857,3.466
			C45.773,52.201,43.623,52.617,41.272,52.617z M29.958,47.617h11.314c1.661,0,3.14-0.277,4.395-0.823
			c1.252-0.545,2.279-1.274,3.138-2.228c0.872-0.968,1.543-2.082,1.994-3.31c0.461-1.256,0.695-2.597,0.695-3.983v-0.849
			c0-1.39-0.233-2.73-0.695-3.984c-0.451-1.225-1.122-2.339-1.996-3.311c-0.856-0.952-1.883-1.681-3.138-2.228
			c-1.254-0.544-2.732-0.821-4.393-0.821H30.974c-0.447,0-0.755,0.03-0.957,0.063c-0.031,0.201-0.06,0.508-0.06,0.952V47.617z"/>
	</g>
	<g>
		<g>
			<path fill="#FFFFFF" d="M68.021,34.383c-1.702,0-3.25-1.155-3.674-2.882C60.219,14.732,43.61,15.306,42.904,15.339
				c-2.06,0.084-3.859-1.517-3.956-3.605c-0.097-2.09,1.519-3.861,3.608-3.959C50.681,7.408,67.22,11.497,71.7,29.689
				c0.5,2.031-0.74,4.082-2.771,4.583C68.625,34.347,68.319,34.383,68.021,34.383z"/>
		</g>
		<g>
			<circle fill="#FFFFFF" cx="69.628" cy="42.243" r="3.787"/>
		</g>
	</g>
</g>
</svg>
