<?xml version="1.0" encoding="utf-8"?>
<!-- Generator: Adobe Illustrator 16.0.0, SVG Export Plug-In . SVG Version: 6.00 Build 0)  -->
<!DOCTYPE svg PUBLIC "-//W3C//DTD SVG 1.1//EN" "http://www.w3.org/Graphics/SVG/1.1/DTD/svg11.dtd">
<svg version="1.1" id="Layer_1" xmlns="http://www.w3.org/2000/svg" xmlns:xlink="http://www.w3.org/1999/xlink" x="0px" y="0px"
	 width="95.977px" height="105.715px" viewBox="0 0 95.977 105.715" enable-background="new 0 0 95.977 105.715"
	 xml:space="preserve">
<g>
	<g>
		<path fill="#CCA441" d="M87.614,41.257c0,5.815-1.354,10.886-4.059,15.205c-2.707,4.322-6.24,7.856-10.603,10.603l23.021,38.65
			H68.591L50.417,73.122H34.906v32.593H10.069V27.322c0-3.472,0.305-6.421,0.909-8.845c0.604-2.423,1.637-4.4,3.091-5.937
			c1.453-1.534,3.392-2.645,5.813-3.332c2.425-0.685,5.453-1.029,9.089-1.029h22.294c5.249,0,10.096,0.626,14.538,1.877
			c4.442,1.254,8.279,3.192,11.512,5.816c3.229,2.626,5.756,5.919,7.572,9.875c1.817,3.959,2.727,8.645,2.727,14.055V41.257z
			 M34.906,52.646H50.66c4.118,0,7.209-1.13,9.27-3.392c2.06-2.261,3.09-4.926,3.09-7.997v-0.849c0-3.068-1.03-5.734-3.09-7.996
			c-2.061-2.261-5.149-3.393-9.27-3.393H38.423c-1.374,0-2.304,0.223-2.786,0.666c-0.484,0.445-0.729,1.394-0.729,2.848v20.113
			H34.906z"/>
	</g>
	<g>
		<path fill="#4A494A" d="M80.046,35.577c0,5.816-1.354,10.886-4.062,15.206c-2.706,4.322-6.238,7.855-10.603,10.602l23.021,38.651
			H61.022L42.848,67.443h-15.51v32.593H2.5V21.644c0-3.473,0.305-6.421,0.909-8.845c0.604-2.423,1.637-4.4,3.089-5.937
			c1.455-1.534,3.395-2.646,5.816-3.332c2.422-0.687,5.452-1.03,9.086-1.03h22.295c5.249,0,10.097,0.627,14.539,1.878
			c4.441,1.254,8.279,3.191,11.512,5.816c3.229,2.625,5.755,5.918,7.572,9.874c1.816,3.959,2.728,8.645,2.728,14.056V35.577z
			 M27.339,46.967h15.75c4.121,0,7.211-1.13,9.271-3.393c2.06-2.26,3.089-4.926,3.089-7.997v-0.848c0-3.068-1.029-5.734-3.089-7.998
			c-2.062-2.259-5.149-3.392-9.271-3.392H30.853c-1.374,0-2.304,0.224-2.787,0.667c-0.482,0.445-0.728,1.394-0.728,2.848
			L27.339,46.967L27.339,46.967z"/>
		<path d="M92.801,102.536H59.553L41.38,69.943H29.838v32.593H0V21.644c0-3.653,0.331-6.833,0.983-9.45
			c0.706-2.827,1.949-5.199,3.697-7.049c1.767-1.863,4.105-3.214,6.953-4.021C14.265,0.378,17.552,0,21.401,0h22.295
			c5.451,0,10.571,0.663,15.217,1.972c4.756,1.342,8.931,3.456,12.41,6.282c3.517,2.859,6.298,6.482,8.268,10.771
			c1.962,4.275,2.956,9.355,2.956,15.1v1.453c0,6.266-1.495,11.828-4.443,16.534c-2.464,3.936-5.608,7.299-9.365,10.022
			L92.801,102.536z M62.49,97.536h21.514L61.986,60.568l2.065-1.3c4.02-2.529,7.322-5.831,9.814-9.812
			c2.442-3.898,3.681-8.567,3.681-13.879v-1.453c0-5.02-0.841-9.398-2.5-13.014c-1.646-3.585-3.961-6.605-6.877-8.977
			c-2.947-2.394-6.519-4.194-10.614-5.35C53.353,5.6,48.689,5,43.696,5H21.401c-3.388,0-6.215,0.314-8.404,0.935
			c-1.972,0.559-3.547,1.449-4.685,2.647C7.164,9.797,6.33,11.42,5.835,13.404C5.281,15.625,5,18.398,5,21.644v75.892h19.838V64.943
			h19.478L62.49,97.536z M43.089,49.467h-18.25l-0.001-22.613c0-1.404,0.159-3.418,1.532-4.685c0.993-0.91,2.415-1.33,4.483-1.33
			h12.236c4.829,0,8.569,1.416,11.117,4.207c2.484,2.73,3.742,5.988,3.742,9.683v0.848c0,3.7-1.259,6.957-3.741,9.681
			C51.666,48.05,47.925,49.467,43.089,49.467z M29.838,44.467h13.251c3.417,0,5.845-0.842,7.422-2.576
			c1.641-1.8,2.438-3.865,2.438-6.314v-0.848c0-2.446-0.798-4.512-2.438-6.316c-1.58-1.731-4.008-2.574-7.421-2.574H30.853
			c-0.446,0-0.753,0.03-0.955,0.062c-0.031,0.202-0.06,0.509-0.06,0.953V44.467z"/>
	</g>
	<g>
		<g>
			<path fill="#FFFFFF" d="M69.655,33.717c-1.701,0-3.25-1.155-3.674-2.882C61.854,14.066,45.244,14.64,44.538,14.673
				c-2.061,0.084-3.858-1.517-3.956-3.605c-0.098-2.09,1.52-3.861,3.607-3.959c8.125-0.366,24.664,3.722,29.146,21.915
				c0.5,2.031-0.739,4.082-2.771,4.583C70.26,33.681,69.954,33.717,69.655,33.717z"/>
		</g>
		<g>
			<circle fill="#FFFFFF" cx="69.846" cy="40.577" r="3.787"/>
		</g>
	</g>
</g>
</svg>
