<?xml version="1.0" encoding="utf-8"?>
<!-- Generator: Adobe Illustrator 16.0.0, SVG Export Plug-In . SVG Version: 6.00 Build 0)  -->
<!DOCTYPE svg PUBLIC "-//W3C//DTD SVG 1.1//EN" "http://www.w3.org/Graphics/SVG/1.1/DTD/svg11.dtd">
<svg version="1.1" id="Layer_1" xmlns="http://www.w3.org/2000/svg" xmlns:xlink="http://www.w3.org/1999/xlink" x="0px" y="0px"
	 width="153.412px" height="208.316px" viewBox="0 0 153.412 208.316" enable-background="new 0 0 153.412 208.316"
	 xml:space="preserve">
<g id="Layer_1_1_">
	<g>
		<g>
			<path fill="#CCA441" d="M68.287,69.511c-0.158,4.406,2.36,8.185,7.554,11.33c5.193,3.15,12.514,6.298,21.954,9.443l11.565,4.013
				c6.925,2.52,13.181,5.665,18.77,9.442c5.584,3.776,10.346,8.225,14.28,13.337c3.935,5.117,6.847,10.859,8.735,17.233
				s2.598,13.338,2.123,20.892c-1.102,16.842-7.908,29.902-20.42,39.188c-12.51,9.283-29.549,13.928-51.105,13.928
				c-10.546,0-20.696-1.145-30.452-3.422c-9.76-2.28-17.864-5.938-24.314-10.979c-2.207-1.888-4.095-4.049-5.666-6.491
				c-1.576-2.438-2.716-4.992-3.424-7.672c-0.708-2.674-0.825-5.466-0.354-8.381c0.473-2.91,1.571-5.702,3.306-8.379
				c1.729-2.676,4.168-4.723,7.317-6.139c3.146-1.416,6.292-2.202,9.442-2.36c4.091-0.155,7.354,0.474,9.797,1.889
				c2.438,1.416,4.757,2.757,6.964,4.014c2.675,1.733,6.138,3.188,10.387,4.367c4.249,1.182,10.387,1.771,18.413,1.771
				c6.609,0,11.722-1.18,15.344-3.54c3.618-2.36,5.508-6.139,5.665-11.332c0-2.202-0.866-4.327-2.597-6.374
				c-1.732-2.043-4.213-3.932-7.436-5.665c-3.228-1.729-6.965-3.424-11.213-5.075c-4.25-1.651-8.815-3.264-13.692-4.839
				c-1.888-0.627-3.896-1.336-6.02-2.125c-2.126-0.786-3.896-1.492-5.312-2.123c-8.971-3.778-16.211-8.459-21.718-14.048
				c-5.511-5.584-9.642-11.645-12.394-18.176c-2.755-6.53-4.172-13.257-4.249-20.185c-0.081-6.924,0.903-13.456,2.95-19.594
				C26.58,40.712,34.174,30.878,45.269,23.95c11.094-6.924,24.745-10.387,40.957-10.387c6.137,0,11.525,0.275,16.17,0.826
				c4.641,0.554,8.734,1.263,12.275,2.125c3.541,0.865,6.609,1.888,9.207,3.067c2.598,1.182,4.994,2.324,7.199,3.424
				c5.508,2.991,9.797,7.162,12.865,12.513s3.736,10.857,2.008,16.523c-1.575,4.879-4.213,8.344-7.909,10.388
				c-3.699,2.047-7.831,3.067-12.394,3.067c-1.734,0-3.699-0.313-5.902-0.942c-2.204-0.628-3.855-1.337-4.956-2.125
				c-2.833-1.891-6.456-3.541-10.858-4.958c-4.408-1.416-10.15-2.125-17.234-2.125c-5.664,0-10.112,1.145-13.335,3.423
				C70.136,61.054,68.442,64.635,68.287,69.511z"/>
		</g>
		<g>
			<path fill="#4A494A" d="M53.538,58.447c-0.159,4.407,2.36,8.185,7.554,11.331c5.193,3.149,12.512,6.296,21.954,9.442
				l11.566,4.013c6.923,2.52,13.18,5.666,18.769,9.443c5.584,3.775,10.347,8.225,14.281,13.337
				c3.933,5.116,6.846,10.857,8.733,17.231c1.889,6.374,2.599,13.338,2.123,20.893c-1.101,16.843-7.906,29.901-20.418,39.187
				c-12.511,9.284-29.549,13.928-51.106,13.928c-10.546,0-20.696-1.143-30.452-3.422c-9.76-2.28-17.864-5.938-24.315-10.978
				c-2.205-1.89-4.094-4.05-5.665-6.492c-1.575-2.438-2.716-4.993-3.423-7.671c-0.709-2.675-0.826-5.467-0.355-8.381
				c0.473-2.91,1.572-5.702,3.307-8.381c1.729-2.674,4.168-4.722,7.316-6.138c3.146-1.416,6.293-2.202,9.443-2.359
				c4.09-0.155,7.354,0.472,9.797,1.888c2.438,1.416,4.758,2.756,6.964,4.013c2.675,1.734,6.138,3.188,10.387,4.367
				c4.249,1.182,10.388,1.771,18.413,1.771c6.609,0,11.722-1.181,15.344-3.541c3.618-2.359,5.508-6.138,5.665-11.33
				c0-2.203-0.866-4.327-2.597-6.375c-1.732-2.043-4.213-3.932-7.436-5.665c-3.228-1.729-6.965-3.423-11.213-5.074
				c-4.25-1.653-8.815-3.265-13.692-4.84c-1.889-0.627-3.896-1.336-6.02-2.124c-2.125-0.787-3.896-1.494-5.313-2.125
				c-8.97-3.777-16.211-8.458-21.717-14.046c-5.511-5.585-9.643-11.646-12.395-18.178C6.284,75.643,4.866,68.915,4.79,61.988
				c-0.081-6.923,0.902-13.456,2.95-19.594c4.091-12.747,11.685-22.581,22.78-29.508C41.615,5.963,55.268,2.5,71.479,2.5
				c6.137,0,11.526,0.276,16.17,0.826c4.641,0.553,8.733,1.263,12.275,2.124c3.54,0.867,6.609,1.889,9.206,3.069
				c2.599,1.181,4.995,2.322,7.199,3.423c5.508,2.991,9.798,7.163,12.866,12.512c3.068,5.353,3.736,10.859,2.007,16.524
				c-1.574,4.879-4.214,8.344-7.908,10.387c-3.698,2.047-7.831,3.069-12.394,3.069c-1.733,0-3.699-0.314-5.901-0.944
				c-2.205-0.627-3.856-1.336-4.957-2.125c-2.834-1.889-6.455-3.541-10.858-4.958c-4.408-1.416-10.15-2.125-17.232-2.125
				c-5.666,0-10.115,1.146-13.337,3.424C55.387,49.989,53.693,53.57,53.538,58.447z"/>
			<path d="M66.994,199.752c-10.679,0-21.116-1.174-31.021-3.487c-10.072-2.354-18.579-6.203-25.285-11.442l-0.088-0.071
				c-2.386-2.045-4.453-4.413-6.141-7.038c-1.709-2.646-2.967-5.468-3.737-8.385c-0.795-2.998-0.932-6.168-0.406-9.419
				c0.527-3.246,1.764-6.388,3.676-9.341c1.987-3.073,4.81-5.448,8.388-7.059c3.417-1.537,6.897-2.404,10.345-2.576
				c0.468-0.018,0.897-0.026,1.317-0.026c3.968,0,7.285,0.757,9.858,2.248c2.434,1.414,4.747,2.75,6.948,4.004l0.122,0.074
				c2.444,1.585,5.707,2.949,9.696,4.056c4.01,1.115,9.98,1.681,17.745,1.681c6.083,0,10.786-1.055,13.979-3.136
				c2.917-1.901,4.399-4.947,4.531-9.311c-0.001-1.531-0.657-3.089-2.007-4.687c-1.518-1.789-3.776-3.498-6.711-5.076
				c-3.134-1.68-6.814-3.345-10.934-4.946c-4.151-1.615-8.711-3.227-13.555-4.791c-1.908-0.633-3.961-1.357-6.121-2.159
				c-2.212-0.819-3.998-1.534-5.46-2.185c-9.193-3.871-16.772-8.781-22.481-14.575C13.945,96.32,9.598,89.94,6.734,83.142
				c-2.87-6.802-4.365-13.91-4.444-21.127c-0.084-7.171,0.952-14.039,3.078-20.412c4.248-13.236,12.268-23.621,23.828-30.837
				C40.644,3.622,54.869,0,71.479,0c6.197,0,11.736,0.284,16.464,0.844c4.706,0.56,8.936,1.293,12.572,2.177
				c3.688,0.903,6.933,1.987,9.65,3.223c2.563,1.165,5.013,2.33,7.281,3.462c5.972,3.242,10.629,7.772,13.918,13.504
				c3.41,5.95,4.16,12.173,2.229,18.499c-1.78,5.519-4.834,9.492-9.089,11.844c-4.054,2.244-8.631,3.382-13.604,3.382
				c-1.958,0-4.175-0.35-6.589-1.041c-2.501-0.711-4.375-1.528-5.727-2.497c-2.556-1.702-6-3.269-10.167-4.61
				c-4.142-1.33-9.682-2.005-16.467-2.005c-5.11,0-9.111,0.998-11.894,2.965c-2.576,1.822-3.892,4.694-4.021,8.779
				c-0.125,3.472,1.952,6.449,6.351,9.114c5.006,3.036,12.223,6.134,21.449,9.209l11.596,4.022
				c7.124,2.592,13.622,5.863,19.35,9.734c5.778,3.907,10.779,8.579,14.862,13.883c4.107,5.344,7.186,11.415,9.149,18.046
				c1.965,6.632,2.712,13.953,2.221,21.76c-1.146,17.532-8.354,31.338-21.423,41.037C106.696,194.9,89.001,199.752,66.994,199.752z
				 M13.811,180.918c6.124,4.771,13.962,8.296,23.3,10.478c9.532,2.228,19.586,3.356,29.883,3.356
				c20.91,0,37.604-4.521,49.616-13.436c12.004-8.907,18.354-21.122,19.413-37.342c0.454-7.213-0.227-13.951-2.025-20.02
				c-1.788-6.04-4.587-11.564-8.318-16.418c-3.755-4.879-8.364-9.182-13.699-12.789c-5.388-3.642-11.52-6.726-18.224-9.166l-11.53-4
				c-9.551-3.183-17.107-6.438-22.431-9.667c-6.003-3.637-8.949-8.199-8.756-13.559c0.18-5.667,2.243-9.941,6.131-12.692
				c3.644-2.577,8.617-3.883,14.781-3.883c7.305,0,13.36,0.755,17.997,2.245c4.607,1.483,8.47,3.252,11.48,5.258
				c0.663,0.474,1.87,1.123,4.254,1.801c1.971,0.564,3.726,0.849,5.218,0.849c4.115,0,7.878-0.927,11.183-2.757
				c3.15-1.742,5.355-4.675,6.74-8.967c1.521-4.984,0.938-9.744-1.797-14.514c-2.82-4.916-6.82-8.805-11.891-11.558
				c-2.138-1.065-4.531-2.204-7.04-3.344c-2.436-1.107-5.385-2.088-8.767-2.917c-3.439-0.836-7.47-1.533-11.977-2.07
				C82.821,5.272,77.479,5,71.479,5C55.82,5,42.484,8.367,31.844,15.008C21.315,21.58,14.006,31.052,10.12,43.158
				c-1.958,5.87-2.908,12.187-2.83,18.8c0.072,6.566,1.435,13.039,4.051,19.241c2.617,6.211,6.61,12.063,11.871,17.394
				c5.245,5.323,12.279,9.864,20.908,13.498c1.391,0.618,3.128,1.313,5.211,2.084c2.107,0.782,4.105,1.487,5.939,2.096
				c4.917,1.588,9.569,3.233,13.811,4.883c4.307,1.675,8.172,3.425,11.487,5.201c3.49,1.877,6.235,3.979,8.161,6.251
				c2.118,2.506,3.19,5.194,3.19,7.992c-0.184,6.11-2.471,10.602-6.8,13.424c-4.019,2.619-9.641,3.947-16.709,3.947
				c-8.333,0-14.575-0.609-19.083-1.863c-4.446-1.233-8.152-2.794-11.016-4.638c-2.194-1.25-4.5-2.582-6.921-3.988
				c-2.009-1.165-4.87-1.686-8.446-1.552c-2.792,0.14-5.667,0.86-8.512,2.141c-2.724,1.226-4.766,2.932-6.243,5.216
				c-1.535,2.37-2.523,4.867-2.938,7.424c-0.413,2.552-0.311,5.022,0.304,7.34c0.636,2.409,1.681,4.749,3.106,6.955
				C10.08,177.209,11.812,179.197,13.811,180.918z"/>
		</g>
		<g>
			<g>
				<path fill="#FFFFFF" d="M66.945,18.209c0.138,4.579-3.466,8.407-8.048,8.545c-4.579,0.138-8.406-3.467-8.544-8.047
					c-0.138-4.578,3.468-8.404,8.045-8.543C62.98,10.027,66.808,13.631,66.945,18.209z"/>
			</g>
			<g>
				<path fill="#FFFFFF" d="M115.47,36.639c-1.828,0.055-3.68-0.564-5.146-1.882c-0.271-0.237-13.625-11.809-30.766-10.274
					c-4.011,0.348-7.641-2.635-8.002-6.693c-0.36-4.059,2.636-7.642,6.694-8.004c23.762-2.143,41.214,13.346,41.941,14.007
					c3.024,2.729,3.262,7.396,0.531,10.417C119.321,35.764,117.408,36.58,115.47,36.639z"/>
			</g>
		</g>
	</g>
</g>
<g id="Layer_2">
</g>
<g id="Layer_3">
</g>
</svg>
