<?xml version="1.0" encoding="utf-8"?>
<!-- Generator: Adobe Illustrator 16.0.0, SVG Export Plug-In . SVG Version: 6.00 Build 0)  -->
<!DOCTYPE svg PUBLIC "-//W3C//DTD SVG 1.1//EN" "http://www.w3.org/Graphics/SVG/1.1/DTD/svg11.dtd">
<svg version="1.1" id="Layer_1" xmlns="http://www.w3.org/2000/svg" xmlns:xlink="http://www.w3.org/1999/xlink" x="0px" y="0px"
	 width="91.977px" height="105.473px" viewBox="0 0 91.977 105.473" enable-background="new 0 0 91.977 105.473"
	 xml:space="preserve">
<g>
	<g>
		<path fill="#CCA441" d="M38.421,105.473V29.384H19.884c-1.776,0-3.29-0.323-4.543-0.97c-1.254-0.646-2.262-1.494-3.028-2.545
			c-0.771-1.051-1.332-2.223-1.695-3.516c-0.364-1.291-0.547-2.545-0.547-3.756c0-1.212,0.183-2.442,0.547-3.696
			c0.363-1.251,0.927-2.382,1.695-3.391c0.769-1.01,1.774-1.818,3.028-2.425c1.253-0.605,2.767-0.908,4.543-0.908h62.277
			c1.776,0,3.291,0.303,4.545,0.908c1.25,0.604,2.26,1.415,3.027,2.425c0.768,1.009,1.333,2.14,1.696,3.391
			c0.363,1.254,0.545,2.484,0.545,3.696c0,1.211-0.182,2.465-0.545,3.756c-0.363,1.293-0.95,2.465-1.758,3.516
			c-0.81,1.051-1.815,1.896-3.027,2.545c-1.213,0.646-2.707,0.97-4.483,0.97H63.624v76.089H38.421z"/>
	</g>
	<g>
		<path fill="#4A494A" d="M30.853,99.794V23.703h-18.54c-1.774,0-3.291-0.321-4.543-0.971c-1.253-0.646-2.263-1.494-3.027-2.545
			c-0.771-1.049-1.333-2.22-1.696-3.514C2.682,15.384,2.5,14.132,2.5,12.92c0-1.211,0.183-2.442,0.546-3.695
			c0.363-1.251,0.927-2.382,1.696-3.393c0.767-1.01,1.774-1.817,3.027-2.423C9.022,2.803,10.538,2.5,12.313,2.5H74.59
			c1.775,0,3.291,0.303,4.545,0.909c1.252,0.604,2.261,1.413,3.028,2.423c0.767,1.011,1.332,2.142,1.695,3.393
			c0.364,1.253,0.544,2.484,0.544,3.695c0,1.212-0.18,2.464-0.544,3.756c-0.363,1.294-0.949,2.465-1.757,3.514
			c-0.81,1.053-1.815,1.899-3.03,2.545c-1.211,0.647-2.706,0.971-4.481,0.971H56.054v76.091L30.853,99.794L30.853,99.794z"/>
		<path d="M58.554,102.296l-30.201-0.002V26.203h-16.04c-2.177,0-4.093-0.421-5.694-1.251c-1.591-0.82-2.905-1.929-3.897-3.293
			c-0.933-1.269-1.636-2.722-2.082-4.309C0.216,15.849,0,14.358,0,12.92c0-1.438,0.217-2.916,0.645-4.392
			c0.449-1.547,1.158-2.963,2.108-4.211c1.002-1.32,2.325-2.384,3.929-3.159C8.268,0.39,10.163,0,12.313,0H74.59
			c2.148,0,4.044,0.39,5.634,1.159c1.599,0.771,2.922,1.834,3.93,3.161c0.951,1.253,1.659,2.668,2.105,4.208
			c0.427,1.468,0.644,2.946,0.644,4.393c0,1.441-0.215,2.933-0.638,4.434c-0.447,1.593-1.182,3.062-2.183,4.361
			c-1.024,1.333-2.316,2.419-3.838,3.227c-1.565,0.837-3.47,1.263-5.654,1.263H58.554V102.296z M33.353,97.294l20.201,0.002V21.205
			H74.59c1.354,0,2.465-0.227,3.303-0.675c0.905-0.481,1.632-1.09,2.228-1.864c0.618-0.803,1.053-1.674,1.331-2.666
			c0.3-1.062,0.451-2.098,0.451-3.08c0-0.974-0.149-1.983-0.444-2.998c-0.28-0.963-0.701-1.807-1.287-2.58
			c-0.531-0.699-1.226-1.25-2.122-1.682C77.141,5.222,75.979,5,74.59,5H12.313c-1.389,0-2.55,0.222-3.453,0.659
			C7.959,6.095,7.264,6.645,6.734,7.344c-0.586,0.77-1.006,1.612-1.287,2.578C5.151,10.944,5,11.953,5,12.92
			c0,0.979,0.152,2.013,0.452,3.075c0.287,1.022,0.713,1.908,1.304,2.711c0.544,0.748,1.248,1.335,2.159,1.804
			c0.889,0.461,2.03,0.693,3.398,0.693h21.04V97.294z"/>
	</g>
	<g>
		<g>
			<path fill="#FFFFFF" d="M74.354,15.586H50.952c-2.092,0-3.786-1.694-3.786-3.786c0-2.091,1.694-3.785,3.786-3.785h23.401
				c2.092,0,3.785,1.694,3.785,3.785C78.14,13.892,76.446,15.586,74.354,15.586z"/>
		</g>
		<g>
			<path fill="#FFFFFF" d="M44.434,12.221c0,2.353-1.907,4.261-4.262,4.261c-2.351,0-4.259-1.908-4.259-4.261
				c0-2.352,1.908-4.259,4.259-4.259C42.526,7.962,44.434,9.869,44.434,12.221z"/>
		</g>
	</g>
</g>
</svg>
