<?xml version="1.0" encoding="utf-8"?>
<!-- Generator: Adobe Illustrator 16.0.0, SVG Export Plug-In . SVG Version: 6.00 Build 0)  -->
<!DOCTYPE svg PUBLIC "-//W3C//DTD SVG 1.1//EN" "http://www.w3.org/Graphics/SVG/1.1/DTD/svg11.dtd">
<svg version="1.1" id="Layer_1" xmlns="http://www.w3.org/2000/svg" xmlns:xlink="http://www.w3.org/1999/xlink" x="0px" y="0px"
	 width="49.506px" height="49.502px" viewBox="0 0 49.506 49.502" enable-background="new 0 0 49.506 49.502" xml:space="preserve">
<path fill-rule="evenodd" clip-rule="evenodd" fill="#858686" d="M27.171,0c0.28,0.098,0.568,0.178,0.839,0.297
	c1.246,0.559,1.95,1.541,2.148,2.875c0.184,1.24,0.336,2.485,0.483,3.731c0.023,0.196,0.108,0.284,0.271,0.338
	c0.644,0.206,1.27,0.454,1.862,0.772c0.224,0.119,0.353,0.02,0.507-0.099c0.918-0.707,1.837-1.413,2.756-2.12
	c1.678-1.293,3.58-1.182,5.091,0.309c0.778,0.77,1.556,1.543,2.323,2.324c1.418,1.447,1.533,3.365,0.301,4.982
	c-0.7,0.922-1.405,1.843-2.121,2.752c-0.18,0.227-0.221,0.396-0.084,0.674c0.268,0.547,0.483,1.117,0.696,1.689
	c0.083,0.22,0.185,0.311,0.435,0.342c1.34,0.167,2.688,0.303,4.008,0.566c1.721,0.345,2.813,1.781,2.817,3.539
	c0.003,1.208,0.006,2.416-0.001,3.623c-0.01,1.8-1.333,3.313-3.114,3.557c-1.259,0.172-2.517,0.34-3.777,0.485
	c-0.226,0.026-0.29,0.136-0.359,0.31c-0.235,0.596-0.466,1.197-0.735,1.777c-0.104,0.225-0.077,0.367,0.066,0.551
	c0.715,0.912,1.417,1.833,2.122,2.754c1.306,1.702,1.182,3.601-0.335,5.125c-0.75,0.755-1.498,1.51-2.256,2.256
	c-1.486,1.464-3.411,1.579-5.056,0.311c-0.918-0.707-1.84-1.407-2.753-2.122c-0.193-0.151-0.341-0.198-0.591-0.078
	c-0.562,0.27-1.146,0.497-1.73,0.718c-0.222,0.082-0.315,0.18-0.349,0.431c-0.166,1.339-0.301,2.687-0.565,4.007
	c-0.343,1.723-1.78,2.818-3.534,2.824c-1.191,0.002-2.385,0.003-3.576,0c-1.822-0.006-3.326-1.275-3.599-3.064
	c-0.188-1.239-0.344-2.484-0.486-3.73c-0.029-0.266-0.116-0.381-0.361-0.473c-0.587-0.215-1.167-0.451-1.732-0.717
	c-0.225-0.104-0.365-0.08-0.55,0.064c-0.911,0.714-1.833,1.415-2.752,2.121c-1.701,1.307-3.602,1.188-5.125-0.333
	c-0.764-0.761-1.531-1.522-2.288-2.29c-1.425-1.445-1.548-3.37-0.318-4.979c0.713-0.934,1.426-1.867,2.155-2.788
	c0.17-0.218,0.194-0.385,0.064-0.635c-0.201-0.382-0.427-0.778-0.498-1.192c-0.137-0.775-0.649-0.88-1.291-0.947
	c-1.15-0.122-2.307-0.248-3.435-0.484c-1.625-0.342-2.73-1.797-2.737-3.461c-0.007-1.242-0.009-2.482,0-3.723
	c0.011-1.784,1.373-3.301,3.146-3.527c1.244-0.156,2.485-0.33,3.73-0.477c0.218-0.025,0.308-0.118,0.367-0.301
	c0.204-0.625,0.453-1.234,0.752-1.82c0.104-0.205,0.059-0.339-0.071-0.506c-0.722-0.928-1.434-1.861-2.148-2.793
	c-1.273-1.656-1.157-3.572,0.311-5.053c0.782-0.788,1.565-1.576,2.358-2.355c1.409-1.386,3.327-1.517,4.904-0.33
	c0.952,0.715,1.893,1.445,2.828,2.182c0.212,0.166,0.375,0.2,0.633,0.078c0.548-0.264,1.116-0.486,1.688-0.697
	c0.24-0.088,0.341-0.192,0.37-0.467c0.139-1.246,0.276-2.494,0.489-3.727c0.26-1.512,1.162-2.506,2.632-2.967
	C22.082,0.082,22.193,0.116,22.239,0C23.884,0,25.527,0,27.171,0z M46.407,24.751c0-0.548-0.003-1.097,0.002-1.645
	c0.003-0.425-0.185-0.636-0.624-0.69c-1.594-0.198-3.187-0.42-4.779-0.637c-0.73-0.1-1.177-0.51-1.381-1.225
	c-0.317-1.111-0.716-2.196-1.309-3.193c-0.482-0.814-0.396-1.527,0.191-2.258c0.919-1.141,1.795-2.314,2.686-3.477
	c0.408-0.532,0.402-0.641-0.055-1.1c-0.727-0.73-1.456-1.461-2.188-2.186c-0.429-0.427-0.545-0.436-1.021-0.068
	c-1.227,0.938-2.453,1.878-3.674,2.825c-0.609,0.472-1.25,0.563-1.927,0.179c-1.081-0.613-2.224-1.068-3.413-1.41
	c-0.665-0.192-1.082-0.615-1.179-1.313c-0.222-1.608-0.449-3.216-0.647-4.826c-0.058-0.469-0.285-0.639-0.729-0.637
	c-1.064,0.008-2.128,0.011-3.19,0c-0.466-0.006-0.697,0.17-0.757,0.66c-0.193,1.596-0.42,3.188-0.64,4.779
	c-0.099,0.714-0.514,1.144-1.204,1.341c-1.112,0.319-2.198,0.716-3.196,1.308c-0.813,0.48-1.526,0.406-2.259-0.18
	c-1.18-0.945-2.397-1.846-3.59-2.777c-0.344-0.268-0.614-0.254-0.92,0.063c-0.73,0.752-1.479,1.482-2.22,2.223
	c-0.487,0.49-0.491,0.575-0.062,1.135c0.932,1.213,1.862,2.426,2.797,3.635c0.46,0.596,0.536,1.227,0.164,1.886
	c-0.617,1.096-1.078,2.253-1.426,3.46c-0.186,0.643-0.613,1.046-1.291,1.14c-1.608,0.224-3.215,0.452-4.826,0.649
	c-0.464,0.057-0.649,0.27-0.646,0.718c0.006,1.079,0.007,2.159-0.001,3.237c-0.003,0.451,0.188,0.663,0.648,0.719
	c1.58,0.193,3.154,0.42,4.731,0.629c0.755,0.101,1.207,0.52,1.412,1.252c0.308,1.1,0.705,2.17,1.29,3.152
	c0.481,0.813,0.421,1.525-0.166,2.26c-0.915,1.145-1.793,2.316-2.687,3.477c-0.43,0.56-0.425,0.646,0.061,1.133
	c0.695,0.697,1.39,1.392,2.085,2.086c0.537,0.535,0.611,0.541,1.208,0.083c1.212-0.931,2.425-1.862,3.636-2.796
	c0.584-0.45,1.206-0.508,1.844-0.149c1.097,0.616,2.251,1.083,3.458,1.429c0.646,0.186,1.054,0.605,1.149,1.28
	c0.226,1.607,0.453,3.216,0.648,4.827c0.061,0.491,0.293,0.666,0.757,0.66c1.064-0.01,2.128-0.007,3.19,0
	c0.445,0.003,0.671-0.174,0.729-0.639c0.196-1.596,0.422-3.187,0.638-4.779c0.1-0.737,0.525-1.168,1.234-1.371
	c1.112-0.316,2.196-0.718,3.195-1.312c0.793-0.471,1.499-0.394,2.218,0.179c1.182,0.943,2.398,1.843,3.588,2.775
	c0.362,0.285,0.639,0.268,0.958-0.063c0.716-0.743,1.455-1.461,2.184-2.191c0.505-0.505,0.509-0.589,0.062-1.172
	c-0.931-1.211-1.861-2.427-2.795-3.636c-0.437-0.565-0.527-1.168-0.182-1.797c0.621-1.129,1.107-2.309,1.462-3.549
	c0.179-0.623,0.604-1.021,1.258-1.111c1.624-0.229,3.248-0.453,4.874-0.657c0.439-0.056,0.628-0.267,0.626-0.69
	C46.404,25.846,46.407,25.299,46.407,24.751z"/>
<path fill-rule="evenodd" clip-rule="evenodd" fill="#858686" d="M24.765,35.082c-5.681,0.008-10.35-4.666-10.344-10.346
	c0.006-5.66,4.66-10.313,10.321-10.318c5.682-0.008,10.352,4.663,10.344,10.346C35.08,30.422,30.425,35.078,24.765,35.082z
	 M31.957,24.736c-0.017-3.99-3.248-7.208-7.219-7.191c-3.986,0.019-7.201,3.246-7.188,7.219c0.016,3.986,3.249,7.208,7.217,7.191
	C28.754,31.938,31.973,28.707,31.957,24.736z"/>
</svg>
