<?xml version="1.0" encoding="utf-8"?>
<!-- Generator: Adobe Illustrator 16.0.0, SVG Export Plug-In . SVG Version: 6.00 Build 0)  -->
<!DOCTYPE svg PUBLIC "-//W3C//DTD SVG 1.1//EN" "http://www.w3.org/Graphics/SVG/1.1/DTD/svg11.dtd">
<svg version="1.1" id="Layer_1" xmlns="http://www.w3.org/2000/svg" xmlns:xlink="http://www.w3.org/1999/xlink" x="0px" y="0px"
	 width="44.348px" height="49.559px" viewBox="0 0 44.348 49.559" enable-background="new 0 0 44.348 49.559" xml:space="preserve">
<g>
	<path fill="none" stroke="#FFFFFF" stroke-width="3.2699" stroke-miterlimit="10" d="M30.656,36.985v7.67
		c0,1.804-1.465,3.269-3.271,3.269H4.904c-1.806,0-3.27-1.465-3.27-3.269V16.451c0-1.807,1.464-3.27,3.27-3.27h8.448"/>
	<path fill="none" stroke="#FFFFFF" stroke-width="3.2699" stroke-miterlimit="10" d="M33.312,1.635H16.963
		c-1.806,0-3.27,1.465-3.27,3.271v28.203c0,1.806,1.464,3.269,3.27,3.269h22.48c1.805,0,3.27-1.463,3.27-3.269V11.037L33.312,1.635z
		"/>
	<polyline fill="none" stroke="#FFFFFF" stroke-width="3.2699" stroke-miterlimit="10" points="42.688,11.072 33.229,11.037 
		33.217,1.601 	"/>
</g>
</svg>
