<?xml version="1.0" encoding="utf-8"?>
<!-- Generator: Adobe Illustrator 16.0.0, SVG Export Plug-In . SVG Version: 6.00 Build 0)  -->
<!DOCTYPE svg PUBLIC "-//W3C//DTD SVG 1.1//EN" "http://www.w3.org/Graphics/SVG/1.1/DTD/svg11.dtd">
<svg version="1.1" id="Layer_1" xmlns="http://www.w3.org/2000/svg" xmlns:xlink="http://www.w3.org/1999/xlink" x="0px" y="0px"
	 width="47.285px" height="49.138px" viewBox="0 0 47.285 49.138" enable-background="new 0 0 47.285 49.138" xml:space="preserve">
<g>
	<path fill="none" stroke="#FFFFFF" stroke-width="3.2699" stroke-miterlimit="10" d="M19.823,10.921H4.905
		c-1.805,0-3.271,1.465-3.271,3.27v15.021h18.188V10.921z"/>
	<path fill="none" stroke="#FFFFFF" stroke-width="3.2699" stroke-miterlimit="10" d="M19.823,29.212v18.291h14.92
		c1.807,0,3.27-1.465,3.27-3.27V29.212H19.823z"/>
	<path fill="none" stroke="#FFFFFF" stroke-width="3.2699" stroke-miterlimit="10" d="M1.635,29.212v15.021
		c0,1.805,1.466,3.27,3.271,3.27h14.918V29.212H1.635z"/>
	<path fill="none" stroke="#FFFFFF" stroke-width="3.2699" stroke-miterlimit="10" d="M45.65,16.938
		c0,1.676-1.361,3.035-3.036,3.035H30.347c-1.677,0-3.036-1.359-3.036-3.035V4.67c0-1.677,1.359-3.035,3.036-3.035h12.268
		c1.675,0,3.036,1.358,3.036,3.035V16.938z"/>
</g>
</svg>
