<?xml version="1.0" encoding="utf-8"?>
<!-- Generator: Adobe Illustrator 16.0.0, SVG Export Plug-In . SVG Version: 6.00 Build 0)  -->
<!DOCTYPE svg PUBLIC "-//W3C//DTD SVG 1.1//EN" "http://www.w3.org/Graphics/SVG/1.1/DTD/svg11.dtd">
<svg version="1.1" id="Layer_1" xmlns="http://www.w3.org/2000/svg" xmlns:xlink="http://www.w3.org/1999/xlink" x="0px" y="0px"
	 width="130.938px" height="41.229px" viewBox="0 0 130.938 41.229" enable-background="new 0 0 130.938 41.229"
	 xml:space="preserve">
<path d="M120.914,18.875c0.016,1.912,1.549,3.462,3.461,3.462c1.914,0,3.463-1.55,3.463-3.462V9.309
	c0-1.912-1.549-3.463-3.463-3.463c-1.912,0-3.461,1.551-3.461,3.463l0.016,5.645c0,0-0.436,1.882-2.495,1.961
	c-2.062,0.08-7.646-2.813-9.688-8.157c-0.73-1.786-1.748-2.495-3.326-2.495c-1.562,0-2.883,0.995-3.313,2.456
	c-1.935,6.374-6.489,8.345-7.916,8.444c-1.11,0.109-1.862,0.832-1.862,1.812s0.752,1.624,1.902,1.624
	c2.495,0,7.487-1.544,11.25-5.585C109.481,18.935,117.711,22.5,120.914,18.875"/>
<path d="M55.865,15.516c-1,0-1.81-0.811-1.81-1.811l0.011-4.872c0-1.912,1.55-3.463,3.463-3.463c1.912,0,3.424,1.551,3.424,3.463
	v3.09h19.838c2.229,0,2.908-0.487,3.615-0.713c0.989-0.317,2.092-0.103,2.512,0.84c0.42,0.943-0.072,1.886-0.875,2.404
	c-0.805,0.519-2.607,1.034-5.252,1.034h-7.575v1.902l13.726,0.031c1,0,1.81,0.811,1.81,1.811c0,0.998-0.81,1.809-1.81,1.809H53.488
	c-0.999,0-1.809-0.811-1.809-1.809c0-1,0.81-1.811,1.809-1.811l12.954-0.031v-1.902L55.865,15.516z"/>
<path d="M53.344,28.799c0-3.926,7.487-7.108,16.723-7.108c9.234,0,16.722,3.183,16.722,7.108c0,3.924-7.487,7.106-16.722,7.106
	C60.831,35.905,53.344,32.723,53.344,28.799 M70.066,32.496c5.383,0,9.748-1.656,9.748-3.697c0-2.043-4.365-3.698-9.748-3.698
	c-5.384,0-9.749,1.655-9.749,3.698C60.318,30.84,64.682,32.496,70.066,32.496"/>
<path d="M95.649,24.342c0-1,0.81-1.809,1.81-1.809H126.1c0.999,0,1.809,0.809,1.809,1.809v8.021c0,1-0.81,1.81-1.809,1.81H97.459
	c-1,0-1.81-0.81-1.81-1.81V24.342z M102.51,30.581h18.42v-4.517h-18.42V30.581z"/>
<path fill="#FFFFFF" d="M24.192,41.248c13.35,0,24.171-9.229,24.171-20.609c0-11.383-10.821-20.61-24.171-20.61
	c-13.349,0-24.171,9.228-24.171,20.61C0.021,32.02,10.843,41.248,24.192,41.248"/>
<path fill="#ED1C24" d="M1.752,20.639c0-10.568,10.047-19.135,22.44-19.135c12.394,0,22.44,8.566,22.44,19.135
	c0,10.565-10.046,19.133-22.44,19.133C11.799,39.771,1.752,31.204,1.752,20.639 M24.192,23.881c3.937,0,7.128-4.593,7.128-10.259
	c0-5.665-3.191-10.259-7.128-10.259s-7.127,4.594-7.127,10.259C17.065,19.288,20.255,23.881,24.192,23.881"/>
</svg>
